<svg width="983" height="621" viewBox="0 0 983 621" fill="none" xmlns="http://www.w3.org/2000/svg">
<rect width="983" height="621" fill="white"/>
<circle cx="474" cy="308" r="276.5" stroke="black" stroke-width="5"/>
<circle cx="473.5" cy="308.5" r="258" stroke="#4DABFF" stroke-width="3" stroke-dasharray="2 2"/>
<rect x="80" y="267" width="238" height="124" fill="white"/>
<rect x="341" y="485" width="274" height="132" fill="white"/>
<rect x="370" width="214" height="143" fill="white"/>
<rect x="633" y="257" width="238" height="158" fill="white"/>
<path d="M401.932 100.933C401.932 103.06 401.523 104.863 400.704 106.342C399.886 107.821 398.778 108.945 397.381 109.713C395.99 110.481 394.43 110.864 392.699 110.864C390.962 110.864 389.398 110.477 388.007 109.703C386.616 108.929 385.511 107.806 384.693 106.333C383.881 104.854 383.475 103.054 383.475 100.933C383.475 98.8057 383.881 97.0025 384.693 95.5235C385.511 94.0445 386.616 92.9211 388.007 92.1532C389.398 91.3854 390.962 91.0015 392.699 91.0015C394.43 91.0015 395.99 91.3854 397.381 92.1532C398.778 92.9211 399.886 94.0445 400.704 95.5235C401.523 97.0025 401.932 98.8057 401.932 100.933ZM397.155 100.933C397.155 99.6742 396.975 98.6106 396.617 97.7421C396.264 96.8735 395.754 96.2158 395.087 95.769C394.426 95.3221 393.63 95.0987 392.699 95.0987C391.774 95.0987 390.977 95.3221 390.31 95.769C389.643 96.2158 389.13 96.8735 388.771 97.7421C388.419 98.6106 388.243 99.6742 388.243 100.933C388.243 102.192 388.419 103.255 388.771 104.124C389.13 104.992 389.643 105.65 390.31 106.097C390.977 106.544 391.774 106.767 392.699 106.767C393.63 106.767 394.426 106.544 395.087 106.097C395.754 105.65 396.264 104.992 396.617 104.124C396.975 103.255 397.155 102.192 397.155 100.933ZM404.66 116.038V96.0994H409.229V98.5823H409.371C409.56 98.1417 409.827 97.7169 410.173 97.3078C410.526 96.8987 410.973 96.5651 411.514 96.3071C412.061 96.0428 412.716 95.9106 413.477 95.9106C414.484 95.9106 415.425 96.1749 416.3 96.7036C417.181 97.2323 417.892 98.0473 418.434 99.1487C418.975 100.25 419.246 101.654 419.246 103.359C419.246 105.002 418.984 106.377 418.462 107.485C417.946 108.592 417.247 109.423 416.366 109.977C415.491 110.531 414.519 110.808 413.449 110.808C412.719 110.808 412.086 110.688 411.552 110.449C411.017 110.21 410.567 109.895 410.202 109.505C409.843 109.115 409.566 108.696 409.371 108.249H409.276V116.038H404.66ZM409.182 103.35C409.182 104.13 409.286 104.81 409.493 105.389C409.707 105.968 410.013 106.418 410.409 106.739C410.812 107.054 411.293 107.211 411.854 107.211C412.42 107.211 412.902 107.054 413.298 106.739C413.695 106.418 413.993 105.968 414.195 105.389C414.403 104.81 414.506 104.13 414.506 103.35C414.506 102.569 414.403 101.893 414.195 101.32C413.993 100.747 413.695 100.304 413.298 99.9889C412.908 99.6742 412.426 99.5169 411.854 99.5169C411.287 99.5169 410.806 99.6711 410.409 99.9795C410.013 100.288 409.707 100.728 409.493 101.301C409.286 101.874 409.182 102.557 409.182 103.35ZM421.665 116.038V96.0994H426.234V98.5823H426.376C426.564 98.1417 426.832 97.7169 427.178 97.3078C427.53 96.8987 427.977 96.5651 428.519 96.3071C429.066 96.0428 429.721 95.9106 430.482 95.9106C431.489 95.9106 432.43 96.1749 433.305 96.7036C434.186 97.2323 434.897 98.0473 435.439 99.1487C435.98 100.25 436.25 101.654 436.25 103.359C436.25 105.002 435.989 106.377 435.467 107.485C434.951 108.592 434.252 109.423 433.371 109.977C432.496 110.531 431.524 110.808 430.454 110.808C429.724 110.808 429.091 110.688 428.556 110.449C428.021 110.21 427.571 109.895 427.206 109.505C426.848 109.115 426.571 108.696 426.376 108.249H426.281V116.038H421.665ZM426.187 103.35C426.187 104.13 426.291 104.81 426.498 105.389C426.712 105.968 427.018 106.418 427.414 106.739C427.817 107.054 428.298 107.211 428.858 107.211C429.425 107.211 429.906 107.054 430.303 106.739C430.699 106.418 430.998 105.968 431.2 105.389C431.407 104.81 431.511 104.13 431.511 103.35C431.511 102.569 431.407 101.893 431.2 101.32C430.998 100.747 430.699 100.304 430.303 99.9889C429.913 99.6742 429.431 99.5169 428.858 99.5169C428.292 99.5169 427.811 99.6711 427.414 99.9795C427.018 100.288 426.712 100.728 426.498 101.301C426.291 101.874 426.187 102.557 426.187 103.35ZM445.438 110.874C443.915 110.874 442.606 110.562 441.511 109.939C440.422 109.31 439.582 108.435 438.991 107.315C438.405 106.188 438.113 104.882 438.113 103.397C438.113 101.905 438.405 100.599 438.991 99.4791C439.582 98.3525 440.422 97.4777 441.511 96.8546C442.606 96.2253 443.915 95.9106 445.438 95.9106C446.961 95.9106 448.267 96.2253 449.356 96.8546C450.451 97.4777 451.292 98.3525 451.877 99.4791C452.468 100.599 452.764 101.905 452.764 103.397C452.764 104.882 452.468 106.188 451.877 107.315C451.292 108.435 450.451 109.31 449.356 109.939C448.267 110.562 446.961 110.874 445.438 110.874ZM445.467 107.39C446.021 107.39 446.489 107.22 446.873 106.881C447.257 106.541 447.55 106.069 447.751 105.464C447.959 104.86 448.063 104.162 448.063 103.369C448.063 102.563 447.959 101.858 447.751 101.254C447.55 100.65 447.257 100.178 446.873 99.8379C446.489 99.498 446.021 99.3281 445.467 99.3281C444.894 99.3281 444.409 99.498 444.013 99.8379C443.623 100.178 443.324 100.65 443.116 101.254C442.915 101.858 442.814 102.563 442.814 103.369C442.814 104.162 442.915 104.86 443.116 105.464C443.324 106.069 443.623 106.541 444.013 106.881C444.409 107.22 444.894 107.39 445.467 107.39ZM455.129 110.6V96.0994H459.613V98.7428H459.764C460.029 97.7861 460.46 97.0749 461.058 96.6092C461.656 96.1372 462.351 95.9011 463.144 95.9011C463.358 95.9011 463.578 95.9169 463.805 95.9483C464.032 95.9735 464.242 96.0144 464.438 96.0711V100.083C464.217 100.008 463.928 99.948 463.569 99.9039C463.217 99.8599 462.902 99.8379 462.625 99.8379C462.077 99.8379 461.583 99.9606 461.143 100.206C460.709 100.445 460.366 100.782 460.114 101.216C459.868 101.644 459.746 102.148 459.746 102.727V110.6H455.129ZM475.179 96.0994V99.498H466.031V96.0994H475.179ZM467.947 92.6253H472.564V106.04C472.564 106.324 472.608 106.553 472.696 106.729C472.79 106.899 472.925 107.022 473.102 107.098C473.278 107.167 473.489 107.201 473.734 107.201C473.91 107.201 474.096 107.186 474.291 107.154C474.493 107.117 474.644 107.085 474.744 107.06L475.443 110.392C475.223 110.455 474.911 110.534 474.508 110.628C474.112 110.723 473.637 110.783 473.083 110.808C472 110.858 471.072 110.732 470.298 110.43C469.53 110.122 468.941 109.643 468.532 108.995C468.13 108.347 467.934 107.532 467.947 106.55V92.6253ZM486.89 104.341V96.0994H491.497V110.6H487.097V107.9H486.946C486.625 108.788 486.078 109.492 485.304 110.015C484.536 110.531 483.607 110.789 482.519 110.789C481.53 110.789 480.662 110.562 479.913 110.109C479.164 109.656 478.582 109.024 478.166 108.212C477.751 107.393 477.54 106.437 477.534 105.342V96.0994H482.15V104.435C482.157 105.222 482.364 105.842 482.773 106.295C483.183 106.748 483.74 106.975 484.444 106.975C484.904 106.975 485.316 106.874 485.681 106.673C486.052 106.465 486.345 106.166 486.559 105.776C486.779 105.379 486.89 104.901 486.89 104.341ZM499.051 102.33V110.6H494.435V96.0994H498.825V98.7616H498.985C499.306 97.8742 499.854 97.1788 500.628 96.6753C501.402 96.1655 502.324 95.9106 503.394 95.9106C504.414 95.9106 505.298 96.1403 506.047 96.5997C506.802 97.0529 507.387 97.6886 507.803 98.5067C508.224 99.3186 508.432 100.269 508.426 101.358V110.6H503.809V102.264C503.816 101.458 503.611 100.829 503.196 100.376C502.787 99.9228 502.217 99.6963 501.487 99.6963C501.002 99.6963 500.574 99.8032 500.203 100.017C499.838 100.225 499.555 100.524 499.353 100.914C499.158 101.304 499.058 101.776 499.051 102.33ZM511.284 110.6V96.0994H515.9V110.6H511.284ZM513.597 94.4095C512.949 94.4095 512.392 94.1956 511.926 93.7676C511.46 93.3333 511.227 92.8109 511.227 92.2004C511.227 91.5963 511.46 91.0802 511.926 90.6522C512.392 90.2179 512.949 90.0008 513.597 90.0008C514.251 90.0008 514.808 90.2179 515.268 90.6522C515.734 91.0802 515.966 91.5963 515.966 92.2004C515.966 92.8109 515.734 93.3333 515.268 93.7676C514.808 94.1956 514.251 94.4095 513.597 94.4095ZM527.024 96.0994V99.498H517.876V96.0994H527.024ZM519.792 92.6253H524.409V106.04C524.409 106.324 524.453 106.553 524.541 106.729C524.635 106.899 524.771 107.022 524.947 107.098C525.123 107.167 525.334 107.201 525.579 107.201C525.756 107.201 525.941 107.186 526.136 107.154C526.338 107.117 526.489 107.085 526.589 107.06L527.288 110.392C527.068 110.455 526.756 110.534 526.353 110.628C525.957 110.723 525.482 110.783 524.928 110.808C523.845 110.858 522.917 110.732 522.143 110.43C521.375 110.122 520.787 109.643 520.378 108.995C519.975 108.347 519.78 107.532 519.792 106.55V92.6253ZM529.379 110.6V96.0994H533.996V110.6H529.379ZM531.692 94.4095C531.044 94.4095 530.487 94.1956 530.021 93.7676C529.555 93.3333 529.323 92.8109 529.323 92.2004C529.323 91.5963 529.555 91.0802 530.021 90.6522C530.487 90.2179 531.044 90.0008 531.692 90.0008C532.347 90.0008 532.904 90.2179 533.363 90.6522C533.829 91.0802 534.062 91.5963 534.062 92.2004C534.062 92.8109 533.829 93.3333 533.363 93.7676C532.904 94.1956 532.347 94.4095 531.692 94.4095ZM543.712 110.874C542.195 110.874 540.886 110.575 539.785 109.977C538.69 109.373 537.847 108.514 537.255 107.4C536.67 106.279 536.377 104.948 536.377 103.406C536.377 101.908 536.673 100.599 537.264 99.4791C537.856 98.3525 538.69 97.4777 539.766 96.8546C540.842 96.2253 542.111 95.9106 543.571 95.9106C544.603 95.9106 545.547 96.0711 546.403 96.3921C547.259 96.713 547.998 97.1882 548.621 97.8176C549.244 98.447 549.729 99.2242 550.075 100.149C550.421 101.068 550.594 102.122 550.594 103.312V104.464H537.991V101.783H546.299C546.293 101.292 546.176 100.854 545.95 100.47C545.723 100.086 545.412 99.7875 545.015 99.5735C544.625 99.3532 544.175 99.2431 543.665 99.2431C543.149 99.2431 542.686 99.3595 542.277 99.5924C541.868 99.819 541.544 100.131 541.305 100.527C541.066 100.917 540.94 101.361 540.927 101.858V104.586C540.927 105.178 541.044 105.697 541.277 106.144C541.509 106.585 541.84 106.928 542.268 107.173C542.696 107.419 543.206 107.541 543.797 107.541C544.206 107.541 544.578 107.485 544.911 107.371C545.245 107.258 545.531 107.091 545.77 106.871C546.009 106.651 546.189 106.38 546.308 106.059L550.547 106.182C550.371 107.132 549.984 107.96 549.386 108.665C548.794 109.363 548.017 109.908 547.054 110.298C546.091 110.682 544.977 110.874 543.712 110.874ZM565.612 100.527L561.373 100.64C561.329 100.338 561.21 100.071 561.014 99.8379C560.819 99.5987 560.564 99.413 560.25 99.2809C559.941 99.1424 559.583 99.0732 559.174 99.0732C558.639 99.0732 558.182 99.1802 557.805 99.3942C557.433 99.6081 557.251 99.8976 557.257 100.263C557.251 100.546 557.364 100.791 557.597 100.999C557.836 101.207 558.261 101.374 558.871 101.499L561.666 102.028C563.113 102.305 564.19 102.764 564.895 103.406C565.606 104.048 565.964 104.898 565.971 105.955C565.964 106.95 565.669 107.815 565.083 108.551C564.504 109.288 563.711 109.861 562.704 110.27C561.697 110.672 560.546 110.874 559.249 110.874C557.178 110.874 555.545 110.449 554.349 109.599C553.16 108.743 552.48 107.598 552.31 106.163L556.87 106.05C556.971 106.578 557.232 106.981 557.654 107.258C558.075 107.535 558.613 107.674 559.268 107.674C559.86 107.674 560.341 107.563 560.712 107.343C561.084 107.123 561.273 106.83 561.279 106.465C561.273 106.138 561.128 105.877 560.845 105.682C560.561 105.48 560.118 105.323 559.513 105.21L556.983 104.728C555.529 104.464 554.447 103.976 553.736 103.265C553.025 102.547 552.672 101.635 552.678 100.527C552.672 99.5578 552.93 98.7302 553.453 98.0442C553.975 97.3518 554.718 96.8232 555.681 96.4581C556.643 96.0931 557.779 95.9106 559.089 95.9106C561.052 95.9106 562.6 96.3228 563.733 97.1473C564.866 97.9655 565.492 99.0921 565.612 100.527ZM388.199 142.846C387.274 142.846 386.453 142.691 385.735 142.383C385.024 142.068 384.461 141.596 384.045 140.967C383.636 140.331 383.432 139.535 383.432 138.578C383.432 137.773 383.573 137.093 383.856 136.539C384.14 135.985 384.53 135.535 385.027 135.189C385.524 134.843 386.097 134.582 386.745 134.406C387.394 134.223 388.086 134.1 388.822 134.038C389.647 133.962 390.311 133.883 390.814 133.801C391.318 133.713 391.683 133.591 391.909 133.433C392.142 133.27 392.259 133.04 392.259 132.744V132.697C392.259 132.212 392.092 131.838 391.758 131.574C391.425 131.309 390.975 131.177 390.408 131.177C389.798 131.177 389.307 131.309 388.935 131.574C388.564 131.838 388.328 132.203 388.227 132.669L383.97 132.518C384.096 131.636 384.42 130.85 384.942 130.157C385.471 129.459 386.195 128.911 387.113 128.515C388.039 128.112 389.149 127.911 390.446 127.911C391.371 127.911 392.224 128.021 393.004 128.241C393.785 128.455 394.465 128.77 395.044 129.185C395.623 129.594 396.069 130.098 396.384 130.696C396.705 131.293 396.866 131.976 396.866 132.744V142.6H392.523V140.58H392.41C392.152 141.071 391.821 141.486 391.418 141.826C391.022 142.166 390.553 142.421 390.012 142.591C389.477 142.761 388.873 142.846 388.199 142.846ZM389.625 139.825C390.122 139.825 390.569 139.724 390.965 139.522C391.368 139.321 391.689 139.044 391.928 138.692C392.167 138.333 392.287 137.918 392.287 137.446V136.067C392.155 136.136 391.994 136.199 391.805 136.256C391.623 136.313 391.422 136.366 391.201 136.417C390.981 136.467 390.754 136.511 390.522 136.549C390.289 136.586 390.065 136.621 389.851 136.653C389.417 136.722 389.046 136.829 388.737 136.974C388.435 137.118 388.202 137.307 388.039 137.54C387.881 137.767 387.803 138.037 387.803 138.352C387.803 138.83 387.973 139.195 388.312 139.447C388.659 139.699 389.096 139.825 389.625 139.825ZM404.305 134.33V142.6H399.688V128.099H404.078V130.762H404.239C404.56 129.874 405.107 129.179 405.881 128.675C406.655 128.165 407.577 127.911 408.647 127.911C409.667 127.911 410.551 128.14 411.3 128.6C412.055 129.053 412.641 129.689 413.056 130.507C413.478 131.319 413.685 132.269 413.679 133.358V142.6H409.063V134.264C409.069 133.458 408.865 132.829 408.449 132.376C408.04 131.923 407.47 131.696 406.74 131.696C406.256 131.696 405.828 131.803 405.456 132.017C405.091 132.225 404.808 132.524 404.607 132.914C404.412 133.304 404.311 133.776 404.305 134.33ZM421.833 142.808C420.764 142.808 419.791 142.531 418.916 141.977C418.042 141.423 417.343 140.592 416.821 139.485C416.298 138.377 416.037 137.002 416.037 135.359C416.037 133.654 416.308 132.25 416.849 131.149C417.39 130.047 418.098 129.232 418.973 128.704C419.854 128.175 420.801 127.911 421.815 127.911C422.576 127.911 423.228 128.043 423.769 128.307C424.31 128.565 424.757 128.899 425.109 129.308C425.462 129.717 425.729 130.142 425.912 130.582H426.006V123.266H430.623V142.6H426.053V140.249H425.912C425.717 140.696 425.44 141.115 425.081 141.505C424.722 141.895 424.272 142.21 423.731 142.449C423.196 142.688 422.564 142.808 421.833 142.808ZM423.438 139.211C423.999 139.211 424.477 139.054 424.873 138.739C425.27 138.418 425.575 137.968 425.789 137.389C426.003 136.81 426.11 136.13 426.11 135.35C426.11 134.557 426.003 133.874 425.789 133.301C425.581 132.728 425.276 132.288 424.873 131.979C424.477 131.671 423.999 131.517 423.438 131.517C422.866 131.517 422.381 131.674 421.985 131.989C421.588 132.304 421.286 132.747 421.078 133.32C420.877 133.893 420.776 134.569 420.776 135.35C420.776 136.13 420.88 136.81 421.088 137.389C421.295 137.968 421.594 138.418 421.985 138.739C422.381 139.054 422.866 139.211 423.438 139.211ZM439.254 142.6V128.099H443.738V130.743H443.889C444.153 129.786 444.584 129.075 445.182 128.609C445.78 128.137 446.476 127.901 447.269 127.901C447.483 127.901 447.703 127.917 447.93 127.948C448.156 127.974 448.367 128.014 448.562 128.071V132.083C448.342 132.008 448.052 131.948 447.694 131.904C447.341 131.86 447.026 131.838 446.749 131.838C446.202 131.838 445.708 131.961 445.267 132.206C444.833 132.445 444.49 132.782 444.238 133.216C443.993 133.644 443.87 134.148 443.87 134.727V142.6H439.254ZM456.469 142.874C454.952 142.874 453.643 142.575 452.541 141.977C451.446 141.373 450.603 140.514 450.011 139.4C449.426 138.279 449.133 136.948 449.133 135.406C449.133 133.908 449.429 132.599 450.021 131.479C450.612 130.353 451.446 129.478 452.522 128.855C453.599 128.225 454.867 127.911 456.327 127.911C457.359 127.911 458.303 128.071 459.159 128.392C460.015 128.713 460.755 129.188 461.378 129.818C462.001 130.447 462.485 131.224 462.831 132.149C463.178 133.068 463.351 134.122 463.351 135.312V136.464H450.748V133.783H459.055C459.049 133.292 458.933 132.854 458.706 132.47C458.479 132.086 458.168 131.788 457.771 131.574C457.381 131.353 456.931 131.243 456.421 131.243C455.905 131.243 455.443 131.36 455.034 131.592C454.624 131.819 454.3 132.131 454.061 132.527C453.822 132.917 453.696 133.361 453.684 133.858V136.586C453.684 137.178 453.8 137.697 454.033 138.144C454.266 138.585 454.596 138.928 455.024 139.173C455.452 139.419 455.962 139.541 456.554 139.541C456.963 139.541 457.334 139.485 457.667 139.371C458.001 139.258 458.287 139.091 458.527 138.871C458.766 138.651 458.945 138.38 459.065 138.059L463.304 138.182C463.127 139.132 462.74 139.96 462.142 140.665C461.551 141.363 460.773 141.908 459.81 142.298C458.848 142.682 457.734 142.874 456.469 142.874ZM478.368 132.527L474.129 132.64C474.085 132.338 473.966 132.071 473.771 131.838C473.576 131.599 473.321 131.413 473.006 131.281C472.698 131.142 472.339 131.073 471.93 131.073C471.395 131.073 470.939 131.18 470.561 131.394C470.19 131.608 470.007 131.898 470.013 132.263C470.007 132.546 470.12 132.791 470.353 132.999C470.592 133.207 471.017 133.374 471.628 133.499L474.422 134.028C475.87 134.305 476.946 134.764 477.651 135.406C478.362 136.048 478.721 136.898 478.727 137.955C478.721 138.95 478.425 139.815 477.84 140.551C477.261 141.288 476.468 141.861 475.461 142.27C474.454 142.672 473.302 142.874 472.005 142.874C469.935 142.874 468.301 142.449 467.106 141.599C465.916 140.743 465.236 139.598 465.067 138.163L469.626 138.05C469.727 138.578 469.988 138.981 470.41 139.258C470.832 139.535 471.37 139.674 472.024 139.674C472.616 139.674 473.097 139.563 473.469 139.343C473.84 139.123 474.029 138.83 474.035 138.465C474.029 138.138 473.884 137.877 473.601 137.682C473.318 137.48 472.874 137.323 472.27 137.21L469.74 136.728C468.286 136.464 467.203 135.976 466.492 135.265C465.781 134.547 465.428 133.635 465.435 132.527C465.428 131.558 465.686 130.73 466.209 130.044C466.731 129.352 467.474 128.823 468.437 128.458C469.4 128.093 470.536 127.911 471.845 127.911C473.808 127.911 475.357 128.323 476.49 129.147C477.622 129.965 478.249 131.092 478.368 132.527ZM489.185 128.099V131.498H480.037V128.099H489.185ZM481.953 124.625H486.57V138.04C486.57 138.324 486.614 138.553 486.702 138.729C486.796 138.899 486.932 139.022 487.108 139.098C487.284 139.167 487.495 139.201 487.74 139.201C487.917 139.201 488.102 139.186 488.297 139.154C488.499 139.117 488.65 139.085 488.751 139.06L489.449 142.392C489.229 142.455 488.917 142.534 488.515 142.628C488.118 142.723 487.643 142.783 487.089 142.808C486.006 142.858 485.078 142.732 484.304 142.43C483.536 142.122 482.948 141.643 482.539 140.995C482.136 140.347 481.941 139.532 481.953 138.55V124.625ZM491.54 142.6V128.099H496.024V130.743H496.176C496.44 129.786 496.871 129.075 497.469 128.609C498.067 128.137 498.762 127.901 499.555 127.901C499.769 127.901 499.99 127.917 500.216 127.948C500.443 127.974 500.654 128.014 500.849 128.071V132.083C500.628 132.008 500.339 131.948 499.98 131.904C499.628 131.86 499.313 131.838 499.036 131.838C498.488 131.838 497.994 131.961 497.554 132.206C497.12 132.445 496.777 132.782 496.525 133.216C496.279 133.644 496.157 134.148 496.157 134.727V142.6H491.54ZM506.272 142.846C505.347 142.846 504.526 142.691 503.808 142.383C503.097 142.068 502.534 141.596 502.118 140.967C501.709 140.331 501.505 139.535 501.505 138.578C501.505 137.773 501.646 137.093 501.93 136.539C502.213 135.985 502.603 135.535 503.1 135.189C503.597 134.843 504.17 134.582 504.818 134.406C505.467 134.223 506.159 134.1 506.895 134.038C507.72 133.962 508.384 133.883 508.887 133.801C509.391 133.713 509.756 133.591 509.982 133.433C510.215 133.27 510.332 133.04 510.332 132.744V132.697C510.332 132.212 510.165 131.838 509.831 131.574C509.498 131.309 509.048 131.177 508.481 131.177C507.871 131.177 507.38 131.309 507.009 131.574C506.637 131.838 506.401 132.203 506.301 132.669L502.043 132.518C502.169 131.636 502.493 130.85 503.015 130.157C503.544 129.459 504.268 128.911 505.187 128.515C506.112 128.112 507.223 127.911 508.519 127.911C509.444 127.911 510.297 128.021 511.077 128.241C511.858 128.455 512.538 128.77 513.117 129.185C513.696 129.594 514.142 130.098 514.457 130.696C514.778 131.293 514.939 131.976 514.939 132.744V142.6H510.596V140.58H510.483C510.225 141.071 509.894 141.486 509.491 141.826C509.095 142.166 508.626 142.421 508.085 142.591C507.55 142.761 506.946 142.846 506.272 142.846ZM507.698 139.825C508.195 139.825 508.642 139.724 509.038 139.522C509.441 139.321 509.762 139.044 510.001 138.692C510.24 138.333 510.36 137.918 510.36 137.446V136.067C510.228 136.136 510.067 136.199 509.878 136.256C509.696 136.313 509.495 136.366 509.274 136.417C509.054 136.467 508.827 136.511 508.595 136.549C508.362 136.586 508.138 136.621 507.924 136.653C507.49 136.722 507.119 136.829 506.81 136.974C506.508 137.118 506.275 137.307 506.112 137.54C505.954 137.767 505.876 138.037 505.876 138.352C505.876 138.83 506.046 139.195 506.385 139.447C506.732 139.699 507.169 139.825 507.698 139.825ZM517.761 142.6V128.099H522.378V142.6H517.761ZM520.074 126.41C519.426 126.41 518.869 126.196 518.403 125.768C517.938 125.333 517.705 124.811 517.705 124.2C517.705 123.596 517.938 123.08 518.403 122.652C518.869 122.218 519.426 122.001 520.074 122.001C520.729 122.001 521.286 122.218 521.745 122.652C522.211 123.08 522.444 123.596 522.444 124.2C522.444 124.811 522.211 125.333 521.745 125.768C521.286 126.196 520.729 126.41 520.074 126.41ZM529.933 134.33V142.6H525.316V128.099H529.706V130.762H529.867C530.187 129.874 530.735 129.179 531.509 128.675C532.283 128.165 533.205 127.911 534.275 127.911C535.295 127.911 536.179 128.14 536.928 128.6C537.683 129.053 538.269 129.689 538.684 130.507C539.106 131.319 539.313 132.269 539.307 133.358V142.6H534.691V134.264C534.697 133.458 534.492 132.829 534.077 132.376C533.668 131.923 533.098 131.696 532.368 131.696C531.884 131.696 531.456 131.803 531.084 132.017C530.719 132.225 530.436 132.524 530.235 132.914C530.04 133.304 529.939 133.776 529.933 134.33ZM550.35 128.099V131.498H541.202V128.099H550.35ZM543.119 124.625H547.735V138.04C547.735 138.324 547.779 138.553 547.867 138.729C547.962 138.899 548.097 139.022 548.273 139.098C548.449 139.167 548.66 139.201 548.906 139.201C549.082 139.201 549.268 139.186 549.463 139.154C549.664 139.117 549.815 139.085 549.916 139.06L550.615 142.392C550.394 142.455 550.083 142.534 549.68 142.628C549.283 142.723 548.808 142.783 548.254 142.808C547.172 142.858 546.244 142.732 545.469 142.43C544.702 142.122 544.113 141.643 543.704 140.995C543.301 140.347 543.106 139.532 543.119 138.55V124.625ZM565.184 132.527L560.945 132.64C560.901 132.338 560.781 132.071 560.586 131.838C560.391 131.599 560.136 131.413 559.821 131.281C559.513 131.142 559.154 131.073 558.745 131.073C558.21 131.073 557.754 131.18 557.376 131.394C557.005 131.608 556.822 131.898 556.829 132.263C556.822 132.546 556.936 132.791 557.169 132.999C557.408 133.207 557.833 133.374 558.443 133.499L561.238 134.028C562.685 134.305 563.761 134.764 564.466 135.406C565.177 136.048 565.536 136.898 565.542 137.955C565.536 138.95 565.24 139.815 564.655 140.551C564.076 141.288 563.283 141.861 562.276 142.27C561.269 142.672 560.117 142.874 558.821 142.874C556.75 142.874 555.117 142.449 553.921 141.599C552.732 140.743 552.052 139.598 551.882 138.163L556.442 138.05C556.542 138.578 556.804 138.981 557.225 139.258C557.647 139.535 558.185 139.674 558.84 139.674C559.431 139.674 559.913 139.563 560.284 139.343C560.655 139.123 560.844 138.83 560.85 138.465C560.844 138.138 560.699 137.877 560.416 137.682C560.133 137.48 559.689 137.323 559.085 137.21L556.555 136.728C555.101 136.464 554.019 135.976 553.307 135.265C552.596 134.547 552.244 133.635 552.25 132.527C552.244 131.558 552.502 130.73 553.024 130.044C553.547 129.352 554.289 128.823 555.252 128.458C556.215 128.093 557.351 127.911 558.66 127.911C560.624 127.911 562.172 128.323 563.305 129.147C564.438 129.965 565.064 131.092 565.184 132.527Z" fill="black"/>
<circle cx="474.4" cy="41.4" r="32.4" fill="#01345C"/>
<g clip-path="url(#clip0_125_1722)">
<path d="M477.653 45.9866C479.607 44.4504 481.034 42.3433 481.734 39.9586C482.435 37.5738 482.374 35.03 481.561 32.6811C480.749 30.3322 479.224 28.2952 477.199 26.8533C475.175 25.4115 472.751 24.6367 470.266 24.6367C467.78 24.6367 465.356 25.4115 463.332 26.8533C461.307 28.2952 459.782 30.3322 458.97 32.6811C458.157 35.03 458.096 37.5738 458.797 39.9586C459.497 42.3433 460.924 44.4504 462.878 45.9866C459.735 47.2684 456.959 49.3072 454.795 51.9217C454.455 52.3263 454.289 52.8494 454.335 53.3759C454.381 53.9023 454.634 54.3891 455.039 54.729C455.443 55.0689 455.966 55.2341 456.493 55.1884C457.019 55.1426 457.506 54.8896 457.846 54.4849C461.058 50.6616 465.469 48.5549 470.266 48.5549C476.408 48.5549 480.412 51.7789 482.685 54.4849C483.025 54.8896 483.512 55.1426 484.038 55.1884C484.565 55.2341 485.088 55.0689 485.492 54.729C485.897 54.3891 486.15 53.9023 486.196 53.3759C486.242 52.8494 486.076 52.3263 485.737 51.9217C483.573 49.3072 480.796 47.2684 477.653 45.9866ZM462.297 36.6017C462.297 35.0257 462.764 33.485 463.64 32.1745C464.515 30.8641 465.76 29.8427 467.216 29.2396C468.672 28.6364 470.274 28.4786 471.82 28.7861C473.366 29.0936 474.786 29.8525 475.9 30.967C477.015 32.0814 477.774 33.5013 478.081 35.0471C478.389 36.5929 478.231 38.1952 477.628 39.6513C477.025 41.1074 476.003 42.3519 474.693 43.2275C473.382 44.1031 471.842 44.5705 470.266 44.5705C468.153 44.5683 466.127 43.728 464.633 42.2341C463.139 40.7401 462.299 38.7145 462.297 36.6017ZM493.928 43.2424L492.747 43.6259L493.476 44.6303C493.635 44.8415 493.751 45.0823 493.816 45.3386C493.881 45.5949 493.894 45.8616 493.855 46.1231C493.816 46.3846 493.725 46.6357 493.588 46.8617C493.451 47.0878 493.27 47.2843 493.056 47.4397C492.842 47.5952 492.599 47.7066 492.342 47.7673C492.085 47.828 491.818 47.8369 491.557 47.7934C491.296 47.75 491.047 47.655 490.823 47.5141C490.599 47.3732 490.406 47.1892 490.254 46.9727L489.523 45.9667L488.793 46.9727C488.641 47.1892 488.448 47.3732 488.224 47.5141C488 47.655 487.75 47.75 487.49 47.7934C487.229 47.8369 486.962 47.828 486.705 47.7673C486.447 47.7066 486.205 47.5952 485.991 47.4397C485.777 47.2843 485.596 47.0878 485.459 46.8617C485.322 46.6357 485.231 46.3846 485.192 46.1231C485.153 45.8616 485.166 45.5949 485.231 45.3386C485.296 45.0823 485.411 44.8415 485.57 44.6303L486.299 43.6259L485.119 43.2424C484.87 43.1616 484.64 43.0326 484.441 42.8627C484.242 42.6929 484.078 42.4855 483.959 42.2524C483.84 42.0193 483.768 41.7651 483.748 41.5042C483.727 41.2434 483.758 40.9811 483.839 40.7322C483.92 40.4833 484.049 40.2528 484.219 40.0538C484.388 39.8548 484.596 39.6912 484.829 39.5724C485.062 39.4535 485.316 39.3817 485.577 39.3611C485.838 39.3405 486.1 39.3715 486.349 39.4522L487.531 39.8357V38.5939C487.531 38.0656 487.741 37.5588 488.115 37.1852C488.488 36.8116 488.995 36.6017 489.523 36.6017C490.052 36.6017 490.558 36.8116 490.932 37.1852C491.306 37.5588 491.516 38.0656 491.516 38.5939V39.8357L492.698 39.4522C493.2 39.2891 493.747 39.3323 494.218 39.5724C494.688 39.8124 495.045 40.2296 495.208 40.7322C495.371 41.2348 495.328 41.7816 495.088 42.2524C494.848 42.7231 494.43 43.0792 493.928 43.2424Z" fill="white"/>
</g>
<path d="M686.065 356.271H681.345C681.282 355.786 681.153 355.349 680.958 354.958C680.763 354.568 680.505 354.235 680.184 353.958C679.863 353.681 679.482 353.47 679.041 353.325C678.607 353.174 678.126 353.099 677.597 353.099C676.659 353.099 675.851 353.328 675.171 353.788C674.497 354.247 673.978 354.911 673.613 355.78C673.254 356.648 673.075 357.699 673.075 358.933C673.075 360.217 673.258 361.293 673.623 362.162C673.994 363.024 674.513 363.675 675.18 364.116C675.854 364.55 676.65 364.767 677.569 364.767C678.085 364.767 678.554 364.701 678.975 364.569C679.403 364.437 679.778 364.245 680.099 363.993C680.426 363.735 680.694 363.424 680.901 363.058C681.115 362.687 681.263 362.269 681.345 361.803L686.065 361.831C685.983 362.687 685.735 363.531 685.319 364.361C684.91 365.192 684.347 365.95 683.63 366.636C682.912 367.316 682.037 367.857 681.005 368.26C679.979 368.663 678.802 368.864 677.474 368.864C675.725 368.864 674.158 368.481 672.773 367.713C671.395 366.939 670.306 365.812 669.506 364.333C668.707 362.854 668.308 361.054 668.308 358.933C668.308 356.806 668.713 355.003 669.525 353.524C670.337 352.045 671.435 350.921 672.82 350.153C674.205 349.385 675.756 349.001 677.474 349.001C678.645 349.001 679.727 349.165 680.722 349.492C681.716 349.813 682.591 350.285 683.346 350.908C684.102 351.525 684.715 352.284 685.187 353.184C685.659 354.084 685.952 355.113 686.065 356.271ZM695.508 368.874C693.985 368.874 692.676 368.562 691.581 367.939C690.492 367.31 689.652 366.435 689.06 365.315C688.475 364.188 688.182 362.882 688.182 361.397C688.182 359.905 688.475 358.599 689.06 357.479C689.652 356.353 690.492 355.478 691.581 354.855C692.676 354.225 693.985 353.911 695.508 353.911C697.031 353.911 698.337 354.225 699.426 354.855C700.521 355.478 701.361 356.353 701.947 357.479C702.538 358.599 702.834 359.905 702.834 361.397C702.834 362.882 702.538 364.188 701.947 365.315C701.361 366.435 700.521 367.31 699.426 367.939C698.337 368.562 697.031 368.874 695.508 368.874ZM695.536 365.39C696.09 365.39 696.559 365.22 696.943 364.881C697.327 364.541 697.62 364.069 697.821 363.464C698.029 362.86 698.133 362.162 698.133 361.369C698.133 360.563 698.029 359.858 697.821 359.254C697.62 358.65 697.327 358.178 696.943 357.838C696.559 357.498 696.09 357.328 695.536 357.328C694.964 357.328 694.479 357.498 694.083 357.838C693.692 358.178 693.393 358.65 693.186 359.254C692.984 359.858 692.884 360.563 692.884 361.369C692.884 362.162 692.984 362.86 693.186 363.464C693.393 364.069 693.692 364.541 694.083 364.881C694.479 365.22 694.964 365.39 695.536 365.39ZM705.199 368.6V354.099H709.589V356.762H709.749C710.051 355.881 710.561 355.185 711.279 354.675C711.996 354.165 712.852 353.911 713.846 353.911C714.853 353.911 715.716 354.169 716.433 354.685C717.151 355.201 717.607 355.893 717.802 356.762H717.953C718.224 355.899 718.752 355.21 719.539 354.694C720.326 354.172 721.254 353.911 722.324 353.911C723.696 353.911 724.81 354.351 725.666 355.232C726.522 356.107 726.95 357.309 726.95 358.839V368.6H722.333V359.896C722.333 359.172 722.148 358.621 721.776 358.244C721.405 357.86 720.924 357.668 720.332 357.668C719.696 357.668 719.196 357.876 718.831 358.291C718.472 358.7 718.293 359.251 718.293 359.943V368.6H713.856V359.849C713.856 359.175 713.673 358.643 713.308 358.253C712.943 357.863 712.462 357.668 711.864 357.668C711.461 357.668 711.106 357.765 710.797 357.961C710.489 358.149 710.246 358.42 710.07 358.772C709.9 359.125 709.815 359.54 709.815 360.019V368.6H705.199ZM729.81 374.038V354.099H734.38V356.582H734.521C734.71 356.142 734.978 355.717 735.324 355.308C735.676 354.899 736.123 354.565 736.664 354.307C737.212 354.043 737.866 353.911 738.628 353.911C739.635 353.911 740.576 354.175 741.451 354.704C742.332 355.232 743.043 356.047 743.584 357.149C744.125 358.25 744.396 359.654 744.396 361.359C744.396 363.002 744.135 364.377 743.613 365.485C743.096 366.592 742.398 367.423 741.517 367.977C740.642 368.531 739.669 368.808 738.6 368.808C737.869 368.808 737.237 368.688 736.702 368.449C736.167 368.21 735.717 367.895 735.352 367.505C734.993 367.115 734.716 366.696 734.521 366.249H734.427V374.038H729.81ZM734.332 361.35C734.332 362.13 734.436 362.81 734.644 363.389C734.858 363.968 735.163 364.418 735.56 364.739C735.963 365.054 736.444 365.211 737.004 365.211C737.571 365.211 738.052 365.054 738.449 364.739C738.845 364.418 739.144 363.968 739.345 363.389C739.553 362.81 739.657 362.13 739.657 361.35C739.657 360.569 739.553 359.893 739.345 359.32C739.144 358.747 738.845 358.304 738.449 357.989C738.058 357.674 737.577 357.517 737.004 357.517C736.438 357.517 735.956 357.671 735.56 357.979C735.163 358.288 734.858 358.728 734.644 359.301C734.436 359.874 734.332 360.557 734.332 361.35ZM753.594 368.874C752.077 368.874 750.768 368.575 749.666 367.977C748.571 367.373 747.728 366.514 747.136 365.4C746.551 364.279 746.258 362.948 746.258 361.406C746.258 359.908 746.554 358.599 747.146 357.479C747.737 356.353 748.571 355.478 749.647 354.855C750.724 354.225 751.992 353.911 753.452 353.911C754.484 353.911 755.428 354.071 756.284 354.392C757.14 354.713 757.88 355.188 758.503 355.818C759.126 356.447 759.61 357.224 759.956 358.149C760.303 359.068 760.476 360.122 760.476 361.312V362.464H747.873V359.783H756.18C756.174 359.292 756.058 358.854 755.831 358.47C755.604 358.086 755.293 357.788 754.896 357.574C754.506 357.353 754.056 357.243 753.546 357.243C753.03 357.243 752.568 357.36 752.159 357.592C751.749 357.819 751.425 358.131 751.186 358.527C750.947 358.917 750.821 359.361 750.809 359.858V362.586C750.809 363.178 750.925 363.697 751.158 364.144C751.391 364.585 751.721 364.928 752.149 365.173C752.577 365.419 753.087 365.541 753.679 365.541C754.088 365.541 754.459 365.485 754.792 365.371C755.126 365.258 755.412 365.091 755.652 364.871C755.891 364.651 756.07 364.38 756.19 364.059L760.429 364.182C760.252 365.132 759.865 365.96 759.267 366.665C758.676 367.363 757.898 367.908 756.935 368.298C755.973 368.682 754.859 368.874 753.594 368.874ZM771.018 354.099V357.498H761.871V354.099H771.018ZM763.787 350.625H768.403V364.04C768.403 364.324 768.447 364.553 768.536 364.729C768.63 364.899 768.765 365.022 768.942 365.098C769.118 365.167 769.329 365.201 769.574 365.201C769.75 365.201 769.936 365.186 770.131 365.154C770.332 365.117 770.483 365.085 770.584 365.06L771.283 368.392C771.063 368.455 770.751 368.534 770.348 368.628C769.952 368.723 769.476 368.783 768.923 368.808C767.84 368.858 766.912 368.732 766.138 368.43C765.37 368.122 764.781 367.643 764.372 366.995C763.969 366.347 763.774 365.532 763.787 364.55V350.625ZM773.374 368.6V354.099H777.99V368.6H773.374ZM775.687 352.41C775.039 352.41 774.482 352.196 774.016 351.768C773.55 351.333 773.317 350.811 773.317 350.2C773.317 349.596 773.55 349.08 774.016 348.652C774.482 348.218 775.039 348.001 775.687 348.001C776.341 348.001 776.898 348.218 777.358 348.652C777.824 349.08 778.056 349.596 778.056 350.2C778.056 350.811 777.824 351.333 777.358 351.768C776.898 352.196 776.341 352.41 775.687 352.41ZM789.114 354.099V357.498H779.966V354.099H789.114ZM781.882 350.625H786.499V364.04C786.499 364.324 786.543 364.553 786.631 364.729C786.725 364.899 786.86 365.022 787.037 365.098C787.213 365.167 787.424 365.201 787.669 365.201C787.845 365.201 788.031 365.186 788.226 365.154C788.428 365.117 788.579 365.085 788.679 365.06L789.378 368.392C789.158 368.455 788.846 368.534 788.443 368.628C788.047 368.723 787.572 368.783 787.018 368.808C785.935 368.858 785.007 368.732 784.233 368.43C783.465 368.122 782.877 367.643 782.467 366.995C782.065 366.347 781.87 365.532 781.882 364.55V350.625ZM791.469 368.6V354.099H796.085V368.6H791.469ZM793.782 352.41C793.134 352.41 792.577 352.196 792.111 351.768C791.645 351.333 791.412 350.811 791.412 350.2C791.412 349.596 791.645 349.08 792.111 348.652C792.577 348.218 793.134 348.001 793.782 348.001C794.437 348.001 794.994 348.218 795.453 348.652C795.919 349.08 796.152 349.596 796.152 350.2C796.152 350.811 795.919 351.333 795.453 351.768C794.994 352.196 794.437 352.41 793.782 352.41ZM813.09 354.099L808.115 368.6H802.828L797.863 354.099H802.725L805.396 364.088H805.547L808.228 354.099H813.09ZM821.171 368.874C819.655 368.874 818.346 368.575 817.244 367.977C816.149 367.373 815.306 366.514 814.714 365.4C814.129 364.279 813.836 362.948 813.836 361.406C813.836 359.908 814.132 358.599 814.724 357.479C815.315 356.353 816.149 355.478 817.225 354.855C818.301 354.225 819.57 353.911 821.03 353.911C822.062 353.911 823.006 354.071 823.862 354.392C824.718 354.713 825.457 355.188 826.081 355.818C826.704 356.447 827.188 357.224 827.534 358.149C827.881 359.068 828.054 360.122 828.054 361.312V362.464H815.45V359.783H823.758C823.752 359.292 823.635 358.854 823.409 358.47C823.182 358.086 822.871 357.788 822.474 357.574C822.084 357.353 821.634 357.243 821.124 357.243C820.608 357.243 820.146 357.36 819.736 357.592C819.327 357.819 819.003 358.131 818.764 358.527C818.525 358.917 818.399 359.361 818.386 359.858V362.586C818.386 363.178 818.503 363.697 818.736 364.144C818.969 364.585 819.299 364.928 819.727 365.173C820.155 365.419 820.665 365.541 821.256 365.541C821.665 365.541 822.037 365.485 822.37 365.371C822.704 365.258 822.99 365.091 823.229 364.871C823.469 364.651 823.648 364.38 823.768 364.059L828.006 364.182C827.83 365.132 827.443 365.96 826.845 366.665C826.254 367.363 825.476 367.908 824.513 368.298C823.55 368.682 822.436 368.874 821.171 368.874ZM671.825 400.6V386.099H676.442V400.6H671.825ZM674.138 384.41C673.49 384.41 672.933 384.196 672.467 383.768C672.002 383.333 671.769 382.811 671.769 382.2C671.769 381.596 672.002 381.08 672.467 380.652C672.933 380.218 673.49 380.001 674.138 380.001C674.793 380.001 675.35 380.218 675.809 380.652C676.275 381.08 676.508 381.596 676.508 382.2C676.508 382.811 676.275 383.333 675.809 383.768C675.35 384.196 674.793 384.41 674.138 384.41ZM683.997 392.33V400.6H679.38V386.099H683.77V388.762H683.93C684.251 387.874 684.799 387.179 685.573 386.675C686.347 386.165 687.269 385.911 688.339 385.911C689.359 385.911 690.243 386.14 690.992 386.6C691.747 387.053 692.333 387.689 692.748 388.507C693.17 389.319 693.377 390.269 693.371 391.358V400.6H688.755V392.264C688.761 391.458 688.556 390.829 688.141 390.376C687.732 389.923 687.162 389.696 686.432 389.696C685.948 389.696 685.52 389.803 685.148 390.017C684.783 390.225 684.5 390.524 684.299 390.914C684.104 391.304 684.003 391.776 683.997 392.33ZM704.414 386.099V389.498H695.266V386.099H704.414ZM697.183 382.625H701.799V396.04C701.799 396.324 701.843 396.553 701.931 396.729C702.026 396.899 702.161 397.022 702.337 397.098C702.513 397.167 702.724 397.201 702.97 397.201C703.146 397.201 703.332 397.186 703.527 397.154C703.728 397.117 703.879 397.085 703.98 397.06L704.678 400.392C704.458 400.455 704.147 400.534 703.744 400.628C703.347 400.723 702.872 400.783 702.318 400.808C701.236 400.858 700.307 400.732 699.533 400.43C698.766 400.122 698.177 399.643 697.768 398.995C697.365 398.347 697.17 397.532 697.183 396.55V382.625ZM713.392 400.874C711.875 400.874 710.566 400.575 709.465 399.977C708.37 399.373 707.526 398.514 706.935 397.4C706.349 396.279 706.057 394.948 706.057 393.406C706.057 391.908 706.353 390.599 706.944 389.479C707.536 388.353 708.37 387.478 709.446 386.855C710.522 386.225 711.79 385.911 713.25 385.911C714.283 385.911 715.227 386.071 716.083 386.392C716.939 386.713 717.678 387.188 718.301 387.818C718.924 388.447 719.409 389.224 719.755 390.149C720.101 391.068 720.274 392.122 720.274 393.312V394.464H707.671V391.783H715.979C715.973 391.292 715.856 390.854 715.63 390.47C715.403 390.086 715.091 389.788 714.695 389.574C714.305 389.353 713.855 389.243 713.345 389.243C712.829 389.243 712.366 389.36 711.957 389.592C711.548 389.819 711.224 390.131 710.985 390.527C710.746 390.917 710.62 391.361 710.607 391.858V394.586C710.607 395.178 710.724 395.697 710.956 396.144C711.189 396.585 711.52 396.928 711.948 397.173C712.376 397.419 712.885 397.541 713.477 397.541C713.886 397.541 714.257 397.485 714.591 397.371C714.925 397.258 715.211 397.091 715.45 396.871C715.689 396.651 715.869 396.38 715.988 396.059L720.227 396.182C720.051 397.132 719.664 397.96 719.066 398.665C718.474 399.363 717.697 399.908 716.734 400.298C715.771 400.682 714.657 400.874 713.392 400.874ZM727.248 381.266V400.6H722.632V381.266H727.248ZM734.803 381.266V400.6H730.187V381.266H734.803ZM737.742 400.6V386.099H742.358V400.6H737.742ZM740.055 384.41C739.406 384.41 738.849 384.196 738.384 383.768C737.918 383.333 737.685 382.811 737.685 382.2C737.685 381.596 737.918 381.08 738.384 380.652C738.849 380.218 739.406 380.001 740.055 380.001C740.709 380.001 741.266 380.218 741.726 380.652C742.191 381.08 742.424 381.596 742.424 382.2C742.424 382.811 742.191 383.333 741.726 383.768C741.266 384.196 740.709 384.41 740.055 384.41ZM752.056 406.34C750.678 406.34 749.498 406.148 748.516 405.764C747.534 405.38 746.763 404.855 746.203 404.188C745.643 403.52 745.306 402.765 745.193 401.922L749.564 401.676C749.645 401.972 749.796 402.23 750.017 402.45C750.243 402.671 750.536 402.841 750.895 402.96C751.26 403.08 751.688 403.14 752.179 403.14C752.953 403.14 753.592 402.951 754.095 402.573C754.605 402.202 754.86 401.55 754.86 400.619V398.07H754.699C754.517 398.517 754.24 398.917 753.868 399.269C753.497 399.621 753.035 399.898 752.481 400.1C751.933 400.301 751.304 400.402 750.593 400.402C749.535 400.402 748.566 400.156 747.685 399.665C746.81 399.168 746.108 398.4 745.58 397.362C745.057 396.317 744.796 394.974 744.796 393.331C744.796 391.638 745.067 390.244 745.608 389.149C746.149 388.047 746.857 387.232 747.732 386.704C748.613 386.175 749.56 385.911 750.574 385.911C751.335 385.911 751.987 386.043 752.528 386.307C753.075 386.565 753.525 386.899 753.878 387.308C754.23 387.717 754.498 388.142 754.68 388.582H754.813V386.099H759.41V400.657C759.41 401.884 759.102 402.919 758.485 403.763C757.868 404.606 757.006 405.245 755.898 405.679C754.791 406.12 753.51 406.34 752.056 406.34ZM752.198 397.041C752.758 397.041 753.236 396.893 753.632 396.597C754.029 396.301 754.334 395.877 754.548 395.323C754.762 394.769 754.869 394.105 754.869 393.331C754.869 392.544 754.762 391.868 754.548 391.301C754.341 390.728 754.035 390.288 753.632 389.979C753.236 389.671 752.758 389.517 752.198 389.517C751.625 389.517 751.14 389.674 750.744 389.989C750.347 390.304 750.045 390.747 749.837 391.32C749.636 391.886 749.535 392.557 749.535 393.331C749.535 394.105 749.639 394.769 749.847 395.323C750.055 395.877 750.353 396.301 750.744 396.597C751.14 396.893 751.625 397.041 752.198 397.041ZM769.132 400.874C767.615 400.874 766.306 400.575 765.204 399.977C764.109 399.373 763.266 398.514 762.674 397.4C762.089 396.279 761.796 394.948 761.796 393.406C761.796 391.908 762.092 390.599 762.684 389.479C763.275 388.353 764.109 387.478 765.185 386.855C766.262 386.225 767.53 385.911 768.99 385.911C770.022 385.911 770.966 386.071 771.822 386.392C772.678 386.713 773.418 387.188 774.041 387.818C774.664 388.447 775.148 389.224 775.494 390.149C775.841 391.068 776.014 392.122 776.014 393.312V394.464H763.411V391.783H771.718C771.712 391.292 771.596 390.854 771.369 390.47C771.142 390.086 770.831 389.788 770.434 389.574C770.044 389.353 769.594 389.243 769.084 389.243C768.568 389.243 768.106 389.36 767.697 389.592C767.287 389.819 766.963 390.131 766.724 390.527C766.485 390.917 766.359 391.361 766.347 391.858V394.586C766.347 395.178 766.463 395.697 766.696 396.144C766.929 396.585 767.259 396.928 767.687 397.173C768.115 397.419 768.625 397.541 769.216 397.541C769.626 397.541 769.997 397.485 770.33 397.371C770.664 397.258 770.95 397.091 771.19 396.871C771.429 396.651 771.608 396.38 771.728 396.059L775.966 396.182C775.79 397.132 775.403 397.96 774.805 398.665C774.214 399.363 773.436 399.908 772.473 400.298C771.511 400.682 770.397 400.874 769.132 400.874ZM782.988 392.33V400.6H778.371V386.099H782.761V388.762H782.922C783.243 387.874 783.79 387.179 784.564 386.675C785.339 386.165 786.261 385.911 787.331 385.911C788.35 385.911 789.234 386.14 789.983 386.6C790.739 387.053 791.324 387.689 791.739 388.507C792.161 389.319 792.369 390.269 792.362 391.358V400.6H787.746V392.264C787.752 391.458 787.548 390.829 787.132 390.376C786.723 389.923 786.154 389.696 785.424 389.696C784.939 389.696 784.511 389.803 784.14 390.017C783.775 390.225 783.491 390.524 783.29 390.914C783.095 391.304 782.994 391.776 782.988 392.33ZM801.989 400.874C800.46 400.874 799.148 400.559 798.053 399.93C796.964 399.3 796.127 398.426 795.541 397.305C794.956 396.179 794.664 394.876 794.664 393.397C794.664 391.912 794.956 390.609 795.541 389.489C796.133 388.362 796.973 387.484 798.062 386.855C799.157 386.225 800.463 385.911 801.98 385.911C803.321 385.911 804.488 386.153 805.482 386.638C806.483 387.122 807.264 387.808 807.824 388.696C808.39 389.577 808.689 390.612 808.721 391.801H804.406C804.318 391.059 804.066 390.477 803.651 390.055C803.242 389.633 802.707 389.422 802.046 389.422C801.511 389.422 801.042 389.574 800.639 389.876C800.237 390.171 799.922 390.612 799.695 391.197C799.475 391.776 799.365 392.494 799.365 393.35C799.365 394.206 799.475 394.929 799.695 395.521C799.922 396.106 800.237 396.55 800.639 396.852C801.042 397.148 801.511 397.296 802.046 397.296C802.474 397.296 802.852 397.205 803.179 397.022C803.512 396.84 803.786 396.572 804 396.22C804.214 395.861 804.35 395.427 804.406 394.917H808.721C808.676 396.113 808.377 397.157 807.824 398.051C807.276 398.945 806.505 399.64 805.511 400.138C804.523 400.628 803.349 400.874 801.989 400.874ZM817.861 400.874C816.345 400.874 815.035 400.575 813.934 399.977C812.839 399.373 811.996 398.514 811.404 397.4C810.819 396.279 810.526 394.948 810.526 393.406C810.526 391.908 810.822 390.599 811.413 389.479C812.005 388.353 812.839 387.478 813.915 386.855C814.991 386.225 816.26 385.911 817.72 385.911C818.752 385.911 819.696 386.071 820.552 386.392C821.408 386.713 822.147 387.188 822.77 387.818C823.393 388.447 823.878 389.224 824.224 390.149C824.57 391.068 824.743 392.122 824.743 393.312V394.464H812.14V391.783H820.448C820.442 391.292 820.325 390.854 820.099 390.47C819.872 390.086 819.561 389.788 819.164 389.574C818.774 389.353 818.324 389.243 817.814 389.243C817.298 389.243 816.835 389.36 816.426 389.592C816.017 389.819 815.693 390.131 815.454 390.527C815.215 390.917 815.089 391.361 815.076 391.858V394.586C815.076 395.178 815.193 395.697 815.426 396.144C815.659 396.585 815.989 396.928 816.417 397.173C816.845 397.419 817.355 397.541 817.946 397.541C818.355 397.541 818.727 397.485 819.06 397.371C819.394 397.258 819.68 397.091 819.919 396.871C820.159 396.651 820.338 396.38 820.457 396.059L824.696 396.182C824.52 397.132 824.133 397.96 823.535 398.665C822.943 399.363 822.166 399.908 821.203 400.298C820.24 400.682 819.126 400.874 817.861 400.874Z" fill="black"/>
<circle cx="748.4" cy="299.4" r="32.4" fill="#01345C"/>
<path d="M732.312 299.25H734.083M748.25 283.312V285.083M762.417 299.25H764.188M736.917 287.917L738.156 289.156M759.583 287.917L758.344 289.156M744.177 308.104H752.323M742.938 306.333C741.451 305.218 740.353 303.664 739.799 301.89C739.244 300.116 739.263 298.213 739.85 296.45C740.438 294.687 741.565 293.154 743.073 292.067C744.58 290.981 746.392 290.396 748.25 290.396C750.108 290.396 751.92 290.981 753.427 292.067C754.935 293.154 756.062 294.687 756.65 296.45C757.237 298.213 757.256 300.116 756.701 301.89C756.147 303.664 755.049 305.218 753.562 306.333C752.871 307.018 752.351 307.855 752.043 308.778C751.735 309.701 751.649 310.683 751.792 311.646C751.792 312.585 751.419 313.486 750.754 314.15C750.09 314.814 749.189 315.188 748.25 315.188C747.311 315.188 746.41 314.814 745.746 314.15C745.081 313.486 744.708 312.585 744.708 311.646C744.851 310.683 744.765 309.701 744.457 308.778C744.149 307.855 743.629 307.018 742.938 306.333Z" stroke="white" stroke-width="4" stroke-linecap="round" stroke-linejoin="round"/>
<path d="M364.791 491.666H370.578L375.487 503.636H375.713L380.623 491.666H386.41V511H381.859V499.124H381.699L377.054 510.877H374.146L369.502 499.058H369.341V511H364.791V491.666ZM393.412 511.245C392.487 511.245 391.666 511.091 390.948 510.783C390.237 510.468 389.674 509.996 389.258 509.367C388.849 508.731 388.645 507.935 388.645 506.978C388.645 506.173 388.786 505.493 389.069 504.939C389.353 504.385 389.743 503.935 390.24 503.589C390.737 503.243 391.31 502.982 391.958 502.806C392.607 502.623 393.299 502.5 394.035 502.437C394.86 502.362 395.524 502.283 396.027 502.201C396.531 502.113 396.896 501.991 397.122 501.833C397.355 501.67 397.472 501.44 397.472 501.144V501.097C397.472 500.612 397.305 500.238 396.971 499.973C396.638 499.709 396.188 499.577 395.621 499.577C395.011 499.577 394.52 499.709 394.148 499.973C393.777 500.238 393.541 500.603 393.44 501.069L389.183 500.917C389.309 500.036 389.633 499.25 390.155 498.557C390.684 497.859 391.408 497.311 392.326 496.915C393.252 496.512 394.362 496.31 395.659 496.31C396.584 496.31 397.437 496.421 398.217 496.641C398.998 496.855 399.677 497.17 400.257 497.585C400.836 497.994 401.282 498.498 401.597 499.095C401.918 499.693 402.079 500.376 402.079 501.144V511H397.736V508.98H397.623C397.365 509.471 397.034 509.886 396.631 510.226C396.235 510.566 395.766 510.821 395.225 510.991C394.69 511.16 394.086 511.245 393.412 511.245ZM394.838 508.224C395.335 508.224 395.782 508.124 396.178 507.922C396.581 507.721 396.902 507.444 397.141 507.092C397.38 506.733 397.5 506.317 397.5 505.845V504.467C397.368 504.536 397.207 504.599 397.018 504.656C396.836 504.713 396.634 504.766 396.414 504.816C396.194 504.867 395.967 504.911 395.734 504.949C395.502 504.986 395.278 505.021 395.064 505.052C394.63 505.122 394.259 505.229 393.95 505.373C393.648 505.518 393.415 505.707 393.252 505.94C393.094 506.166 393.016 506.437 393.016 506.752C393.016 507.23 393.186 507.595 393.525 507.847C393.872 508.099 394.309 508.224 394.838 508.224ZM404.901 511V496.499H409.386V499.143H409.537C409.801 498.186 410.232 497.475 410.83 497.009C411.428 496.537 412.123 496.301 412.916 496.301C413.13 496.301 413.351 496.317 413.577 496.348C413.804 496.373 414.015 496.414 414.21 496.471V500.483C413.989 500.408 413.7 500.348 413.341 500.304C412.989 500.26 412.674 500.238 412.397 500.238C411.85 500.238 411.355 500.36 410.915 500.606C410.481 500.845 410.138 501.182 409.886 501.616C409.64 502.044 409.518 502.548 409.518 503.127V511H404.901ZM420.254 507.195L420.273 501.692H420.915L424.993 496.499H430.223L424.162 503.938H422.945L420.254 507.195ZM416.091 511V491.666H420.707V511H416.091ZM425.097 511L421.302 504.977L424.342 501.701L430.431 511H425.097ZM438.057 511.274C436.54 511.274 435.231 510.975 434.129 510.377C433.034 509.773 432.191 508.914 431.599 507.8C431.014 506.679 430.721 505.348 430.721 503.806C430.721 502.308 431.017 500.999 431.609 499.879C432.2 498.752 433.034 497.878 434.11 497.255C435.187 496.625 436.455 496.31 437.915 496.31C438.947 496.31 439.891 496.471 440.747 496.792C441.603 497.113 442.343 497.588 442.966 498.217C443.589 498.847 444.073 499.624 444.419 500.549C444.766 501.468 444.939 502.522 444.939 503.712V504.864H432.336V502.183H440.643C440.637 501.692 440.52 501.254 440.294 500.87C440.067 500.486 439.756 500.187 439.359 499.973C438.969 499.753 438.519 499.643 438.009 499.643C437.493 499.643 437.031 499.759 436.622 499.992C436.212 500.219 435.888 500.53 435.649 500.927C435.41 501.317 435.284 501.761 435.272 502.258V504.986C435.272 505.578 435.388 506.097 435.621 506.544C435.854 506.985 436.184 507.328 436.612 507.573C437.04 507.819 437.55 507.941 438.141 507.941C438.551 507.941 438.922 507.885 439.255 507.771C439.589 507.658 439.875 507.491 440.115 507.271C440.354 507.051 440.533 506.78 440.653 506.459L444.891 506.582C444.715 507.532 444.328 508.36 443.73 509.065C443.139 509.763 442.361 510.308 441.398 510.698C440.436 511.082 439.322 511.274 438.057 511.274ZM455.481 496.499V499.898H446.334V496.499H455.481ZM448.25 493.025H452.866V506.44C452.866 506.723 452.91 506.953 452.999 507.129C453.093 507.299 453.228 507.422 453.404 507.498C453.581 507.567 453.792 507.601 454.037 507.601C454.213 507.601 454.399 507.586 454.594 507.554C454.795 507.516 454.946 507.485 455.047 507.46L455.746 510.792C455.525 510.855 455.214 510.934 454.811 511.028C454.415 511.123 453.939 511.183 453.386 511.208C452.303 511.258 451.375 511.132 450.601 510.83C449.833 510.522 449.244 510.043 448.835 509.395C448.432 508.747 448.237 507.932 448.25 506.95V493.025ZM468.845 511.208C467.775 511.208 466.802 510.931 465.927 510.377C465.053 509.823 464.354 508.992 463.832 507.885C463.309 506.777 463.048 505.402 463.048 503.759C463.048 502.053 463.319 500.65 463.86 499.549C464.401 498.447 465.109 497.632 465.984 497.103C466.865 496.575 467.812 496.31 468.826 496.31C469.587 496.31 470.239 496.443 470.78 496.707C471.321 496.965 471.768 497.299 472.12 497.708C472.473 498.117 472.74 498.542 472.923 498.982H473.017V491.666H477.634V511H473.064V508.649H472.923C472.728 509.096 472.451 509.515 472.092 509.905C471.733 510.295 471.283 510.61 470.742 510.849C470.207 511.088 469.575 511.208 468.845 511.208ZM470.449 507.611C471.01 507.611 471.488 507.453 471.884 507.139C472.281 506.818 472.586 506.368 472.8 505.789C473.014 505.21 473.121 504.53 473.121 503.75C473.121 502.957 473.014 502.274 472.8 501.701C472.592 501.128 472.287 500.688 471.884 500.379C471.488 500.071 471.01 499.917 470.449 499.917C469.877 499.917 469.392 500.074 468.996 500.389C468.599 500.703 468.297 501.147 468.089 501.72C467.888 502.293 467.787 502.969 467.787 503.75C467.787 504.53 467.891 505.21 468.099 505.789C468.306 506.368 468.605 506.818 468.996 507.139C469.392 507.453 469.877 507.611 470.449 507.611ZM483.376 516.438C482.822 516.438 482.3 516.394 481.809 516.306C481.318 516.224 480.896 516.114 480.544 515.975L481.563 512.624C482.016 512.775 482.426 512.863 482.791 512.888C483.162 512.913 483.48 512.853 483.744 512.709C484.015 512.57 484.222 512.322 484.367 511.963L484.547 511.529L479.392 496.499H484.226L486.897 506.846H487.048L489.758 496.499H494.62L489.154 512.388C488.889 513.181 488.515 513.879 488.03 514.484C487.552 515.094 486.932 515.572 486.17 515.919C485.415 516.265 484.484 516.438 483.376 516.438ZM501.006 502.73V511H496.39V496.499H500.78V499.162H500.94C501.261 498.274 501.809 497.579 502.583 497.075C503.357 496.565 504.279 496.31 505.349 496.31C506.368 496.31 507.253 496.54 508.002 497C508.757 497.453 509.342 498.088 509.758 498.907C510.179 499.719 510.387 500.669 510.381 501.758V511H505.764V502.664C505.771 501.858 505.566 501.229 505.151 500.776C504.741 500.323 504.172 500.096 503.442 500.096C502.957 500.096 502.529 500.203 502.158 500.417C501.793 500.625 501.51 500.924 501.308 501.314C501.113 501.704 501.012 502.176 501.006 502.73ZM517.327 511.245C516.401 511.245 515.58 511.091 514.863 510.783C514.151 510.468 513.588 509.996 513.173 509.367C512.764 508.731 512.559 507.935 512.559 506.978C512.559 506.173 512.701 505.493 512.984 504.939C513.267 504.385 513.657 503.935 514.155 503.589C514.652 503.243 515.224 502.982 515.873 502.806C516.521 502.623 517.213 502.5 517.95 502.437C518.774 502.362 519.438 502.283 519.942 502.201C520.445 502.113 520.81 501.991 521.037 501.833C521.27 501.67 521.386 501.44 521.386 501.144V501.097C521.386 500.612 521.219 500.238 520.886 499.973C520.552 499.709 520.102 499.577 519.536 499.577C518.925 499.577 518.434 499.709 518.063 499.973C517.692 500.238 517.456 500.603 517.355 501.069L513.097 500.917C513.223 500.036 513.547 499.25 514.07 498.557C514.598 497.859 515.322 497.311 516.241 496.915C517.166 496.512 518.277 496.31 519.573 496.31C520.499 496.31 521.351 496.421 522.132 496.641C522.912 496.855 523.592 497.17 524.171 497.585C524.75 497.994 525.197 498.498 525.511 499.095C525.832 499.693 525.993 500.376 525.993 501.144V511H521.65V508.98H521.537C521.279 509.471 520.949 509.886 520.546 510.226C520.149 510.566 519.68 510.821 519.139 510.991C518.604 511.16 518 511.245 517.327 511.245ZM518.752 508.224C519.249 508.224 519.696 508.124 520.093 507.922C520.495 507.721 520.816 507.444 521.056 507.092C521.295 506.733 521.414 506.317 521.414 505.845V504.467C521.282 504.536 521.122 504.599 520.933 504.656C520.75 504.713 520.549 504.766 520.329 504.816C520.108 504.867 519.882 504.911 519.649 504.949C519.416 504.986 519.193 505.021 518.979 505.052C518.544 505.122 518.173 505.229 517.865 505.373C517.563 505.518 517.33 505.707 517.166 505.94C517.009 506.166 516.93 506.437 516.93 506.752C516.93 507.23 517.1 507.595 517.44 507.847C517.786 508.099 518.223 508.224 518.752 508.224ZM528.816 511V496.499H533.206V499.162H533.366C533.668 498.28 534.178 497.585 534.895 497.075C535.613 496.565 536.469 496.31 537.463 496.31C538.47 496.31 539.332 496.569 540.05 497.085C540.767 497.601 541.224 498.293 541.419 499.162H541.57C541.84 498.299 542.369 497.61 543.156 497.094C543.943 496.572 544.871 496.31 545.941 496.31C547.313 496.31 548.427 496.751 549.283 497.632C550.139 498.507 550.567 499.709 550.567 501.238V511H545.95V502.296C545.95 501.572 545.765 501.021 545.393 500.644C545.022 500.26 544.54 500.068 543.949 500.068C543.313 500.068 542.813 500.276 542.448 500.691C542.089 501.1 541.91 501.651 541.91 502.343V511H537.473V502.249C537.473 501.575 537.29 501.043 536.925 500.653C536.56 500.263 536.079 500.068 535.481 500.068C535.078 500.068 534.722 500.165 534.414 500.36C534.106 500.549 533.863 500.82 533.687 501.172C533.517 501.525 533.432 501.94 533.432 502.419V511H528.816ZM553.427 511V496.499H558.044V511H553.427ZM555.74 494.809C555.092 494.809 554.535 494.595 554.069 494.167C553.603 493.733 553.371 493.211 553.371 492.6C553.371 491.996 553.603 491.48 554.069 491.052C554.535 490.618 555.092 490.401 555.74 490.401C556.395 490.401 556.952 490.618 557.411 491.052C557.877 491.48 558.11 491.996 558.11 492.6C558.11 493.211 557.877 493.733 557.411 494.167C556.952 494.595 556.395 494.809 555.74 494.809ZM567.751 511.274C566.222 511.274 564.909 510.959 563.814 510.33C562.725 509.7 561.888 508.826 561.303 507.705C560.718 506.579 560.425 505.276 560.425 503.797C560.425 502.312 560.718 501.009 561.303 499.888C561.895 498.762 562.735 497.884 563.824 497.255C564.919 496.625 566.225 496.31 567.741 496.31C569.082 496.31 570.25 496.553 571.244 497.037C572.245 497.522 573.025 498.208 573.585 499.095C574.152 499.977 574.451 501.012 574.482 502.201H570.168C570.08 501.459 569.828 500.877 569.412 500.455C569.003 500.033 568.468 499.822 567.808 499.822C567.273 499.822 566.804 499.973 566.401 500.276C565.998 500.571 565.683 501.012 565.457 501.597C565.237 502.176 565.126 502.894 565.126 503.75C565.126 504.606 565.237 505.329 565.457 505.921C565.683 506.506 565.998 506.95 566.401 507.252C566.804 507.548 567.273 507.696 567.808 507.696C568.236 507.696 568.613 507.605 568.94 507.422C569.274 507.24 569.548 506.972 569.762 506.62C569.976 506.261 570.111 505.827 570.168 505.317H574.482C574.438 506.513 574.139 507.557 573.585 508.451C573.038 509.345 572.267 510.04 571.272 510.537C570.284 511.028 569.11 511.274 567.751 511.274ZM589.504 500.927L585.266 501.04C585.221 500.738 585.102 500.471 584.907 500.238C584.712 499.999 584.457 499.813 584.142 499.681C583.834 499.542 583.475 499.473 583.066 499.473C582.531 499.473 582.075 499.58 581.697 499.794C581.326 500.008 581.143 500.298 581.149 500.663C581.143 500.946 581.256 501.191 581.489 501.399C581.728 501.607 582.153 501.773 582.764 501.899L585.558 502.428C587.006 502.705 588.082 503.164 588.787 503.806C589.498 504.448 589.857 505.298 589.863 506.355C589.857 507.35 589.561 508.215 588.976 508.951C588.397 509.688 587.604 510.26 586.597 510.67C585.59 511.072 584.438 511.274 583.141 511.274C581.071 511.274 579.438 510.849 578.242 509.999C577.052 509.143 576.373 507.998 576.203 506.563L580.762 506.45C580.863 506.978 581.124 507.381 581.546 507.658C581.968 507.935 582.506 508.073 583.16 508.073C583.752 508.073 584.233 507.963 584.605 507.743C584.976 507.523 585.165 507.23 585.171 506.865C585.165 506.538 585.02 506.277 584.737 506.081C584.454 505.88 584.01 505.723 583.406 505.609L580.876 505.128C579.422 504.864 578.339 504.376 577.628 503.665C576.917 502.947 576.564 502.035 576.571 500.927C576.564 499.958 576.823 499.13 577.345 498.444C577.867 497.752 578.61 497.223 579.573 496.858C580.536 496.493 581.672 496.31 582.981 496.31C584.945 496.31 586.493 496.723 587.626 497.547C588.759 498.365 589.385 499.492 589.504 500.927Z" fill="black"/>
<circle cx="477.4" cy="574.4" r="32.4" fill="#01345C"/>
<path d="M486.104 584.875C487.043 584.875 487.944 585.248 488.608 585.912C489.273 586.576 489.646 587.477 489.646 588.417C489.646 589.356 489.273 590.257 488.608 590.921C487.944 591.585 487.043 591.958 486.104 591.958C485.165 591.958 484.264 591.585 483.6 590.921C482.936 590.257 482.562 589.356 482.562 588.417C482.562 586.451 484.138 584.875 486.104 584.875ZM457.771 556.542H463.561L465.226 560.083H491.417C491.886 560.083 492.337 560.27 492.669 560.602C493.001 560.934 493.187 561.384 493.187 561.854C493.187 562.155 493.099 562.456 492.975 562.739L486.635 574.197C486.033 575.277 484.865 576.021 483.536 576.021H470.344L468.75 578.907L468.697 579.12C468.697 579.237 468.743 579.35 468.826 579.433C468.909 579.516 469.022 579.562 469.14 579.562H489.646V583.104H468.396C467.456 583.104 466.556 582.731 465.891 582.067C465.227 581.402 464.854 580.502 464.854 579.562C464.854 578.943 465.013 578.358 465.279 577.862L467.687 573.524L461.312 560.083H457.771V556.542ZM468.396 584.875C469.335 584.875 470.236 585.248 470.9 585.912C471.564 586.576 471.937 587.477 471.937 588.417C471.937 589.356 471.564 590.257 470.9 590.921C470.236 591.585 469.335 591.958 468.396 591.958C467.456 591.958 466.556 591.585 465.891 590.921C465.227 590.257 464.854 589.356 464.854 588.417C464.854 586.451 466.43 584.875 468.396 584.875ZM484.333 572.479L489.256 563.625H466.873L471.052 572.479H484.333Z" fill="white"/>
<path d="M102.671 374.6V355.266H110.658C112.105 355.266 113.355 355.527 114.406 356.049C115.463 356.565 116.278 357.308 116.851 358.277C117.423 359.24 117.71 360.383 117.71 361.704C117.71 363.045 117.417 364.184 116.832 365.122C116.247 366.053 115.416 366.764 114.34 367.255C113.263 367.74 111.989 367.982 110.516 367.982H105.465V364.3H109.648C110.352 364.3 110.941 364.209 111.413 364.027C111.891 363.838 112.253 363.555 112.499 363.177C112.744 362.793 112.867 362.302 112.867 361.704C112.867 361.106 112.744 360.612 112.499 360.222C112.253 359.826 111.891 359.53 111.413 359.335C110.935 359.133 110.346 359.033 109.648 359.033H107.344V374.6H102.671ZM113.556 365.764L118.371 374.6H113.273L108.552 365.764H113.556ZM126.766 374.874C125.249 374.874 123.94 374.575 122.838 373.977C121.743 373.373 120.9 372.514 120.308 371.4C119.723 370.279 119.43 368.948 119.43 367.406C119.43 365.908 119.726 364.599 120.318 363.479C120.909 362.353 121.743 361.478 122.819 360.855C123.896 360.225 125.164 359.911 126.624 359.911C127.656 359.911 128.6 360.071 129.456 360.392C130.312 360.713 131.052 361.188 131.675 361.818C132.298 362.447 132.782 363.224 133.129 364.149C133.475 365.068 133.648 366.122 133.648 367.312V368.464H121.045V365.783H129.352C129.346 365.292 129.23 364.854 129.003 364.47C128.776 364.086 128.465 363.788 128.068 363.574C127.678 363.353 127.228 363.243 126.718 363.243C126.202 363.243 125.74 363.36 125.331 363.592C124.922 363.819 124.597 364.131 124.358 364.527C124.119 364.917 123.993 365.361 123.981 365.858V368.586C123.981 369.178 124.097 369.697 124.33 370.144C124.563 370.585 124.893 370.928 125.321 371.173C125.749 371.419 126.259 371.541 126.851 371.541C127.26 371.541 127.631 371.485 127.965 371.371C128.298 371.258 128.585 371.091 128.824 370.871C129.063 370.651 129.242 370.38 129.362 370.059L133.601 370.182C133.424 371.132 133.037 371.96 132.439 372.665C131.848 373.363 131.071 373.908 130.108 374.298C129.145 374.682 128.031 374.874 126.766 374.874ZM136.006 380.038V360.099H140.575V362.582H140.716C140.905 362.142 141.173 361.717 141.519 361.308C141.871 360.899 142.318 360.565 142.859 360.307C143.407 360.043 144.062 359.911 144.823 359.911C145.83 359.911 146.771 360.175 147.646 360.704C148.527 361.232 149.238 362.047 149.779 363.149C150.321 364.25 150.591 365.654 150.591 367.359C150.591 369.002 150.33 370.377 149.808 371.485C149.292 372.592 148.593 373.423 147.712 373.977C146.837 374.531 145.865 374.808 144.795 374.808C144.065 374.808 143.432 374.688 142.897 374.449C142.362 374.21 141.912 373.895 141.547 373.505C141.188 373.115 140.912 372.696 140.716 372.249H140.622V380.038H136.006ZM140.528 367.35C140.528 368.13 140.631 368.81 140.839 369.389C141.053 369.968 141.358 370.418 141.755 370.739C142.158 371.054 142.639 371.211 143.199 371.211C143.766 371.211 144.247 371.054 144.644 370.739C145.04 370.418 145.339 369.968 145.541 369.389C145.748 368.81 145.852 368.13 145.852 367.35C145.852 366.569 145.748 365.893 145.541 365.32C145.339 364.747 145.04 364.304 144.644 363.989C144.254 363.674 143.772 363.517 143.199 363.517C142.633 363.517 142.151 363.671 141.755 363.979C141.358 364.288 141.053 364.728 140.839 365.301C140.631 365.874 140.528 366.557 140.528 367.35ZM159.779 374.874C158.256 374.874 156.947 374.562 155.852 373.939C154.763 373.31 153.923 372.435 153.331 371.315C152.746 370.188 152.453 368.882 152.453 367.397C152.453 365.905 152.746 364.599 153.331 363.479C153.923 362.353 154.763 361.478 155.852 360.855C156.947 360.225 158.256 359.911 159.779 359.911C161.302 359.911 162.608 360.225 163.697 360.855C164.792 361.478 165.632 362.353 166.218 363.479C166.809 364.599 167.105 365.905 167.105 367.397C167.105 368.882 166.809 370.188 166.218 371.315C165.632 372.435 164.792 373.31 163.697 373.939C162.608 374.562 161.302 374.874 159.779 374.874ZM159.808 371.39C160.361 371.39 160.83 371.22 161.214 370.881C161.598 370.541 161.891 370.069 162.092 369.464C162.3 368.86 162.404 368.162 162.404 367.369C162.404 366.563 162.3 365.858 162.092 365.254C161.891 364.65 161.598 364.178 161.214 363.838C160.83 363.498 160.361 363.328 159.808 363.328C159.235 363.328 158.75 363.498 158.354 363.838C157.964 364.178 157.665 364.65 157.457 365.254C157.256 365.858 157.155 366.563 157.155 367.369C157.155 368.162 157.256 368.86 157.457 369.464C157.665 370.069 157.964 370.541 158.354 370.881C158.75 371.22 159.235 371.39 159.808 371.39ZM169.47 374.6V360.099H173.954V362.743H174.105C174.37 361.786 174.801 361.075 175.399 360.609C175.997 360.137 176.692 359.901 177.485 359.901C177.699 359.901 177.919 359.917 178.146 359.948C178.372 359.974 178.583 360.014 178.778 360.071V364.083C178.558 364.008 178.269 363.948 177.91 363.904C177.557 363.86 177.243 363.838 176.966 363.838C176.418 363.838 175.924 363.961 175.484 364.206C175.049 364.445 174.706 364.782 174.455 365.216C174.209 365.644 174.086 366.148 174.086 366.727V374.6H169.47ZM189.519 360.099V363.498H180.372V360.099H189.519ZM182.288 356.625H186.904V370.04C186.904 370.324 186.948 370.553 187.037 370.729C187.131 370.899 187.266 371.022 187.442 371.098C187.619 371.167 187.83 371.201 188.075 371.201C188.251 371.201 188.437 371.186 188.632 371.154C188.833 371.117 188.984 371.085 189.085 371.06L189.784 374.392C189.563 374.455 189.252 374.534 188.849 374.628C188.453 374.723 187.977 374.783 187.424 374.808C186.341 374.858 185.413 374.732 184.639 374.43C183.871 374.122 183.282 373.643 182.873 372.995C182.47 372.347 182.275 371.532 182.288 370.55V356.625ZM200.296 374.6L196.52 360.099H201.155L203.109 369.389H203.232L205.328 360.099H209.85L212.002 369.323H212.125L214.022 360.099H218.658L214.872 374.6H209.935L207.669 366.151H207.508L205.243 374.6H200.296ZM220.51 374.6V360.099H224.995V362.743H225.146C225.41 361.786 225.841 361.075 226.439 360.609C227.037 360.137 227.732 359.901 228.525 359.901C228.739 359.901 228.96 359.917 229.186 359.948C229.413 359.974 229.624 360.014 229.819 360.071V364.083C229.599 364.008 229.309 363.948 228.95 363.904C228.598 363.86 228.283 363.838 228.006 363.838C227.459 363.838 226.965 363.961 226.524 364.206C226.09 364.445 225.747 364.782 225.495 365.216C225.25 365.644 225.127 366.148 225.127 366.727V374.6H220.51ZM231.7 374.6V360.099H236.316V374.6H231.7ZM234.013 358.41C233.365 358.41 232.808 358.196 232.342 357.768C231.876 357.333 231.643 356.811 231.643 356.2C231.643 355.596 231.876 355.08 232.342 354.652C232.808 354.218 233.365 354.001 234.013 354.001C234.667 354.001 235.224 354.218 235.684 354.652C236.149 355.08 236.382 355.596 236.382 356.2C236.382 356.811 236.149 357.333 235.684 357.768C235.224 358.196 234.667 358.41 234.013 358.41ZM247.44 360.099V363.498H238.292V360.099H247.44ZM240.208 356.625H244.825V370.04C244.825 370.324 244.869 370.553 244.957 370.729C245.051 370.899 245.186 371.022 245.363 371.098C245.539 371.167 245.75 371.201 245.995 371.201C246.171 371.201 246.357 371.186 246.552 371.154C246.754 371.117 246.905 371.085 247.005 371.06L247.704 374.392C247.484 374.455 247.172 374.534 246.769 374.628C246.373 374.723 245.898 374.783 245.344 374.808C244.261 374.858 243.333 374.732 242.559 374.43C241.791 374.122 241.203 373.643 240.793 372.995C240.391 372.347 240.196 371.532 240.208 370.55V356.625ZM249.795 374.6V360.099H254.411V374.6H249.795ZM252.108 358.41C251.46 358.41 250.903 358.196 250.437 357.768C249.971 357.333 249.738 356.811 249.738 356.2C249.738 355.596 249.971 355.08 250.437 354.652C250.903 354.218 251.46 354.001 252.108 354.001C252.762 354.001 253.319 354.218 253.779 354.652C254.245 355.08 254.478 355.596 254.478 356.2C254.478 356.811 254.245 357.333 253.779 357.768C253.319 358.196 252.762 358.41 252.108 358.41ZM261.966 366.33V374.6H257.35V360.099H261.74V362.762H261.9C262.221 361.874 262.769 361.179 263.543 360.675C264.317 360.165 265.239 359.911 266.309 359.911C267.328 359.911 268.213 360.14 268.962 360.6C269.717 361.053 270.302 361.689 270.718 362.507C271.139 363.319 271.347 364.269 271.341 365.358V374.6H266.724V366.264C266.731 365.458 266.526 364.829 266.111 364.376C265.702 363.923 265.132 363.696 264.402 363.696C263.917 363.696 263.489 363.803 263.118 364.017C262.753 364.225 262.47 364.524 262.268 364.914C262.073 365.304 261.973 365.776 261.966 366.33ZM280.958 380.34C279.58 380.34 278.4 380.148 277.418 379.764C276.436 379.38 275.665 378.855 275.105 378.188C274.545 377.52 274.208 376.765 274.095 375.922L278.466 375.676C278.548 375.972 278.699 376.23 278.919 376.45C279.146 376.671 279.438 376.841 279.797 376.96C280.162 377.08 280.59 377.14 281.081 377.14C281.855 377.14 282.494 376.951 282.997 376.573C283.507 376.202 283.762 375.55 283.762 374.619V372.07H283.602C283.419 372.517 283.142 372.917 282.771 373.269C282.4 373.621 281.937 373.898 281.383 374.1C280.836 374.301 280.206 374.402 279.495 374.402C278.438 374.402 277.468 374.156 276.587 373.665C275.713 373.168 275.011 372.4 274.482 371.362C273.96 370.317 273.699 368.974 273.699 367.331C273.699 365.638 273.969 364.244 274.51 363.149C275.052 362.047 275.76 361.232 276.635 360.704C277.516 360.175 278.463 359.911 279.476 359.911C280.238 359.911 280.889 360.043 281.43 360.307C281.978 360.565 282.428 360.899 282.78 361.308C283.133 361.717 283.4 362.142 283.583 362.582H283.715V360.099H288.313V374.657C288.313 375.884 288.004 376.919 287.387 377.763C286.771 378.606 285.908 379.245 284.801 379.679C283.693 380.12 282.412 380.34 280.958 380.34ZM281.1 371.041C281.66 371.041 282.138 370.893 282.535 370.597C282.931 370.301 283.237 369.877 283.451 369.323C283.665 368.769 283.772 368.105 283.772 367.331C283.772 366.544 283.665 365.868 283.451 365.301C283.243 364.728 282.938 364.288 282.535 363.979C282.138 363.671 281.66 363.517 281.1 363.517C280.527 363.517 280.043 363.674 279.646 363.989C279.25 364.304 278.947 364.747 278.74 365.32C278.538 365.886 278.438 366.557 278.438 367.331C278.438 368.105 278.542 368.769 278.749 369.323C278.957 369.877 279.256 370.301 279.646 370.597C280.043 370.893 280.527 371.041 281.1 371.041Z" fill="black"/>
<circle cx="195.4" cy="305.4" r="32.4" fill="#01345C"/>
<path d="M187.281 307.906H197.906V310.562H187.281V307.906ZM187.281 301.266H203.219V303.922H187.281V301.266ZM187.281 314.547H193.922V317.203H187.281V314.547Z" fill="white"/>
<path d="M207.203 290.641H203.219V289.312C203.219 288.608 202.939 287.932 202.441 287.434C201.943 286.936 201.267 286.656 200.562 286.656H189.938C189.233 286.656 188.557 286.936 188.059 287.434C187.561 287.932 187.281 288.608 187.281 289.312V290.641H183.297C182.592 290.641 181.917 290.92 181.419 291.419C180.92 291.917 180.641 292.592 180.641 293.297V321.188C180.641 321.892 180.92 322.568 181.419 323.066C181.917 323.564 182.592 323.844 183.297 323.844H207.203C207.908 323.844 208.583 323.564 209.081 323.066C209.58 322.568 209.859 321.892 209.859 321.188V293.297C209.859 292.592 209.58 291.917 209.081 291.419C208.583 290.92 207.908 290.641 207.203 290.641ZM189.938 289.312H200.562V294.625H189.938V289.312ZM207.203 321.188H183.297V293.297H187.281V297.281H203.219V293.297H207.203V321.188Z" fill="white"/>
<circle cx="474" cy="308" r="132" fill="url(#paint0_linear_125_1722)"/>
<path d="M408.207 299.264C406.734 299.264 405.428 299.013 404.289 298.509C403.156 297.999 402.262 297.298 401.608 296.404C400.953 295.51 400.62 294.481 400.607 293.317H405.308C405.327 293.738 405.463 294.113 405.714 294.44C405.966 294.761 406.309 295.013 406.743 295.195C407.178 295.378 407.672 295.469 408.226 295.469C408.779 295.469 409.267 295.372 409.689 295.177C410.117 294.975 410.45 294.701 410.69 294.355C410.929 294.003 411.045 293.6 411.039 293.147C411.045 292.694 410.916 292.291 410.652 291.938C410.387 291.586 410.013 291.312 409.528 291.117C409.05 290.922 408.484 290.824 407.829 290.824H405.95V287.501H407.829C408.402 287.501 408.905 287.407 409.34 287.218C409.78 287.029 410.123 286.765 410.369 286.425C410.614 286.079 410.734 285.683 410.727 285.236C410.734 284.801 410.63 284.421 410.416 284.093C410.208 283.76 409.915 283.502 409.538 283.319C409.166 283.137 408.735 283.045 408.244 283.045C407.728 283.045 407.259 283.137 406.838 283.319C406.422 283.502 406.092 283.76 405.847 284.093C405.601 284.427 405.472 284.814 405.459 285.255H400.994C401.007 284.103 401.328 283.09 401.957 282.215C402.586 281.334 403.442 280.644 404.525 280.147C405.614 279.65 406.853 279.401 408.244 279.401C409.629 279.401 410.847 279.644 411.898 280.128C412.949 280.613 413.767 281.274 414.352 282.111C414.938 282.942 415.23 283.883 415.23 284.934C415.237 286.022 414.881 286.919 414.164 287.624C413.452 288.329 412.537 288.763 411.416 288.927V289.078C412.914 289.254 414.044 289.739 414.806 290.532C415.573 291.325 415.954 292.316 415.948 293.506C415.948 294.626 415.617 295.62 414.957 296.489C414.302 297.351 413.39 298.031 412.219 298.528C411.055 299.019 409.717 299.264 408.207 299.264ZM426.335 299.264C425.278 299.264 424.264 299.094 423.295 298.755C422.326 298.408 421.464 297.861 420.708 297.112C419.953 296.357 419.358 295.369 418.924 294.148C418.49 292.92 418.276 291.426 418.282 289.663C418.288 288.071 418.483 286.642 418.867 285.377C419.251 284.106 419.799 283.027 420.51 282.139C421.228 281.252 422.083 280.575 423.078 280.109C424.079 279.637 425.196 279.401 426.429 279.401C427.782 279.401 428.975 279.666 430.007 280.194C431.046 280.717 431.876 281.422 432.5 282.309C433.123 283.19 433.491 284.172 433.604 285.255H429.007C428.868 284.644 428.563 284.181 428.091 283.867C427.625 283.546 427.071 283.385 426.429 283.385C425.246 283.385 424.362 283.898 423.776 284.924C423.197 285.95 422.902 287.322 422.889 289.04H423.012C423.276 288.461 423.657 287.964 424.154 287.549C424.651 287.133 425.221 286.815 425.863 286.595C426.511 286.369 427.197 286.255 427.921 286.255C429.079 286.255 430.102 286.523 430.989 287.058C431.876 287.593 432.572 288.326 433.075 289.257C433.579 290.183 433.828 291.243 433.821 292.439C433.828 293.786 433.513 294.975 432.877 296.007C432.242 297.033 431.36 297.833 430.234 298.405C429.114 298.978 427.814 299.264 426.335 299.264ZM426.307 295.677C426.879 295.677 427.392 295.542 427.845 295.271C428.299 295 428.654 294.632 428.912 294.166C429.17 293.701 429.296 293.175 429.29 292.59C429.296 291.998 429.17 291.473 428.912 291.013C428.66 290.554 428.308 290.189 427.855 289.918C427.408 289.648 426.895 289.512 426.316 289.512C425.894 289.512 425.501 289.591 425.136 289.748C424.771 289.906 424.453 290.126 424.182 290.409C423.918 290.686 423.71 291.013 423.559 291.391C423.408 291.762 423.33 292.165 423.323 292.599C423.33 293.172 423.462 293.691 423.72 294.157C423.978 294.623 424.33 294.994 424.777 295.271C425.224 295.542 425.734 295.677 426.307 295.677ZM444.468 299.472C442.781 299.472 441.327 299.072 440.106 298.273C438.885 297.467 437.944 296.313 437.284 294.808C436.623 293.298 436.295 291.482 436.302 289.361C436.308 287.24 436.638 285.44 437.293 283.961C437.954 282.476 438.892 281.346 440.106 280.572C441.327 279.792 442.781 279.401 444.468 279.401C446.155 279.401 447.608 279.792 448.829 280.572C450.057 281.346 451.001 282.476 451.662 283.961C452.322 285.447 452.65 287.247 452.643 289.361C452.643 291.488 452.313 293.307 451.652 294.818C450.991 296.328 450.05 297.483 448.829 298.283C447.615 299.076 446.161 299.472 444.468 299.472ZM444.468 295.649C445.475 295.649 446.29 295.136 446.913 294.11C447.536 293.078 447.844 291.495 447.838 289.361C447.838 287.964 447.697 286.812 447.413 285.906C447.13 284.993 446.737 284.314 446.233 283.867C445.73 283.42 445.141 283.197 444.468 283.197C443.467 283.197 442.658 283.703 442.042 284.716C441.425 285.723 441.113 287.272 441.107 289.361C441.101 290.777 441.236 291.951 441.513 292.883C441.796 293.814 442.193 294.509 442.702 294.969C443.212 295.422 443.801 295.649 444.468 295.649ZM468.216 299H461.069V279.666H468.206C470.176 279.666 471.872 280.053 473.295 280.827C474.723 281.595 475.825 282.702 476.599 284.15C477.373 285.591 477.76 287.316 477.76 289.323C477.76 291.337 477.373 293.068 476.599 294.516C475.831 295.963 474.733 297.074 473.304 297.848C471.875 298.616 470.179 299 468.216 299ZM465.742 295.016H468.036C469.119 295.016 470.034 294.834 470.783 294.469C471.539 294.097 472.108 293.496 472.492 292.665C472.882 291.828 473.077 290.714 473.077 289.323C473.077 287.933 472.882 286.825 472.492 286C472.102 285.17 471.526 284.572 470.765 284.207C470.009 283.835 469.078 283.65 467.97 283.65H465.742V295.016ZM487.267 299.274C485.75 299.274 484.441 298.975 483.339 298.377C482.244 297.773 481.401 296.914 480.809 295.8C480.224 294.679 479.931 293.348 479.931 291.806C479.931 290.308 480.227 288.999 480.819 287.879C481.41 286.752 482.244 285.878 483.32 285.255C484.397 284.625 485.665 284.31 487.125 284.31C488.157 284.31 489.101 284.471 489.957 284.792C490.813 285.113 491.553 285.588 492.176 286.217C492.799 286.847 493.283 287.624 493.63 288.549C493.976 289.468 494.149 290.522 494.149 291.712V292.864H481.546V290.183H489.853C489.847 289.692 489.731 289.254 489.504 288.87C489.277 288.486 488.966 288.187 488.569 287.973C488.179 287.753 487.729 287.643 487.219 287.643C486.703 287.643 486.241 287.759 485.832 287.992C485.423 288.219 485.098 288.53 484.859 288.927C484.62 289.317 484.494 289.761 484.482 290.258V292.986C484.482 293.578 484.598 294.097 484.831 294.544C485.064 294.985 485.394 295.328 485.822 295.573C486.25 295.819 486.76 295.941 487.352 295.941C487.761 295.941 488.132 295.885 488.466 295.771C488.799 295.658 489.085 295.491 489.325 295.271C489.564 295.051 489.743 294.78 489.863 294.459L494.102 294.582C493.925 295.532 493.538 296.36 492.94 297.065C492.349 297.763 491.572 298.308 490.609 298.698C489.646 299.082 488.532 299.274 487.267 299.274ZM503.266 304.74C501.888 304.74 500.708 304.548 499.726 304.164C498.744 303.78 497.973 303.255 497.413 302.587C496.853 301.92 496.516 301.165 496.403 300.322L500.774 300.076C500.856 300.372 501.007 300.63 501.227 300.85C501.453 301.071 501.746 301.241 502.105 301.36C502.47 301.48 502.898 301.54 503.389 301.54C504.163 301.54 504.802 301.351 505.305 300.973C505.815 300.602 506.07 299.95 506.07 299.019V296.47H505.909C505.727 296.917 505.45 297.316 505.079 297.669C504.707 298.021 504.245 298.298 503.691 298.5C503.143 298.701 502.514 298.802 501.803 298.802C500.745 298.802 499.776 298.556 498.895 298.065C498.02 297.568 497.318 296.8 496.79 295.762C496.267 294.717 496.006 293.373 496.006 291.731C496.006 290.038 496.277 288.644 496.818 287.549C497.359 286.447 498.067 285.632 498.942 285.103C499.823 284.575 500.771 284.31 501.784 284.31C502.545 284.31 503.197 284.443 503.738 284.707C504.286 284.965 504.736 285.299 505.088 285.708C505.44 286.117 505.708 286.542 505.89 286.982H506.023V284.499H510.62V299.057C510.62 300.284 510.312 301.319 509.695 302.163C509.078 303.006 508.216 303.645 507.108 304.079C506.001 304.52 504.72 304.74 503.266 304.74ZM503.408 295.441C503.968 295.441 504.446 295.293 504.843 294.997C505.239 294.701 505.544 294.277 505.758 293.723C505.972 293.169 506.079 292.505 506.079 291.731C506.079 290.944 505.972 290.267 505.758 289.701C505.551 289.128 505.245 288.688 504.843 288.379C504.446 288.071 503.968 287.917 503.408 287.917C502.835 287.917 502.35 288.074 501.954 288.389C501.557 288.703 501.255 289.147 501.047 289.72C500.846 290.286 500.745 290.957 500.745 291.731C500.745 292.505 500.849 293.169 501.057 293.723C501.265 294.277 501.564 294.701 501.954 294.997C502.35 295.293 502.835 295.441 503.408 295.441ZM513.563 299V284.499H518.048V287.143H518.199C518.463 286.186 518.894 285.475 519.492 285.009C520.09 284.537 520.785 284.301 521.578 284.301C521.792 284.301 522.013 284.317 522.239 284.348C522.466 284.373 522.677 284.414 522.872 284.471V288.483C522.651 288.408 522.362 288.348 522.003 288.304C521.651 288.26 521.336 288.238 521.059 288.238C520.512 288.238 520.017 288.36 519.577 288.606C519.143 288.845 518.8 289.182 518.548 289.616C518.302 290.044 518.18 290.548 518.18 291.127V299H513.563ZM530.778 299.274C529.261 299.274 527.952 298.975 526.851 298.377C525.756 297.773 524.912 296.914 524.321 295.8C523.735 294.679 523.443 293.348 523.443 291.806C523.443 290.308 523.739 288.999 524.33 287.879C524.922 286.752 525.756 285.878 526.832 285.255C527.908 284.625 529.176 284.31 530.637 284.31C531.669 284.31 532.613 284.471 533.469 284.792C534.325 285.113 535.064 285.588 535.687 286.217C536.31 286.847 536.795 287.624 537.141 288.549C537.487 289.468 537.66 290.522 537.66 291.712V292.864H525.057V290.183H533.365C533.359 289.692 533.242 289.254 533.016 288.87C532.789 288.486 532.477 288.187 532.081 287.973C531.691 287.753 531.241 287.643 530.731 287.643C530.215 287.643 529.752 287.759 529.343 287.992C528.934 288.219 528.61 288.53 528.371 288.927C528.132 289.317 528.006 289.761 527.993 290.258V292.986C527.993 293.578 528.11 294.097 528.342 294.544C528.575 294.985 528.906 295.328 529.334 295.573C529.762 295.819 530.272 295.941 530.863 295.941C531.272 295.941 531.644 295.885 531.977 295.771C532.311 295.658 532.597 295.491 532.836 295.271C533.075 295.051 533.255 294.78 533.374 294.459L537.613 294.582C537.437 295.532 537.05 296.36 536.452 297.065C535.86 297.763 535.083 298.308 534.12 298.698C533.157 299.082 532.043 299.274 530.778 299.274ZM546.796 299.274C545.28 299.274 543.971 298.975 542.869 298.377C541.774 297.773 540.931 296.914 540.339 295.8C539.754 294.679 539.461 293.348 539.461 291.806C539.461 290.308 539.757 288.999 540.349 287.879C540.94 286.752 541.774 285.878 542.85 285.255C543.926 284.625 545.195 284.31 546.655 284.31C547.687 284.31 548.631 284.471 549.487 284.792C550.343 285.113 551.082 285.588 551.706 286.217C552.329 286.847 552.813 287.624 553.159 288.549C553.506 289.468 553.679 290.522 553.679 291.712V292.864H541.075V290.183H549.383C549.377 289.692 549.26 289.254 549.034 288.87C548.807 288.486 548.496 288.187 548.099 287.973C547.709 287.753 547.259 287.643 546.749 287.643C546.233 287.643 545.771 287.759 545.361 287.992C544.952 288.219 544.628 288.53 544.389 288.927C544.15 289.317 544.024 289.761 544.011 290.258V292.986C544.011 293.578 544.128 294.097 544.361 294.544C544.594 294.985 544.924 295.328 545.352 295.573C545.78 295.819 546.29 295.941 546.881 295.941C547.29 295.941 547.662 295.885 547.995 295.771C548.329 295.658 548.615 295.491 548.854 295.271C549.094 295.051 549.273 294.78 549.393 294.459L553.631 294.582C553.455 295.532 553.068 296.36 552.47 297.065C551.879 297.763 551.101 298.308 550.138 298.698C549.175 299.082 548.061 299.274 546.796 299.274ZM371.852 311.666H377.639L382.548 323.636H382.775L387.684 311.666H393.471V331H388.921V319.124H388.76L384.116 330.877H381.208L376.563 319.058H376.403V331H371.852V311.666ZM400.474 331.245C399.548 331.245 398.727 331.091 398.01 330.783C397.298 330.468 396.735 329.996 396.32 329.367C395.911 328.731 395.706 327.935 395.706 326.978C395.706 326.173 395.848 325.493 396.131 324.939C396.414 324.385 396.804 323.935 397.302 323.589C397.799 323.243 398.372 322.982 399.02 322.806C399.668 322.623 400.36 322.5 401.097 322.437C401.921 322.362 402.585 322.283 403.089 322.201C403.592 322.113 403.957 321.991 404.184 321.833C404.417 321.67 404.533 321.44 404.533 321.144V321.097C404.533 320.612 404.366 320.238 404.033 319.973C403.699 319.709 403.249 319.577 402.683 319.577C402.072 319.577 401.581 319.709 401.21 319.973C400.839 320.238 400.603 320.603 400.502 321.069L396.244 320.917C396.37 320.036 396.694 319.25 397.217 318.557C397.745 317.859 398.469 317.311 399.388 316.915C400.313 316.512 401.424 316.31 402.72 316.31C403.646 316.31 404.498 316.421 405.279 316.641C406.059 316.855 406.739 317.17 407.318 317.585C407.897 317.994 408.344 318.498 408.659 319.095C408.98 319.693 409.14 320.376 409.14 321.144V331H404.797V328.98H404.684C404.426 329.471 404.096 329.886 403.693 330.226C403.296 330.566 402.827 330.821 402.286 330.991C401.751 331.16 401.147 331.245 400.474 331.245ZM401.899 328.224C402.396 328.224 402.843 328.124 403.24 327.922C403.643 327.721 403.964 327.444 404.203 327.092C404.442 326.733 404.561 326.317 404.561 325.845V324.467C404.429 324.536 404.269 324.599 404.08 324.656C403.897 324.713 403.696 324.766 403.476 324.816C403.255 324.867 403.029 324.911 402.796 324.949C402.563 324.986 402.34 325.021 402.126 325.052C401.691 325.122 401.32 325.229 401.012 325.373C400.71 325.518 400.477 325.707 400.313 325.94C400.156 326.166 400.077 326.437 400.077 326.752C400.077 327.23 400.247 327.595 400.587 327.847C400.933 328.099 401.37 328.224 401.899 328.224ZM411.963 331V316.499H416.447V319.143H416.598C416.862 318.186 417.294 317.475 417.891 317.009C418.489 316.537 419.185 316.301 419.978 316.301C420.192 316.301 420.412 316.317 420.639 316.348C420.865 316.373 421.076 316.414 421.271 316.471V320.483C421.051 320.408 420.761 320.348 420.403 320.304C420.05 320.26 419.736 320.238 419.459 320.238C418.911 320.238 418.417 320.36 417.976 320.606C417.542 320.845 417.199 321.182 416.947 321.616C416.702 322.044 416.579 322.548 416.579 323.127V331H411.963ZM427.316 327.195L427.334 321.692H427.976L432.055 316.499H437.285L431.224 323.938H430.006L427.316 327.195ZM423.152 331V311.666H427.769V331H423.152ZM432.159 331L428.363 324.977L431.403 321.701L437.492 331H432.159ZM445.118 331.274C443.601 331.274 442.292 330.975 441.191 330.377C440.096 329.773 439.252 328.914 438.661 327.8C438.075 326.679 437.783 325.348 437.783 323.806C437.783 322.308 438.079 320.999 438.67 319.879C439.262 318.752 440.096 317.878 441.172 317.255C442.248 316.625 443.516 316.31 444.976 316.31C446.009 316.31 446.953 316.471 447.809 316.792C448.665 317.113 449.404 317.588 450.027 318.217C450.65 318.847 451.135 319.624 451.481 320.549C451.827 321.468 452 322.522 452 323.712V324.864H439.397V322.183H447.705C447.698 321.692 447.582 321.254 447.355 320.87C447.129 320.486 446.817 320.187 446.421 319.973C446.031 319.753 445.581 319.643 445.071 319.643C444.555 319.643 444.092 319.759 443.683 319.992C443.274 320.219 442.95 320.53 442.711 320.927C442.472 321.317 442.346 321.761 442.333 322.258V324.986C442.333 325.578 442.45 326.097 442.682 326.544C442.915 326.985 443.246 327.328 443.674 327.573C444.102 327.819 444.611 327.941 445.203 327.941C445.612 327.941 445.983 327.885 446.317 327.771C446.651 327.658 446.937 327.491 447.176 327.271C447.415 327.051 447.595 326.78 447.714 326.459L451.953 326.582C451.777 327.532 451.39 328.36 450.792 329.065C450.2 329.763 449.423 330.308 448.46 330.698C447.497 331.082 446.383 331.274 445.118 331.274ZM462.543 316.499V319.898H453.395V316.499H462.543ZM455.311 313.025H459.928V326.44C459.928 326.723 459.972 326.953 460.06 327.129C460.154 327.299 460.29 327.422 460.466 327.498C460.642 327.567 460.853 327.601 461.099 327.601C461.275 327.601 461.46 327.586 461.656 327.554C461.857 327.516 462.008 327.485 462.109 327.46L462.807 330.792C462.587 330.855 462.275 330.934 461.873 331.028C461.476 331.123 461.001 331.183 460.447 331.208C459.365 331.258 458.436 331.132 457.662 330.83C456.894 330.522 456.306 330.043 455.897 329.395C455.494 328.747 455.299 327.932 455.311 326.95V313.025ZM474.792 331H469.77L476.293 311.666H482.514L489.038 331H484.016L479.475 316.537H479.324L474.792 331ZM474.122 323.391H484.62V326.941H474.122V323.391ZM495.736 322.73V331H491.12V316.499H495.509V319.162H495.67C495.991 318.274 496.538 317.579 497.313 317.075C498.087 316.565 499.009 316.31 500.079 316.31C501.098 316.31 501.982 316.54 502.731 317C503.487 317.453 504.072 318.088 504.487 318.907C504.909 319.719 505.117 320.669 505.11 321.758V331H500.494V322.664C500.5 321.858 500.296 321.229 499.88 320.776C499.471 320.323 498.902 320.096 498.172 320.096C497.687 320.096 497.259 320.203 496.888 320.417C496.523 320.625 496.239 320.924 496.038 321.314C495.843 321.704 495.742 322.176 495.736 322.73ZM512.056 331.245C511.131 331.245 510.31 331.091 509.592 330.783C508.881 330.468 508.318 329.996 507.902 329.367C507.493 328.731 507.289 327.935 507.289 326.978C507.289 326.173 507.43 325.493 507.714 324.939C507.997 324.385 508.387 323.935 508.884 323.589C509.382 323.243 509.954 322.982 510.602 322.806C511.251 322.623 511.943 322.5 512.679 322.437C513.504 322.362 514.168 322.283 514.671 322.201C515.175 322.113 515.54 321.991 515.766 321.833C515.999 321.67 516.116 321.44 516.116 321.144V321.097C516.116 320.612 515.949 320.238 515.615 319.973C515.282 319.709 514.832 319.577 514.265 319.577C513.655 319.577 513.164 319.709 512.793 319.973C512.421 320.238 512.185 320.603 512.085 321.069L507.827 320.917C507.953 320.036 508.277 319.25 508.799 318.557C509.328 317.859 510.052 317.311 510.971 316.915C511.896 316.512 513.007 316.31 514.303 316.31C515.228 316.31 516.081 316.421 516.862 316.641C517.642 316.855 518.322 317.17 518.901 317.585C519.48 317.994 519.927 318.498 520.241 319.095C520.562 319.693 520.723 320.376 520.723 321.144V331H516.38V328.98H516.267C516.009 329.471 515.678 329.886 515.276 330.226C514.879 330.566 514.41 330.821 513.869 330.991C513.334 331.16 512.73 331.245 512.056 331.245ZM513.482 328.224C513.979 328.224 514.426 328.124 514.822 327.922C515.225 327.721 515.546 327.444 515.785 327.092C516.025 326.733 516.144 326.317 516.144 325.845V324.467C516.012 324.536 515.851 324.599 515.663 324.656C515.48 324.713 515.279 324.766 515.058 324.816C514.838 324.867 514.612 324.911 514.379 324.949C514.146 324.986 513.922 325.021 513.708 325.052C513.274 325.122 512.903 325.229 512.594 325.373C512.292 325.518 512.059 325.707 511.896 325.94C511.738 326.166 511.66 326.437 511.66 326.752C511.66 327.23 511.83 327.595 512.17 327.847C512.516 328.099 512.953 328.224 513.482 328.224ZM528.162 311.666V331H523.546V311.666H528.162ZM533.923 336.438C533.369 336.438 532.847 336.394 532.356 336.306C531.865 336.224 531.443 336.114 531.091 335.975L532.11 332.624C532.564 332.775 532.973 332.863 533.338 332.888C533.709 332.913 534.027 332.853 534.291 332.709C534.562 332.57 534.77 332.322 534.914 331.963L535.094 331.529L529.939 316.499H534.773L537.444 326.846H537.595L540.305 316.499H545.167L539.701 332.388C539.436 333.181 539.062 333.879 538.577 334.484C538.099 335.094 537.479 335.572 536.717 335.919C535.962 336.265 535.031 336.438 533.923 336.438ZM559.597 320.927L555.358 321.04C555.314 320.738 555.194 320.471 554.999 320.238C554.804 319.999 554.549 319.813 554.234 319.681C553.926 319.542 553.567 319.473 553.158 319.473C552.623 319.473 552.167 319.58 551.789 319.794C551.418 320.008 551.235 320.298 551.242 320.663C551.235 320.946 551.349 321.191 551.582 321.399C551.821 321.607 552.246 321.773 552.856 321.899L555.65 322.428C557.098 322.705 558.174 323.164 558.879 323.806C559.59 324.448 559.949 325.298 559.955 326.355C559.949 327.35 559.653 328.215 559.068 328.951C558.489 329.688 557.696 330.26 556.689 330.67C555.682 331.072 554.53 331.274 553.234 331.274C551.163 331.274 549.53 330.849 548.334 329.999C547.145 329.143 546.465 327.998 546.295 326.563L550.855 326.45C550.955 326.978 551.217 327.381 551.638 327.658C552.06 327.935 552.598 328.073 553.253 328.073C553.844 328.073 554.326 327.963 554.697 327.743C555.068 327.523 555.257 327.23 555.263 326.865C555.257 326.538 555.112 326.277 554.829 326.081C554.546 325.88 554.102 325.723 553.498 325.609L550.968 325.128C549.514 324.864 548.432 324.376 547.72 323.665C547.009 322.947 546.657 322.035 546.663 320.927C546.657 319.958 546.915 319.13 547.437 318.444C547.96 317.752 548.702 317.223 549.665 316.858C550.628 316.493 551.764 316.31 553.073 316.31C555.037 316.31 556.585 316.723 557.718 317.547C558.851 318.365 559.477 319.492 559.597 320.927ZM562.228 331V316.499H566.845V331H562.228ZM564.541 314.809C563.893 314.809 563.336 314.595 562.87 314.167C562.404 313.733 562.172 313.211 562.172 312.6C562.172 311.996 562.404 311.48 562.87 311.052C563.336 310.618 563.893 310.401 564.541 310.401C565.196 310.401 565.753 310.618 566.212 311.052C566.678 311.48 566.911 311.996 566.911 312.6C566.911 313.211 566.678 313.733 566.212 314.167C565.753 314.595 565.196 314.809 564.541 314.809ZM582.443 320.927L578.204 321.04C578.16 320.738 578.04 320.471 577.845 320.238C577.65 319.999 577.395 319.813 577.081 319.681C576.772 319.542 576.413 319.473 576.004 319.473C575.469 319.473 575.013 319.58 574.635 319.794C574.264 320.008 574.082 320.298 574.088 320.663C574.082 320.946 574.195 321.191 574.428 321.399C574.667 321.607 575.092 321.773 575.702 321.899L578.497 322.428C579.944 322.705 581.02 323.164 581.725 323.806C582.436 324.448 582.795 325.298 582.802 326.355C582.795 327.35 582.499 328.215 581.914 328.951C581.335 329.688 580.542 330.26 579.535 330.67C578.528 331.072 577.376 331.274 576.08 331.274C574.009 331.274 572.376 330.849 571.18 329.999C569.991 329.143 569.311 327.998 569.141 326.563L573.701 326.45C573.802 326.978 574.063 327.381 574.484 327.658C574.906 327.935 575.444 328.073 576.099 328.073C576.69 328.073 577.172 327.963 577.543 327.743C577.914 327.523 578.103 327.23 578.11 326.865C578.103 326.538 577.959 326.277 577.675 326.081C577.392 325.88 576.948 325.723 576.344 325.609L573.814 325.128C572.36 324.864 571.278 324.376 570.567 323.665C569.855 322.947 569.503 322.035 569.509 320.927C569.503 319.958 569.761 319.13 570.283 318.444C570.806 317.752 571.548 317.223 572.511 316.858C573.474 316.493 574.61 316.31 575.919 316.31C577.883 316.31 579.431 316.723 580.564 317.547C581.697 318.365 582.323 319.492 582.443 320.927Z" fill="white"/>
<defs>
<linearGradient id="paint0_linear_125_1722" x1="606" y1="308" x2="342" y2="308" gradientUnits="userSpaceOnUse">
<stop stop-color="#000E19"/>
<stop offset="1" stop-color="#00365F"/>
</linearGradient>
<clipPath id="clip0_125_1722">
<rect width="42.5" height="42.5" fill="white" transform="translate(453 20)"/>
</clipPath>
</defs>
</svg>
