<svg width="2460" height="474" xmlns="http://www.w3.org/2000/svg" xmlns:xlink="http://www.w3.org/1999/xlink" xml:space="preserve" overflow="hidden"><g transform="translate(-174 -634)"><path d="M2144.5 811.314C2144.5 803.685 2150.68 797.5 2158.31 797.5L2604.69 797.5C2612.32 797.5 2618.5 803.685 2618.5 811.314L2618.5 1091.69C2618.5 1099.32 2612.32 1105.5 2604.69 1105.5L2158.31 1105.5C2150.68 1105.5 2144.5 1099.32 2144.5 1091.69Z" stroke="#07234B" stroke-width="4.58333" stroke-miterlimit="8" fill="#FFFFFF" fill-rule="evenodd"/><text font-family="Inter,Inter_MSFontService,sans-serif" font-weight="700" font-size="64" transform="matrix(1 0 0 1 2280.62 938)">Global</text><text font-family="Inter,Inter_MSFontService,sans-serif" font-weight="400" font-size="55" transform="matrix(1 0 0 1 2160.88 1006)">Market presence</text><path d="M1655.5 811.314C1655.5 803.685 1661.68 797.5 1669.31 797.5L2116.69 797.5C2124.32 797.5 2130.5 803.685 2130.5 811.314L2130.5 1091.69C2130.5 1099.32 2124.32 1105.5 2116.69 1105.5L1669.31 1105.5C1661.68 1105.5 1655.5 1099.32 1655.5 1091.69Z" stroke="#11BBD8" stroke-width="4.58333" stroke-miterlimit="8" fill="#FFFFFF" fill-rule="evenodd"/><text font-family="Inter,Inter_MSFontService,sans-serif" font-weight="700" font-size="64" transform="matrix(1 0 0 1 1781.27 908)">&lt; </text><text font-family="Inter,Inter_MSFontService,sans-serif" font-weight="700" font-size="64" transform="matrix(1 0 0 1 1839.71 908)">1000</text><text font-family="Inter,Inter_MSFontService,sans-serif" font-weight="400" font-size="55" transform="matrix(1 0 0 1 1765.23 976)">Employee</text><text font-family="Inter,Inter_MSFontService,sans-serif" font-weight="400" font-size="55" transform="matrix(1 0 0 1 1779.28 1042)">Strength</text><path d="M1167.5 811.314C1167.5 803.685 1173.68 797.5 1181.31 797.5L1627.69 797.5C1635.32 797.5 1641.5 803.685 1641.5 811.314L1641.5 1091.69C1641.5 1099.32 1635.32 1105.5 1627.69 1105.5L1181.31 1105.5C1173.68 1105.5 1167.5 1099.32 1167.5 1091.69Z" stroke="#07234B" stroke-width="4.58333" stroke-miterlimit="8" fill="#FFFFFF" fill-rule="evenodd"/><text font-family="Inter,Inter_MSFontService,sans-serif" font-weight="700" font-size="64" transform="matrix(1 0 0 1 1216.32 941)">Switzerland</text><text font-family="Inter,Inter_MSFontService,sans-serif" font-weight="400" font-size="55" transform="matrix(1 0 0 1 1225.49 1009)">Headquarters</text><path d="M678.5 811.314C678.5 803.685 684.685 797.5 692.314 797.5L1139.69 797.5C1147.32 797.5 1153.5 803.685 1153.5 811.314L1153.5 1091.69C1153.5 1099.32 1147.32 1105.5 1139.69 1105.5L692.314 1105.5C684.685 1105.5 678.5 1099.32 678.5 1091.69Z" stroke="#11BBD8" stroke-width="4.58333" stroke-miterlimit="8" fill="#FFFFFF" fill-rule="evenodd"/><text font-family="Inter,Inter_MSFontService,sans-serif" font-weight="700" font-size="64" transform="matrix(1 0 0 1 803.481 941)">Private</text><text font-family="Inter,Inter_MSFontService,sans-serif" font-weight="400" font-size="55" transform="matrix(1 0 0 1 793.741 1009)">Structure</text><path d="M190.5 811.314C190.5 803.685 196.684 797.5 204.314 797.5L650.686 797.5C658.315 797.5 664.5 803.685 664.5 811.314L664.5 1091.69C664.5 1099.32 658.315 1105.5 650.686 1105.5L204.314 1105.5C196.684 1105.5 190.5 1099.32 190.5 1091.69Z" stroke="#07234B" stroke-width="4.58333" stroke-miterlimit="8" fill="#FFFFFF" fill-rule="evenodd"/><text font-family="Inter,Inter_MSFontService,sans-serif" font-weight="700" font-size="64" transform="matrix(1 0 0 1 329.912 941)">0</text><text font-family="Inter,Inter_MSFontService,sans-serif" font-weight="700" font-size="64" transform="matrix(1 0 0 1 374.026 941)">-</text><text font-family="Inter,Inter_MSFontService,sans-serif" font-weight="700" font-size="64" transform="matrix(1 0 0 1 404.391 941)">100</text><text font-family="Inter,Inter_MSFontService,sans-serif" font-weight="400" font-size="55" transform="matrix(1 0 0 1 207.308 1009)">Revenue</text><text font-family="Inter,Inter_MSFontService,sans-serif" font-weight="400" font-size="46" transform="matrix(1 0 0 1 433.037 1009)">($ million)</text><g><g><g><path d="M116.458 96.1458 112.396 100.208 18.9583 100.208 13.5417 94.7916 13.5417 67.7083 18.9583 62.2916 112.396 62.2916 116.458 66.3541 116.458 96.1458ZM5.41666 54.1666 5.41666 108.333 124.583 108.333 124.583 54.1666 5.41666 54.1666Z" fill="#07234B" transform="matrix(1 0 0 1 361 634)"/><path d="M75.8333 81.25C75.8333 88.7288 70.983 94.7916 65 94.7916 59.0169 94.7916 54.1666 88.7288 54.1666 81.25 54.1666 73.7711 59.0169 67.7083 65 67.7083 70.983 67.7083 75.8333 73.7711 75.8333 81.25Z" fill="#07234B" transform="matrix(1 0 0 1 361 634)"/><path d="M35.2083 81.25C35.2083 83.4936 33.3895 85.3125 31.1458 85.3125 28.9022 85.3125 27.0833 83.4936 27.0833 81.25 27.0833 79.0063 28.9022 77.1875 31.1458 77.1875 33.3895 77.1875 35.2083 79.0063 35.2083 81.25Z" fill="#07234B" transform="matrix(1 0 0 1 361 634)"/><path d="M102.917 81.25C102.917 83.4936 101.098 85.3125 98.8541 85.3125 96.6105 85.3125 94.7916 83.4936 94.7916 81.25 94.7916 79.0063 96.6105 77.1875 98.8541 77.1875 101.098 77.1875 102.917 79.0063 102.917 81.25Z" fill="#07234B" transform="matrix(1 0 0 1 361 634)"/><path d="M89.2395 28.0312 91.2708 33.1771 99.3958 31.5521 93.7083 17.3333 20.8542 47.125 62.5625 38.8646Z" fill="#07234B" transform="matrix(1 0 0 1 361 634)"/><path d="M82.1979 48.75 103.594 44.5521 104.542 48.75 112.802 48.75 110.094 34.9375 40.625 48.75Z" fill="#07234B" transform="matrix(1 0 0 1 361 634)"/></g></g></g><g><g><g><path d="M16.25 41.9791 8.125 41.9791 8.125 23.0208 27.0833 23.0208 27.0833 31.1458 16.25 31.1458 16.25 41.9791Z" fill="#11BBD8" transform="matrix(1 0 0 1 833 634)"/><path d="M121.875 41.9791 113.75 41.9791 113.75 31.1458 102.917 31.1458 102.917 23.0208 121.875 23.0208 121.875 41.9791Z" fill="#11BBD8" transform="matrix(1 0 0 1 833 634)"/><path d="M27.0833 106.979 8.125 106.979 8.125 88.0208 16.25 88.0208 16.25 98.8541 27.0833 98.8541 27.0833 106.979Z" fill="#11BBD8" transform="matrix(1 0 0 1 833 634)"/><path d="M121.875 106.979 102.917 106.979 102.917 98.8541 113.75 98.8541 113.75 88.0208 121.875 88.0208 121.875 106.979Z" fill="#11BBD8" transform="matrix(1 0 0 1 833 634)"/><path d="M95.4443 54.1666C87.7865 47.5082 76.9708 40.625 64.9634 40.625 52.956 40.625 42.1254 47.5082 34.4784 54.1666L8.125 54.1666 8.125 59.5833 121.875 59.5833 121.875 54.1666ZM52.9235 54.1666C58.8273 47.5199 69.0014 46.9174 75.6483 52.8211 76.123 53.2427 76.5723 53.692 76.9938 54.1666Z" fill="#11BBD8" transform="matrix(1 0 0 1 833 634)"/><path d="M54.4876 65C54.4876 70.553 58.9892 75.0546 64.5423 75.0546 70.0953 75.0546 74.5969 70.553 74.5969 65 74.5911 64.5467 74.5548 64.0943 74.4886 63.6458L54.5959 63.6458C54.5297 64.0943 54.4934 64.5467 54.4876 65Z" fill="#11BBD8" transform="matrix(1 0 0 1 833 634)"/><path d="M96.0226 63.6458C96.8852 64.5192 97.6746 65.3534 98.3612 66.1212 92.7738 71.6822 86.2715 76.2409 79.1388 79.5979 79.1315 79.5995 79.1243 79.5949 79.1227 79.5876 79.1217 79.5837 79.1227 79.5795 79.1253 79.5762 83.3936 75.4195 85.6047 69.5875 85.1649 63.6458L81.1403 63.6458C81.1809 64.0927 81.2039 64.545 81.2039 65 81.2039 73.9746 73.9285 81.25 64.9539 81.25 55.9793 81.25 48.7039 73.9746 48.7039 65 48.7039 64.545 48.7283 64.0927 48.7689 63.6458L44.7335 63.6458C44.2923 69.5906 46.5098 75.425 50.788 79.5762 50.7926 79.582 50.7917 79.5906 50.7858 79.5953 50.7827 79.5977 50.7785 79.5988 50.7745 79.5979 43.6276 76.2655 37.1212 71.704 31.5521 66.1212 32.3145 65.2708 33.131 64.4583 33.9354 63.6458L25.1997 63.6458C23.9612 65.4141 24.1544 67.8131 25.6601 69.3604 31.6482 75.664 46.9896 89.375 64.9634 89.375 82.9372 89.375 98.2651 75.664 104.349 69.3604 105.789 67.7736 105.94 65.4019 104.712 63.6458Z" fill="#11BBD8" transform="matrix(1 0 0 1 833 634)"/></g></g></g><g><g><g><path d="M97.5 47.125 97.5 24.375 86.6666 24.375 86.6666 36.8333 65 16.25 65 16.25 8.125 70.4166 14.2187 75.5625 65 27.3542 65 27.3542 115.781 75.5625 121.875 70.4166Z" fill="#07234B" transform="matrix(1 0 0 1 1302 634)"/><path d="M24.375 73.5312 24.375 113.75 56.875 113.75 56.875 79.8958 73.125 79.8958 73.125 113.75 105.625 113.75 105.625 73.5312 65 34.9375 24.375 73.5312ZM48.75 96.1458 32.5 96.1458 32.5 79.8958 48.75 79.8958 48.75 96.1458ZM81.25 79.8958 97.5 79.8958 97.5 96.1458 81.25 96.1458 81.25 79.8958Z" fill="#07234B" transform="matrix(1 0 0 1 1302 634)"/></g></g></g><g><g><g><path d="M60.3961 80.6249 68.6199 80.6249 71.2268 72.5624 57.7893 72.5624 60.3961 80.6249Z" fill="#11BBD8" transform="matrix(1 0 0 1.00776 1808 634)"/><path d="M60.5977 83.3124 58.7702 109.825 64.508 115.562 70.2458 109.825 68.4183 83.3124 60.5977 83.3124Z" fill="#11BBD8" transform="matrix(1 0 0 1.00776 1808 634)"/><path d="M107.5 87.2899C107.424 83.3478 105.582 79.648 102.482 77.2118 97.4621 73.1026 91.5617 70.5656 85.3684 68.3511L78.7773 65.6462C78.2732 65.4391 77.9442 64.9481 77.9442 64.4032L77.9442 61.1056C82.9202 57.123 85.8677 51.1341 85.9878 44.7616L89.4117 38.8881C89.9244 37.6772 90.1302 36.3585 90.011 35.049 89.2322 26.2426 83.8915 18.4899 75.9406 14.624 75.3002 14.3236 74.5477 14.3907 73.9707 14.8001L72.6135 15.7407 71.1125 13.6888C70.6506 13.0416 69.9554 12.5989 69.1735 12.4539 67.7755 12.2126 66.3593 12.0921 64.9407 12.0937 52.8381 12.0953 42.4486 20.707 40.2023 32.5993L40.1485 32.8923C39.4961 36.3817 38.145 39.7032 36.1764 42.6573L43.0134 42.6573 43.0134 44.3437C43.0138 50.8604 45.9752 57.0237 51.0625 61.0962L51.0625 64.3965C51.0625 64.9414 50.7334 65.4324 50.2293 65.6395L43.645 68.339C37.4476 70.5549 31.5512 73.0878 26.5605 77.1688 23.4257 79.623 21.5686 83.363 21.508 87.3437L21.508 110.859 22.583 111.666C28.4754 116.085 44.0588 117.509 52.8174 117.965L55.9792 118.129 50.7494 71.2321 52.2691 70.6086C54.7936 69.5796 56.4422 67.1227 56.4375 64.3965L56.4375 64.2621C61.6079 66.3737 67.4 66.3737 72.5705 64.2621L72.5705 64.3965C72.5642 67.1229 74.2118 69.5811 76.7361 70.6113L78.2559 71.2348 73.0247 118.132 76.1852 117.968C84.9505 117.512 100.534 116.086 106.428 111.668L107.503 110.862ZM48.3884 44.3437 48.3884 42.6573 57.753 42.6573C71.5667 42.6573 69.6882 31.648 75.7323 30.0718 77.3935 29.7624 79.1097 29.9833 80.6384 30.7033L80.6384 44.3437C80.6384 53.2493 73.419 60.4687 64.5134 60.4687 55.6078 60.4687 48.3884 53.2493 48.3884 44.3437ZM96.7566 94.0624 84.6629 94.0624 84.6629 91.3749 96.7566 91.3749Z" fill="#11BBD8" transform="matrix(1 0 0 1.00776 1808 634)"/></g></g></g><g><g><g><path d="M72.4479 107.656C81.25 96.8229 91 83.1458 91.9479 67.7083L108.198 67.7083C106.979 87.8854 91.9479 104.271 72.4479 107.656ZM21.8021 67.7083 38.0521 67.7083C39.1354 83.1458 48.75 96.8229 57.5521 107.656 38.0521 104.271 23.0208 87.8854 21.8021 67.7083ZM57.5521 22.3437C48.75 33.1771 39 46.8541 38.0521 62.2916L21.8021 62.2916C23.0208 42.1146 38.0521 25.7292 57.5521 22.3437ZM67.7083 67.7083 86.5312 67.7083C85.4479 81.6562 76.375 94.25 67.7083 104.948L67.7083 67.7083ZM62.2916 67.7083 62.2916 104.948C53.625 94.25 44.5521 81.6562 43.4687 67.7083L62.2916 67.7083ZM67.7083 25.0521C76.375 35.75 85.4479 48.2083 86.5312 62.2916L67.7083 62.2916 67.7083 25.0521ZM62.2916 62.2916 43.4687 62.2916C44.5521 48.3437 53.625 35.75 62.2916 25.0521L62.2916 62.2916ZM108.198 62.2916 91.9479 62.2916C91 46.8541 81.25 33.1771 72.4479 22.3437 91.9479 25.7292 106.979 42.1146 108.198 62.2916ZM65 13.5417C36.5625 13.5417 13.5417 36.5625 13.5417 65 13.5417 93.4375 36.5625 116.458 65 116.458 93.4375 116.458 116.458 93.4375 116.458 65 116.458 36.5625 93.4375 13.5417 65 13.5417Z" fill="#07234B" transform="matrix(1 0 0 1 2314 634)"/></g></g></g></g></svg>