<svg width="983" height="204" viewBox="0 0 983 204" fill="none" xmlns="http://www.w3.org/2000/svg">
<rect width="983" height="204" fill="white"/>
<path d="M74.3308 165V151.909H78.997C80.0112 151.909 80.8528 152.084 81.5218 152.433C82.1951 152.783 82.698 153.266 83.0304 153.884C83.3627 154.498 83.5289 155.207 83.5289 156.013C83.5289 156.814 83.3606 157.519 83.024 158.129C82.6916 158.734 82.1887 159.205 81.5154 159.541C80.8464 159.878 80.0048 160.046 78.9906 160.046H75.4558V158.346H78.8116C79.4508 158.346 79.9707 158.254 80.3713 158.071C80.7761 157.888 81.0723 157.621 81.2598 157.272C81.4473 156.923 81.541 156.503 81.541 156.013C81.541 155.518 81.4451 155.09 81.2534 154.728C81.0659 154.366 80.7697 154.089 80.3649 153.897C79.9643 153.701 79.438 153.603 78.786 153.603H76.3059V165H74.3308ZM80.7931 159.094L84.0275 165H81.7775L78.6071 159.094H80.7931ZM89.8874 165.198C88.9201 165.198 88.087 164.991 87.3881 164.578C86.6935 164.161 86.1566 163.575 85.7773 162.82C85.4023 162.062 85.2148 161.173 85.2148 160.155C85.2148 159.149 85.4023 158.263 85.7773 157.496C86.1566 156.729 86.685 156.13 87.3626 155.7C88.0444 155.269 88.8413 155.054 89.7532 155.054C90.3072 155.054 90.8441 155.146 91.364 155.329C91.8839 155.512 92.3505 155.8 92.7638 156.192C93.1772 156.584 93.5032 157.093 93.7418 157.719C93.9805 158.342 94.0998 159.098 94.0998 159.989V160.666H86.2951V159.234H92.2269C92.2269 158.732 92.1246 158.286 91.9201 157.898C91.7156 157.506 91.4279 157.197 91.0572 156.972C90.6907 156.746 90.2603 156.633 89.766 156.633C89.229 156.633 88.7603 156.765 88.3597 157.029C87.9634 157.289 87.6566 157.63 87.4393 158.052C87.2262 158.469 87.1197 158.923 87.1197 159.413V160.532C87.1197 161.188 87.2347 161.746 87.4648 162.207C87.6992 162.667 88.0252 163.018 88.4428 163.261C88.8604 163.5 89.3484 163.619 89.9066 163.619C90.2688 163.619 90.5991 163.568 90.8974 163.466C91.1957 163.359 91.4535 163.202 91.6708 162.993C91.8881 162.784 92.0543 162.526 92.1694 162.219L93.9783 162.545C93.8335 163.078 93.5735 163.545 93.1985 163.945C92.8278 164.342 92.3612 164.651 91.7987 164.872C91.2404 165.089 90.6033 165.198 89.8874 165.198ZM104.338 155.182L100.778 165H98.7324L95.1657 155.182H97.2175L99.704 162.737H99.8063L102.286 155.182H104.338ZM110.032 165.198C109.065 165.198 108.232 164.991 107.533 164.578C106.838 164.161 106.301 163.575 105.922 162.82C105.547 162.062 105.359 161.173 105.359 160.155C105.359 159.149 105.547 158.263 105.922 157.496C106.301 156.729 106.83 156.13 107.507 155.7C108.189 155.269 108.986 155.054 109.898 155.054C110.452 155.054 110.989 155.146 111.509 155.329C112.028 155.512 112.495 155.8 112.908 156.192C113.322 156.584 113.648 157.093 113.886 157.719C114.125 158.342 114.244 159.098 114.244 159.989V160.666H106.44V159.234H112.371C112.371 158.732 112.269 158.286 112.065 157.898C111.86 157.506 111.572 157.197 111.202 156.972C110.835 156.746 110.405 156.633 109.911 156.633C109.374 156.633 108.905 156.765 108.504 157.029C108.108 157.289 107.801 157.63 107.584 158.052C107.371 158.469 107.264 158.923 107.264 159.413V160.532C107.264 161.188 107.379 161.746 107.609 162.207C107.844 162.667 108.17 163.018 108.587 163.261C109.005 163.5 109.493 163.619 110.051 163.619C110.413 163.619 110.744 163.568 111.042 163.466C111.34 163.359 111.598 163.202 111.815 162.993C112.033 162.784 112.199 162.526 112.314 162.219L114.123 162.545C113.978 163.078 113.718 163.545 113.343 163.945C112.972 164.342 112.506 164.651 111.943 164.872C111.385 165.089 110.748 165.198 110.032 165.198ZM118.276 159.17V165H116.365V155.182H118.199V156.78H118.321C118.547 156.26 118.9 155.842 119.382 155.527C119.868 155.212 120.479 155.054 121.216 155.054C121.885 155.054 122.471 155.195 122.974 155.476C123.477 155.753 123.867 156.166 124.144 156.716C124.421 157.266 124.559 157.945 124.559 158.755V165H122.648V158.985C122.648 158.273 122.463 157.717 122.092 157.317C121.721 156.912 121.212 156.71 120.564 156.71C120.121 156.71 119.727 156.805 119.382 156.997C119.041 157.189 118.77 157.47 118.57 157.841C118.374 158.207 118.276 158.651 118.276 159.17ZM133.342 160.928V155.182H135.26V165H133.381V163.3H133.278C133.052 163.824 132.69 164.261 132.192 164.61C131.697 164.955 131.081 165.128 130.344 165.128C129.714 165.128 129.155 164.989 128.67 164.712C128.188 164.431 127.809 164.016 127.532 163.466C127.259 162.916 127.123 162.237 127.123 161.427V155.182H129.034V161.197C129.034 161.866 129.219 162.398 129.59 162.795C129.961 163.191 130.442 163.389 131.035 163.389C131.393 163.389 131.748 163.3 132.102 163.121C132.46 162.942 132.756 162.671 132.991 162.309C133.229 161.947 133.346 161.487 133.342 160.928ZM142.059 165.198C141.092 165.198 140.259 164.991 139.56 164.578C138.865 164.161 138.328 163.575 137.949 162.82C137.574 162.062 137.387 161.173 137.387 160.155C137.387 159.149 137.574 158.263 137.949 157.496C138.328 156.729 138.857 156.13 139.534 155.7C140.216 155.269 141.013 155.054 141.925 155.054C142.479 155.054 143.016 155.146 143.536 155.329C144.056 155.512 144.522 155.8 144.936 156.192C145.349 156.584 145.675 157.093 145.914 157.719C146.152 158.342 146.272 159.098 146.272 159.989V160.666H138.467V159.234H144.399C144.399 158.732 144.297 158.286 144.092 157.898C143.887 157.506 143.6 157.197 143.229 156.972C142.863 156.746 142.432 156.633 141.938 156.633C141.401 156.633 140.932 156.765 140.532 157.029C140.135 157.289 139.828 157.63 139.611 158.052C139.398 158.469 139.292 158.923 139.292 159.413V160.532C139.292 161.188 139.407 161.746 139.637 162.207C139.871 162.667 140.197 163.018 140.615 163.261C141.032 163.5 141.52 163.619 142.078 163.619C142.441 163.619 142.771 163.568 143.069 163.466C143.368 163.359 143.625 163.202 143.843 162.993C144.06 162.784 144.226 162.526 144.341 162.219L146.15 162.545C146.005 163.078 145.745 163.545 145.37 163.945C145 164.342 144.533 164.651 143.971 164.872C143.412 165.089 142.775 165.198 142.059 165.198ZM69.1436 180.455C69.1436 178.852 69.3546 177.378 69.7765 176.031C70.1983 174.685 70.8141 173.442 71.6238 172.305H73.3752C73.0598 172.727 72.7658 173.244 72.4931 173.858C72.2203 174.472 71.9817 175.145 71.7772 175.878C71.5726 176.607 71.4128 177.363 71.2978 178.147C71.1827 178.927 71.1252 179.696 71.1252 180.455C71.1252 181.469 71.2253 182.496 71.4256 183.536C71.6259 184.575 71.8965 185.54 72.2374 186.431C72.5783 187.322 72.9576 188.048 73.3752 188.611H71.6238C70.8141 187.473 70.1983 186.231 69.7765 184.884C69.3546 183.538 69.1436 182.061 69.1436 180.455ZM79.4045 188.636V172.273H80.4528V188.636H79.4045ZM82.6836 177.348C82.6154 176.743 82.3342 176.274 81.8398 175.942C81.3455 175.605 80.7234 175.437 79.9734 175.437C79.4364 175.437 78.9719 175.522 78.5799 175.692C78.1879 175.859 77.8832 176.089 77.6658 176.383C77.4528 176.673 77.3462 177.003 77.3462 177.374C77.3462 177.685 77.4187 177.953 77.5636 178.179C77.7127 178.405 77.9066 178.594 78.1452 178.748C78.3881 178.897 78.6481 179.023 78.9251 179.125C79.2021 179.223 79.4684 179.304 79.7241 179.368L81.0025 179.7C81.4201 179.803 81.8484 179.941 82.2873 180.116C82.7262 180.29 83.1332 180.521 83.5082 180.806C83.8832 181.092 84.1857 181.445 84.4158 181.867C84.6502 182.289 84.7674 182.794 84.7674 183.382C84.7674 184.124 84.5756 184.782 84.1921 185.357C83.8129 185.933 83.261 186.386 82.5366 186.719C81.8164 187.051 80.945 187.217 79.9222 187.217C78.9421 187.217 78.0941 187.062 77.3782 186.751C76.6623 186.44 76.1019 185.999 75.6971 185.428C75.2923 184.852 75.0685 184.17 75.0259 183.382H77.0075C77.0458 183.855 77.1992 184.249 77.4677 184.565C77.7404 184.876 78.0877 185.108 78.5096 185.261C78.9357 185.411 79.4023 185.485 79.9094 185.485C80.4677 185.485 80.9641 185.398 81.3988 185.223C81.8377 185.044 82.1829 184.797 82.4343 184.482C82.6857 184.162 82.8114 183.789 82.8114 183.363C82.8114 182.975 82.7006 182.658 82.479 182.411C82.2617 182.163 81.9656 181.959 81.5906 181.797C81.2198 181.635 80.8001 181.492 80.3313 181.369L78.7844 180.947C77.7362 180.661 76.9052 180.241 76.2915 179.688C75.6822 179.134 75.3775 178.401 75.3775 177.489C75.3775 176.734 75.582 176.076 75.9911 175.513C76.4002 174.951 76.9542 174.514 77.6531 174.203C78.3519 173.888 79.1403 173.73 80.0181 173.73C80.9045 173.73 81.6864 173.886 82.364 174.197C83.0458 174.508 83.5827 174.936 83.9748 175.482C84.3668 176.023 84.5714 176.645 84.5884 177.348H82.6836ZM91.7379 187V177.182H93.5724V178.78H93.6939C93.8984 178.239 94.233 177.817 94.6974 177.514C95.1619 177.207 95.718 177.054 96.3658 177.054C97.022 177.054 97.5717 177.207 98.0149 177.514C98.4624 177.821 98.7926 178.243 99.0057 178.78H99.108C99.3423 178.256 99.7152 177.838 100.227 177.527C100.738 177.212 101.347 177.054 102.055 177.054C102.945 177.054 103.672 177.333 104.234 177.891C104.801 178.45 105.085 179.291 105.085 180.416V187H103.173V180.595C103.173 179.93 102.992 179.449 102.63 179.151C102.268 178.852 101.835 178.703 101.332 178.703C100.71 178.703 100.227 178.895 99.8814 179.278C99.5362 179.658 99.3636 180.146 99.3636 180.742V187H97.4588V180.474C97.4588 179.941 97.2926 179.513 96.9602 179.189C96.6278 178.865 96.1953 178.703 95.6626 178.703C95.3004 178.703 94.9659 178.799 94.6591 178.991C94.3565 179.178 94.1115 179.44 93.924 179.777C93.7408 180.114 93.6491 180.504 93.6491 180.947V187H91.7379ZM107.646 187V177.182H109.557V187H107.646ZM108.611 175.667C108.279 175.667 107.993 175.556 107.755 175.335C107.52 175.109 107.403 174.84 107.403 174.529C107.403 174.214 107.52 173.945 107.755 173.724C107.993 173.498 108.279 173.385 108.611 173.385C108.944 173.385 109.227 173.498 109.461 173.724C109.7 173.945 109.819 174.214 109.819 174.529C109.819 174.84 109.7 175.109 109.461 175.335C109.227 175.556 108.944 175.667 108.611 175.667ZM114.04 173.909V187H112.129V173.909H114.04ZM118.522 173.909V187H116.611V173.909H118.522ZM121.093 187V177.182H123.005V187H121.093ZM122.059 175.667C121.726 175.667 121.441 175.556 121.202 175.335C120.968 175.109 120.85 174.84 120.85 174.529C120.85 174.214 120.968 173.945 121.202 173.724C121.441 173.498 121.726 173.385 122.059 173.385C122.391 173.385 122.674 173.498 122.909 173.724C123.147 173.945 123.267 174.214 123.267 174.529C123.267 174.84 123.147 175.109 122.909 175.335C122.674 175.556 122.391 175.667 122.059 175.667ZM129.711 187.198C128.791 187.198 127.988 186.987 127.302 186.565C126.616 186.143 126.083 185.553 125.704 184.795C125.324 184.036 125.135 183.15 125.135 182.136C125.135 181.117 125.324 180.227 125.704 179.464C126.083 178.701 126.616 178.109 127.302 177.687C127.988 177.265 128.791 177.054 129.711 177.054C130.632 177.054 131.435 177.265 132.121 177.687C132.807 178.109 133.34 178.701 133.719 179.464C134.099 180.227 134.288 181.117 134.288 182.136C134.288 183.15 134.099 184.036 133.719 184.795C133.34 185.553 132.807 186.143 132.121 186.565C131.435 186.987 130.632 187.198 129.711 187.198ZM129.718 185.594C130.314 185.594 130.809 185.436 131.201 185.121C131.593 184.805 131.883 184.386 132.07 183.862C132.262 183.337 132.358 182.76 132.358 182.129C132.358 181.503 132.262 180.928 132.07 180.403C131.883 179.875 131.593 179.451 131.201 179.131C130.809 178.812 130.314 178.652 129.718 178.652C129.117 178.652 128.618 178.812 128.222 179.131C127.83 179.451 127.538 179.875 127.346 180.403C127.159 180.928 127.065 181.503 127.065 182.129C127.065 182.76 127.159 183.337 127.346 183.862C127.538 184.386 127.83 184.805 128.222 185.121C128.618 185.436 129.117 185.594 129.718 185.594ZM138.333 181.17V187H136.422V177.182H138.256V178.78H138.377C138.603 178.26 138.957 177.842 139.439 177.527C139.924 177.212 140.536 177.054 141.273 177.054C141.942 177.054 142.528 177.195 143.031 177.476C143.534 177.753 143.924 178.166 144.201 178.716C144.478 179.266 144.616 179.945 144.616 180.755V187H142.705V180.985C142.705 180.273 142.52 179.717 142.149 179.317C141.778 178.912 141.269 178.71 140.621 178.71C140.178 178.71 139.784 178.805 139.439 178.997C139.098 179.189 138.827 179.47 138.627 179.841C138.431 180.207 138.333 180.651 138.333 181.17ZM150.855 181.567C150.855 183.173 150.644 184.65 150.222 185.996C149.8 187.343 149.184 188.585 148.375 189.723H146.623C146.939 189.301 147.233 188.783 147.505 188.17C147.778 187.556 148.017 186.885 148.221 186.156C148.426 185.423 148.586 184.665 148.701 183.881C148.816 183.097 148.873 182.325 148.873 181.567C148.873 180.557 148.773 179.532 148.573 178.492C148.373 177.452 148.102 176.487 147.761 175.597C147.42 174.706 147.041 173.979 146.623 173.417H148.375C149.184 174.555 149.8 175.797 150.222 177.143C150.644 178.49 150.855 179.964 150.855 181.567Z" fill="black"/>
<circle cx="110.4" cy="61.4" r="32.4" fill="#01345C"/>
<path d="M123.965 63.0207C125.209 61.2331 125.959 59.1495 126.142 56.9796C126.324 54.8097 125.931 52.63 125.004 50.66C124.076 48.69 122.645 46.9992 120.856 45.7577C119.067 44.5163 116.983 43.768 114.813 43.5882C112.642 43.4084 110.463 43.8035 108.494 44.7337C106.525 45.6639 104.836 47.0963 103.597 48.8868C102.358 50.6772 101.612 52.7626 101.435 54.933C101.257 57.1033 101.655 59.2821 102.587 61.2499" stroke="white" stroke-width="3" stroke-linecap="round" stroke-linejoin="round"/>
<path d="M113.791 50.6253C111.835 50.6253 110.25 51.8153 110.25 53.2816C110.25 54.7478 111.835 55.9378 113.791 55.9378C115.748 55.9378 117.333 57.1278 117.333 58.5941C117.333 60.0603 115.748 61.2503 113.791 61.2503M113.791 50.6253C115.332 50.6253 116.646 51.3638 117.131 52.3962M113.791 50.6253V48.8545M113.791 61.2503C112.251 61.2503 110.937 60.5119 110.452 59.4795M113.791 61.2503V63.0212M94.3123 64.792H98.5534C99.074 64.792 99.5876 64.9089 100.053 65.1355L103.669 66.8851C104.135 67.11 104.649 67.2269 105.171 67.2269H107.016C108.801 67.2269 110.25 68.6276 110.25 70.356C110.25 70.4268 110.202 70.487 110.133 70.5065L105.633 71.7514C104.826 71.9744 103.965 71.8964 103.211 71.5318L99.345 69.6618M110.25 69.2191L118.383 66.7204C119.091 66.5032 119.85 66.5151 120.551 66.7546C121.252 66.994 121.859 67.4488 122.286 68.0539C122.94 68.957 122.674 70.2532 121.721 70.8022L108.413 78.4823C107.997 78.7231 107.537 78.8766 107.059 78.9335C106.582 78.9905 106.098 78.9496 105.637 78.8134L94.3123 75.4524" stroke="white" stroke-width="3" stroke-linecap="round" stroke-linejoin="round"/>
<path d="M270.763 155.348C270.695 154.743 270.413 154.274 269.919 153.942C269.425 153.605 268.802 153.437 268.052 153.437C267.516 153.437 267.051 153.522 266.659 153.692C266.267 153.859 265.962 154.089 265.745 154.383C265.532 154.673 265.425 155.003 265.425 155.374C265.425 155.685 265.498 155.953 265.643 156.179C265.792 156.405 265.986 156.594 266.224 156.748C266.467 156.897 266.727 157.023 267.004 157.125C267.281 157.223 267.547 157.304 267.803 157.368L269.082 157.7C269.499 157.803 269.927 157.941 270.366 158.116C270.805 158.29 271.212 158.521 271.587 158.806C271.962 159.092 272.265 159.445 272.495 159.867C272.729 160.289 272.847 160.794 272.847 161.382C272.847 162.124 272.655 162.782 272.271 163.357C271.892 163.933 271.34 164.386 270.616 164.719C269.896 165.051 269.024 165.217 268.001 165.217C267.021 165.217 266.173 165.062 265.457 164.751C264.741 164.44 264.181 163.999 263.776 163.428C263.371 162.852 263.148 162.17 263.105 161.382H265.087C265.125 161.855 265.278 162.249 265.547 162.565C265.82 162.876 266.167 163.108 266.589 163.261C267.015 163.411 267.481 163.485 267.989 163.485C268.547 163.485 269.043 163.398 269.478 163.223C269.917 163.044 270.262 162.797 270.513 162.482C270.765 162.162 270.891 161.789 270.891 161.363C270.891 160.975 270.78 160.658 270.558 160.411C270.341 160.163 270.045 159.959 269.67 159.797C269.299 159.635 268.879 159.492 268.41 159.369L266.864 158.947C265.815 158.661 264.984 158.241 264.371 157.688C263.761 157.134 263.457 156.401 263.457 155.489C263.457 154.734 263.661 154.076 264.07 153.513C264.479 152.951 265.033 152.514 265.732 152.203C266.431 151.888 267.219 151.73 268.097 151.73C268.984 151.73 269.766 151.886 270.443 152.197C271.125 152.508 271.662 152.936 272.054 153.482C272.446 154.023 272.65 154.645 272.668 155.348H270.763ZM279.636 155.182V156.716H274.274V155.182H279.636ZM275.712 152.83H277.623V162.117C277.623 162.488 277.678 162.767 277.789 162.955C277.9 163.138 278.043 163.263 278.217 163.332C278.396 163.396 278.59 163.428 278.799 163.428C278.953 163.428 279.087 163.417 279.202 163.396C279.317 163.374 279.406 163.357 279.47 163.344L279.815 164.923C279.705 164.966 279.547 165.009 279.342 165.051C279.138 165.098 278.882 165.124 278.575 165.128C278.073 165.136 277.604 165.047 277.169 164.859C276.734 164.672 276.383 164.382 276.114 163.99C275.846 163.598 275.712 163.106 275.712 162.513V152.83ZM281.751 165V155.182H283.598V156.741H283.7C283.879 156.213 284.195 155.798 284.646 155.495C285.102 155.188 285.618 155.035 286.193 155.035C286.312 155.035 286.453 155.039 286.615 155.048C286.781 155.056 286.911 155.067 287.005 155.08V156.908C286.928 156.886 286.792 156.863 286.596 156.837C286.4 156.808 286.204 156.793 286.008 156.793C285.556 156.793 285.153 156.888 284.8 157.08C284.45 157.268 284.173 157.53 283.969 157.866C283.764 158.199 283.662 158.578 283.662 159.004V165H281.751ZM294.878 160.928V155.182H296.796V165H294.917V163.3H294.814C294.589 163.824 294.226 164.261 293.728 164.61C293.233 164.955 292.618 165.128 291.88 165.128C291.25 165.128 290.691 164.989 290.206 164.712C289.724 164.431 289.345 164.016 289.068 163.466C288.795 162.916 288.659 162.237 288.659 161.427V155.182H290.57V161.197C290.57 161.866 290.755 162.398 291.126 162.795C291.497 163.191 291.978 163.389 292.571 163.389C292.929 163.389 293.285 163.3 293.638 163.121C293.996 162.942 294.292 162.671 294.527 162.309C294.765 161.947 294.883 161.487 294.878 160.928ZM303.5 165.198C302.549 165.198 301.731 164.983 301.045 164.553C300.363 164.118 299.839 163.519 299.473 162.756C299.106 161.994 298.923 161.12 298.923 160.136C298.923 159.138 299.11 158.259 299.485 157.496C299.86 156.729 300.389 156.13 301.071 155.7C301.752 155.269 302.556 155.054 303.48 155.054C304.226 155.054 304.891 155.192 305.475 155.469C306.059 155.742 306.529 156.126 306.887 156.62C307.25 157.114 307.465 157.692 307.533 158.352H305.673C305.571 157.892 305.336 157.496 304.97 157.163C304.608 156.831 304.122 156.665 303.512 156.665C302.98 156.665 302.513 156.805 302.112 157.087C301.716 157.364 301.407 157.76 301.186 158.276C300.964 158.787 300.853 159.392 300.853 160.091C300.853 160.807 300.962 161.425 301.179 161.945C301.397 162.464 301.703 162.867 302.1 163.153C302.5 163.438 302.971 163.581 303.512 163.581C303.875 163.581 304.203 163.515 304.497 163.383C304.795 163.246 305.044 163.053 305.245 162.801C305.449 162.55 305.592 162.247 305.673 161.893H307.533C307.465 162.528 307.258 163.095 306.913 163.594C306.568 164.092 306.105 164.484 305.526 164.77C304.951 165.055 304.275 165.198 303.5 165.198ZM314.16 155.182V156.716H308.797V155.182H314.16ZM310.235 152.83H312.146V162.117C312.146 162.488 312.202 162.767 312.313 162.955C312.423 163.138 312.566 163.263 312.741 163.332C312.92 163.396 313.114 163.428 313.323 163.428C313.476 163.428 313.61 163.417 313.725 163.396C313.84 163.374 313.93 163.357 313.994 163.344L314.339 164.923C314.228 164.966 314.07 165.009 313.866 165.051C313.661 165.098 313.406 165.124 313.099 165.128C312.596 165.136 312.127 165.047 311.693 164.859C311.258 164.672 310.906 164.382 310.638 163.99C310.369 163.598 310.235 163.106 310.235 162.513V152.83ZM322.494 160.928V155.182H324.411V165H322.532V163.3H322.43C322.204 163.824 321.842 164.261 321.343 164.61C320.849 164.955 320.233 165.128 319.496 165.128C318.865 165.128 318.307 164.989 317.821 164.712C317.339 164.431 316.96 164.016 316.683 163.466C316.41 162.916 316.274 162.237 316.274 161.427V155.182H318.185V161.197C318.185 161.866 318.371 162.398 318.741 162.795C319.112 163.191 319.594 163.389 320.186 163.389C320.544 163.389 320.9 163.3 321.253 163.121C321.611 162.942 321.908 162.671 322.142 162.309C322.381 161.947 322.498 161.487 322.494 160.928ZM326.979 165V155.182H328.826V156.741H328.929C329.108 156.213 329.423 155.798 329.875 155.495C330.331 155.188 330.846 155.035 331.422 155.035C331.541 155.035 331.682 155.039 331.843 155.048C332.01 155.056 332.14 155.067 332.233 155.08V156.908C332.157 156.886 332.02 156.863 331.824 156.837C331.628 156.808 331.432 156.793 331.236 156.793C330.785 156.793 330.382 156.888 330.028 157.08C329.679 157.268 329.402 157.53 329.197 157.866C328.993 158.199 328.89 158.578 328.89 159.004V165H326.979ZM337.767 165.198C336.8 165.198 335.967 164.991 335.268 164.578C334.573 164.161 334.036 163.575 333.657 162.82C333.282 162.062 333.095 161.173 333.095 160.155C333.095 159.149 333.282 158.263 333.657 157.496C334.036 156.729 334.565 156.13 335.242 155.7C335.924 155.269 336.721 155.054 337.633 155.054C338.187 155.054 338.724 155.146 339.244 155.329C339.764 155.512 340.23 155.8 340.644 156.192C341.057 156.584 341.383 157.093 341.622 157.719C341.86 158.342 341.98 159.098 341.98 159.989V160.666H334.175V159.234H340.107C340.107 158.732 340.005 158.286 339.8 157.898C339.595 157.506 339.308 157.197 338.937 156.972C338.571 156.746 338.14 156.633 337.646 156.633C337.109 156.633 336.64 156.765 336.24 157.029C335.843 157.289 335.536 157.63 335.319 158.052C335.106 158.469 335 158.923 335 159.413V160.532C335 161.188 335.115 161.746 335.345 162.207C335.579 162.667 335.905 163.018 336.323 163.261C336.74 163.5 337.228 163.619 337.786 163.619C338.149 163.619 338.479 163.568 338.777 163.466C339.076 163.359 339.333 163.202 339.551 162.993C339.768 162.784 339.934 162.526 340.049 162.219L341.858 162.545C341.713 163.078 341.453 163.545 341.078 163.945C340.708 164.342 340.241 164.651 339.679 164.872C339.12 165.089 338.483 165.198 337.767 165.198Z" fill="black"/>
<circle cx="302.4" cy="61.4" r="32.4" fill="#01345C"/>
<path d="M286.312 77.1875H318.187M296.937 54.1667H298.708M296.937 61.25H298.708M296.937 68.3333H298.708M305.791 54.1667H307.562M305.791 61.25H307.562M305.791 68.3333H307.562M289.854 77.1875V48.8542C289.854 47.9149 290.227 47.014 290.891 46.3498C291.555 45.6856 292.456 45.3125 293.396 45.3125H311.104C312.043 45.3125 312.944 45.6856 313.608 46.3498C314.272 47.014 314.646 47.9149 314.646 48.8542V77.1875" stroke="white" stroke-width="3" stroke-linecap="round" stroke-linejoin="round"/>
<path d="M436.586 165V151.909H438.561V157.598H445.087V151.909H447.069V165H445.087V159.292H438.561V165H436.586ZM454.023 165.198C453.056 165.198 452.223 164.991 451.524 164.578C450.829 164.161 450.292 163.575 449.913 162.82C449.538 162.062 449.351 161.173 449.351 160.155C449.351 159.149 449.538 158.263 449.913 157.496C450.292 156.729 450.821 156.13 451.498 155.7C452.18 155.269 452.977 155.054 453.889 155.054C454.443 155.054 454.98 155.146 455.5 155.329C456.02 155.512 456.486 155.8 456.9 156.192C457.313 156.584 457.639 157.093 457.878 157.719C458.116 158.342 458.236 159.098 458.236 159.989V160.666H450.431V159.234H456.363C456.363 158.732 456.26 158.286 456.056 157.898C455.851 157.506 455.564 157.197 455.193 156.972C454.826 156.746 454.396 156.633 453.902 156.633C453.365 156.633 452.896 156.765 452.495 157.029C452.099 157.289 451.792 157.63 451.575 158.052C451.362 158.469 451.255 158.923 451.255 159.413V160.532C451.255 161.188 451.37 161.746 451.601 162.207C451.835 162.667 452.161 163.018 452.579 163.261C452.996 163.5 453.484 163.619 454.042 163.619C454.405 163.619 454.735 163.568 455.033 163.466C455.331 163.359 455.589 163.202 455.807 162.993C456.024 162.784 456.19 162.526 456.305 162.219L458.114 162.545C457.969 163.078 457.709 163.545 457.334 163.945C456.964 164.342 456.497 164.651 455.934 164.872C455.376 165.089 454.739 165.198 454.023 165.198ZM463.213 165.217C462.591 165.217 462.029 165.102 461.526 164.872C461.023 164.638 460.625 164.299 460.331 163.856C460.041 163.413 459.896 162.869 459.896 162.226C459.896 161.672 460.002 161.216 460.215 160.858C460.429 160.5 460.716 160.217 461.078 160.008C461.441 159.799 461.845 159.641 462.293 159.535C462.74 159.428 463.196 159.347 463.661 159.292C464.249 159.224 464.726 159.168 465.093 159.126C465.459 159.079 465.725 159.004 465.892 158.902C466.058 158.8 466.141 158.634 466.141 158.403V158.359C466.141 157.8 465.983 157.368 465.668 157.061C465.357 156.754 464.892 156.601 464.274 156.601C463.631 156.601 463.124 156.744 462.753 157.029C462.387 157.31 462.133 157.624 461.992 157.969L460.196 157.56C460.409 156.963 460.72 156.482 461.13 156.115C461.543 155.744 462.018 155.476 462.555 155.31C463.092 155.139 463.657 155.054 464.249 155.054C464.641 155.054 465.056 155.101 465.495 155.195C465.938 155.284 466.352 155.45 466.735 155.693C467.123 155.936 467.441 156.283 467.688 156.735C467.935 157.183 468.059 157.764 468.059 158.48V165H466.192V163.658H466.115C465.992 163.905 465.806 164.148 465.559 164.386C465.312 164.625 464.995 164.823 464.607 164.981C464.219 165.138 463.755 165.217 463.213 165.217ZM463.629 163.683C464.157 163.683 464.609 163.579 464.984 163.37C465.363 163.161 465.651 162.888 465.847 162.552C466.047 162.211 466.147 161.847 466.147 161.459V160.193C466.079 160.261 465.947 160.325 465.751 160.385C465.559 160.44 465.34 160.489 465.093 160.532C464.845 160.57 464.605 160.607 464.37 160.641C464.136 160.67 463.94 160.696 463.782 160.717C463.411 160.764 463.073 160.843 462.766 160.954C462.463 161.065 462.22 161.224 462.037 161.433C461.858 161.638 461.769 161.911 461.769 162.251C461.769 162.724 461.943 163.082 462.293 163.325C462.642 163.564 463.088 163.683 463.629 163.683ZM474.28 165.192C473.487 165.192 472.78 164.989 472.157 164.585C471.54 164.175 471.054 163.594 470.7 162.839C470.351 162.081 470.176 161.171 470.176 160.11C470.176 159.049 470.353 158.141 470.706 157.387C471.064 156.633 471.554 156.055 472.177 155.655C472.799 155.254 473.504 155.054 474.292 155.054C474.902 155.054 475.392 155.156 475.763 155.361C476.138 155.561 476.427 155.795 476.632 156.064C476.841 156.332 477.003 156.569 477.118 156.773H477.233V151.909H479.144V165H477.277V163.472H477.118C477.003 163.681 476.836 163.92 476.619 164.188C476.406 164.457 476.112 164.691 475.737 164.891C475.362 165.092 474.876 165.192 474.28 165.192ZM474.701 163.562C475.251 163.562 475.716 163.417 476.095 163.127C476.478 162.833 476.768 162.426 476.964 161.906C477.165 161.386 477.265 160.781 477.265 160.091C477.265 159.409 477.167 158.812 476.971 158.301C476.775 157.79 476.487 157.391 476.108 157.106C475.728 156.82 475.26 156.678 474.701 156.678C474.126 156.678 473.647 156.827 473.263 157.125C472.88 157.423 472.59 157.83 472.394 158.346C472.202 158.862 472.106 159.443 472.106 160.091C472.106 160.747 472.204 161.337 472.4 161.862C472.596 162.386 472.886 162.801 473.27 163.108C473.657 163.411 474.135 163.562 474.701 163.562ZM488.5 168.682V163.472H488.385C488.27 163.681 488.104 163.92 487.887 164.188C487.674 164.457 487.38 164.691 487.005 164.891C486.63 165.092 486.144 165.192 485.547 165.192C484.755 165.192 484.047 164.989 483.425 164.585C482.807 164.175 482.321 163.594 481.968 162.839C481.618 162.081 481.443 161.171 481.443 160.11C481.443 159.049 481.62 158.141 481.974 157.387C482.332 156.633 482.822 156.055 483.444 155.655C484.066 155.254 484.772 155.054 485.56 155.054C486.169 155.054 486.659 155.156 487.03 155.361C487.405 155.561 487.695 155.795 487.899 156.064C488.108 156.332 488.27 156.569 488.385 156.773H488.545V155.182H490.411V168.682H488.5ZM485.969 163.562C486.519 163.562 486.983 163.417 487.362 163.127C487.746 162.833 488.036 162.426 488.232 161.906C488.432 161.386 488.532 160.781 488.532 160.091C488.532 159.409 488.434 158.812 488.238 158.301C488.042 157.79 487.755 157.391 487.375 157.106C486.996 156.82 486.527 156.678 485.969 156.678C485.394 156.678 484.914 156.827 484.531 157.125C484.147 157.423 483.858 157.83 483.661 158.346C483.47 158.862 483.374 159.443 483.374 160.091C483.374 160.747 483.472 161.337 483.668 161.862C483.864 162.386 484.154 162.801 484.537 163.108C484.925 163.411 485.402 163.562 485.969 163.562ZM499.201 160.928V155.182H501.118V165H499.239V163.3H499.137C498.911 163.824 498.549 164.261 498.05 164.61C497.556 164.955 496.94 165.128 496.203 165.128C495.572 165.128 495.014 164.989 494.528 164.712C494.046 164.431 493.667 164.016 493.39 163.466C493.117 162.916 492.981 162.237 492.981 161.427V155.182H494.892V161.197C494.892 161.866 495.078 162.398 495.448 162.795C495.819 163.191 496.301 163.389 496.893 163.389C497.251 163.389 497.607 163.3 497.96 163.121C498.318 162.942 498.615 162.671 498.849 162.309C499.088 161.947 499.205 161.487 499.201 160.928ZM506.543 165.217C505.921 165.217 505.359 165.102 504.856 164.872C504.353 164.638 503.955 164.299 503.661 163.856C503.371 163.413 503.226 162.869 503.226 162.226C503.226 161.672 503.332 161.216 503.546 160.858C503.759 160.5 504.046 160.217 504.408 160.008C504.771 159.799 505.176 159.641 505.623 159.535C506.07 159.428 506.526 159.347 506.991 159.292C507.579 159.224 508.056 159.168 508.423 159.126C508.789 159.079 509.055 159.004 509.222 158.902C509.388 158.8 509.471 158.634 509.471 158.403V158.359C509.471 157.8 509.313 157.368 508.998 157.061C508.687 156.754 508.222 156.601 507.604 156.601C506.961 156.601 506.454 156.744 506.083 157.029C505.717 157.31 505.463 157.624 505.323 157.969L503.526 157.56C503.739 156.963 504.051 156.482 504.46 156.115C504.873 155.744 505.348 155.476 505.885 155.31C506.422 155.139 506.987 155.054 507.579 155.054C507.971 155.054 508.386 155.101 508.825 155.195C509.269 155.284 509.682 155.45 510.065 155.693C510.453 155.936 510.771 156.283 511.018 156.735C511.265 157.183 511.389 157.764 511.389 158.48V165H509.522V163.658H509.445C509.322 163.905 509.136 164.148 508.889 164.386C508.642 164.625 508.325 164.823 507.937 164.981C507.549 165.138 507.085 165.217 506.543 165.217ZM506.959 163.683C507.487 163.683 507.939 163.579 508.314 163.37C508.693 163.161 508.981 162.888 509.177 162.552C509.377 162.211 509.477 161.847 509.477 161.459V160.193C509.409 160.261 509.277 160.325 509.081 160.385C508.889 160.44 508.67 160.489 508.423 160.532C508.176 160.57 507.935 160.607 507.7 160.641C507.466 160.67 507.27 160.696 507.112 160.717C506.742 160.764 506.403 160.843 506.096 160.954C505.793 161.065 505.551 161.224 505.367 161.433C505.188 161.638 505.099 161.911 505.099 162.251C505.099 162.724 505.274 163.082 505.623 163.325C505.972 163.564 506.418 163.683 506.959 163.683ZM513.934 165V155.182H515.782V156.741H515.884C516.063 156.213 516.378 155.798 516.83 155.495C517.286 155.188 517.801 155.035 518.377 155.035C518.496 155.035 518.637 155.039 518.799 155.048C518.965 155.056 519.095 155.067 519.188 155.08V156.908C519.112 156.886 518.975 156.863 518.779 156.837C518.583 156.808 518.387 156.793 518.191 156.793C517.74 156.793 517.337 156.888 516.983 157.08C516.634 157.268 516.357 157.53 516.152 157.866C515.948 158.199 515.845 158.578 515.845 159.004V165H513.934ZM526.006 155.182V156.716H520.643V155.182H526.006ZM522.081 152.83H523.992V162.117C523.992 162.488 524.047 162.767 524.158 162.955C524.269 163.138 524.412 163.263 524.587 163.332C524.766 163.396 524.959 163.428 525.168 163.428C525.322 163.428 525.456 163.417 525.571 163.396C525.686 163.374 525.775 163.357 525.839 163.344L526.185 164.923C526.074 164.966 525.916 165.009 525.712 165.051C525.507 165.098 525.251 165.124 524.945 165.128C524.442 165.136 523.973 165.047 523.538 164.859C523.104 164.672 522.752 164.382 522.484 163.99C522.215 163.598 522.081 163.106 522.081 162.513V152.83ZM532.246 165.198C531.278 165.198 530.445 164.991 529.747 164.578C529.052 164.161 528.515 163.575 528.136 162.82C527.761 162.062 527.573 161.173 527.573 160.155C527.573 159.149 527.761 158.263 528.136 157.496C528.515 156.729 529.043 156.13 529.721 155.7C530.403 155.269 531.2 155.054 532.112 155.054C532.666 155.054 533.203 155.146 533.722 155.329C534.242 155.512 534.709 155.8 535.122 156.192C535.536 156.584 535.862 157.093 536.1 157.719C536.339 158.342 536.458 159.098 536.458 159.989V160.666H528.653V159.234H534.585C534.585 158.732 534.483 158.286 534.278 157.898C534.074 157.506 533.786 157.197 533.416 156.972C533.049 156.746 532.619 156.633 532.124 156.633C531.587 156.633 531.119 156.765 530.718 157.029C530.322 157.289 530.015 157.63 529.798 158.052C529.585 158.469 529.478 158.923 529.478 159.413V160.532C529.478 161.188 529.593 161.746 529.823 162.207C530.058 162.667 530.384 163.018 530.801 163.261C531.219 163.5 531.707 163.619 532.265 163.619C532.627 163.619 532.957 163.568 533.256 163.466C533.554 163.359 533.812 163.202 534.029 162.993C534.247 162.784 534.413 162.526 534.528 162.219L536.337 162.545C536.192 163.078 535.932 163.545 535.557 163.945C535.186 164.342 534.72 164.651 534.157 164.872C533.599 165.089 532.962 165.198 532.246 165.198ZM538.579 165V155.182H540.426V156.741H540.528C540.707 156.213 541.023 155.798 541.474 155.495C541.93 155.188 542.446 155.035 543.021 155.035C543.141 155.035 543.281 155.039 543.443 155.048C543.609 155.056 543.739 155.067 543.833 155.08V156.908C543.756 156.886 543.62 156.863 543.424 156.837C543.228 156.808 543.032 156.793 542.836 156.793C542.384 156.793 541.981 156.888 541.628 157.08C541.278 157.268 541.001 157.53 540.797 157.866C540.592 158.199 540.49 158.578 540.49 159.004V165H538.579ZM552.844 157.579L551.112 157.886C551.04 157.664 550.924 157.453 550.767 157.253C550.613 157.053 550.405 156.888 550.14 156.761C549.876 156.633 549.546 156.569 549.15 156.569C548.608 156.569 548.157 156.69 547.794 156.933C547.432 157.172 547.251 157.481 547.251 157.86C547.251 158.188 547.373 158.452 547.616 158.653C547.858 158.853 548.25 159.017 548.792 159.145L550.351 159.503C551.255 159.712 551.928 160.033 552.371 160.468C552.814 160.903 553.036 161.467 553.036 162.162C553.036 162.75 552.866 163.274 552.525 163.734C552.188 164.19 551.717 164.548 551.112 164.808C550.511 165.068 549.814 165.198 549.022 165.198C547.922 165.198 547.025 164.964 546.331 164.495C545.636 164.022 545.21 163.351 545.052 162.482L546.9 162.2C547.015 162.682 547.251 163.046 547.609 163.293C547.967 163.536 548.434 163.658 549.009 163.658C549.635 163.658 550.136 163.528 550.511 163.268C550.886 163.004 551.074 162.682 551.074 162.303C551.074 161.996 550.959 161.738 550.728 161.529C550.503 161.32 550.155 161.163 549.687 161.056L548.025 160.692C547.108 160.483 546.431 160.151 545.992 159.695C545.557 159.239 545.34 158.661 545.34 157.962C545.34 157.383 545.502 156.876 545.826 156.441C546.15 156.006 546.597 155.668 547.168 155.425C547.739 155.178 548.393 155.054 549.13 155.054C550.191 155.054 551.027 155.284 551.636 155.744C552.245 156.2 552.648 156.812 552.844 157.579Z" fill="black"/>
<circle cx="494.4" cy="61.4" r="32.4" fill="#01345C"/>
<path d="M500.448 60.8076C500.448 60.4554 500.308 60.1176 500.059 59.8685C499.81 59.6194 499.472 59.4795 499.12 59.4795C498.767 59.4795 498.429 59.6194 498.18 59.8685C497.931 60.1176 497.791 60.4554 497.791 60.8076V64.3493C497.791 64.7015 497.931 65.0393 498.18 65.2884C498.429 65.5375 498.767 65.6774 499.12 65.6774C499.472 65.6774 499.81 65.5375 500.059 65.2884C500.308 65.0393 500.448 64.7015 500.448 64.3493V60.8076ZM493.807 59.4795C494.159 59.4795 494.497 59.6194 494.746 59.8685C494.995 60.1176 495.135 60.4554 495.135 60.8076V64.3493C495.135 64.7015 494.995 65.0393 494.746 65.2884C494.497 65.5375 494.159 65.6774 493.807 65.6774C493.455 65.6774 493.117 65.5375 492.868 65.2884C492.619 65.0393 492.479 64.7015 492.479 64.3493V60.8076C492.479 60.4554 492.619 60.1176 492.868 59.8685C493.117 59.6194 493.455 59.4795 493.807 59.4795ZM489.823 60.8076C489.823 60.4554 489.683 60.1176 489.434 59.8685C489.185 59.6194 488.847 59.4795 488.495 59.4795C488.142 59.4795 487.804 59.6194 487.555 59.8685C487.306 60.1176 487.166 60.4554 487.166 60.8076V64.3493C487.166 64.7015 487.306 65.0393 487.555 65.2884C487.804 65.5375 488.142 65.6774 488.495 65.6774C488.847 65.6774 489.185 65.5375 489.434 65.2884C489.683 65.0393 489.823 64.7015 489.823 64.3493V60.8076ZM483.182 67.4482C483.534 67.4482 483.872 67.5882 484.121 67.8372C484.37 68.0863 484.51 68.4241 484.51 68.7764V73.2034C484.51 73.5557 484.37 73.8935 484.121 74.1426C483.872 74.3916 483.534 74.5316 483.182 74.5316C482.83 74.5316 482.492 74.3916 482.243 74.1426C481.994 73.8935 481.854 73.5557 481.854 73.2034V68.7764C481.854 68.4241 481.994 68.0863 482.243 67.8372C482.492 67.5882 482.83 67.4482 483.182 67.4482ZM506.646 68.7764C506.646 68.4241 506.506 68.0863 506.257 67.8372C506.007 67.5882 505.67 67.4482 505.317 67.4482C504.965 67.4482 504.627 67.5882 504.378 67.8372C504.129 68.0863 503.989 68.4241 503.989 68.7764V73.2034C503.989 73.5557 504.129 73.8935 504.378 74.1426C504.627 74.3916 504.965 74.5316 505.317 74.5316C505.67 74.5316 506.007 74.3916 506.257 74.1426C506.506 73.8935 506.646 73.5557 506.646 73.2034V68.7764ZM493.807 43.542H500.448C500.682 43.542 500.908 43.6353 501.074 43.8013C501.24 43.9674 501.333 44.1926 501.333 44.4274V47.9691C501.333 48.2039 501.24 48.4291 501.074 48.5952C500.908 48.7612 500.682 48.8545 500.448 48.8545H495.135V50.6572C498.261 50.8811 501.187 52.2809 503.322 54.575C505.458 56.869 506.645 59.8869 506.646 63.0212H507.974C509.03 63.0212 510.044 63.4409 510.791 64.1882C511.538 64.9354 511.958 65.9488 511.958 67.0055V77.6305C511.958 77.9828 511.818 78.3206 511.569 78.5697C511.32 78.8187 510.982 78.9587 510.63 78.9587H477.87C477.517 78.9587 477.179 78.8187 476.93 78.5697C476.681 78.3206 476.541 77.9828 476.541 77.6305V67.0055C476.541 65.9488 476.961 64.9354 477.708 64.1882C478.456 63.4409 479.469 63.0212 480.526 63.0212H481.854C481.853 60.0398 482.927 57.1581 484.878 54.9042C486.83 52.6503 489.528 51.1752 492.479 50.7493V44.8701C492.479 44.5179 492.619 44.1801 492.868 43.931C493.117 43.6819 493.455 43.542 493.807 43.542ZM494.25 53.2816C491.667 53.2816 489.189 54.3077 487.363 56.1342C485.536 57.9608 484.51 60.4381 484.51 63.0212V64.3493C484.51 64.7015 484.37 65.0393 484.121 65.2884C483.872 65.5375 483.534 65.6774 483.182 65.6774H480.526C480.174 65.6774 479.836 65.8173 479.587 66.0664C479.338 66.3155 479.198 66.6533 479.198 67.0055V76.3024H489.823V71.4326C489.823 71.0804 489.963 70.7426 490.212 70.4935C490.461 70.2444 490.799 70.1045 491.151 70.1045H497.349C497.701 70.1045 498.039 70.2444 498.288 70.4935C498.537 70.7426 498.677 71.0804 498.677 71.4326V76.3024H509.302V67.0055C509.302 66.6533 509.162 66.3155 508.913 66.0664C508.664 65.8173 508.326 65.6774 507.974 65.6774H505.317C504.965 65.6774 504.627 65.5375 504.378 65.2884C504.129 65.0393 503.989 64.7015 503.989 64.3493V63.0212C503.989 60.4381 502.963 57.9608 501.137 56.1342C499.31 54.3077 496.833 53.2816 494.25 53.2816ZM496.021 72.7607H492.479V76.3024H496.021V72.7607Z" fill="white"/>
<path d="M645.514 165V151.909H653.722V153.609H647.49V157.598H653.294V159.292H647.49V163.3H653.798V165H645.514ZM656.207 165V155.182H658.041V156.78H658.163C658.367 156.239 658.702 155.817 659.166 155.514C659.631 155.207 660.187 155.054 660.835 155.054C661.491 155.054 662.04 155.207 662.484 155.514C662.931 155.821 663.261 156.243 663.474 156.78H663.577C663.811 156.256 664.184 155.838 664.695 155.527C665.207 155.212 665.816 155.054 666.523 155.054C667.414 155.054 668.141 155.333 668.703 155.891C669.27 156.45 669.553 157.291 669.553 158.416V165H667.642V158.595C667.642 157.93 667.461 157.449 667.099 157.151C666.737 156.852 666.304 156.703 665.801 156.703C665.179 156.703 664.695 156.895 664.35 157.278C664.005 157.658 663.832 158.146 663.832 158.742V165H661.928V158.474C661.928 157.941 661.761 157.513 661.429 157.189C661.097 156.865 660.664 156.703 660.131 156.703C659.769 156.703 659.435 156.799 659.128 156.991C658.825 157.178 658.58 157.44 658.393 157.777C658.21 158.114 658.118 158.504 658.118 158.947V165H656.207ZM672.115 168.682V155.182H673.981V156.773H674.141C674.252 156.569 674.412 156.332 674.621 156.064C674.829 155.795 675.119 155.561 675.49 155.361C675.861 155.156 676.351 155.054 676.96 155.054C677.753 155.054 678.46 155.254 679.082 155.655C679.704 156.055 680.192 156.633 680.546 157.387C680.904 158.141 681.083 159.049 681.083 160.11C681.083 161.171 680.906 162.081 680.552 162.839C680.199 163.594 679.713 164.175 679.095 164.585C678.477 164.989 677.772 165.192 676.979 165.192C676.383 165.192 675.895 165.092 675.515 164.891C675.14 164.691 674.846 164.457 674.633 164.188C674.42 163.92 674.256 163.681 674.141 163.472H674.026V168.682H672.115ZM673.988 160.091C673.988 160.781 674.088 161.386 674.288 161.906C674.488 162.426 674.778 162.833 675.157 163.127C675.537 163.417 676.001 163.562 676.551 163.562C677.122 163.562 677.599 163.411 677.983 163.108C678.366 162.801 678.656 162.386 678.852 161.862C679.052 161.337 679.153 160.747 679.153 160.091C679.153 159.443 679.055 158.862 678.858 158.346C678.667 157.83 678.377 157.423 677.989 157.125C677.606 156.827 677.126 156.678 676.551 156.678C675.997 156.678 675.528 156.82 675.145 157.106C674.765 157.391 674.478 157.79 674.282 158.301C674.086 158.812 673.988 159.409 673.988 160.091ZM685.135 151.909V165H683.224V151.909H685.135ZM691.842 165.198C690.922 165.198 690.119 164.987 689.433 164.565C688.746 164.143 688.214 163.553 687.835 162.795C687.455 162.036 687.266 161.15 687.266 160.136C687.266 159.117 687.455 158.227 687.835 157.464C688.214 156.701 688.746 156.109 689.433 155.687C690.119 155.265 690.922 155.054 691.842 155.054C692.763 155.054 693.566 155.265 694.252 155.687C694.938 156.109 695.471 156.701 695.85 157.464C696.229 158.227 696.419 159.117 696.419 160.136C696.419 161.15 696.229 162.036 695.85 162.795C695.471 163.553 694.938 164.143 694.252 164.565C693.566 164.987 692.763 165.198 691.842 165.198ZM691.849 163.594C692.445 163.594 692.94 163.436 693.332 163.121C693.724 162.805 694.013 162.386 694.201 161.862C694.393 161.337 694.489 160.76 694.489 160.129C694.489 159.503 694.393 158.928 694.201 158.403C694.013 157.875 693.724 157.451 693.332 157.131C692.94 156.812 692.445 156.652 691.849 156.652C691.248 156.652 690.749 156.812 690.353 157.131C689.961 157.451 689.669 157.875 689.477 158.403C689.29 158.928 689.196 159.503 689.196 160.129C689.196 160.76 689.29 161.337 689.477 161.862C689.669 162.386 689.961 162.805 690.353 163.121C690.749 163.436 691.248 163.594 691.849 163.594ZM699.426 168.682C699.141 168.682 698.881 168.658 698.647 168.612C698.412 168.569 698.238 168.522 698.123 168.471L698.583 166.905C698.932 166.999 699.243 167.039 699.516 167.026C699.789 167.013 700.029 166.911 700.238 166.719C700.451 166.528 700.639 166.214 700.801 165.78L701.037 165.128L697.445 155.182H699.49L701.977 162.801H702.079L704.566 155.182H706.618L702.571 166.31C702.384 166.822 702.145 167.254 701.855 167.608C701.566 167.966 701.221 168.234 700.82 168.413C700.419 168.592 699.955 168.682 699.426 168.682ZM712.311 165.198C711.344 165.198 710.511 164.991 709.812 164.578C709.117 164.161 708.58 163.575 708.201 162.82C707.826 162.062 707.639 161.173 707.639 160.155C707.639 159.149 707.826 158.263 708.201 157.496C708.58 156.729 709.109 156.13 709.786 155.7C710.468 155.269 711.265 155.054 712.177 155.054C712.731 155.054 713.268 155.146 713.788 155.329C714.308 155.512 714.774 155.8 715.188 156.192C715.601 156.584 715.927 157.093 716.166 157.719C716.404 158.342 716.524 159.098 716.524 159.989V160.666H708.719V159.234H714.651C714.651 158.732 714.548 158.286 714.344 157.898C714.139 157.506 713.852 157.197 713.481 156.972C713.115 156.746 712.684 156.633 712.19 156.633C711.653 156.633 711.184 156.765 710.784 157.029C710.387 157.289 710.08 157.63 709.863 158.052C709.65 158.469 709.544 158.923 709.544 159.413V160.532C709.544 161.188 709.659 161.746 709.889 162.207C710.123 162.667 710.449 163.018 710.867 163.261C711.284 163.5 711.772 163.619 712.33 163.619C712.693 163.619 713.023 163.568 713.321 163.466C713.619 163.359 713.877 163.202 714.095 162.993C714.312 162.784 714.478 162.526 714.593 162.219L716.402 162.545C716.257 163.078 715.997 163.545 715.622 163.945C715.252 164.342 714.785 164.651 714.222 164.872C713.664 165.089 713.027 165.198 712.311 165.198ZM722.876 165.198C721.908 165.198 721.075 164.991 720.376 164.578C719.682 164.161 719.145 163.575 718.766 162.82C718.391 162.062 718.203 161.173 718.203 160.155C718.203 159.149 718.391 158.263 718.766 157.496C719.145 156.729 719.673 156.13 720.351 155.7C721.033 155.269 721.83 155.054 722.741 155.054C723.295 155.054 723.832 155.146 724.352 155.329C724.872 155.512 725.339 155.8 725.752 156.192C726.165 156.584 726.491 157.093 726.73 157.719C726.969 158.342 727.088 159.098 727.088 159.989V160.666H719.283V159.234H725.215C725.215 158.732 725.113 158.286 724.908 157.898C724.704 157.506 724.416 157.197 724.045 156.972C723.679 156.746 723.249 156.633 722.754 156.633C722.217 156.633 721.749 156.765 721.348 157.029C720.952 157.289 720.645 157.63 720.428 158.052C720.214 158.469 720.108 158.923 720.108 159.413V160.532C720.108 161.188 720.223 161.746 720.453 162.207C720.688 162.667 721.013 163.018 721.431 163.261C721.849 163.5 722.337 163.619 722.895 163.619C723.257 163.619 723.587 163.568 723.886 163.466C724.184 163.359 724.442 163.202 724.659 162.993C724.876 162.784 725.043 162.526 725.158 162.219L726.967 162.545C726.822 163.078 726.562 163.545 726.187 163.945C725.816 164.342 725.349 164.651 724.787 164.872C724.229 165.089 723.592 165.198 722.876 165.198ZM658.106 179.579L656.374 179.886C656.301 179.664 656.186 179.453 656.028 179.253C655.875 179.053 655.666 178.888 655.402 178.761C655.138 178.633 654.808 178.569 654.411 178.569C653.87 178.569 653.418 178.69 653.056 178.933C652.694 179.172 652.513 179.481 652.513 179.86C652.513 180.188 652.634 180.452 652.877 180.653C653.12 180.853 653.512 181.017 654.053 181.145L655.613 181.503C656.516 181.712 657.19 182.033 657.633 182.468C658.076 182.903 658.298 183.467 658.298 184.162C658.298 184.75 658.127 185.274 657.786 185.734C657.45 186.19 656.979 186.548 656.374 186.808C655.773 187.068 655.076 187.198 654.283 187.198C653.184 187.198 652.287 186.964 651.592 186.495C650.898 186.022 650.472 185.351 650.314 184.482L652.161 184.2C652.276 184.682 652.513 185.046 652.871 185.293C653.229 185.536 653.695 185.658 654.271 185.658C654.897 185.658 655.398 185.528 655.773 185.268C656.148 185.004 656.335 184.682 656.335 184.303C656.335 183.996 656.22 183.738 655.99 183.529C655.764 183.32 655.417 183.163 654.948 183.056L653.286 182.692C652.37 182.483 651.693 182.151 651.254 181.695C650.819 181.239 650.602 180.661 650.602 179.962C650.602 179.383 650.764 178.876 651.087 178.441C651.411 178.006 651.859 177.668 652.43 177.425C653.001 177.178 653.655 177.054 654.392 177.054C655.453 177.054 656.288 177.284 656.898 177.744C657.507 178.2 657.91 178.812 658.106 179.579ZM664.982 177.182V178.716H659.619V177.182H664.982ZM661.057 174.83H662.969V184.117C662.969 184.488 663.024 184.767 663.135 184.955C663.246 185.138 663.388 185.263 663.563 185.332C663.742 185.396 663.936 185.428 664.145 185.428C664.298 185.428 664.432 185.417 664.547 185.396C664.663 185.374 664.752 185.357 664.816 185.344L665.161 186.923C665.05 186.966 664.893 187.009 664.688 187.051C664.484 187.098 664.228 187.124 663.921 187.128C663.418 187.136 662.949 187.047 662.515 186.859C662.08 186.672 661.729 186.382 661.46 185.99C661.192 185.598 661.057 185.106 661.057 184.513V174.83ZM667.096 187V177.182H668.944V178.741H669.046C669.225 178.213 669.54 177.798 669.992 177.495C670.448 177.188 670.964 177.035 671.539 177.035C671.658 177.035 671.799 177.039 671.961 177.048C672.127 177.056 672.257 177.067 672.351 177.08V178.908C672.274 178.886 672.138 178.863 671.941 178.837C671.745 178.808 671.549 178.793 671.353 178.793C670.902 178.793 670.499 178.888 670.145 179.08C669.796 179.268 669.519 179.53 669.314 179.866C669.11 180.199 669.008 180.578 669.008 181.004V187H667.096ZM677.884 187.198C676.917 187.198 676.084 186.991 675.385 186.578C674.691 186.161 674.154 185.575 673.774 184.82C673.399 184.062 673.212 183.173 673.212 182.155C673.212 181.149 673.399 180.263 673.774 179.496C674.154 178.729 674.682 178.13 675.36 177.7C676.041 177.269 676.838 177.054 677.75 177.054C678.304 177.054 678.841 177.146 679.361 177.329C679.881 177.512 680.348 177.8 680.761 178.192C681.174 178.584 681.5 179.093 681.739 179.719C681.978 180.342 682.097 181.098 682.097 181.989V182.666H674.292V181.234H680.224C680.224 180.732 680.122 180.286 679.917 179.898C679.713 179.506 679.425 179.197 679.054 178.972C678.688 178.746 678.257 178.633 677.763 178.633C677.226 178.633 676.757 178.765 676.357 179.029C675.96 179.289 675.654 179.63 675.436 180.052C675.223 180.469 675.117 180.923 675.117 181.413V182.532C675.117 183.188 675.232 183.746 675.462 184.207C675.696 184.667 676.022 185.018 676.44 185.261C676.858 185.5 677.345 185.619 677.904 185.619C678.266 185.619 678.596 185.568 678.894 185.466C679.193 185.359 679.451 185.202 679.668 184.993C679.885 184.784 680.051 184.526 680.166 184.219L681.975 184.545C681.831 185.078 681.571 185.545 681.196 185.945C680.825 186.342 680.358 186.651 679.796 186.872C679.237 187.089 678.6 187.198 677.884 187.198ZM686.129 181.17V187H684.217V177.182H686.052V178.78H686.173C686.399 178.26 686.753 177.842 687.234 177.527C687.72 177.212 688.332 177.054 689.069 177.054C689.738 177.054 690.324 177.195 690.827 177.476C691.33 177.753 691.72 178.166 691.997 178.716C692.274 179.266 692.412 179.945 692.412 180.755V187H690.501V180.985C690.501 180.273 690.315 179.717 689.945 179.317C689.574 178.912 689.065 178.71 688.417 178.71C687.974 178.71 687.58 178.805 687.234 178.997C686.894 179.189 686.623 179.47 686.423 179.841C686.227 180.207 686.129 180.651 686.129 181.17ZM699.092 190.886C698.312 190.886 697.641 190.784 697.078 190.58C696.52 190.375 696.064 190.104 695.71 189.768C695.357 189.431 695.092 189.063 694.918 188.662L696.56 187.984C696.676 188.172 696.829 188.37 697.021 188.579C697.217 188.792 697.481 188.973 697.813 189.122C698.15 189.271 698.582 189.346 699.111 189.346C699.835 189.346 700.434 189.169 700.907 188.815C701.38 188.466 701.617 187.908 701.617 187.141V185.21H701.495C701.38 185.419 701.214 185.651 700.997 185.907C700.783 186.163 700.489 186.384 700.114 186.572C699.739 186.759 699.252 186.853 698.651 186.853C697.875 186.853 697.176 186.672 696.554 186.31C695.936 185.943 695.446 185.404 695.084 184.692C694.726 183.977 694.547 183.097 694.547 182.053C694.547 181.009 694.724 180.114 695.078 179.368C695.435 178.622 695.926 178.051 696.548 177.655C697.17 177.254 697.875 177.054 698.663 177.054C699.273 177.054 699.765 177.156 700.14 177.361C700.515 177.561 700.807 177.795 701.016 178.064C701.229 178.332 701.393 178.569 701.508 178.773H701.649V177.182H703.521V187.217C703.521 188.061 703.325 188.754 702.933 189.295C702.541 189.836 702.011 190.237 701.342 190.496C700.677 190.756 699.927 190.886 699.092 190.886ZM699.073 185.268C699.622 185.268 700.087 185.14 700.466 184.884C700.85 184.624 701.139 184.254 701.335 183.772C701.536 183.286 701.636 182.705 701.636 182.027C701.636 181.366 701.538 180.785 701.342 180.282C701.146 179.779 700.858 179.387 700.479 179.106C700.1 178.82 699.631 178.678 699.073 178.678C698.497 178.678 698.018 178.827 697.634 179.125C697.251 179.419 696.961 179.82 696.765 180.327C696.573 180.834 696.477 181.401 696.477 182.027C696.477 182.67 696.575 183.235 696.771 183.721C696.967 184.207 697.257 184.586 697.641 184.859C698.028 185.131 698.506 185.268 699.073 185.268ZM710.668 177.182V178.716H705.305V177.182H710.668ZM706.743 174.83H708.654V184.117C708.654 184.488 708.71 184.767 708.82 184.955C708.931 185.138 709.074 185.263 709.249 185.332C709.428 185.396 709.622 185.428 709.83 185.428C709.984 185.428 710.118 185.417 710.233 185.396C710.348 185.374 710.438 185.357 710.502 185.344L710.847 186.923C710.736 186.966 710.578 187.009 710.374 187.051C710.169 187.098 709.913 187.124 709.607 187.128C709.104 187.136 708.635 187.047 708.2 186.859C707.766 186.672 707.414 186.382 707.146 185.99C706.877 185.598 706.743 185.106 706.743 184.513V174.83ZM714.904 181.17V187H712.993V173.909H714.878V178.78H715C715.23 178.251 715.582 177.832 716.055 177.521C716.528 177.21 717.146 177.054 717.908 177.054C718.582 177.054 719.17 177.192 719.672 177.469C720.18 177.746 720.572 178.16 720.849 178.71C721.13 179.255 721.271 179.937 721.271 180.755V187H719.359V180.985C719.359 180.265 719.174 179.707 718.803 179.31C718.432 178.91 717.917 178.71 717.256 178.71C716.805 178.71 716.4 178.805 716.042 178.997C715.688 179.189 715.409 179.47 715.204 179.841C715.004 180.207 714.904 180.651 714.904 181.17Z" fill="black"/>
<circle cx="686.4" cy="61.4" r="32.4" fill="#01345C"/>
<mask id="path-13-inside-1_123_1215" fill="white">
<path d="M691.189 56.6966C692.095 56.6966 692.963 57.0564 693.604 57.6969C694.244 58.3373 694.604 59.206 694.604 60.1117V69.5968C694.604 71.8113 693.724 73.9351 692.159 75.501C690.593 77.0669 688.469 77.9466 686.254 77.9466C684.04 77.9466 681.916 77.0669 680.35 75.501C678.784 73.9351 677.905 71.8113 677.905 69.5968V60.1117C677.905 59.206 678.264 58.3373 678.905 57.6969C679.545 57.0564 680.414 56.6966 681.32 56.6966H691.189ZM691.189 58.9734H681.32C681.018 58.9734 680.728 59.0933 680.515 59.3068C680.301 59.5203 680.181 59.8098 680.181 60.1117V69.5968C680.181 71.2075 680.821 72.7522 681.96 73.8911C683.099 75.03 684.644 75.6698 686.254 75.6698C687.865 75.6698 689.41 75.03 690.549 73.8911C691.687 72.7522 692.327 71.2075 692.327 69.5968V60.1117C692.327 59.8098 692.207 59.5203 691.994 59.3068C691.78 59.0933 691.491 58.9734 691.189 58.9734ZM671.451 56.6966H677.759C677.149 57.3309 676.721 58.1172 676.519 58.9734H671.451C671.149 58.9734 670.859 59.0933 670.646 59.3068C670.432 59.5203 670.312 59.8098 670.312 60.1117V68.079C670.312 68.8407 670.502 69.5904 670.866 70.2595C671.231 70.9285 671.757 71.4955 672.397 71.9086C673.037 72.3216 673.77 72.5675 674.53 72.6237C675.29 72.6799 676.051 72.5447 676.745 72.2303C676.947 72.9741 677.237 73.6814 677.601 74.3432C676.561 74.7976 675.424 74.9858 674.294 74.8907C673.163 74.7956 672.073 74.4202 671.124 73.7985C670.174 73.1768 669.395 72.3282 668.856 71.3297C668.317 70.3311 668.035 69.2139 668.036 68.079V60.1117C668.036 59.206 668.395 58.3373 669.036 57.6969C669.676 57.0564 670.545 56.6966 671.451 56.6966ZM701.049 56.6966C701.955 56.6966 702.823 57.0564 703.464 57.6969C704.104 58.3373 704.464 59.206 704.464 60.1117V68.0805C704.465 69.2146 704.183 70.3309 703.644 71.3288C703.105 72.3267 702.326 73.1747 701.377 73.7963C700.429 74.4179 699.34 74.7935 698.21 74.8892C697.08 74.985 695.944 74.7978 694.905 74.3447L694.99 74.1899C695.314 73.5736 695.577 72.9194 695.765 72.2334C696.459 72.5454 697.219 72.6788 697.978 72.6214C698.736 72.5639 699.468 72.3175 700.106 71.9045C700.745 71.4916 701.27 70.9253 701.633 70.2573C701.997 69.5893 702.187 68.841 702.187 68.0805V60.1117C702.187 59.8101 702.068 59.5208 701.854 59.3073C701.641 59.0939 701.352 58.9738 701.05 58.9734H695.991C695.789 58.117 695.36 57.3307 694.75 56.6966H701.049ZM686.25 44.5537C686.947 44.5537 687.638 44.6911 688.283 44.9581C688.927 45.2251 689.513 45.6164 690.006 46.1097C690.5 46.603 690.891 47.1887 691.158 47.8332C691.425 48.4777 691.562 49.1686 691.562 49.8662C691.562 50.5639 691.425 51.2547 691.158 51.8992C690.891 52.5438 690.5 53.1294 690.006 53.6227C689.513 54.116 688.927 54.5073 688.283 54.7743C687.638 55.0413 686.947 55.1787 686.25 55.1787C684.841 55.1787 683.49 54.619 682.493 53.6227C681.497 52.6264 680.937 51.2752 680.937 49.8662C680.937 48.4572 681.497 47.106 682.493 46.1097C683.49 45.1134 684.841 44.5537 686.25 44.5537ZM698.397 46.0716C698.995 46.0716 699.587 46.1893 700.14 46.4182C700.692 46.647 701.194 46.9824 701.617 47.4053C702.04 47.8281 702.375 48.3301 702.604 48.8826C702.833 49.435 702.951 50.0272 702.951 50.6251C702.951 51.2231 702.833 51.8153 702.604 52.3677C702.375 52.9202 702.04 53.4222 701.617 53.845C701.194 54.2678 700.692 54.6033 700.14 54.8321C699.587 55.0609 698.995 55.1787 698.397 55.1787C697.19 55.1787 696.031 54.699 695.177 53.845C694.323 52.991 693.844 51.8328 693.844 50.6251C693.844 49.4175 694.323 48.2592 695.177 47.4053C696.031 46.5513 697.19 46.0716 698.397 46.0716ZM674.102 46.0716C674.7 46.0716 675.293 46.1893 675.845 46.4182C676.397 46.647 676.899 46.9824 677.322 47.4053C677.745 47.8281 678.081 48.3301 678.309 48.8826C678.538 49.435 678.656 50.0272 678.656 50.6251C678.656 51.2231 678.538 51.8153 678.309 52.3677C678.081 52.9202 677.745 53.4222 677.322 53.845C676.899 54.2678 676.397 54.6033 675.845 54.8321C675.293 55.0609 674.7 55.1787 674.102 55.1787C672.895 55.1787 671.736 54.699 670.883 53.845C670.029 52.991 669.549 51.8328 669.549 50.6251C669.549 49.4175 670.029 48.2592 670.883 47.4053C671.736 46.5513 672.895 46.0716 674.102 46.0716ZM686.25 46.8305C685.445 46.8305 684.673 47.1503 684.103 47.7196C683.534 48.2889 683.214 49.0611 683.214 49.8662C683.214 50.6713 683.534 51.4435 684.103 52.0128C684.673 52.5821 685.445 52.9019 686.25 52.9019C687.055 52.9019 687.827 52.5821 688.396 52.0128C688.966 51.4435 689.286 50.6713 689.286 49.8662C689.286 49.0611 688.966 48.2889 688.396 47.7196C687.827 47.1503 687.055 46.8305 686.25 46.8305ZM698.397 48.3484C698.098 48.3484 697.802 48.4072 697.526 48.5217C697.25 48.6361 696.999 48.8038 696.787 49.0152C696.576 49.2266 696.408 49.4776 696.294 49.7539C696.179 50.0301 696.12 50.3261 696.12 50.6251C696.12 50.9241 696.179 51.2202 696.294 51.4964C696.408 51.7727 696.576 52.0237 696.787 52.2351C696.999 52.4465 697.25 52.6142 697.526 52.7286C697.802 52.843 698.098 52.9019 698.397 52.9019C699.001 52.9019 699.58 52.6621 700.007 52.2351C700.434 51.8081 700.674 51.229 700.674 50.6251C700.674 50.0213 700.434 49.4422 700.007 49.0152C699.58 48.5882 699.001 48.3484 698.397 48.3484ZM674.102 48.3484C673.803 48.3484 673.507 48.4072 673.231 48.5217C672.955 48.6361 672.704 48.8038 672.492 49.0152C672.281 49.2266 672.113 49.4776 671.999 49.7539C671.885 50.0301 671.826 50.3261 671.826 50.6251C671.826 50.9241 671.885 51.2202 671.999 51.4964C672.113 51.7727 672.281 52.0237 672.492 52.2351C672.704 52.4465 672.955 52.6142 673.231 52.7286C673.507 52.843 673.803 52.9019 674.102 52.9019C674.706 52.9019 675.285 52.6621 675.712 52.2351C676.139 51.8081 676.379 51.229 676.379 50.6251C676.379 50.0213 676.139 49.4422 675.712 49.0152C675.285 48.5882 674.706 48.3484 674.102 48.3484Z"/>
</mask>
<path d="M691.189 56.6966C692.095 56.6966 692.963 57.0564 693.604 57.6969C694.244 58.3373 694.604 59.206 694.604 60.1117V69.5968C694.604 71.8113 693.724 73.9351 692.159 75.501C690.593 77.0669 688.469 77.9466 686.254 77.9466C684.04 77.9466 681.916 77.0669 680.35 75.501C678.784 73.9351 677.905 71.8113 677.905 69.5968V60.1117C677.905 59.206 678.264 58.3373 678.905 57.6969C679.545 57.0564 680.414 56.6966 681.32 56.6966H691.189ZM691.189 58.9734H681.32C681.018 58.9734 680.728 59.0933 680.515 59.3068C680.301 59.5203 680.181 59.8098 680.181 60.1117V69.5968C680.181 71.2075 680.821 72.7522 681.96 73.8911C683.099 75.03 684.644 75.6698 686.254 75.6698C687.865 75.6698 689.41 75.03 690.549 73.8911C691.687 72.7522 692.327 71.2075 692.327 69.5968V60.1117C692.327 59.8098 692.207 59.5203 691.994 59.3068C691.78 59.0933 691.491 58.9734 691.189 58.9734ZM671.451 56.6966H677.759C677.149 57.3309 676.721 58.1172 676.519 58.9734H671.451C671.149 58.9734 670.859 59.0933 670.646 59.3068C670.432 59.5203 670.312 59.8098 670.312 60.1117V68.079C670.312 68.8407 670.502 69.5904 670.866 70.2595C671.231 70.9285 671.757 71.4955 672.397 71.9086C673.037 72.3216 673.77 72.5675 674.53 72.6237C675.29 72.6799 676.051 72.5447 676.745 72.2303C676.947 72.9741 677.237 73.6814 677.601 74.3432C676.561 74.7976 675.424 74.9858 674.294 74.8907C673.163 74.7956 672.073 74.4202 671.124 73.7985C670.174 73.1768 669.395 72.3282 668.856 71.3297C668.317 70.3311 668.035 69.2139 668.036 68.079V60.1117C668.036 59.206 668.395 58.3373 669.036 57.6969C669.676 57.0564 670.545 56.6966 671.451 56.6966ZM701.049 56.6966C701.955 56.6966 702.823 57.0564 703.464 57.6969C704.104 58.3373 704.464 59.206 704.464 60.1117V68.0805C704.465 69.2146 704.183 70.3309 703.644 71.3288C703.105 72.3267 702.326 73.1747 701.377 73.7963C700.429 74.4179 699.34 74.7935 698.21 74.8892C697.08 74.985 695.944 74.7978 694.905 74.3447L694.99 74.1899C695.314 73.5736 695.577 72.9194 695.765 72.2334C696.459 72.5454 697.219 72.6788 697.978 72.6214C698.736 72.5639 699.468 72.3175 700.106 71.9045C700.745 71.4916 701.27 70.9253 701.633 70.2573C701.997 69.5893 702.187 68.841 702.187 68.0805V60.1117C702.187 59.8101 702.068 59.5208 701.854 59.3073C701.641 59.0939 701.352 58.9738 701.05 58.9734H695.991C695.789 58.117 695.36 57.3307 694.75 56.6966H701.049ZM686.25 44.5537C686.947 44.5537 687.638 44.6911 688.283 44.9581C688.927 45.2251 689.513 45.6164 690.006 46.1097C690.5 46.603 690.891 47.1887 691.158 47.8332C691.425 48.4777 691.562 49.1686 691.562 49.8662C691.562 50.5639 691.425 51.2547 691.158 51.8992C690.891 52.5438 690.5 53.1294 690.006 53.6227C689.513 54.116 688.927 54.5073 688.283 54.7743C687.638 55.0413 686.947 55.1787 686.25 55.1787C684.841 55.1787 683.49 54.619 682.493 53.6227C681.497 52.6264 680.937 51.2752 680.937 49.8662C680.937 48.4572 681.497 47.106 682.493 46.1097C683.49 45.1134 684.841 44.5537 686.25 44.5537ZM698.397 46.0716C698.995 46.0716 699.587 46.1893 700.14 46.4182C700.692 46.647 701.194 46.9824 701.617 47.4053C702.04 47.8281 702.375 48.3301 702.604 48.8826C702.833 49.435 702.951 50.0272 702.951 50.6251C702.951 51.2231 702.833 51.8153 702.604 52.3677C702.375 52.9202 702.04 53.4222 701.617 53.845C701.194 54.2678 700.692 54.6033 700.14 54.8321C699.587 55.0609 698.995 55.1787 698.397 55.1787C697.19 55.1787 696.031 54.699 695.177 53.845C694.323 52.991 693.844 51.8328 693.844 50.6251C693.844 49.4175 694.323 48.2592 695.177 47.4053C696.031 46.5513 697.19 46.0716 698.397 46.0716ZM674.102 46.0716C674.7 46.0716 675.293 46.1893 675.845 46.4182C676.397 46.647 676.899 46.9824 677.322 47.4053C677.745 47.8281 678.081 48.3301 678.309 48.8826C678.538 49.435 678.656 50.0272 678.656 50.6251C678.656 51.2231 678.538 51.8153 678.309 52.3677C678.081 52.9202 677.745 53.4222 677.322 53.845C676.899 54.2678 676.397 54.6033 675.845 54.8321C675.293 55.0609 674.7 55.1787 674.102 55.1787C672.895 55.1787 671.736 54.699 670.883 53.845C670.029 52.991 669.549 51.8328 669.549 50.6251C669.549 49.4175 670.029 48.2592 670.883 47.4053C671.736 46.5513 672.895 46.0716 674.102 46.0716ZM686.25 46.8305C685.445 46.8305 684.673 47.1503 684.103 47.7196C683.534 48.2889 683.214 49.0611 683.214 49.8662C683.214 50.6713 683.534 51.4435 684.103 52.0128C684.673 52.5821 685.445 52.9019 686.25 52.9019C687.055 52.9019 687.827 52.5821 688.396 52.0128C688.966 51.4435 689.286 50.6713 689.286 49.8662C689.286 49.0611 688.966 48.2889 688.396 47.7196C687.827 47.1503 687.055 46.8305 686.25 46.8305ZM698.397 48.3484C698.098 48.3484 697.802 48.4072 697.526 48.5217C697.25 48.6361 696.999 48.8038 696.787 49.0152C696.576 49.2266 696.408 49.4776 696.294 49.7539C696.179 50.0301 696.12 50.3261 696.12 50.6251C696.12 50.9241 696.179 51.2202 696.294 51.4964C696.408 51.7727 696.576 52.0237 696.787 52.2351C696.999 52.4465 697.25 52.6142 697.526 52.7286C697.802 52.843 698.098 52.9019 698.397 52.9019C699.001 52.9019 699.58 52.6621 700.007 52.2351C700.434 51.8081 700.674 51.229 700.674 50.6251C700.674 50.0213 700.434 49.4422 700.007 49.0152C699.58 48.5882 699.001 48.3484 698.397 48.3484ZM674.102 48.3484C673.803 48.3484 673.507 48.4072 673.231 48.5217C672.955 48.6361 672.704 48.8038 672.492 49.0152C672.281 49.2266 672.113 49.4776 671.999 49.7539C671.885 50.0301 671.826 50.3261 671.826 50.6251C671.826 50.9241 671.885 51.2202 671.999 51.4964C672.113 51.7727 672.281 52.0237 672.492 52.2351C672.704 52.4465 672.955 52.6142 673.231 52.7286C673.507 52.843 673.803 52.9019 674.102 52.9019C674.706 52.9019 675.285 52.6621 675.712 52.2351C676.139 51.8081 676.379 51.229 676.379 50.6251C676.379 50.0213 676.139 49.4422 675.712 49.0152C675.285 48.5882 674.706 48.3484 674.102 48.3484Z" fill="white" stroke="white" stroke-width="6" mask="url(#path-13-inside-1_123_1215)"/>
<path d="M849.344 151.909H851.741L855.909 162.085H856.062L860.23 151.909H862.627V165H860.748V155.527H860.626L856.766 164.981H855.206L851.345 155.521H851.224V165H849.344V151.909ZM868.203 165.217C867.58 165.217 867.018 165.102 866.515 164.872C866.012 164.638 865.614 164.299 865.32 163.856C865.03 163.413 864.885 162.869 864.885 162.226C864.885 161.672 864.992 161.216 865.205 160.858C865.418 160.5 865.705 160.217 866.068 160.008C866.43 159.799 866.835 159.641 867.282 159.535C867.73 159.428 868.186 159.347 868.65 159.292C869.238 159.224 869.715 159.168 870.082 159.126C870.448 159.079 870.715 159.004 870.881 158.902C871.047 158.8 871.13 158.634 871.13 158.403V158.359C871.13 157.8 870.972 157.368 870.657 157.061C870.346 156.754 869.882 156.601 869.264 156.601C868.62 156.601 868.113 156.744 867.742 157.029C867.376 157.31 867.122 157.624 866.982 157.969L865.186 157.56C865.399 156.963 865.71 156.482 866.119 156.115C866.532 155.744 867.007 155.476 867.544 155.31C868.081 155.139 868.646 155.054 869.238 155.054C869.63 155.054 870.046 155.101 870.485 155.195C870.928 155.284 871.341 155.45 871.725 155.693C872.112 155.936 872.43 156.283 872.677 156.735C872.924 157.183 873.048 157.764 873.048 158.48V165H871.181V163.658H871.105C870.981 163.905 870.796 164.148 870.548 164.386C870.301 164.625 869.984 164.823 869.596 164.981C869.208 165.138 868.744 165.217 868.203 165.217ZM868.618 163.683C869.146 163.683 869.598 163.579 869.973 163.37C870.352 163.161 870.64 162.888 870.836 162.552C871.036 162.211 871.137 161.847 871.137 161.459V160.193C871.068 160.261 870.936 160.325 870.74 160.385C870.548 160.44 870.329 160.489 870.082 160.532C869.835 160.57 869.594 160.607 869.36 160.641C869.125 160.67 868.929 160.696 868.771 160.717C868.401 160.764 868.062 160.843 867.755 160.954C867.453 161.065 867.21 161.224 867.026 161.433C866.847 161.638 866.758 161.911 866.758 162.251C866.758 162.724 866.933 163.082 867.282 163.325C867.632 163.564 868.077 163.683 868.618 163.683ZM875.593 165V155.182H877.441V156.741H877.543C877.722 156.213 878.037 155.798 878.489 155.495C878.945 155.188 879.461 155.035 880.036 155.035C880.155 155.035 880.296 155.039 880.458 155.048C880.624 155.056 880.754 155.067 880.848 155.08V156.908C880.771 156.886 880.635 156.863 880.439 156.837C880.243 156.808 880.047 156.793 879.85 156.793C879.399 156.793 878.996 156.888 878.642 157.08C878.293 157.268 878.016 157.53 877.811 157.866C877.607 158.199 877.505 158.578 877.505 159.004V165H875.593ZM884.259 161.67L884.247 159.337H884.579L888.491 155.182H890.779L886.318 159.912H886.017L884.259 161.67ZM882.502 165V151.909H884.413V165H882.502ZM888.702 165L885.186 160.334L886.503 158.998L891.048 165H888.702ZM896.348 165.198C895.381 165.198 894.548 164.991 893.849 164.578C893.154 164.161 892.618 163.575 892.238 162.82C891.863 162.062 891.676 161.173 891.676 160.155C891.676 159.149 891.863 158.263 892.238 157.496C892.618 156.729 893.146 156.13 893.824 155.7C894.505 155.269 895.302 155.054 896.214 155.054C896.768 155.054 897.305 155.146 897.825 155.329C898.345 155.512 898.811 155.8 899.225 156.192C899.638 156.584 899.964 157.093 900.203 157.719C900.441 158.342 900.561 159.098 900.561 159.989V160.666H892.756V159.234H898.688C898.688 158.732 898.586 158.286 898.381 157.898C898.176 157.506 897.889 157.197 897.518 156.972C897.152 156.746 896.721 156.633 896.227 156.633C895.69 156.633 895.221 156.765 894.821 157.029C894.424 157.289 894.118 157.63 893.9 158.052C893.687 158.469 893.581 158.923 893.581 159.413V160.532C893.581 161.188 893.696 161.746 893.926 162.207C894.16 162.667 894.486 163.018 894.904 163.261C895.321 163.5 895.809 163.619 896.368 163.619C896.73 163.619 897.06 163.568 897.358 163.466C897.657 163.359 897.914 163.202 898.132 162.993C898.349 162.784 898.515 162.526 898.63 162.219L900.439 162.545C900.294 163.078 900.034 163.545 899.659 163.945C899.289 164.342 898.822 164.651 898.26 164.872C897.701 165.089 897.064 165.198 896.348 165.198ZM907.264 155.182V156.716H901.901V155.182H907.264ZM903.34 152.83H905.251V162.117C905.251 162.488 905.306 162.767 905.417 162.955C905.528 163.138 905.671 163.263 905.845 163.332C906.024 163.396 906.218 163.428 906.427 163.428C906.58 163.428 906.715 163.417 906.83 163.396C906.945 163.374 907.034 163.357 907.098 163.344L907.443 164.923C907.333 164.966 907.175 165.009 906.97 165.051C906.766 165.098 906.51 165.124 906.203 165.128C905.7 165.136 905.232 165.047 904.797 164.859C904.362 164.672 904.011 164.382 903.742 163.99C903.474 163.598 903.34 163.106 903.34 162.513V152.83ZM839.295 190.682V177.182H841.161V178.773H841.321C841.432 178.569 841.591 178.332 841.8 178.064C842.009 177.795 842.299 177.561 842.67 177.361C843.04 177.156 843.53 177.054 844.14 177.054C844.932 177.054 845.64 177.254 846.262 177.655C846.884 178.055 847.372 178.633 847.726 179.387C848.084 180.141 848.263 181.049 848.263 182.11C848.263 183.171 848.086 184.081 847.732 184.839C847.378 185.594 846.893 186.175 846.275 186.585C845.657 186.989 844.952 187.192 844.159 187.192C843.562 187.192 843.074 187.092 842.695 186.891C842.32 186.691 842.026 186.457 841.813 186.188C841.6 185.92 841.436 185.681 841.321 185.472H841.206V190.682H839.295ZM841.167 182.091C841.167 182.781 841.268 183.386 841.468 183.906C841.668 184.426 841.958 184.833 842.337 185.127C842.716 185.417 843.181 185.562 843.731 185.562C844.302 185.562 844.779 185.411 845.162 185.108C845.546 184.801 845.836 184.386 846.032 183.862C846.232 183.337 846.332 182.747 846.332 182.091C846.332 181.443 846.234 180.862 846.038 180.346C845.846 179.83 845.557 179.423 845.169 179.125C844.785 178.827 844.306 178.678 843.731 178.678C843.177 178.678 842.708 178.82 842.324 179.106C841.945 179.391 841.657 179.79 841.461 180.301C841.265 180.812 841.167 181.409 841.167 182.091ZM850.404 187V177.182H852.251V178.741H852.354C852.532 178.213 852.848 177.798 853.3 177.495C853.756 177.188 854.271 177.035 854.846 177.035C854.966 177.035 855.106 177.039 855.268 177.048C855.434 177.056 855.564 177.067 855.658 177.08V178.908C855.581 178.886 855.445 178.863 855.249 178.837C855.053 178.808 854.857 178.793 854.661 178.793C854.209 178.793 853.807 178.888 853.453 179.08C853.104 179.268 852.827 179.53 852.622 179.866C852.417 180.199 852.315 180.578 852.315 181.004V187H850.404ZM861.192 187.198C860.225 187.198 859.392 186.991 858.693 186.578C857.998 186.161 857.461 185.575 857.082 184.82C856.707 184.062 856.52 183.173 856.52 182.155C856.52 181.149 856.707 180.263 857.082 179.496C857.461 178.729 857.99 178.13 858.667 177.7C859.349 177.269 860.146 177.054 861.058 177.054C861.612 177.054 862.149 177.146 862.669 177.329C863.189 177.512 863.655 177.8 864.069 178.192C864.482 178.584 864.808 179.093 865.047 179.719C865.285 180.342 865.404 181.098 865.404 181.989V182.666H857.6V181.234H863.532C863.532 180.732 863.429 180.286 863.225 179.898C863.02 179.506 862.733 179.197 862.362 178.972C861.995 178.746 861.565 178.633 861.071 178.633C860.534 178.633 860.065 178.765 859.664 179.029C859.268 179.289 858.961 179.63 858.744 180.052C858.531 180.469 858.424 180.923 858.424 181.413V182.532C858.424 183.188 858.539 183.746 858.77 184.207C859.004 184.667 859.33 185.018 859.748 185.261C860.165 185.5 860.653 185.619 861.211 185.619C861.574 185.619 861.904 185.568 862.202 185.466C862.5 185.359 862.758 185.202 862.975 184.993C863.193 184.784 863.359 184.526 863.474 184.219L865.283 184.545C865.138 185.078 864.878 185.545 864.503 185.945C864.132 186.342 863.666 186.651 863.103 186.872C862.545 187.089 861.908 187.198 861.192 187.198ZM874.882 179.579L873.15 179.886C873.078 179.664 872.963 179.453 872.805 179.253C872.651 179.053 872.443 178.888 872.178 178.761C871.914 178.633 871.584 178.569 871.188 178.569C870.646 178.569 870.195 178.69 869.833 178.933C869.47 179.172 869.289 179.481 869.289 179.86C869.289 180.188 869.411 180.452 869.654 180.653C869.896 180.853 870.289 181.017 870.83 181.145L872.389 181.503C873.293 181.712 873.966 182.033 874.409 182.468C874.852 182.903 875.074 183.467 875.074 184.162C875.074 184.75 874.904 185.274 874.563 185.734C874.226 186.19 873.755 186.548 873.15 186.808C872.549 187.068 871.852 187.198 871.06 187.198C869.96 187.198 869.063 186.964 868.369 186.495C867.674 186.022 867.248 185.351 867.09 184.482L868.938 184.2C869.053 184.682 869.289 185.046 869.647 185.293C870.005 185.536 870.472 185.658 871.047 185.658C871.673 185.658 872.174 185.528 872.549 185.268C872.924 185.004 873.112 184.682 873.112 184.303C873.112 183.996 872.997 183.738 872.767 183.529C872.541 183.32 872.193 183.163 871.725 183.056L870.063 182.692C869.146 182.483 868.469 182.151 868.03 181.695C867.595 181.239 867.378 180.661 867.378 179.962C867.378 179.383 867.54 178.876 867.864 178.441C868.188 178.006 868.635 177.668 869.206 177.425C869.777 177.178 870.431 177.054 871.169 177.054C872.23 177.054 873.065 177.284 873.674 177.744C874.284 178.2 874.686 178.812 874.882 179.579ZM881.407 187.198C880.44 187.198 879.607 186.991 878.908 186.578C878.213 186.161 877.676 185.575 877.297 184.82C876.922 184.062 876.734 183.173 876.734 182.155C876.734 181.149 876.922 180.263 877.297 179.496C877.676 178.729 878.205 178.13 878.882 177.7C879.564 177.269 880.361 177.054 881.273 177.054C881.827 177.054 882.364 177.146 882.884 177.329C883.403 177.512 883.87 177.8 884.283 178.192C884.697 178.584 885.023 179.093 885.261 179.719C885.5 180.342 885.619 181.098 885.619 181.989V182.666H877.815V181.234H883.746C883.746 180.732 883.644 180.286 883.44 179.898C883.235 179.506 882.947 179.197 882.577 178.972C882.21 178.746 881.78 178.633 881.286 178.633C880.749 178.633 880.28 178.765 879.879 179.029C879.483 179.289 879.176 179.63 878.959 180.052C878.746 180.469 878.639 180.923 878.639 181.413V182.532C878.639 183.188 878.754 183.746 878.984 184.207C879.219 184.667 879.545 185.018 879.962 185.261C880.38 185.5 880.868 185.619 881.426 185.619C881.788 185.619 882.119 185.568 882.417 185.466C882.715 185.359 882.973 185.202 883.19 184.993C883.408 184.784 883.574 184.526 883.689 184.219L885.498 184.545C885.353 185.078 885.093 185.545 884.718 185.945C884.347 186.342 883.881 186.651 883.318 186.872C882.76 187.089 882.123 187.198 881.407 187.198ZM889.651 181.17V187H887.74V177.182H889.574V178.78H889.696C889.922 178.26 890.275 177.842 890.757 177.527C891.243 177.212 891.854 177.054 892.591 177.054C893.26 177.054 893.846 177.195 894.349 177.476C894.852 177.753 895.242 178.166 895.519 178.716C895.796 179.266 895.934 179.945 895.934 180.755V187H894.023V180.985C894.023 180.273 893.838 179.717 893.467 179.317C893.096 178.912 892.587 178.71 891.939 178.71C891.496 178.71 891.102 178.805 890.757 178.997C890.416 179.189 890.145 179.47 889.945 179.841C889.749 180.207 889.651 180.651 889.651 181.17ZM902.633 187.198C901.683 187.198 900.865 186.983 900.179 186.553C899.497 186.118 898.973 185.519 898.606 184.756C898.24 183.994 898.057 183.12 898.057 182.136C898.057 181.138 898.244 180.259 898.619 179.496C898.994 178.729 899.523 178.13 900.204 177.7C900.886 177.269 901.689 177.054 902.614 177.054C903.36 177.054 904.025 177.192 904.608 177.469C905.192 177.742 905.663 178.126 906.021 178.62C906.383 179.114 906.599 179.692 906.667 180.352H904.807C904.704 179.892 904.47 179.496 904.104 179.163C903.741 178.831 903.256 178.665 902.646 178.665C902.113 178.665 901.647 178.805 901.246 179.087C900.85 179.364 900.541 179.76 900.319 180.276C900.098 180.787 899.987 181.392 899.987 182.091C899.987 182.807 900.096 183.425 900.313 183.945C900.53 184.464 900.837 184.867 901.233 185.153C901.634 185.438 902.105 185.581 902.646 185.581C903.008 185.581 903.336 185.515 903.631 185.383C903.929 185.246 904.178 185.053 904.378 184.801C904.583 184.55 904.726 184.247 904.807 183.893H906.667C906.599 184.528 906.392 185.095 906.047 185.594C905.702 186.092 905.239 186.484 904.66 186.77C904.084 187.055 903.409 187.198 902.633 187.198ZM912.942 187.198C911.975 187.198 911.142 186.991 910.443 186.578C909.748 186.161 909.211 185.575 908.832 184.82C908.457 184.062 908.27 183.173 908.27 182.155C908.27 181.149 908.457 180.263 908.832 179.496C909.211 178.729 909.74 178.13 910.417 177.7C911.099 177.269 911.896 177.054 912.808 177.054C913.362 177.054 913.899 177.146 914.419 177.329C914.939 177.512 915.405 177.8 915.819 178.192C916.232 178.584 916.558 179.093 916.797 179.719C917.035 180.342 917.154 181.098 917.154 181.989V182.666H909.35V181.234H915.282C915.282 180.732 915.179 180.286 914.975 179.898C914.77 179.506 914.483 179.197 914.112 178.972C913.745 178.746 913.315 178.633 912.821 178.633C912.284 178.633 911.815 178.765 911.414 179.029C911.018 179.289 910.711 179.63 910.494 180.052C910.281 180.469 910.174 180.923 910.174 181.413V182.532C910.174 183.188 910.289 183.746 910.52 184.207C910.754 184.667 911.08 185.018 911.498 185.261C911.915 185.5 912.403 185.619 912.961 185.619C913.324 185.619 913.654 185.568 913.952 185.466C914.25 185.359 914.508 185.202 914.725 184.993C914.943 184.784 915.109 184.526 915.224 184.219L917.033 184.545C916.888 185.078 916.628 185.545 916.253 185.945C915.882 186.342 915.416 186.651 914.853 186.872C914.295 187.089 913.658 187.198 912.942 187.198Z" fill="black"/>
<circle cx="878.4" cy="61.4" r="32.4" fill="#01345C"/>
<path d="M894.63 61.2503C894.63 56.906 892.904 52.7397 889.832 49.6678C886.761 46.5959 882.594 44.8701 878.25 44.8701M894.63 61.2503H861.87M894.63 61.2503C894.63 65.5946 892.904 69.761 889.832 72.8329C886.761 75.9048 882.594 77.6305 878.25 77.6305M878.25 44.8701C873.906 44.8701 869.739 46.5959 866.667 49.6678C863.595 52.7397 861.87 56.906 861.87 61.2503M878.25 44.8701C877.364 44.8701 871.167 52.2031 871.167 61.2503C871.167 70.2975 877.364 77.6305 878.25 77.6305M878.25 44.8701C879.135 44.8701 885.333 52.2031 885.333 61.2503C885.333 70.2975 879.135 77.6305 878.25 77.6305M861.87 61.2503C861.87 65.5946 863.595 69.761 866.667 72.8329C869.739 75.9048 873.906 77.6305 878.25 77.6305" stroke="white" stroke-width="3" stroke-linecap="round" stroke-linejoin="round"/>
</svg>
