<svg width="983" height="228" viewBox="0 0 983 228" fill="none" xmlns="http://www.w3.org/2000/svg">
<rect width="983" height="228" fill="white"/>
<path d="M64.3308 175V161.909H68.997C70.0112 161.909 70.8528 162.084 71.5218 162.433C72.1951 162.783 72.698 163.266 73.0304 163.884C73.3627 164.498 73.5289 165.207 73.5289 166.013C73.5289 166.814 73.3606 167.519 73.024 168.129C72.6916 168.734 72.1887 169.205 71.5154 169.541C70.8464 169.878 70.0048 170.046 68.9906 170.046H65.4558V168.346H68.8116C69.4508 168.346 69.9707 168.254 70.3713 168.071C70.7761 167.888 71.0723 167.621 71.2598 167.272C71.4473 166.923 71.541 166.503 71.541 166.013C71.541 165.518 71.4451 165.09 71.2534 164.728C71.0659 164.366 70.7697 164.089 70.3649 163.897C69.9643 163.701 69.438 163.603 68.786 163.603H66.3059V175H64.3308ZM70.7931 169.094L74.0275 175H71.7775L68.6071 169.094H70.7931ZM79.8874 175.198C78.9201 175.198 78.087 174.991 77.3881 174.578C76.6935 174.161 76.1566 173.575 75.7773 172.82C75.4023 172.062 75.2148 171.173 75.2148 170.155C75.2148 169.149 75.4023 168.263 75.7773 167.496C76.1566 166.729 76.685 166.13 77.3626 165.7C78.0444 165.269 78.8413 165.054 79.7532 165.054C80.3072 165.054 80.8441 165.146 81.364 165.329C81.8839 165.512 82.3505 165.8 82.7638 166.192C83.1772 166.584 83.5032 167.093 83.7418 167.719C83.9805 168.342 84.0998 169.098 84.0998 169.989V170.666H76.2951V169.234H82.2269C82.2269 168.732 82.1246 168.286 81.9201 167.898C81.7156 167.506 81.4279 167.197 81.0572 166.972C80.6907 166.746 80.2603 166.633 79.766 166.633C79.229 166.633 78.7603 166.765 78.3597 167.029C77.9634 167.289 77.6566 167.63 77.4393 168.052C77.2262 168.469 77.1197 168.923 77.1197 169.413V170.532C77.1197 171.188 77.2347 171.746 77.4648 172.207C77.6992 172.667 78.0252 173.018 78.4428 173.261C78.8604 173.5 79.3484 173.619 79.9066 173.619C80.2688 173.619 80.5991 173.568 80.8974 173.466C81.1957 173.359 81.4535 173.202 81.6708 172.993C81.8881 172.784 82.0543 172.526 82.1694 172.219L83.9783 172.545C83.8335 173.078 83.5735 173.545 83.1985 173.945C82.8278 174.342 82.3612 174.651 81.7987 174.872C81.2404 175.089 80.6033 175.198 79.8874 175.198ZM94.3382 165.182L90.7779 175H88.7324L85.1657 165.182H87.2175L89.704 172.737H89.8063L92.2864 165.182H94.3382ZM100.032 175.198C99.0646 175.198 98.2315 174.991 97.5327 174.578C96.8381 174.161 96.3011 173.575 95.9219 172.82C95.5469 172.062 95.3594 171.173 95.3594 170.155C95.3594 169.149 95.5469 168.263 95.9219 167.496C96.3011 166.729 96.8295 166.13 97.5071 165.7C98.1889 165.269 98.9858 165.054 99.8977 165.054C100.452 165.054 100.989 165.146 101.509 165.329C102.028 165.512 102.495 165.8 102.908 166.192C103.322 166.584 103.648 167.093 103.886 167.719C104.125 168.342 104.244 169.098 104.244 169.989V170.666H96.4396V169.234H102.371C102.371 168.732 102.269 168.286 102.065 167.898C101.86 167.506 101.572 167.197 101.202 166.972C100.835 166.746 100.405 166.633 99.9105 166.633C99.3736 166.633 98.9048 166.765 98.5043 167.029C98.108 167.289 97.8011 167.63 97.5838 168.052C97.3707 168.469 97.2642 168.923 97.2642 169.413V170.532C97.2642 171.188 97.3793 171.746 97.6094 172.207C97.8438 172.667 98.1697 173.018 98.5874 173.261C99.005 173.5 99.4929 173.619 100.051 173.619C100.413 173.619 100.744 173.568 101.042 173.466C101.34 173.359 101.598 173.202 101.815 172.993C102.033 172.784 102.199 172.526 102.314 172.219L104.123 172.545C103.978 173.078 103.718 173.545 103.343 173.945C102.972 174.342 102.506 174.651 101.943 174.872C101.385 175.089 100.748 175.198 100.032 175.198ZM108.276 169.17V175H106.365V165.182H108.199V166.78H108.321C108.547 166.26 108.9 165.842 109.382 165.527C109.868 165.212 110.479 165.054 111.216 165.054C111.885 165.054 112.471 165.195 112.974 165.476C113.477 165.753 113.867 166.166 114.144 166.716C114.421 167.266 114.559 167.945 114.559 168.755V175H112.648V168.985C112.648 168.273 112.463 167.717 112.092 167.317C111.721 166.912 111.212 166.71 110.564 166.71C110.121 166.71 109.727 166.805 109.382 166.997C109.041 167.189 108.77 167.47 108.57 167.841C108.374 168.207 108.276 168.651 108.276 169.17ZM123.342 170.928V165.182H125.26V175H123.381V173.3H123.278C123.052 173.824 122.69 174.261 122.192 174.61C121.697 174.955 121.081 175.128 120.344 175.128C119.714 175.128 119.155 174.989 118.67 174.712C118.188 174.431 117.809 174.016 117.532 173.466C117.259 172.916 117.123 172.237 117.123 171.427V165.182H119.034V171.197C119.034 171.866 119.219 172.398 119.59 172.795C119.961 173.191 120.442 173.389 121.035 173.389C121.393 173.389 121.748 173.3 122.102 173.121C122.46 172.942 122.756 172.671 122.991 172.309C123.229 171.947 123.346 171.487 123.342 170.928ZM132.059 175.198C131.092 175.198 130.259 174.991 129.56 174.578C128.865 174.161 128.328 173.575 127.949 172.82C127.574 172.062 127.387 171.173 127.387 170.155C127.387 169.149 127.574 168.263 127.949 167.496C128.328 166.729 128.857 166.13 129.534 165.7C130.216 165.269 131.013 165.054 131.925 165.054C132.479 165.054 133.016 165.146 133.536 165.329C134.056 165.512 134.522 165.8 134.936 166.192C135.349 166.584 135.675 167.093 135.914 167.719C136.152 168.342 136.272 169.098 136.272 169.989V170.666H128.467V169.234H134.399C134.399 168.732 134.297 168.286 134.092 167.898C133.887 167.506 133.6 167.197 133.229 166.972C132.863 166.746 132.432 166.633 131.938 166.633C131.401 166.633 130.932 166.765 130.532 167.029C130.135 167.289 129.828 167.63 129.611 168.052C129.398 168.469 129.292 168.923 129.292 169.413V170.532C129.292 171.188 129.407 171.746 129.637 172.207C129.871 172.667 130.197 173.018 130.615 173.261C131.032 173.5 131.52 173.619 132.078 173.619C132.441 173.619 132.771 173.568 133.069 173.466C133.368 173.359 133.625 173.202 133.843 172.993C134.06 172.784 134.226 172.526 134.341 172.219L136.15 172.545C136.005 173.078 135.745 173.545 135.37 173.945C135 174.342 134.533 174.651 133.971 174.872C133.412 175.089 132.775 175.198 132.059 175.198ZM59.1436 190.455C59.1436 188.852 59.3546 187.378 59.7765 186.031C60.1983 184.685 60.8141 183.442 61.6238 182.305H63.3752C63.0598 182.727 62.7658 183.244 62.4931 183.858C62.2203 184.472 61.9817 185.145 61.7772 185.878C61.5726 186.607 61.4128 187.363 61.2978 188.147C61.1827 188.927 61.1252 189.696 61.1252 190.455C61.1252 191.469 61.2253 192.496 61.4256 193.536C61.6259 194.575 61.8965 195.54 62.2374 196.431C62.5783 197.322 62.9576 198.048 63.3752 198.611H61.6238C60.8141 197.473 60.1983 196.231 59.7765 194.884C59.3546 193.538 59.1436 192.061 59.1436 190.455ZM69.4045 198.636V182.273H70.4528V198.636H69.4045ZM72.6836 187.348C72.6154 186.743 72.3342 186.274 71.8398 185.942C71.3455 185.605 70.7234 185.437 69.9734 185.437C69.4364 185.437 68.9719 185.522 68.5799 185.692C68.1879 185.859 67.8832 186.089 67.6658 186.383C67.4528 186.673 67.3462 187.003 67.3462 187.374C67.3462 187.685 67.4187 187.953 67.5636 188.179C67.7127 188.405 67.9066 188.594 68.1452 188.748C68.3881 188.897 68.6481 189.023 68.9251 189.125C69.2021 189.223 69.4684 189.304 69.7241 189.368L71.0025 189.7C71.4201 189.803 71.8484 189.941 72.2873 190.116C72.7262 190.29 73.1332 190.521 73.5082 190.806C73.8832 191.092 74.1857 191.445 74.4158 191.867C74.6502 192.289 74.7674 192.794 74.7674 193.382C74.7674 194.124 74.5756 194.782 74.1921 195.357C73.8129 195.933 73.261 196.386 72.5366 196.719C71.8164 197.051 70.945 197.217 69.9222 197.217C68.9421 197.217 68.0941 197.062 67.3782 196.751C66.6623 196.44 66.1019 195.999 65.6971 195.428C65.2923 194.852 65.0685 194.17 65.0259 193.382H67.0075C67.0458 193.855 67.1992 194.249 67.4677 194.565C67.7404 194.876 68.0877 195.108 68.5096 195.261C68.9357 195.411 69.4023 195.485 69.9094 195.485C70.4677 195.485 70.9641 195.398 71.3988 195.223C71.8377 195.044 72.1829 194.797 72.4343 194.482C72.6857 194.162 72.8114 193.789 72.8114 193.363C72.8114 192.975 72.7006 192.658 72.479 192.411C72.2617 192.163 71.9656 191.959 71.5906 191.797C71.2198 191.635 70.8001 191.492 70.3313 191.369L68.7844 190.947C67.7362 190.661 66.9052 190.241 66.2915 189.688C65.6822 189.134 65.3775 188.401 65.3775 187.489C65.3775 186.734 65.582 186.076 65.9911 185.513C66.4002 184.951 66.9542 184.514 67.6531 184.203C68.3519 183.888 69.1403 183.73 70.0181 183.73C70.9045 183.73 71.6864 183.886 72.364 184.197C73.0458 184.508 73.5827 184.936 73.9748 185.482C74.3668 186.023 74.5714 186.645 74.5884 187.348H72.6836ZM81.7379 197V187.182H83.5724V188.78H83.6939C83.8984 188.239 84.233 187.817 84.6974 187.514C85.1619 187.207 85.718 187.054 86.3658 187.054C87.022 187.054 87.5717 187.207 88.0149 187.514C88.4624 187.821 88.7926 188.243 89.0057 188.78H89.108C89.3423 188.256 89.7152 187.838 90.2266 187.527C90.7379 187.212 91.3473 187.054 92.0547 187.054C92.9453 187.054 93.6719 187.333 94.2344 187.891C94.8011 188.45 95.0845 189.291 95.0845 190.416V197H93.1733V190.595C93.1733 189.93 92.9922 189.449 92.63 189.151C92.2678 188.852 91.8352 188.703 91.3324 188.703C90.7102 188.703 90.2266 188.895 89.8814 189.278C89.5362 189.658 89.3636 190.146 89.3636 190.742V197H87.4588V190.474C87.4588 189.941 87.2926 189.513 86.9602 189.189C86.6278 188.865 86.1953 188.703 85.6626 188.703C85.3004 188.703 84.9659 188.799 84.6591 188.991C84.3565 189.178 84.1115 189.44 83.924 189.777C83.7408 190.114 83.6491 190.504 83.6491 190.947V197H81.7379ZM97.6461 197V187.182H99.5574V197H97.6461ZM98.6113 185.667C98.2789 185.667 97.9934 185.556 97.7548 185.335C97.5204 185.109 97.4032 184.84 97.4032 184.529C97.4032 184.214 97.5204 183.945 97.7548 183.724C97.9934 183.498 98.2789 183.385 98.6113 183.385C98.9437 183.385 99.2271 183.498 99.4615 183.724C99.7001 183.945 99.8194 184.214 99.8194 184.529C99.8194 184.84 99.7001 185.109 99.4615 185.335C99.2271 185.556 98.9437 185.667 98.6113 185.667ZM104.04 183.909V197H102.129V183.909H104.04ZM108.522 183.909V197H106.611V183.909H108.522ZM111.093 197V187.182H113.005V197H111.093ZM112.059 185.667C111.726 185.667 111.441 185.556 111.202 185.335C110.968 185.109 110.85 184.84 110.85 184.529C110.85 184.214 110.968 183.945 111.202 183.724C111.441 183.498 111.726 183.385 112.059 183.385C112.391 183.385 112.674 183.498 112.909 183.724C113.147 183.945 113.267 184.214 113.267 184.529C113.267 184.84 113.147 185.109 112.909 185.335C112.674 185.556 112.391 185.667 112.059 185.667ZM119.711 197.198C118.791 197.198 117.988 196.987 117.302 196.565C116.616 196.143 116.083 195.553 115.704 194.795C115.324 194.036 115.135 193.15 115.135 192.136C115.135 191.117 115.324 190.227 115.704 189.464C116.083 188.701 116.616 188.109 117.302 187.687C117.988 187.265 118.791 187.054 119.711 187.054C120.632 187.054 121.435 187.265 122.121 187.687C122.807 188.109 123.34 188.701 123.719 189.464C124.099 190.227 124.288 191.117 124.288 192.136C124.288 193.15 124.099 194.036 123.719 194.795C123.34 195.553 122.807 196.143 122.121 196.565C121.435 196.987 120.632 197.198 119.711 197.198ZM119.718 195.594C120.314 195.594 120.809 195.436 121.201 195.121C121.593 194.805 121.883 194.386 122.07 193.862C122.262 193.337 122.358 192.76 122.358 192.129C122.358 191.503 122.262 190.928 122.07 190.403C121.883 189.875 121.593 189.451 121.201 189.131C120.809 188.812 120.314 188.652 119.718 188.652C119.117 188.652 118.618 188.812 118.222 189.131C117.83 189.451 117.538 189.875 117.346 190.403C117.159 190.928 117.065 191.503 117.065 192.129C117.065 192.76 117.159 193.337 117.346 193.862C117.538 194.386 117.83 194.805 118.222 195.121C118.618 195.436 119.117 195.594 119.718 195.594ZM128.333 191.17V197H126.422V187.182H128.256V188.78H128.377C128.603 188.26 128.957 187.842 129.439 187.527C129.924 187.212 130.536 187.054 131.273 187.054C131.942 187.054 132.528 187.195 133.031 187.476C133.534 187.753 133.924 188.166 134.201 188.716C134.478 189.266 134.616 189.945 134.616 190.755V197H132.705V190.985C132.705 190.273 132.52 189.717 132.149 189.317C131.778 188.912 131.269 188.71 130.621 188.71C130.178 188.71 129.784 188.805 129.439 188.997C129.098 189.189 128.827 189.47 128.627 189.841C128.431 190.207 128.333 190.651 128.333 191.17ZM140.855 191.567C140.855 193.173 140.644 194.65 140.222 195.996C139.8 197.343 139.184 198.585 138.375 199.723H136.623C136.939 199.301 137.233 198.783 137.505 198.17C137.778 197.556 138.017 196.885 138.221 196.156C138.426 195.423 138.586 194.665 138.701 193.881C138.816 193.097 138.873 192.325 138.873 191.567C138.873 190.557 138.773 189.532 138.573 188.492C138.373 187.452 138.102 186.487 137.761 185.597C137.42 184.706 137.041 183.979 136.623 183.417H138.375C139.184 184.555 139.8 185.797 140.222 187.143C140.644 188.49 140.855 189.964 140.855 191.567Z" fill="black"/>
<circle cx="100.4" cy="59.4" r="32.4" fill="#01345C"/>
<path d="M113.965 61.0207C115.209 59.2331 115.959 57.1495 116.142 54.9796C116.324 52.8097 115.932 50.63 115.004 48.66C114.076 46.69 112.645 44.9992 110.856 43.7577C109.067 42.5163 106.983 41.768 104.813 41.5882C102.643 41.4084 100.463 41.8035 98.4945 42.7337C96.5255 43.6639 94.8364 45.0963 93.597 46.8868C92.3577 48.6772 91.6119 50.7626 91.4347 52.933C91.2575 55.1033 91.6551 57.2821 92.5876 59.2499" stroke="white" stroke-width="3" stroke-linecap="round" stroke-linejoin="round"/>
<path d="M103.792 48.6253C101.835 48.6253 100.25 49.8153 100.25 51.2816C100.25 52.7478 101.835 53.9378 103.792 53.9378C105.748 53.9378 107.333 55.1278 107.333 56.5941C107.333 58.0603 105.748 59.2503 103.792 59.2503M103.792 48.6253C105.332 48.6253 106.646 49.3638 107.131 50.3962M103.792 48.6253V46.8545M103.792 59.2503C102.251 59.2503 100.937 58.5119 100.452 57.4795M103.792 59.2503V61.0212M84.3125 62.792H88.5536C89.0743 62.792 89.5878 62.9089 90.0535 63.1355L93.6696 64.8851C94.1353 65.11 94.6489 65.2269 95.1712 65.2269H97.0165C98.8015 65.2269 100.25 66.6276 100.25 68.356C100.25 68.4268 100.202 68.487 100.133 68.5065L95.6334 69.7514C94.826 69.9744 93.9651 69.8964 93.2109 69.5318L89.3452 67.6618M100.25 67.2191L108.383 64.7204C109.092 64.5032 109.85 64.5151 110.551 64.7546C111.252 64.994 111.859 65.4488 112.286 66.0539C112.94 66.957 112.674 68.2532 111.721 68.8022L98.4136 76.4823C97.9975 76.7231 97.5367 76.8766 97.0594 76.9335C96.582 76.9905 96.098 76.9496 95.637 76.8134L84.3125 73.4524" stroke="white" stroke-width="3" stroke-linecap="round" stroke-linejoin="round"/>
<path d="M251.763 165.348C251.695 164.743 251.413 164.274 250.919 163.942C250.425 163.605 249.802 163.437 249.052 163.437C248.516 163.437 248.051 163.522 247.659 163.692C247.267 163.859 246.962 164.089 246.745 164.383C246.532 164.673 246.425 165.003 246.425 165.374C246.425 165.685 246.498 165.953 246.643 166.179C246.792 166.405 246.986 166.594 247.224 166.748C247.467 166.897 247.727 167.023 248.004 167.125C248.281 167.223 248.547 167.304 248.803 167.368L250.082 167.7C250.499 167.803 250.927 167.941 251.366 168.116C251.805 168.29 252.212 168.521 252.587 168.806C252.962 169.092 253.265 169.445 253.495 169.867C253.729 170.289 253.847 170.794 253.847 171.382C253.847 172.124 253.655 172.782 253.271 173.357C252.892 173.933 252.34 174.386 251.616 174.719C250.896 175.051 250.024 175.217 249.001 175.217C248.021 175.217 247.173 175.062 246.457 174.751C245.741 174.44 245.181 173.999 244.776 173.428C244.371 172.852 244.148 172.17 244.105 171.382H246.087C246.125 171.855 246.278 172.249 246.547 172.565C246.82 172.876 247.167 173.108 247.589 173.261C248.015 173.411 248.481 173.485 248.989 173.485C249.547 173.485 250.043 173.398 250.478 173.223C250.917 173.044 251.262 172.797 251.513 172.482C251.765 172.162 251.891 171.789 251.891 171.363C251.891 170.975 251.78 170.658 251.558 170.411C251.341 170.163 251.045 169.959 250.67 169.797C250.299 169.635 249.879 169.492 249.41 169.369L247.864 168.947C246.815 168.661 245.984 168.241 245.371 167.688C244.761 167.134 244.457 166.401 244.457 165.489C244.457 164.734 244.661 164.076 245.07 163.513C245.479 162.951 246.033 162.514 246.732 162.203C247.431 161.888 248.219 161.73 249.097 161.73C249.984 161.73 250.766 161.886 251.443 162.197C252.125 162.508 252.662 162.936 253.054 163.482C253.446 164.023 253.65 164.645 253.668 165.348H251.763ZM260.636 165.182V166.716H255.274V165.182H260.636ZM256.712 162.83H258.623V172.117C258.623 172.488 258.678 172.767 258.789 172.955C258.9 173.138 259.043 173.263 259.217 173.332C259.396 173.396 259.59 173.428 259.799 173.428C259.953 173.428 260.087 173.417 260.202 173.396C260.317 173.374 260.406 173.357 260.47 173.344L260.815 174.923C260.705 174.966 260.547 175.009 260.342 175.051C260.138 175.098 259.882 175.124 259.575 175.128C259.073 175.136 258.604 175.047 258.169 174.859C257.734 174.672 257.383 174.382 257.114 173.99C256.846 173.598 256.712 173.106 256.712 172.513V162.83ZM262.751 175V165.182H264.598V166.741H264.7C264.879 166.213 265.195 165.798 265.646 165.495C266.102 165.188 266.618 165.035 267.193 165.035C267.312 165.035 267.453 165.039 267.615 165.048C267.781 165.056 267.911 165.067 268.005 165.08V166.908C267.928 166.886 267.792 166.863 267.596 166.837C267.4 166.808 267.204 166.793 267.008 166.793C266.556 166.793 266.153 166.888 265.8 167.08C265.45 167.268 265.173 167.53 264.969 167.866C264.764 168.199 264.662 168.578 264.662 169.004V175H262.751ZM275.878 170.928V165.182H277.796V175H275.917V173.3H275.814C275.589 173.824 275.226 174.261 274.728 174.61C274.233 174.955 273.618 175.128 272.88 175.128C272.25 175.128 271.691 174.989 271.206 174.712C270.724 174.431 270.345 174.016 270.068 173.466C269.795 172.916 269.659 172.237 269.659 171.427V165.182H271.57V171.197C271.57 171.866 271.755 172.398 272.126 172.795C272.497 173.191 272.978 173.389 273.571 173.389C273.929 173.389 274.285 173.3 274.638 173.121C274.996 172.942 275.292 172.671 275.527 172.309C275.765 171.947 275.883 171.487 275.878 170.928ZM284.5 175.198C283.549 175.198 282.731 174.983 282.045 174.553C281.363 174.118 280.839 173.519 280.473 172.756C280.106 171.994 279.923 171.12 279.923 170.136C279.923 169.138 280.11 168.259 280.485 167.496C280.86 166.729 281.389 166.13 282.071 165.7C282.752 165.269 283.556 165.054 284.48 165.054C285.226 165.054 285.891 165.192 286.475 165.469C287.059 165.742 287.529 166.126 287.887 166.62C288.25 167.114 288.465 167.692 288.533 168.352H286.673C286.571 167.892 286.336 167.496 285.97 167.163C285.608 166.831 285.122 166.665 284.512 166.665C283.98 166.665 283.513 166.805 283.112 167.087C282.716 167.364 282.407 167.76 282.186 168.276C281.964 168.787 281.853 169.392 281.853 170.091C281.853 170.807 281.962 171.425 282.179 171.945C282.397 172.464 282.703 172.867 283.1 173.153C283.5 173.438 283.971 173.581 284.512 173.581C284.875 173.581 285.203 173.515 285.497 173.383C285.795 173.246 286.044 173.053 286.245 172.801C286.449 172.55 286.592 172.247 286.673 171.893H288.533C288.465 172.528 288.258 173.095 287.913 173.594C287.568 174.092 287.105 174.484 286.526 174.77C285.951 175.055 285.275 175.198 284.5 175.198ZM295.16 165.182V166.716H289.797V165.182H295.16ZM291.235 162.83H293.146V172.117C293.146 172.488 293.202 172.767 293.313 172.955C293.423 173.138 293.566 173.263 293.741 173.332C293.92 173.396 294.114 173.428 294.323 173.428C294.476 173.428 294.61 173.417 294.725 173.396C294.84 173.374 294.93 173.357 294.994 173.344L295.339 174.923C295.228 174.966 295.07 175.009 294.866 175.051C294.661 175.098 294.406 175.124 294.099 175.128C293.596 175.136 293.127 175.047 292.693 174.859C292.258 174.672 291.906 174.382 291.638 173.99C291.369 173.598 291.235 173.106 291.235 172.513V162.83ZM303.494 170.928V165.182H305.411V175H303.532V173.3H303.43C303.204 173.824 302.842 174.261 302.343 174.61C301.849 174.955 301.233 175.128 300.496 175.128C299.865 175.128 299.307 174.989 298.821 174.712C298.339 174.431 297.96 174.016 297.683 173.466C297.41 172.916 297.274 172.237 297.274 171.427V165.182H299.185V171.197C299.185 171.866 299.371 172.398 299.741 172.795C300.112 173.191 300.594 173.389 301.186 173.389C301.544 173.389 301.9 173.3 302.253 173.121C302.611 172.942 302.908 172.671 303.142 172.309C303.381 171.947 303.498 171.487 303.494 170.928ZM307.979 175V165.182H309.826V166.741H309.929C310.108 166.213 310.423 165.798 310.875 165.495C311.331 165.188 311.846 165.035 312.422 165.035C312.541 165.035 312.682 165.039 312.843 165.048C313.01 165.056 313.14 165.067 313.233 165.08V166.908C313.157 166.886 313.02 166.863 312.824 166.837C312.628 166.808 312.432 166.793 312.236 166.793C311.785 166.793 311.382 166.888 311.028 167.08C310.679 167.268 310.402 167.53 310.197 167.866C309.993 168.199 309.89 168.578 309.89 169.004V175H307.979ZM318.767 175.198C317.8 175.198 316.967 174.991 316.268 174.578C315.573 174.161 315.036 173.575 314.657 172.82C314.282 172.062 314.095 171.173 314.095 170.155C314.095 169.149 314.282 168.263 314.657 167.496C315.036 166.729 315.565 166.13 316.242 165.7C316.924 165.269 317.721 165.054 318.633 165.054C319.187 165.054 319.724 165.146 320.244 165.329C320.764 165.512 321.23 165.8 321.644 166.192C322.057 166.584 322.383 167.093 322.622 167.719C322.86 168.342 322.98 169.098 322.98 169.989V170.666H315.175V169.234H321.107C321.107 168.732 321.005 168.286 320.8 167.898C320.595 167.506 320.308 167.197 319.937 166.972C319.571 166.746 319.14 166.633 318.646 166.633C318.109 166.633 317.64 166.765 317.24 167.029C316.843 167.289 316.536 167.63 316.319 168.052C316.106 168.469 316 168.923 316 169.413V170.532C316 171.188 316.115 171.746 316.345 172.207C316.579 172.667 316.905 173.018 317.323 173.261C317.74 173.5 318.228 173.619 318.786 173.619C319.149 173.619 319.479 173.568 319.777 173.466C320.076 173.359 320.333 173.202 320.551 172.993C320.768 172.784 320.934 172.526 321.049 172.219L322.858 172.545C322.713 173.078 322.453 173.545 322.078 173.945C321.708 174.342 321.241 174.651 320.679 174.872C320.12 175.089 319.483 175.198 318.767 175.198Z" fill="black"/>
<circle cx="283.4" cy="59.4" r="32.4" fill="#01345C"/>
<path d="M267.312 75.1875H299.188M277.938 52.1667H279.708M277.938 59.25H279.708M277.938 66.3333H279.708M286.792 52.1667H288.563M286.792 59.25H288.563M286.792 66.3333H288.563M270.854 75.1875V46.8542C270.854 45.9149 271.227 45.014 271.891 44.3498C272.556 43.6856 273.457 43.3125 274.396 43.3125H292.104C293.043 43.3125 293.944 43.6856 294.609 44.3498C295.273 45.014 295.646 45.9149 295.646 46.8542V75.1875" stroke="white" stroke-width="3" stroke-linecap="round" stroke-linejoin="round"/>
<path d="M434.586 175V161.909H436.561V167.598H443.087V161.909H445.069V175H443.087V169.292H436.561V175H434.586ZM452.023 175.198C451.056 175.198 450.223 174.991 449.524 174.578C448.829 174.161 448.292 173.575 447.913 172.82C447.538 172.062 447.351 171.173 447.351 170.155C447.351 169.149 447.538 168.263 447.913 167.496C448.292 166.729 448.821 166.13 449.498 165.7C450.18 165.269 450.977 165.054 451.889 165.054C452.443 165.054 452.98 165.146 453.5 165.329C454.02 165.512 454.486 165.8 454.9 166.192C455.313 166.584 455.639 167.093 455.878 167.719C456.116 168.342 456.236 169.098 456.236 169.989V170.666H448.431V169.234H454.363C454.363 168.732 454.26 168.286 454.056 167.898C453.851 167.506 453.564 167.197 453.193 166.972C452.826 166.746 452.396 166.633 451.902 166.633C451.365 166.633 450.896 166.765 450.495 167.029C450.099 167.289 449.792 167.63 449.575 168.052C449.362 168.469 449.255 168.923 449.255 169.413V170.532C449.255 171.188 449.37 171.746 449.601 172.207C449.835 172.667 450.161 173.018 450.579 173.261C450.996 173.5 451.484 173.619 452.042 173.619C452.405 173.619 452.735 173.568 453.033 173.466C453.331 173.359 453.589 173.202 453.807 172.993C454.024 172.784 454.19 172.526 454.305 172.219L456.114 172.545C455.969 173.078 455.709 173.545 455.334 173.945C454.964 174.342 454.497 174.651 453.934 174.872C453.376 175.089 452.739 175.198 452.023 175.198ZM461.213 175.217C460.591 175.217 460.029 175.102 459.526 174.872C459.023 174.638 458.625 174.299 458.331 173.856C458.041 173.413 457.896 172.869 457.896 172.226C457.896 171.672 458.002 171.216 458.215 170.858C458.429 170.5 458.716 170.217 459.078 170.008C459.441 169.799 459.845 169.641 460.293 169.535C460.74 169.428 461.196 169.347 461.661 169.292C462.249 169.224 462.726 169.168 463.093 169.126C463.459 169.079 463.725 169.004 463.892 168.902C464.058 168.8 464.141 168.634 464.141 168.403V168.359C464.141 167.8 463.983 167.368 463.668 167.061C463.357 166.754 462.892 166.601 462.274 166.601C461.631 166.601 461.124 166.744 460.753 167.029C460.387 167.31 460.133 167.624 459.992 167.969L458.196 167.56C458.409 166.963 458.72 166.482 459.13 166.115C459.543 165.744 460.018 165.476 460.555 165.31C461.092 165.139 461.657 165.054 462.249 165.054C462.641 165.054 463.056 165.101 463.495 165.195C463.938 165.284 464.352 165.45 464.735 165.693C465.123 165.936 465.441 166.283 465.688 166.735C465.935 167.183 466.059 167.764 466.059 168.48V175H464.192V173.658H464.115C463.992 173.905 463.806 174.148 463.559 174.386C463.312 174.625 462.995 174.823 462.607 174.981C462.219 175.138 461.755 175.217 461.213 175.217ZM461.629 173.683C462.157 173.683 462.609 173.579 462.984 173.37C463.363 173.161 463.651 172.888 463.847 172.552C464.047 172.211 464.147 171.847 464.147 171.459V170.193C464.079 170.261 463.947 170.325 463.751 170.385C463.559 170.44 463.34 170.489 463.093 170.532C462.845 170.57 462.605 170.607 462.37 170.641C462.136 170.67 461.94 170.696 461.782 170.717C461.411 170.764 461.073 170.843 460.766 170.954C460.463 171.065 460.22 171.224 460.037 171.433C459.858 171.638 459.769 171.911 459.769 172.251C459.769 172.724 459.943 173.082 460.293 173.325C460.642 173.564 461.088 173.683 461.629 173.683ZM472.28 175.192C471.487 175.192 470.78 174.989 470.157 174.585C469.54 174.175 469.054 173.594 468.7 172.839C468.351 172.081 468.176 171.171 468.176 170.11C468.176 169.049 468.353 168.141 468.706 167.387C469.064 166.633 469.554 166.055 470.177 165.655C470.799 165.254 471.504 165.054 472.292 165.054C472.902 165.054 473.392 165.156 473.763 165.361C474.138 165.561 474.427 165.795 474.632 166.064C474.841 166.332 475.003 166.569 475.118 166.773H475.233V161.909H477.144V175H475.277V173.472H475.118C475.003 173.681 474.836 173.92 474.619 174.188C474.406 174.457 474.112 174.691 473.737 174.891C473.362 175.092 472.876 175.192 472.28 175.192ZM472.701 173.562C473.251 173.562 473.716 173.417 474.095 173.127C474.478 172.833 474.768 172.426 474.964 171.906C475.165 171.386 475.265 170.781 475.265 170.091C475.265 169.409 475.167 168.812 474.971 168.301C474.775 167.79 474.487 167.391 474.108 167.106C473.728 166.82 473.26 166.678 472.701 166.678C472.126 166.678 471.647 166.827 471.263 167.125C470.88 167.423 470.59 167.83 470.394 168.346C470.202 168.862 470.106 169.443 470.106 170.091C470.106 170.747 470.204 171.337 470.4 171.862C470.596 172.386 470.886 172.801 471.27 173.108C471.657 173.411 472.135 173.562 472.701 173.562ZM486.5 178.682V173.472H486.385C486.27 173.681 486.104 173.92 485.887 174.188C485.674 174.457 485.38 174.691 485.005 174.891C484.63 175.092 484.144 175.192 483.547 175.192C482.755 175.192 482.047 174.989 481.425 174.585C480.807 174.175 480.321 173.594 479.968 172.839C479.618 172.081 479.443 171.171 479.443 170.11C479.443 169.049 479.62 168.141 479.974 167.387C480.332 166.633 480.822 166.055 481.444 165.655C482.066 165.254 482.772 165.054 483.56 165.054C484.169 165.054 484.659 165.156 485.03 165.361C485.405 165.561 485.695 165.795 485.899 166.064C486.108 166.332 486.27 166.569 486.385 166.773H486.545V165.182H488.411V178.682H486.5ZM483.969 173.562C484.519 173.562 484.983 173.417 485.362 173.127C485.746 172.833 486.036 172.426 486.232 171.906C486.432 171.386 486.532 170.781 486.532 170.091C486.532 169.409 486.434 168.812 486.238 168.301C486.042 167.79 485.755 167.391 485.375 167.106C484.996 166.82 484.527 166.678 483.969 166.678C483.394 166.678 482.914 166.827 482.531 167.125C482.147 167.423 481.858 167.83 481.661 168.346C481.47 168.862 481.374 169.443 481.374 170.091C481.374 170.747 481.472 171.337 481.668 171.862C481.864 172.386 482.154 172.801 482.537 173.108C482.925 173.411 483.402 173.562 483.969 173.562ZM497.201 170.928V165.182H499.118V175H497.239V173.3H497.137C496.911 173.824 496.549 174.261 496.05 174.61C495.556 174.955 494.94 175.128 494.203 175.128C493.572 175.128 493.014 174.989 492.528 174.712C492.046 174.431 491.667 174.016 491.39 173.466C491.117 172.916 490.981 172.237 490.981 171.427V165.182H492.892V171.197C492.892 171.866 493.078 172.398 493.448 172.795C493.819 173.191 494.301 173.389 494.893 173.389C495.251 173.389 495.607 173.3 495.96 173.121C496.318 172.942 496.615 172.671 496.849 172.309C497.088 171.947 497.205 171.487 497.201 170.928ZM504.543 175.217C503.921 175.217 503.359 175.102 502.856 174.872C502.353 174.638 501.955 174.299 501.661 173.856C501.371 173.413 501.226 172.869 501.226 172.226C501.226 171.672 501.332 171.216 501.546 170.858C501.759 170.5 502.046 170.217 502.408 170.008C502.771 169.799 503.176 169.641 503.623 169.535C504.07 169.428 504.526 169.347 504.991 169.292C505.579 169.224 506.056 169.168 506.423 169.126C506.789 169.079 507.055 169.004 507.222 168.902C507.388 168.8 507.471 168.634 507.471 168.403V168.359C507.471 167.8 507.313 167.368 506.998 167.061C506.687 166.754 506.222 166.601 505.604 166.601C504.961 166.601 504.454 166.744 504.083 167.029C503.717 167.31 503.463 167.624 503.323 167.969L501.526 167.56C501.739 166.963 502.051 166.482 502.46 166.115C502.873 165.744 503.348 165.476 503.885 165.31C504.422 165.139 504.987 165.054 505.579 165.054C505.971 165.054 506.386 165.101 506.825 165.195C507.269 165.284 507.682 165.45 508.065 165.693C508.453 165.936 508.771 166.283 509.018 166.735C509.265 167.183 509.389 167.764 509.389 168.48V175H507.522V173.658H507.445C507.322 173.905 507.136 174.148 506.889 174.386C506.642 174.625 506.325 174.823 505.937 174.981C505.549 175.138 505.085 175.217 504.543 175.217ZM504.959 173.683C505.487 173.683 505.939 173.579 506.314 173.37C506.693 173.161 506.981 172.888 507.177 172.552C507.377 172.211 507.477 171.847 507.477 171.459V170.193C507.409 170.261 507.277 170.325 507.081 170.385C506.889 170.44 506.67 170.489 506.423 170.532C506.176 170.57 505.935 170.607 505.7 170.641C505.466 170.67 505.27 170.696 505.112 170.717C504.742 170.764 504.403 170.843 504.096 170.954C503.793 171.065 503.551 171.224 503.367 171.433C503.188 171.638 503.099 171.911 503.099 172.251C503.099 172.724 503.274 173.082 503.623 173.325C503.972 173.564 504.418 173.683 504.959 173.683ZM511.934 175V165.182H513.782V166.741H513.884C514.063 166.213 514.378 165.798 514.83 165.495C515.286 165.188 515.801 165.035 516.377 165.035C516.496 165.035 516.637 165.039 516.799 165.048C516.965 165.056 517.095 165.067 517.188 165.08V166.908C517.112 166.886 516.975 166.863 516.779 166.837C516.583 166.808 516.387 166.793 516.191 166.793C515.74 166.793 515.337 166.888 514.983 167.08C514.634 167.268 514.357 167.53 514.152 167.866C513.948 168.199 513.845 168.578 513.845 169.004V175H511.934ZM524.006 165.182V166.716H518.643V165.182H524.006ZM520.081 162.83H521.992V172.117C521.992 172.488 522.047 172.767 522.158 172.955C522.269 173.138 522.412 173.263 522.587 173.332C522.766 173.396 522.959 173.428 523.168 173.428C523.322 173.428 523.456 173.417 523.571 173.396C523.686 173.374 523.775 173.357 523.839 173.344L524.185 174.923C524.074 174.966 523.916 175.009 523.712 175.051C523.507 175.098 523.251 175.124 522.945 175.128C522.442 175.136 521.973 175.047 521.538 174.859C521.104 174.672 520.752 174.382 520.484 173.99C520.215 173.598 520.081 173.106 520.081 172.513V162.83ZM530.246 175.198C529.278 175.198 528.445 174.991 527.747 174.578C527.052 174.161 526.515 173.575 526.136 172.82C525.761 172.062 525.573 171.173 525.573 170.155C525.573 169.149 525.761 168.263 526.136 167.496C526.515 166.729 527.043 166.13 527.721 165.7C528.403 165.269 529.2 165.054 530.112 165.054C530.666 165.054 531.203 165.146 531.722 165.329C532.242 165.512 532.709 165.8 533.122 166.192C533.536 166.584 533.862 167.093 534.1 167.719C534.339 168.342 534.458 169.098 534.458 169.989V170.666H526.653V169.234H532.585C532.585 168.732 532.483 168.286 532.278 167.898C532.074 167.506 531.786 167.197 531.416 166.972C531.049 166.746 530.619 166.633 530.124 166.633C529.587 166.633 529.119 166.765 528.718 167.029C528.322 167.289 528.015 167.63 527.798 168.052C527.585 168.469 527.478 168.923 527.478 169.413V170.532C527.478 171.188 527.593 171.746 527.823 172.207C528.058 172.667 528.384 173.018 528.801 173.261C529.219 173.5 529.707 173.619 530.265 173.619C530.627 173.619 530.957 173.568 531.256 173.466C531.554 173.359 531.812 173.202 532.029 172.993C532.247 172.784 532.413 172.526 532.528 172.219L534.337 172.545C534.192 173.078 533.932 173.545 533.557 173.945C533.186 174.342 532.72 174.651 532.157 174.872C531.599 175.089 530.962 175.198 530.246 175.198ZM536.579 175V165.182H538.426V166.741H538.528C538.707 166.213 539.023 165.798 539.474 165.495C539.93 165.188 540.446 165.035 541.021 165.035C541.141 165.035 541.281 165.039 541.443 165.048C541.609 165.056 541.739 165.067 541.833 165.08V166.908C541.756 166.886 541.62 166.863 541.424 166.837C541.228 166.808 541.032 166.793 540.836 166.793C540.384 166.793 539.981 166.888 539.628 167.08C539.278 167.268 539.001 167.53 538.797 167.866C538.592 168.199 538.49 168.578 538.49 169.004V175H536.579ZM550.844 167.579L549.112 167.886C549.04 167.664 548.924 167.453 548.767 167.253C548.613 167.053 548.405 166.888 548.14 166.761C547.876 166.633 547.546 166.569 547.15 166.569C546.608 166.569 546.157 166.69 545.794 166.933C545.432 167.172 545.251 167.481 545.251 167.86C545.251 168.188 545.373 168.452 545.616 168.653C545.858 168.853 546.25 169.017 546.792 169.145L548.351 169.503C549.255 169.712 549.928 170.033 550.371 170.468C550.814 170.903 551.036 171.467 551.036 172.162C551.036 172.75 550.866 173.274 550.525 173.734C550.188 174.19 549.717 174.548 549.112 174.808C548.511 175.068 547.814 175.198 547.022 175.198C545.922 175.198 545.025 174.964 544.331 174.495C543.636 174.022 543.21 173.351 543.052 172.482L544.9 172.2C545.015 172.682 545.251 173.046 545.609 173.293C545.967 173.536 546.434 173.658 547.009 173.658C547.635 173.658 548.136 173.528 548.511 173.268C548.886 173.004 549.074 172.682 549.074 172.303C549.074 171.996 548.959 171.738 548.728 171.529C548.503 171.32 548.155 171.163 547.687 171.056L546.025 170.692C545.108 170.483 544.431 170.151 543.992 169.695C543.557 169.239 543.34 168.661 543.34 167.962C543.34 167.383 543.502 166.876 543.826 166.441C544.15 166.006 544.597 165.668 545.168 165.425C545.739 165.178 546.393 165.054 547.13 165.054C548.191 165.054 549.027 165.284 549.636 165.744C550.245 166.2 550.648 166.812 550.844 167.579Z" fill="black"/>
<circle cx="492.4" cy="59.4" r="32.4" fill="#01345C"/>
<path d="M498.448 58.8076C498.448 58.4554 498.308 58.1176 498.059 57.8685C497.81 57.6194 497.472 57.4795 497.12 57.4795C496.767 57.4795 496.43 57.6194 496.181 57.8685C495.931 58.1176 495.792 58.4554 495.792 58.8076V62.3493C495.792 62.7015 495.931 63.0393 496.181 63.2884C496.43 63.5375 496.767 63.6774 497.12 63.6774C497.472 63.6774 497.81 63.5375 498.059 63.2884C498.308 63.0393 498.448 62.7015 498.448 62.3493V58.8076ZM491.807 57.4795C492.159 57.4795 492.497 57.6194 492.746 57.8685C492.995 58.1176 493.135 58.4554 493.135 58.8076V62.3493C493.135 62.7015 492.995 63.0393 492.746 63.2884C492.497 63.5375 492.159 63.6774 491.807 63.6774C491.455 63.6774 491.117 63.5375 490.868 63.2884C490.619 63.0393 490.479 62.7015 490.479 62.3493V58.8076C490.479 58.4554 490.619 58.1176 490.868 57.8685C491.117 57.6194 491.455 57.4795 491.807 57.4795ZM487.823 58.8076C487.823 58.4554 487.683 58.1176 487.434 57.8685C487.185 57.6194 486.847 57.4795 486.495 57.4795C486.142 57.4795 485.805 57.6194 485.556 57.8685C485.306 58.1176 485.167 58.4554 485.167 58.8076V62.3493C485.167 62.7015 485.306 63.0393 485.556 63.2884C485.805 63.5375 486.142 63.6774 486.495 63.6774C486.847 63.6774 487.185 63.5375 487.434 63.2884C487.683 63.0393 487.823 62.7015 487.823 62.3493V58.8076ZM481.182 65.4482C481.534 65.4482 481.872 65.5882 482.121 65.8372C482.37 66.0863 482.51 66.4241 482.51 66.7764V71.2034C482.51 71.5557 482.37 71.8935 482.121 72.1426C481.872 72.3916 481.534 72.5316 481.182 72.5316C480.83 72.5316 480.492 72.3916 480.243 72.1426C479.994 71.8935 479.854 71.5557 479.854 71.2034V66.7764C479.854 66.4241 479.994 66.0863 480.243 65.8372C480.492 65.5882 480.83 65.4482 481.182 65.4482ZM504.646 66.7764C504.646 66.4241 504.506 66.0863 504.257 65.8372C504.008 65.5882 503.67 65.4482 503.318 65.4482C502.965 65.4482 502.627 65.5882 502.378 65.8372C502.129 66.0863 501.989 66.4241 501.989 66.7764V71.2034C501.989 71.5557 502.129 71.8935 502.378 72.1426C502.627 72.3916 502.965 72.5316 503.318 72.5316C503.67 72.5316 504.008 72.3916 504.257 72.1426C504.506 71.8935 504.646 71.5557 504.646 71.2034V66.7764ZM491.807 41.542H498.448C498.683 41.542 498.908 41.6353 499.074 41.8013C499.24 41.9674 499.333 42.1926 499.333 42.4274V45.9691C499.333 46.2039 499.24 46.4291 499.074 46.5952C498.908 46.7612 498.683 46.8545 498.448 46.8545H493.135V48.6572C496.262 48.8811 499.187 50.2809 501.323 52.575C503.458 54.869 504.646 57.8869 504.646 61.0212H505.974C507.031 61.0212 508.044 61.4409 508.791 62.1882C509.538 62.9354 509.958 63.9488 509.958 65.0055V75.6305C509.958 75.9828 509.818 76.3206 509.569 76.5697C509.32 76.8187 508.982 76.9587 508.63 76.9587H475.87C475.517 76.9587 475.18 76.8187 474.931 76.5697C474.681 76.3206 474.542 75.9828 474.542 75.6305V65.0055C474.542 63.9488 474.961 62.9354 475.709 62.1882C476.456 61.4409 477.469 61.0212 478.526 61.0212H479.854C479.853 58.0398 480.927 55.1581 482.878 52.9042C484.83 50.6503 487.528 49.1752 490.479 48.7493V42.8701C490.479 42.5179 490.619 42.1801 490.868 41.931C491.117 41.6819 491.455 41.542 491.807 41.542ZM492.25 51.2816C489.667 51.2816 487.189 52.3077 485.363 54.1342C483.536 55.9608 482.51 58.4381 482.51 61.0212V62.3493C482.51 62.7015 482.37 63.0393 482.121 63.2884C481.872 63.5375 481.534 63.6774 481.182 63.6774H478.526C478.174 63.6774 477.836 63.8173 477.587 64.0664C477.338 64.3155 477.198 64.6533 477.198 65.0055V74.3024H487.823V69.4326C487.823 69.0804 487.963 68.7426 488.212 68.4935C488.461 68.2444 488.799 68.1045 489.151 68.1045H495.349C495.701 68.1045 496.039 68.2444 496.288 68.4935C496.537 68.7426 496.677 69.0804 496.677 69.4326V74.3024H507.302V65.0055C507.302 64.6533 507.162 64.3155 506.913 64.0664C506.664 63.8173 506.326 63.6774 505.974 63.6774H503.318C502.965 63.6774 502.627 63.5375 502.378 63.2884C502.129 63.0393 501.989 62.7015 501.989 62.3493V61.0212C501.989 58.4381 500.963 55.9608 499.137 54.1342C497.31 52.3077 494.833 51.2816 492.25 51.2816ZM494.021 70.7607H490.479V74.3024H494.021V70.7607Z" fill="white"/>
<path d="M669.514 175V161.909H677.722V163.609H671.49V167.598H677.294V169.292H671.49V173.3H677.798V175H669.514ZM680.207 175V165.182H682.041V166.78H682.163C682.367 166.239 682.702 165.817 683.166 165.514C683.631 165.207 684.187 165.054 684.835 165.054C685.491 165.054 686.04 165.207 686.484 165.514C686.931 165.821 687.261 166.243 687.474 166.78H687.577C687.811 166.256 688.184 165.838 688.695 165.527C689.207 165.212 689.816 165.054 690.523 165.054C691.414 165.054 692.141 165.333 692.703 165.891C693.27 166.45 693.553 167.291 693.553 168.416V175H691.642V168.595C691.642 167.93 691.461 167.449 691.099 167.151C690.737 166.852 690.304 166.703 689.801 166.703C689.179 166.703 688.695 166.895 688.35 167.278C688.005 167.658 687.832 168.146 687.832 168.742V175H685.928V168.474C685.928 167.941 685.761 167.513 685.429 167.189C685.097 166.865 684.664 166.703 684.131 166.703C683.769 166.703 683.435 166.799 683.128 166.991C682.825 167.178 682.58 167.44 682.393 167.777C682.21 168.114 682.118 168.504 682.118 168.947V175H680.207ZM696.115 178.682V165.182H697.981V166.773H698.141C698.252 166.569 698.412 166.332 698.621 166.064C698.829 165.795 699.119 165.561 699.49 165.361C699.861 165.156 700.351 165.054 700.96 165.054C701.753 165.054 702.46 165.254 703.082 165.655C703.704 166.055 704.192 166.633 704.546 167.387C704.904 168.141 705.083 169.049 705.083 170.11C705.083 171.171 704.906 172.081 704.552 172.839C704.199 173.594 703.713 174.175 703.095 174.585C702.477 174.989 701.772 175.192 700.979 175.192C700.383 175.192 699.895 175.092 699.515 174.891C699.14 174.691 698.846 174.457 698.633 174.188C698.42 173.92 698.256 173.681 698.141 173.472H698.026V178.682H696.115ZM697.988 170.091C697.988 170.781 698.088 171.386 698.288 171.906C698.488 172.426 698.778 172.833 699.157 173.127C699.537 173.417 700.001 173.562 700.551 173.562C701.122 173.562 701.599 173.411 701.983 173.108C702.366 172.801 702.656 172.386 702.852 171.862C703.052 171.337 703.153 170.747 703.153 170.091C703.153 169.443 703.055 168.862 702.858 168.346C702.667 167.83 702.377 167.423 701.989 167.125C701.606 166.827 701.126 166.678 700.551 166.678C699.997 166.678 699.528 166.82 699.145 167.106C698.765 167.391 698.478 167.79 698.282 168.301C698.086 168.812 697.988 169.409 697.988 170.091ZM709.135 161.909V175H707.224V161.909H709.135ZM715.842 175.198C714.922 175.198 714.119 174.987 713.433 174.565C712.746 174.143 712.214 173.553 711.835 172.795C711.455 172.036 711.266 171.15 711.266 170.136C711.266 169.117 711.455 168.227 711.835 167.464C712.214 166.701 712.746 166.109 713.433 165.687C714.119 165.265 714.922 165.054 715.842 165.054C716.763 165.054 717.566 165.265 718.252 165.687C718.938 166.109 719.471 166.701 719.85 167.464C720.229 168.227 720.419 169.117 720.419 170.136C720.419 171.15 720.229 172.036 719.85 172.795C719.471 173.553 718.938 174.143 718.252 174.565C717.566 174.987 716.763 175.198 715.842 175.198ZM715.849 173.594C716.445 173.594 716.94 173.436 717.332 173.121C717.724 172.805 718.013 172.386 718.201 171.862C718.393 171.337 718.489 170.76 718.489 170.129C718.489 169.503 718.393 168.928 718.201 168.403C718.013 167.875 717.724 167.451 717.332 167.131C716.94 166.812 716.445 166.652 715.849 166.652C715.248 166.652 714.749 166.812 714.353 167.131C713.961 167.451 713.669 167.875 713.477 168.403C713.29 168.928 713.196 169.503 713.196 170.129C713.196 170.76 713.29 171.337 713.477 171.862C713.669 172.386 713.961 172.805 714.353 173.121C714.749 173.436 715.248 173.594 715.849 173.594ZM723.426 178.682C723.141 178.682 722.881 178.658 722.647 178.612C722.412 178.569 722.238 178.522 722.123 178.471L722.583 176.905C722.932 176.999 723.243 177.039 723.516 177.026C723.789 177.013 724.029 176.911 724.238 176.719C724.451 176.528 724.639 176.214 724.801 175.78L725.037 175.128L721.445 165.182H723.49L725.977 172.801H726.079L728.566 165.182H730.618L726.571 176.31C726.384 176.822 726.145 177.254 725.855 177.608C725.566 177.966 725.221 178.234 724.82 178.413C724.419 178.592 723.955 178.682 723.426 178.682ZM736.311 175.198C735.344 175.198 734.511 174.991 733.812 174.578C733.117 174.161 732.58 173.575 732.201 172.82C731.826 172.062 731.639 171.173 731.639 170.155C731.639 169.149 731.826 168.263 732.201 167.496C732.58 166.729 733.109 166.13 733.786 165.7C734.468 165.269 735.265 165.054 736.177 165.054C736.731 165.054 737.268 165.146 737.788 165.329C738.308 165.512 738.774 165.8 739.188 166.192C739.601 166.584 739.927 167.093 740.166 167.719C740.404 168.342 740.524 169.098 740.524 169.989V170.666H732.719V169.234H738.651C738.651 168.732 738.548 168.286 738.344 167.898C738.139 167.506 737.852 167.197 737.481 166.972C737.115 166.746 736.684 166.633 736.19 166.633C735.653 166.633 735.184 166.765 734.784 167.029C734.387 167.289 734.08 167.63 733.863 168.052C733.65 168.469 733.544 168.923 733.544 169.413V170.532C733.544 171.188 733.659 171.746 733.889 172.207C734.123 172.667 734.449 173.018 734.867 173.261C735.284 173.5 735.772 173.619 736.33 173.619C736.693 173.619 737.023 173.568 737.321 173.466C737.619 173.359 737.877 173.202 738.095 172.993C738.312 172.784 738.478 172.526 738.593 172.219L740.402 172.545C740.257 173.078 739.997 173.545 739.622 173.945C739.252 174.342 738.785 174.651 738.222 174.872C737.664 175.089 737.027 175.198 736.311 175.198ZM746.876 175.198C745.908 175.198 745.075 174.991 744.376 174.578C743.682 174.161 743.145 173.575 742.766 172.82C742.391 172.062 742.203 171.173 742.203 170.155C742.203 169.149 742.391 168.263 742.766 167.496C743.145 166.729 743.673 166.13 744.351 165.7C745.033 165.269 745.83 165.054 746.741 165.054C747.295 165.054 747.832 165.146 748.352 165.329C748.872 165.512 749.339 165.8 749.752 166.192C750.165 166.584 750.491 167.093 750.73 167.719C750.969 168.342 751.088 169.098 751.088 169.989V170.666H743.283V169.234H749.215C749.215 168.732 749.113 168.286 748.908 167.898C748.704 167.506 748.416 167.197 748.045 166.972C747.679 166.746 747.249 166.633 746.754 166.633C746.217 166.633 745.749 166.765 745.348 167.029C744.952 167.289 744.645 167.63 744.428 168.052C744.214 168.469 744.108 168.923 744.108 169.413V170.532C744.108 171.188 744.223 171.746 744.453 172.207C744.688 172.667 745.013 173.018 745.431 173.261C745.849 173.5 746.337 173.619 746.895 173.619C747.257 173.619 747.587 173.568 747.886 173.466C748.184 173.359 748.442 173.202 748.659 172.993C748.876 172.784 749.043 172.526 749.158 172.219L750.967 172.545C750.822 173.078 750.562 173.545 750.187 173.945C749.816 174.342 749.349 174.651 748.787 174.872C748.229 175.089 747.592 175.198 746.876 175.198ZM682.106 189.579L680.374 189.886C680.301 189.664 680.186 189.453 680.028 189.253C679.875 189.053 679.666 188.888 679.402 188.761C679.138 188.633 678.808 188.569 678.411 188.569C677.87 188.569 677.418 188.69 677.056 188.933C676.694 189.172 676.513 189.481 676.513 189.86C676.513 190.188 676.634 190.452 676.877 190.653C677.12 190.853 677.512 191.017 678.053 191.145L679.613 191.503C680.516 191.712 681.19 192.033 681.633 192.468C682.076 192.903 682.298 193.467 682.298 194.162C682.298 194.75 682.127 195.274 681.786 195.734C681.45 196.19 680.979 196.548 680.374 196.808C679.773 197.068 679.076 197.198 678.283 197.198C677.184 197.198 676.287 196.964 675.592 196.495C674.898 196.022 674.472 195.351 674.314 194.482L676.161 194.2C676.276 194.682 676.513 195.046 676.871 195.293C677.229 195.536 677.695 195.658 678.271 195.658C678.897 195.658 679.398 195.528 679.773 195.268C680.148 195.004 680.335 194.682 680.335 194.303C680.335 193.996 680.22 193.738 679.99 193.529C679.764 193.32 679.417 193.163 678.948 193.056L677.286 192.692C676.37 192.483 675.693 192.151 675.254 191.695C674.819 191.239 674.602 190.661 674.602 189.962C674.602 189.383 674.764 188.876 675.087 188.441C675.411 188.006 675.859 187.668 676.43 187.425C677.001 187.178 677.655 187.054 678.392 187.054C679.453 187.054 680.288 187.284 680.898 187.744C681.507 188.2 681.91 188.812 682.106 189.579ZM688.982 187.182V188.716H683.619V187.182H688.982ZM685.057 184.83H686.969V194.117C686.969 194.488 687.024 194.767 687.135 194.955C687.246 195.138 687.388 195.263 687.563 195.332C687.742 195.396 687.936 195.428 688.145 195.428C688.298 195.428 688.432 195.417 688.547 195.396C688.663 195.374 688.752 195.357 688.816 195.344L689.161 196.923C689.05 196.966 688.893 197.009 688.688 197.051C688.484 197.098 688.228 197.124 687.921 197.128C687.418 197.136 686.949 197.047 686.515 196.859C686.08 196.672 685.729 196.382 685.46 195.99C685.192 195.598 685.057 195.106 685.057 194.513V184.83ZM691.096 197V187.182H692.944V188.741H693.046C693.225 188.213 693.54 187.798 693.992 187.495C694.448 187.188 694.964 187.035 695.539 187.035C695.658 187.035 695.799 187.039 695.961 187.048C696.127 187.056 696.257 187.067 696.351 187.08V188.908C696.274 188.886 696.138 188.863 695.941 188.837C695.745 188.808 695.549 188.793 695.353 188.793C694.902 188.793 694.499 188.888 694.145 189.08C693.796 189.268 693.519 189.53 693.314 189.866C693.11 190.199 693.008 190.578 693.008 191.004V197H691.096ZM701.884 197.198C700.917 197.198 700.084 196.991 699.385 196.578C698.691 196.161 698.154 195.575 697.774 194.82C697.399 194.062 697.212 193.173 697.212 192.155C697.212 191.149 697.399 190.263 697.774 189.496C698.154 188.729 698.682 188.13 699.36 187.7C700.041 187.269 700.838 187.054 701.75 187.054C702.304 187.054 702.841 187.146 703.361 187.329C703.881 187.512 704.348 187.8 704.761 188.192C705.174 188.584 705.5 189.093 705.739 189.719C705.978 190.342 706.097 191.098 706.097 191.989V192.666H698.292V191.234H704.224C704.224 190.732 704.122 190.286 703.917 189.898C703.713 189.506 703.425 189.197 703.054 188.972C702.688 188.746 702.257 188.633 701.763 188.633C701.226 188.633 700.757 188.765 700.357 189.029C699.96 189.289 699.654 189.63 699.436 190.052C699.223 190.469 699.117 190.923 699.117 191.413V192.532C699.117 193.188 699.232 193.746 699.462 194.207C699.696 194.667 700.022 195.018 700.44 195.261C700.858 195.5 701.345 195.619 701.904 195.619C702.266 195.619 702.596 195.568 702.894 195.466C703.193 195.359 703.451 195.202 703.668 194.993C703.885 194.784 704.051 194.526 704.166 194.219L705.975 194.545C705.831 195.078 705.571 195.545 705.196 195.945C704.825 196.342 704.358 196.651 703.796 196.872C703.237 197.089 702.6 197.198 701.884 197.198ZM710.129 191.17V197H708.217V187.182H710.052V188.78H710.173C710.399 188.26 710.753 187.842 711.234 187.527C711.72 187.212 712.332 187.054 713.069 187.054C713.738 187.054 714.324 187.195 714.827 187.476C715.33 187.753 715.72 188.166 715.997 188.716C716.274 189.266 716.412 189.945 716.412 190.755V197H714.501V190.985C714.501 190.273 714.315 189.717 713.945 189.317C713.574 188.912 713.065 188.71 712.417 188.71C711.974 188.71 711.58 188.805 711.234 188.997C710.894 189.189 710.623 189.47 710.423 189.841C710.227 190.207 710.129 190.651 710.129 191.17ZM723.092 200.886C722.312 200.886 721.641 200.784 721.078 200.58C720.52 200.375 720.064 200.104 719.71 199.768C719.357 199.431 719.092 199.063 718.918 198.662L720.56 197.984C720.676 198.172 720.829 198.37 721.021 198.579C721.217 198.792 721.481 198.973 721.813 199.122C722.15 199.271 722.582 199.346 723.111 199.346C723.835 199.346 724.434 199.169 724.907 198.815C725.38 198.466 725.617 197.908 725.617 197.141V195.21H725.495C725.38 195.419 725.214 195.651 724.997 195.907C724.783 196.163 724.489 196.384 724.114 196.572C723.739 196.759 723.252 196.853 722.651 196.853C721.875 196.853 721.176 196.672 720.554 196.31C719.936 195.943 719.446 195.404 719.084 194.692C718.726 193.977 718.547 193.097 718.547 192.053C718.547 191.009 718.724 190.114 719.078 189.368C719.435 188.622 719.926 188.051 720.548 187.655C721.17 187.254 721.875 187.054 722.663 187.054C723.273 187.054 723.765 187.156 724.14 187.361C724.515 187.561 724.807 187.795 725.016 188.064C725.229 188.332 725.393 188.569 725.508 188.773H725.649V187.182H727.521V197.217C727.521 198.061 727.325 198.754 726.933 199.295C726.541 199.836 726.011 200.237 725.342 200.496C724.677 200.756 723.927 200.886 723.092 200.886ZM723.073 195.268C723.622 195.268 724.087 195.14 724.466 194.884C724.85 194.624 725.139 194.254 725.335 193.772C725.536 193.286 725.636 192.705 725.636 192.027C725.636 191.366 725.538 190.785 725.342 190.282C725.146 189.779 724.858 189.387 724.479 189.106C724.1 188.82 723.631 188.678 723.073 188.678C722.497 188.678 722.018 188.827 721.634 189.125C721.251 189.419 720.961 189.82 720.765 190.327C720.573 190.834 720.477 191.401 720.477 192.027C720.477 192.67 720.575 193.235 720.771 193.721C720.967 194.207 721.257 194.586 721.641 194.859C722.028 195.131 722.506 195.268 723.073 195.268ZM734.668 187.182V188.716H729.305V187.182H734.668ZM730.743 184.83H732.654V194.117C732.654 194.488 732.71 194.767 732.82 194.955C732.931 195.138 733.074 195.263 733.249 195.332C733.428 195.396 733.622 195.428 733.83 195.428C733.984 195.428 734.118 195.417 734.233 195.396C734.348 195.374 734.438 195.357 734.502 195.344L734.847 196.923C734.736 196.966 734.578 197.009 734.374 197.051C734.169 197.098 733.913 197.124 733.607 197.128C733.104 197.136 732.635 197.047 732.2 196.859C731.766 196.672 731.414 196.382 731.146 195.99C730.877 195.598 730.743 195.106 730.743 194.513V184.83ZM738.904 191.17V197H736.993V183.909H738.878V188.78H739C739.23 188.251 739.582 187.832 740.055 187.521C740.528 187.21 741.146 187.054 741.908 187.054C742.582 187.054 743.17 187.192 743.672 187.469C744.18 187.746 744.572 188.16 744.849 188.71C745.13 189.255 745.271 189.937 745.271 190.755V197H743.359V190.985C743.359 190.265 743.174 189.707 742.803 189.31C742.432 188.91 741.917 188.71 741.256 188.71C740.805 188.71 740.4 188.805 740.042 188.997C739.688 189.189 739.409 189.47 739.204 189.841C739.004 190.207 738.904 190.651 738.904 191.17Z" fill="black"/>
<circle cx="710.4" cy="59.4" r="32.4" fill="#01345C"/>
<mask id="path-13-inside-1_205_2" fill="white">
<path d="M715.189 54.6966C716.095 54.6966 716.963 55.0564 717.604 55.6969C718.244 56.3373 718.604 57.206 718.604 58.1117V67.5968C718.604 69.8113 717.725 71.9351 716.159 73.501C714.593 75.0669 712.469 75.9466 710.254 75.9466C708.04 75.9466 705.916 75.0669 704.35 73.501C702.784 71.9351 701.905 69.8113 701.905 67.5968V58.1117C701.905 57.206 702.265 56.3373 702.905 55.6969C703.546 55.0564 704.414 54.6966 705.32 54.6966H715.189ZM715.189 56.9734H705.32C705.018 56.9734 704.728 57.0933 704.515 57.3068C704.301 57.5203 704.182 57.8098 704.182 58.1117V67.5968C704.182 69.2075 704.821 70.7522 705.96 71.8911C707.099 73.03 708.644 73.6698 710.254 73.6698C711.865 73.6698 713.41 73.03 714.549 71.8911C715.688 70.7522 716.327 69.2075 716.327 67.5968V58.1117C716.327 57.8098 716.207 57.5203 715.994 57.3068C715.781 57.0933 715.491 56.9734 715.189 56.9734ZM695.451 54.6966H701.759C701.149 55.3309 700.721 56.1172 700.519 56.9734H695.451C695.149 56.9734 694.859 57.0933 694.646 57.3068C694.432 57.5203 694.312 57.8098 694.312 58.1117V66.079C694.312 66.8407 694.502 67.5904 694.867 68.2595C695.231 68.9285 695.757 69.4955 696.397 69.9086C697.037 70.3216 697.77 70.5675 698.53 70.6237C699.29 70.6799 700.051 70.5447 700.745 70.2303C700.947 70.9741 701.237 71.6814 701.601 72.3432C700.561 72.7976 699.425 72.9858 698.294 72.8907C697.163 72.7956 696.073 72.4202 695.124 71.7985C694.175 71.1768 693.395 70.3282 692.856 69.3297C692.317 68.3311 692.035 67.2139 692.036 66.079V58.1117C692.036 57.206 692.395 56.3373 693.036 55.6969C693.676 55.0564 694.545 54.6966 695.451 54.6966ZM725.049 54.6966C725.955 54.6966 726.823 55.0564 727.464 55.6969C728.104 56.3373 728.464 57.206 728.464 58.1117V66.0805C728.465 67.2146 728.183 68.3309 727.644 69.3288C727.105 70.3267 726.326 71.1747 725.378 71.7963C724.429 72.4179 723.341 72.7935 722.211 72.8892C721.08 72.985 719.944 72.7978 718.905 72.3447L718.99 72.1899C719.315 71.5736 719.577 70.9194 719.765 70.2334C720.459 70.5454 721.219 70.6788 721.978 70.6214C722.736 70.5639 723.468 70.3175 724.107 69.9045C724.745 69.4916 725.27 68.9253 725.634 68.2573C725.997 67.5893 726.187 66.841 726.187 66.0805V58.1117C726.187 57.8101 726.068 57.5208 725.855 57.3073C725.641 57.0939 725.352 56.9738 725.051 56.9734H719.992C719.789 56.117 719.36 55.3307 718.75 54.6966H725.049ZM710.25 42.5537C710.948 42.5537 711.638 42.6911 712.283 42.9581C712.927 43.2251 713.513 43.6164 714.006 44.1097C714.5 44.603 714.891 45.1887 715.158 45.8332C715.425 46.4777 715.562 47.1686 715.562 47.8662C715.562 48.5639 715.425 49.2547 715.158 49.8992C714.891 50.5438 714.5 51.1294 714.006 51.6227C713.513 52.116 712.927 52.5073 712.283 52.7743C711.638 53.0413 710.948 53.1787 710.25 53.1787C708.841 53.1787 707.49 52.619 706.493 51.6227C705.497 50.6264 704.937 49.2752 704.937 47.8662C704.937 46.4572 705.497 45.106 706.493 44.1097C707.49 43.1134 708.841 42.5537 710.25 42.5537ZM722.397 44.0716C722.995 44.0716 723.587 44.1893 724.14 44.4182C724.692 44.647 725.194 44.9824 725.617 45.4053C726.04 45.8281 726.375 46.3301 726.604 46.8826C726.833 47.435 726.951 48.0272 726.951 48.6251C726.951 49.2231 726.833 49.8153 726.604 50.3677C726.375 50.9202 726.04 51.4222 725.617 51.845C725.194 52.2678 724.692 52.6033 724.14 52.8321C723.587 53.0609 722.995 53.1787 722.397 53.1787C721.19 53.1787 720.031 52.699 719.177 51.845C718.324 50.991 717.844 49.8328 717.844 48.6251C717.844 47.4175 718.324 46.2592 719.177 45.4053C720.031 44.5513 721.19 44.0716 722.397 44.0716ZM698.103 44.0716C698.701 44.0716 699.293 44.1893 699.845 44.4182C700.398 44.647 700.9 44.9824 701.322 45.4053C701.745 45.8281 702.081 46.3301 702.309 46.8826C702.538 47.435 702.656 48.0272 702.656 48.6251C702.656 49.2231 702.538 49.8153 702.309 50.3677C702.081 50.9202 701.745 51.4222 701.322 51.845C700.9 52.2678 700.398 52.6033 699.845 52.8321C699.293 53.0609 698.701 53.1787 698.103 53.1787C696.895 53.1787 695.737 52.699 694.883 51.845C694.029 50.991 693.549 49.8328 693.549 48.6251C693.549 47.4175 694.029 46.2592 694.883 45.4053C695.737 44.5513 696.895 44.0716 698.103 44.0716ZM710.25 44.8305C709.445 44.8305 708.673 45.1503 708.103 45.7196C707.534 46.2889 707.214 47.0611 707.214 47.8662C707.214 48.6713 707.534 49.4435 708.103 50.0128C708.673 50.5821 709.445 50.9019 710.25 50.9019C711.055 50.9019 711.827 50.5821 712.397 50.0128C712.966 49.4435 713.286 48.6713 713.286 47.8662C713.286 47.0611 712.966 46.2889 712.397 45.7196C711.827 45.1503 711.055 44.8305 710.25 44.8305ZM722.397 46.3484C722.098 46.3484 721.802 46.4072 721.526 46.5217C721.25 46.6361 720.999 46.8038 720.787 47.0152C720.576 47.2266 720.408 47.4776 720.294 47.7539C720.179 48.0301 720.121 48.3261 720.121 48.6251C720.121 48.9241 720.179 49.2202 720.294 49.4964C720.408 49.7727 720.576 50.0237 720.787 50.2351C720.999 50.4465 721.25 50.6142 721.526 50.7286C721.802 50.843 722.098 50.9019 722.397 50.9019C723.001 50.9019 723.58 50.6621 724.007 50.2351C724.434 49.8081 724.674 49.229 724.674 48.6251C724.674 48.0213 724.434 47.4422 724.007 47.0152C723.58 46.5882 723.001 46.3484 722.397 46.3484ZM698.103 46.3484C697.804 46.3484 697.507 46.4072 697.231 46.5217C696.955 46.6361 696.704 46.8038 696.493 47.0152C696.281 47.2266 696.113 47.4776 695.999 47.7539C695.885 48.0301 695.826 48.3261 695.826 48.6251C695.826 48.9241 695.885 49.2202 695.999 49.4964C696.113 49.7727 696.281 50.0237 696.493 50.2351C696.704 50.4465 696.955 50.6142 697.231 50.7286C697.507 50.843 697.804 50.9019 698.103 50.9019C698.706 50.9019 699.285 50.6621 699.712 50.2351C700.139 49.8081 700.379 49.229 700.379 48.6251C700.379 48.0213 700.139 47.4422 699.712 47.0152C699.285 46.5882 698.706 46.3484 698.103 46.3484Z"/>
</mask>
<path d="M715.189 54.6966C716.095 54.6966 716.963 55.0564 717.604 55.6969C718.244 56.3373 718.604 57.206 718.604 58.1117V67.5968C718.604 69.8113 717.725 71.9351 716.159 73.501C714.593 75.0669 712.469 75.9466 710.254 75.9466C708.04 75.9466 705.916 75.0669 704.35 73.501C702.784 71.9351 701.905 69.8113 701.905 67.5968V58.1117C701.905 57.206 702.265 56.3373 702.905 55.6969C703.546 55.0564 704.414 54.6966 705.32 54.6966H715.189ZM715.189 56.9734H705.32C705.018 56.9734 704.728 57.0933 704.515 57.3068C704.301 57.5203 704.182 57.8098 704.182 58.1117V67.5968C704.182 69.2075 704.821 70.7522 705.96 71.8911C707.099 73.03 708.644 73.6698 710.254 73.6698C711.865 73.6698 713.41 73.03 714.549 71.8911C715.688 70.7522 716.327 69.2075 716.327 67.5968V58.1117C716.327 57.8098 716.207 57.5203 715.994 57.3068C715.781 57.0933 715.491 56.9734 715.189 56.9734ZM695.451 54.6966H701.759C701.149 55.3309 700.721 56.1172 700.519 56.9734H695.451C695.149 56.9734 694.859 57.0933 694.646 57.3068C694.432 57.5203 694.312 57.8098 694.312 58.1117V66.079C694.312 66.8407 694.502 67.5904 694.867 68.2595C695.231 68.9285 695.757 69.4955 696.397 69.9086C697.037 70.3216 697.77 70.5675 698.53 70.6237C699.29 70.6799 700.051 70.5447 700.745 70.2303C700.947 70.9741 701.237 71.6814 701.601 72.3432C700.561 72.7976 699.425 72.9858 698.294 72.8907C697.163 72.7956 696.073 72.4202 695.124 71.7985C694.175 71.1768 693.395 70.3282 692.856 69.3297C692.317 68.3311 692.035 67.2139 692.036 66.079V58.1117C692.036 57.206 692.395 56.3373 693.036 55.6969C693.676 55.0564 694.545 54.6966 695.451 54.6966ZM725.049 54.6966C725.955 54.6966 726.823 55.0564 727.464 55.6969C728.104 56.3373 728.464 57.206 728.464 58.1117V66.0805C728.465 67.2146 728.183 68.3309 727.644 69.3288C727.105 70.3267 726.326 71.1747 725.378 71.7963C724.429 72.4179 723.341 72.7935 722.211 72.8892C721.08 72.985 719.944 72.7978 718.905 72.3447L718.99 72.1899C719.315 71.5736 719.577 70.9194 719.765 70.2334C720.459 70.5454 721.219 70.6788 721.978 70.6214C722.736 70.5639 723.468 70.3175 724.107 69.9045C724.745 69.4916 725.27 68.9253 725.634 68.2573C725.997 67.5893 726.187 66.841 726.187 66.0805V58.1117C726.187 57.8101 726.068 57.5208 725.855 57.3073C725.641 57.0939 725.352 56.9738 725.051 56.9734H719.992C719.789 56.117 719.36 55.3307 718.75 54.6966H725.049ZM710.25 42.5537C710.948 42.5537 711.638 42.6911 712.283 42.9581C712.927 43.2251 713.513 43.6164 714.006 44.1097C714.5 44.603 714.891 45.1887 715.158 45.8332C715.425 46.4777 715.562 47.1686 715.562 47.8662C715.562 48.5639 715.425 49.2547 715.158 49.8992C714.891 50.5438 714.5 51.1294 714.006 51.6227C713.513 52.116 712.927 52.5073 712.283 52.7743C711.638 53.0413 710.948 53.1787 710.25 53.1787C708.841 53.1787 707.49 52.619 706.493 51.6227C705.497 50.6264 704.937 49.2752 704.937 47.8662C704.937 46.4572 705.497 45.106 706.493 44.1097C707.49 43.1134 708.841 42.5537 710.25 42.5537ZM722.397 44.0716C722.995 44.0716 723.587 44.1893 724.14 44.4182C724.692 44.647 725.194 44.9824 725.617 45.4053C726.04 45.8281 726.375 46.3301 726.604 46.8826C726.833 47.435 726.951 48.0272 726.951 48.6251C726.951 49.2231 726.833 49.8153 726.604 50.3677C726.375 50.9202 726.04 51.4222 725.617 51.845C725.194 52.2678 724.692 52.6033 724.14 52.8321C723.587 53.0609 722.995 53.1787 722.397 53.1787C721.19 53.1787 720.031 52.699 719.177 51.845C718.324 50.991 717.844 49.8328 717.844 48.6251C717.844 47.4175 718.324 46.2592 719.177 45.4053C720.031 44.5513 721.19 44.0716 722.397 44.0716ZM698.103 44.0716C698.701 44.0716 699.293 44.1893 699.845 44.4182C700.398 44.647 700.9 44.9824 701.322 45.4053C701.745 45.8281 702.081 46.3301 702.309 46.8826C702.538 47.435 702.656 48.0272 702.656 48.6251C702.656 49.2231 702.538 49.8153 702.309 50.3677C702.081 50.9202 701.745 51.4222 701.322 51.845C700.9 52.2678 700.398 52.6033 699.845 52.8321C699.293 53.0609 698.701 53.1787 698.103 53.1787C696.895 53.1787 695.737 52.699 694.883 51.845C694.029 50.991 693.549 49.8328 693.549 48.6251C693.549 47.4175 694.029 46.2592 694.883 45.4053C695.737 44.5513 696.895 44.0716 698.103 44.0716ZM710.25 44.8305C709.445 44.8305 708.673 45.1503 708.103 45.7196C707.534 46.2889 707.214 47.0611 707.214 47.8662C707.214 48.6713 707.534 49.4435 708.103 50.0128C708.673 50.5821 709.445 50.9019 710.25 50.9019C711.055 50.9019 711.827 50.5821 712.397 50.0128C712.966 49.4435 713.286 48.6713 713.286 47.8662C713.286 47.0611 712.966 46.2889 712.397 45.7196C711.827 45.1503 711.055 44.8305 710.25 44.8305ZM722.397 46.3484C722.098 46.3484 721.802 46.4072 721.526 46.5217C721.25 46.6361 720.999 46.8038 720.787 47.0152C720.576 47.2266 720.408 47.4776 720.294 47.7539C720.179 48.0301 720.121 48.3261 720.121 48.6251C720.121 48.9241 720.179 49.2202 720.294 49.4964C720.408 49.7727 720.576 50.0237 720.787 50.2351C720.999 50.4465 721.25 50.6142 721.526 50.7286C721.802 50.843 722.098 50.9019 722.397 50.9019C723.001 50.9019 723.58 50.6621 724.007 50.2351C724.434 49.8081 724.674 49.229 724.674 48.6251C724.674 48.0213 724.434 47.4422 724.007 47.0152C723.58 46.5882 723.001 46.3484 722.397 46.3484ZM698.103 46.3484C697.804 46.3484 697.507 46.4072 697.231 46.5217C696.955 46.6361 696.704 46.8038 696.493 47.0152C696.281 47.2266 696.113 47.4776 695.999 47.7539C695.885 48.0301 695.826 48.3261 695.826 48.6251C695.826 48.9241 695.885 49.2202 695.999 49.4964C696.113 49.7727 696.281 50.0237 696.493 50.2351C696.704 50.4465 696.955 50.6142 697.231 50.7286C697.507 50.843 697.804 50.9019 698.103 50.9019C698.706 50.9019 699.285 50.6621 699.712 50.2351C700.139 49.8081 700.379 49.229 700.379 48.6251C700.379 48.0213 700.139 47.4422 699.712 47.0152C699.285 46.5882 698.706 46.3484 698.103 46.3484Z" fill="white" stroke="white" stroke-width="6" mask="url(#path-13-inside-1_205_2)"/>
<path d="M857.344 161.909H859.741L863.909 172.085H864.062L868.23 161.909H870.627V175H868.748V165.527H868.626L864.766 174.981H863.206L859.345 165.521H859.224V175H857.344V161.909ZM876.203 175.217C875.58 175.217 875.018 175.102 874.515 174.872C874.012 174.638 873.614 174.299 873.32 173.856C873.03 173.413 872.885 172.869 872.885 172.226C872.885 171.672 872.992 171.216 873.205 170.858C873.418 170.5 873.705 170.217 874.068 170.008C874.43 169.799 874.835 169.641 875.282 169.535C875.73 169.428 876.186 169.347 876.65 169.292C877.238 169.224 877.715 169.168 878.082 169.126C878.448 169.079 878.715 169.004 878.881 168.902C879.047 168.8 879.13 168.634 879.13 168.403V168.359C879.13 167.8 878.972 167.368 878.657 167.061C878.346 166.754 877.882 166.601 877.264 166.601C876.62 166.601 876.113 166.744 875.742 167.029C875.376 167.31 875.122 167.624 874.982 167.969L873.186 167.56C873.399 166.963 873.71 166.482 874.119 166.115C874.532 165.744 875.007 165.476 875.544 165.31C876.081 165.139 876.646 165.054 877.238 165.054C877.63 165.054 878.046 165.101 878.485 165.195C878.928 165.284 879.341 165.45 879.725 165.693C880.112 165.936 880.43 166.283 880.677 166.735C880.924 167.183 881.048 167.764 881.048 168.48V175H879.181V173.658H879.105C878.981 173.905 878.796 174.148 878.548 174.386C878.301 174.625 877.984 174.823 877.596 174.981C877.208 175.138 876.744 175.217 876.203 175.217ZM876.618 173.683C877.146 173.683 877.598 173.579 877.973 173.37C878.352 173.161 878.64 172.888 878.836 172.552C879.036 172.211 879.137 171.847 879.137 171.459V170.193C879.068 170.261 878.936 170.325 878.74 170.385C878.548 170.44 878.329 170.489 878.082 170.532C877.835 170.57 877.594 170.607 877.36 170.641C877.125 170.67 876.929 170.696 876.771 170.717C876.401 170.764 876.062 170.843 875.755 170.954C875.453 171.065 875.21 171.224 875.026 171.433C874.847 171.638 874.758 171.911 874.758 172.251C874.758 172.724 874.933 173.082 875.282 173.325C875.632 173.564 876.077 173.683 876.618 173.683ZM883.593 175V165.182H885.441V166.741H885.543C885.722 166.213 886.037 165.798 886.489 165.495C886.945 165.188 887.461 165.035 888.036 165.035C888.155 165.035 888.296 165.039 888.458 165.048C888.624 165.056 888.754 165.067 888.848 165.08V166.908C888.771 166.886 888.635 166.863 888.439 166.837C888.243 166.808 888.047 166.793 887.85 166.793C887.399 166.793 886.996 166.888 886.642 167.08C886.293 167.268 886.016 167.53 885.811 167.866C885.607 168.199 885.505 168.578 885.505 169.004V175H883.593ZM892.259 171.67L892.247 169.337H892.579L896.491 165.182H898.779L894.318 169.912H894.017L892.259 171.67ZM890.502 175V161.909H892.413V175H890.502ZM896.702 175L893.186 170.334L894.503 168.998L899.048 175H896.702ZM904.348 175.198C903.381 175.198 902.548 174.991 901.849 174.578C901.154 174.161 900.618 173.575 900.238 172.82C899.863 172.062 899.676 171.173 899.676 170.155C899.676 169.149 899.863 168.263 900.238 167.496C900.618 166.729 901.146 166.13 901.824 165.7C902.505 165.269 903.302 165.054 904.214 165.054C904.768 165.054 905.305 165.146 905.825 165.329C906.345 165.512 906.811 165.8 907.225 166.192C907.638 166.584 907.964 167.093 908.203 167.719C908.441 168.342 908.561 169.098 908.561 169.989V170.666H900.756V169.234H906.688C906.688 168.732 906.586 168.286 906.381 167.898C906.176 167.506 905.889 167.197 905.518 166.972C905.152 166.746 904.721 166.633 904.227 166.633C903.69 166.633 903.221 166.765 902.821 167.029C902.424 167.289 902.118 167.63 901.9 168.052C901.687 168.469 901.581 168.923 901.581 169.413V170.532C901.581 171.188 901.696 171.746 901.926 172.207C902.16 172.667 902.486 173.018 902.904 173.261C903.321 173.5 903.809 173.619 904.368 173.619C904.73 173.619 905.06 173.568 905.358 173.466C905.657 173.359 905.914 173.202 906.132 172.993C906.349 172.784 906.515 172.526 906.63 172.219L908.439 172.545C908.294 173.078 908.034 173.545 907.659 173.945C907.289 174.342 906.822 174.651 906.26 174.872C905.701 175.089 905.064 175.198 904.348 175.198ZM915.264 165.182V166.716H909.901V165.182H915.264ZM911.34 162.83H913.251V172.117C913.251 172.488 913.306 172.767 913.417 172.955C913.528 173.138 913.671 173.263 913.845 173.332C914.024 173.396 914.218 173.428 914.427 173.428C914.58 173.428 914.715 173.417 914.83 173.396C914.945 173.374 915.034 173.357 915.098 173.344L915.443 174.923C915.333 174.966 915.175 175.009 914.97 175.051C914.766 175.098 914.51 175.124 914.203 175.128C913.7 175.136 913.232 175.047 912.797 174.859C912.362 174.672 912.011 174.382 911.742 173.99C911.474 173.598 911.34 173.106 911.34 172.513V162.83ZM847.295 200.682V187.182H849.161V188.773H849.321C849.432 188.569 849.591 188.332 849.8 188.064C850.009 187.795 850.299 187.561 850.67 187.361C851.04 187.156 851.53 187.054 852.14 187.054C852.932 187.054 853.64 187.254 854.262 187.655C854.884 188.055 855.372 188.633 855.726 189.387C856.084 190.141 856.263 191.049 856.263 192.11C856.263 193.171 856.086 194.081 855.732 194.839C855.378 195.594 854.893 196.175 854.275 196.585C853.657 196.989 852.952 197.192 852.159 197.192C851.562 197.192 851.074 197.092 850.695 196.891C850.32 196.691 850.026 196.457 849.813 196.188C849.6 195.92 849.436 195.681 849.321 195.472H849.206V200.682H847.295ZM849.167 192.091C849.167 192.781 849.268 193.386 849.468 193.906C849.668 194.426 849.958 194.833 850.337 195.127C850.716 195.417 851.181 195.562 851.731 195.562C852.302 195.562 852.779 195.411 853.162 195.108C853.546 194.801 853.836 194.386 854.032 193.862C854.232 193.337 854.332 192.747 854.332 192.091C854.332 191.443 854.234 190.862 854.038 190.346C853.846 189.83 853.557 189.423 853.169 189.125C852.785 188.827 852.306 188.678 851.731 188.678C851.177 188.678 850.708 188.82 850.324 189.106C849.945 189.391 849.657 189.79 849.461 190.301C849.265 190.812 849.167 191.409 849.167 192.091ZM858.404 197V187.182H860.251V188.741H860.354C860.532 188.213 860.848 187.798 861.3 187.495C861.756 187.188 862.271 187.035 862.846 187.035C862.966 187.035 863.106 187.039 863.268 187.048C863.434 187.056 863.564 187.067 863.658 187.08V188.908C863.581 188.886 863.445 188.863 863.249 188.837C863.053 188.808 862.857 188.793 862.661 188.793C862.209 188.793 861.807 188.888 861.453 189.08C861.104 189.268 860.827 189.53 860.622 189.866C860.417 190.199 860.315 190.578 860.315 191.004V197H858.404ZM869.192 197.198C868.225 197.198 867.392 196.991 866.693 196.578C865.998 196.161 865.461 195.575 865.082 194.82C864.707 194.062 864.52 193.173 864.52 192.155C864.52 191.149 864.707 190.263 865.082 189.496C865.461 188.729 865.99 188.13 866.667 187.7C867.349 187.269 868.146 187.054 869.058 187.054C869.612 187.054 870.149 187.146 870.669 187.329C871.189 187.512 871.655 187.8 872.069 188.192C872.482 188.584 872.808 189.093 873.047 189.719C873.285 190.342 873.404 191.098 873.404 191.989V192.666H865.6V191.234H871.532C871.532 190.732 871.429 190.286 871.225 189.898C871.02 189.506 870.733 189.197 870.362 188.972C869.995 188.746 869.565 188.633 869.071 188.633C868.534 188.633 868.065 188.765 867.664 189.029C867.268 189.289 866.961 189.63 866.744 190.052C866.531 190.469 866.424 190.923 866.424 191.413V192.532C866.424 193.188 866.539 193.746 866.77 194.207C867.004 194.667 867.33 195.018 867.748 195.261C868.165 195.5 868.653 195.619 869.211 195.619C869.574 195.619 869.904 195.568 870.202 195.466C870.5 195.359 870.758 195.202 870.975 194.993C871.193 194.784 871.359 194.526 871.474 194.219L873.283 194.545C873.138 195.078 872.878 195.545 872.503 195.945C872.132 196.342 871.666 196.651 871.103 196.872C870.545 197.089 869.908 197.198 869.192 197.198ZM882.882 189.579L881.15 189.886C881.078 189.664 880.963 189.453 880.805 189.253C880.651 189.053 880.443 188.888 880.178 188.761C879.914 188.633 879.584 188.569 879.188 188.569C878.646 188.569 878.195 188.69 877.833 188.933C877.47 189.172 877.289 189.481 877.289 189.86C877.289 190.188 877.411 190.452 877.654 190.653C877.896 190.853 878.289 191.017 878.83 191.145L880.389 191.503C881.293 191.712 881.966 192.033 882.409 192.468C882.852 192.903 883.074 193.467 883.074 194.162C883.074 194.75 882.904 195.274 882.563 195.734C882.226 196.19 881.755 196.548 881.15 196.808C880.549 197.068 879.852 197.198 879.06 197.198C877.96 197.198 877.063 196.964 876.369 196.495C875.674 196.022 875.248 195.351 875.09 194.482L876.938 194.2C877.053 194.682 877.289 195.046 877.647 195.293C878.005 195.536 878.472 195.658 879.047 195.658C879.673 195.658 880.174 195.528 880.549 195.268C880.924 195.004 881.112 194.682 881.112 194.303C881.112 193.996 880.997 193.738 880.767 193.529C880.541 193.32 880.193 193.163 879.725 193.056L878.063 192.692C877.146 192.483 876.469 192.151 876.03 191.695C875.595 191.239 875.378 190.661 875.378 189.962C875.378 189.383 875.54 188.876 875.864 188.441C876.188 188.006 876.635 187.668 877.206 187.425C877.777 187.178 878.431 187.054 879.169 187.054C880.23 187.054 881.065 187.284 881.674 187.744C882.284 188.2 882.686 188.812 882.882 189.579ZM889.407 197.198C888.44 197.198 887.607 196.991 886.908 196.578C886.213 196.161 885.676 195.575 885.297 194.82C884.922 194.062 884.734 193.173 884.734 192.155C884.734 191.149 884.922 190.263 885.297 189.496C885.676 188.729 886.205 188.13 886.882 187.7C887.564 187.269 888.361 187.054 889.273 187.054C889.827 187.054 890.364 187.146 890.884 187.329C891.403 187.512 891.87 187.8 892.283 188.192C892.697 188.584 893.023 189.093 893.261 189.719C893.5 190.342 893.619 191.098 893.619 191.989V192.666H885.815V191.234H891.746C891.746 190.732 891.644 190.286 891.44 189.898C891.235 189.506 890.947 189.197 890.577 188.972C890.21 188.746 889.78 188.633 889.286 188.633C888.749 188.633 888.28 188.765 887.879 189.029C887.483 189.289 887.176 189.63 886.959 190.052C886.746 190.469 886.639 190.923 886.639 191.413V192.532C886.639 193.188 886.754 193.746 886.984 194.207C887.219 194.667 887.545 195.018 887.962 195.261C888.38 195.5 888.868 195.619 889.426 195.619C889.788 195.619 890.119 195.568 890.417 195.466C890.715 195.359 890.973 195.202 891.19 194.993C891.408 194.784 891.574 194.526 891.689 194.219L893.498 194.545C893.353 195.078 893.093 195.545 892.718 195.945C892.347 196.342 891.881 196.651 891.318 196.872C890.76 197.089 890.123 197.198 889.407 197.198ZM897.651 191.17V197H895.74V187.182H897.574V188.78H897.696C897.922 188.26 898.275 187.842 898.757 187.527C899.243 187.212 899.854 187.054 900.591 187.054C901.26 187.054 901.846 187.195 902.349 187.476C902.852 187.753 903.242 188.166 903.519 188.716C903.796 189.266 903.934 189.945 903.934 190.755V197H902.023V190.985C902.023 190.273 901.838 189.717 901.467 189.317C901.096 188.912 900.587 188.71 899.939 188.71C899.496 188.71 899.102 188.805 898.757 188.997C898.416 189.189 898.145 189.47 897.945 189.841C897.749 190.207 897.651 190.651 897.651 191.17ZM910.633 197.198C909.683 197.198 908.865 196.983 908.179 196.553C907.497 196.118 906.973 195.519 906.606 194.756C906.24 193.994 906.057 193.12 906.057 192.136C906.057 191.138 906.244 190.259 906.619 189.496C906.994 188.729 907.523 188.13 908.204 187.7C908.886 187.269 909.689 187.054 910.614 187.054C911.36 187.054 912.025 187.192 912.608 187.469C913.192 187.742 913.663 188.126 914.021 188.62C914.383 189.114 914.599 189.692 914.667 190.352H912.807C912.704 189.892 912.47 189.496 912.104 189.163C911.741 188.831 911.256 188.665 910.646 188.665C910.113 188.665 909.647 188.805 909.246 189.087C908.85 189.364 908.541 189.76 908.319 190.276C908.098 190.787 907.987 191.392 907.987 192.091C907.987 192.807 908.096 193.425 908.313 193.945C908.53 194.464 908.837 194.867 909.233 195.153C909.634 195.438 910.105 195.581 910.646 195.581C911.008 195.581 911.336 195.515 911.631 195.383C911.929 195.246 912.178 195.053 912.378 194.801C912.583 194.55 912.726 194.247 912.807 193.893H914.667C914.599 194.528 914.392 195.095 914.047 195.594C913.702 196.092 913.239 196.484 912.66 196.77C912.084 197.055 911.409 197.198 910.633 197.198ZM920.942 197.198C919.975 197.198 919.142 196.991 918.443 196.578C917.748 196.161 917.211 195.575 916.832 194.82C916.457 194.062 916.27 193.173 916.27 192.155C916.27 191.149 916.457 190.263 916.832 189.496C917.211 188.729 917.74 188.13 918.417 187.7C919.099 187.269 919.896 187.054 920.808 187.054C921.362 187.054 921.899 187.146 922.419 187.329C922.939 187.512 923.405 187.8 923.819 188.192C924.232 188.584 924.558 189.093 924.797 189.719C925.035 190.342 925.154 191.098 925.154 191.989V192.666H917.35V191.234H923.282C923.282 190.732 923.179 190.286 922.975 189.898C922.77 189.506 922.483 189.197 922.112 188.972C921.745 188.746 921.315 188.633 920.821 188.633C920.284 188.633 919.815 188.765 919.414 189.029C919.018 189.289 918.711 189.63 918.494 190.052C918.281 190.469 918.174 190.923 918.174 191.413V192.532C918.174 193.188 918.289 193.746 918.52 194.207C918.754 194.667 919.08 195.018 919.498 195.261C919.915 195.5 920.403 195.619 920.961 195.619C921.324 195.619 921.654 195.568 921.952 195.466C922.25 195.359 922.508 195.202 922.725 194.993C922.943 194.784 923.109 194.526 923.224 194.219L925.033 194.545C924.888 195.078 924.628 195.545 924.253 195.945C923.882 196.342 923.416 196.651 922.853 196.872C922.295 197.089 921.658 197.198 920.942 197.198Z" fill="black"/>
<circle cx="886.4" cy="59.4" r="32.4" fill="#01345C"/>
<path d="M902.63 59.2503C902.63 54.906 900.904 50.7397 897.832 47.6678C894.761 44.5959 890.594 42.8701 886.25 42.8701M902.63 59.2503H869.87M902.63 59.2503C902.63 63.5946 900.904 67.761 897.832 70.8329C894.761 73.9048 890.594 75.6305 886.25 75.6305M886.25 42.8701C881.906 42.8701 877.739 44.5959 874.667 47.6678C871.595 50.7397 869.87 54.906 869.87 59.2503M886.25 42.8701C885.364 42.8701 879.167 50.2031 879.167 59.2503C879.167 68.2975 885.364 75.6305 886.25 75.6305M886.25 42.8701C887.135 42.8701 893.333 50.2031 893.333 59.2503C893.333 68.2975 887.135 75.6305 886.25 75.6305M869.87 59.2503C869.87 63.5946 871.595 67.761 874.667 70.8329C877.739 73.9048 881.906 75.6305 886.25 75.6305" stroke="white" stroke-width="3" stroke-linecap="round" stroke-linejoin="round"/>
</svg>
