<svg width="2333" height="2260" xmlns="http://www.w3.org/2000/svg" xmlns:xlink="http://www.w3.org/1999/xlink" xml:space="preserve" overflow="hidden"><g transform="translate(-230 -665)"><text font-family="Roboto,Roboto_MSFontService,sans-serif" font-weight="400" font-size="55" transform="matrix(1 0 0 1 268.068 1663)">It includes consolidation of the data processed from the primary and secondary sources </text><text font-family="Roboto,Roboto_MSFontService,sans-serif" font-weight="400" font-size="55" transform="matrix(1 0 0 1 268.068 1729)">during the data validation phase. This step ensures the representation of final data set in the </text><text font-family="Roboto,Roboto_MSFontService,sans-serif" font-weight="400" font-size="55" transform="matrix(1 0 0 1 268.068 1795)">form of graphical presentation with accuracy on market estimation.</text><text font-family="Roboto,Roboto_MSFontService,sans-serif" font-weight="400" font-size="55" transform="matrix(1 0 0 1 279.353 2107)">For calculating and estimating the market size, Technavio considers various data derivation </text><text font-family="Roboto,Roboto_MSFontService,sans-serif" font-weight="400" font-size="55" transform="matrix(1 0 0 1 279.353 2173)">approaches. Among many, some of the prominent approaches used are as follows:</text><text font-family="Arial,Arial_MSFontService,sans-serif" font-weight="400" font-size="55" transform="matrix(1 0 0 1 279.353 2267)">•</text><text font-family="Roboto,Roboto_MSFontService,sans-serif" font-weight="400" font-size="55" transform="matrix(1 0 0 1 326.332 2267)">Top</text><text font-family="Roboto,Roboto_MSFontService,sans-serif" font-weight="400" font-size="55" transform="matrix(1 0 0 1 421.436 2267)">-</text><text font-family="Roboto,Roboto_MSFontService,sans-serif" font-weight="400" font-size="55" transform="matrix(1 0 0 1 436.905 2267)">down approach</text><text font-family="Arial,Arial_MSFontService,sans-serif" font-weight="400" font-size="55" transform="matrix(1 0 0 1 279.353 2360)">•</text><text font-family="Roboto,Roboto_MSFontService,sans-serif" font-weight="400" font-size="55" transform="matrix(1 0 0 1 326.332 2360)">Bottom</text><text font-family="Roboto,Roboto_MSFontService,sans-serif" font-weight="400" font-size="55" transform="matrix(1 0 0 1 507.374 2360)">-</text><text font-family="Roboto,Roboto_MSFontService,sans-serif" font-weight="400" font-size="55" transform="matrix(1 0 0 1 522.843 2360)">up approach</text><text font-family="Roboto,Roboto_MSFontService,sans-serif" font-weight="400" font-size="55" transform="matrix(1 0 0 1 279.353 2454)">The derived data and findings are then validated through primary calls and interviews to fill </text><text font-family="Roboto,Roboto_MSFontService,sans-serif" font-weight="400" font-size="55" transform="matrix(1 0 0 1 279.353 2520)">any data gaps. We interview market experts and key business executives within these </text><text font-family="Roboto,Roboto_MSFontService,sans-serif" font-weight="400" font-size="55" transform="matrix(1 0 0 1 279.353 2586)">markets. </text><text font-family="Roboto,Roboto_MSFontService,sans-serif" font-weight="400" font-size="55" transform="matrix(1 0 0 1 279.353 2679)">Market estimation of the project also includes historical data analysis and forecast data </text><text font-family="Roboto,Roboto_MSFontService,sans-serif" font-weight="400" font-size="55" transform="matrix(1 0 0 1 279.353 2745)">analysis of the market. Historical data is provided based on the sales/revenue generated by </text><text font-family="Roboto,Roboto_MSFontService,sans-serif" font-weight="400" font-size="55" transform="matrix(1 0 0 1 279.353 2811)">the market participants, facing micro and macro</text><text font-family="Roboto,Roboto_MSFontService,sans-serif" font-weight="400" font-size="55" transform="matrix(1 0 0 1 1452.11 2811)">-</text><text font-family="Roboto,Roboto_MSFontService,sans-serif" font-weight="400" font-size="55" transform="matrix(1 0 0 1 1467.58 2811)">level threats and opportunities and their </text><text font-family="Roboto,Roboto_MSFontService,sans-serif" font-weight="400" font-size="55" transform="matrix(1 0 0 1 279.353 2877)">impact on the overall market growth.</text><rect x="273" y="1483" width="609" height="96.9999" fill="#11BBD8"/><text fill="#FFFFFF" font-family="Roboto Condensed Condensed,Roboto Condensed Condensed_MSFontService,sans-serif" font-weight="400" font-stretch="condensed" font-size="64" transform="matrix(1 0 0 1 305.587 1554)">Data integration</text><rect x="231" y="1483" width="16.0002" height="96.9999" fill="#11BBD8"/><path d="M231 1487 235.44 1799.45" stroke="#11BBD8" stroke-width="2.29167" stroke-miterlimit="8" fill="none" fill-rule="evenodd"/><rect x="294" y="1918" width="669" height="95.9999" fill="#07234B"/><text fill="#FFFFFF" font-family="Roboto Condensed Condensed,Roboto Condensed Condensed_MSFontService,sans-serif" font-weight="400" font-stretch="condensed" font-size="64" transform="matrix(1 0 0 1 327.042 1989)">Market engineering</text><rect x="243" y="1918" width="15.9998" height="95.9999" fill="#07234B"/><path d="M242 1922 242 2879.46" stroke="#07234B" stroke-width="2.29167" stroke-miterlimit="8" fill="none" fill-rule="evenodd"/><path d="M490.289 433.512 490.289 587.207C490.289 626.384 456.026 658.028 413.605 658.028L84.0264 658.028C41.6054 657.726 7.34202 626.083 7.34202 586.906L7.34202 77.6012C7.34202 38.4239 41.6054 6.7806 84.0264 6.7806L413.605 6.7806C456.026 6.7806 490.289 38.4239 490.289 77.6012L490.289 332.253" stroke="#07234B" stroke-width="11.4583" stroke-miterlimit="8" fill="#FFFFFF" fill-rule="evenodd" transform="matrix(-1 0 0 1 2294.5 664.5)"/><path d="M1648.78 1098.01 1648.78 1251.71C1648.78 1290.88 1614.45 1322.53 1571.94 1322.53L1241.7 1322.53C1199.19 1322.23 1164.86 1290.58 1164.86 1251.41L1164.86 742.101C1164.86 702.924 1199.19 671.281 1241.7 671.281L1571.94 671.281C1614.45 671.281 1648.78 702.924 1648.78 742.101L1648.78 996.753" stroke="#11BBD8" stroke-width="11.4583" stroke-miterlimit="8" fill="#FFFFFF" fill-rule="evenodd"/><path d="M1798.49 1068.25 1680.8 1068.25C1673.63 1068.25 1666.46 1070.35 1660.92 1074.25 1655.05 1078.45 1649.83 1085.65 1649.83 1097.65" stroke="#11BBD8" stroke-width="11.4583" stroke-miterlimit="8" fill="none" fill-rule="evenodd"/><path d="M1755.5 1040.5 1802.5 1068.25 1756.62 1094.5" stroke="#11BBD8" stroke-width="11.4583" stroke-miterlimit="8" fill="none" fill-rule="evenodd"/><rect x="1075" y="1017" width="164" height="85.9999" fill="#FFFFFF"/><path d="M1001.79 1098.01 1001.79 1251.71C1001.79 1290.88 967.526 1322.53 925.105 1322.53L595.526 1322.53C553.105 1322.23 518.842 1290.58 518.842 1251.41L518.842 742.101C518.842 702.924 553.105 671.281 595.526 671.281L925.105 671.281C967.526 671.281 1001.79 702.924 1001.79 742.101L1001.79 996.753" stroke="#07234B" stroke-width="11.4583" stroke-miterlimit="8" fill="#FFFFFF" fill-rule="evenodd"/><path d="M1150.49 1077.25 1032.81 1077.25C1025.63 1077.25 1018.46 1079.35 1012.92 1083.25 1007.05 1087.45 1001.83 1094.65 1001.83 1106.65" stroke="#07234B" stroke-width="11.4583" stroke-miterlimit="8" fill="none" fill-rule="evenodd"/><path d="M1108.5 1050.5 1155.5 1078.25 1109.62 1104.5" stroke="#07234B" stroke-width="11.4583" stroke-miterlimit="8" fill="none" fill-rule="evenodd"/><text font-family="Roboto,Roboto_MSFontService,sans-serif" font-weight="400" font-size="73" transform="matrix(1 0 0 1 653.744 1082)">Market</text><text font-family="Roboto,Roboto_MSFontService,sans-serif" font-weight="400" font-size="73" transform="matrix(1 0 0 1 566.936 1170)">Engineering</text><text font-family="Roboto,Roboto_MSFontService,sans-serif" font-weight="400" font-size="73" transform="matrix(1 0 0 1 1329.16 1082)">Data</text><text font-family="Roboto,Roboto_MSFontService,sans-serif" font-weight="400" font-size="73" transform="matrix(1 0 0 1 1228.33 1170)">Integration</text><text font-family="Roboto,Roboto_MSFontService,sans-serif" font-weight="400" font-size="73" transform="matrix(1 0 0 1 1969.65 1090)">Data</text><text font-family="Roboto,Roboto_MSFontService,sans-serif" font-weight="400" font-size="73" transform="matrix(1 0 0 1 1887.73 1169)">Synthesis</text><g><g><g><path d="M163.625 167.875 163.625 40.375C163.625 27.9523 131.876 21.25 102 21.25 72.1247 21.25 40.375 27.9523 40.375 40.375L40.375 167.875C40.375 180.298 72.1247 187 102 187 131.876 187 163.625 180.298 163.625 167.875ZM102 25.5C134.838 25.5 159.375 33.3625 159.375 40.375 159.375 47.3875 134.838 55.2501 102 55.2501 69.1624 55.2501 44.625 47.3875 44.625 40.375 44.625 33.3625 69.1624 25.5 102 25.5ZM44.625 47.7275C54.2492 55.4201 78.6952 59.5001 102 59.5001 125.305 59.5001 149.751 55.4201 159.375 47.7275L159.375 82.8751C159.375 89.8876 134.838 97.7501 102 97.7501 69.1624 97.7501 44.625 89.8876 44.625 82.8751ZM44.625 90.2276C54.2492 97.9201 78.6952 102 102 102 125.305 102 149.751 97.9201 159.375 90.2276L159.375 125.375C159.375 132.388 134.838 140.25 102 140.25 69.1624 140.25 44.625 132.388 44.625 125.375ZM44.625 167.875 44.625 132.728C54.2492 140.42 78.6952 144.5 102 144.5 125.305 144.5 149.751 140.42 159.375 132.728L159.375 167.875C159.375 174.888 134.838 182.75 102 182.75 69.1624 182.75 44.625 174.888 44.625 167.875Z" stroke="#07234B" stroke-width="2.34466" fill="#203864" transform="matrix(1 0 0 1.0098 1944 726)"/><path d="M148.75 76.5001C148.75 78.8473 146.847 80.7501 144.5 80.7501 142.153 80.7501 140.25 78.8473 140.25 76.5001 140.25 74.1529 142.153 72.2501 144.5 72.2501 146.847 72.2501 148.75 74.1529 148.75 76.5001Z" stroke="#07234B" stroke-width="2.34466" fill="#203864" transform="matrix(1 0 0 1.0098 1944 726)"/><path d="M148.75 119C148.75 121.347 146.847 123.25 144.5 123.25 142.153 123.25 140.25 121.347 140.25 119 140.25 116.653 142.153 114.75 144.5 114.75 146.847 114.75 148.75 116.653 148.75 119Z" stroke="#07234B" stroke-width="2.34466" fill="#203864" transform="matrix(1 0 0 1.0098 1944 726)"/><path d="M148.75 161.5C148.75 163.847 146.847 165.75 144.5 165.75 142.153 165.75 140.25 163.847 140.25 161.5 140.25 159.153 142.153 157.25 144.5 157.25 146.847 157.25 148.75 159.153 148.75 161.5Z" stroke="#07234B" stroke-width="2.34466" fill="#203864" transform="matrix(1 0 0 1.0098 1944 726)"/></g></g></g><g><g><g><path d="M105.082 119.031C93.6999 124.48 80.1193 122.17 71.179 113.264L52.1819 94.2667C40.5512 82.6451 40.5438 63.7954 52.1651 52.1646 63.7868 40.5339 82.6364 40.5265 94.2672 52.1479 94.2729 52.1535 94.2783 52.159 94.284 52.1646L113.293 71.174C122.201 80.1136 124.511 93.6952 119.06 105.077L122.741 108.758C130.05 95.2483 127.623 78.5425 116.772 67.6709L97.7624 48.6738C84.0182 35.312 62.0446 35.6218 48.6825 49.3661 35.5831 62.8403 35.587 84.2927 48.6911 97.7624L67.7005 116.772C78.5694 127.62 95.2725 130.042 108.776 122.729Z" stroke="#11BBD8" stroke-width="2.46875" fill="#11BBD8" transform="matrix(1 0 0 1.01266 1287 724)"/><path d="M188.343 139.237 169.356 120.245C158.483 109.406 141.786 106.985 128.281 114.288L131.96 117.969C143.339 112.496 156.935 114.809 165.865 123.736L184.86 142.745C196.637 154.219 196.883 173.067 185.41 184.844 173.936 196.621 155.089 196.867 143.311 185.394 143.123 185.21 142.937 185.024 142.753 184.835L123.744 165.826C114.836 156.886 112.526 143.305 117.977 131.923L114.303 128.254C106.997 141.758 109.417 158.456 120.258 169.329L139.267 188.338C152.826 201.89 174.804 201.885 188.356 188.326 201.908 174.767 201.902 152.789 188.343 139.237Z" stroke="#11BBD8" stroke-width="2.46875" fill="#11BBD8" transform="matrix(1 0 0 1.01266 1287 724)"/><path d="M144.703 147.155C144.049 147.154 143.421 146.894 142.958 146.431L90.5882 94.0593C89.6074 93.1121 89.5803 91.5493 90.5275 90.5685 91.4748 89.5877 93.0377 89.5605 94.0183 90.5078 94.0391 90.5278 94.0593 90.548 94.0791 90.5685L146.449 142.941C147.413 143.905 147.412 145.468 146.448 146.432 145.985 146.894 145.358 147.154 144.703 147.155Z" stroke="#11BBD8" stroke-width="2.46875" fill="#11BBD8" transform="matrix(1 0 0 1.01266 1287 724)"/></g></g></g><g><g><g><path d="M183.922 94.8271C185.672 91.7826 187.08 88.5535 188.119 85.199L198.981 79.7677 198.981 67.424 188.119 61.9927C187.211 58.6306 185.884 55.3958 184.169 52.3646L188.119 40.7615 179.231 31.874 167.628 35.824C164.598 34.0993 161.364 32.7633 158 31.8469L152.569 20.9844 140.225 20.9844 134.794 31.8469C131.431 32.7541 128.196 34.0811 125.166 35.7969L113.562 31.8469 104.675 40.7343 108.625 52.3375C106.91 55.3686 105.583 58.6034 104.675 61.9656L93.8124 67.3968 93.8124 79.7406 104.675 85.1718C105.583 88.534 106.91 91.7686 108.625 94.7999L104.675 106.403 113.316 115.044 124.919 111.094C127.95 112.809 131.185 114.136 134.547 115.044L139.978 125.906 152.322 125.906 157.753 115.044C161.115 114.136 164.35 112.809 167.381 111.094L178.984 115.044 187.872 106.403ZM179.246 96.417 182.194 105.07 177.713 109.427 168.973 106.45 166.84 105.724 164.893 106.86C162.219 108.371 159.365 109.536 156.398 110.328L154.309 110.926 153.336 112.869 149.27 121.016 143.037 121.016 138.971 112.869 137.998 110.926 135.91 110.328C132.942 109.536 130.086 108.371 127.412 106.86L125.467 105.724 123.334 106.45 114.639 109.412 110.343 105.117 113.306 96.4194 114.031 94.2864 112.896 92.3411C111.388 89.6657 110.227 86.8093 109.44 83.8412L108.842 81.7526 106.902 80.7824 98.7499 76.7114 98.7499 70.468 106.897 66.4093 108.837 65.4366 109.435 63.3481C110.222 60.3806 111.384 57.5255 112.891 54.8507L114.027 52.9028 113.301 50.7723 110.338 42.0724 114.881 37.5299 123.576 40.4924 125.709 41.233 127.654 40.0949C130.329 38.5883 133.184 37.427 136.151 36.6387L138.25 36.0067 139.223 34.0638 143.289 25.9169 149.53 25.9169 153.596 34.0638 154.568 36.0067 156.654 36.6041C159.622 37.3919 162.477 38.5532 165.152 40.0604L167.1 41.1985 169.233 40.4578 177.925 37.4953 182.468 42.0378 179.505 50.7377 178.779 52.8682 179.915 54.8161C181.425 57.4907 182.591 60.3461 183.384 63.3135L183.979 65.4021 185.921 66.3748 194.068 70.4433 194.068 76.6867 185.921 80.7552 184.033 81.7008 183.411 83.7202C182.482 86.7195 181.227 89.6072 179.666 92.3312L178.53 94.2766Z" stroke="#07234B" stroke-width="2.46875" fill="#07234B" transform="matrix(1 0 0 1.00844 641 720)"/><path d="M38.0187 157.057 38.0187 169.401 48.8812 174.832C49.7892 178.194 51.1162 181.429 52.8312 184.46L49.1281 196.063 57.7687 204.704 69.3718 201.001C72.4027 202.716 75.6375 204.043 78.9999 204.951L84.4312 215.813 96.7749 215.813 102.206 204.951C105.568 204.043 108.803 202.716 111.834 201.001L123.437 204.951 132.078 196.063 128.375 184.707C130.09 181.676 131.417 178.441 132.325 175.079L143.187 169.647 143.187 157.304 132.325 151.872C131.417 148.51 130.09 145.275 128.375 142.244L132.325 130.641 123.437 121.754 111.834 125.704C108.783 124.031 105.553 122.706 102.206 121.754L96.7749 110.891 84.4312 110.891 78.9999 121.754C75.6375 122.661 72.4027 123.988 69.3718 125.704L57.7687 121.754 49.1281 130.394 52.8312 141.997C51.1586 145.049 49.8337 148.278 48.8812 151.626ZM52.9793 155.082 53.6015 153.062C54.451 150.079 55.6231 147.198 57.0972 144.469L58.2032 142.57 57.5342 140.479 54.747 131.737 59.087 127.395 67.782 130.357 69.915 131.086 71.8603 129.95C74.5342 128.438 77.3896 127.272 80.3578 126.481L82.4562 125.906 83.4289 123.963 87.4949 115.816 93.7359 115.816 97.8019 123.963 98.7475 125.854 100.767 126.474C103.749 127.325 106.629 128.499 109.358 129.972L111.306 131.108 113.439 130.38 122.131 127.417 126.674 131.962 123.711 140.659 122.986 142.79 124.121 144.738C125.632 147.413 126.798 150.269 127.59 153.238L128.185 155.324 130.128 156.296 138.25 160.355 138.25 166.599 130.103 170.667 128.16 171.64 127.565 173.726C126.773 176.694 125.607 179.55 124.097 182.226L122.981 184.139 123.667 186.245 126.447 194.769 122.08 199.282 113.439 196.337 111.306 195.611 109.358 196.747C106.682 198.26 103.824 199.425 100.853 200.215L98.7647 200.813 97.7945 202.756 93.7285 210.903 87.4875 210.903 83.4215 202.756 82.4488 200.813 80.3602 200.215C77.3921 199.425 74.5367 198.259 71.8628 196.747L69.9668 195.641 67.8733 196.307 59.1364 199.097 54.7494 194.71 57.5366 185.968 58.2057 183.877 57.0997 181.979C55.5881 179.305 54.4226 176.449 53.6311 173.481L53.0337 171.393 51.0932 170.42 42.9463 166.352 42.9463 160.108 51.0932 156.04Z" stroke="#07234B" stroke-width="2.46875" fill="#07234B" transform="matrix(1 0 0 1.00844 641 720)"/><path d="M146.397 55.0679C136.171 55.0679 127.881 63.3577 127.881 73.5835 127.881 83.8093 136.171 92.0991 146.397 92.0991 156.623 92.0991 164.912 83.8093 164.912 73.5835 164.836 63.3896 156.591 55.1444 146.397 55.0679ZM146.397 87.1616C138.902 87.1508 132.83 81.0779 132.819 73.5835 132.918 66.1262 138.939 60.1051 146.397 60.0054 153.891 60.0163 159.964 66.0891 159.975 73.5835 159.882 81.0453 153.858 87.073 146.397 87.1715Z" stroke="#07234B" stroke-width="2.46875" fill="#07234B" transform="matrix(1 0 0 1.00844 641 720)"/><path d="M90.6031 181.999C100.829 181.999 109.119 173.709 109.119 163.483 109.119 153.257 100.829 144.967 90.6031 144.967 80.3773 144.967 72.0875 153.257 72.0875 163.483 72.0751 173.697 80.3449 181.986 90.5586 181.999 90.5734 181.999 90.5882 181.999 90.6031 181.999ZM90.6031 149.893C98.1021 149.893 104.181 155.972 104.181 163.471 104.181 170.97 98.1021 177.049 90.6031 177.049 83.104 177.049 77.0249 170.97 77.0249 163.471 77.0358 155.976 83.1087 149.903 90.6031 149.893Z" stroke="#07234B" stroke-width="2.46875" fill="#07234B" transform="matrix(1 0 0 1.00844 641 720)"/></g></g></g></g></svg>