<svg width="1300" height="603" xmlns="http://www.w3.org/2000/svg" xmlns:xlink="http://www.w3.org/1999/xlink" xml:space="preserve" overflow="hidden"><defs><clipPath id="clip0"><rect x="186" y="589" width="1300" height="603"/></clipPath></defs><g clip-path="url(#clip0)" transform="translate(-186 -589)"><rect x="208" y="1069" width="1273" height="123" fill="#E5E5E5"/><text fill="#11BBD8" font-family="Roboto,Roboto_MSFontService,sans-serif" font-weight="700" font-size="73" transform="matrix(1 0 0 1 230.628 682)">Driver</text><text fill="#11BBD8" font-family="Roboto,Roboto_MSFontService,sans-serif" font-weight="700" font-size="73" transform="matrix(1 0 0 1 1186.25 682)">Impact</text><text font-family="Roboto,Roboto_MSFontService,sans-serif" font-weight="400" font-size="55" transform="matrix(1 0 0 1 230.628 797)">Purchases are undifferentiated</text><text font-family="Roboto,Roboto_MSFontService,sans-serif" font-weight="400" font-size="55" transform="matrix(1 0 0 1 230.628 913)">Purchase is a key cost to the buyer</text><text font-family="Roboto,Roboto_MSFontService,sans-serif" font-weight="400" font-size="55" transform="matrix(1 0 0 1 230.628 1028)">Quality is not important</text><text font-family="Roboto,Roboto_MSFontService,sans-serif" font-weight="400" font-size="55" transform="matrix(1 0 0 1 230.628 1144)">Price sensitivity</text><path d="M208.5 718.5 1482.06 718.5" stroke="#999999" stroke-width="6.875" stroke-miterlimit="8" fill="none" fill-rule="evenodd"/><path d="M208.5 840.5 1482.06 840.5" stroke="#999999" stroke-width="3.4375" stroke-miterlimit="8" fill="none" fill-rule="evenodd"/><path d="M208.5 962.5 1482.06 962.5" stroke="#999999" stroke-width="3.4375" stroke-miterlimit="8" fill="none" fill-rule="evenodd"/></g></svg>