<svg width="1979" height="264" viewBox="0 0 1979 264" fill="none" xmlns="http://www.w3.org/2000/svg">
<rect width="1978.46" height="264" fill="#D4CFCF"/>
<rect width="316.41" height="264" transform="translate(40)" fill="#D4CFCF"/>
<path d="M198.205 30C213.672 30 228.793 34.5865 241.653 43.1797C254.514 51.7729 264.538 63.9873 270.457 78.2773C276.376 92.5673 277.925 108.292 274.907 123.462C271.89 138.632 264.441 152.567 253.504 163.504L226.93 136.93C232.611 131.249 236.479 124.01 238.047 116.13C239.614 108.25 238.81 100.082 235.735 92.6592C232.661 85.2363 227.454 78.8914 220.773 74.4277C214.093 69.9642 206.239 67.5821 198.205 67.582C190.171 67.582 182.316 69.9641 175.636 74.4277C168.955 78.8914 163.749 85.2364 160.675 92.6592C157.6 100.082 156.795 108.25 158.362 116.13C159.93 124.01 163.799 131.248 169.48 136.93L142.906 163.504C131.969 152.567 124.521 138.632 121.503 123.462C118.485 108.292 120.034 92.5673 125.953 78.2773C131.872 63.9873 141.896 51.7729 154.757 43.1797C167.617 34.5865 182.738 30 198.205 30Z" fill="#E1E1E1"/>
<path d="M157.582 108.205C157.582 113.539 158.632 118.822 160.674 123.75C162.715 128.679 165.707 133.157 169.479 136.929L142.905 163.504C135.643 156.242 129.883 147.621 125.953 138.132C122.023 128.644 120 118.475 120 108.205H157.582Z" fill="#E1E1E1"/>
<path d="M183.346 103.558C185.367 96.7839 191.71 91.9078 199.121 92.0562C208.025 92.2345 215.098 99.5964 214.92 108.5C214.742 117.404 207.379 124.477 198.476 124.299C191.684 124.163 185.958 119.846 183.702 113.854L131.072 107.627L183.346 103.558Z" fill="black"/>
<path d="M228.12 186.348C226.264 186.348 224.615 186.012 223.173 185.341C221.731 184.67 220.592 183.746 219.755 182.57C218.926 181.393 218.495 180.042 218.462 178.518H224.428C224.478 179.454 224.859 180.208 225.572 180.78C226.284 181.343 227.134 181.625 228.12 181.625C228.89 181.625 229.574 181.455 230.17 181.115C230.767 180.776 231.235 180.299 231.575 179.686C231.915 179.065 232.08 178.352 232.072 177.548C232.08 176.728 231.91 176.011 231.562 175.398C231.223 174.785 230.75 174.308 230.146 173.969C229.549 173.621 228.861 173.447 228.082 173.447C227.345 173.438 226.645 173.6 225.982 173.931C225.327 174.263 224.83 174.714 224.49 175.286L219.059 174.267L220.165 160.545H236.497V165.505H225.224L224.64 171.508H224.789C225.211 170.804 225.891 170.223 226.827 169.768C227.772 169.304 228.845 169.072 230.046 169.072C231.571 169.072 232.93 169.428 234.123 170.141C235.324 170.845 236.269 171.823 236.957 173.074C237.653 174.325 238.001 175.759 238.001 177.374C238.001 179.123 237.586 180.672 236.758 182.023C235.937 183.373 234.786 184.434 233.303 185.205C231.828 185.967 230.1 186.348 228.12 186.348Z" fill="black"/>
<path d="M166.497 186.621C164.276 186.621 162.362 186.095 160.755 185.043C159.147 183.982 157.908 182.462 157.038 180.482C156.168 178.493 155.738 176.102 155.746 173.31C155.754 170.518 156.189 168.148 157.051 166.201C157.921 164.245 159.156 162.758 160.755 161.739C162.362 160.711 164.276 160.197 166.497 160.197C168.718 160.197 170.632 160.711 172.239 161.739C173.855 162.758 175.098 164.245 175.968 166.201C176.838 168.156 177.269 170.526 177.26 173.31C177.26 176.111 176.825 178.505 175.955 180.494C175.085 182.483 173.847 184.003 172.239 185.055C170.64 186.099 168.726 186.621 166.497 186.621ZM166.497 181.588C167.823 181.588 168.896 180.912 169.716 179.562C170.536 178.203 170.942 176.119 170.934 173.31C170.934 171.471 170.748 169.954 170.375 168.761C170.002 167.56 169.484 166.665 168.821 166.076C168.158 165.488 167.383 165.194 166.497 165.194C165.179 165.194 164.115 165.861 163.303 167.195C162.491 168.521 162.08 170.559 162.072 173.31C162.064 175.174 162.242 176.72 162.607 177.946C162.979 179.172 163.502 180.088 164.173 180.693C164.844 181.289 165.619 181.588 166.497 181.588Z" fill="black"/>
<rect width="316.41" height="258" transform="translate(356.41 3)" fill="white"/>
<path d="M514.615 33C530.082 33 545.202 37.5865 558.063 46.1797C570.924 54.7729 580.948 66.9873 586.867 81.2773C592.786 95.5673 594.334 111.292 591.317 126.462C588.299 141.632 580.851 155.567 569.914 166.504L543.339 139.93C549.021 134.249 552.889 127.01 554.457 119.13C556.024 111.25 555.22 103.082 552.145 95.6592C549.07 88.2363 543.863 81.8914 537.183 77.4277C530.503 72.9642 522.649 70.5821 514.615 70.582C506.58 70.582 498.726 72.9641 492.045 77.4277C485.365 81.8914 480.159 88.2364 477.084 95.6592C474.01 103.082 473.205 111.25 474.772 119.13C476.339 127.01 480.209 134.248 485.89 139.93L459.316 166.504C448.379 155.567 440.93 141.632 437.913 126.462C434.895 111.292 436.444 95.5673 442.363 81.2773C448.282 66.9873 458.306 54.7729 471.167 46.1797C484.027 37.5865 499.147 33 514.615 33Z" fill="#E1E1E1"/>
<path d="M510.903 33.0884C531.192 32.1244 551.061 39.0924 566.304 52.5181L541.464 80.7202C533.546 73.7464 523.225 70.1267 512.686 70.6274C502.147 71.1283 492.216 75.7107 484.995 83.4038C477.774 91.097 473.83 101.298 473.997 111.848C474.164 122.398 478.429 132.468 485.89 139.929L459.315 166.503C444.952 152.14 436.741 132.753 436.419 112.443C436.098 92.1328 443.692 72.4937 457.593 57.6831C471.495 42.8728 490.613 34.0524 510.903 33.0884Z" fill="#0D2A3C"/>
<path d="M529.596 100.874C533.474 106.784 533.115 114.777 528.226 120.349C522.353 127.043 512.165 127.709 505.471 121.835C498.777 115.962 498.112 105.774 503.986 99.0797C508.466 93.9736 515.457 92.376 521.492 94.5122L560.167 58.2772L529.596 100.874Z" fill="black"/>
<path d="M544.512 184.298C542.921 184.298 541.508 184.011 540.272 183.435C539.036 182.86 538.06 182.068 537.342 181.06C536.632 180.051 536.263 178.893 536.235 177.587H541.348C541.391 178.389 541.717 179.036 542.328 179.526C542.939 180.009 543.667 180.25 544.512 180.25C545.173 180.25 545.759 180.104 546.27 179.813C546.781 179.522 547.183 179.114 547.474 178.588C547.765 178.055 547.907 177.445 547.9 176.756C547.907 176.053 547.761 175.438 547.463 174.913C547.172 174.387 546.767 173.979 546.249 173.688C545.737 173.389 545.148 173.24 544.48 173.24C543.848 173.233 543.248 173.371 542.68 173.656C542.119 173.94 541.693 174.327 541.401 174.817L536.746 173.943L537.694 162.182H551.693V166.433H542.03L541.529 171.578H541.657C542.019 170.974 542.602 170.477 543.404 170.087C544.214 169.689 545.134 169.49 546.163 169.49C547.47 169.49 548.635 169.795 549.658 170.406C550.688 171.01 551.497 171.848 552.087 172.92C552.683 173.993 552.982 175.222 552.982 176.607C552.982 178.105 552.627 179.433 551.916 180.591C551.213 181.749 550.226 182.658 548.955 183.318C547.69 183.972 546.21 184.298 544.512 184.298Z" fill="black"/>
<path d="M482.407 184.533C480.504 184.533 478.863 184.082 477.485 183.18C476.107 182.271 475.045 180.967 474.3 179.27C473.554 177.565 473.185 175.516 473.192 173.123C473.199 170.729 473.572 168.698 474.31 167.029C475.056 165.353 476.114 164.078 477.485 163.205C478.863 162.324 480.504 161.884 482.407 161.884C484.31 161.884 485.951 162.324 487.329 163.205C488.714 164.078 489.779 165.353 490.525 167.029C491.271 168.705 491.64 170.737 491.633 173.123C491.633 175.523 491.26 177.576 490.514 179.281C489.769 180.985 488.707 182.288 487.329 183.19C485.958 184.085 484.318 184.533 482.407 184.533ZM482.407 180.218C483.543 180.218 484.463 179.639 485.166 178.482C485.869 177.317 486.217 175.531 486.21 173.123C486.21 171.546 486.05 170.246 485.731 169.224C485.411 168.194 484.967 167.427 484.399 166.923C483.831 166.418 483.167 166.166 482.407 166.166C481.278 166.166 480.365 166.738 479.669 167.881C478.973 169.018 478.621 170.765 478.614 173.123C478.607 174.721 478.76 176.045 479.072 177.097C479.392 178.148 479.84 178.933 480.415 179.451C480.99 179.962 481.654 180.218 482.407 180.218Z" fill="black"/>
<rect width="316.41" height="258" transform="translate(672.819 3)" fill="#D4CFCF"/>
<path d="M831.024 33C846.492 33 861.612 37.5865 874.473 46.1797C887.333 54.7729 897.357 66.9873 903.276 81.2773C909.195 95.5673 910.744 111.292 907.727 126.462C904.709 141.632 897.26 155.567 886.323 166.504L859.749 139.93C865.43 134.249 869.299 127.01 870.866 119.13C872.434 111.25 871.629 103.082 868.555 95.6592C865.48 88.2363 860.273 81.8914 853.593 77.4277C846.913 72.9642 839.059 70.5821 831.024 70.582C822.99 70.582 815.135 72.9641 808.455 77.4277C801.775 81.8914 796.569 88.2364 793.494 95.6592C790.42 103.082 789.614 111.25 791.182 119.13C792.749 127.01 796.619 134.248 802.3 139.93L775.726 166.504C764.789 155.567 757.34 141.632 754.322 126.462C751.305 111.292 752.853 95.5673 758.772 81.2773C764.692 66.9873 774.715 54.7729 787.576 46.1797C800.437 37.5865 815.557 33 831.024 33Z" fill="#E1E1E1"/>
<path d="M802.299 82.48C798.527 86.2521 795.535 90.7311 793.493 95.6597C791.452 100.588 790.401 105.87 790.401 111.205C790.401 116.539 791.452 121.822 793.493 126.75C795.535 131.679 798.527 136.157 802.299 139.929L775.725 166.504C768.463 159.242 762.703 150.621 758.772 141.132C754.842 131.644 752.819 121.475 752.819 111.205C752.819 100.935 754.842 90.765 758.772 81.2769C762.703 71.7888 768.463 63.1676 775.725 55.9058L802.299 82.48Z" fill="#E1E1E1"/>
<path d="M823.183 96.0281C829.29 92.4679 837.253 93.2484 842.559 98.4254C848.932 104.645 849.058 114.853 842.839 121.227C836.62 127.601 826.411 127.727 820.037 121.507C815.175 116.763 813.949 109.698 816.401 103.784L782.262 63.2473L823.183 96.0281Z" fill="black"/>
<path d="M860.922 184.298C859.331 184.298 857.918 184.011 856.682 183.435C855.446 182.86 854.469 182.068 853.752 181.06C853.042 180.051 852.673 178.893 852.644 177.587H857.758C857.8 178.389 858.127 179.036 858.738 179.526C859.349 180.009 860.077 180.25 860.922 180.25C861.582 180.25 862.168 180.104 862.68 179.813C863.191 179.522 863.592 179.114 863.884 178.588C864.175 178.055 864.317 177.445 864.31 176.756C864.317 176.053 864.171 175.438 863.873 174.913C863.582 174.387 863.177 173.979 862.658 173.688C862.147 173.389 861.558 173.24 860.89 173.24C860.258 173.233 859.658 173.371 859.089 173.656C858.528 173.94 858.102 174.327 857.811 174.817L853.156 173.943L854.104 162.182H868.102V166.433H858.44L857.939 171.578H858.067C858.429 170.974 859.011 170.477 859.814 170.087C860.624 169.689 861.543 169.49 862.573 169.49C863.88 169.49 865.045 169.795 866.067 170.406C867.097 171.01 867.907 171.848 868.496 172.92C869.093 173.993 869.391 175.222 869.391 176.607C869.391 178.105 869.036 179.433 868.326 180.591C867.623 181.749 866.636 182.658 865.364 183.318C864.1 183.972 862.619 184.298 860.922 184.298Z" fill="black"/>
<path d="M798.817 184.533C796.913 184.533 795.273 184.082 793.895 183.18C792.517 182.271 791.455 180.967 790.709 179.27C789.964 177.565 789.594 175.516 789.601 173.123C789.609 170.729 789.981 168.698 790.72 167.029C791.466 165.353 792.524 164.078 793.895 163.205C795.273 162.324 796.913 161.884 798.817 161.884C800.72 161.884 802.361 162.324 803.739 163.205C805.123 164.078 806.189 165.353 806.935 167.029C807.68 168.705 808.05 170.737 808.043 173.123C808.043 175.523 807.67 177.576 806.924 179.281C806.178 180.985 805.116 182.288 803.739 183.19C802.368 184.085 800.727 184.533 798.817 184.533ZM798.817 180.218C799.953 180.218 800.873 179.639 801.576 178.482C802.279 177.317 802.627 175.531 802.62 173.123C802.62 171.546 802.46 170.246 802.141 169.224C801.821 168.194 801.377 167.427 800.809 166.923C800.241 166.418 799.577 166.166 798.817 166.166C797.687 166.166 796.775 166.738 796.079 167.881C795.383 169.018 795.031 170.765 795.024 173.123C795.017 174.721 795.17 176.045 795.482 177.097C795.802 178.148 796.249 178.933 796.824 179.451C797.4 179.962 798.064 180.218 798.817 180.218Z" fill="black"/>
<rect width="316.41" height="258" transform="translate(989.229 3)" fill="#D4CFCF"/>
<path d="M1147.43 33C1162.9 33 1178.02 37.5865 1190.88 46.1797C1203.74 54.7729 1213.77 66.9873 1219.69 81.2773C1225.61 95.5673 1227.15 111.292 1224.14 126.462C1221.12 141.632 1213.67 155.567 1202.73 166.504L1176.16 139.93C1181.84 134.249 1185.71 127.01 1187.28 119.13C1188.84 111.25 1188.04 103.082 1184.96 95.6592C1181.89 88.2363 1176.68 81.8914 1170 77.4277C1163.32 72.9642 1155.47 70.5821 1147.43 70.582C1139.4 70.582 1131.55 72.9641 1124.86 77.4277C1118.18 81.8914 1112.98 88.2364 1109.9 95.6592C1106.83 103.082 1106.02 111.25 1107.59 119.13C1109.16 127.01 1113.03 134.248 1118.71 139.93L1092.14 166.504C1081.2 155.567 1073.75 141.632 1070.73 126.462C1067.71 111.292 1069.26 95.5673 1075.18 81.2773C1081.1 66.9873 1091.13 54.7729 1103.99 46.1797C1116.85 37.5865 1131.97 33 1147.43 33Z" fill="#E1E1E1"/>
<path d="M1116.38 39.4316C1128.08 34.3654 1140.85 32.2403 1153.57 33.2412C1166.29 34.2421 1178.57 38.3393 1189.34 45.1748C1200.11 52.0103 1209.04 61.3771 1215.36 72.458C1221.69 83.539 1225.2 95.9976 1225.6 108.748L1188.04 109.929C1187.83 103.306 1186 96.834 1182.72 91.0781C1179.44 85.3222 1174.8 80.4569 1169.2 76.9062C1163.61 73.3557 1157.23 71.227 1150.62 70.707C1144.02 70.1871 1137.38 71.2912 1131.3 73.9229C1125.22 76.5545 1119.87 80.6343 1115.73 85.8057C1111.59 90.9771 1108.77 97.0837 1107.53 103.593C1106.29 110.102 1106.66 116.816 1108.61 123.149C1110.56 129.483 1114.02 135.244 1118.71 139.93L1092.14 166.504C1083.11 157.483 1076.44 146.393 1072.69 134.2C1068.94 122.007 1068.22 109.082 1070.61 96.5508C1073.01 84.0198 1078.42 72.2635 1086.4 62.3076C1094.38 52.3518 1104.67 44.498 1116.38 39.4316Z" fill="#E1E1E1"/>
<path d="M1163.68 113.054C1161.64 119.823 1155.29 124.681 1147.87 124.511C1138.97 124.307 1131.92 116.925 1132.12 108.022C1132.33 99.1192 1139.71 92.0667 1148.61 92.2705C1155.4 92.4259 1161.12 96.7587 1163.36 102.757L1215.97 109.134L1163.68 113.054Z" fill="black"/>
<path d="M1177.33 184.298C1175.74 184.298 1174.33 184.011 1173.09 183.435C1171.86 182.86 1170.88 182.068 1170.16 181.06C1169.45 180.051 1169.08 178.893 1169.05 177.587H1174.17C1174.21 178.389 1174.54 179.036 1175.15 179.526C1175.76 180.009 1176.49 180.25 1177.33 180.25C1177.99 180.25 1178.58 180.104 1179.09 179.813C1179.6 179.522 1180 179.114 1180.29 178.588C1180.58 178.055 1180.73 177.445 1180.72 176.756C1180.73 176.053 1180.58 175.438 1180.28 174.913C1179.99 174.387 1179.59 173.979 1179.07 173.688C1178.56 173.389 1177.97 173.24 1177.3 173.24C1176.67 173.233 1176.07 173.371 1175.5 173.656C1174.94 173.94 1174.51 174.327 1174.22 174.817L1169.57 173.943L1170.51 162.182H1184.51V166.433H1174.85L1174.35 171.578H1174.48C1174.84 170.974 1175.42 170.477 1176.22 170.087C1177.03 169.689 1177.95 169.49 1178.98 169.49C1180.29 169.49 1181.45 169.795 1182.48 170.406C1183.51 171.01 1184.32 171.848 1184.91 172.92C1185.5 173.993 1185.8 175.222 1185.8 176.607C1185.8 178.105 1185.45 179.433 1184.74 180.591C1184.03 181.749 1183.05 182.658 1181.77 183.318C1180.51 183.972 1179.03 184.298 1177.33 184.298Z" fill="black"/>
<path d="M1115.23 184.533C1113.32 184.533 1111.68 184.082 1110.3 183.18C1108.93 182.271 1107.87 180.967 1107.12 179.27C1106.37 177.565 1106 175.516 1106.01 173.123C1106.02 170.729 1106.39 168.698 1107.13 167.029C1107.88 165.353 1108.93 164.078 1110.3 163.205C1111.68 162.324 1113.32 161.884 1115.23 161.884C1117.13 161.884 1118.77 162.324 1120.15 163.205C1121.53 164.078 1122.6 165.353 1123.34 167.029C1124.09 168.705 1124.46 170.737 1124.45 173.123C1124.45 175.523 1124.08 177.576 1123.33 179.281C1122.59 180.985 1121.53 182.288 1120.15 183.19C1118.78 184.085 1117.14 184.533 1115.23 184.533ZM1115.23 180.218C1116.36 180.218 1117.28 179.639 1117.99 178.482C1118.69 177.317 1119.04 175.531 1119.03 173.123C1119.03 171.546 1118.87 170.246 1118.55 169.224C1118.23 168.194 1117.79 167.427 1117.22 166.923C1116.65 166.418 1115.99 166.166 1115.23 166.166C1114.1 166.166 1113.18 166.738 1112.49 167.881C1111.79 169.018 1111.44 170.765 1111.43 173.123C1111.43 174.721 1111.58 176.045 1111.89 177.097C1112.21 178.148 1112.66 178.933 1113.23 179.451C1113.81 179.962 1114.47 180.218 1115.23 180.218Z" fill="black"/>
<rect width="316.41" height="258" transform="translate(1305.64 2.99976)" fill="#D4CFCF"/>
<path d="M1463.84 33.0002C1479.31 33.0003 1494.43 37.5867 1507.29 46.1799C1520.15 54.7732 1530.18 66.9876 1536.1 81.2776C1542.01 95.5675 1543.56 111.292 1540.55 126.462C1537.53 141.632 1530.08 155.567 1519.14 166.504L1492.57 139.93C1498.25 134.249 1502.12 127.01 1503.69 119.13C1505.25 111.25 1504.45 103.082 1501.37 95.6594C1498.3 88.2366 1493.09 81.8917 1486.41 77.428C1479.73 72.9645 1471.88 70.5823 1463.84 70.5823C1455.81 70.5823 1447.96 72.9643 1441.27 77.428C1434.59 81.8916 1429.39 88.2366 1426.31 95.6594C1423.24 103.082 1422.43 111.25 1424 119.13C1425.57 127.01 1429.44 134.249 1435.12 139.93L1408.55 166.504C1397.61 155.567 1390.16 141.632 1387.14 126.462C1384.12 111.292 1385.67 95.5676 1391.59 81.2776C1397.51 66.9875 1407.54 54.7732 1420.4 46.1799C1433.26 37.5868 1448.38 33.0002 1463.84 33.0002Z" fill="#E1E1E1"/>
<path d="M1460.13 33.0879C1480.42 32.1239 1500.29 39.0928 1515.53 52.5186L1490.69 80.7207C1482.78 73.7468 1472.45 70.1272 1461.92 70.6279C1451.38 71.1288 1441.45 75.7105 1434.22 83.4033C1427 91.0965 1423.06 101.298 1423.23 111.848C1423.39 122.398 1427.66 132.469 1435.12 139.93L1408.54 166.504C1394.18 152.141 1385.97 132.752 1385.65 112.442C1385.33 92.1324 1392.92 72.4941 1406.82 57.6836C1420.72 42.8731 1439.84 34.0519 1460.13 33.0879Z" fill="#E1E1E1"/>
<path d="M1478.82 100.874C1482.7 106.785 1482.34 114.777 1477.46 120.35C1471.58 127.043 1461.39 127.709 1454.7 121.836C1448.01 115.962 1447.34 105.774 1453.21 99.08C1457.7 93.9738 1464.69 92.3762 1470.72 94.5124L1509.4 58.2774L1478.82 100.874Z" fill="black"/>
<path d="M1493.74 184.299C1492.15 184.299 1490.74 184.011 1489.5 183.436C1488.27 182.86 1487.29 182.068 1486.57 181.06C1485.86 180.051 1485.49 178.894 1485.46 177.587H1490.58C1490.62 178.389 1490.95 179.036 1491.56 179.526C1492.17 180.009 1492.9 180.25 1493.74 180.25C1494.4 180.25 1494.99 180.105 1495.5 179.813C1496.01 179.522 1496.41 179.114 1496.7 178.588C1496.99 178.056 1497.14 177.445 1497.13 176.756C1497.14 176.053 1496.99 175.438 1496.69 174.913C1496.4 174.387 1496 173.979 1495.48 173.688C1494.97 173.389 1494.38 173.24 1493.71 173.24C1493.08 173.233 1492.48 173.372 1491.91 173.656C1491.35 173.94 1490.92 174.327 1490.63 174.817L1485.98 173.943L1486.92 162.182H1500.92V166.433H1491.26L1490.76 171.578H1490.89C1491.25 170.975 1491.83 170.478 1492.63 170.087C1493.44 169.689 1494.36 169.49 1495.39 169.49C1496.7 169.49 1497.86 169.796 1498.89 170.406C1499.92 171.01 1500.73 171.848 1501.32 172.921C1501.91 173.993 1502.21 175.222 1502.21 176.607C1502.21 178.105 1501.86 179.433 1501.15 180.591C1500.44 181.749 1499.46 182.658 1498.18 183.318C1496.92 183.972 1495.44 184.299 1493.74 184.299Z" fill="black"/>
<path d="M1431.64 184.533C1429.73 184.533 1428.09 184.082 1426.71 183.18C1425.34 182.271 1424.27 180.968 1423.53 179.27C1422.78 177.566 1422.41 175.517 1422.42 173.123C1422.43 170.73 1422.8 168.698 1423.54 167.029C1424.29 165.353 1425.34 164.078 1426.71 163.205C1428.09 162.324 1429.73 161.884 1431.64 161.884C1433.54 161.884 1435.18 162.324 1436.56 163.205C1437.94 164.078 1439.01 165.353 1439.75 167.029C1440.5 168.705 1440.87 170.737 1440.86 173.123C1440.86 175.524 1440.49 177.576 1439.74 179.281C1439 180.985 1437.94 182.289 1436.56 183.191C1435.19 184.085 1433.55 184.533 1431.64 184.533ZM1431.64 180.218C1432.77 180.218 1433.69 179.639 1434.4 178.482C1435.1 177.317 1435.45 175.531 1435.44 173.123C1435.44 171.546 1435.28 170.247 1434.96 169.224C1434.64 168.194 1434.2 167.427 1433.63 166.923C1433.06 166.419 1432.4 166.166 1431.64 166.166C1430.51 166.166 1429.59 166.738 1428.9 167.882C1428.2 169.018 1427.85 170.765 1427.84 173.123C1427.84 174.721 1427.99 176.046 1428.3 177.097C1428.62 178.148 1429.07 178.933 1429.64 179.451C1430.22 179.963 1430.88 180.218 1431.64 180.218Z" fill="black"/>
<rect width="316.41" height="258" transform="translate(1622.05 3)" fill="#D4CFCF"/>
<path d="M1780.25 33C1795.72 33 1810.84 37.5865 1823.7 46.1797C1836.56 54.7729 1846.59 66.9873 1852.51 81.2773C1858.42 95.5673 1859.97 111.292 1856.96 126.462C1853.94 141.632 1846.49 155.567 1835.55 166.504L1808.98 139.93C1814.66 134.249 1818.53 127.01 1820.1 119.13C1821.66 111.25 1820.86 103.082 1817.78 95.6592C1814.71 88.2363 1809.5 81.8914 1802.82 77.4277C1796.14 72.9642 1788.29 70.5821 1780.25 70.582C1772.22 70.582 1764.36 72.9641 1757.68 77.4277C1751 81.8914 1745.8 88.2364 1742.72 95.6592C1739.65 103.082 1738.84 111.25 1740.41 119.13C1741.98 127.01 1745.85 134.248 1751.53 139.93L1724.96 166.504C1714.02 155.567 1706.57 141.632 1703.55 126.462C1700.53 111.292 1702.08 95.5673 1708 81.2773C1713.92 66.9873 1723.94 54.7729 1736.81 46.1797C1749.67 37.5865 1764.79 33 1780.25 33Z" fill="#E1E1E1"/>
<path d="M1780.25 70.5825C1772.22 70.5825 1764.36 72.9645 1757.68 77.4282C1751 81.8919 1745.8 88.2369 1742.72 95.6597C1739.65 103.082 1738.84 111.251 1740.41 119.13C1741.98 127.01 1745.85 134.248 1751.53 139.929L1724.95 166.504C1714.02 155.567 1706.57 141.632 1703.55 126.461C1700.53 111.291 1702.08 95.5668 1708 81.2769C1713.92 66.987 1723.95 54.7734 1736.81 46.1802C1749.67 37.587 1764.79 33.0005 1780.25 33.0005V70.5825Z" fill="#E1E1E1"/>
<path d="M1785.48 94.1816C1792.3 96.0664 1797.3 102.311 1797.3 109.724C1797.3 118.629 1790.08 125.848 1781.17 125.849C1772.27 125.849 1765.05 118.629 1765.05 109.724C1765.05 102.93 1769.25 97.1191 1775.2 94.7441L1780.37 42L1785.48 94.1816Z" fill="black"/>
<path d="M1810.15 184.298C1808.56 184.298 1807.15 184.011 1805.91 183.435C1804.68 182.86 1803.7 182.068 1802.98 181.06C1802.27 180.051 1801.9 178.893 1801.87 177.587H1806.99C1807.03 178.389 1807.36 179.036 1807.97 179.526C1808.58 180.009 1809.31 180.25 1810.15 180.25C1810.81 180.25 1811.4 180.104 1811.91 179.813C1812.42 179.522 1812.82 179.114 1813.11 178.588C1813.4 178.055 1813.55 177.445 1813.54 176.756C1813.55 176.053 1813.4 175.438 1813.1 174.913C1812.81 174.387 1812.41 173.979 1811.89 173.688C1811.38 173.389 1810.79 173.24 1810.12 173.24C1809.49 173.233 1808.89 173.371 1808.32 173.656C1807.76 173.94 1807.33 174.327 1807.04 174.817L1802.39 173.943L1803.33 162.182H1817.33V166.433H1807.67L1807.17 171.578H1807.3C1807.66 170.974 1808.24 170.477 1809.04 170.087C1809.85 169.689 1810.77 169.49 1811.8 169.49C1813.11 169.49 1814.27 169.795 1815.3 170.406C1816.33 171.01 1817.14 171.848 1817.73 172.92C1818.32 173.993 1818.62 175.222 1818.62 176.607C1818.62 178.105 1818.27 179.433 1817.56 180.591C1816.85 181.749 1815.87 182.658 1814.59 183.318C1813.33 183.972 1811.85 184.298 1810.15 184.298Z" fill="black"/>
<path d="M1748.05 184.533C1746.14 184.533 1744.5 184.082 1743.12 183.18C1741.75 182.271 1740.68 180.967 1739.94 179.27C1739.19 177.565 1738.82 175.516 1738.83 173.123C1738.84 170.729 1739.21 168.698 1739.95 167.029C1740.7 165.353 1741.75 164.078 1743.12 163.205C1744.5 162.324 1746.14 161.884 1748.05 161.884C1749.95 161.884 1751.59 162.324 1752.97 163.205C1754.35 164.078 1755.42 165.353 1756.16 167.029C1756.91 168.705 1757.28 170.737 1757.27 173.123C1757.27 175.523 1756.9 177.576 1756.15 179.281C1755.41 180.985 1754.35 182.288 1752.97 183.19C1751.6 184.085 1749.96 184.533 1748.05 184.533ZM1748.05 180.218C1749.18 180.218 1750.1 179.639 1750.81 178.482C1751.51 177.317 1751.86 175.531 1751.85 173.123C1751.85 171.546 1751.69 170.246 1751.37 169.224C1751.05 168.194 1750.61 167.427 1750.04 166.923C1749.47 166.418 1748.81 166.166 1748.05 166.166C1746.92 166.166 1746 166.738 1745.31 167.881C1744.61 169.018 1744.26 170.765 1744.25 173.123C1744.25 174.721 1744.4 176.045 1744.71 177.097C1745.03 178.148 1745.48 178.933 1746.05 179.451C1746.63 179.962 1747.29 180.218 1748.05 180.218Z" fill="black"/>
<circle cx="130" cy="228" r="10" fill="#E1E1E1"/>
<path d="M151.377 237V218.812H164.059V222.382H155.773V226.112H163.41V229.691H155.773V233.43H164.059V237H151.377ZM176.643 224.265C176.584 223.613 176.32 223.107 175.853 222.746C175.391 222.379 174.731 222.195 173.872 222.195C173.304 222.195 172.83 222.269 172.451 222.417C172.072 222.565 171.788 222.77 171.599 223.03C171.409 223.285 171.311 223.578 171.305 223.909C171.294 224.182 171.347 224.422 171.465 224.629C171.59 224.836 171.767 225.02 171.998 225.179C172.235 225.333 172.519 225.47 172.851 225.588C173.182 225.706 173.555 225.81 173.97 225.899L175.533 226.254C176.433 226.449 177.226 226.71 177.913 227.036C178.606 227.361 179.186 227.749 179.654 228.199C180.127 228.649 180.485 229.167 180.728 229.753C180.971 230.339 181.095 230.996 181.101 231.725C181.095 232.873 180.805 233.859 180.231 234.682C179.657 235.505 178.831 236.136 177.753 236.574C176.681 237.012 175.388 237.231 173.872 237.231C172.35 237.231 171.024 237.003 169.893 236.547C168.763 236.091 167.883 235.398 167.256 234.469C166.628 233.539 166.305 232.364 166.288 230.943H170.497C170.533 231.529 170.69 232.018 170.968 232.409C171.246 232.799 171.628 233.095 172.114 233.297C172.605 233.498 173.173 233.599 173.819 233.599C174.411 233.599 174.914 233.519 175.329 233.359C175.749 233.199 176.072 232.977 176.297 232.693C176.522 232.409 176.637 232.083 176.643 231.716C176.637 231.372 176.53 231.079 176.323 230.837C176.116 230.588 175.796 230.375 175.364 230.197C174.938 230.014 174.393 229.845 173.73 229.691L171.829 229.247C170.255 228.886 169.014 228.303 168.108 227.497C167.202 226.686 166.752 225.591 166.758 224.211C166.752 223.086 167.054 222.101 167.664 221.254C168.274 220.407 169.118 219.747 170.195 219.274C171.273 218.8 172.501 218.563 173.881 218.563C175.29 218.563 176.513 218.803 177.549 219.282C178.591 219.756 179.399 220.422 179.973 221.281C180.548 222.139 180.841 223.134 180.853 224.265H176.643ZM195.257 224.753C195.157 224.38 195.009 224.052 194.813 223.767C194.618 223.477 194.378 223.232 194.094 223.03C193.81 222.829 193.484 222.678 193.117 222.577C192.75 222.471 192.347 222.417 191.909 222.417C191.027 222.417 190.263 222.631 189.618 223.057C188.979 223.483 188.484 224.105 188.135 224.922C187.786 225.733 187.611 226.719 187.611 227.879C187.611 229.046 187.78 230.04 188.117 230.863C188.455 231.686 188.943 232.314 189.583 232.746C190.222 233.178 190.998 233.394 191.909 233.394C192.715 233.394 193.395 233.264 193.952 233.004C194.514 232.737 194.941 232.361 195.231 231.876C195.521 231.39 195.666 230.819 195.666 230.162L196.483 230.259H192.06V227.053H199.902V229.46C199.902 231.088 199.556 232.483 198.863 233.643C198.176 234.803 197.229 235.694 196.021 236.316C194.819 236.938 193.437 237.249 191.874 237.249C190.139 237.249 188.615 236.873 187.3 236.121C185.986 235.369 184.961 234.297 184.227 232.906C183.493 231.509 183.126 229.851 183.126 227.933C183.126 226.441 183.348 225.117 183.792 223.963C184.236 222.802 184.855 221.819 185.648 221.014C186.448 220.209 187.371 219.599 188.419 219.185C189.473 218.77 190.607 218.563 191.821 218.563C192.874 218.563 193.854 218.714 194.76 219.016C195.672 219.318 196.477 219.744 197.176 220.295C197.88 220.845 198.452 221.5 198.89 222.258C199.328 223.015 199.6 223.847 199.707 224.753H195.257ZM207.866 237V218.812H215.38C216.741 218.812 217.917 219.057 218.905 219.549C219.9 220.034 220.667 220.733 221.206 221.645C221.744 222.551 222.014 223.625 222.014 224.869C222.014 226.13 221.738 227.201 221.188 228.083C220.637 228.96 219.856 229.629 218.843 230.091C217.831 230.546 216.632 230.774 215.246 230.774H210.495V227.311H214.429C215.092 227.311 215.646 227.225 216.09 227.053C216.54 226.876 216.88 226.609 217.111 226.254C217.342 225.893 217.458 225.431 217.458 224.869C217.458 224.306 217.342 223.841 217.111 223.474C216.88 223.101 216.54 222.823 216.09 222.639C215.64 222.45 215.087 222.355 214.429 222.355H212.262V237H207.866ZM218.106 228.687L222.635 237H217.84L213.399 228.687H218.106ZM224.425 237V223.359H228.768V237H224.425ZM226.601 221.769C225.991 221.769 225.467 221.568 225.029 221.165C224.591 220.757 224.372 220.265 224.372 219.691C224.372 219.123 224.591 218.637 225.029 218.234C225.467 217.826 225.991 217.622 226.601 217.622C227.216 217.622 227.74 217.826 228.173 218.234C228.611 218.637 228.83 219.123 228.83 219.691C228.83 220.265 228.611 220.757 228.173 221.165C227.74 221.568 227.216 221.769 226.601 221.769ZM243.441 227.524L239.454 227.631C239.412 227.346 239.3 227.095 239.116 226.876C238.933 226.651 238.693 226.476 238.397 226.352C238.107 226.221 237.769 226.156 237.384 226.156C236.881 226.156 236.452 226.257 236.097 226.458C235.747 226.66 235.576 226.932 235.582 227.275C235.576 227.542 235.682 227.773 235.901 227.968C236.126 228.163 236.526 228.32 237.1 228.439L239.729 228.936C241.091 229.197 242.103 229.629 242.766 230.233C243.435 230.837 243.773 231.636 243.779 232.631C243.773 233.566 243.495 234.38 242.944 235.073C242.399 235.766 241.653 236.304 240.706 236.689C239.759 237.068 238.675 237.258 237.455 237.258C235.508 237.258 233.971 236.858 232.846 236.059C231.727 235.253 231.088 234.176 230.928 232.826L235.217 232.719C235.312 233.217 235.558 233.596 235.955 233.856C236.351 234.117 236.857 234.247 237.473 234.247C238.03 234.247 238.483 234.143 238.832 233.936C239.181 233.729 239.359 233.454 239.365 233.11C239.359 232.802 239.223 232.557 238.956 232.373C238.69 232.184 238.273 232.036 237.704 231.929L235.324 231.476C233.956 231.227 232.938 230.769 232.269 230.099C231.6 229.425 231.268 228.566 231.274 227.524C231.268 226.612 231.511 225.834 232.003 225.188C232.494 224.537 233.193 224.04 234.098 223.696C235.004 223.353 236.073 223.181 237.305 223.181C239.152 223.181 240.608 223.569 241.674 224.345C242.74 225.114 243.329 226.174 243.441 227.524ZM249.833 233.421L249.851 228.243H250.455L254.292 223.359H259.212L253.51 230.357H252.364L249.833 233.421ZM245.917 237V218.812H250.26V237H245.917ZM254.389 237L250.819 231.334L253.679 228.252L259.407 237H254.389Z" fill="black"/>
<circle cx="386" cy="228" r="10" fill="#0D2A3C"/>
<path d="M407.377 237V218.812H411.773V226.112H418.94V218.812H423.327V237H418.94V229.691H411.773V237H407.377ZM434.885 231.112V223.359H439.219V237H435.081V234.46H434.939C434.637 235.295 434.122 235.958 433.393 236.449C432.671 236.935 431.798 237.178 430.774 237.178C429.844 237.178 429.027 236.964 428.322 236.538C427.618 236.112 427.07 235.517 426.679 234.753C426.289 233.983 426.09 233.083 426.084 232.053V223.359H430.427V231.201C430.433 231.941 430.628 232.524 431.013 232.95C431.398 233.377 431.922 233.59 432.585 233.59C433.017 233.59 433.405 233.495 433.749 233.306C434.098 233.11 434.373 232.829 434.575 232.462C434.782 232.089 434.885 231.639 434.885 231.112ZM441.984 237V223.359H446.113V225.863H446.264C446.548 225.034 447.028 224.38 447.703 223.901C448.378 223.421 449.183 223.181 450.119 223.181C451.066 223.181 451.877 223.424 452.552 223.909C453.227 224.395 453.656 225.046 453.84 225.863H453.982C454.236 225.052 454.734 224.404 455.474 223.918C456.214 223.427 457.087 223.181 458.094 223.181C459.384 223.181 460.432 223.596 461.237 224.425C462.043 225.247 462.445 226.378 462.445 227.817V237H458.103V228.812C458.103 228.131 457.928 227.613 457.579 227.258C457.229 226.896 456.776 226.716 456.22 226.716C455.622 226.716 455.151 226.911 454.808 227.302C454.47 227.687 454.301 228.205 454.301 228.856V237H450.127V228.767C450.127 228.134 449.956 227.634 449.612 227.266C449.269 226.899 448.816 226.716 448.253 226.716C447.875 226.716 447.54 226.808 447.25 226.991C446.96 227.169 446.732 227.423 446.566 227.755C446.406 228.086 446.326 228.477 446.326 228.927V237H441.984ZM468.982 237.231C468.111 237.231 467.339 237.086 466.664 236.796C465.995 236.5 465.465 236.056 465.074 235.464C464.689 234.866 464.497 234.117 464.497 233.217C464.497 232.459 464.63 231.819 464.896 231.298C465.163 230.777 465.53 230.354 465.998 230.028C466.465 229.703 467.004 229.457 467.614 229.291C468.224 229.12 468.875 229.004 469.568 228.945C470.343 228.874 470.968 228.8 471.442 228.723C471.915 228.64 472.259 228.525 472.472 228.377C472.691 228.223 472.801 228.007 472.801 227.728V227.684C472.801 227.228 472.644 226.876 472.33 226.627C472.016 226.378 471.593 226.254 471.06 226.254C470.486 226.254 470.024 226.378 469.674 226.627C469.325 226.876 469.103 227.219 469.008 227.657L465.003 227.515C465.121 226.686 465.426 225.946 465.918 225.295C466.415 224.638 467.096 224.123 467.96 223.75C468.831 223.371 469.876 223.181 471.095 223.181C471.966 223.181 472.768 223.285 473.502 223.492C474.236 223.693 474.876 223.989 475.42 224.38C475.965 224.765 476.385 225.239 476.682 225.801C476.983 226.364 477.134 227.006 477.134 227.728V237H473.049V235.099H472.943C472.7 235.561 472.389 235.952 472.01 236.272C471.637 236.591 471.196 236.831 470.687 236.991C470.184 237.151 469.615 237.231 468.982 237.231ZM470.323 234.389C470.79 234.389 471.211 234.294 471.584 234.105C471.963 233.915 472.265 233.655 472.49 233.323C472.715 232.986 472.827 232.595 472.827 232.151V230.854C472.703 230.919 472.552 230.979 472.374 231.032C472.203 231.085 472.013 231.136 471.806 231.183C471.599 231.23 471.385 231.272 471.166 231.307C470.947 231.343 470.737 231.375 470.536 231.405C470.127 231.47 469.778 231.571 469.488 231.707C469.204 231.843 468.985 232.021 468.831 232.24C468.683 232.453 468.609 232.708 468.609 233.004C468.609 233.454 468.769 233.797 469.088 234.034C469.414 234.271 469.825 234.389 470.323 234.389ZM484.133 229.22V237H479.79V223.359H483.92V225.863H484.071C484.372 225.028 484.888 224.374 485.616 223.901C486.344 223.421 487.211 223.181 488.218 223.181C489.177 223.181 490.009 223.397 490.713 223.83C491.424 224.256 491.975 224.854 492.365 225.623C492.762 226.387 492.957 227.281 492.951 228.306V237H488.609V229.158C488.615 228.4 488.422 227.808 488.031 227.382C487.647 226.956 487.111 226.742 486.424 226.742C485.968 226.742 485.565 226.843 485.216 227.044C484.873 227.24 484.606 227.521 484.417 227.888C484.233 228.255 484.139 228.699 484.133 229.22ZM501.013 237V218.812H508.527C509.888 218.812 511.064 219.057 512.052 219.549C513.047 220.034 513.814 220.733 514.352 221.645C514.891 222.551 515.161 223.625 515.161 224.869C515.161 226.13 514.885 227.201 514.335 228.083C513.784 228.96 513.003 229.629 511.99 230.091C510.978 230.546 509.779 230.774 508.393 230.774H503.642V227.311H507.576C508.239 227.311 508.793 227.225 509.237 227.053C509.687 226.876 510.027 226.609 510.258 226.254C510.489 225.893 510.605 225.431 510.605 224.869C510.605 224.306 510.489 223.841 510.258 223.474C510.027 223.101 509.687 222.823 509.237 222.639C508.787 222.45 508.233 222.355 507.576 222.355H505.409V237H501.013ZM511.253 228.687L515.782 237H510.987L506.546 228.687H511.253ZM517.572 237V223.359H521.915V237H517.572ZM519.748 221.769C519.138 221.769 518.614 221.568 518.176 221.165C517.738 220.757 517.519 220.265 517.519 219.691C517.519 219.123 517.738 218.637 518.176 218.234C518.614 217.826 519.138 217.622 519.748 217.622C520.363 217.622 520.887 217.826 521.32 218.234C521.758 218.637 521.977 219.123 521.977 219.691C521.977 220.265 521.758 220.757 521.32 221.165C520.887 221.568 520.363 221.769 519.748 221.769ZM531.038 242.4C529.741 242.4 528.631 242.219 527.707 241.858C526.784 241.497 526.058 241.002 525.531 240.375C525.004 239.747 524.688 239.037 524.581 238.243L528.693 238.012C528.77 238.291 528.912 238.533 529.119 238.741C529.332 238.948 529.608 239.108 529.945 239.22C530.289 239.333 530.691 239.389 531.153 239.389C531.881 239.389 532.482 239.211 532.956 238.856C533.435 238.507 533.675 237.894 533.675 237.018V234.62H533.524C533.353 235.04 533.092 235.416 532.743 235.748C532.393 236.079 531.958 236.34 531.437 236.529C530.922 236.719 530.33 236.813 529.661 236.813C528.666 236.813 527.755 236.583 526.926 236.121C526.103 235.653 525.443 234.931 524.945 233.954C524.454 232.971 524.208 231.707 524.208 230.162C524.208 228.569 524.463 227.258 524.972 226.227C525.481 225.191 526.147 224.425 526.97 223.927C527.799 223.43 528.69 223.181 529.643 223.181C530.36 223.181 530.972 223.306 531.482 223.554C531.997 223.797 532.42 224.111 532.752 224.496C533.083 224.88 533.335 225.28 533.506 225.695H533.631V223.359H537.956V237.053C537.956 238.208 537.666 239.182 537.086 239.975C536.505 240.768 535.694 241.369 534.652 241.778C533.61 242.192 532.405 242.4 531.038 242.4ZM531.171 233.652C531.698 233.652 532.148 233.513 532.521 233.234C532.894 232.956 533.181 232.557 533.382 232.036C533.583 231.515 533.684 230.89 533.684 230.162C533.684 229.422 533.583 228.785 533.382 228.252C533.187 227.713 532.9 227.299 532.521 227.009C532.148 226.719 531.698 226.574 531.171 226.574C530.632 226.574 530.176 226.722 529.803 227.018C529.43 227.314 529.146 227.731 528.951 228.27C528.761 228.803 528.666 229.433 528.666 230.162C528.666 230.89 528.764 231.515 528.959 232.036C529.155 232.557 529.436 232.956 529.803 233.234C530.176 233.513 530.632 233.652 531.171 233.652ZM545.067 229.22V237H540.725V218.812H544.925V225.863H545.076C545.384 225.023 545.887 224.365 546.586 223.892C547.291 223.418 548.152 223.181 549.17 223.181C550.129 223.181 550.964 223.394 551.675 223.821C552.385 224.241 552.936 224.836 553.327 225.606C553.723 226.375 553.919 227.275 553.913 228.306V237H549.57V229.158C549.576 228.4 549.386 227.808 549.002 227.382C548.617 226.956 548.075 226.742 547.376 226.742C546.92 226.742 546.518 226.843 546.169 227.044C545.825 227.24 545.556 227.521 545.36 227.888C545.171 228.255 545.073 228.699 545.067 229.22ZM564.323 223.359V226.556H555.718V223.359H564.323ZM557.521 220.091H561.863V232.71C561.863 232.977 561.905 233.193 561.988 233.359C562.077 233.519 562.204 233.634 562.37 233.705C562.535 233.77 562.734 233.803 562.965 233.803C563.13 233.803 563.305 233.788 563.489 233.758C563.678 233.723 563.82 233.693 563.915 233.67L564.572 236.805C564.365 236.864 564.072 236.938 563.693 237.027C563.32 237.115 562.873 237.172 562.352 237.195C561.334 237.243 560.46 237.124 559.732 236.84C559.01 236.55 558.456 236.1 558.071 235.49C557.692 234.88 557.509 234.114 557.521 233.19V220.091ZM578.278 227.524L574.29 227.631C574.249 227.346 574.136 227.095 573.953 226.876C573.769 226.651 573.529 226.476 573.233 226.352C572.943 226.221 572.606 226.156 572.221 226.156C571.718 226.156 571.288 226.257 570.933 226.458C570.584 226.66 570.412 226.932 570.418 227.275C570.412 227.542 570.519 227.773 570.738 227.968C570.963 228.163 571.362 228.32 571.937 228.439L574.565 228.936C575.927 229.197 576.94 229.629 577.603 230.233C578.272 230.837 578.609 231.636 578.615 232.631C578.609 233.566 578.331 234.38 577.78 235.073C577.236 235.766 576.49 236.304 575.542 236.689C574.595 237.068 573.512 237.258 572.292 237.258C570.344 237.258 568.808 236.858 567.683 236.059C566.564 235.253 565.924 234.176 565.764 232.826L570.054 232.719C570.149 233.217 570.394 233.596 570.791 233.856C571.188 234.117 571.694 234.247 572.31 234.247C572.866 234.247 573.319 234.143 573.669 233.936C574.018 233.729 574.195 233.454 574.201 233.11C574.195 232.802 574.059 232.557 573.793 232.373C573.526 232.184 573.109 232.036 572.541 231.929L570.161 231.476C568.793 231.227 567.774 230.769 567.105 230.099C566.436 229.425 566.105 228.566 566.111 227.524C566.105 226.612 566.348 225.834 566.839 225.188C567.33 224.537 568.029 224.04 568.935 223.696C569.841 223.353 570.909 223.181 572.141 223.181C573.988 223.181 575.445 223.569 576.51 224.345C577.576 225.114 578.165 226.174 578.278 227.524ZM586.126 237V218.812H593.64C595.001 218.812 596.177 219.057 597.165 219.549C598.16 220.034 598.927 220.733 599.466 221.645C600.004 222.551 600.274 223.625 600.274 224.869C600.274 226.13 599.998 227.201 599.448 228.083C598.897 228.96 598.116 229.629 597.103 230.091C596.091 230.546 594.892 230.774 593.506 230.774H588.755V227.311H592.689C593.352 227.311 593.906 227.225 594.35 227.053C594.8 226.876 595.141 226.609 595.371 226.254C595.602 225.893 595.718 225.431 595.718 224.869C595.718 224.306 595.602 223.841 595.371 223.474C595.141 223.101 594.8 222.823 594.35 222.639C593.9 222.45 593.347 222.355 592.689 222.355H590.522V237H586.126ZM596.366 228.687L600.895 237H596.1L591.659 228.687H596.366ZM602.685 237V223.359H607.028V237H602.685ZM604.861 221.769C604.251 221.769 603.727 221.568 603.289 221.165C602.851 220.757 602.632 220.265 602.632 219.691C602.632 219.123 602.851 218.637 603.289 218.234C603.727 217.826 604.251 217.622 604.861 217.622C605.477 217.622 606 217.826 606.433 218.234C606.871 218.637 607.09 219.123 607.09 219.691C607.09 220.265 606.871 220.757 606.433 221.165C606 221.568 605.477 221.769 604.861 221.769ZM621.701 227.524L617.714 227.631C617.672 227.346 617.56 227.095 617.376 226.876C617.193 226.651 616.953 226.476 616.657 226.352C616.367 226.221 616.029 226.156 615.644 226.156C615.141 226.156 614.712 226.257 614.357 226.458C614.007 226.66 613.836 226.932 613.842 227.275C613.836 227.542 613.942 227.773 614.161 227.968C614.386 228.163 614.786 228.32 615.36 228.439L617.989 228.936C619.351 229.197 620.363 229.629 621.026 230.233C621.695 230.837 622.033 231.636 622.039 232.631C622.033 233.566 621.755 234.38 621.204 235.073C620.659 235.766 619.913 236.304 618.966 236.689C618.019 237.068 616.935 237.258 615.716 237.258C613.768 237.258 612.231 236.858 611.106 236.059C609.987 235.253 609.348 234.176 609.188 232.826L613.478 232.719C613.572 233.217 613.818 233.596 614.215 233.856C614.611 234.117 615.118 234.247 615.733 234.247C616.29 234.247 616.743 234.143 617.092 233.936C617.441 233.729 617.619 233.454 617.625 233.11C617.619 232.802 617.483 232.557 617.216 232.373C616.95 232.184 616.533 232.036 615.964 231.929L613.584 231.476C612.216 231.227 611.198 230.769 610.529 230.099C609.86 229.425 609.528 228.566 609.534 227.524C609.528 226.612 609.771 225.834 610.263 225.188C610.754 224.537 611.453 224.04 612.359 223.696C613.264 223.353 614.333 223.181 615.565 223.181C617.412 223.181 618.868 223.569 619.934 224.345C621 225.114 621.589 226.174 621.701 227.524ZM628.093 233.421L628.111 228.243H628.715L632.552 223.359H637.472L631.77 230.357H630.624L628.093 233.421ZM624.177 237V218.812H628.52V237H624.177ZM632.649 237L629.079 231.334L631.939 228.252L637.667 237H632.649Z" fill="black"/>
<circle cx="699" cy="228" r="10" fill="#E1E1E1"/>
<path d="M720.377 237V218.812H733.059V222.382H724.773V226.112H732.41V229.691H724.773V233.43H733.059V237H720.377ZM740.155 229.22V237H735.812V223.359H739.941V225.863H740.092C740.394 225.028 740.909 224.374 741.638 223.901C742.366 223.421 743.233 223.181 744.24 223.181C745.199 223.181 746.031 223.397 746.735 223.83C747.446 224.256 747.996 224.854 748.387 225.623C748.784 226.387 748.979 227.281 748.973 228.306V237H744.631V229.158C744.636 228.4 744.444 227.808 744.053 227.382C743.668 226.956 743.133 226.742 742.446 226.742C741.99 226.742 741.587 226.843 741.238 227.044C740.895 227.24 740.628 227.521 740.439 227.888C740.255 228.255 740.16 228.699 740.155 229.22ZM764.406 223.359L759.726 237H754.753L750.081 223.359H754.655L757.168 232.755H757.31L759.833 223.359H764.406ZM766.071 237V223.359H770.414V237H766.071ZM768.247 221.769C767.637 221.769 767.113 221.568 766.675 221.165C766.237 220.757 766.018 220.265 766.018 219.691C766.018 219.123 766.237 218.637 766.675 218.234C767.113 217.826 767.637 217.622 768.247 217.622C768.863 217.622 769.387 217.826 769.819 218.234C770.257 218.637 770.476 219.123 770.476 219.691C770.476 220.265 770.257 220.757 769.819 221.165C769.387 221.568 768.863 221.769 768.247 221.769ZM773.178 237V223.359H777.397V225.845H777.539C777.788 224.946 778.193 224.277 778.756 223.838C779.318 223.394 779.972 223.172 780.718 223.172C780.92 223.172 781.127 223.187 781.34 223.217C781.553 223.24 781.752 223.279 781.935 223.332V227.107C781.728 227.036 781.456 226.979 781.118 226.938C780.786 226.896 780.49 226.876 780.23 226.876C779.715 226.876 779.25 226.991 778.836 227.222C778.427 227.447 778.104 227.764 777.868 228.172C777.637 228.575 777.521 229.049 777.521 229.593V237H773.178ZM789.364 237.258C787.931 237.258 786.7 236.964 785.67 236.378C784.645 235.786 783.855 234.963 783.298 233.909C782.748 232.85 782.472 231.621 782.472 230.224C782.472 228.821 782.748 227.592 783.298 226.538C783.855 225.478 784.645 224.655 785.67 224.069C786.7 223.477 787.931 223.181 789.364 223.181C790.797 223.181 792.025 223.477 793.05 224.069C794.08 224.655 794.87 225.478 795.421 226.538C795.977 227.592 796.256 228.821 796.256 230.224C796.256 231.621 795.977 232.85 795.421 233.909C794.87 234.963 794.08 235.786 793.05 236.378C792.025 236.964 790.797 237.258 789.364 237.258ZM789.391 233.98C789.912 233.98 790.353 233.821 790.714 233.501C791.075 233.181 791.35 232.737 791.54 232.169C791.735 231.6 791.833 230.943 791.833 230.197C791.833 229.439 791.735 228.776 791.54 228.208C791.35 227.639 791.075 227.195 790.714 226.876C790.353 226.556 789.912 226.396 789.391 226.396C788.852 226.396 788.396 226.556 788.023 226.876C787.656 227.195 787.375 227.639 787.179 228.208C786.99 228.776 786.895 229.439 786.895 230.197C786.895 230.943 786.99 231.6 787.179 232.169C787.375 232.737 787.656 233.181 788.023 233.501C788.396 233.821 788.852 233.98 789.391 233.98ZM802.823 229.22V237H798.48V223.359H802.61V225.863H802.761C803.063 225.028 803.578 224.374 804.306 223.901C805.035 223.421 805.902 223.181 806.908 223.181C807.868 223.181 808.699 223.397 809.404 223.83C810.114 224.256 810.665 224.854 811.056 225.623C811.453 226.387 811.648 227.281 811.642 228.306V237H807.299V229.158C807.305 228.4 807.113 227.808 806.722 227.382C806.337 226.956 805.801 226.742 805.114 226.742C804.659 226.742 804.256 226.843 803.907 227.044C803.563 227.24 803.297 227.521 803.107 227.888C802.924 228.255 802.829 228.699 802.823 229.22ZM814.331 237V223.359H818.46V225.863H818.611C818.896 225.034 819.375 224.38 820.05 223.901C820.725 223.421 821.53 223.181 822.466 223.181C823.413 223.181 824.224 223.424 824.899 223.909C825.574 224.395 826.003 225.046 826.187 225.863H826.329C826.583 225.052 827.081 224.404 827.821 223.918C828.561 223.427 829.434 223.181 830.441 223.181C831.731 223.181 832.779 223.596 833.585 224.425C834.39 225.247 834.792 226.378 834.792 227.817V237H830.45V228.812C830.45 228.131 830.275 227.613 829.926 227.258C829.576 226.896 829.123 226.716 828.567 226.716C827.969 226.716 827.498 226.911 827.155 227.302C826.817 227.687 826.649 228.205 826.649 228.856V237H822.475V228.767C822.475 228.134 822.303 227.634 821.959 227.266C821.616 226.899 821.163 226.716 820.601 226.716C820.222 226.716 819.887 226.808 819.597 226.991C819.307 227.169 819.079 227.423 818.913 227.755C818.753 228.086 818.673 228.477 818.673 228.927V237H814.331ZM843.86 237.258C842.433 237.258 841.202 236.976 840.165 236.414C839.135 235.845 838.342 235.037 837.785 233.989C837.235 232.935 836.959 231.683 836.959 230.233C836.959 228.824 837.238 227.592 837.794 226.538C838.351 225.478 839.135 224.655 840.148 224.069C841.16 223.477 842.353 223.181 843.727 223.181C844.698 223.181 845.586 223.332 846.391 223.634C847.196 223.936 847.892 224.383 848.478 224.975C849.064 225.567 849.52 226.298 849.846 227.169C850.171 228.033 850.334 229.025 850.334 230.144V231.227H838.478V228.705H846.293C846.287 228.243 846.178 227.832 845.965 227.471C845.752 227.11 845.459 226.828 845.086 226.627C844.718 226.42 844.295 226.316 843.816 226.316C843.33 226.316 842.895 226.426 842.51 226.645C842.125 226.858 841.82 227.151 841.595 227.524C841.37 227.891 841.252 228.308 841.24 228.776V231.343C841.24 231.899 841.35 232.388 841.569 232.808C841.788 233.223 842.099 233.545 842.501 233.776C842.904 234.007 843.383 234.123 843.94 234.123C844.325 234.123 844.674 234.069 844.988 233.963C845.302 233.856 845.571 233.699 845.796 233.492C846.021 233.285 846.19 233.03 846.302 232.728L850.29 232.844C850.124 233.738 849.76 234.516 849.197 235.179C848.641 235.837 847.91 236.349 847.004 236.716C846.098 237.077 845.05 237.258 843.86 237.258ZM856.895 229.22V237H852.552V223.359H856.682V225.863H856.833C857.135 225.028 857.65 224.374 858.378 223.901C859.106 223.421 859.974 223.181 860.98 223.181C861.939 223.181 862.771 223.397 863.476 223.83C864.186 224.256 864.737 224.854 865.128 225.623C865.524 226.387 865.72 227.281 865.714 228.306V237H861.371V229.158C861.377 228.4 861.185 227.808 860.794 227.382C860.409 226.956 859.873 226.742 859.186 226.742C858.73 226.742 858.328 226.843 857.979 227.044C857.635 227.24 857.369 227.521 857.179 227.888C856.996 228.255 856.901 228.699 856.895 229.22ZM876.102 223.359V226.556H867.497V223.359H876.102ZM869.3 220.091H873.642V232.71C873.642 232.977 873.684 233.193 873.767 233.359C873.855 233.519 873.983 233.634 874.149 233.705C874.314 233.77 874.513 233.803 874.744 233.803C874.909 233.803 875.084 233.788 875.268 233.758C875.457 233.723 875.599 233.693 875.694 233.67L876.351 236.805C876.144 236.864 875.851 236.938 875.472 237.027C875.099 237.115 874.652 237.172 874.131 237.195C873.112 237.243 872.239 237.124 871.511 236.84C870.789 236.55 870.235 236.1 869.85 235.49C869.471 234.88 869.288 234.114 869.3 233.19V220.091ZM882.164 237.231C881.293 237.231 880.521 237.086 879.846 236.796C879.177 236.5 878.647 236.056 878.256 235.464C877.871 234.866 877.679 234.117 877.679 233.217C877.679 232.459 877.812 231.819 878.078 231.298C878.345 230.777 878.712 230.354 879.18 230.028C879.647 229.703 880.186 229.457 880.796 229.291C881.406 229.12 882.057 229.004 882.75 228.945C883.525 228.874 884.15 228.8 884.624 228.723C885.097 228.64 885.441 228.525 885.654 228.377C885.873 228.223 885.982 228.007 885.982 227.728V227.684C885.982 227.228 885.826 226.876 885.512 226.627C885.198 226.378 884.775 226.254 884.242 226.254C883.667 226.254 883.206 226.378 882.856 226.627C882.507 226.876 882.285 227.219 882.19 227.657L878.185 227.515C878.303 226.686 878.608 225.946 879.1 225.295C879.597 224.638 880.278 224.123 881.142 223.75C882.013 223.371 883.058 223.181 884.277 223.181C885.148 223.181 885.95 223.285 886.684 223.492C887.418 223.693 888.058 223.989 888.602 224.38C889.147 224.765 889.567 225.239 889.863 225.801C890.165 226.364 890.316 227.006 890.316 227.728V237H886.231V235.099H886.125C885.882 235.561 885.571 235.952 885.192 236.272C884.819 236.591 884.378 236.831 883.869 236.991C883.366 237.151 882.797 237.231 882.164 237.231ZM883.505 234.389C883.972 234.389 884.393 234.294 884.766 234.105C885.145 233.915 885.447 233.655 885.672 233.323C885.897 232.986 886.009 232.595 886.009 232.151V230.854C885.885 230.919 885.734 230.979 885.556 231.032C885.384 231.085 885.195 231.136 884.988 231.183C884.781 231.23 884.567 231.272 884.348 231.307C884.129 231.343 883.919 231.375 883.718 231.405C883.309 231.47 882.96 231.571 882.67 231.707C882.386 231.843 882.167 232.021 882.013 232.24C881.865 232.453 881.791 232.708 881.791 233.004C881.791 233.454 881.95 233.797 882.27 234.034C882.596 234.271 883.007 234.389 883.505 234.389ZM897.315 218.812V237H892.972V218.812H897.315ZM905.452 237V218.812H912.965C914.327 218.812 915.502 219.057 916.491 219.549C917.486 220.034 918.252 220.733 918.791 221.645C919.33 222.551 919.599 223.625 919.599 224.869C919.599 226.13 919.324 227.201 918.773 228.083C918.223 228.96 917.441 229.629 916.429 230.091C915.416 230.546 914.217 230.774 912.832 230.774H908.081V227.311H912.015C912.678 227.311 913.232 227.225 913.676 227.053C914.126 226.876 914.466 226.609 914.697 226.254C914.928 225.893 915.043 225.431 915.043 224.869C915.043 224.306 914.928 223.841 914.697 223.474C914.466 223.101 914.126 222.823 913.676 222.639C913.226 222.45 912.672 222.355 912.015 222.355H909.848V237H905.452ZM915.692 228.687L920.221 237H915.425L910.985 228.687H915.692ZM922.01 237V223.359H926.353V237H922.01ZM924.186 221.769C923.576 221.769 923.052 221.568 922.614 221.165C922.176 220.757 921.957 220.265 921.957 219.691C921.957 219.123 922.176 218.637 922.614 218.234C923.052 217.826 923.576 217.622 924.186 217.622C924.802 217.622 925.326 217.826 925.758 218.234C926.196 218.637 926.415 219.123 926.415 219.691C926.415 220.265 926.196 220.757 925.758 221.165C925.326 221.568 924.802 221.769 924.186 221.769ZM941.027 227.524L937.039 227.631C936.998 227.346 936.885 227.095 936.702 226.876C936.518 226.651 936.278 226.476 935.982 226.352C935.692 226.221 935.355 226.156 934.97 226.156C934.467 226.156 934.037 226.257 933.682 226.458C933.333 226.66 933.161 226.932 933.167 227.275C933.161 227.542 933.268 227.773 933.487 227.968C933.712 228.163 934.111 228.32 934.686 228.439L937.315 228.936C938.676 229.197 939.689 229.629 940.352 230.233C941.021 230.837 941.358 231.636 941.364 232.631C941.358 233.566 941.08 234.38 940.529 235.073C939.985 235.766 939.239 236.304 938.291 236.689C937.344 237.068 936.261 237.258 935.041 237.258C933.093 237.258 931.557 236.858 930.432 236.059C929.313 235.253 928.673 234.176 928.513 232.826L932.803 232.719C932.898 233.217 933.143 233.596 933.54 233.856C933.937 234.117 934.443 234.247 935.059 234.247C935.615 234.247 936.068 234.143 936.418 233.936C936.767 233.729 936.945 233.454 936.95 233.11C936.945 232.802 936.808 232.557 936.542 232.373C936.275 232.184 935.858 232.036 935.29 231.929L932.91 231.476C931.542 231.227 930.524 230.769 929.855 230.099C929.185 229.425 928.854 228.566 928.86 227.524C928.854 226.612 929.097 225.834 929.588 225.188C930.08 224.537 930.778 224.04 931.684 223.696C932.59 223.353 933.659 223.181 934.89 223.181C936.737 223.181 938.194 223.569 939.259 224.345C940.325 225.114 940.914 226.174 941.027 227.524ZM947.419 233.421L947.437 228.243H948.041L951.877 223.359H956.797L951.096 230.357H949.95L947.419 233.421ZM943.502 237V218.812H947.845V237H943.502ZM951.975 237L948.405 231.334L951.264 228.252L956.993 237H951.975Z" fill="black"/>
<circle cx="1030" cy="228" r="10" fill="#E1E1E1"/>
<path d="M1063.31 224.753C1063.21 224.38 1063.06 224.052 1062.87 223.767C1062.67 223.477 1062.43 223.232 1062.15 223.03C1061.86 222.829 1061.54 222.678 1061.17 222.577C1060.81 222.471 1060.4 222.417 1059.96 222.417C1059.08 222.417 1058.32 222.631 1057.67 223.057C1057.03 223.483 1056.54 224.105 1056.19 224.922C1055.84 225.733 1055.67 226.719 1055.67 227.879C1055.67 229.046 1055.83 230.04 1056.17 230.863C1056.51 231.686 1057 232.314 1057.64 232.746C1058.28 233.178 1059.05 233.394 1059.96 233.394C1060.77 233.394 1061.45 233.264 1062.01 233.004C1062.57 232.737 1063 232.361 1063.29 231.876C1063.58 231.39 1063.72 230.819 1063.72 230.162L1064.54 230.259H1060.12V227.053H1067.96V229.46C1067.96 231.088 1067.61 232.483 1066.92 233.643C1066.23 234.803 1065.28 235.694 1064.08 236.316C1062.87 236.938 1061.49 237.249 1059.93 237.249C1058.19 237.249 1056.67 236.873 1055.36 236.121C1054.04 235.369 1053.02 234.297 1052.28 232.906C1051.55 231.509 1051.18 229.851 1051.18 227.933C1051.18 226.441 1051.4 225.117 1051.85 223.963C1052.29 222.802 1052.91 221.819 1053.7 221.014C1054.5 220.209 1055.43 219.599 1056.47 219.185C1057.53 218.77 1058.66 218.563 1059.88 218.563C1060.93 218.563 1061.91 218.714 1062.82 219.016C1063.73 219.318 1064.53 219.744 1065.23 220.295C1065.94 220.845 1066.51 221.5 1066.94 222.258C1067.38 223.015 1067.66 223.847 1067.76 224.753H1063.31ZM1076.92 237.258C1075.48 237.258 1074.25 236.964 1073.22 236.378C1072.2 235.786 1071.41 234.963 1070.85 233.909C1070.3 232.85 1070.02 231.621 1070.02 230.224C1070.02 228.821 1070.3 227.592 1070.85 226.538C1071.41 225.478 1072.2 224.655 1073.22 224.069C1074.25 223.477 1075.48 223.181 1076.92 223.181C1078.35 223.181 1079.58 223.477 1080.6 224.069C1081.63 224.655 1082.42 225.478 1082.97 226.538C1083.53 227.592 1083.81 228.821 1083.81 230.224C1083.81 231.621 1083.53 232.85 1082.97 233.909C1082.42 234.963 1081.63 235.786 1080.6 236.378C1079.58 236.964 1078.35 237.258 1076.92 237.258ZM1076.94 233.98C1077.46 233.98 1077.9 233.821 1078.27 233.501C1078.63 233.181 1078.9 232.737 1079.09 232.169C1079.29 231.6 1079.38 230.943 1079.38 230.197C1079.38 229.439 1079.29 228.776 1079.09 228.208C1078.9 227.639 1078.63 227.195 1078.27 226.876C1077.9 226.556 1077.46 226.396 1076.94 226.396C1076.4 226.396 1075.95 226.556 1075.58 226.876C1075.21 227.195 1074.93 227.639 1074.73 228.208C1074.54 228.776 1074.45 229.439 1074.45 230.197C1074.45 230.943 1074.54 231.6 1074.73 232.169C1074.93 232.737 1075.21 233.181 1075.58 233.501C1075.95 233.821 1076.4 233.98 1076.94 233.98ZM1098.83 223.359L1094.15 237H1089.17L1084.5 223.359H1089.07L1091.59 232.755H1091.73L1094.25 223.359H1098.83ZM1106.43 237.258C1105 237.258 1103.77 236.976 1102.73 236.414C1101.7 235.845 1100.91 235.037 1100.35 233.989C1099.8 232.935 1099.53 231.683 1099.53 230.233C1099.53 228.824 1099.81 227.592 1100.36 226.538C1100.92 225.478 1101.7 224.655 1102.72 224.069C1103.73 223.477 1104.92 223.181 1106.29 223.181C1107.27 223.181 1108.15 223.332 1108.96 223.634C1109.76 223.936 1110.46 224.383 1111.05 224.975C1111.63 225.567 1112.09 226.298 1112.41 227.169C1112.74 228.033 1112.9 229.025 1112.9 230.144V231.227H1101.05V228.705H1108.86C1108.86 228.243 1108.75 227.832 1108.53 227.471C1108.32 227.11 1108.03 226.828 1107.65 226.627C1107.29 226.42 1106.86 226.316 1106.38 226.316C1105.9 226.316 1105.46 226.426 1105.08 226.645C1104.69 226.858 1104.39 227.151 1104.16 227.524C1103.94 227.891 1103.82 228.308 1103.81 228.776V231.343C1103.81 231.899 1103.92 232.388 1104.14 232.808C1104.36 233.223 1104.67 233.545 1105.07 233.776C1105.47 234.007 1105.95 234.123 1106.51 234.123C1106.89 234.123 1107.24 234.069 1107.56 233.963C1107.87 233.856 1108.14 233.699 1108.36 233.492C1108.59 233.285 1108.76 233.03 1108.87 232.728L1112.86 232.844C1112.69 233.738 1112.33 234.516 1111.77 235.179C1111.21 235.837 1110.48 236.349 1109.57 236.716C1108.67 237.077 1107.62 237.258 1106.43 237.258ZM1115.12 237V223.359H1119.34V225.845H1119.48C1119.73 224.946 1120.13 224.277 1120.7 223.838C1121.26 223.394 1121.91 223.172 1122.66 223.172C1122.86 223.172 1123.07 223.187 1123.28 223.217C1123.49 223.24 1123.69 223.279 1123.88 223.332V227.107C1123.67 227.036 1123.4 226.979 1123.06 226.938C1122.73 226.896 1122.43 226.876 1122.17 226.876C1121.66 226.876 1121.19 226.991 1120.78 227.222C1120.37 227.447 1120.05 227.764 1119.81 228.172C1119.58 228.575 1119.46 229.049 1119.46 229.593V237H1115.12ZM1129.99 229.22V237H1125.65V223.359H1129.78V225.863H1129.93C1130.23 225.028 1130.74 224.374 1131.47 223.901C1132.2 223.421 1133.07 223.181 1134.07 223.181C1135.03 223.181 1135.87 223.397 1136.57 223.83C1137.28 224.256 1137.83 224.854 1138.22 225.623C1138.62 226.387 1138.81 227.281 1138.81 228.306V237H1134.46V229.158C1134.47 228.4 1134.28 227.808 1133.89 227.382C1133.5 226.956 1132.97 226.742 1132.28 226.742C1131.82 226.742 1131.42 226.843 1131.07 227.044C1130.73 227.24 1130.46 227.521 1130.27 227.888C1130.09 228.255 1129.99 228.699 1129.99 229.22ZM1145.34 237.231C1144.47 237.231 1143.7 237.086 1143.02 236.796C1142.35 236.5 1141.82 236.056 1141.43 235.464C1141.05 234.866 1140.86 234.117 1140.86 233.217C1140.86 232.459 1140.99 231.819 1141.26 231.298C1141.52 230.777 1141.89 230.354 1142.36 230.028C1142.83 229.703 1143.36 229.457 1143.97 229.291C1144.58 229.12 1145.24 229.004 1145.93 228.945C1146.7 228.874 1147.33 228.8 1147.8 228.723C1148.28 228.64 1148.62 228.525 1148.83 228.377C1149.05 228.223 1149.16 228.007 1149.16 227.728V227.684C1149.16 227.228 1149 226.876 1148.69 226.627C1148.38 226.378 1147.95 226.254 1147.42 226.254C1146.85 226.254 1146.38 226.378 1146.03 226.627C1145.69 226.876 1145.46 227.219 1145.37 227.657L1141.36 227.515C1141.48 226.686 1141.79 225.946 1142.28 225.295C1142.78 224.638 1143.46 224.123 1144.32 223.75C1145.19 223.371 1146.24 223.181 1147.46 223.181C1148.33 223.181 1149.13 223.285 1149.86 223.492C1150.6 223.693 1151.24 223.989 1151.78 224.38C1152.33 224.765 1152.75 225.239 1153.04 225.801C1153.34 226.364 1153.49 227.006 1153.49 227.728V237H1149.41V235.099H1149.3C1149.06 235.561 1148.75 235.952 1148.37 236.272C1148 236.591 1147.56 236.831 1147.05 236.991C1146.54 237.151 1145.98 237.231 1145.34 237.231ZM1146.68 234.389C1147.15 234.389 1147.57 234.294 1147.94 234.105C1148.32 233.915 1148.62 233.655 1148.85 233.323C1149.07 232.986 1149.19 232.595 1149.19 232.151V230.854C1149.06 230.919 1148.91 230.979 1148.73 231.032C1148.56 231.085 1148.37 231.136 1148.17 231.183C1147.96 231.23 1147.75 231.272 1147.53 231.307C1147.31 231.343 1147.1 231.375 1146.9 231.405C1146.49 231.47 1146.14 231.571 1145.85 231.707C1145.56 231.843 1145.34 232.021 1145.19 232.24C1145.04 232.453 1144.97 232.708 1144.97 233.004C1144.97 233.454 1145.13 233.797 1145.45 234.034C1145.77 234.271 1146.19 234.389 1146.68 234.389ZM1160.49 229.22V237H1156.15V223.359H1160.28V225.863H1160.43C1160.73 225.028 1161.25 224.374 1161.98 223.901C1162.7 223.421 1163.57 223.181 1164.58 223.181C1165.54 223.181 1166.37 223.397 1167.07 223.83C1167.78 224.256 1168.33 224.854 1168.73 225.623C1169.12 226.387 1169.32 227.281 1169.31 228.306V237H1164.97V229.158C1164.97 228.4 1164.78 227.808 1164.39 227.382C1164.01 226.956 1163.47 226.742 1162.78 226.742C1162.33 226.742 1161.93 226.843 1161.58 227.044C1161.23 227.24 1160.97 227.521 1160.78 227.888C1160.59 228.255 1160.5 228.699 1160.49 229.22ZM1178.37 237.258C1176.93 237.258 1175.69 236.962 1174.66 236.369C1173.64 235.777 1172.85 234.954 1172.3 233.901C1171.75 232.841 1171.48 231.615 1171.48 230.224C1171.48 228.827 1171.75 227.601 1172.3 226.547C1172.86 225.487 1173.65 224.661 1174.67 224.069C1175.7 223.477 1176.93 223.181 1178.36 223.181C1179.62 223.181 1180.72 223.409 1181.65 223.865C1182.6 224.321 1183.33 224.966 1183.86 225.801C1184.39 226.63 1184.67 227.604 1184.7 228.723H1180.64C1180.56 228.024 1180.32 227.477 1179.93 227.08C1179.55 226.683 1179.04 226.485 1178.42 226.485C1177.92 226.485 1177.48 226.627 1177.1 226.911C1176.72 227.189 1176.42 227.604 1176.21 228.155C1176 228.699 1175.9 229.374 1175.9 230.179C1175.9 230.985 1176 231.665 1176.21 232.222C1176.42 232.773 1176.72 233.19 1177.1 233.474C1177.48 233.753 1177.92 233.892 1178.42 233.892C1178.82 233.892 1179.18 233.806 1179.49 233.634C1179.8 233.462 1180.06 233.211 1180.26 232.879C1180.46 232.542 1180.59 232.133 1180.64 231.654H1184.7C1184.66 232.779 1184.38 233.761 1183.86 234.602C1183.34 235.443 1182.62 236.097 1181.68 236.565C1180.75 237.027 1179.65 237.258 1178.37 237.258ZM1193.3 237.258C1191.87 237.258 1190.64 236.976 1189.6 236.414C1188.57 235.845 1187.78 235.037 1187.22 233.989C1186.67 232.935 1186.4 231.683 1186.4 230.233C1186.4 228.824 1186.68 227.592 1187.23 226.538C1187.79 225.478 1188.57 224.655 1189.59 224.069C1190.6 223.477 1191.79 223.181 1193.17 223.181C1194.14 223.181 1195.02 223.332 1195.83 223.634C1196.64 223.936 1197.33 224.383 1197.92 224.975C1198.5 225.567 1198.96 226.298 1199.28 227.169C1199.61 228.033 1199.77 229.025 1199.77 230.144V231.227H1187.92V228.705H1195.73C1195.73 228.243 1195.62 227.832 1195.4 227.471C1195.19 227.11 1194.9 226.828 1194.52 226.627C1194.16 226.42 1193.73 226.316 1193.25 226.316C1192.77 226.316 1192.33 226.426 1191.95 226.645C1191.56 226.858 1191.26 227.151 1191.03 227.524C1190.81 227.891 1190.69 228.308 1190.68 228.776V231.343C1190.68 231.899 1190.79 232.388 1191.01 232.808C1191.23 233.223 1191.54 233.545 1191.94 233.776C1192.34 234.007 1192.82 234.123 1193.38 234.123C1193.76 234.123 1194.11 234.069 1194.43 233.963C1194.74 233.856 1195.01 233.699 1195.24 233.492C1195.46 233.285 1195.63 233.03 1195.74 232.728L1199.73 232.844C1199.56 233.738 1199.2 234.516 1198.64 235.179C1198.08 235.837 1197.35 236.349 1196.44 236.716C1195.54 237.077 1194.49 237.258 1193.3 237.258ZM1207.36 237V218.812H1214.88C1216.24 218.812 1217.41 219.057 1218.4 219.549C1219.4 220.034 1220.16 220.733 1220.7 221.645C1221.24 222.551 1221.51 223.625 1221.51 224.869C1221.51 226.13 1221.24 227.201 1220.69 228.083C1220.14 228.96 1219.35 229.629 1218.34 230.091C1217.33 230.546 1216.13 230.774 1214.74 230.774H1209.99V227.311H1213.93C1214.59 227.311 1215.14 227.225 1215.59 227.053C1216.04 226.876 1216.38 226.609 1216.61 226.254C1216.84 225.893 1216.96 225.431 1216.96 224.869C1216.96 224.306 1216.84 223.841 1216.61 223.474C1216.38 223.101 1216.04 222.823 1215.59 222.639C1215.14 222.45 1214.58 222.355 1213.93 222.355H1211.76V237H1207.36ZM1217.6 228.687L1222.13 237H1217.34L1212.9 228.687H1217.6ZM1223.92 237V223.359H1228.27V237H1223.92ZM1226.1 221.769C1225.49 221.769 1224.96 221.568 1224.53 221.165C1224.09 220.757 1223.87 220.265 1223.87 219.691C1223.87 219.123 1224.09 218.637 1224.53 218.234C1224.96 217.826 1225.49 217.622 1226.1 217.622C1226.71 217.622 1227.24 217.826 1227.67 218.234C1228.11 218.637 1228.33 219.123 1228.33 219.691C1228.33 220.265 1228.11 220.757 1227.67 221.165C1227.24 221.568 1226.71 221.769 1226.1 221.769ZM1242.94 227.524L1238.95 227.631C1238.91 227.346 1238.8 227.095 1238.61 226.876C1238.43 226.651 1238.19 226.476 1237.89 226.352C1237.6 226.221 1237.27 226.156 1236.88 226.156C1236.38 226.156 1235.95 226.257 1235.59 226.458C1235.25 226.66 1235.07 226.932 1235.08 227.275C1235.07 227.542 1235.18 227.773 1235.4 227.968C1235.62 228.163 1236.02 228.32 1236.6 228.439L1239.23 228.936C1240.59 229.197 1241.6 229.629 1242.26 230.233C1242.93 230.837 1243.27 231.636 1243.28 232.631C1243.27 233.566 1242.99 234.38 1242.44 235.073C1241.9 235.766 1241.15 236.304 1240.2 236.689C1239.26 237.068 1238.17 237.258 1236.95 237.258C1235.01 237.258 1233.47 236.858 1232.34 236.059C1231.23 235.253 1230.59 234.176 1230.43 232.826L1234.72 232.719C1234.81 233.217 1235.06 233.596 1235.45 233.856C1235.85 234.117 1236.36 234.247 1236.97 234.247C1237.53 234.247 1237.98 234.143 1238.33 233.936C1238.68 233.729 1238.86 233.454 1238.86 233.11C1238.86 232.802 1238.72 232.557 1238.45 232.373C1238.19 232.184 1237.77 232.036 1237.2 231.929L1234.82 231.476C1233.45 231.227 1232.44 230.769 1231.77 230.099C1231.1 229.425 1230.77 228.566 1230.77 227.524C1230.77 226.612 1231.01 225.834 1231.5 225.188C1231.99 224.537 1232.69 224.04 1233.6 223.696C1234.5 223.353 1235.57 223.181 1236.8 223.181C1238.65 223.181 1240.11 223.569 1241.17 224.345C1242.24 225.114 1242.83 226.174 1242.94 227.524ZM1249.33 233.421L1249.35 228.243H1249.95L1253.79 223.359H1258.71L1253.01 230.357H1251.86L1249.33 233.421ZM1245.41 237V218.812H1249.76V237H1245.41ZM1253.89 237L1250.32 231.334L1253.18 228.252L1258.91 237H1253.89Z" fill="black"/>
<circle cx="1329" cy="226.5" r="10" fill="#E1E1E1"/>
<path d="M1350.21 235V219H1356.82C1358.02 219 1359.05 219.234 1359.92 219.703C1360.8 220.167 1361.47 220.815 1361.95 221.648C1362.42 222.477 1362.66 223.44 1362.66 224.539C1362.66 225.643 1362.41 226.609 1361.93 227.438C1361.45 228.26 1360.77 228.898 1359.88 229.352C1358.98 229.805 1357.93 230.031 1356.7 230.031H1352.63V226.984H1355.98C1356.57 226.984 1357.05 226.883 1357.45 226.68C1357.84 226.477 1358.14 226.193 1358.34 225.828C1358.55 225.458 1358.65 225.029 1358.65 224.539C1358.65 224.044 1358.55 223.617 1358.34 223.258C1358.14 222.893 1357.84 222.612 1357.45 222.414C1357.05 222.216 1356.56 222.117 1355.98 222.117H1354.08V235H1350.21ZM1369.93 235.227C1368.67 235.227 1367.58 234.969 1366.68 234.453C1365.78 233.932 1365.08 233.208 1364.59 232.281C1364.11 231.349 1363.87 230.268 1363.87 229.039C1363.87 227.805 1364.11 226.724 1364.59 225.797C1365.08 224.865 1365.78 224.141 1366.68 223.625C1367.58 223.104 1368.67 222.844 1369.93 222.844C1371.19 222.844 1372.27 223.104 1373.17 223.625C1374.08 224.141 1374.77 224.865 1375.26 225.797C1375.75 226.724 1375.99 227.805 1375.99 229.039C1375.99 230.268 1375.75 231.349 1375.26 232.281C1374.77 233.208 1374.08 233.932 1373.17 234.453C1372.27 234.969 1371.19 235.227 1369.93 235.227ZM1369.95 232.344C1370.41 232.344 1370.8 232.203 1371.12 231.922C1371.43 231.641 1371.68 231.25 1371.84 230.75C1372.01 230.25 1372.1 229.672 1372.1 229.016C1372.1 228.349 1372.01 227.766 1371.84 227.266C1371.68 226.766 1371.43 226.375 1371.12 226.094C1370.8 225.812 1370.41 225.672 1369.95 225.672C1369.48 225.672 1369.08 225.812 1368.75 226.094C1368.43 226.375 1368.18 226.766 1368.01 227.266C1367.84 227.766 1367.76 228.349 1367.76 229.016C1367.76 229.672 1367.84 230.25 1368.01 230.75C1368.18 231.25 1368.43 231.641 1368.75 231.922C1369.08 232.203 1369.48 232.344 1369.95 232.344ZM1381.77 219V235H1377.95V219H1381.77ZM1384.2 235V223H1388.02V235H1384.2ZM1386.11 221.602C1385.58 221.602 1385.12 221.424 1384.73 221.07C1384.35 220.711 1384.15 220.279 1384.15 219.773C1384.15 219.273 1384.35 218.846 1384.73 218.492C1385.12 218.133 1385.58 217.953 1386.11 217.953C1386.65 217.953 1387.12 218.133 1387.5 218.492C1387.88 218.846 1388.07 219.273 1388.07 219.773C1388.07 220.279 1387.88 220.711 1387.5 221.07C1387.12 221.424 1386.65 221.602 1386.11 221.602ZM1396.05 235.227C1394.79 235.227 1393.7 234.966 1392.79 234.445C1391.89 233.924 1391.2 233.201 1390.72 232.273C1390.23 231.341 1389.99 230.263 1389.99 229.039C1389.99 227.81 1390.23 226.732 1390.72 225.805C1391.21 224.872 1391.9 224.146 1392.8 223.625C1393.71 223.104 1394.79 222.844 1396.04 222.844C1397.15 222.844 1398.12 223.044 1398.94 223.445C1399.77 223.846 1400.42 224.414 1400.88 225.148C1401.35 225.878 1401.6 226.734 1401.62 227.719H1398.05C1397.98 227.104 1397.77 226.622 1397.43 226.273C1397.09 225.924 1396.65 225.75 1396.1 225.75C1395.66 225.75 1395.27 225.875 1394.94 226.125C1394.6 226.37 1394.34 226.734 1394.15 227.219C1393.97 227.698 1393.88 228.292 1393.88 229C1393.88 229.708 1393.97 230.307 1394.15 230.797C1394.34 231.281 1394.6 231.648 1394.94 231.898C1395.27 232.143 1395.66 232.266 1396.1 232.266C1396.45 232.266 1396.77 232.19 1397.04 232.039C1397.31 231.888 1397.54 231.667 1397.72 231.375C1397.89 231.078 1398.01 230.719 1398.05 230.297H1401.62C1401.59 231.286 1401.34 232.151 1400.88 232.891C1400.43 233.63 1399.79 234.206 1398.97 234.617C1398.15 235.023 1397.18 235.227 1396.05 235.227ZM1405.91 239.5C1405.46 239.5 1405.02 239.464 1404.62 239.391C1404.21 239.323 1403.86 239.232 1403.57 239.117L1404.41 236.344C1404.79 236.469 1405.13 236.542 1405.43 236.562C1405.74 236.583 1406 236.534 1406.22 236.414C1406.44 236.299 1406.61 236.094 1406.73 235.797L1406.88 235.437L1402.62 223H1406.62L1408.83 231.562H1408.95L1411.2 223H1415.22L1410.7 236.148C1410.48 236.805 1410.17 237.383 1409.77 237.883C1409.37 238.388 1408.86 238.784 1408.23 239.07C1407.6 239.357 1406.83 239.5 1405.91 239.5ZM1435.93 224.797H1432.03C1431.98 224.396 1431.87 224.034 1431.71 223.711C1431.55 223.388 1431.33 223.112 1431.07 222.883C1430.8 222.654 1430.49 222.479 1430.12 222.359C1429.76 222.234 1429.36 222.172 1428.93 222.172C1428.15 222.172 1427.48 222.362 1426.92 222.742C1426.36 223.122 1425.93 223.672 1425.63 224.391C1425.33 225.109 1425.18 225.979 1425.18 227C1425.18 228.062 1425.33 228.953 1425.64 229.672C1425.94 230.385 1426.37 230.924 1426.93 231.289C1427.48 231.648 1428.14 231.828 1428.9 231.828C1429.33 231.828 1429.72 231.773 1430.07 231.664C1430.42 231.555 1430.73 231.396 1431 231.188C1431.27 230.974 1431.49 230.716 1431.66 230.414C1431.84 230.107 1431.96 229.76 1432.03 229.375L1435.93 229.398C1435.87 230.107 1435.66 230.805 1435.32 231.492C1434.98 232.18 1434.51 232.807 1433.92 233.375C1433.32 233.937 1432.6 234.385 1431.75 234.719C1430.9 235.052 1429.92 235.219 1428.82 235.219C1427.38 235.219 1426.08 234.901 1424.93 234.266C1423.79 233.625 1422.89 232.693 1422.23 231.469C1421.57 230.245 1421.24 228.755 1421.24 227C1421.24 225.24 1421.57 223.747 1422.25 222.523C1422.92 221.299 1423.83 220.37 1424.97 219.734C1426.12 219.099 1427.4 218.781 1428.82 218.781C1429.79 218.781 1430.69 218.917 1431.51 219.188C1432.33 219.453 1433.06 219.844 1433.68 220.359C1434.31 220.87 1434.82 221.497 1435.21 222.242C1435.6 222.987 1435.84 223.839 1435.93 224.797ZM1443.75 235.227C1442.49 235.227 1441.4 234.969 1440.5 234.453C1439.6 233.932 1438.9 233.208 1438.41 232.281C1437.93 231.349 1437.69 230.268 1437.69 229.039C1437.69 227.805 1437.93 226.724 1438.41 225.797C1438.9 224.865 1439.6 224.141 1440.5 223.625C1441.4 223.104 1442.49 222.844 1443.75 222.844C1445.01 222.844 1446.09 223.104 1446.99 223.625C1447.9 224.141 1448.59 224.865 1449.08 225.797C1449.57 226.724 1449.81 227.805 1449.81 229.039C1449.81 230.268 1449.57 231.349 1449.08 232.281C1448.59 233.208 1447.9 233.932 1446.99 234.453C1446.09 234.969 1445.01 235.227 1443.75 235.227ZM1443.77 232.344C1444.23 232.344 1444.62 232.203 1444.94 231.922C1445.25 231.641 1445.5 231.25 1445.66 230.75C1445.83 230.25 1445.92 229.672 1445.92 229.016C1445.92 228.349 1445.83 227.766 1445.66 227.266C1445.5 226.766 1445.25 226.375 1444.94 226.094C1444.62 225.812 1444.23 225.672 1443.77 225.672C1443.3 225.672 1442.9 225.812 1442.57 226.094C1442.25 226.375 1442 226.766 1441.83 227.266C1441.66 227.766 1441.58 228.349 1441.58 229.016C1441.58 229.672 1441.66 230.25 1441.83 230.75C1442 231.25 1442.25 231.641 1442.57 231.922C1442.9 232.203 1443.3 232.344 1443.77 232.344ZM1451.77 235V223H1455.4V225.203H1455.53C1455.78 224.474 1456.21 223.898 1456.8 223.477C1457.39 223.055 1458.1 222.844 1458.92 222.844C1459.76 222.844 1460.47 223.057 1461.06 223.484C1461.66 223.911 1462.04 224.484 1462.2 225.203H1462.32C1462.55 224.49 1462.98 223.919 1463.63 223.492C1464.29 223.06 1465.05 222.844 1465.94 222.844C1467.07 222.844 1468 223.208 1468.71 223.937C1469.41 224.661 1469.77 225.656 1469.77 226.922V235H1465.95V227.797C1465.95 227.198 1465.79 226.742 1465.49 226.43C1465.18 226.112 1464.78 225.953 1464.29 225.953C1463.76 225.953 1463.35 226.125 1463.05 226.469C1462.75 226.807 1462.6 227.263 1462.6 227.836V235H1458.93V227.758C1458.93 227.201 1458.78 226.76 1458.48 226.437C1458.18 226.115 1457.78 225.953 1457.28 225.953C1456.95 225.953 1456.66 226.034 1456.4 226.195C1456.15 226.352 1455.94 226.576 1455.8 226.867C1455.66 227.159 1455.59 227.503 1455.59 227.898V235H1451.77ZM1472.13 239.5V223H1475.92V225.055H1476.03C1476.19 224.69 1476.41 224.339 1476.7 224C1476.99 223.661 1477.36 223.385 1477.81 223.172C1478.26 222.953 1478.8 222.844 1479.43 222.844C1480.26 222.844 1481.04 223.062 1481.77 223.5C1482.5 223.937 1483.09 224.612 1483.53 225.523C1483.98 226.435 1484.21 227.596 1484.21 229.008C1484.21 230.367 1483.99 231.505 1483.56 232.422C1483.13 233.339 1482.55 234.026 1481.82 234.484C1481.1 234.943 1480.29 235.172 1479.41 235.172C1478.8 235.172 1478.28 235.073 1477.84 234.875C1477.4 234.677 1477.02 234.417 1476.72 234.094C1476.42 233.771 1476.19 233.424 1476.03 233.055H1475.96V239.5H1472.13ZM1475.88 229C1475.88 229.646 1475.96 230.208 1476.13 230.687C1476.31 231.167 1476.56 231.539 1476.89 231.805C1477.23 232.065 1477.62 232.195 1478.09 232.195C1478.56 232.195 1478.96 232.065 1479.28 231.805C1479.61 231.539 1479.86 231.167 1480.03 230.687C1480.2 230.208 1480.28 229.646 1480.28 229C1480.28 228.354 1480.2 227.794 1480.03 227.32C1479.86 226.846 1479.61 226.479 1479.28 226.219C1478.96 225.958 1478.56 225.828 1478.09 225.828C1477.62 225.828 1477.22 225.956 1476.89 226.211C1476.56 226.466 1476.31 226.831 1476.13 227.305C1475.96 227.779 1475.88 228.344 1475.88 229ZM1490.03 219V235H1486.21V219H1490.03ZM1492.46 235V223H1496.28V235H1492.46ZM1494.37 221.602C1493.84 221.602 1493.38 221.424 1492.99 221.07C1492.6 220.711 1492.41 220.279 1492.41 219.773C1492.41 219.273 1492.6 218.846 1492.99 218.492C1493.38 218.133 1493.84 217.953 1494.37 217.953C1494.91 217.953 1495.38 218.133 1495.76 218.492C1496.14 218.846 1496.33 219.273 1496.33 219.773C1496.33 220.279 1496.14 220.711 1495.76 221.07C1495.38 221.424 1494.91 221.602 1494.37 221.602ZM1502.09 235.203C1501.33 235.203 1500.65 235.076 1500.05 234.82C1499.47 234.56 1499 234.169 1498.66 233.648C1498.32 233.122 1498.15 232.464 1498.15 231.672C1498.15 231.005 1498.27 230.443 1498.5 229.984C1498.73 229.526 1499.06 229.154 1499.47 228.867C1499.88 228.581 1500.35 228.365 1500.89 228.219C1501.43 228.068 1502 227.966 1502.61 227.914C1503.29 227.852 1503.84 227.786 1504.26 227.719C1504.67 227.646 1504.98 227.544 1505.16 227.414C1505.36 227.279 1505.45 227.089 1505.45 226.844V226.805C1505.45 226.404 1505.32 226.094 1505.04 225.875C1504.76 225.656 1504.39 225.547 1503.92 225.547C1503.42 225.547 1503.01 225.656 1502.7 225.875C1502.4 226.094 1502.2 226.396 1502.12 226.781L1498.59 226.656C1498.7 225.927 1498.97 225.276 1499.4 224.703C1499.84 224.125 1500.43 223.672 1501.2 223.344C1501.96 223.01 1502.88 222.844 1503.95 222.844C1504.72 222.844 1505.42 222.935 1506.07 223.117C1506.72 223.294 1507.28 223.555 1507.76 223.898C1508.24 224.237 1508.61 224.654 1508.87 225.148C1509.13 225.643 1509.27 226.208 1509.27 226.844V235H1505.67V233.328H1505.58C1505.36 233.734 1505.09 234.078 1504.76 234.359C1504.43 234.641 1504.04 234.852 1503.59 234.992C1503.15 235.133 1502.65 235.203 1502.09 235.203ZM1503.27 232.703C1503.68 232.703 1504.05 232.62 1504.38 232.453C1504.72 232.286 1504.98 232.057 1505.18 231.766C1505.38 231.469 1505.48 231.125 1505.48 230.734V229.594C1505.37 229.651 1505.23 229.703 1505.08 229.75C1504.93 229.797 1504.76 229.841 1504.58 229.883C1504.4 229.924 1504.21 229.961 1504.02 229.992C1503.82 230.023 1503.64 230.052 1503.46 230.078C1503.1 230.135 1502.79 230.224 1502.54 230.344C1502.29 230.464 1502.1 230.62 1501.96 230.812C1501.83 231 1501.77 231.224 1501.77 231.484C1501.77 231.88 1501.91 232.182 1502.19 232.391C1502.47 232.599 1502.84 232.703 1503.27 232.703ZM1515.42 228.156V235H1511.6V223H1515.23V225.203H1515.37C1515.63 224.469 1516.09 223.893 1516.73 223.477C1517.37 223.055 1518.13 222.844 1519.02 222.844C1519.86 222.844 1520.59 223.034 1521.21 223.414C1521.84 223.789 1522.32 224.315 1522.66 224.992C1523.01 225.664 1523.18 226.451 1523.18 227.352V235H1519.36V228.102C1519.36 227.435 1519.2 226.914 1518.85 226.539C1518.51 226.164 1518.04 225.977 1517.44 225.977C1517.04 225.977 1516.68 226.065 1516.38 226.242C1516.07 226.414 1515.84 226.661 1515.67 226.984C1515.51 227.307 1515.43 227.698 1515.42 228.156ZM1531.15 235.227C1529.88 235.227 1528.79 234.966 1527.89 234.445C1526.99 233.924 1526.29 233.201 1525.81 232.273C1525.33 231.341 1525.08 230.263 1525.08 229.039C1525.08 227.81 1525.33 226.732 1525.81 225.805C1526.3 224.872 1527 224.146 1527.9 223.625C1528.8 223.104 1529.88 222.844 1531.14 222.844C1532.25 222.844 1533.21 223.044 1534.04 223.445C1534.87 223.846 1535.51 224.414 1535.97 225.148C1536.44 225.878 1536.69 226.734 1536.72 227.719H1533.15C1533.07 227.104 1532.87 226.622 1532.52 226.273C1532.18 225.924 1531.74 225.75 1531.19 225.75C1530.75 225.75 1530.36 225.875 1530.03 226.125C1529.7 226.37 1529.44 226.734 1529.25 227.219C1529.07 227.698 1528.97 228.292 1528.97 229C1528.97 229.708 1529.07 230.307 1529.25 230.797C1529.44 231.281 1529.7 231.648 1530.03 231.898C1530.36 232.143 1530.75 232.266 1531.19 232.266C1531.55 232.266 1531.86 232.19 1532.13 232.039C1532.41 231.888 1532.63 231.667 1532.81 231.375C1532.99 231.078 1533.1 230.719 1533.15 230.297H1536.72C1536.68 231.286 1536.43 232.151 1535.97 232.891C1535.52 233.63 1534.88 234.206 1534.06 234.617C1533.24 235.023 1532.27 235.227 1531.15 235.227ZM1544.28 235.227C1543.03 235.227 1541.94 234.979 1541.03 234.484C1540.13 233.984 1539.43 233.273 1538.94 232.352C1538.45 231.424 1538.21 230.323 1538.21 229.047C1538.21 227.807 1538.46 226.724 1538.95 225.797C1539.43 224.865 1540.12 224.141 1541.02 223.625C1541.91 223.104 1542.96 222.844 1544.16 222.844C1545.02 222.844 1545.8 222.977 1546.51 223.242C1547.22 223.508 1547.83 223.901 1548.34 224.422C1548.86 224.943 1549.26 225.586 1549.55 226.352C1549.83 227.112 1549.98 227.984 1549.98 228.969V229.922H1539.55V227.703H1546.42C1546.42 227.297 1546.32 226.935 1546.13 226.617C1545.95 226.299 1545.69 226.052 1545.36 225.875C1545.04 225.693 1544.66 225.602 1544.24 225.602C1543.82 225.602 1543.43 225.698 1543.09 225.891C1542.76 226.078 1542.49 226.336 1542.29 226.664C1542.09 226.987 1541.99 227.354 1541.98 227.766V230.023C1541.98 230.513 1542.07 230.943 1542.27 231.312C1542.46 231.677 1542.73 231.961 1543.09 232.164C1543.44 232.367 1543.86 232.469 1544.35 232.469C1544.69 232.469 1545 232.422 1545.27 232.328C1545.55 232.234 1545.79 232.096 1545.98 231.914C1546.18 231.732 1546.33 231.508 1546.43 231.242L1549.94 231.344C1549.79 232.13 1549.47 232.815 1548.98 233.398C1548.49 233.977 1547.84 234.427 1547.05 234.75C1546.25 235.068 1545.33 235.227 1544.28 235.227ZM1556.65 235V219H1563.26C1564.46 219 1565.5 219.216 1566.37 219.648C1567.24 220.076 1567.91 220.69 1568.39 221.492C1568.86 222.289 1569.1 223.234 1569.1 224.328C1569.1 225.437 1568.86 226.38 1568.37 227.156C1567.89 227.927 1567.2 228.516 1566.31 228.922C1565.42 229.323 1564.37 229.523 1563.15 229.523H1558.97V226.477H1562.43C1563.01 226.477 1563.5 226.401 1563.89 226.25C1564.28 226.094 1564.58 225.859 1564.79 225.547C1564.99 225.229 1565.09 224.823 1565.09 224.328C1565.09 223.833 1564.99 223.424 1564.79 223.102C1564.58 222.773 1564.28 222.529 1563.89 222.367C1563.49 222.201 1563.01 222.117 1562.43 222.117H1560.52V235H1556.65ZM1565.66 227.687L1569.65 235H1565.43L1561.52 227.687H1565.66ZM1571.22 235V223H1575.04V235H1571.22ZM1573.13 221.602C1572.6 221.602 1572.14 221.424 1571.75 221.07C1571.37 220.711 1571.17 220.279 1571.17 219.773C1571.17 219.273 1571.37 218.846 1571.75 218.492C1572.14 218.133 1572.6 217.953 1573.13 217.953C1573.68 217.953 1574.14 218.133 1574.52 218.492C1574.9 218.846 1575.1 219.273 1575.1 219.773C1575.1 220.279 1574.9 220.711 1574.52 221.07C1574.14 221.424 1573.68 221.602 1573.13 221.602ZM1587.95 226.664L1584.44 226.758C1584.4 226.508 1584.31 226.286 1584.14 226.094C1583.98 225.896 1583.77 225.742 1583.51 225.633C1583.26 225.518 1582.96 225.461 1582.62 225.461C1582.18 225.461 1581.8 225.549 1581.49 225.727C1581.18 225.904 1581.03 226.143 1581.04 226.445C1581.03 226.68 1581.12 226.883 1581.32 227.055C1581.51 227.227 1581.87 227.365 1582.37 227.469L1584.68 227.906C1585.88 228.135 1586.77 228.516 1587.36 229.047C1587.94 229.578 1588.24 230.281 1588.25 231.156C1588.24 231.979 1588 232.695 1587.51 233.305C1587.03 233.914 1586.38 234.388 1585.54 234.727C1584.71 235.06 1583.76 235.227 1582.68 235.227C1580.97 235.227 1579.62 234.875 1578.63 234.172C1577.64 233.464 1577.08 232.516 1576.94 231.328L1580.71 231.234C1580.8 231.672 1581.01 232.005 1581.36 232.234C1581.71 232.464 1582.16 232.578 1582.7 232.578C1583.19 232.578 1583.59 232.487 1583.89 232.305C1584.2 232.122 1584.36 231.88 1584.36 231.578C1584.36 231.307 1584.24 231.091 1584 230.93C1583.77 230.763 1583.4 230.633 1582.9 230.539L1580.81 230.141C1579.61 229.922 1578.71 229.518 1578.12 228.93C1577.53 228.336 1577.24 227.581 1577.25 226.664C1577.24 225.862 1577.45 225.177 1577.89 224.609C1578.32 224.036 1578.93 223.599 1579.73 223.297C1580.53 222.995 1581.47 222.844 1582.55 222.844C1584.18 222.844 1585.46 223.185 1586.39 223.867C1587.33 224.544 1587.85 225.477 1587.95 226.664ZM1593.57 231.852L1593.59 227.297H1594.12L1597.49 223H1601.82L1596.81 229.156H1595.8L1593.57 231.852ZM1590.13 235V219H1593.95V235H1590.13ZM1597.58 235L1594.44 230.016L1596.96 227.305L1601.99 235H1597.58Z" fill="black"/>
<circle cx="1665" cy="228" r="10" fill="#E1E1E1"/>
<path d="M1703.54 227.906C1703.54 229.907 1703.16 231.603 1702.39 232.995C1701.62 234.386 1700.58 235.443 1699.26 236.165C1697.95 236.888 1696.49 237.249 1694.86 237.249C1693.22 237.249 1691.75 236.885 1690.44 236.156C1689.14 235.428 1688.1 234.371 1687.33 232.986C1686.56 231.594 1686.18 229.901 1686.18 227.906C1686.18 225.905 1686.56 224.208 1687.33 222.817C1688.1 221.426 1689.14 220.369 1690.44 219.647C1691.75 218.924 1693.22 218.563 1694.86 218.563C1696.49 218.563 1697.95 218.924 1699.26 219.647C1700.58 220.369 1701.62 221.426 1702.39 222.817C1703.16 224.208 1703.54 225.905 1703.54 227.906ZM1699.05 227.906C1699.05 226.722 1698.88 225.721 1698.54 224.904C1698.21 224.087 1697.73 223.468 1697.1 223.048C1696.48 222.628 1695.73 222.417 1694.86 222.417C1693.99 222.417 1693.24 222.628 1692.61 223.048C1691.98 223.468 1691.5 224.087 1691.16 224.904C1690.83 225.721 1690.67 226.722 1690.67 227.906C1690.67 229.09 1690.83 230.091 1691.16 230.908C1691.5 231.725 1691.98 232.343 1692.61 232.764C1693.24 233.184 1693.99 233.394 1694.86 233.394C1695.73 233.394 1696.48 233.184 1697.1 232.764C1697.73 232.343 1698.21 231.725 1698.54 230.908C1698.88 230.091 1699.05 229.09 1699.05 227.906ZM1706.11 242.115V223.359H1710.41V225.695H1710.54C1710.72 225.28 1710.97 224.88 1711.3 224.496C1711.63 224.111 1712.05 223.797 1712.56 223.554C1713.07 223.306 1713.69 223.181 1714.4 223.181C1715.35 223.181 1716.24 223.43 1717.06 223.927C1717.89 224.425 1718.56 225.191 1719.07 226.227C1719.58 227.263 1719.83 228.584 1719.83 230.188C1719.83 231.734 1719.59 233.027 1719.09 234.069C1718.61 235.111 1717.95 235.893 1717.12 236.414C1716.3 236.935 1715.38 237.195 1714.38 237.195C1713.69 237.195 1713.1 237.083 1712.59 236.858C1712.09 236.633 1711.67 236.337 1711.32 235.97C1710.99 235.603 1710.73 235.209 1710.54 234.789H1710.45V242.115H1706.11ZM1710.36 230.179C1710.36 230.914 1710.46 231.553 1710.66 232.098C1710.86 232.642 1711.15 233.066 1711.52 233.368C1711.9 233.664 1712.35 233.812 1712.88 233.812C1713.41 233.812 1713.86 233.664 1714.24 233.368C1714.61 233.066 1714.89 232.642 1715.08 232.098C1715.28 231.553 1715.37 230.914 1715.37 230.179C1715.37 229.445 1715.28 228.809 1715.08 228.27C1714.89 227.731 1714.61 227.314 1714.24 227.018C1713.87 226.722 1713.42 226.574 1712.88 226.574C1712.34 226.574 1711.89 226.719 1711.52 227.009C1711.15 227.299 1710.86 227.713 1710.66 228.252C1710.46 228.791 1710.36 229.433 1710.36 230.179ZM1728.48 237.258C1727.06 237.258 1725.83 236.976 1724.79 236.414C1723.76 235.845 1722.97 235.037 1722.41 233.989C1721.86 232.935 1721.58 231.683 1721.58 230.233C1721.58 228.824 1721.86 227.592 1722.42 226.538C1722.97 225.478 1723.76 224.655 1724.77 224.069C1725.78 223.477 1726.98 223.181 1728.35 223.181C1729.32 223.181 1730.21 223.332 1731.01 223.634C1731.82 223.936 1732.52 224.383 1733.1 224.975C1733.69 225.567 1734.14 226.298 1734.47 227.169C1734.79 228.033 1734.96 229.025 1734.96 230.144V231.227H1723.1V228.705H1730.92C1730.91 228.243 1730.8 227.832 1730.59 227.471C1730.38 227.11 1730.08 226.828 1729.71 226.627C1729.34 226.42 1728.92 226.316 1728.44 226.316C1727.95 226.316 1727.52 226.426 1727.13 226.645C1726.75 226.858 1726.44 227.151 1726.22 227.524C1725.99 227.891 1725.88 228.308 1725.86 228.776V231.343C1725.86 231.899 1725.97 232.388 1726.19 232.808C1726.41 233.223 1726.72 233.545 1727.12 233.776C1727.53 234.007 1728.01 234.123 1728.56 234.123C1728.95 234.123 1729.3 234.069 1729.61 233.963C1729.93 233.856 1730.19 233.699 1730.42 233.492C1730.64 233.285 1730.81 233.03 1730.93 232.728L1734.91 232.844C1734.75 233.738 1734.38 234.516 1733.82 235.179C1733.26 235.837 1732.53 236.349 1731.63 236.716C1730.72 237.077 1729.67 237.258 1728.48 237.258ZM1737.18 237V223.359H1741.39V225.845H1741.54C1741.79 224.946 1742.19 224.277 1742.75 223.838C1743.32 223.394 1743.97 223.172 1744.72 223.172C1744.92 223.172 1745.12 223.187 1745.34 223.217C1745.55 223.24 1745.75 223.279 1745.93 223.332V227.107C1745.73 227.036 1745.45 226.979 1745.12 226.938C1744.78 226.896 1744.49 226.876 1744.23 226.876C1743.71 226.876 1743.25 226.991 1742.83 227.222C1742.42 227.447 1742.1 227.764 1741.86 228.172C1741.63 228.575 1741.52 229.049 1741.52 229.593V237H1737.18ZM1751.03 237.231C1750.16 237.231 1749.39 237.086 1748.72 236.796C1748.05 236.5 1747.52 236.056 1747.13 235.464C1746.74 234.866 1746.55 234.117 1746.55 233.217C1746.55 232.459 1746.68 231.819 1746.95 231.298C1747.22 230.777 1747.58 230.354 1748.05 230.028C1748.52 229.703 1749.06 229.457 1749.67 229.291C1750.28 229.12 1750.93 229.004 1751.62 228.945C1752.4 228.874 1753.02 228.8 1753.49 228.723C1753.97 228.64 1754.31 228.525 1754.52 228.377C1754.74 228.223 1754.85 228.007 1754.85 227.728V227.684C1754.85 227.228 1754.7 226.876 1754.38 226.627C1754.07 226.378 1753.65 226.254 1753.11 226.254C1752.54 226.254 1752.08 226.378 1751.73 226.627C1751.38 226.876 1751.16 227.219 1751.06 227.657L1747.06 227.515C1747.17 226.686 1747.48 225.946 1747.97 225.295C1748.47 224.638 1749.15 224.123 1750.01 223.75C1750.88 223.371 1751.93 223.181 1753.15 223.181C1754.02 223.181 1754.82 223.285 1755.55 223.492C1756.29 223.693 1756.93 223.989 1757.47 224.38C1758.02 224.765 1758.44 225.239 1758.73 225.801C1759.04 226.364 1759.19 227.006 1759.19 227.728V237H1755.1V235.099H1755C1754.75 235.561 1754.44 235.952 1754.06 236.272C1753.69 236.591 1753.25 236.831 1752.74 236.991C1752.24 237.151 1751.67 237.231 1751.03 237.231ZM1752.38 234.389C1752.84 234.389 1753.26 234.294 1753.64 234.105C1754.02 233.915 1754.32 233.655 1754.54 233.323C1754.77 232.986 1754.88 232.595 1754.88 232.151V230.854C1754.76 230.919 1754.6 230.979 1754.43 231.032C1754.26 231.085 1754.07 231.136 1753.86 231.183C1753.65 231.23 1753.44 231.272 1753.22 231.307C1753 231.343 1752.79 231.375 1752.59 231.405C1752.18 231.47 1751.83 231.571 1751.54 231.707C1751.26 231.843 1751.04 232.021 1750.88 232.24C1750.74 232.453 1750.66 232.708 1750.66 233.004C1750.66 233.454 1750.82 233.797 1751.14 234.034C1751.47 234.271 1751.88 234.389 1752.38 234.389ZM1769.54 223.359V226.556H1760.94V223.359H1769.54ZM1762.74 220.091H1767.08V232.71C1767.08 232.977 1767.12 233.193 1767.21 233.359C1767.3 233.519 1767.42 233.634 1767.59 233.705C1767.75 233.77 1767.95 233.803 1768.18 233.803C1768.35 233.803 1768.52 233.788 1768.71 233.758C1768.9 233.723 1769.04 233.693 1769.13 233.67L1769.79 236.805C1769.58 236.864 1769.29 236.938 1768.91 237.027C1768.54 237.115 1768.09 237.172 1767.57 237.195C1766.55 237.243 1765.68 237.124 1764.95 236.84C1764.23 236.55 1763.68 236.1 1763.29 235.49C1762.91 234.88 1762.73 234.114 1762.74 233.19V220.091ZM1771.76 237V223.359H1776.1V237H1771.76ZM1773.93 221.769C1773.32 221.769 1772.8 221.568 1772.36 221.165C1771.92 220.757 1771.71 220.265 1771.71 219.691C1771.71 219.123 1771.92 218.637 1772.36 218.234C1772.8 217.826 1773.32 217.622 1773.93 217.622C1774.55 217.622 1775.07 217.826 1775.51 218.234C1775.94 218.637 1776.16 219.123 1776.16 219.691C1776.16 220.265 1775.94 220.757 1775.51 221.165C1775.07 221.568 1774.55 221.769 1773.93 221.769ZM1785.23 237.258C1783.8 237.258 1782.57 236.964 1781.54 236.378C1780.51 235.786 1779.72 234.963 1779.17 233.909C1778.62 232.85 1778.34 231.621 1778.34 230.224C1778.34 228.821 1778.62 227.592 1779.17 226.538C1779.72 225.478 1780.51 224.655 1781.54 224.069C1782.57 223.477 1783.8 223.181 1785.23 223.181C1786.67 223.181 1787.89 223.477 1788.92 224.069C1789.95 224.655 1790.74 225.478 1791.29 226.538C1791.85 227.592 1792.12 228.821 1792.12 230.224C1792.12 231.621 1791.85 232.85 1791.29 233.909C1790.74 234.963 1789.95 235.786 1788.92 236.378C1787.89 236.964 1786.67 237.258 1785.23 237.258ZM1785.26 233.98C1785.78 233.98 1786.22 233.821 1786.58 233.501C1786.94 233.181 1787.22 232.737 1787.41 232.169C1787.6 231.6 1787.7 230.943 1787.7 230.197C1787.7 229.439 1787.6 228.776 1787.41 228.208C1787.22 227.639 1786.94 227.195 1786.58 226.876C1786.22 226.556 1785.78 226.396 1785.26 226.396C1784.72 226.396 1784.26 226.556 1783.89 226.876C1783.52 227.195 1783.24 227.639 1783.05 228.208C1782.86 228.776 1782.76 229.439 1782.76 230.197C1782.76 230.943 1782.86 231.6 1783.05 232.169C1783.24 232.737 1783.52 233.181 1783.89 233.501C1784.26 233.821 1784.72 233.98 1785.26 233.98ZM1798.69 229.22V237H1794.35V223.359H1798.48V225.863H1798.63C1798.93 225.028 1799.45 224.374 1800.18 223.901C1800.9 223.421 1801.77 223.181 1802.78 223.181C1803.74 223.181 1804.57 223.397 1805.27 223.83C1805.98 224.256 1806.53 224.854 1806.92 225.623C1807.32 226.387 1807.52 227.281 1807.51 228.306V237H1803.17V229.158C1803.17 228.4 1802.98 227.808 1802.59 227.382C1802.21 226.956 1801.67 226.742 1800.98 226.742C1800.53 226.742 1800.12 226.843 1799.78 227.044C1799.43 227.24 1799.17 227.521 1798.98 227.888C1798.79 228.255 1798.7 228.699 1798.69 229.22ZM1814.05 237.231C1813.17 237.231 1812.4 237.086 1811.73 236.796C1811.06 236.5 1810.53 236.056 1810.14 235.464C1809.75 234.866 1809.56 234.117 1809.56 233.217C1809.56 232.459 1809.69 231.819 1809.96 231.298C1810.23 230.777 1810.59 230.354 1811.06 230.028C1811.53 229.703 1812.07 229.457 1812.68 229.291C1813.29 229.12 1813.94 229.004 1814.63 228.945C1815.41 228.874 1816.03 228.8 1816.51 228.723C1816.98 228.64 1817.32 228.525 1817.54 228.377C1817.75 228.223 1817.86 228.007 1817.86 227.728V227.684C1817.86 227.228 1817.71 226.876 1817.39 226.627C1817.08 226.378 1816.66 226.254 1816.12 226.254C1815.55 226.254 1815.09 226.378 1814.74 226.627C1814.39 226.876 1814.17 227.219 1814.07 227.657L1810.07 227.515C1810.18 226.686 1810.49 225.946 1810.98 225.295C1811.48 224.638 1812.16 224.123 1813.02 223.75C1813.89 223.371 1814.94 223.181 1816.16 223.181C1817.03 223.181 1817.83 223.285 1818.57 223.492C1819.3 223.693 1819.94 223.989 1820.48 224.38C1821.03 224.765 1821.45 225.239 1821.74 225.801C1822.05 226.364 1822.2 227.006 1822.2 227.728V237H1818.11V235.099H1818.01C1817.76 235.561 1817.45 235.952 1817.07 236.272C1816.7 236.591 1816.26 236.831 1815.75 236.991C1815.25 237.151 1814.68 237.231 1814.05 237.231ZM1815.39 234.389C1815.85 234.389 1816.27 234.294 1816.65 234.105C1817.03 233.915 1817.33 233.655 1817.55 233.323C1817.78 232.986 1817.89 232.595 1817.89 232.151V230.854C1817.77 230.919 1817.62 230.979 1817.44 231.032C1817.27 231.085 1817.08 231.136 1816.87 231.183C1816.66 231.23 1816.45 231.272 1816.23 231.307C1816.01 231.343 1815.8 231.375 1815.6 231.405C1815.19 231.47 1814.84 231.571 1814.55 231.707C1814.27 231.843 1814.05 232.021 1813.89 232.24C1813.75 232.453 1813.67 232.708 1813.67 233.004C1813.67 233.454 1813.83 233.797 1814.15 234.034C1814.48 234.271 1814.89 234.389 1815.39 234.389ZM1829.2 218.812V237H1824.85V218.812H1829.2ZM1837.33 237V218.812H1844.85C1846.21 218.812 1847.38 219.057 1848.37 219.549C1849.37 220.034 1850.13 220.733 1850.67 221.645C1851.21 222.551 1851.48 223.625 1851.48 224.869C1851.48 226.13 1851.21 227.201 1850.65 228.083C1850.1 228.96 1849.32 229.629 1848.31 230.091C1847.3 230.546 1846.1 230.774 1844.71 230.774H1839.96V227.311H1843.9C1844.56 227.311 1845.11 227.225 1845.56 227.053C1846.01 226.876 1846.35 226.609 1846.58 226.254C1846.81 225.893 1846.92 225.431 1846.92 224.869C1846.92 224.306 1846.81 223.841 1846.58 223.474C1846.35 223.101 1846.01 222.823 1845.56 222.639C1845.11 222.45 1844.55 222.355 1843.9 222.355H1841.73V237H1837.33ZM1847.57 228.687L1852.1 237H1847.31L1842.87 228.687H1847.57ZM1853.89 237V223.359H1858.23V237H1853.89ZM1856.07 221.769C1855.46 221.769 1854.93 221.568 1854.5 221.165C1854.06 220.757 1853.84 220.265 1853.84 219.691C1853.84 219.123 1854.06 218.637 1854.5 218.234C1854.93 217.826 1855.46 217.622 1856.07 217.622C1856.68 217.622 1857.21 217.826 1857.64 218.234C1858.08 218.637 1858.3 219.123 1858.3 219.691C1858.3 220.265 1858.08 220.757 1857.64 221.165C1857.21 221.568 1856.68 221.769 1856.07 221.769ZM1872.91 227.524L1868.92 227.631C1868.88 227.346 1868.77 227.095 1868.58 226.876C1868.4 226.651 1868.16 226.476 1867.86 226.352C1867.57 226.221 1867.24 226.156 1866.85 226.156C1866.35 226.156 1865.92 226.257 1865.56 226.458C1865.21 226.66 1865.04 226.932 1865.05 227.275C1865.04 227.542 1865.15 227.773 1865.37 227.968C1865.59 228.163 1865.99 228.32 1866.57 228.439L1869.2 228.936C1870.56 229.197 1871.57 229.629 1872.23 230.233C1872.9 230.837 1873.24 231.636 1873.25 232.631C1873.24 233.566 1872.96 234.38 1872.41 235.073C1871.87 235.766 1871.12 236.304 1870.17 236.689C1869.23 237.068 1868.14 237.258 1866.92 237.258C1864.97 237.258 1863.44 236.858 1862.31 236.059C1861.19 235.253 1860.55 234.176 1860.39 232.826L1864.68 232.719C1864.78 233.217 1865.02 233.596 1865.42 233.856C1865.82 234.117 1866.32 234.247 1866.94 234.247C1867.5 234.247 1867.95 234.143 1868.3 233.936C1868.65 233.729 1868.83 233.454 1868.83 233.11C1868.83 232.802 1868.69 232.557 1868.42 232.373C1868.16 232.184 1867.74 232.036 1867.17 231.929L1864.79 231.476C1863.42 231.227 1862.41 230.769 1861.74 230.099C1861.07 229.425 1860.74 228.566 1860.74 227.524C1860.74 226.612 1860.98 225.834 1861.47 225.188C1861.96 224.537 1862.66 224.04 1863.57 223.696C1864.47 223.353 1865.54 223.181 1866.77 223.181C1868.62 223.181 1870.08 223.569 1871.14 224.345C1872.21 225.114 1872.8 226.174 1872.91 227.524ZM1879.3 233.421L1879.32 228.243H1879.92L1883.76 223.359H1888.68L1882.98 230.357H1881.83L1879.3 233.421ZM1875.38 237V218.812H1879.73V237H1875.38ZM1883.86 237L1880.29 231.334L1883.15 228.252L1888.87 237H1883.86Z" fill="black"/>
</svg>
