<svg width="70" height="70" viewBox="0 0 70 70" fill="none" xmlns="http://www.w3.org/2000/svg">
<path fill-rule="evenodd" clip-rule="evenodd" d="M21.807 24.2521C28.8304 26.9646 37.2697 26.9646 44.2916 24.2492C47.3492 27.4756 49.8846 31.1595 51.8064 35.1677C53.0781 35.3631 54.2958 35.7219 55.4376 36.2221C53.3566 30.9079 49.8362 25.7425 46.0518 21.875L51.4389 14C50.5578 13.4263 49.6389 12.9127 48.6885 12.4629C45.1301 10.7348 39.4149 8.75 33.1208 8.75C26.6954 8.75 20.8256 10.8208 17.2454 12.5723C16.8895 12.7473 16.557 12.9174 16.2479 13.0827C15.6251 13.4181 15.1001 13.7302 14.6889 14L20.0381 21.875C7.51098 35.0554 -1.82236 61.2456 33.1208 61.2456C35.5127 61.2585 37.9028 61.1124 40.2754 60.8081C39.3344 60.0286 38.4951 59.134 37.7772 58.1452C36.3461 58.2658 34.794 58.327 33.1208 58.329C24.6843 58.329 19.3935 56.7379 16.2333 54.5504C13.2072 52.4548 11.8787 49.6358 11.6906 46.3371C11.4951 42.91 12.5437 38.9098 14.5081 34.86C16.382 30.9983 18.9983 27.281 21.807 24.2521ZM42.5897 21.77L46.9035 15.4656C42.8931 15.7544 38.1199 16.6965 33.5262 18.0265C30.2449 18.9744 26.6006 18.83 23.2231 18.2073C22.3723 18.0498 21.5274 17.862 20.6899 17.6444L23.4899 21.7671C29.4924 23.9035 36.5887 23.9035 42.5897 21.77ZM20.1314 14.4608C21.2981 14.8079 22.5158 15.1098 23.7524 15.3387C26.8879 15.9162 30.0335 16.0008 32.7154 15.2235C35.8422 14.3122 39.0227 13.5958 42.2383 13.0783C39.5549 12.2704 36.4181 11.6667 33.1193 11.6667C28.0954 11.6667 23.4112 13.0681 20.1314 14.4608Z" fill="#31729F"/>
<path fill-rule="evenodd" clip-rule="evenodd" d="M33.0625 40.8333C34.5515 40.8333 35.9106 41.3919 36.9417 42.3106C36.3976 43.2559 35.9612 44.2591 35.6408 45.3017C35.3927 44.8331 35.0215 44.441 34.5672 44.1676C34.1129 43.8942 33.5927 43.7499 33.0625 43.75V49.5833C33.8165 49.5833 34.5033 49.2975 35.021 48.8279C34.9639 49.9187 35.0294 51.0126 35.2165 52.0887C34.5309 52.3608 33.8 52.5003 33.0625 52.5V53.9583H30.1458V52.5C28.9393 52.5002 27.7624 52.1263 26.7772 51.4297C25.792 50.7331 25.0471 49.7482 24.645 48.6106C24.5162 48.2459 24.5376 47.8449 24.7044 47.496C24.8712 47.147 25.1699 46.8786 25.5346 46.7498C25.8993 46.621 26.3003 46.6424 26.6492 46.8092C26.9982 46.976 27.2666 47.2746 27.3954 47.6394C27.5966 48.208 27.9691 48.7003 28.4617 49.0485C28.9542 49.3966 29.5426 49.5835 30.1458 49.5833V43.75C28.5987 43.75 27.115 43.1354 26.021 42.0415C24.9271 40.9475 24.3125 39.4638 24.3125 37.9167C24.3125 36.3696 24.9271 34.8858 26.021 33.7919C27.115 32.6979 28.5987 32.0833 30.1458 32.0833V30.625H33.0625V32.0833C34.269 32.0831 35.446 32.4571 36.4311 33.1536C37.4163 33.8502 38.1612 34.8351 38.5633 35.9727C38.6271 36.1533 38.6547 36.3447 38.6445 36.5359C38.6343 36.7272 38.5865 36.9146 38.5039 37.0874C38.4213 37.2602 38.3055 37.415 38.1631 37.543C38.0206 37.671 37.8543 37.7698 37.6738 37.8335C37.4932 37.8973 37.3018 37.9249 37.1105 37.9147C36.9193 37.9045 36.7319 37.8567 36.5591 37.7741C36.3863 37.6915 36.2315 37.5757 36.1034 37.4333C35.9754 37.2908 35.8767 37.1246 35.8129 36.944C35.6118 36.3753 35.2392 35.883 34.7467 35.5349C34.2541 35.1867 33.6657 34.9998 33.0625 35V40.8333ZM30.1458 35C29.3723 35 28.6304 35.3073 28.0834 35.8543C27.5365 36.4013 27.2292 37.1431 27.2292 37.9167C27.2292 38.6902 27.5365 39.4321 28.0834 39.9791C28.6304 40.526 29.3723 40.8333 30.1458 40.8333V35Z" fill="#31729F"/>
<path d="M51.0428 48.9721L52.7782 50.5282L54.7251 48.3553L49.5845 43.7498L44.4453 48.3582L46.3922 50.5296L48.1261 48.9736V55.418H51.0428V48.9721Z" fill="#31729F"/>
<path fill-rule="evenodd" clip-rule="evenodd" d="M49.5827 61.2498C52.6769 61.2498 55.6443 60.0207 57.8323 57.8327C60.0202 55.6448 61.2493 52.6774 61.2493 49.5832C61.2493 46.489 60.0202 43.5215 57.8323 41.3336C55.6443 39.1457 52.6769 37.9165 49.5827 37.9165C46.4885 37.9165 43.521 39.1457 41.3331 41.3336C39.1452 43.5215 37.916 46.489 37.916 49.5832C37.916 52.6774 39.1452 55.6448 41.3331 57.8327C43.521 60.0207 46.4885 61.2498 49.5827 61.2498ZM49.5827 58.3332C51.9033 58.3332 54.1289 57.4113 55.7699 55.7704C57.4108 54.1294 58.3327 51.9038 58.3327 49.5832C58.3327 47.2625 57.4108 45.0369 55.7699 43.396C54.1289 41.755 51.9033 40.8332 49.5827 40.8332C47.262 40.8332 45.0364 41.755 43.3955 43.396C41.7546 45.0369 40.8327 47.2625 40.8327 49.5832C40.8327 51.9038 41.7546 54.1294 43.3955 55.7704C45.0364 57.4113 47.262 58.3332 49.5827 58.3332Z" fill="#31729F"/>
</svg>
