<svg width="983" height="1199" viewBox="0 0 983 1199" fill="none" xmlns="http://www.w3.org/2000/svg">
<g clip-path="url(#clip0_254_112)">
<rect width="983" height="1199" fill="white"/>
<rect y="184" width="983" height="1015" fill="url(#paint0_linear_254_112)"/>
<g clip-path="url(#clip1_254_112)">
<rect width="983" height="184" fill="url(#paint1_linear_254_112)"/>
<g filter="url(#filter0_d_254_112)">
<path d="M64.2878 32.5213V75H59.1439V32.5213H64.2878ZM78.8328 55.8348V75H73.9378V43.141H78.6669V48.1189H79.0817C79.8284 46.5011 80.9623 45.2013 82.4833 44.2195C84.0044 43.2239 85.9679 42.7261 88.3739 42.7261C90.5311 42.7261 92.4185 43.1686 94.0364 44.0536C95.6542 44.9247 96.9125 46.2522 97.8113 48.036C98.7101 49.8059 99.1595 52.046 99.1595 54.7562V75H94.2645V55.0881C94.2645 52.5853 93.6146 50.6356 92.3148 49.239C91.015 47.8286 89.2313 47.1234 86.9635 47.1234C85.401 47.1234 84.0044 47.4621 82.7737 48.1397C81.5569 48.8172 80.5959 49.8059 79.8906 51.1057C79.1854 52.4055 78.8328 53.9819 78.8328 55.8348ZM120.134 75.6637C117.48 75.6637 115.136 74.9931 113.103 73.6518C111.07 72.2967 109.48 70.3885 108.332 67.9271C107.185 65.452 106.611 62.5274 106.611 59.1535C106.611 55.8071 107.185 52.9033 108.332 50.442C109.48 47.9807 111.077 46.0794 113.124 44.7381C115.17 43.3968 117.535 42.7261 120.217 42.7261C122.292 42.7261 123.93 43.0718 125.133 43.7632C126.35 44.4408 127.276 45.2151 127.913 46.0863C128.562 46.9436 129.067 47.6488 129.427 48.2019H129.841V32.5213H134.736V75H130.007V70.105H129.427C129.067 70.6858 128.556 71.4186 127.892 72.3036C127.228 73.1747 126.281 73.956 125.05 74.6474C123.82 75.325 122.181 75.6637 120.134 75.6637ZM120.798 71.2665C122.762 71.2665 124.421 70.7549 125.776 69.7316C127.131 68.6946 128.161 67.2634 128.867 65.4381C129.572 63.5991 129.924 61.4765 129.924 59.0705C129.924 56.6921 129.579 54.6111 128.887 52.8273C128.196 51.0297 127.173 49.6331 125.818 48.6375C124.463 47.6281 122.789 47.1234 120.798 47.1234C118.724 47.1234 116.996 47.6557 115.613 48.7205C114.244 49.7714 113.214 51.2025 112.522 53.014C111.845 54.8116 111.506 56.8304 111.506 59.0705C111.506 61.3382 111.852 63.3986 112.543 65.2515C113.248 67.0906 114.285 68.5563 115.654 69.6487C117.037 70.7272 118.752 71.2665 120.798 71.2665ZM164.459 61.9743V43.141H169.354V75H164.459V69.6072H164.127C163.381 71.225 162.219 72.6009 160.643 73.7348C159.066 74.8548 157.075 75.4148 154.669 75.4148C152.678 75.4148 150.908 74.9793 149.359 74.1081C147.811 73.2231 146.594 71.8957 145.709 70.1257C144.824 68.342 144.381 66.095 144.381 63.3847V43.141H149.276V63.0529C149.276 65.3759 149.926 67.2288 151.226 68.6116C152.54 69.9944 154.213 70.6858 156.245 70.6858C157.462 70.6858 158.7 70.3746 159.958 69.7524C161.23 69.1301 162.295 68.176 163.152 66.8901C164.024 65.6041 164.459 63.9655 164.459 61.9743ZM200.886 50.2761L196.489 51.5206C196.213 50.7877 195.805 50.0756 195.266 49.3842C194.74 48.679 194.021 48.0982 193.108 47.6419C192.196 47.1856 191.027 46.9574 189.603 46.9574C187.653 46.9574 186.029 47.4068 184.729 48.3056C183.443 49.1906 182.8 50.3176 182.8 51.6865C182.8 52.9033 183.242 53.8644 184.127 54.5696C185.012 55.2748 186.395 55.8625 188.276 56.3326L193.005 57.4941C195.853 58.1855 197.976 59.2433 199.372 60.6676C200.769 62.078 201.467 63.8964 201.467 66.1226C201.467 67.9479 200.942 69.5795 199.891 71.0176C198.854 72.4557 197.402 73.5896 195.535 74.4192C193.668 75.2489 191.497 75.6637 189.022 75.6637C185.773 75.6637 183.083 74.9585 180.954 73.5481C178.824 72.1377 177.476 70.0773 176.909 67.3671L181.555 66.2056C181.998 67.9202 182.834 69.2062 184.065 70.0635C185.31 70.9208 186.934 71.3495 188.939 71.3495C191.221 71.3495 193.032 70.8655 194.374 69.8976C195.729 68.9158 196.406 67.7405 196.406 66.3715C196.406 65.2653 196.019 64.3388 195.245 63.5921C194.47 62.8316 193.281 62.2647 191.677 61.8913L186.367 60.6468C183.45 59.9555 181.306 58.8838 179.938 57.4319C178.582 55.9662 177.905 54.134 177.905 51.9354C177.905 50.1378 178.41 48.5476 179.419 47.1648C180.442 45.7821 181.832 44.6966 183.588 43.9084C185.358 43.1202 187.363 42.7261 189.603 42.7261C192.756 42.7261 195.231 43.4175 197.029 44.8003C198.84 46.1831 200.126 48.0083 200.886 50.2761ZM222.691 43.141V47.2893H206.181V43.141H222.691ZM210.993 35.5081H215.888V65.8737C215.888 67.2565 216.088 68.2936 216.489 68.9849C216.904 69.6625 217.43 70.1188 218.066 70.3539C218.716 70.5751 219.4 70.6858 220.119 70.6858C220.658 70.6858 221.101 70.6581 221.447 70.6028C221.792 70.5337 222.069 70.4783 222.276 70.4369L223.272 74.8341C222.94 74.9585 222.477 75.083 221.882 75.2074C221.288 75.3457 220.534 75.4148 219.621 75.4148C218.239 75.4148 216.883 75.1175 215.556 74.5229C214.242 73.9284 213.15 73.0226 212.279 71.8058C211.421 70.589 210.993 69.0541 210.993 67.2012V35.5081ZM230.054 75V43.141H234.783V47.953H235.115C235.696 46.3767 236.747 45.0976 238.268 44.1158C239.789 43.1341 241.504 42.6432 243.412 42.6432C243.771 42.6432 244.221 42.6501 244.76 42.6639C245.299 42.6777 245.707 42.6985 245.984 42.7261V47.7041C245.818 47.6626 245.438 47.6004 244.843 47.5174C244.262 47.4206 243.647 47.3723 242.997 47.3723C241.448 47.3723 240.066 47.6972 238.849 48.3471C237.646 48.9832 236.692 49.8681 235.986 51.002C235.295 52.1221 234.949 53.4011 234.949 54.8392V75H230.054ZM255.909 86.9471C255.079 86.9471 254.339 86.878 253.689 86.7397C253.039 86.6153 252.59 86.4908 252.341 86.3664L253.586 82.0521C254.775 82.3563 255.826 82.467 256.738 82.384C257.651 82.301 258.46 81.8931 259.165 81.1602C259.884 80.4412 260.541 79.2728 261.136 77.6549L262.048 75.1659L250.267 43.141H255.577L264.371 68.5286H264.703L273.497 43.141H278.807L265.284 79.6461C264.675 81.2916 263.922 82.6536 263.023 83.7322C262.124 84.8246 261.08 85.6335 259.891 86.159C258.716 86.6844 257.388 86.9471 255.909 86.9471ZM302.359 75V32.5213H316.713C320.031 32.5213 322.755 33.0882 324.885 34.2221C327.014 35.3421 328.591 36.8839 329.614 38.8475C330.637 40.811 331.149 43.0442 331.149 45.547C331.149 48.0498 330.637 50.2692 329.614 52.205C328.591 54.1409 327.021 55.662 324.905 56.7682C322.79 57.8606 320.086 58.4068 316.795 58.4068H305.18V53.7606H316.63C318.897 53.7606 320.723 53.4288 322.105 52.7651C323.502 52.1013 324.511 51.161 325.134 49.9442C325.77 48.7135 326.088 47.2478 326.088 45.547C326.088 43.8462 325.77 42.3597 325.134 41.0876C324.498 39.8154 323.481 38.8336 322.085 38.1423C320.688 37.437 318.842 37.0844 316.547 37.0844H307.503V75H302.359ZM322.354 55.9178L332.808 75H326.834L316.547 55.9178H322.354ZM339.056 75V43.141H343.951V75H339.056ZM341.545 37.8311C340.591 37.8311 339.768 37.5062 339.077 36.8563C338.4 36.2064 338.061 35.4251 338.061 34.5125C338.061 33.5999 338.4 32.8186 339.077 32.1687C339.768 31.5188 340.591 31.1938 341.545 31.1938C342.499 31.1938 343.315 31.5188 343.993 32.1687C344.684 32.8186 345.03 33.5999 345.03 34.5125C345.03 35.4251 344.684 36.2064 343.993 36.8563C343.315 37.5062 342.499 37.8311 341.545 37.8311ZM375.484 50.2761L371.086 51.5206C370.81 50.7877 370.402 50.0756 369.863 49.3842C369.337 48.679 368.618 48.0982 367.706 47.6419C366.793 47.1856 365.625 46.9574 364.2 46.9574C362.251 46.9574 360.626 47.4068 359.326 48.3056C358.04 49.1906 357.397 50.3176 357.397 51.6865C357.397 52.9033 357.84 53.8644 358.725 54.5696C359.609 55.2748 360.992 55.8625 362.873 56.3326L367.602 57.4941C370.45 58.1855 372.573 59.2433 373.97 60.6676C375.366 62.078 376.064 63.8964 376.064 66.1226C376.064 67.9479 375.539 69.5795 374.488 71.0176C373.451 72.4557 371.999 73.5896 370.132 74.4192C368.266 75.2489 366.095 75.6637 363.62 75.6637C360.37 75.6637 357.681 74.9585 355.551 73.5481C353.422 72.1377 352.073 70.0773 351.506 67.3671L356.153 66.2056C356.595 67.9202 357.432 69.2062 358.662 70.0635C359.907 70.9208 361.532 71.3495 363.537 71.3495C365.818 71.3495 367.63 70.8655 368.971 69.8976C370.326 68.9158 371.004 67.7405 371.004 66.3715C371.004 65.2653 370.616 64.3388 369.842 63.5921C369.068 62.8316 367.878 62.2647 366.274 61.8913L360.965 60.6468C358.047 59.9555 355.904 58.8838 354.535 57.4319C353.18 55.9662 352.502 54.134 352.502 51.9354C352.502 50.1378 353.007 48.5476 354.016 47.1648C355.039 45.7821 356.429 44.6966 358.185 43.9084C359.955 43.1202 361.96 42.7261 364.2 42.7261C367.353 42.7261 369.828 43.4175 371.626 44.8003C373.437 46.1831 374.723 48.0083 375.484 50.2761ZM387.996 63.3847L387.913 57.3282H388.909L402.847 43.141H408.904L394.053 58.1579H393.638L387.996 63.3847ZM383.433 75V32.5213H388.328V75H383.433ZM403.677 75L391.232 59.2364L394.716 55.8348L409.899 75H403.677Z" fill="#91C8FF"/>
<path d="M65.6671 103.24V140H56.7822V103.24H65.6671ZM71.2449 103.24H82.2479L91.5816 125.999H92.0124L101.346 103.24H112.349V140H103.697V117.42H103.392L94.5612 139.767H89.0328L80.2017 117.294H79.8965V140H71.2449V103.24ZM117.891 140V103.24H133.076C135.828 103.24 138.204 103.778 140.202 104.855C142.212 105.92 143.762 107.41 144.851 109.324C145.94 111.227 146.484 113.441 146.484 115.966C146.484 118.503 145.928 120.722 144.815 122.625C143.714 124.516 142.141 125.982 140.094 127.023C138.048 128.064 135.619 128.584 132.807 128.584H123.437V121.584H131.156C132.496 121.584 133.615 121.351 134.512 120.884C135.422 120.417 136.11 119.765 136.576 118.927C137.043 118.078 137.276 117.091 137.276 115.966C137.276 114.829 137.043 113.848 136.576 113.022C136.11 112.184 135.422 111.538 134.512 111.083C133.603 110.629 132.484 110.401 131.156 110.401H126.776V140H117.891ZM154.373 140H144.824L157.227 103.24H169.056L181.459 140H171.91L163.276 112.501H162.989L154.373 140ZM153.099 125.533H173.059V132.282H153.099V125.533ZM217.057 116.558H208.082C207.963 115.637 207.717 114.805 207.346 114.063C206.975 113.321 206.485 112.687 205.875 112.16C205.264 111.634 204.54 111.233 203.703 110.958C202.877 110.671 201.962 110.527 200.956 110.527C199.173 110.527 197.636 110.964 196.343 111.837C195.063 112.711 194.076 113.973 193.382 115.625C192.7 117.276 192.359 119.274 192.359 121.62C192.359 124.061 192.706 126.107 193.4 127.758C194.106 129.398 195.093 130.636 196.361 131.474C197.642 132.3 199.155 132.713 200.903 132.713C201.884 132.713 202.775 132.587 203.577 132.336C204.391 132.084 205.103 131.719 205.713 131.241C206.335 130.75 206.844 130.158 207.239 129.464C207.646 128.758 207.927 127.962 208.082 127.076L217.057 127.13C216.901 128.758 216.429 130.361 215.639 131.941C214.861 133.52 213.79 134.962 212.426 136.267C211.062 137.559 209.399 138.588 207.436 139.354C205.486 140.12 203.248 140.503 200.723 140.503C197.396 140.503 194.417 139.773 191.784 138.313C189.164 136.841 187.093 134.699 185.574 131.887C184.054 129.075 183.294 125.652 183.294 121.62C183.294 117.575 184.066 114.147 185.61 111.335C187.153 108.523 189.241 106.387 191.874 104.927C194.507 103.467 197.456 102.737 200.723 102.737C202.949 102.737 205.007 103.048 206.898 103.67C208.788 104.281 210.452 105.178 211.888 106.363C213.324 107.535 214.49 108.977 215.388 110.689C216.285 112.4 216.842 114.356 217.057 116.558ZM220.939 110.455V103.24H252.009V110.455H240.862V140H232.103V110.455H220.939ZM301.904 121.62C301.904 125.664 301.126 129.093 299.571 131.905C298.015 134.717 295.909 136.853 293.252 138.313C290.608 139.773 287.64 140.503 284.349 140.503C281.047 140.503 278.073 139.767 275.429 138.295C272.784 136.823 270.684 134.687 269.128 131.887C267.585 129.075 266.813 125.652 266.813 121.62C266.813 117.575 267.585 114.147 269.128 111.335C270.684 108.523 272.784 106.387 275.429 104.927C278.073 103.467 281.047 102.737 284.349 102.737C287.64 102.737 290.608 103.467 293.252 104.927C295.909 106.387 298.015 108.523 299.571 111.335C301.126 114.147 301.904 117.575 301.904 121.62ZM292.822 121.62C292.822 119.227 292.48 117.204 291.798 115.553C291.128 113.902 290.159 112.651 288.891 111.801C287.634 110.952 286.12 110.527 284.349 110.527C282.59 110.527 281.077 110.952 279.808 111.801C278.54 112.651 277.565 113.902 276.882 115.553C276.212 117.204 275.877 119.227 275.877 121.62C275.877 124.013 276.212 126.035 276.882 127.687C277.565 129.338 278.54 130.589 279.808 131.438C281.077 132.288 282.59 132.713 284.349 132.713C286.12 132.713 287.634 132.288 288.891 131.438C290.159 130.589 291.128 129.338 291.798 127.687C292.48 126.035 292.822 124.013 292.822 121.62ZM307.091 140V103.24H332.185V110.455H315.976V117.994H330.587V125.228H315.976V140H307.091ZM347.518 140V103.24H356.403V118.784H356.888L369.039 103.24H379.504L366.472 119.645L379.737 140H369.111L359.957 125.551L356.403 130.038V140H347.518ZM383.008 140V103.24H408.64V110.455H391.893V117.994H407.33V125.228H391.893V132.784H408.64V140H383.008ZM412.374 103.24H422.3L430.072 118.622H430.395L438.167 103.24H448.093L434.649 127.723V140H425.818V127.723L412.374 103.24ZM462.677 140V103.24H477.862C480.614 103.24 482.99 103.736 484.988 104.729C486.998 105.711 488.548 107.123 489.637 108.965C490.726 110.796 491.27 112.968 491.27 115.481C491.27 118.03 490.714 120.196 489.601 121.979C488.488 123.75 486.909 125.102 484.862 126.035C482.816 126.957 480.393 127.417 477.593 127.417H467.99V120.417H475.942C477.282 120.417 478.401 120.244 479.298 119.897C480.208 119.538 480.896 118.999 481.362 118.281C481.829 117.551 482.062 116.618 482.062 115.481C482.062 114.344 481.829 113.405 481.362 112.663C480.896 111.909 480.208 111.347 479.298 110.976C478.389 110.593 477.27 110.401 475.942 110.401H471.562V140H462.677ZM483.373 123.199L492.527 140H482.834L473.859 123.199H483.373ZM505.029 103.24V140H496.144V103.24H505.029ZM530.476 114.261C530.357 112.944 529.824 111.921 528.879 111.191C527.945 110.449 526.611 110.078 524.876 110.078C523.727 110.078 522.77 110.228 522.004 110.527C521.238 110.826 520.664 111.239 520.281 111.766C519.898 112.28 519.701 112.872 519.689 113.543C519.665 114.093 519.773 114.578 520.012 114.996C520.263 115.415 520.622 115.786 521.089 116.109C521.567 116.42 522.142 116.696 522.812 116.935C523.482 117.174 524.236 117.384 525.074 117.563L528.233 118.281C530.052 118.676 531.655 119.203 533.043 119.861C534.443 120.519 535.616 121.303 536.561 122.212C537.519 123.122 538.242 124.169 538.733 125.353C539.224 126.538 539.475 127.866 539.487 129.338C539.475 131.66 538.889 133.652 537.728 135.315C536.567 136.979 534.898 138.253 532.72 139.138C530.554 140.024 527.94 140.467 524.876 140.467C521.801 140.467 519.12 140.006 516.835 139.085C514.549 138.163 512.772 136.763 511.504 134.884C510.235 133.006 509.583 130.63 509.547 127.758H518.055C518.127 128.943 518.444 129.93 519.007 130.72C519.569 131.51 520.341 132.108 521.322 132.515C522.315 132.922 523.464 133.125 524.768 133.125C525.965 133.125 526.982 132.964 527.82 132.641C528.669 132.318 529.322 131.869 529.776 131.295C530.231 130.72 530.464 130.062 530.476 129.32C530.464 128.626 530.249 128.034 529.83 127.543C529.411 127.041 528.765 126.61 527.892 126.251C527.03 125.88 525.929 125.539 524.589 125.228L520.748 124.33C517.565 123.6 515.058 122.422 513.227 120.794C511.396 119.155 510.487 116.941 510.499 114.153C510.487 111.879 511.097 109.887 512.329 108.176C513.562 106.464 515.267 105.13 517.445 104.173C519.623 103.216 522.106 102.737 524.894 102.737C527.742 102.737 530.213 103.222 532.307 104.191C534.413 105.148 536.047 106.494 537.207 108.23C538.368 109.965 538.96 111.975 538.984 114.261H530.476ZM543.974 140V103.24H552.859V118.784H553.344L565.496 103.24H575.96L562.929 119.645L576.194 140H565.567L556.413 125.551L552.859 130.038V140H543.974ZM625.02 121.62C625.02 125.664 624.243 129.093 622.687 131.905C621.131 134.717 619.025 136.853 616.369 138.313C613.724 139.773 610.757 140.503 607.466 140.503C604.163 140.503 601.19 139.767 598.545 138.295C595.901 136.823 593.8 134.687 592.245 131.887C590.701 129.075 589.929 125.652 589.929 121.62C589.929 117.575 590.701 114.147 592.245 111.335C593.8 108.523 595.901 106.387 598.545 104.927C601.19 103.467 604.163 102.737 607.466 102.737C610.757 102.737 613.724 103.467 616.369 104.927C619.025 106.387 621.131 108.523 622.687 111.335C624.243 114.147 625.02 117.575 625.02 121.62ZM615.938 121.62C615.938 119.227 615.597 117.204 614.915 115.553C614.245 113.902 613.276 112.651 612.007 111.801C610.751 110.952 609.237 110.527 607.466 110.527C605.707 110.527 604.193 110.952 602.925 111.801C601.656 112.651 600.681 113.902 599.999 115.553C599.329 117.204 598.994 119.227 598.994 121.62C598.994 124.013 599.329 126.035 599.999 127.687C600.681 129.338 601.656 130.589 602.925 131.438C604.193 132.288 605.707 132.713 607.466 132.713C609.237 132.713 610.751 132.288 612.007 131.438C613.276 130.589 614.245 129.338 614.915 127.687C615.597 126.035 615.938 124.013 615.938 121.62ZM661.494 103.24V140H653.955L639.326 118.784H639.093V140H630.208V103.24H637.854L652.322 124.42H652.627V103.24H661.494ZM677.94 140V103.24H693.269C696.021 103.24 698.324 103.628 700.179 104.406C702.046 105.184 703.446 106.273 704.379 107.673C705.325 109.073 705.797 110.695 705.797 112.537C705.797 113.937 705.504 115.188 704.918 116.289C704.331 117.378 703.524 118.281 702.495 118.999C701.466 119.717 700.275 120.22 698.923 120.507V120.866C700.407 120.938 701.777 121.339 703.033 122.069C704.302 122.798 705.319 123.816 706.085 125.12C706.85 126.412 707.233 127.944 707.233 129.715C707.233 131.689 706.731 133.454 705.726 135.01C704.72 136.554 703.266 137.774 701.364 138.672C699.461 139.557 697.152 140 694.435 140H677.94ZM686.825 132.838H692.317C694.244 132.838 695.662 132.473 696.571 131.743C697.493 131.013 697.953 129.996 697.953 128.692C697.953 127.747 697.732 126.933 697.289 126.251C696.847 125.557 696.218 125.024 695.405 124.653C694.591 124.27 693.616 124.079 692.479 124.079H686.825V132.838ZM686.825 118.353H691.743C692.712 118.353 693.574 118.191 694.328 117.868C695.082 117.545 695.668 117.079 696.087 116.468C696.517 115.858 696.733 115.122 696.733 114.261C696.733 113.028 696.296 112.059 695.423 111.353C694.549 110.647 693.37 110.294 691.887 110.294H686.825V118.353ZM733.745 103.24H742.612V126.951C742.612 129.691 741.959 132.078 740.655 134.113C739.351 136.135 737.532 137.702 735.198 138.815C732.865 139.916 730.155 140.467 727.067 140.467C723.944 140.467 721.216 139.916 718.882 138.815C716.549 137.702 714.736 136.135 713.444 134.113C712.151 132.078 711.505 129.691 711.505 126.951V103.24H720.39V126.179C720.39 127.447 720.665 128.578 721.216 129.571C721.778 130.565 722.562 131.342 723.567 131.905C724.572 132.467 725.739 132.748 727.067 132.748C728.396 132.748 729.556 132.467 730.55 131.905C731.555 131.342 732.339 130.565 732.901 129.571C733.463 128.578 733.745 127.447 733.745 126.179V103.24ZM768.05 114.261C767.931 112.944 767.398 111.921 766.453 111.191C765.52 110.449 764.185 110.078 762.45 110.078C761.301 110.078 760.344 110.228 759.578 110.527C758.812 110.826 758.238 111.239 757.855 111.766C757.472 112.28 757.275 112.872 757.263 113.543C757.239 114.093 757.347 114.578 757.586 114.996C757.837 115.415 758.196 115.786 758.663 116.109C759.142 116.42 759.716 116.696 760.386 116.935C761.056 117.174 761.81 117.384 762.648 117.563L765.807 118.281C767.626 118.676 769.229 119.203 770.617 119.861C772.017 120.519 773.19 121.303 774.135 122.212C775.093 123.122 775.817 124.169 776.307 125.353C776.798 126.538 777.049 127.866 777.061 129.338C777.049 131.66 776.463 133.652 775.302 135.315C774.141 136.979 772.472 138.253 770.294 139.138C768.128 140.024 765.514 140.467 762.45 140.467C759.375 140.467 756.694 140.006 754.409 139.085C752.123 138.163 750.346 136.763 749.078 134.884C747.809 133.006 747.157 130.63 747.121 127.758H755.629C755.701 128.943 756.018 129.93 756.581 130.72C757.143 131.51 757.915 132.108 758.896 132.515C759.889 132.922 761.038 133.125 762.343 133.125C763.539 133.125 764.556 132.964 765.394 132.641C766.244 132.318 766.896 131.869 767.35 131.295C767.805 130.72 768.038 130.062 768.05 129.32C768.038 128.626 767.823 128.034 767.404 127.543C766.985 127.041 766.339 126.61 765.466 126.251C764.604 125.88 763.503 125.539 762.163 125.228L758.322 124.33C755.139 123.6 752.632 122.422 750.801 120.794C748.97 119.155 748.061 116.941 748.073 114.153C748.061 111.879 748.671 109.887 749.904 108.176C751.136 106.464 752.841 105.13 755.019 104.173C757.197 103.216 759.68 102.737 762.468 102.737C765.316 102.737 767.787 103.222 769.881 104.191C771.987 105.148 773.621 106.494 774.781 108.23C775.942 109.965 776.535 111.975 776.558 114.261H768.05ZM790.433 103.24V140H781.548V103.24H790.433ZM827.297 103.24V140H819.758L805.129 118.784H804.896V140H796.011V103.24H803.658L818.125 124.42H818.43V103.24H827.297ZM832.884 140V103.24H858.515V110.455H841.769V117.994H857.205V125.228H841.769V132.784H858.515V140H832.884ZM883.95 114.261C883.83 112.944 883.298 111.921 882.352 111.191C881.419 110.449 880.085 110.078 878.35 110.078C877.201 110.078 876.244 110.228 875.478 110.527C874.712 110.826 874.137 111.239 873.755 111.766C873.372 112.28 873.174 112.872 873.162 113.543C873.138 114.093 873.246 114.578 873.485 114.996C873.737 115.415 874.096 115.786 874.562 116.109C875.041 116.42 875.615 116.696 876.285 116.935C876.956 117.174 877.709 117.384 878.547 117.563L881.706 118.281C883.525 118.676 885.129 119.203 886.517 119.861C887.917 120.519 889.089 121.303 890.035 122.212C890.992 123.122 891.716 124.169 892.207 125.353C892.697 126.538 892.948 127.866 892.96 129.338C892.948 131.66 892.362 133.652 891.201 135.315C890.041 136.979 888.371 138.253 886.194 139.138C884.028 140.024 881.413 140.467 878.35 140.467C875.274 140.467 872.594 140.006 870.308 139.085C868.023 138.163 866.246 136.763 864.977 134.884C863.709 133.006 863.057 130.63 863.021 127.758H871.529C871.601 128.943 871.918 129.93 872.48 130.72C873.043 131.51 873.814 132.108 874.796 132.515C875.789 132.922 876.938 133.125 878.242 133.125C879.439 133.125 880.456 132.964 881.293 132.641C882.143 132.318 882.795 131.869 883.25 131.295C883.705 130.72 883.938 130.062 883.95 129.32C883.938 128.626 883.722 128.034 883.304 127.543C882.885 127.041 882.239 126.61 881.365 126.251C880.504 125.88 879.403 125.539 878.062 125.228L874.221 124.33C871.038 123.6 868.531 122.422 866.7 120.794C864.87 119.155 863.96 116.941 863.972 114.153C863.96 111.879 864.57 109.887 865.803 108.176C867.036 106.464 868.741 105.13 870.919 104.173C873.096 103.216 875.579 102.737 878.368 102.737C881.216 102.737 883.687 103.222 885.781 104.191C887.887 105.148 889.52 106.494 890.681 108.23C891.842 109.965 892.434 111.975 892.458 114.261H883.95ZM917.318 114.261C917.198 112.944 916.666 111.921 915.72 111.191C914.787 110.449 913.453 110.078 911.718 110.078C910.569 110.078 909.612 110.228 908.846 110.527C908.08 110.826 907.505 111.239 907.123 111.766C906.74 112.28 906.542 112.872 906.53 113.543C906.506 114.093 906.614 114.578 906.853 114.996C907.105 115.415 907.464 115.786 907.93 116.109C908.409 116.42 908.983 116.696 909.653 116.935C910.324 117.174 911.077 117.384 911.915 117.563L915.074 118.281C916.893 118.676 918.496 119.203 919.885 119.861C921.285 120.519 922.457 121.303 923.403 122.212C924.36 123.122 925.084 124.169 925.575 125.353C926.065 126.538 926.316 127.866 926.328 129.338C926.316 131.66 925.73 133.652 924.569 135.315C923.409 136.979 921.739 138.253 919.561 139.138C917.396 140.024 914.781 140.467 911.718 140.467C908.642 140.467 905.962 140.006 903.676 139.085C901.391 138.163 899.614 136.763 898.345 134.884C897.077 133.006 896.425 130.63 896.389 127.758H904.897C904.969 128.943 905.286 129.93 905.848 130.72C906.411 131.51 907.182 132.108 908.164 132.515C909.157 132.922 910.306 133.125 911.61 133.125C912.807 133.125 913.824 132.964 914.661 132.641C915.511 132.318 916.163 131.869 916.618 131.295C917.073 130.72 917.306 130.062 917.318 129.32C917.306 128.626 917.09 128.034 916.672 127.543C916.253 127.041 915.607 126.61 914.733 126.251C913.872 125.88 912.771 125.539 911.43 125.228L907.589 124.33C904.406 123.6 901.899 122.422 900.068 120.794C898.238 119.155 897.328 116.941 897.34 114.153C897.328 111.879 897.938 109.887 899.171 108.176C900.403 106.464 902.109 105.13 904.287 104.173C906.464 103.216 908.947 102.737 911.736 102.737C914.584 102.737 917.055 103.222 919.149 104.191C921.255 105.148 922.888 106.494 924.049 108.23C925.21 109.965 925.802 111.975 925.826 114.261H917.318Z" fill="white"/>
</g>
</g>
<path d="M447.77 228V207.636H455.923C457.421 207.636 458.671 207.858 459.672 208.303C460.673 208.747 461.425 209.363 461.929 210.152C462.433 210.934 462.685 211.836 462.685 212.857C462.685 213.652 462.526 214.351 462.207 214.955C461.889 215.551 461.452 216.042 460.895 216.426C460.345 216.804 459.715 217.072 459.006 217.232V217.43C459.781 217.464 460.507 217.682 461.183 218.087C461.866 218.491 462.42 219.058 462.844 219.787C463.268 220.509 463.48 221.371 463.48 222.372C463.48 223.453 463.212 224.417 462.675 225.266C462.144 226.107 461.359 226.774 460.318 227.264C459.277 227.755 457.995 228 456.47 228H447.77ZM452.075 224.48H455.585C456.785 224.48 457.66 224.251 458.21 223.794C458.76 223.33 459.036 222.714 459.036 221.945C459.036 221.381 458.9 220.884 458.628 220.453C458.356 220.022 457.968 219.684 457.464 219.439C456.967 219.194 456.374 219.071 455.685 219.071H452.075V224.48ZM452.075 216.158H455.267C455.857 216.158 456.381 216.055 456.838 215.849C457.302 215.637 457.667 215.339 457.932 214.955C458.204 214.57 458.339 214.109 458.339 213.572C458.339 212.837 458.078 212.243 457.554 211.793C457.037 211.342 456.301 211.116 455.347 211.116H452.075V216.158ZM475.996 221.497V212.727H480.232V228H476.165V225.226H476.006C475.661 226.121 475.088 226.84 474.286 227.384C473.49 227.927 472.519 228.199 471.373 228.199C470.352 228.199 469.453 227.967 468.678 227.503C467.902 227.039 467.296 226.379 466.858 225.524C466.427 224.669 466.209 223.645 466.202 222.452V212.727H470.438V221.696C470.444 222.598 470.686 223.31 471.164 223.834C471.641 224.357 472.281 224.619 473.083 224.619C473.593 224.619 474.07 224.503 474.515 224.271C474.959 224.033 475.317 223.681 475.588 223.217C475.867 222.753 476.003 222.18 475.996 221.497ZM496.327 217.082L492.45 217.321C492.383 216.99 492.241 216.691 492.022 216.426C491.803 216.154 491.515 215.939 491.157 215.78C490.806 215.614 490.385 215.531 489.894 215.531C489.238 215.531 488.684 215.67 488.234 215.949C487.783 216.221 487.558 216.585 487.558 217.043C487.558 217.407 487.703 217.715 487.995 217.967C488.287 218.219 488.787 218.421 489.496 218.574L492.261 219.131C493.746 219.436 494.853 219.926 495.582 220.602C496.311 221.278 496.675 222.167 496.675 223.267C496.675 224.268 496.38 225.146 495.79 225.902C495.207 226.658 494.405 227.248 493.384 227.672C492.37 228.089 491.2 228.298 489.874 228.298C487.853 228.298 486.242 227.877 485.042 227.036C483.849 226.187 483.149 225.034 482.944 223.575L487.11 223.357C487.236 223.973 487.541 224.444 488.025 224.768C488.509 225.087 489.129 225.246 489.884 225.246C490.627 225.246 491.223 225.103 491.674 224.818C492.131 224.527 492.363 224.152 492.37 223.695C492.363 223.31 492.201 222.995 491.883 222.75C491.565 222.498 491.074 222.306 490.411 222.173L487.766 221.646C486.275 221.348 485.165 220.831 484.435 220.095C483.713 219.359 483.352 218.421 483.352 217.281C483.352 216.3 483.617 215.455 484.147 214.746C484.684 214.036 485.436 213.49 486.404 213.105C487.379 212.721 488.519 212.528 489.825 212.528C491.754 212.528 493.272 212.936 494.379 213.751C495.492 214.567 496.142 215.677 496.327 217.082ZM499.343 228V212.727H503.578V228H499.343ZM501.471 210.759C500.841 210.759 500.301 210.55 499.85 210.132C499.406 209.708 499.184 209.201 499.184 208.611C499.184 208.027 499.406 207.527 499.85 207.109C500.301 206.685 500.841 206.473 501.471 206.473C502.1 206.473 502.637 206.685 503.081 207.109C503.532 207.527 503.757 208.027 503.757 208.611C503.757 209.201 503.532 209.708 503.081 210.132C502.637 210.55 502.1 210.759 501.471 210.759ZM511.207 219.17V228H506.972V212.727H511.009V215.422H511.188C511.526 214.534 512.092 213.831 512.888 213.314C513.683 212.79 514.648 212.528 515.781 212.528C516.842 212.528 517.767 212.76 518.555 213.224C519.344 213.688 519.957 214.351 520.395 215.213C520.832 216.068 521.051 217.089 521.051 218.276V228H516.815V219.031C516.822 218.097 516.583 217.367 516.099 216.844C515.616 216.313 514.949 216.048 514.101 216.048C513.531 216.048 513.027 216.171 512.589 216.416C512.159 216.661 511.821 217.019 511.575 217.49C511.337 217.954 511.214 218.514 511.207 219.17ZM531.35 228.298C529.779 228.298 528.426 227.98 527.293 227.344C526.166 226.701 525.298 225.793 524.688 224.619C524.078 223.439 523.773 222.044 523.773 220.433C523.773 218.862 524.078 217.483 524.688 216.297C525.298 215.11 526.156 214.186 527.263 213.523C528.377 212.86 529.683 212.528 531.181 212.528C532.188 212.528 533.126 212.691 533.995 213.016C534.87 213.334 535.632 213.814 536.282 214.457C536.938 215.1 537.448 215.909 537.813 216.884C538.177 217.851 538.36 218.985 538.36 220.284V221.447H525.463V218.822H534.373C534.373 218.213 534.24 217.672 533.975 217.202C533.71 216.731 533.342 216.363 532.871 216.098C532.407 215.826 531.867 215.69 531.25 215.69C530.607 215.69 530.037 215.839 529.54 216.138C529.05 216.429 528.665 216.824 528.387 217.321C528.108 217.812 527.966 218.358 527.959 218.962V221.457C527.959 222.213 528.098 222.866 528.377 223.416C528.662 223.966 529.063 224.391 529.58 224.689C530.097 224.987 530.71 225.136 531.419 225.136C531.89 225.136 532.321 225.07 532.712 224.938C533.103 224.805 533.438 224.606 533.716 224.341C533.995 224.076 534.207 223.751 534.353 223.366L538.27 223.625C538.071 224.566 537.664 225.388 537.047 226.091C536.437 226.787 535.649 227.33 534.681 227.722C533.72 228.106 532.609 228.298 531.35 228.298ZM553.831 217.082L549.953 217.321C549.887 216.99 549.745 216.691 549.526 216.426C549.307 216.154 549.019 215.939 548.661 215.78C548.31 215.614 547.889 215.531 547.398 215.531C546.742 215.531 546.188 215.67 545.738 215.949C545.287 216.221 545.061 216.585 545.061 217.043C545.061 217.407 545.207 217.715 545.499 217.967C545.791 218.219 546.291 218.421 547 218.574L549.765 219.131C551.249 219.436 552.356 219.926 553.086 220.602C553.815 221.278 554.179 222.167 554.179 223.267C554.179 224.268 553.884 225.146 553.294 225.902C552.711 226.658 551.909 227.248 550.888 227.672C549.874 228.089 548.704 228.298 547.378 228.298C545.356 228.298 543.746 227.877 542.546 227.036C541.353 226.187 540.653 225.034 540.448 223.575L544.614 223.357C544.74 223.973 545.045 224.444 545.529 224.768C546.013 225.087 546.632 225.246 547.388 225.246C548.131 225.246 548.727 225.103 549.178 224.818C549.635 224.527 549.867 224.152 549.874 223.695C549.867 223.31 549.705 222.995 549.387 222.75C549.069 222.498 548.578 222.306 547.915 222.173L545.27 221.646C543.779 221.348 542.668 220.831 541.939 220.095C541.217 219.359 540.855 218.421 540.855 217.281C540.855 216.3 541.121 215.455 541.651 214.746C542.188 214.036 542.94 213.49 543.908 213.105C544.882 212.721 546.023 212.528 547.328 212.528C549.257 212.528 550.775 212.936 551.882 213.751C552.996 214.567 553.646 215.677 553.831 217.082ZM569.554 217.082L565.676 217.321C565.61 216.99 565.467 216.691 565.249 216.426C565.03 216.154 564.741 215.939 564.384 215.78C564.032 215.614 563.611 215.531 563.121 215.531C562.464 215.531 561.911 215.67 561.46 215.949C561.009 216.221 560.784 216.585 560.784 217.043C560.784 217.407 560.93 217.715 561.222 217.967C561.513 218.219 562.014 218.421 562.723 218.574L565.487 219.131C566.972 219.436 568.079 219.926 568.808 220.602C569.537 221.278 569.902 222.167 569.902 223.267C569.902 224.268 569.607 225.146 569.017 225.902C568.434 226.658 567.632 227.248 566.611 227.672C565.597 228.089 564.427 228.298 563.101 228.298C561.079 228.298 559.468 227.877 558.268 227.036C557.075 226.187 556.376 225.034 556.17 223.575L560.337 223.357C560.463 223.973 560.768 224.444 561.251 224.768C561.735 225.087 562.355 225.246 563.111 225.246C563.853 225.246 564.45 225.103 564.901 224.818C565.358 224.527 565.59 224.152 565.597 223.695C565.59 223.31 565.428 222.995 565.109 222.75C564.791 222.498 564.301 222.306 563.638 222.173L560.993 221.646C559.501 221.348 558.391 220.831 557.662 220.095C556.939 219.359 556.578 218.421 556.578 217.281C556.578 216.3 556.843 215.455 557.374 214.746C557.911 214.036 558.663 213.49 559.631 213.105C560.605 212.721 561.745 212.528 563.051 212.528C564.98 212.528 566.498 212.936 567.605 213.751C568.719 214.567 569.368 215.677 569.554 217.082ZM579.05 228V212.727H583.286V228H579.05ZM581.178 210.759C580.548 210.759 580.008 210.55 579.557 210.132C579.113 209.708 578.891 209.201 578.891 208.611C578.891 208.027 579.113 207.527 579.557 207.109C580.008 206.685 580.548 206.473 581.178 206.473C581.807 206.473 582.344 206.685 582.788 207.109C583.239 207.527 583.464 208.027 583.464 208.611C583.464 209.201 583.239 209.708 582.788 210.132C582.344 210.55 581.807 210.759 581.178 210.759ZM586.679 228V212.727H590.716V215.422H590.895C591.213 214.527 591.743 213.821 592.485 213.304C593.228 212.787 594.116 212.528 595.15 212.528C596.198 212.528 597.089 212.79 597.825 213.314C598.561 213.831 599.051 214.534 599.297 215.422H599.456C599.767 214.547 600.331 213.848 601.146 213.324C601.968 212.794 602.939 212.528 604.059 212.528C605.484 212.528 606.641 212.982 607.529 213.891C608.424 214.792 608.872 216.071 608.872 217.729V228H604.646V218.564C604.646 217.715 604.421 217.079 603.97 216.655C603.519 216.231 602.956 216.018 602.279 216.018C601.511 216.018 600.911 216.264 600.48 216.754C600.049 217.238 599.833 217.878 599.833 218.673V228H595.727V218.474C595.727 217.725 595.511 217.129 595.081 216.685C594.656 216.241 594.096 216.018 593.4 216.018C592.93 216.018 592.505 216.138 592.127 216.376C591.756 216.608 591.461 216.937 591.243 217.361C591.024 217.778 590.914 218.269 590.914 218.832V228H586.679ZM612.218 233.727V212.727H616.394V215.293H616.583C616.768 214.882 617.037 214.464 617.388 214.04C617.746 213.609 618.21 213.251 618.78 212.966C619.357 212.674 620.073 212.528 620.928 212.528C622.042 212.528 623.069 212.82 624.01 213.403C624.952 213.98 625.704 214.852 626.267 216.018C626.831 217.179 627.113 218.634 627.113 220.384C627.113 222.087 626.837 223.526 626.287 224.699C625.744 225.866 625.001 226.75 624.06 227.354C623.125 227.95 622.078 228.249 620.918 228.249C620.096 228.249 619.397 228.113 618.82 227.841C618.25 227.569 617.783 227.228 617.418 226.817C617.053 226.399 616.775 225.978 616.583 225.554H616.453V233.727H612.218ZM616.364 220.364C616.364 221.272 616.49 222.064 616.742 222.74C616.994 223.416 617.358 223.943 617.836 224.321C618.313 224.692 618.893 224.878 619.576 224.878C620.265 224.878 620.848 224.689 621.326 224.311C621.803 223.927 622.164 223.396 622.409 222.72C622.661 222.037 622.787 221.252 622.787 220.364C622.787 219.482 622.665 218.706 622.419 218.037C622.174 217.367 621.813 216.844 621.336 216.466C620.858 216.088 620.272 215.899 619.576 215.899C618.886 215.899 618.303 216.081 617.826 216.446C617.355 216.811 616.994 217.328 616.742 217.997C616.49 218.667 616.364 219.455 616.364 220.364ZM634.292 228.288C633.317 228.288 632.449 228.119 631.686 227.781C630.924 227.437 630.321 226.929 629.877 226.26C629.439 225.584 629.221 224.742 629.221 223.734C629.221 222.886 629.376 222.173 629.688 221.597C629.999 221.02 630.424 220.556 630.961 220.205C631.498 219.853 632.107 219.588 632.79 219.409C633.48 219.23 634.202 219.104 634.958 219.031C635.846 218.938 636.562 218.852 637.105 218.773C637.649 218.687 638.043 218.561 638.289 218.395C638.534 218.229 638.657 217.984 638.657 217.659V217.599C638.657 216.97 638.458 216.482 638.06 216.138C637.669 215.793 637.112 215.621 636.39 215.621C635.627 215.621 635.021 215.79 634.57 216.128C634.119 216.459 633.821 216.877 633.675 217.381L629.757 217.062C629.956 216.134 630.347 215.332 630.931 214.656C631.514 213.973 632.266 213.45 633.188 213.085C634.116 212.714 635.19 212.528 636.409 212.528C637.258 212.528 638.07 212.628 638.846 212.827C639.628 213.026 640.32 213.334 640.924 213.751C641.533 214.169 642.014 214.706 642.365 215.362C642.717 216.012 642.892 216.791 642.892 217.699V228H638.875V225.882H638.756C638.511 226.359 638.183 226.78 637.772 227.145C637.361 227.503 636.867 227.785 636.29 227.99C635.713 228.189 635.047 228.288 634.292 228.288ZM635.505 225.365C636.128 225.365 636.678 225.242 637.155 224.997C637.632 224.745 638.007 224.407 638.279 223.983C638.551 223.559 638.686 223.078 638.686 222.541V220.92C638.554 221.007 638.372 221.086 638.14 221.159C637.914 221.225 637.659 221.288 637.374 221.348C637.089 221.401 636.804 221.451 636.519 221.497C636.234 221.537 635.975 221.573 635.743 221.607C635.246 221.679 634.812 221.795 634.441 221.955C634.069 222.114 633.781 222.329 633.576 222.601C633.37 222.866 633.267 223.197 633.267 223.595C633.267 224.172 633.476 224.613 633.894 224.918C634.318 225.216 634.855 225.365 635.505 225.365ZM653.079 228.298C651.515 228.298 650.169 227.967 649.042 227.304C647.922 226.634 647.06 225.706 646.457 224.52C645.86 223.333 645.562 221.968 645.562 220.423C645.562 218.859 645.864 217.487 646.467 216.307C647.077 215.12 647.942 214.196 649.062 213.533C650.182 212.863 651.515 212.528 653.059 212.528C654.392 212.528 655.558 212.77 656.559 213.254C657.56 213.738 658.352 214.418 658.936 215.293C659.519 216.168 659.841 217.195 659.9 218.375H655.903C655.79 217.613 655.492 217 655.008 216.536C654.531 216.065 653.904 215.83 653.129 215.83C652.473 215.83 651.899 216.009 651.409 216.366C650.925 216.718 650.547 217.232 650.275 217.908C650.003 218.584 649.868 219.402 649.868 220.364C649.868 221.338 650 222.167 650.265 222.849C650.537 223.532 650.918 224.053 651.409 224.411C651.899 224.768 652.473 224.947 653.129 224.947C653.613 224.947 654.047 224.848 654.431 224.649C654.823 224.45 655.144 224.162 655.396 223.784C655.654 223.4 655.824 222.939 655.903 222.402H659.9C659.834 223.569 659.516 224.596 658.946 225.484C658.382 226.366 657.603 227.055 656.609 227.553C655.615 228.05 654.438 228.298 653.079 228.298ZM670.736 212.727V215.909H661.538V212.727H670.736ZM663.626 209.068H667.862V223.307C667.862 223.698 667.922 224.003 668.041 224.222C668.161 224.434 668.326 224.583 668.538 224.669C668.757 224.755 669.009 224.798 669.294 224.798C669.493 224.798 669.692 224.782 669.891 224.749C670.089 224.709 670.242 224.679 670.348 224.659L671.014 227.811C670.802 227.877 670.504 227.954 670.119 228.04C669.735 228.133 669.268 228.189 668.717 228.209C667.696 228.249 666.802 228.113 666.033 227.801C665.27 227.49 664.677 227.006 664.253 226.349C663.829 225.693 663.62 224.865 663.626 223.864V209.068Z" fill="#123D7B"/>
<path d="M159 218L179 229.547V206.453L159 218ZM429 218V216L177 216V218V220L429 220V218Z" fill="#123D7B"/>
<path d="M949 218L929 206.453L929 229.547L949 218ZM691 218L691 220L931 220L931 218L931 216L691 216L691 218Z" fill="#123D7B"/>
<path fill-rule="evenodd" clip-rule="evenodd" d="M160.333 295.719H422.862V427.78H160.333V295.719Z" fill="white"/>
<path fill-rule="evenodd" clip-rule="evenodd" d="M422.889 295.001H685.42V427.063H422.889V295.001Z" fill="white"/>
<path fill-rule="evenodd" clip-rule="evenodd" d="M685.444 295.001H947.975V427.063H685.444V295.001Z" fill="white"/>
<path fill-rule="evenodd" clip-rule="evenodd" d="M160.137 427.929H422.665V559.99H160.137V427.929Z" fill="white"/>
<path fill-rule="evenodd" clip-rule="evenodd" d="M422.665 427.562H685.196V559.624H422.665V427.562Z" fill="white"/>
<path fill-rule="evenodd" clip-rule="evenodd" d="M685.444 427.562H947.975V559.624H685.444V427.562Z" fill="white"/>
<path fill-rule="evenodd" clip-rule="evenodd" d="M160.137 558.375H422.665V690.432H160.137V558.375Z" fill="white"/>
<path fill-rule="evenodd" clip-rule="evenodd" d="M422.665 559.942H685.196V692H422.665V559.942Z" fill="white"/>
<path fill-rule="evenodd" clip-rule="evenodd" d="M685.195 559.942H947.726V692H685.195V559.942Z" fill="white"/>
<path d="M159 426.122H948" stroke="#01549E" stroke-width="1.70474" stroke-miterlimit="10" stroke-linejoin="round"/>
<path d="M159 558.343H948" stroke="#01549E" stroke-width="1.70474" stroke-miterlimit="10" stroke-linejoin="round"/>
<path d="M159 690.564H948" stroke="#01549E" stroke-width="1.70474" stroke-miterlimit="10" stroke-linejoin="round"/>
<path d="M422.79 293.957V690.619" stroke="#01549E" stroke-width="1.70474" stroke-miterlimit="10" stroke-linejoin="round"/>
<path d="M685.346 293.957V690.619" stroke="#01549E" stroke-width="1.70474" stroke-miterlimit="10" stroke-linejoin="round"/>
<path d="M947.901 293.957V690.619" stroke="#01549E" stroke-width="1.70474" stroke-miterlimit="10" stroke-linejoin="round"/>
<path d="M160.233 293.957V690.619" stroke="#01549E" stroke-width="1.70474" stroke-miterlimit="10" stroke-linejoin="round"/>
<path d="M159 295.534H948" stroke="#01549E" stroke-width="1.70474" stroke-miterlimit="10" stroke-linejoin="round"/>
<path d="M275.291 272V258.909H277.663V270.012H283.428V272H275.291ZM289.667 272.192C288.708 272.192 287.877 271.981 287.174 271.559C286.471 271.137 285.925 270.547 285.538 269.788C285.154 269.03 284.962 268.143 284.962 267.129C284.962 266.115 285.154 265.227 285.538 264.464C285.925 263.701 286.471 263.109 287.174 262.687C287.877 262.265 288.708 262.054 289.667 262.054C290.626 262.054 291.457 262.265 292.16 262.687C292.863 263.109 293.406 263.701 293.79 264.464C294.178 265.227 294.371 266.115 294.371 267.129C294.371 268.143 294.178 269.03 293.79 269.788C293.406 270.547 292.863 271.137 292.16 271.559C291.457 271.981 290.626 272.192 289.667 272.192ZM289.68 270.338C290.2 270.338 290.634 270.195 290.984 269.91C291.333 269.62 291.593 269.232 291.763 268.746C291.938 268.261 292.026 267.719 292.026 267.123C292.026 266.522 291.938 265.979 291.763 265.493C291.593 265.003 291.333 264.613 290.984 264.323C290.634 264.033 290.2 263.888 289.68 263.888C289.147 263.888 288.704 264.033 288.35 264.323C288.001 264.613 287.739 265.003 287.564 265.493C287.393 265.979 287.308 266.522 287.308 267.123C287.308 267.719 287.393 268.261 287.564 268.746C287.739 269.232 288.001 269.62 288.35 269.91C288.704 270.195 289.147 270.338 289.68 270.338ZM298.08 272L295.306 262.182H297.665L299.391 269.085H299.48L301.244 262.182H303.578L305.342 269.047H305.438L307.138 262.182H309.503L306.722 272H304.313L302.472 265.365H302.338L300.497 272H298.08Z" fill="black"/>
<path d="M104.914 633.114V620.023H107.286V625.565H113.352V620.023H115.73V633.114H113.352V627.553H107.286V633.114H104.914ZM118.206 633.114V623.296H120.52V633.114H118.206ZM119.37 621.902C119.003 621.902 118.688 621.781 118.424 621.538C118.16 621.291 118.028 620.994 118.028 620.649C118.028 620.3 118.16 620.004 118.424 619.761C118.688 619.514 119.003 619.39 119.37 619.39C119.741 619.39 120.056 619.514 120.316 619.761C120.58 620.004 120.712 620.3 120.712 620.649C120.712 620.994 120.58 621.291 120.316 621.538C120.056 621.781 119.741 621.902 119.37 621.902ZM127.17 637C126.339 637 125.625 636.887 125.028 636.661C124.432 636.44 123.952 636.141 123.59 635.766C123.228 635.391 122.977 634.976 122.836 634.52L124.92 634.015C125.013 634.207 125.15 634.396 125.329 634.584C125.508 634.776 125.749 634.933 126.051 635.057C126.358 635.185 126.744 635.249 127.208 635.249C127.864 635.249 128.408 635.089 128.838 634.769C129.268 634.454 129.484 633.934 129.484 633.21V631.35H129.369C129.249 631.588 129.075 631.833 128.844 632.085C128.619 632.336 128.318 632.547 127.943 632.717C127.572 632.888 127.106 632.973 126.543 632.973C125.789 632.973 125.105 632.796 124.491 632.443C123.882 632.085 123.396 631.552 123.034 630.845C122.676 630.133 122.497 629.242 122.497 628.173C122.497 627.095 122.676 626.185 123.034 625.443C123.396 624.698 123.884 624.133 124.498 623.749C125.112 623.362 125.795 623.168 126.55 623.168C127.125 623.168 127.598 623.266 127.969 623.462C128.344 623.654 128.642 623.886 128.864 624.159C129.085 624.427 129.254 624.681 129.369 624.919H129.496V623.296H131.778V633.274C131.778 634.113 131.578 634.808 131.178 635.357C130.777 635.907 130.229 636.318 129.535 636.591C128.84 636.864 128.052 637 127.17 637ZM127.189 631.158C127.679 631.158 128.097 631.038 128.442 630.8C128.787 630.561 129.049 630.218 129.228 629.771C129.407 629.323 129.496 628.786 129.496 628.16C129.496 627.542 129.407 627.001 129.228 626.536C129.053 626.072 128.793 625.712 128.448 625.456C128.107 625.196 127.688 625.066 127.189 625.066C126.673 625.066 126.243 625.2 125.898 625.469C125.553 625.737 125.293 626.106 125.118 626.575C124.943 627.039 124.856 627.568 124.856 628.16C124.856 628.761 124.943 629.287 125.118 629.739C125.297 630.186 125.559 630.536 125.904 630.787C126.254 631.034 126.682 631.158 127.189 631.158ZM136.464 627.361V633.114H134.15V620.023H136.413V624.964H136.528C136.758 624.41 137.114 623.973 137.595 623.654C138.081 623.33 138.699 623.168 139.449 623.168C140.131 623.168 140.725 623.311 141.232 623.596C141.739 623.882 142.131 624.299 142.408 624.849C142.69 625.399 142.83 626.07 142.83 626.862V633.114H140.516V627.22C140.516 626.56 140.346 626.046 140.005 625.68C139.668 625.309 139.195 625.124 138.586 625.124C138.177 625.124 137.81 625.213 137.487 625.392C137.167 625.567 136.915 625.82 136.732 626.153C136.553 626.485 136.464 626.888 136.464 627.361Z" fill="black"/>
<path d="M75.1721 485.023H78.074L81.9604 494.509H82.1138L86.0002 485.023H88.9022V498.114H86.6266V489.12H86.5051L82.8873 498.075H81.187L77.5691 489.101H77.4476V498.114H75.1721V485.023ZM95.7289 498.306C94.7445 498.306 93.8944 498.101 93.1784 497.692C92.4668 497.279 91.9192 496.695 91.5357 495.94C91.1522 495.182 90.9604 494.289 90.9604 493.262C90.9604 492.252 91.1522 491.366 91.5357 490.603C91.9235 489.836 92.4647 489.239 93.1593 488.813C93.8539 488.383 94.6699 488.168 95.6074 488.168C96.2125 488.168 96.7836 488.266 97.3205 488.462C97.8617 488.654 98.339 488.952 98.7523 489.357C99.1699 489.761 99.498 490.277 99.7367 490.904C99.9753 491.526 100.095 492.267 100.095 493.128V493.837H92.0471V492.278H97.8766C97.8723 491.835 97.7765 491.44 97.589 491.095C97.4015 490.746 97.1394 490.471 96.8027 490.271C96.4703 490.07 96.0826 489.97 95.6394 489.97C95.1664 489.97 94.7509 490.085 94.3929 490.315C94.035 490.541 93.7559 490.84 93.5556 491.21C93.3596 491.577 93.2594 491.98 93.2551 492.418V493.78C93.2551 494.351 93.3596 494.841 93.5684 495.25C93.7772 495.655 94.0691 495.966 94.4441 496.183C94.8191 496.396 95.258 496.503 95.7608 496.503C96.0975 496.503 96.4022 496.456 96.6749 496.362C96.9476 496.264 97.1841 496.122 97.3844 495.934C97.5847 495.747 97.736 495.514 97.8382 495.237L99.9988 495.48C99.8624 496.051 99.6025 496.55 99.2189 496.976C98.8397 497.398 98.3539 497.726 97.7615 497.96C97.1692 498.19 96.4917 498.306 95.7289 498.306ZM105.696 498.286C104.924 498.286 104.234 498.088 103.625 497.692C103.015 497.296 102.534 496.72 102.18 495.966C101.826 495.212 101.65 494.296 101.65 493.217C101.65 492.127 101.828 491.206 102.186 490.456C102.549 489.702 103.037 489.133 103.65 488.749C104.264 488.362 104.948 488.168 105.702 488.168C106.277 488.168 106.75 488.266 107.121 488.462C107.492 488.654 107.786 488.886 108.003 489.159C108.221 489.427 108.389 489.681 108.508 489.919H108.604V485.023H110.924V498.114H108.649V496.567H108.508C108.389 496.806 108.216 497.059 107.99 497.328C107.765 497.592 107.466 497.818 107.096 498.005C106.725 498.193 106.258 498.286 105.696 498.286ZM106.341 496.388C106.831 496.388 107.249 496.256 107.594 495.992C107.939 495.723 108.201 495.35 108.38 494.873C108.559 494.396 108.649 493.84 108.649 493.205C108.649 492.57 108.559 492.018 108.38 491.549C108.206 491.08 107.946 490.716 107.6 490.456C107.26 490.196 106.84 490.066 106.341 490.066C105.826 490.066 105.395 490.2 105.05 490.469C104.705 490.737 104.445 491.108 104.27 491.581C104.096 492.054 104.008 492.595 104.008 493.205C104.008 493.818 104.096 494.366 104.27 494.847C104.449 495.325 104.711 495.702 105.056 495.979C105.406 496.252 105.834 496.388 106.341 496.388ZM113.39 498.114V488.296H115.704V498.114H113.39ZM114.553 486.902C114.187 486.902 113.872 486.781 113.607 486.538C113.343 486.291 113.211 485.994 113.211 485.649C113.211 485.3 113.343 485.004 113.607 484.761C113.872 484.514 114.187 484.39 114.553 484.39C114.924 484.39 115.24 484.514 115.499 484.761C115.764 485.004 115.896 485.3 115.896 485.649C115.896 485.994 115.764 486.291 115.499 486.538C115.24 486.781 114.924 486.902 114.553 486.902ZM124.341 493.985V488.296H126.655V498.114H124.412V496.369H124.309C124.088 496.918 123.723 497.368 123.216 497.717C122.713 498.067 122.093 498.242 121.356 498.242C120.713 498.242 120.144 498.099 119.65 497.813C119.159 497.524 118.776 497.104 118.499 496.554C118.222 496 118.083 495.331 118.083 494.547V488.296H120.397V494.189C120.397 494.811 120.568 495.306 120.909 495.672C121.25 496.038 121.697 496.222 122.251 496.222C122.592 496.222 122.922 496.139 123.242 495.972C123.561 495.806 123.824 495.559 124.028 495.231C124.237 494.899 124.341 494.483 124.341 493.985ZM129.035 498.114V488.296H131.246V489.964H131.361C131.566 489.401 131.905 488.962 132.378 488.647C132.851 488.328 133.415 488.168 134.072 488.168C134.736 488.168 135.297 488.33 135.753 488.654C136.213 488.973 136.537 489.41 136.724 489.964H136.827C137.044 489.418 137.41 488.984 137.926 488.66C138.446 488.332 139.062 488.168 139.773 488.168C140.677 488.168 141.414 488.453 141.985 489.024C142.556 489.595 142.841 490.428 142.841 491.524V498.114H140.521V491.882C140.521 491.272 140.359 490.827 140.035 490.546C139.711 490.26 139.315 490.117 138.846 490.117C138.288 490.117 137.851 490.292 137.536 490.641C137.225 490.987 137.069 491.436 137.069 491.99V498.114H134.8V491.786C134.8 491.279 134.647 490.874 134.34 490.571C134.037 490.269 133.641 490.117 133.151 490.117C132.819 490.117 132.516 490.203 132.243 490.373C131.971 490.539 131.753 490.776 131.591 491.083C131.43 491.385 131.349 491.739 131.349 492.144V498.114H129.035Z" fill="black"/>
<path d="M109.362 362.114V349.023H111.733V360.126H117.499V362.114H109.362ZM123.737 362.306C122.778 362.306 121.947 362.095 121.244 361.673C120.541 361.251 119.996 360.661 119.608 359.902C119.224 359.144 119.033 358.257 119.033 357.243C119.033 356.229 119.224 355.34 119.608 354.578C119.996 353.815 120.541 353.222 121.244 352.801C121.947 352.379 122.778 352.168 123.737 352.168C124.696 352.168 125.527 352.379 126.23 352.801C126.933 353.222 127.477 353.815 127.86 354.578C128.248 355.34 128.442 356.229 128.442 357.243C128.442 358.257 128.248 359.144 127.86 359.902C127.477 360.661 126.933 361.251 126.23 361.673C125.527 362.095 124.696 362.306 123.737 362.306ZM123.75 360.452C124.27 360.452 124.705 360.309 125.054 360.024C125.403 359.734 125.663 359.346 125.834 358.86C126.009 358.374 126.096 357.833 126.096 357.237C126.096 356.636 126.009 356.092 125.834 355.607C125.663 355.117 125.403 354.727 125.054 354.437C124.705 354.147 124.27 354.002 123.75 354.002C123.217 354.002 122.774 354.147 122.42 354.437C122.071 354.727 121.809 355.117 121.634 355.607C121.464 356.092 121.379 356.636 121.379 357.237C121.379 357.833 121.464 358.374 121.634 358.86C121.809 359.346 122.071 359.734 122.42 360.024C122.774 360.309 123.217 360.452 123.75 360.452ZM132.151 362.114L129.377 352.296H131.735L133.461 359.199H133.551L135.315 352.296H137.648L139.412 359.161H139.508L141.208 352.296H143.573L140.793 362.114H138.383L136.542 355.479H136.408L134.567 362.114H132.151Z" fill="black"/>
<path d="M519.732 258.909H522.634L526.52 268.395H526.673L530.56 258.909H533.462V272H531.186V263.006H531.065L527.447 271.962H525.747L522.129 262.987H522.007V272H519.732V258.909ZM540.288 272.192C539.304 272.192 538.454 271.987 537.738 271.578C537.026 271.165 536.479 270.581 536.095 269.827C535.712 269.068 535.52 268.175 535.52 267.148C535.52 266.138 535.712 265.252 536.095 264.489C536.483 263.722 537.024 263.126 537.719 262.7C538.413 262.269 539.229 262.054 540.167 262.054C540.772 262.054 541.343 262.152 541.88 262.348C542.421 262.54 542.899 262.838 543.312 263.243C543.729 263.648 544.058 264.163 544.296 264.79C544.535 265.412 544.654 266.153 544.654 267.014V267.724H536.607V266.164H542.436C542.432 265.721 542.336 265.327 542.149 264.982C541.961 264.632 541.699 264.357 541.362 264.157C541.03 263.957 540.642 263.857 540.199 263.857C539.726 263.857 539.31 263.972 538.953 264.202C538.595 264.428 538.315 264.726 538.115 265.097C537.919 265.463 537.819 265.866 537.815 266.305V267.666C537.815 268.237 537.919 268.727 538.128 269.136C538.337 269.541 538.629 269.852 539.004 270.07C539.379 270.283 539.818 270.389 540.32 270.389C540.657 270.389 540.962 270.342 541.234 270.249C541.507 270.151 541.744 270.008 541.944 269.82C542.144 269.633 542.296 269.401 542.398 269.124L544.558 269.366C544.422 269.937 544.162 270.436 543.778 270.862C543.399 271.284 542.913 271.612 542.321 271.847C541.729 272.077 541.051 272.192 540.288 272.192ZM550.255 272.173C549.484 272.173 548.794 271.974 548.184 271.578C547.575 271.182 547.093 270.607 546.74 269.852C546.386 269.098 546.209 268.182 546.209 267.104C546.209 266.013 546.388 265.092 546.746 264.342C547.108 263.588 547.596 263.019 548.21 262.636C548.823 262.248 549.507 262.054 550.262 262.054C550.837 262.054 551.31 262.152 551.681 262.348C552.051 262.54 552.345 262.772 552.563 263.045C552.78 263.313 552.948 263.567 553.068 263.805H553.164V258.909H555.484V272H553.208V270.453H553.068C552.948 270.692 552.776 270.945 552.55 271.214C552.324 271.478 552.026 271.704 551.655 271.891C551.284 272.079 550.818 272.173 550.255 272.173ZM550.901 270.274C551.391 270.274 551.809 270.142 552.154 269.878C552.499 269.609 552.761 269.237 552.94 268.759C553.119 268.282 553.208 267.726 553.208 267.091C553.208 266.456 553.119 265.904 552.94 265.435C552.765 264.967 552.505 264.602 552.16 264.342C551.819 264.082 551.399 263.952 550.901 263.952C550.385 263.952 549.955 264.087 549.61 264.355C549.264 264.624 549.005 264.994 548.83 265.467C548.655 265.94 548.568 266.482 548.568 267.091C548.568 267.705 548.655 268.252 548.83 268.734C549.009 269.211 549.271 269.588 549.616 269.865C549.965 270.138 550.394 270.274 550.901 270.274ZM557.95 272V262.182H560.264V272H557.95ZM559.113 260.788C558.747 260.788 558.431 260.667 558.167 260.424C557.903 260.177 557.771 259.881 557.771 259.536C557.771 259.186 557.903 258.89 558.167 258.647C558.431 258.4 558.747 258.276 559.113 258.276C559.484 258.276 559.799 258.4 560.059 258.647C560.323 258.89 560.455 259.186 560.455 259.536C560.455 259.881 560.323 260.177 560.059 260.424C559.799 260.667 559.484 260.788 559.113 260.788ZM568.901 267.871V262.182H571.215V272H568.971V270.255H568.869C568.647 270.805 568.283 271.254 567.776 271.604C567.273 271.953 566.653 272.128 565.916 272.128C565.272 272.128 564.703 271.985 564.209 271.7C563.719 271.41 563.335 270.99 563.059 270.44C562.782 269.886 562.643 269.217 562.643 268.433V262.182H564.957V268.075C564.957 268.697 565.127 269.192 565.468 269.558C565.809 269.925 566.257 270.108 566.811 270.108C567.152 270.108 567.482 270.025 567.801 269.859C568.121 269.692 568.383 269.445 568.588 269.117C568.796 268.785 568.901 268.369 568.901 267.871ZM573.594 272V262.182H575.806V263.85H575.921C576.125 263.288 576.464 262.849 576.937 262.533C577.41 262.214 577.975 262.054 578.631 262.054C579.296 262.054 579.856 262.216 580.312 262.54C580.772 262.859 581.096 263.296 581.284 263.85H581.386C581.603 263.305 581.97 262.87 582.486 262.546C583.005 262.218 583.621 262.054 584.333 262.054C585.236 262.054 585.973 262.339 586.544 262.911C587.116 263.482 587.401 264.315 587.401 265.41V272H585.081V265.768C585.081 265.158 584.919 264.713 584.595 264.432C584.271 264.146 583.875 264.004 583.406 264.004C582.848 264.004 582.411 264.178 582.096 264.528C581.785 264.873 581.629 265.322 581.629 265.876V272H579.36V265.672C579.36 265.165 579.206 264.76 578.9 264.457C578.597 264.155 578.201 264.004 577.711 264.004C577.378 264.004 577.076 264.089 576.803 264.259C576.53 264.425 576.313 264.662 576.151 264.969C575.989 265.271 575.908 265.625 575.908 266.03V272H573.594Z" fill="black"/>
<path d="M793.103 272V258.909H795.474V264.451H801.54V258.909H803.918V272H801.54V266.439H795.474V272H793.103ZM806.395 272V262.182H808.709V272H806.395ZM807.558 260.788C807.192 260.788 806.877 260.667 806.612 260.424C806.348 260.177 806.216 259.881 806.216 259.536C806.216 259.186 806.348 258.89 806.612 258.647C806.877 258.4 807.192 258.276 807.558 258.276C807.929 258.276 808.244 258.4 808.504 258.647C808.769 258.89 808.901 259.186 808.901 259.536C808.901 259.881 808.769 260.177 808.504 260.424C808.244 260.667 807.929 260.788 807.558 260.788ZM815.358 275.886C814.527 275.886 813.813 275.773 813.217 275.548C812.62 275.326 812.141 275.028 811.779 274.653C811.416 274.278 811.165 273.862 811.024 273.406L813.108 272.901C813.202 273.093 813.338 273.283 813.517 273.47C813.696 273.662 813.937 273.82 814.24 273.943C814.546 274.071 814.932 274.135 815.397 274.135C816.053 274.135 816.596 273.975 817.027 273.656C817.457 273.34 817.672 272.82 817.672 272.096V270.236H817.557C817.438 270.474 817.263 270.719 817.033 270.971C816.807 271.222 816.507 271.433 816.132 271.604C815.761 271.774 815.294 271.859 814.732 271.859C813.978 271.859 813.294 271.683 812.68 271.329C812.071 270.971 811.585 270.438 811.223 269.731C810.865 269.019 810.686 268.129 810.686 267.059C810.686 265.981 810.865 265.071 811.223 264.33C811.585 263.584 812.073 263.019 812.686 262.636C813.3 262.248 813.984 262.054 814.738 262.054C815.313 262.054 815.786 262.152 816.157 262.348C816.532 262.54 816.831 262.772 817.052 263.045C817.274 263.313 817.442 263.567 817.557 263.805H817.685V262.182H819.967V272.16C819.967 272.999 819.767 273.694 819.366 274.244C818.965 274.793 818.418 275.205 817.723 275.477C817.029 275.75 816.24 275.886 815.358 275.886ZM815.377 270.044C815.867 270.044 816.285 269.925 816.63 269.686C816.975 269.447 817.237 269.104 817.416 268.657C817.595 268.21 817.685 267.673 817.685 267.046C817.685 266.428 817.595 265.887 817.416 265.423C817.242 264.958 816.982 264.598 816.637 264.342C816.296 264.082 815.876 263.952 815.377 263.952C814.862 263.952 814.431 264.087 814.086 264.355C813.741 264.624 813.481 264.992 813.306 265.461C813.132 265.925 813.044 266.454 813.044 267.046C813.044 267.647 813.132 268.173 813.306 268.625C813.485 269.072 813.747 269.422 814.093 269.673C814.442 269.92 814.87 270.044 815.377 270.044ZM824.652 266.247V272H822.338V258.909H824.601V263.85H824.716C824.946 263.296 825.302 262.859 825.784 262.54C826.269 262.216 826.887 262.054 827.637 262.054C828.319 262.054 828.914 262.197 829.421 262.482C829.928 262.768 830.32 263.185 830.597 263.735C830.878 264.285 831.019 264.956 831.019 265.749V272H828.705V266.107C828.705 265.446 828.534 264.933 828.193 264.566C827.857 264.195 827.384 264.01 826.774 264.01C826.365 264.01 825.999 264.099 825.675 264.278C825.355 264.453 825.104 264.707 824.921 265.039C824.742 265.371 824.652 265.774 824.652 266.247Z" fill="black"/>
<path d="M38 601.23H17.6364V593.196C17.6364 591.658 17.9115 590.345 18.4616 589.258C19.0052 588.164 19.7775 587.332 20.7784 586.762C21.7727 586.186 22.9427 585.897 24.2884 585.897C25.6406 585.897 26.804 586.189 27.7784 586.772C28.7462 587.356 29.4886 588.201 30.0057 589.308C30.5227 590.408 30.7812 591.741 30.7812 593.305V598.684H27.321V594.001C27.321 593.179 27.2083 592.496 26.983 591.953C26.7576 591.409 26.4195 591.005 25.9688 590.74C25.518 590.468 24.9579 590.332 24.2884 590.332C23.6122 590.332 23.0421 590.468 22.5781 590.74C22.1141 591.005 21.7628 591.412 21.5241 591.963C21.2789 592.506 21.1562 593.192 21.1562 594.021V596.924H38V601.23ZM28.733 590.232L38 585.171V589.924L28.733 594.876V590.232ZM38 582.934H22.7273V578.698H38V582.934ZM20.7585 580.806C20.7585 581.436 20.5497 581.976 20.1321 582.427C19.7079 582.871 19.2008 583.093 18.6108 583.093C18.0275 583.093 17.527 582.871 17.1094 582.427C16.6851 581.976 16.473 581.436 16.473 580.806C16.473 580.177 16.6851 579.64 17.1094 579.196C17.527 578.745 18.0275 578.519 18.6108 578.519C19.2008 578.519 19.7079 578.745 20.1321 579.196C20.5497 579.64 20.7585 580.177 20.7585 580.806ZM27.0824 562.598L27.321 566.476C26.9896 566.542 26.6913 566.685 26.4261 566.903C26.1544 567.122 25.9389 567.41 25.7798 567.768C25.6141 568.12 25.5312 568.541 25.5312 569.031C25.5312 569.687 25.6705 570.241 25.9489 570.692C26.2206 571.142 26.5852 571.368 27.0426 571.368C27.4072 571.368 27.7154 571.222 27.9673 570.93C28.2192 570.639 28.4214 570.138 28.5739 569.429L29.1307 566.665C29.4356 565.18 29.9261 564.073 30.6023 563.344C31.2784 562.614 32.1667 562.25 33.267 562.25C34.268 562.25 35.1463 562.545 35.902 563.135C36.6577 563.718 37.2476 564.52 37.6719 565.541C38.0895 566.555 38.2983 567.725 38.2983 569.051C38.2983 571.073 37.8774 572.684 37.0355 573.883C36.187 575.077 35.0336 575.776 33.5753 575.981L33.3565 571.815C33.973 571.689 34.4437 571.384 34.7685 570.9C35.0866 570.417 35.2457 569.797 35.2457 569.041C35.2457 568.299 35.1032 567.702 34.8182 567.251C34.5265 566.794 34.152 566.562 33.6946 566.555C33.3101 566.562 32.9953 566.724 32.75 567.042C32.4981 567.361 32.3059 567.851 32.1733 568.514L31.6463 571.159C31.348 572.65 30.831 573.761 30.0952 574.49C29.3594 575.212 28.4214 575.574 27.2812 575.574C26.3002 575.574 25.455 575.309 24.7457 574.778C24.0365 574.241 23.4896 573.489 23.1051 572.521C22.7206 571.547 22.5284 570.407 22.5284 569.101C22.5284 567.172 22.9361 565.654 23.7514 564.547C24.5668 563.433 25.6771 562.783 27.0824 562.598ZM33.6051 555.745L28.5241 555.735V555.118L22.7273 550.226V545.364L30.4034 551.936V552.941L33.6051 555.745ZM38 559.583H17.6364V555.347H38V559.583ZM38 550.037L31.348 554.531L28.3551 551.708L38 545.076V550.037ZM43.7273 536.805H22.7273V532.629H25.2926V532.44C24.8816 532.255 24.464 531.986 24.0398 531.635C23.6089 531.277 23.2509 530.813 22.9659 530.243C22.6742 529.666 22.5284 528.95 22.5284 528.095C22.5284 526.981 22.8201 525.954 23.4034 525.013C23.9801 524.071 24.8518 523.319 26.0185 522.756C27.1785 522.192 28.6335 521.91 30.3835 521.91C32.0871 521.91 33.5256 522.185 34.6989 522.736C35.8655 523.279 36.7505 524.022 37.3537 524.963C37.9503 525.898 38.2486 526.945 38.2486 528.105C38.2486 528.927 38.1127 529.626 37.8409 530.203C37.5691 530.773 37.2277 531.24 36.8168 531.605C36.3991 531.97 35.9782 532.248 35.554 532.44V532.569H43.7273V536.805ZM30.3636 532.659C31.2718 532.659 32.0639 532.533 32.7401 532.281C33.4162 532.029 33.9432 531.665 34.321 531.187C34.6922 530.71 34.8778 530.13 34.8778 529.447C34.8778 528.758 34.6889 528.175 34.3111 527.697C33.9266 527.22 33.3963 526.859 32.7202 526.614C32.0374 526.362 31.2519 526.236 30.3636 526.236C29.482 526.236 28.7064 526.358 28.0369 526.604C27.3674 526.849 26.8437 527.21 26.4659 527.687C26.0881 528.165 25.8991 528.751 25.8991 529.447C25.8991 530.137 26.0814 530.72 26.446 531.197C26.8106 531.668 27.3277 532.029 27.9972 532.281C28.6667 532.533 29.4555 532.659 30.3636 532.659ZM38 519.087H22.7273V514.98H25.392V514.821C24.4441 514.542 23.7282 514.075 23.2443 513.419C22.7538 512.763 22.5085 512.007 22.5085 511.152C22.5085 510.94 22.5218 510.711 22.5483 510.466C22.5748 510.221 22.6113 510.005 22.6577 509.819H26.4162C26.3565 510.018 26.3035 510.293 26.2571 510.645C26.2107 510.996 26.1875 511.318 26.1875 511.609C26.1875 512.232 26.3234 512.789 26.5952 513.28C26.8603 513.764 27.2315 514.148 27.7088 514.433C28.1861 514.712 28.7363 514.851 29.3594 514.851H38V519.087ZM38.2983 501.44C38.2983 502.984 37.9702 504.32 37.3139 505.447C36.651 506.567 35.7296 507.432 34.5497 508.042C33.3632 508.652 31.9877 508.957 30.4233 508.957C28.8456 508.957 27.4669 508.652 26.2869 508.042C25.1004 507.432 24.179 506.567 23.5227 505.447C22.8598 504.32 22.5284 502.984 22.5284 501.44C22.5284 499.895 22.8598 498.563 23.5227 497.443C24.179 496.316 25.1004 495.447 26.2869 494.838C27.4669 494.228 28.8456 493.923 30.4233 493.923C31.9877 493.923 33.3632 494.228 34.5497 494.838C35.7296 495.447 36.651 496.316 37.3139 497.443C37.9702 498.563 38.2983 499.895 38.2983 501.44ZM35.017 501.42C35.017 500.717 34.8182 500.131 34.4205 499.66C34.0161 499.189 33.4659 498.835 32.7699 498.596C32.0739 498.351 31.2817 498.228 30.3935 498.228C29.5052 498.228 28.7131 498.351 28.017 498.596C27.321 498.835 26.7708 499.189 26.3665 499.66C25.9621 500.131 25.7599 500.717 25.7599 501.42C25.7599 502.129 25.9621 502.726 26.3665 503.21C26.7708 503.687 27.321 504.048 28.017 504.294C28.7131 504.532 29.5052 504.652 30.3935 504.652C31.2817 504.652 32.0739 504.532 32.7699 504.294C33.4659 504.048 34.0161 503.687 34.4205 503.21C34.8182 502.726 35.017 502.129 35.017 501.42ZM38 491.089H17.6364V486.853H25.2926V486.724C24.8816 486.538 24.464 486.27 24.0398 485.919C23.6089 485.561 23.2509 485.097 22.9659 484.526C22.6742 483.95 22.5284 483.234 22.5284 482.379C22.5284 481.265 22.8201 480.238 23.4034 479.296C23.9801 478.355 24.8518 477.603 26.0185 477.039C27.1785 476.476 28.6335 476.194 30.3835 476.194C32.0871 476.194 33.5256 476.469 34.6989 477.019C35.8655 477.563 36.7505 478.305 37.3537 479.247C37.9503 480.181 38.2486 481.229 38.2486 482.389C38.2486 483.211 38.1127 483.91 37.8409 484.487C37.5691 485.057 37.2277 485.524 36.8168 485.889C36.3991 486.253 35.9782 486.532 35.554 486.724V486.913H38V491.089ZM30.3636 486.943C31.2718 486.943 32.0639 486.817 32.7401 486.565C33.4162 486.313 33.9432 485.948 34.321 485.471C34.6922 484.994 34.8778 484.414 34.8778 483.731C34.8778 483.042 34.6889 482.458 34.3111 481.981C33.9266 481.504 33.3963 481.143 32.7202 480.897C32.0374 480.645 31.2519 480.519 30.3636 480.519C29.482 480.519 28.7064 480.642 28.0369 480.887C27.3674 481.133 26.8437 481.494 26.4659 481.971C26.0881 482.448 25.8991 483.035 25.8991 483.731C25.8991 484.42 26.0814 485.004 26.446 485.481C26.8106 485.952 27.3277 486.313 27.9972 486.565C28.6667 486.817 29.4555 486.943 30.3636 486.943ZM38.2884 469.013C38.2884 469.987 38.1193 470.855 37.7812 471.618C37.4366 472.38 36.9295 472.983 36.2599 473.427C35.5838 473.865 34.742 474.084 33.7344 474.084C32.8859 474.084 32.1733 473.928 31.5966 473.616C31.0199 473.305 30.5559 472.881 30.2045 472.344C29.8532 471.807 29.5881 471.197 29.4091 470.514C29.2301 469.825 29.1042 469.102 29.0312 468.346C28.9384 467.458 28.8523 466.742 28.7727 466.199C28.6866 465.655 28.5606 465.261 28.3949 465.015C28.2292 464.77 27.9839 464.648 27.6591 464.648H27.5994C26.9697 464.648 26.4825 464.846 26.1378 465.244C25.7931 465.635 25.6207 466.192 25.6207 466.915C25.6207 467.677 25.7898 468.283 26.1278 468.734C26.4593 469.185 26.8769 469.483 27.3807 469.629L27.0625 473.547C26.1345 473.348 25.3324 472.957 24.6562 472.373C23.9735 471.79 23.4498 471.038 23.0852 470.116C22.714 469.188 22.5284 468.114 22.5284 466.895C22.5284 466.046 22.6278 465.234 22.8267 464.459C23.0256 463.676 23.3338 462.984 23.7514 462.381C24.169 461.771 24.706 461.29 25.3622 460.939C26.0118 460.587 26.7907 460.412 27.6989 460.412H38V464.429H35.8821V464.548C36.3594 464.793 36.7803 465.122 37.1449 465.533C37.5028 465.944 37.7846 466.437 37.9901 467.014C38.1889 467.591 38.2884 468.257 38.2884 469.013ZM35.3651 467.8C35.3651 467.176 35.2424 466.626 34.9972 466.149C34.7453 465.672 34.4072 465.297 33.983 465.025C33.5587 464.754 33.0781 464.618 32.5412 464.618H30.9205C31.0066 464.75 31.0862 464.933 31.1591 465.165C31.2254 465.39 31.2884 465.645 31.348 465.93C31.401 466.215 31.4508 466.5 31.4972 466.785C31.5369 467.07 31.5734 467.329 31.6065 467.561C31.6795 468.058 31.7955 468.492 31.9545 468.864C32.1136 469.235 32.3291 469.523 32.6009 469.729C32.866 469.934 33.1974 470.037 33.5952 470.037C34.1719 470.037 34.6127 469.828 34.9176 469.41C35.2159 468.986 35.3651 468.449 35.3651 467.8ZM38 457.046H17.6364V452.81H25.2926V452.681C24.8816 452.495 24.464 452.227 24.0398 451.876C23.6089 451.518 23.2509 451.054 22.9659 450.484C22.6742 449.907 22.5284 449.191 22.5284 448.336C22.5284 447.222 22.8201 446.195 23.4034 445.253C23.9801 444.312 24.8518 443.56 26.0185 442.996C27.1785 442.433 28.6335 442.151 30.3835 442.151C32.0871 442.151 33.5256 442.426 34.6989 442.976C35.8655 443.52 36.7505 444.262 37.3537 445.204C37.9503 446.138 38.2486 447.186 38.2486 448.346C38.2486 449.168 38.1127 449.867 37.8409 450.444C37.5691 451.014 37.2277 451.481 36.8168 451.846C36.3991 452.21 35.9782 452.489 35.554 452.681V452.87H38V457.046ZM30.3636 452.9C31.2718 452.9 32.0639 452.774 32.7401 452.522C33.4162 452.27 33.9432 451.905 34.321 451.428C34.6922 450.951 34.8778 450.371 34.8778 449.688C34.8778 448.999 34.6889 448.415 34.3111 447.938C33.9266 447.461 33.3963 447.1 32.7202 446.854C32.0374 446.602 31.2519 446.476 30.3636 446.476C29.482 446.476 28.7064 446.599 28.0369 446.844C27.3674 447.09 26.8437 447.451 26.4659 447.928C26.0881 448.405 25.8991 448.992 25.8991 449.688C25.8991 450.377 26.0814 450.961 26.446 451.438C26.8106 451.909 27.3277 452.27 27.9972 452.522C28.6667 452.774 29.4555 452.9 30.3636 452.9ZM38 439.325H22.7273V435.089H38V439.325ZM20.7585 437.197C20.7585 437.827 20.5497 438.367 20.1321 438.818C19.7079 439.262 19.2008 439.484 18.6108 439.484C18.0275 439.484 17.527 439.262 17.1094 438.818C16.6851 438.367 16.473 437.827 16.473 437.197C16.473 436.567 16.6851 436.03 17.1094 435.586C17.527 435.135 18.0275 434.91 18.6108 434.91C19.2008 434.91 19.7079 435.135 20.1321 435.586C20.5497 436.03 20.7585 436.567 20.7585 437.197ZM17.6364 427.46H38V431.696H17.6364V427.46ZM38 424.067H22.7273V419.831H38V424.067ZM20.7585 421.939C20.7585 422.569 20.5497 423.109 20.1321 423.56C19.7079 424.004 19.2008 424.226 18.6108 424.226C18.0275 424.226 17.527 424.004 17.1094 423.56C16.6851 423.109 16.473 422.569 16.473 421.939C16.473 421.309 16.6851 420.772 17.1094 420.328C17.527 419.878 18.0275 419.652 18.6108 419.652C19.2008 419.652 19.7079 419.878 20.1321 420.328C20.5497 420.772 20.7585 421.309 20.7585 421.939ZM22.7273 408.314H25.9091V417.512H22.7273V408.314ZM19.0682 415.424V411.188H33.3068C33.6979 411.188 34.0028 411.128 34.2216 411.009C34.4337 410.89 34.5829 410.724 34.669 410.512C34.7552 410.293 34.7983 410.041 34.7983 409.756C34.7983 409.557 34.7817 409.359 34.7486 409.16C34.7088 408.961 34.679 408.808 34.6591 408.702L37.8111 408.036C37.8774 408.248 37.9536 408.547 38.0398 408.931C38.1326 409.315 38.1889 409.783 38.2088 410.333C38.2486 411.354 38.1127 412.249 37.8011 413.018C37.4896 413.78 37.0057 414.373 36.3494 414.797C35.6932 415.222 34.8646 415.431 33.8636 415.424H19.0682ZM43.7273 402.94C43.7273 403.477 43.6842 403.981 43.598 404.452C43.5185 404.916 43.4157 405.3 43.2898 405.605L40.1278 404.65C40.2803 404.153 40.3632 403.706 40.3764 403.308C40.3897 402.904 40.2969 402.556 40.098 402.264C39.8991 401.966 39.5611 401.724 39.0838 401.538L38.4375 401.29L22.7273 406.768V402.314L33.9432 399.152V398.993L22.7273 395.801V391.317L39.6506 397.253C40.4725 397.538 41.1884 397.926 41.7983 398.416C42.4148 398.9 42.8887 399.513 43.2202 400.256C43.5582 400.998 43.7273 401.893 43.7273 402.94Z" fill="#123D7B"/>
<path d="M28 698L39.547 678L16.453 678L28 698ZM28 624L26 624L26 680L28 680L30 680L30 624L28 624Z" fill="#123D7B"/>
<path d="M28 295L16.453 315L39.547 315L28 295ZM28 365L30 365L30 313L28 313L26 313L26 365L28 365Z" fill="#123D7B"/>
<mask id="path-33-outside-1_254_112" maskUnits="userSpaceOnUse" x="38" y="738" width="911" height="45" fill="black">
<rect fill="white" x="38" y="738" width="911" height="45"/>
<path d="M38 740H949V782.8H38V740Z"/>
</mask>
<path d="M38 740H949V782.8H38V740Z" fill="#CDEFFB"/>
<path d="M38 740V742H949V740V738H38V740Z" fill="#123D7B" mask="url(#path-33-outside-1_254_112)"/>
<rect x="38" y="825.6" width="911" height="42.8" fill="#CDEFFB"/>
<rect x="38" y="911.2" width="911" height="42.8" fill="#CDEFFB"/>
<rect x="38" y="996.8" width="911" height="42.8" fill="#CDEFFB"/>
<rect x="38" y="1082.4" width="911" height="42.8" fill="#CDEFFB"/>
<rect x="38" y="782.8" width="911" height="42.8" fill="white"/>
<rect x="38" y="868" width="911" height="42.8" fill="white"/>
<rect x="38" y="953.2" width="911" height="42.8" fill="white"/>
<rect x="38" y="1038.4" width="911" height="42.8" fill="white"/>
<mask id="path-43-outside-2_254_112" maskUnits="userSpaceOnUse" x="38" y="1123.6" width="911" height="46" fill="black">
<rect fill="white" x="38" y="1123.6" width="911" height="46"/>
<path d="M38 1123.6H949V1166.4H38V1123.6Z"/>
</mask>
<path d="M38 1123.6H949V1166.4H38V1123.6Z" fill="white"/>
<path d="M949 1166.4V1163.4H38V1166.4V1169.4H949V1166.4Z" fill="#123D7B" mask="url(#path-43-outside-2_254_112)"/>
<line x1="494" y1="740" x2="494" y2="1166.4" stroke="#123D7B" stroke-width="2"/>
<line x1="949" y1="740" x2="949" y2="1166.4" stroke="#123D7B" stroke-width="2"/>
<line x1="39" y1="740" x2="39" y2="1166.4" stroke="#123D7B" stroke-width="2"/>
</g>
<defs>
<filter id="filter0_d_254_112" x="56.7822" y="31.1938" width="880.778" height="120.541" filterUnits="userSpaceOnUse" color-interpolation-filters="sRGB">
<feFlood flood-opacity="0" result="BackgroundImageFix"/>
<feColorMatrix in="SourceAlpha" type="matrix" values="0 0 0 0 0 0 0 0 0 0 0 0 0 0 0 0 0 0 127 0" result="hardAlpha"/>
<feOffset dx="6.73941" dy="6.73941"/>
<feGaussianBlur stdDeviation="2.24647"/>
<feComposite in2="hardAlpha" operator="out"/>
<feColorMatrix type="matrix" values="0 0 0 0 0 0 0 0 0 0 0 0 0 0 0 0 0 0 0.4 0"/>
<feBlend mode="normal" in2="BackgroundImageFix" result="effect1_dropShadow_254_112"/>
<feBlend mode="normal" in="SourceGraphic" in2="effect1_dropShadow_254_112" result="shape"/>
</filter>
<linearGradient id="paint0_linear_254_112" x1="-329.5" y1="-255.757" x2="1156.03" y2="993.193" gradientUnits="userSpaceOnUse">
<stop stop-color="#DFF5FC"/>
<stop offset="0.630986" stop-color="white"/>
<stop offset="1" stop-color="#CDEFFB"/>
</linearGradient>
<linearGradient id="paint1_linear_254_112" x1="983" y1="92" x2="0" y2="92" gradientUnits="userSpaceOnUse">
<stop stop-color="#000E19"/>
<stop offset="1" stop-color="#00365F"/>
</linearGradient>
<clipPath id="clip0_254_112">
<rect width="983" height="1199" fill="white"/>
</clipPath>
<clipPath id="clip1_254_112">
<rect width="983" height="184" fill="white"/>
</clipPath>
</defs>
</svg>
