<svg width="2290" height="2515" xmlns="http://www.w3.org/2000/svg" xmlns:xlink="http://www.w3.org/1999/xlink" xml:space="preserve" overflow="hidden"><g transform="translate(-229 -632)"><rect x="231.5" y="634.5" width="2263" height="2510" stroke="#F2F2F2" stroke-width="4.58333" stroke-miterlimit="8" fill="#FFFFFF"/><text font-family="Roboto,Roboto_MSFontService,sans-serif" font-weight="400" font-size="64" transform="matrix(1 0 0 1 336.732 787)">Technavio’s database and industry</text><text font-family="Roboto,Roboto_MSFontService,sans-serif" font-weight="400" font-size="64" transform="matrix(1 0 0 1 1326.73 787)">-</text><text font-family="Roboto,Roboto_MSFontService,sans-serif" font-weight="400" font-size="64" transform="matrix(1 0 0 1 1344.49 787)">specific repositories having used for </text><text font-family="Roboto,Roboto_MSFontService,sans-serif" font-weight="400" font-size="64" transform="matrix(1 0 0 1 336.732 864)">defining the hypothesis for the study, which has been further fine</text><text font-family="Roboto,Roboto_MSFontService,sans-serif" font-weight="400" font-size="64" transform="matrix(1 0 0 1 2179.8 864)">-</text><text font-family="Roboto,Roboto_MSFontService,sans-serif" font-weight="400" font-size="64" transform="matrix(1 0 0 1 2197.57 864)">tuned </text><text font-family="Roboto,Roboto_MSFontService,sans-serif" font-weight="400" font-size="64" transform="matrix(1 0 0 1 336.732 941)">through primary research involving industry experts. The success of our </text><text font-family="Roboto,Roboto_MSFontService,sans-serif" font-weight="400" font-size="64" transform="matrix(1 0 0 1 336.732 1018)">approach lies in the fact that we take the viewpoint of all stakeholders </text><text font-family="Roboto,Roboto_MSFontService,sans-serif" font-weight="400" font-size="64" transform="matrix(1 0 0 1 336.732 1095)">into consideration while analysing an industry and objectively assess </text><text font-family="Roboto,Roboto_MSFontService,sans-serif" font-weight="400" font-size="64" transform="matrix(1 0 0 1 336.732 1172)">each outlook.</text><path d="M332.228 2043C1233.77 2043 1233.77 2043 1233.77 2043 1247.89 2043 1262 2035.84 1262 2028.68 1262 2026 1262 2026 1262 2026 304 2026 304 2026 304 2026 304 2028.68 304 2028.68 304 2028.68 304 2035.84 316.35 2043 332.228 2043Z" fill="#D9D9D9" fill-rule="evenodd"/><path d="M1233.77 1245C332.228 1245 332.228 1245 332.228 1245 316.35 1245 304 1248.6 304 1252.21 304 1381 304 1381 304 1381 1262 1381 1262 1381 1262 1381 1262 1252.21 1262 1252.21 1262 1252.21 1262 1248.6 1247.89 1245 1233.77 1245Z" fill="#07234B" fill-rule="evenodd"/><rect x="304" y="1375" width="958" height="16.0001" fill="#D9D9D9"/><text fill="#FFFFFF" font-family="Roboto,Roboto_MSFontService,sans-serif" font-weight="700" font-size="73" transform="matrix(1 0 0 1 548.854 1339)">Secondary Sources</text><text font-family="Arial,Arial_MSFontService,sans-serif" font-weight="400" font-size="55" transform="matrix(1 0 0 1 323.357 1468)">•</text><text font-family="Roboto,Roboto_MSFontService,sans-serif" font-weight="400" font-size="55" transform="matrix(1 0 0 1 390.503 1468)">Company financials</text><text font-family="Arial,Arial_MSFontService,sans-serif" font-weight="400" font-size="55" transform="matrix(1 0 0 1 323.357 1553)">•</text><text font-family="Roboto,Roboto_MSFontService,sans-serif" font-weight="400" font-size="55" transform="matrix(1 0 0 1 390.503 1553)">Analyst presentations</text><text font-family="Arial,Arial_MSFontService,sans-serif" font-weight="400" font-size="55" transform="matrix(1 0 0 1 323.357 1637)">•</text><text font-family="Roboto,Roboto_MSFontService,sans-serif" font-weight="400" font-size="55" transform="matrix(1 0 0 1 390.503 1637)">Equity research reports</text><text font-family="Arial,Arial_MSFontService,sans-serif" font-weight="400" font-size="55" transform="matrix(1 0 0 1 323.357 1721)">•</text><text font-family="Roboto,Roboto_MSFontService,sans-serif" font-weight="400" font-size="55" transform="matrix(1 0 0 1 390.503 1721)">Historical data</text><text font-family="Arial,Arial_MSFontService,sans-serif" font-weight="400" font-size="55" transform="matrix(1 0 0 1 323.357 1806)">•</text><text font-family="Roboto,Roboto_MSFontService,sans-serif" font-weight="400" font-size="55" transform="matrix(1 0 0 1 390.503 1806)">Technical journals</text><text font-family="Arial,Arial_MSFontService,sans-serif" font-weight="400" font-size="55" transform="matrix(1 0 0 1 323.357 1890)">•</text><text font-family="Roboto,Roboto_MSFontService,sans-serif" font-weight="400" font-size="55" transform="matrix(1 0 0 1 390.503 1890)">Press releases</text><text font-family="Arial,Arial_MSFontService,sans-serif" font-weight="400" font-size="55" transform="matrix(1 0 0 1 323.357 1974)">•</text><text font-family="Roboto,Roboto_MSFontService,sans-serif" font-weight="400" font-size="55" transform="matrix(1 0 0 1 390.503 1974)">Technavio repository</text><g><g><g><path d="M377.492 1279.9 442.234 1279.9 442.234 1272.84C442.234 1269.98 439.919 1267.67 437.063 1267.67L398.315 1267.67 384.106 1258.24C383.256 1257.69 382.275 1257.37 381.263 1257.33L356.983 1257.33C354.128 1257.33 351.812 1259.65 351.812 1262.5L351.812 1326.98 351.864 1326.98 368.974 1285.41C370.502 1282.08 373.823 1279.93 377.492 1279.9Z" fill="#FFFFFF"/><path d="M415.625 1307.48C423.874 1299.24 436.625 1297.54 446.743 1303.34L452.051 1291.94C452.398 1291.21 452.575 1290.42 452.568 1289.62 452.583 1286.97 450.584 1284.73 447.943 1284.45L377.515 1284.45C375.623 1284.46 373.91 1285.57 373.122 1287.29L355.688 1329.67 408.372 1329.67C407.121 1321.54 409.814 1313.3 415.625 1307.48Z" fill="#FFFFFF"/><path d="M425.304 1317.16C422.031 1320.44 420.904 1325.29 422.397 1329.67L434.484 1329.67 440.926 1315.83C436.09 1312.41 429.495 1312.97 425.304 1317.16Z" fill="#FFFFFF"/><path d="M448.962 1310.71C440.657 1302.39 427.181 1302.38 418.864 1310.69 411.251 1318.29 410.508 1330.38 417.134 1338.85L413.799 1342.19C411.97 1341.69 410.017 1342.21 408.675 1343.55L398.996 1353.23C396.918 1355.3 396.918 1358.67 398.996 1360.75 401.075 1362.83 404.446 1362.83 406.525 1360.75L416.203 1351.08C417.539 1349.73 418.058 1347.78 417.563 1345.95L420.909 1342.61C430.201 1349.8 443.568 1348.1 450.764 1338.81 457.332 1330.33 456.56 1318.28 448.962 1310.71ZM445.736 1337.59C439.203 1344.13 428.611 1344.13 422.078 1337.59 415.544 1331.06 415.544 1320.47 422.077 1313.93 428.61 1307.4 439.202 1307.4 445.736 1313.93 445.736 1313.93 445.736 1313.93 445.736 1313.93 452.259 1320.47 452.259 1331.06 445.736 1337.59Z" fill="#FFFFFF"/></g></g></g><path d="M1233.77 2214C332.228 2214 332.228 2214 332.228 2214 316.35 2214 304 2217.6 304 2221.21 304 2350 304 2350 304 2350 1262 2350 1262 2350 1262 2350 1262 2221.21 1262 2221.21 1262 2221.21 1262 2217.6 1247.89 2214 1233.77 2214Z" fill="#07234B" fill-rule="evenodd"/><rect x="304" y="2344" width="958" height="15.9998" fill="#D9D9D9"/><text fill="#FFFFFF" font-family="Roboto,Roboto_MSFontService,sans-serif" font-weight="700" font-size="73" transform="matrix(1 0 0 1 548.854 2308)">Primary Sources</text><text font-family="Arial,Arial_MSFontService,sans-serif" font-weight="400" font-size="55" transform="matrix(1 0 0 1 323.357 2437)">•</text><text font-family="Roboto,Roboto_MSFontService,sans-serif" font-weight="400" font-size="55" transform="matrix(1 0 0 1 390.503 2437)">Perspective of industry </text><text font-family="Roboto,Roboto_MSFontService,sans-serif" font-weight="400" font-size="55" transform="matrix(1 0 0 1 390.503 2503)">participants through </text><text font-family="Roboto,Roboto_MSFontService,sans-serif" font-weight="400" font-size="55" transform="matrix(1 0 0 1 390.503 2569)">questionnaires </text><text font-family="Arial,Arial_MSFontService,sans-serif" font-weight="400" font-size="55" transform="matrix(1 0 0 1 323.357 2654)">•</text><text font-family="Roboto,Roboto_MSFontService,sans-serif" font-weight="400" font-size="55" transform="matrix(1 0 0 1 390.503 2654)">Discussion with key  companies </text><text font-family="Roboto,Roboto_MSFontService,sans-serif" font-weight="400" font-size="55" transform="matrix(1 0 0 1 390.503 2720)">operating in the value chain </text><text font-family="Arial,Arial_MSFontService,sans-serif" font-weight="400" font-size="55" transform="matrix(1 0 0 1 323.357 2804)">•</text><text font-family="Roboto,Roboto_MSFontService,sans-serif" font-weight="400" font-size="55" transform="matrix(1 0 0 1 390.503 2804)">Insights from Technavio’s </text><text font-family="Roboto,Roboto_MSFontService,sans-serif" font-weight="400" font-size="55" transform="matrix(1 0 0 1 390.503 2870)">database of contacts </text><text font-family="Arial,Arial_MSFontService,sans-serif" font-weight="400" font-size="55" transform="matrix(1 0 0 1 323.357 2954)">•</text><text font-family="Roboto,Roboto_MSFontService,sans-serif" font-weight="400" font-size="55" transform="matrix(1 0 0 1 390.503 2954)">Consultation with industry experts</text><g><g><g><path d="M377.492 2248.9 442.234 2248.9 442.234 2241.84C442.234 2238.98 439.919 2236.67 437.063 2236.67L398.315 2236.67 384.106 2227.24C383.256 2226.69 382.275 2226.37 381.263 2226.33L356.983 2226.33C354.128 2226.33 351.812 2228.65 351.812 2231.5L351.812 2295.98 351.864 2295.98 368.974 2254.41C370.502 2251.08 373.823 2248.93 377.492 2248.9Z" fill="#FFFFFF"/><path d="M415.625 2276.48C423.874 2268.24 436.625 2266.54 446.743 2272.34L452.051 2260.94C452.398 2260.21 452.575 2259.42 452.568 2258.62 452.583 2255.97 450.584 2253.73 447.943 2253.45L377.515 2253.45C375.623 2253.46 373.91 2254.57 373.122 2256.29L355.688 2298.67 408.372 2298.67C407.121 2290.54 409.814 2282.3 415.625 2276.48Z" fill="#FFFFFF"/><path d="M425.304 2286.16C422.031 2289.44 420.904 2294.29 422.397 2298.67L434.484 2298.67 440.926 2284.83C436.09 2281.41 429.495 2281.97 425.304 2286.16Z" fill="#FFFFFF"/><path d="M448.962 2279.71C440.657 2271.39 427.181 2271.38 418.864 2279.69 411.251 2287.29 410.508 2299.38 417.134 2307.85L413.799 2311.19C411.97 2310.69 410.017 2311.21 408.675 2312.55L398.996 2322.23C396.918 2324.3 396.918 2327.67 398.996 2329.75 401.075 2331.83 404.446 2331.83 406.525 2329.75L416.203 2320.08C417.539 2318.73 418.058 2316.78 417.563 2314.95L420.909 2311.61C430.201 2318.8 443.568 2317.1 450.764 2307.81 457.332 2299.33 456.56 2287.28 448.962 2279.71ZM445.736 2306.59C439.203 2313.13 428.611 2313.13 422.078 2306.59 415.544 2300.06 415.544 2289.47 422.077 2282.93 428.61 2276.4 439.202 2276.4 445.736 2282.93 445.736 2282.93 445.736 2282.93 445.736 2282.93 452.259 2289.47 452.259 2300.06 445.736 2306.59Z" fill="#FFFFFF"/></g></g></g><path d="M332.228 3084C1233.77 3084 1233.77 3084 1233.77 3084 1247.89 3084 1262 3077.26 1262 3070.53 1262 3068 1262 3068 1262 3068 304 3068 304 3068 304 3068 304 3070.53 304 3070.53 304 3070.53 304 3077.26 316.35 3084 332.228 3084Z" fill="#D9D9D9" fill-rule="evenodd"/><text font-family="Arial,Arial_MSFontService,sans-serif" font-weight="400" font-size="55" transform="matrix(1 0 0 1 1551.62 1468)">•</text><text font-family="Roboto,Roboto_MSFontService,sans-serif" font-weight="400" font-size="55" transform="matrix(1 0 0 1 1618.76 1468)">Identifying the major parameters </text><text font-family="Roboto,Roboto_MSFontService,sans-serif" font-weight="400" font-size="55" transform="matrix(1 0 0 1 1618.76 1534)">impacting the market </text><text font-family="Arial,Arial_MSFontService,sans-serif" font-weight="400" font-size="55" transform="matrix(1 0 0 1 1551.62 1619)">•</text><text font-family="Roboto,Roboto_MSFontService,sans-serif" font-weight="400" font-size="55" transform="matrix(1 0 0 1 1618.76 1619)">Analysing the performance of key </text><text font-family="Roboto,Roboto_MSFontService,sans-serif" font-weight="400" font-size="55" transform="matrix(1 0 0 1 1618.76 1685)">companies in the market </text><text font-family="Arial,Arial_MSFontService,sans-serif" font-weight="400" font-size="55" transform="matrix(1 0 0 1 1551.62 1769)">•</text><text font-family="Roboto,Roboto_MSFontService,sans-serif" font-weight="400" font-size="55" transform="matrix(1 0 0 1 1618.76 1769)">Understanding the dynamics of the </text><text font-family="Roboto,Roboto_MSFontService,sans-serif" font-weight="400" font-size="55" transform="matrix(1 0 0 1 1618.76 1835)">key segments within the market </text><text font-family="Arial,Arial_MSFontService,sans-serif" font-weight="400" font-size="55" transform="matrix(1 0 0 1 1551.62 1919)">•</text><text font-family="Roboto,Roboto_MSFontService,sans-serif" font-weight="400" font-size="55" transform="matrix(1 0 0 1 1618.76 1919)">Outlining the performance of the </text><text font-family="Roboto,Roboto_MSFontService,sans-serif" font-weight="400" font-size="55" transform="matrix(1 0 0 1 1618.76 1985)">market across regions</text><path d="M1488.2 2043C2388.8 2043 2388.8 2043 2388.8 2043 2402.9 2043 2417 2035.84 2417 2028.68 2417 2026 2417 2026 2417 2026 1460 2026 1460 2026 1460 2026 1460 2028.68 1460 2028.68 1460 2028.68 1460 2035.84 1472.34 2043 1488.2 2043Z" fill="#D9D9D9" fill-rule="evenodd"/><path d="M2388.8 1245C1488.2 1245 1488.2 1245 1488.2 1245 1472.34 1245 1460 1248.6 1460 1252.21 1460 1381 1460 1381 1460 1381 2417 1381 2417 1381 2417 1381 2417 1252.21 2417 1252.21 2417 1252.21 2417 1248.6 2402.9 1245 2388.8 1245Z" fill="#11BBD8" fill-rule="evenodd"/><rect x="1460" y="1375" width="957" height="16.0001" fill="#D9D9D9"/><text fill="#FFFFFF" font-family="Roboto,Roboto_MSFontService,sans-serif" font-weight="700" font-size="73" transform="matrix(1 0 0 1 1704.67 1339)">Insights</text><g><g><g><path d="M1563.09 1303.07 1575.24 1315.23C1578.23 1311.84 1580.02 1307.57 1580.35 1303.07Z" fill="#FFFFFF"/><path d="M1558.01 1302.19 1558.01 1280.8C1546.52 1281.59 1537.85 1291.55 1538.64 1303.04 1539.43 1314.53 1549.38 1323.2 1560.87 1322.41 1565.41 1322.1 1569.72 1320.32 1573.14 1317.33Z" fill="#FFFFFF"/><path d="M1560.99 1300.09 1580.35 1300.09C1579.6 1289.74 1571.35 1281.52 1560.99 1280.8Z" fill="#FFFFFF"/><path d="M1601.21 1274.77 1601.21 1328.4 1517.79 1328.4 1517.79 1274.77ZM1613.13 1331.38 1610.15 1331.38 1610.15 1270.3 1613.13 1270.3C1614.77 1270.3 1616.1 1268.97 1616.1 1267.32 1616.1 1265.68 1614.77 1264.34 1613.13 1264.34L1562.48 1264.34 1562.48 1261.36C1562.48 1259.72 1561.15 1258.39 1559.5 1258.39 1557.85 1258.39 1556.52 1259.72 1556.52 1261.36L1556.52 1264.34 1505.88 1264.34C1504.23 1264.34 1502.9 1265.68 1502.9 1267.32 1502.9 1268.97 1504.23 1270.3 1505.88 1270.3L1508.85 1270.3 1508.85 1331.38 1505.88 1331.38C1504.23 1331.38 1502.9 1332.71 1502.9 1334.35 1502.9 1336 1504.23 1337.33 1505.88 1337.33L1551.37 1337.33 1528.43 1360.27C1527.26 1361.45 1527.27 1363.35 1528.45 1364.51 1529.63 1365.67 1531.52 1365.66 1532.69 1364.49L1556.52 1340.66 1556.52 1367.12C1556.52 1368.77 1557.85 1370.1 1559.5 1370.1 1561.15 1370.1 1562.48 1368.77 1562.48 1367.12L1562.48 1340.61 1586.31 1364.44C1587.48 1365.61 1589.36 1365.61 1590.53 1364.44 1591.69 1363.28 1591.69 1361.39 1590.53 1360.23L1567.63 1337.33 1613.13 1337.33C1614.77 1337.33 1616.1 1336 1616.1 1334.35 1616.1 1332.71 1614.77 1331.38 1613.13 1331.38Z" fill="#FFFFFF"/></g></g></g><text font-family="Arial,Arial_MSFontService,sans-serif" font-weight="400" font-size="55" transform="matrix(1 0 0 1 1551.62 2437)">•</text><text font-family="Roboto,Roboto_MSFontService,sans-serif" font-weight="400" font-size="55" transform="matrix(1 0 0 1 1618.76 2437)">Identifying the key factors that </text><text font-family="Roboto,Roboto_MSFontService,sans-serif" font-weight="400" font-size="55" transform="matrix(1 0 0 1 1618.76 2503)">drive and add test market </text><text font-family="Roboto,Roboto_MSFontService,sans-serif" font-weight="400" font-size="55" transform="matrix(1 0 0 1 1618.76 2569)">constraints </text><text font-family="Arial,Arial_MSFontService,sans-serif" font-weight="400" font-size="55" transform="matrix(1 0 0 1 1551.62 2654)">•</text><text font-family="Roboto,Roboto_MSFontService,sans-serif" font-weight="400" font-size="55" transform="matrix(1 0 0 1 1618.76 2654)">Determining how the market will </text><text font-family="Roboto,Roboto_MSFontService,sans-serif" font-weight="400" font-size="55" transform="matrix(1 0 0 1 1618.76 2720)">evolve during the forecast period </text><text font-family="Arial,Arial_MSFontService,sans-serif" font-weight="400" font-size="55" transform="matrix(1 0 0 1 1551.62 2804)">•</text><text font-family="Roboto,Roboto_MSFontService,sans-serif" font-weight="400" font-size="55" transform="matrix(1 0 0 1 1618.76 2804)">Comprehending the critical trends </text><text font-family="Roboto,Roboto_MSFontService,sans-serif" font-weight="400" font-size="55" transform="matrix(1 0 0 1 1618.76 2870)">that will affect the market in future </text><text font-family="Arial,Arial_MSFontService,sans-serif" font-weight="400" font-size="55" transform="matrix(1 0 0 1 1551.62 2954)">•</text><text font-family="Roboto,Roboto_MSFontService,sans-serif" font-weight="400" font-size="55" transform="matrix(1 0 0 1 1618.76 2954)">Analysing the strategies of key </text><text font-family="Roboto,Roboto_MSFontService,sans-serif" font-weight="400" font-size="55" transform="matrix(1 0 0 1 1618.76 3020)">components in the market</text><path d="M2388.8 2214C1488.2 2214 1488.2 2214 1488.2 2214 1472.34 2214 1460 2217.6 1460 2221.21 1460 2350 1460 2350 1460 2350 2417 2350 2417 2350 2417 2350 2417 2221.21 2417 2221.21 2417 2221.21 2417 2217.6 2402.9 2214 2388.8 2214Z" fill="#11BBD8" fill-rule="evenodd"/><rect x="1460" y="2344" width="957" height="15.9998" fill="#D9D9D9"/><text fill="#FFFFFF" font-family="Roboto,Roboto_MSFontService,sans-serif" font-weight="700" font-size="73" transform="matrix(1 0 0 1 1704.67 2308)">Insights</text><g><g><g><path d="M1563.09 2272.07 1575.24 2284.23C1578.23 2280.84 1580.02 2276.57 1580.35 2272.07Z" fill="#FFFFFF"/><path d="M1558.01 2271.19 1558.01 2249.8C1546.52 2250.59 1537.85 2260.55 1538.64 2272.04 1539.43 2283.53 1549.38 2292.2 1560.87 2291.41 1565.41 2291.1 1569.72 2289.32 1573.14 2286.33Z" fill="#FFFFFF"/><path d="M1560.99 2269.09 1580.35 2269.09C1579.6 2258.74 1571.35 2250.52 1560.99 2249.8Z" fill="#FFFFFF"/><path d="M1601.21 2243.77 1601.21 2297.4 1517.79 2297.4 1517.79 2243.77ZM1613.13 2300.38 1610.15 2300.38 1610.15 2239.3 1613.13 2239.3C1614.77 2239.3 1616.1 2237.97 1616.1 2236.32 1616.1 2234.68 1614.77 2233.34 1613.13 2233.34L1562.48 2233.34 1562.48 2230.36C1562.48 2228.72 1561.15 2227.39 1559.5 2227.39 1557.85 2227.39 1556.52 2228.72 1556.52 2230.36L1556.52 2233.34 1505.88 2233.34C1504.23 2233.34 1502.9 2234.68 1502.9 2236.32 1502.9 2237.97 1504.23 2239.3 1505.88 2239.3L1508.85 2239.3 1508.85 2300.38 1505.88 2300.38C1504.23 2300.38 1502.9 2301.71 1502.9 2303.35 1502.9 2305 1504.23 2306.33 1505.88 2306.33L1551.37 2306.33 1528.43 2329.27C1527.26 2330.45 1527.27 2332.35 1528.45 2333.51 1529.63 2334.67 1531.52 2334.66 1532.69 2333.49L1556.52 2309.66 1556.52 2336.12C1556.52 2337.77 1557.85 2339.1 1559.5 2339.1 1561.15 2339.1 1562.48 2337.77 1562.48 2336.12L1562.48 2309.61 1586.31 2333.44C1587.48 2334.61 1589.36 2334.61 1590.53 2333.44 1591.69 2332.28 1591.69 2330.39 1590.53 2329.23L1567.63 2306.33 1613.13 2306.33C1614.77 2306.33 1616.1 2305 1616.1 2303.35 1616.1 2301.71 1614.77 2300.38 1613.13 2300.38Z" fill="#FFFFFF"/></g></g></g><path d="M1488.2 3084C2388.8 3084 2388.8 3084 2388.8 3084 2402.9 3084 2417 3077.26 2417 3070.53 2417 3068 2417 3068 2417 3068 1460 3068 1460 3068 1460 3068 1460 3070.53 1460 3070.53 1460 3070.53 1460 3077.26 1472.34 3084 1488.2 3084Z" fill="#D9D9D9" fill-rule="evenodd"/><path d="M1231 2686C1231 2623.04 1282.26 2572 1345.5 2572 1408.74 2572 1460 2623.04 1460 2686 1460 2748.96 1408.74 2800 1345.5 2800 1282.26 2800 1231 2748.96 1231 2686Z" fill="#F2F2F2" fill-rule="evenodd"/><text font-family="Roboto,Roboto_MSFontService,sans-serif" font-weight="700" font-size="41" transform="matrix(1 0 0 1 1266.64 2700)">Analysis</text><path d="M1346.05 2836.82C1263.56 2837.16 1196.41 2770.58 1196.07 2688.09 1195.72 2605.61 1262.31 2538.46 1344.79 2538.11 1416.26 2537.81 1477.92 2588.18 1491.89 2658.27L1511.36 2658.68 1485.79 2690.44 1454.07 2657.46 1473.5 2657.87C1457.16 2587.14 1386.57 2543.04 1315.83 2559.38 1245.09 2575.72 1200.99 2646.31 1217.34 2717.05 1231.16 2776.89 1284.56 2819.18 1345.97 2818.92Z" fill="#A6A6A6" fill-rule="evenodd"/><path d="M1231 1707C1231 1644.04 1282.26 1593 1345.5 1593 1408.74 1593 1460 1644.04 1460 1707 1460 1769.96 1408.74 1821 1345.5 1821 1282.26 1821 1231 1769.96 1231 1707Z" fill="#F2F2F2" fill-rule="evenodd"/><text font-family="Roboto,Roboto_MSFontService,sans-serif" font-weight="700" font-size="41" transform="matrix(1 0 0 1 1266.64 1721)">Analysis</text><path d="M1346.05 1857.96C1263.56 1858.31 1196.41 1791.72 1196.07 1709.24 1195.72 1626.75 1262.31 1559.61 1344.79 1559.26 1416.26 1558.96 1477.92 1609.33 1491.89 1679.41L1511.36 1679.83 1485.79 1711.59 1454.07 1678.61 1473.5 1679.02C1457.16 1608.28 1386.57 1564.19 1315.83 1580.53 1245.09 1596.87 1200.99 1667.46 1217.34 1738.2 1231.16 1798.03 1284.56 1840.33 1345.97 1840.07Z" fill="#A6A6A6" fill-rule="evenodd"/></g></svg>