<svg width="2231" height="2390" xmlns="http://www.w3.org/2000/svg" xmlns:xlink="http://www.w3.org/1999/xlink" xml:space="preserve" overflow="hidden"><g transform="translate(-290 -668)"><text font-family="Inter,Inter_MSFontService,sans-serif" font-weight="400" font-size="55" transform="matrix(1 0 0 1 336.732 738)">Technavio’s database and industry</text><text font-family="Inter,Inter_MSFontService,sans-serif" font-weight="400" font-size="55" transform="matrix(1 0 0 1 1243.66 738)">-</text><text font-family="Inter,Inter_MSFontService,sans-serif" font-weight="400" font-size="55" transform="matrix(1 0 0 1 1268.87 738)">specific repositories having used for </text><text font-family="Inter,Inter_MSFontService,sans-serif" font-weight="400" font-size="55" transform="matrix(1 0 0 1 336.732 804)">defining the hypothesis for the study, which has been further fine</text><text font-family="Inter,Inter_MSFontService,sans-serif" font-weight="400" font-size="55" transform="matrix(1 0 0 1 2043.45 804)">-</text><text font-family="Inter,Inter_MSFontService,sans-serif" font-weight="400" font-size="55" transform="matrix(1 0 0 1 2068.66 804)">tuned </text><text font-family="Inter,Inter_MSFontService,sans-serif" font-weight="400" font-size="55" transform="matrix(1 0 0 1 336.732 870)">through primary research involving industry experts. The success of our </text><text font-family="Inter,Inter_MSFontService,sans-serif" font-weight="400" font-size="55" transform="matrix(1 0 0 1 336.732 936)">approach lies in the fact that we take the viewpoint of all stakeholders into </text><text font-family="Inter,Inter_MSFontService,sans-serif" font-weight="400" font-size="55" transform="matrix(1 0 0 1 336.732 1002)">consideration while analysing an industry and objectively assess each outlook.</text><path d="M332.228 1956C1233.77 1956 1233.77 1956 1233.77 1956 1247.89 1956 1262 1948.84 1262 1941.68 1262 1939 1262 1939 1262 1939 304 1939 304 1939 304 1939 304 1941.68 304 1941.68 304 1941.68 304 1948.84 316.35 1956 332.228 1956Z" fill="#D9D9D9" fill-rule="evenodd"/><path d="M1233.77 1073C332.228 1073 332.228 1073 332.228 1073 316.35 1073 304 1076.6 304 1080.21 304 1209 304 1209 304 1209 1262 1209 1262 1209 1262 1209 1262 1080.21 1262 1080.21 1262 1080.21 1262 1076.6 1247.89 1073 1233.77 1073Z" fill="#07234B" fill-rule="evenodd"/><rect x="304" y="1203" width="958" height="14.9998" fill="#D9D9D9"/><text fill="#FFFFFF" font-family="Inter,Inter_MSFontService,sans-serif" font-weight="700" font-size="73" transform="matrix(1 0 0 1 508.354 1167)">Secondary Sources</text><text font-family="Arial,Arial_MSFontService,sans-serif" font-weight="400" font-size="55" transform="matrix(1 0 0 1 323.357 1297)">•</text><text font-family="Inter,Inter_MSFontService,sans-serif" font-weight="400" font-size="55" transform="matrix(1 0 0 1 390.503 1297)">Company financials</text><text font-family="Arial,Arial_MSFontService,sans-serif" font-weight="400" font-size="55" transform="matrix(1 0 0 1 323.357 1381)">•</text><text font-family="Inter,Inter_MSFontService,sans-serif" font-weight="400" font-size="55" transform="matrix(1 0 0 1 390.503 1381)">Analyst presentations</text><text font-family="Arial,Arial_MSFontService,sans-serif" font-weight="400" font-size="55" transform="matrix(1 0 0 1 323.357 1465)">•</text><text font-family="Inter,Inter_MSFontService,sans-serif" font-weight="400" font-size="55" transform="matrix(1 0 0 1 390.503 1465)">Equity research reports</text><text font-family="Arial,Arial_MSFontService,sans-serif" font-weight="400" font-size="55" transform="matrix(1 0 0 1 323.357 1550)">•</text><text font-family="Inter,Inter_MSFontService,sans-serif" font-weight="400" font-size="55" transform="matrix(1 0 0 1 390.503 1550)">Historical data</text><text font-family="Arial,Arial_MSFontService,sans-serif" font-weight="400" font-size="55" transform="matrix(1 0 0 1 323.357 1634)">•</text><text font-family="Inter,Inter_MSFontService,sans-serif" font-weight="400" font-size="55" transform="matrix(1 0 0 1 390.503 1634)">Technical journals</text><text font-family="Arial,Arial_MSFontService,sans-serif" font-weight="400" font-size="55" transform="matrix(1 0 0 1 323.357 1718)">•</text><text font-family="Inter,Inter_MSFontService,sans-serif" font-weight="400" font-size="55" transform="matrix(1 0 0 1 390.503 1718)">Press releases</text><text font-family="Arial,Arial_MSFontService,sans-serif" font-weight="400" font-size="55" transform="matrix(1 0 0 1 323.357 1803)">•</text><text font-family="Inter,Inter_MSFontService,sans-serif" font-weight="400" font-size="55" transform="matrix(1 0 0 1 390.503 1803)">Technavio repository</text><g><g><g><path d="M377.492 1107.9 442.234 1107.9 442.234 1100.84C442.234 1097.98 439.919 1095.67 437.063 1095.67L398.315 1095.67 384.106 1086.24C383.256 1085.69 382.275 1085.37 381.263 1085.33L356.983 1085.33C354.128 1085.33 351.812 1087.65 351.812 1090.5L351.812 1154.98 351.864 1154.98 368.974 1113.41C370.502 1110.08 373.823 1107.93 377.492 1107.9Z" fill="#FFFFFF"/><path d="M415.625 1135.48C423.874 1127.24 436.625 1125.54 446.743 1131.34L452.051 1119.94C452.398 1119.21 452.575 1118.42 452.568 1117.62 452.583 1114.97 450.584 1112.73 447.943 1112.45L377.515 1112.45C375.623 1112.46 373.91 1113.57 373.122 1115.29L355.688 1157.67 408.372 1157.67C407.121 1149.54 409.814 1141.3 415.625 1135.48Z" fill="#FFFFFF"/><path d="M425.304 1145.16C422.031 1148.44 420.904 1153.29 422.397 1157.67L434.484 1157.67 440.926 1143.83C436.09 1140.41 429.495 1140.97 425.304 1145.16Z" fill="#FFFFFF"/><path d="M448.962 1138.71C440.657 1130.39 427.181 1130.38 418.864 1138.69 411.251 1146.29 410.508 1158.38 417.134 1166.85L413.799 1170.19C411.97 1169.69 410.017 1170.21 408.675 1171.55L398.996 1181.23C396.918 1183.3 396.918 1186.68 398.996 1188.75 401.075 1190.83 404.446 1190.83 406.525 1188.75L416.203 1179.08C417.539 1177.73 418.058 1175.78 417.563 1173.95L420.909 1170.61C430.201 1177.8 443.568 1176.1 450.764 1166.81 457.332 1158.33 456.56 1146.28 448.962 1138.71ZM445.736 1165.59C439.203 1172.13 428.611 1172.13 422.078 1165.59 415.544 1159.06 415.544 1148.47 422.077 1141.93 428.61 1135.4 439.202 1135.4 445.736 1141.93 445.736 1141.93 445.736 1141.93 445.736 1141.93 452.259 1148.47 452.259 1159.06 445.736 1165.59Z" fill="#FFFFFF"/></g></g></g><path d="M1233.77 2042C332.228 2042 332.228 2042 332.228 2042 316.35 2042 304 2045.6 304 2049.21 304 2178 304 2178 304 2178 1262 2178 1262 2178 1262 2178 1262 2049.21 1262 2049.21 1262 2049.21 1262 2045.6 1247.89 2042 1233.77 2042Z" fill="#07234B" fill-rule="evenodd"/><rect x="304" y="2172" width="958" height="14.9998" fill="#D9D9D9"/><text fill="#FFFFFF" font-family="Inter,Inter_MSFontService,sans-serif" font-weight="700" font-size="73" transform="matrix(1 0 0 1 508.354 2136)">Primary Sources</text><text font-family="Arial,Arial_MSFontService,sans-serif" font-weight="400" font-size="55" transform="matrix(1 0 0 1 323.357 2266)">•</text><text font-family="Inter,Inter_MSFontService,sans-serif" font-weight="400" font-size="55" transform="matrix(1 0 0 1 390.503 2266)">Perspective of industry </text><text font-family="Inter,Inter_MSFontService,sans-serif" font-weight="400" font-size="55" transform="matrix(1 0 0 1 390.503 2332)">participants through </text><text font-family="Inter,Inter_MSFontService,sans-serif" font-weight="400" font-size="55" transform="matrix(1 0 0 1 390.503 2398)">questionnaires </text><text font-family="Arial,Arial_MSFontService,sans-serif" font-weight="400" font-size="55" transform="matrix(1 0 0 1 323.357 2482)">•</text><text font-family="Inter,Inter_MSFontService,sans-serif" font-weight="400" font-size="55" transform="matrix(1 0 0 1 390.503 2482)">Discussion with key </text><text font-family="Inter,Inter_MSFontService,sans-serif" font-weight="400" font-size="55" transform="matrix(1 0 0 1 390.503 2548)">companies operating in the </text><text font-family="Inter,Inter_MSFontService,sans-serif" font-weight="400" font-size="55" transform="matrix(1 0 0 1 390.503 2614)">value chain </text><text font-family="Arial,Arial_MSFontService,sans-serif" font-weight="400" font-size="55" transform="matrix(1 0 0 1 323.357 2698)">•</text><text font-family="Inter,Inter_MSFontService,sans-serif" font-weight="400" font-size="55" transform="matrix(1 0 0 1 390.503 2698)">Insights from Technavio’s </text><text font-family="Inter,Inter_MSFontService,sans-serif" font-weight="400" font-size="55" transform="matrix(1 0 0 1 390.503 2764)">database of contacts </text><text font-family="Arial,Arial_MSFontService,sans-serif" font-weight="400" font-size="55" transform="matrix(1 0 0 1 323.357 2849)">•</text><text font-family="Inter,Inter_MSFontService,sans-serif" font-weight="400" font-size="55" transform="matrix(1 0 0 1 390.503 2849)">Consultation with industry </text><text font-family="Inter,Inter_MSFontService,sans-serif" font-weight="400" font-size="55" transform="matrix(1 0 0 1 390.503 2915)">experts</text><g><g><g><path d="M48.4918 49.9001 113.234 49.9001 113.234 42.8373C113.234 39.9815 110.919 37.6665 108.063 37.6665L69.3151 37.6665 55.1059 28.2373C54.2562 27.6872 53.2748 27.3747 52.2635 27.3324L27.9834 27.3324C25.1275 27.3324 22.8125 29.6474 22.8125 32.5033L22.8125 96.9775 22.8642 96.9775 39.9736 55.4116C41.5022 52.0766 44.8232 49.9278 48.4918 49.9001Z" fill="#FFFFFF" transform="matrix(1 0 0 1.00685 329 2026)"/><path d="M86.6252 77.4819C94.8745 69.2367 107.625 67.5404 117.743 73.3422L123.051 61.936C123.398 61.2146 123.575 60.4232 123.568 59.6228 123.583 56.9673 121.584 54.7322 118.943 54.452L48.5146 54.452C46.6228 54.4647 44.9099 55.5727 44.1224 57.2929L26.6876 99.6724 79.3723 99.6724C78.1207 91.5428 80.8138 83.3029 86.6252 77.4819Z" fill="#FFFFFF" transform="matrix(1 0 0 1.00685 329 2026)"/><path d="M96.3038 87.1605C93.031 90.4372 91.9042 95.2886 93.3975 99.6724L105.484 99.6724 111.926 85.8328C107.09 82.4128 100.495 82.9714 96.3038 87.156Z" fill="#FFFFFF" transform="matrix(1 0 0 1.00685 329 2026)"/><path d="M119.962 80.7076C111.657 72.3903 98.1811 72.3805 89.8638 80.6859 82.2508 88.2878 81.5084 100.376 88.1339 108.852L84.7987 112.187C82.9705 111.692 81.0171 112.211 79.675 113.547L69.9964 123.226C67.9176 125.304 67.9176 128.675 69.9964 130.754 72.0752 132.833 75.4457 132.833 77.5245 130.754L87.2031 121.075C88.5395 119.733 89.0579 117.78 88.5627 115.951L91.9086 112.606C101.201 119.801 114.568 118.101 121.764 108.808 128.332 100.326 127.56 88.2814 119.962 80.7076ZM116.736 107.593C110.203 114.126 99.6108 114.126 93.0776 107.594 86.5443 101.061 86.544 90.4682 93.077 83.9348 99.6101 77.4015 110.202 77.4013 116.736 83.9344 116.736 83.9345 116.736 83.9347 116.736 83.9348 123.259 90.4722 123.259 101.056 116.736 107.593Z" fill="#FFFFFF" transform="matrix(1 0 0 1.00685 329 2026)"/></g></g></g><path d="M332.228 3058C1233.77 3058 1233.77 3058 1233.77 3058 1247.89 3058 1262 3050.84 1262 3043.68 1262 3041 1262 3041 1262 3041 304 3041 304 3041 304 3041 304 3043.68 304 3043.68 304 3043.68 304 3050.84 316.35 3058 332.228 3058Z" fill="#D9D9D9" fill-rule="evenodd"/><text font-family="Arial,Arial_MSFontService,sans-serif" font-weight="400" font-size="55" transform="matrix(1 0 0 1 1551.62 1297)">•</text><text font-family="Inter,Inter_MSFontService,sans-serif" font-weight="400" font-size="55" transform="matrix(1 0 0 1 1618.76 1297)">Identifying the major parameters </text><text font-family="Inter,Inter_MSFontService,sans-serif" font-weight="400" font-size="55" transform="matrix(1 0 0 1 1618.76 1363)">impacting the market </text><text font-family="Arial,Arial_MSFontService,sans-serif" font-weight="400" font-size="55" transform="matrix(1 0 0 1 1551.62 1447)">•</text><text font-family="Inter,Inter_MSFontService,sans-serif" font-weight="400" font-size="55" transform="matrix(1 0 0 1 1618.76 1447)">Analysing the performance of </text><text font-family="Inter,Inter_MSFontService,sans-serif" font-weight="400" font-size="55" transform="matrix(1 0 0 1 1618.76 1513)">key companies in the market </text><text font-family="Arial,Arial_MSFontService,sans-serif" font-weight="400" font-size="55" transform="matrix(1 0 0 1 1551.62 1597)">•</text><text font-family="Inter,Inter_MSFontService,sans-serif" font-weight="400" font-size="55" transform="matrix(1 0 0 1 1618.76 1597)">Understanding the dynamics of </text><text font-family="Inter,Inter_MSFontService,sans-serif" font-weight="400" font-size="55" transform="matrix(1 0 0 1 1618.76 1663)">the key segments within the </text><text font-family="Inter,Inter_MSFontService,sans-serif" font-weight="400" font-size="55" transform="matrix(1 0 0 1 1618.76 1729)">market </text><text font-family="Arial,Arial_MSFontService,sans-serif" font-weight="400" font-size="55" transform="matrix(1 0 0 1 1551.62 1814)">•</text><text font-family="Inter,Inter_MSFontService,sans-serif" font-weight="400" font-size="55" transform="matrix(1 0 0 1 1618.76 1814)">Outlining the performance of the </text><text font-family="Inter,Inter_MSFontService,sans-serif" font-weight="400" font-size="55" transform="matrix(1 0 0 1 1618.76 1880)">market across regions</text><path d="M1488.2 1956C2388.8 1956 2388.8 1956 2388.8 1956 2402.9 1956 2417 1948.84 2417 1941.68 2417 1939 2417 1939 2417 1939 1460 1939 1460 1939 1460 1939 1460 1941.68 1460 1941.68 1460 1941.68 1460 1948.84 1472.34 1956 1488.2 1956Z" fill="#D9D9D9" fill-rule="evenodd"/><path d="M2388.8 1073C1488.2 1073 1488.2 1073 1488.2 1073 1472.34 1073 1460 1076.6 1460 1080.21 1460 1209 1460 1209 1460 1209 2417 1209 2417 1209 2417 1209 2417 1080.21 2417 1080.21 2417 1080.21 2417 1076.6 2402.9 1073 2388.8 1073Z" fill="#11BBD8" fill-rule="evenodd"/><rect x="1460" y="1203" width="957" height="14.9998" fill="#D9D9D9"/><text fill="#FFFFFF" font-family="Inter,Inter_MSFontService,sans-serif" font-weight="700" font-size="73" transform="matrix(1 0 0 1 1675.06 1167)">Insights</text><g><g><g><path d="M1563.09 1130.07 1575.24 1142.23C1578.23 1138.84 1580.02 1134.57 1580.35 1130.07Z" fill="#FFFFFF"/><path d="M1558.01 1129.19 1558.01 1107.8C1546.52 1108.59 1537.85 1118.55 1538.64 1130.04 1539.43 1141.53 1549.38 1150.2 1560.87 1149.41 1565.41 1149.1 1569.72 1147.32 1573.14 1144.33Z" fill="#FFFFFF"/><path d="M1560.99 1127.09 1580.35 1127.09C1579.6 1116.74 1571.35 1108.52 1560.99 1107.8Z" fill="#FFFFFF"/><path d="M1601.21 1101.77 1601.21 1155.4 1517.79 1155.4 1517.79 1101.77ZM1613.13 1158.38 1610.15 1158.38 1610.15 1097.3 1613.13 1097.3C1614.77 1097.3 1616.1 1095.97 1616.1 1094.32 1616.1 1092.68 1614.77 1091.34 1613.13 1091.34L1562.48 1091.34 1562.48 1088.36C1562.48 1086.72 1561.15 1085.39 1559.5 1085.39 1557.85 1085.39 1556.52 1086.72 1556.52 1088.36L1556.52 1091.34 1505.88 1091.34C1504.23 1091.34 1502.9 1092.68 1502.9 1094.32 1502.9 1095.97 1504.23 1097.3 1505.88 1097.3L1508.85 1097.3 1508.85 1158.38 1505.88 1158.38C1504.23 1158.38 1502.9 1159.71 1502.9 1161.35 1502.9 1163 1504.23 1164.33 1505.88 1164.33L1551.37 1164.33 1528.43 1187.27C1527.26 1188.45 1527.27 1190.35 1528.45 1191.51 1529.63 1192.68 1531.52 1192.67 1532.69 1191.49L1556.52 1167.66 1556.52 1194.13C1556.52 1195.77 1557.85 1197.1 1559.5 1197.1 1561.15 1197.1 1562.48 1195.77 1562.48 1194.13L1562.48 1167.61 1586.31 1191.44C1587.48 1192.61 1589.36 1192.61 1590.53 1191.44 1591.69 1190.28 1591.69 1188.39 1590.53 1187.23L1567.63 1164.33 1613.13 1164.33C1614.77 1164.33 1616.1 1163 1616.1 1161.35 1616.1 1159.71 1614.77 1158.38 1613.13 1158.38Z" fill="#FFFFFF"/></g></g></g><text font-family="Arial,Arial_MSFontService,sans-serif" font-weight="400" font-size="55" transform="matrix(1 0 0 1 1551.62 2266)">•</text><text font-family="Inter,Inter_MSFontService,sans-serif" font-weight="400" font-size="55" transform="matrix(1 0 0 1 1618.76 2266)">Identifying the key factors that </text><text font-family="Inter,Inter_MSFontService,sans-serif" font-weight="400" font-size="55" transform="matrix(1 0 0 1 1618.76 2332)">drive and add test market </text><text font-family="Inter,Inter_MSFontService,sans-serif" font-weight="400" font-size="55" transform="matrix(1 0 0 1 1618.76 2398)">constraints </text><text font-family="Arial,Arial_MSFontService,sans-serif" font-weight="400" font-size="55" transform="matrix(1 0 0 1 1551.62 2482)">•</text><text font-family="Inter,Inter_MSFontService,sans-serif" font-weight="400" font-size="55" transform="matrix(1 0 0 1 1618.76 2482)">Determining how the market will </text><text font-family="Inter,Inter_MSFontService,sans-serif" font-weight="400" font-size="55" transform="matrix(1 0 0 1 1618.76 2548)">evolve during the forecast </text><text font-family="Inter,Inter_MSFontService,sans-serif" font-weight="400" font-size="55" transform="matrix(1 0 0 1 1618.76 2614)">period </text><text font-family="Arial,Arial_MSFontService,sans-serif" font-weight="400" font-size="55" transform="matrix(1 0 0 1 1551.62 2698)">•</text><text font-family="Inter,Inter_MSFontService,sans-serif" font-weight="400" font-size="55" transform="matrix(1 0 0 1 1618.76 2698)">Comprehending the critical </text><text font-family="Inter,Inter_MSFontService,sans-serif" font-weight="400" font-size="55" transform="matrix(1 0 0 1 1618.76 2764)">trends that will affect the market </text><text font-family="Inter,Inter_MSFontService,sans-serif" font-weight="400" font-size="55" transform="matrix(1 0 0 1 1618.76 2830)">in future </text><text font-family="Arial,Arial_MSFontService,sans-serif" font-weight="400" font-size="55" transform="matrix(1 0 0 1 1551.62 2915)">•</text><text font-family="Inter,Inter_MSFontService,sans-serif" font-weight="400" font-size="55" transform="matrix(1 0 0 1 1618.76 2915)">Analysing the strategies of key </text><text font-family="Inter,Inter_MSFontService,sans-serif" font-weight="400" font-size="55" transform="matrix(1 0 0 1 1618.76 2981)">components in the market</text><path d="M2388.8 2042C1488.2 2042 1488.2 2042 1488.2 2042 1472.34 2042 1460 2045.6 1460 2049.21 1460 2178 1460 2178 1460 2178 2417 2178 2417 2178 2417 2178 2417 2049.21 2417 2049.21 2417 2049.21 2417 2045.6 2402.9 2042 2388.8 2042Z" fill="#11BBD8" fill-rule="evenodd"/><rect x="1460" y="2172" width="957" height="14.9998" fill="#D9D9D9"/><text fill="#FFFFFF" font-family="Inter,Inter_MSFontService,sans-serif" font-weight="700" font-size="73" transform="matrix(1 0 0 1 1675.06 2136)">Insights</text><g><g><g><path d="M1563.09 2099.07 1575.24 2111.23C1578.23 2107.84 1580.02 2103.57 1580.35 2099.07Z" fill="#FFFFFF"/><path d="M1558.01 2098.19 1558.01 2076.8C1546.52 2077.59 1537.85 2087.55 1538.64 2099.04 1539.43 2110.53 1549.38 2119.2 1560.87 2118.41 1565.41 2118.1 1569.72 2116.32 1573.14 2113.33Z" fill="#FFFFFF"/><path d="M1560.99 2096.09 1580.35 2096.09C1579.6 2085.74 1571.35 2077.52 1560.99 2076.8Z" fill="#FFFFFF"/><path d="M1601.21 2070.77 1601.21 2124.4 1517.79 2124.4 1517.79 2070.77ZM1613.13 2127.38 1610.15 2127.38 1610.15 2066.3 1613.13 2066.3C1614.77 2066.3 1616.1 2064.97 1616.1 2063.32 1616.1 2061.68 1614.77 2060.34 1613.13 2060.34L1562.48 2060.34 1562.48 2057.36C1562.48 2055.72 1561.15 2054.39 1559.5 2054.39 1557.85 2054.39 1556.52 2055.72 1556.52 2057.36L1556.52 2060.34 1505.88 2060.34C1504.23 2060.34 1502.9 2061.68 1502.9 2063.32 1502.9 2064.97 1504.23 2066.3 1505.88 2066.3L1508.85 2066.3 1508.85 2127.38 1505.88 2127.38C1504.23 2127.38 1502.9 2128.71 1502.9 2130.35 1502.9 2132 1504.23 2133.33 1505.88 2133.33L1551.37 2133.33 1528.43 2156.27C1527.26 2157.45 1527.27 2159.35 1528.45 2160.51 1529.63 2161.68 1531.52 2161.67 1532.69 2160.49L1556.52 2136.66 1556.52 2163.12C1556.52 2164.77 1557.85 2166.1 1559.5 2166.1 1561.15 2166.1 1562.48 2164.77 1562.48 2163.12L1562.48 2136.61 1586.31 2160.44C1587.48 2161.61 1589.36 2161.61 1590.53 2160.44 1591.69 2159.28 1591.69 2157.39 1590.53 2156.23L1567.63 2133.33 1613.13 2133.33C1614.77 2133.33 1616.1 2132 1616.1 2130.35 1616.1 2128.71 1614.77 2127.38 1613.13 2127.38Z" fill="#FFFFFF"/></g></g></g><path d="M1488.2 3058C2388.8 3058 2388.8 3058 2388.8 3058 2402.9 3058 2417 3050.84 2417 3043.68 2417 3041 2417 3041 2417 3041 1460 3041 1460 3041 1460 3041 1460 3043.68 1460 3043.68 1460 3043.68 1460 3050.84 1472.34 3058 1488.2 3058Z" fill="#D9D9D9" fill-rule="evenodd"/><path d="M1231 2513.5C1231 2450.26 1282.26 2399 1345.5 2399 1408.74 2399 1460 2450.26 1460 2513.5 1460 2576.74 1408.74 2628 1345.5 2628 1282.26 2628 1231 2576.74 1231 2513.5Z" fill="#F2F2F2" fill-rule="evenodd"/><path d="M1346.05 2664.44C1263.56 2664.79 1196.41 2598.2 1196.07 2515.72 1195.72 2433.23 1262.31 2366.09 1344.79 2365.74 1416.26 2365.44 1477.92 2415.81 1491.89 2485.89L1511.36 2486.31 1485.79 2518.07 1454.07 2485.09 1473.5 2485.5C1457.16 2414.76 1386.57 2370.67 1315.83 2387.01 1245.09 2403.35 1200.99 2473.94 1217.34 2544.68 1231.16 2604.51 1284.56 2646.8 1345.97 2646.55Z" fill="#A6A6A6" fill-rule="evenodd"/><path d="M1231 1534.5C1231 1471.26 1282.26 1420 1345.5 1420 1408.74 1420 1460 1471.26 1460 1534.5 1460 1597.74 1408.74 1649 1345.5 1649 1282.26 1649 1231 1597.74 1231 1534.5Z" fill="#F2F2F2" fill-rule="evenodd"/><path d="M1346.05 1685.59C1263.56 1685.94 1196.41 1619.35 1196.07 1536.87 1195.72 1454.38 1262.31 1387.24 1344.79 1386.89 1416.26 1386.59 1477.92 1436.96 1491.89 1507.04L1511.36 1507.45 1485.79 1539.22 1454.07 1506.24 1473.5 1506.65C1457.16 1435.91 1386.57 1391.82 1315.83 1408.16 1245.09 1424.5 1200.99 1495.09 1217.34 1565.83 1231.16 1625.66 1284.56 1667.95 1345.97 1667.7Z" fill="#A6A6A6" fill-rule="evenodd"/><text font-family="Inter,Inter_MSFontService,sans-serif" font-weight="700" font-size="46" transform="matrix(1 0 0 1 1248.88 1549)">Analysis</text><text font-family="Inter,Inter_MSFontService,sans-serif" font-weight="700" font-size="46" transform="matrix(1 0 0 1 1248.88 2529)">Analysis</text></g></svg>