<svg width="200" height="192" viewBox="0 0 200 192" fill="none" xmlns="http://www.w3.org/2000/svg">
<mask id="path-1-outside-1_267_2" maskUnits="userSpaceOnUse" x="19.9132" y="22.6858" width="56" height="117" fill="black">
<rect fill="white" x="19.9132" y="22.6858" width="56" height="117"/>
<path d="M72.1886 52.261C68.4165 56.0331 65.4244 60.5112 63.3829 65.4397C61.3415 70.3683 60.2902 75.6509 60.2902 80.9856C60.2902 86.32 61.3416 91.6021 63.3829 96.5305C65.4244 101.459 68.4164 105.938 72.1886 109.71L45.6144 136.284C38.3525 129.023 32.5914 120.401 28.6613 110.913C25.4528 103.167 23.5165 94.9671 22.9132 86.6292H35.6085C39.1706 86.629 42.0577 83.741 42.0577 80.179C42.0577 76.6169 39.1705 73.7289 35.6085 73.7288H23.047C23.7722 65.947 25.66 58.3037 28.6613 51.0579C32.5914 41.5696 38.3524 32.9478 45.6144 25.6858L72.1886 52.261Z"/>
</mask>
<path d="M72.1886 52.261C68.4165 56.0331 65.4244 60.5112 63.3829 65.4397C61.3415 70.3683 60.2902 75.6509 60.2902 80.9856C60.2902 86.32 61.3416 91.6021 63.3829 96.5305C65.4244 101.459 68.4164 105.938 72.1886 109.71L45.6144 136.284C38.3525 129.023 32.5914 120.401 28.6613 110.913C25.4528 103.167 23.5165 94.9671 22.9132 86.6292H35.6085C39.1706 86.629 42.0577 83.741 42.0577 80.179C42.0577 76.6169 39.1705 73.7289 35.6085 73.7288H23.047C23.7722 65.947 25.66 58.3037 28.6613 51.0579C32.5914 41.5696 38.3524 32.9478 45.6144 25.6858L72.1886 52.261Z" fill="#E1E1E1"/>
<path d="M72.1886 52.261L73.6028 53.6752L75.017 52.261L73.6028 50.8468L72.1886 52.261ZM63.3829 65.4397L61.5352 64.6743L61.5352 64.6743L63.3829 65.4397ZM60.2902 80.9856L58.2902 80.9856L58.2902 80.9856L60.2902 80.9856ZM63.3829 96.5305L61.5352 97.2959L61.5352 97.2959L63.3829 96.5305ZM72.1886 109.71L73.6028 111.124L75.017 109.71L73.6028 108.296L72.1886 109.71ZM45.6144 136.284L44.2002 137.699L45.6144 139.113L47.0286 137.699L45.6144 136.284ZM28.6613 110.913L26.8135 111.679L26.8135 111.679L28.6613 110.913ZM22.9132 86.6292V84.6292H20.7633L20.9184 86.7735L22.9132 86.6292ZM35.6085 86.6292L35.6085 88.6292L35.6086 88.6292L35.6085 86.6292ZM42.0577 80.179L44.0577 80.179L44.0577 80.1789L42.0577 80.179ZM35.6085 73.7288L35.6086 71.7288H35.6085V73.7288ZM23.047 73.7288L21.0556 73.5432L20.8519 75.7288H23.047V73.7288ZM28.6613 51.0579L26.8135 50.2925L26.8135 50.2925L28.6613 51.0579ZM45.6144 25.6858L47.0286 24.2716L45.6144 22.8573L44.2002 24.2716L45.6144 25.6858ZM72.1886 52.261L70.7744 50.8468C66.8166 54.8046 63.6771 59.5032 61.5352 64.6743L63.3829 65.4397L65.2307 66.2051C67.1716 61.5192 70.0165 57.2616 73.6028 53.6752L72.1886 52.261ZM63.3829 65.4397L61.5352 64.6743C59.3932 69.8454 58.2902 75.3882 58.2902 80.9856L60.2902 80.9856L62.2902 80.9856C62.2902 75.9137 63.2897 70.8911 65.2307 66.2051L63.3829 65.4397ZM60.2902 80.9856L58.2902 80.9856C58.2902 86.5829 59.3934 92.125 61.5352 97.2959L63.3829 96.5305L65.2307 95.7652C63.2898 91.0792 62.2902 86.0572 62.2902 80.9856L60.2902 80.9856ZM63.3829 96.5305L61.5352 97.2959C63.6771 102.467 66.8164 107.166 70.7744 111.124L72.1886 109.71L73.6028 108.296C70.0165 104.71 67.1717 100.451 65.2307 95.7652L63.3829 96.5305ZM72.1886 109.71L70.7744 108.296L44.2002 134.87L45.6144 136.284L47.0286 137.699L73.6028 111.124L72.1886 109.71ZM45.6144 136.284L47.0286 134.87C39.9524 127.794 34.3386 119.393 30.509 110.148L28.6613 110.913L26.8135 111.679C30.8442 121.41 36.7526 130.251 44.2002 137.699L45.6144 136.284ZM28.6613 110.913L30.509 110.148C27.3827 102.6 25.4959 94.6097 24.908 86.4848L22.9132 86.6292L20.9184 86.7735C21.5372 95.3245 23.5229 103.735 26.8135 111.679L28.6613 110.913ZM22.9132 86.6292V88.6292H35.6085V86.6292V84.6292H22.9132V86.6292ZM35.6085 86.6292L35.6086 88.6292C40.2755 88.629 44.0577 84.8453 44.0577 80.179H42.0577H40.0577C40.0577 82.6368 38.0657 84.629 35.6084 84.6292L35.6085 86.6292ZM42.0577 80.179L44.0577 80.1789C44.0577 75.5127 40.2755 71.729 35.6086 71.7288L35.6085 73.7288L35.6084 75.7288C38.0656 75.7289 40.0577 77.7212 40.0577 80.179L42.0577 80.179ZM35.6085 73.7288V71.7288H23.047V73.7288V75.7288H35.6085V73.7288ZM23.047 73.7288L25.0384 73.9143C25.745 66.3314 27.5846 58.8836 30.509 51.8232L28.6613 51.0579L26.8135 50.2925C23.7354 57.7239 21.7994 65.5626 21.0556 73.5432L23.047 73.7288ZM28.6613 51.0579L30.509 51.8232C34.3387 42.5777 39.9523 34.1763 47.0286 27.1L45.6144 25.6858L44.2002 24.2716C36.7525 31.7193 30.8442 40.5616 26.8135 50.2925L28.6613 51.0579ZM45.6144 25.6858L44.2001 27.1L70.7744 53.6752L72.1886 52.261L73.6028 50.8468L47.0286 24.2716L45.6144 25.6858Z" fill="#F5F5F5" mask="url(#path-1-outside-1_267_2)"/>
<mask id="path-3-outside-2_267_2" maskUnits="userSpaceOnUse" x="126.637" y="22.6858" width="55" height="117" fill="black">
<rect fill="white" x="126.637" y="22.6858" width="55" height="117"/>
<path d="M156.213 25.6858C163.475 32.9478 169.235 41.5696 173.165 51.0579C176.166 58.3037 178.054 65.9469 178.779 73.7288H167.831C164.269 73.7288 161.381 76.6168 161.381 80.179C161.381 83.7411 164.269 86.6292 167.831 86.6292H178.913C178.31 94.9671 176.373 103.167 173.165 110.913C169.235 120.401 163.474 129.023 156.213 136.284L129.637 109.71C133.41 105.938 136.403 101.459 138.444 96.5305C140.485 91.6022 141.536 86.32 141.536 80.9856C141.536 75.651 140.486 70.3682 138.444 65.4397C136.403 60.5111 133.41 56.0332 129.637 52.261L156.213 25.6858Z"/>
</mask>
<path d="M156.213 25.6858C163.475 32.9478 169.235 41.5696 173.165 51.0579C176.166 58.3037 178.054 65.9469 178.779 73.7288H167.831C164.269 73.7288 161.381 76.6168 161.381 80.179C161.381 83.7411 164.269 86.6292 167.831 86.6292H178.913C178.31 94.9671 176.373 103.167 173.165 110.913C169.235 120.401 163.474 129.023 156.213 136.284L129.637 109.71C133.41 105.938 136.403 101.459 138.444 96.5305C140.485 91.6022 141.536 86.32 141.536 80.9856C141.536 75.651 140.486 70.3682 138.444 65.4397C136.403 60.5111 133.41 56.0332 129.637 52.261L156.213 25.6858Z" fill="#E1E1E1"/>
<path d="M156.213 25.6858L157.627 24.2716L156.213 22.8574L154.798 24.2716L156.213 25.6858ZM173.165 51.0579L175.013 50.2925L175.013 50.2925L173.165 51.0579ZM178.779 73.7288V75.7288H180.974L180.77 73.5432L178.779 73.7288ZM161.381 80.179L159.381 80.1789V80.179H161.381ZM178.913 86.6292L180.908 86.7735L181.063 84.6292H178.913V86.6292ZM173.165 110.913L175.013 111.679L175.013 111.679L173.165 110.913ZM156.213 136.284L154.798 137.699L156.213 139.113L157.627 137.699L156.213 136.284ZM129.637 109.71L128.223 108.296L126.809 109.71L128.223 111.124L129.637 109.71ZM138.444 96.5305L140.292 97.2959L140.292 97.2959L138.444 96.5305ZM141.536 80.9856L143.536 80.9856L143.536 80.9856L141.536 80.9856ZM138.444 65.4397L140.292 64.6743L140.292 64.6743L138.444 65.4397ZM129.637 52.261L128.223 50.8468L126.809 52.261L128.223 53.6752L129.637 52.261ZM156.213 25.6858L154.798 27.1C161.875 34.1762 167.487 42.5776 171.317 51.8232L173.165 51.0579L175.013 50.2925C170.982 40.5617 165.075 31.7193 157.627 24.2716L156.213 25.6858ZM173.165 51.0579L171.317 51.8232C174.242 58.8836 176.081 66.3313 176.788 73.9143L178.779 73.7288L180.77 73.5432C180.027 65.5626 178.091 57.7239 175.013 50.2925L173.165 51.0579ZM178.779 73.7288V71.7288H167.831V73.7288V75.7288H178.779V73.7288ZM167.831 73.7288V71.7288C163.164 71.7288 159.381 75.5123 159.381 80.1789L161.381 80.179L163.381 80.179C163.381 77.7214 165.373 75.7288 167.831 75.7288V73.7288ZM161.381 80.179H159.381C159.381 84.8457 163.164 88.6292 167.831 88.6292V86.6292V84.6292C165.373 84.6292 163.381 82.6366 163.381 80.179H161.381ZM167.831 86.6292V88.6292H178.913V86.6292V84.6292H167.831V86.6292ZM178.913 86.6292L176.918 86.4848C176.33 94.6097 174.443 102.6 171.317 110.148L173.165 110.913L175.013 111.679C178.303 103.735 180.289 95.3245 180.908 86.7735L178.913 86.6292ZM173.165 110.913L171.317 110.148C167.487 119.393 161.874 127.794 154.798 134.87L156.213 136.284L157.627 137.699C165.074 130.251 170.982 121.409 175.013 111.679L173.165 110.913ZM156.213 136.284L157.627 134.87L131.052 108.296L129.637 109.71L128.223 111.124L154.798 137.699L156.213 136.284ZM129.637 109.71L131.052 111.124C135.01 107.167 138.15 102.467 140.292 97.2959L138.444 96.5305L136.596 95.7652C134.655 100.451 131.81 104.71 128.223 108.296L129.637 109.71ZM138.444 96.5305L140.292 97.2959C142.434 92.1248 143.536 86.5825 143.536 80.9856L141.536 80.9856L139.536 80.9856C139.536 86.0574 138.537 91.0795 136.596 95.7652L138.444 96.5305ZM141.536 80.9856L143.536 80.9856C143.536 75.3885 142.434 69.8456 140.292 64.6743L138.444 65.4397L136.596 66.2051C138.537 70.8908 139.536 75.9136 139.536 80.9856L141.536 80.9856ZM138.444 65.4397L140.292 64.6743C138.15 59.5029 135.009 54.8045 131.052 50.8468L129.637 52.261L128.223 53.6752C131.81 57.2618 134.655 61.5193 136.596 66.2051L138.444 65.4397ZM129.637 52.261L131.052 53.6752L157.627 27.1L156.213 25.6858L154.798 24.2716L128.223 50.8468L129.637 52.261Z" fill="#F5F5F5" mask="url(#path-3-outside-2_267_2)"/>
<path d="M2.24143 158.545H9.8604L16.3235 174.305H16.6218L23.0848 158.545H30.7038V184H24.713V168.364H24.5017L18.3867 183.838H14.5586L8.44349 168.277H8.2322V184H2.24143V158.545ZM58.5665 171.273C58.5665 174.073 58.0279 176.447 56.9507 178.395C55.8735 180.342 54.4152 181.821 52.5757 182.832C50.7445 183.843 48.6896 184.348 46.4109 184.348C44.124 184.348 42.0649 183.838 40.2337 182.819C38.4025 181.8 36.9483 180.321 35.8711 178.382C34.8022 176.435 34.2678 174.065 34.2678 171.273C34.2678 168.472 34.8022 166.098 35.8711 164.151C36.9483 162.204 38.4025 160.725 40.2337 159.714C42.0649 158.703 44.124 158.197 46.4109 158.197C48.6896 158.197 50.7445 158.703 52.5757 159.714C54.4152 160.725 55.8735 162.204 56.9507 164.151C58.0279 166.098 58.5665 168.472 58.5665 171.273ZM52.2774 171.273C52.2774 169.616 52.0412 168.215 51.5689 167.072C51.1049 165.928 50.4338 165.062 49.5554 164.474C48.6854 163.886 47.6372 163.592 46.4109 163.592C45.1929 163.592 44.1447 163.886 43.2664 164.474C42.3881 165.062 41.7128 165.928 41.2405 167.072C40.7764 168.215 40.5444 169.616 40.5444 171.273C40.5444 172.93 40.7764 174.33 41.2405 175.474C41.7128 176.617 42.3881 177.483 43.2664 178.071C44.1447 178.66 45.1929 178.954 46.4109 178.954C47.6372 178.954 48.6854 178.66 49.5554 178.071C50.4338 177.483 51.1049 176.617 51.5689 175.474C52.0412 174.33 52.2774 172.93 52.2774 171.273ZM71.5672 184H62.1584V158.545H71.5547C74.1482 158.545 76.3813 159.055 78.254 160.074C80.1349 161.085 81.5849 162.543 82.6041 164.449C83.6233 166.347 84.1329 168.617 84.1329 171.26C84.1329 173.912 83.6233 176.19 82.6041 178.096C81.5932 180.002 80.1473 181.464 78.2664 182.484C76.3855 183.495 74.1524 184 71.5672 184ZM68.3108 178.755H71.331C72.7562 178.755 73.9618 178.515 74.9478 178.034C75.9422 177.545 76.692 176.754 77.1975 175.66C77.7112 174.558 77.9681 173.092 77.9681 171.26C77.9681 169.429 77.7112 167.971 77.1975 166.885C76.6838 165.792 75.9256 165.004 74.923 164.524C73.9287 164.035 72.7023 163.79 71.244 163.79H68.3108V178.755ZM87.7248 184V158.545H105.473V163.542H93.8772V168.762H104.566V173.771H93.8772V179.004H105.473V184H87.7248ZM109.326 184V158.545H119.841C121.747 158.545 123.392 158.889 124.776 159.577C126.168 160.257 127.241 161.234 127.995 162.51C128.749 163.778 129.126 165.282 129.126 167.022C129.126 168.787 128.74 170.287 127.97 171.521C127.199 172.748 126.106 173.684 124.689 174.33C123.272 174.968 121.594 175.287 119.655 175.287H113.005V170.44H118.511C119.439 170.44 120.214 170.32 120.836 170.08C121.465 169.831 121.942 169.458 122.265 168.961C122.588 168.455 122.75 167.809 122.75 167.022C122.75 166.235 122.588 165.584 122.265 165.071C121.942 164.549 121.465 164.159 120.836 163.902C120.206 163.637 119.431 163.505 118.511 163.505H115.479V184H109.326ZM123.657 172.366L129.996 184H123.284L117.07 172.366H123.657ZM138.006 184H131.394L139.982 158.545H148.173L156.762 184H150.149L144.171 164.959H143.972L138.006 184ZM137.124 173.982H150.945V178.656H137.124V173.982ZM155.491 163.542V158.545H177.005V163.542H169.287V184H163.222V163.542H155.491ZM180.01 184V158.545H197.759V163.542H186.162V168.762H196.851V173.771H186.162V179.004H197.759V184H180.01Z" fill="black"/>
<mask id="path-6-outside-3_267_2" maskUnits="userSpaceOnUse" x="42.4878" y="0" width="117" height="56" fill="black">
<rect fill="white" x="42.4878" width="117" height="56"/>
<path d="M106.635 3C114.903 3.62001 123.033 5.55113 130.715 8.7334C140.203 12.6635 148.825 18.4238 156.086 25.6855L129.512 52.2607C125.74 48.4886 121.261 45.4956 116.333 43.4541C111.404 41.4128 106.122 40.3624 100.788 40.3623C95.4531 40.3623 90.1702 41.4127 85.2417 43.4541C80.3132 45.4956 75.8351 48.4886 72.063 52.2607L45.4878 25.6855C52.7497 18.4236 61.3717 12.6635 70.8599 8.7334C78.1693 5.70576 85.8833 3.81063 93.7358 3.09961V14.0674C93.7358 17.6295 96.6239 20.5176 100.186 20.5176C103.748 20.5174 106.635 17.6294 106.635 14.0674V3Z"/>
</mask>
<path d="M106.635 3C114.903 3.62001 123.033 5.55113 130.715 8.7334C140.203 12.6635 148.825 18.4238 156.086 25.6855L129.512 52.2607C125.74 48.4886 121.261 45.4956 116.333 43.4541C111.404 41.4128 106.122 40.3624 100.788 40.3623C95.4531 40.3623 90.1702 41.4127 85.2417 43.4541C80.3132 45.4956 75.8351 48.4886 72.063 52.2607L45.4878 25.6855C52.7497 18.4236 61.3717 12.6635 70.8599 8.7334C78.1693 5.70576 85.8833 3.81063 93.7358 3.09961V14.0674C93.7358 17.6295 96.6239 20.5176 100.186 20.5176C103.748 20.5174 106.635 17.6294 106.635 14.0674V3Z" fill="#348BD9"/>
<path d="M106.635 3L106.785 1.0056L104.635 0.844402V3H106.635ZM130.715 8.7334L131.481 6.88564L131.481 6.88564L130.715 8.7334ZM156.086 25.6855L157.501 27.0997L158.915 25.6855L157.501 24.2713L156.086 25.6855ZM129.512 52.2607L128.098 53.675L129.512 55.0892L130.926 53.6749L129.512 52.2607ZM116.333 43.4541L117.098 41.6063L117.098 41.6063L116.333 43.4541ZM100.788 40.3623L100.788 38.3623L100.788 38.3623L100.788 40.3623ZM85.2417 43.4541L84.4763 41.6063L84.4763 41.6063L85.2417 43.4541ZM72.063 52.2607L70.6488 53.675L72.063 55.0892L73.4772 53.675L72.063 52.2607ZM45.4878 25.6855L44.0736 24.2713L42.6594 25.6855L44.0736 27.0998L45.4878 25.6855ZM70.8599 8.7334L70.0945 6.88564L70.0945 6.88564L70.8599 8.7334ZM93.7358 3.09961H95.7358V0.910336L93.5555 1.10776L93.7358 3.09961ZM93.7358 14.0674L95.7358 14.0674V14.0674H93.7358ZM100.186 20.5176L100.186 22.5176L100.186 22.5176L100.186 20.5176ZM106.635 14.0674L108.635 14.0674V14.0674H106.635ZM106.635 3L106.486 4.9944C114.542 5.59856 122.464 7.48031 129.95 10.5812L130.715 8.7334L131.481 6.88564C123.601 3.62194 115.264 1.64145 106.785 1.0056L106.635 3ZM130.715 8.7334L129.95 10.5812C139.195 14.4108 147.596 20.0237 154.672 27.0998L156.086 25.6855L157.501 24.2713C150.053 16.8238 141.211 10.9162 131.481 6.88564L130.715 8.7334ZM156.086 25.6855L154.672 24.2714L128.098 50.8466L129.512 52.2607L130.926 53.6749L157.501 27.0997L156.086 25.6855ZM129.512 52.2607L130.926 50.8465C126.969 46.8887 122.269 43.7483 117.098 41.6063L116.333 43.4541L115.567 45.3019C120.253 47.2428 124.512 50.0885 128.098 53.675L129.512 52.2607ZM116.333 43.4541L117.098 41.6063C111.927 39.4645 106.385 38.3624 100.788 38.3623L100.788 40.3623L100.788 42.3623C105.859 42.3624 110.882 43.3611 115.567 45.3019L116.333 43.4541ZM100.788 40.3623L100.788 38.3623C95.1905 38.3623 89.6476 39.4644 84.4763 41.6063L85.2417 43.4541L86.007 45.3019C90.6928 43.361 95.7156 42.3623 100.788 42.3623L100.788 40.3623ZM85.2417 43.4541L84.4763 41.6063C79.305 43.7484 74.6065 46.8888 70.6488 50.8465L72.063 52.2607L73.4772 53.675C77.0638 50.0884 81.3214 47.2427 86.0071 45.3019L85.2417 43.4541ZM72.063 52.2607L73.4772 50.8465L46.902 24.2713L45.4878 25.6855L44.0736 27.0998L70.6488 53.675L72.063 52.2607ZM45.4878 25.6855L46.902 27.0998C53.9782 20.0236 62.3796 14.4108 71.6252 10.5812L70.8599 8.7334L70.0945 6.88564C60.3638 10.9162 51.5213 16.8236 44.0736 24.2713L45.4878 25.6855ZM70.8599 8.7334L71.6252 10.5812C78.7476 7.63099 86.2643 5.7843 93.9162 5.09146L93.7358 3.09961L93.5555 1.10776C85.5022 1.83695 77.591 3.78053 70.0945 6.88564L70.8599 8.7334ZM93.7358 3.09961H91.7358V14.0674H93.7358H95.7358V3.09961H93.7358ZM93.7358 14.0674L91.7358 14.0674C91.7358 18.7341 95.5193 22.5176 100.186 22.5176L100.186 20.5176L100.186 18.5176C97.7284 18.5176 95.7358 16.525 95.7358 14.0674L93.7358 14.0674ZM100.186 20.5176L100.186 22.5176C104.853 22.5173 108.635 18.7337 108.635 14.0674L106.635 14.0674L104.635 14.0674C104.635 16.5252 102.643 18.5175 100.186 18.5176L100.186 20.5176ZM106.635 14.0674H108.635V3H106.635H104.635V14.0674H106.635Z" fill="#F5F5F5" mask="url(#path-6-outside-3_267_2)"/>
<path d="M104.621 80.7616C111.434 82.6464 116.436 88.8906 116.436 96.3036C116.436 105.209 109.217 112.428 100.312 112.429C91.4066 112.429 84.187 105.209 84.187 96.3036C84.187 89.5105 88.388 83.699 94.3335 81.3241L99.5054 28.58L104.621 80.7616Z" fill="black"/>
</svg>
