<svg width="2411" height="1779" xmlns="http://www.w3.org/2000/svg" xmlns:xlink="http://www.w3.org/1999/xlink" xml:space="preserve" overflow="hidden"><g transform="translate(-207 -653)"><path d="M2242.5 824.691C2242.5 815.749 2249.75 808.5 2258.69 808.5L2590.31 808.5C2599.25 808.5 2606.5 815.749 2606.5 824.691L2606.5 1153.31C2606.5 1162.25 2599.25 1169.5 2590.31 1169.5L2258.69 1169.5C2249.75 1169.5 2242.5 1162.25 2242.5 1153.31Z" stroke="#11BBD8" stroke-width="4.58333" stroke-miterlimit="8" fill="#FFFFFF" fill-rule="evenodd"/><text font-family="Inter,Inter_MSFontService,sans-serif" font-weight="700" font-size="50" transform="matrix(1 0 0 1 2272.7 976)">Aftermarket </text><text font-family="Inter,Inter_MSFontService,sans-serif" font-weight="700" font-size="50" transform="matrix(1 0 0 1 2280.42 1037)">and service</text><path d="M1840.5 824.691C1840.5 815.749 1847.75 808.5 1856.69 808.5L2188.31 808.5C2197.25 808.5 2204.5 815.749 2204.5 824.691L2204.5 1153.31C2204.5 1162.25 2197.25 1169.5 2188.31 1169.5L1856.69 1169.5C1847.75 1169.5 1840.5 1162.25 1840.5 1153.31Z" stroke="#07234B" stroke-width="4.58333" stroke-miterlimit="8" fill="#FFFFFF" fill-rule="evenodd"/><text font-family="Inter,Inter_MSFontService,sans-serif" font-weight="700" font-size="50" transform="matrix(1 0 0 1 1895.44 976)">Marketing </text><text font-family="Inter,Inter_MSFontService,sans-serif" font-weight="700" font-size="50" transform="matrix(1 0 0 1 1904.91 1037)">and sales</text><path d="M1437.5 824.691C1437.5 815.749 1444.75 808.5 1453.69 808.5L1786.31 808.5C1795.25 808.5 1802.5 815.749 1802.5 824.691L1802.5 1153.31C1802.5 1162.25 1795.25 1169.5 1786.31 1169.5L1453.69 1169.5C1444.75 1169.5 1437.5 1162.25 1437.5 1153.31Z" stroke="#11BBD8" stroke-width="4.58333" stroke-miterlimit="8" fill="#FFFFFF" fill-rule="evenodd"/><text font-family="Inter,Inter_MSFontService,sans-serif" font-weight="700" font-size="50" transform="matrix(1 0 0 1 1495.26 976)">Outbound</text><text font-family="Inter,Inter_MSFontService,sans-serif" font-weight="700" font-size="50" transform="matrix(1 0 0 1 1520.47 1037)">logistics </text><path d="M1035.5 824.691C1035.5 815.749 1042.75 808.5 1051.69 808.5L1384.31 808.5C1393.25 808.5 1400.5 815.749 1400.5 824.691L1400.5 1153.31C1400.5 1162.25 1393.25 1169.5 1384.31 1169.5L1051.69 1169.5C1042.75 1169.5 1035.5 1162.25 1035.5 1153.31Z" stroke="#07234B" stroke-width="4.58333" stroke-miterlimit="8" fill="#FFFFFF" fill-rule="evenodd"/><text font-family="Inter,Inter_MSFontService,sans-serif" font-weight="700" font-size="50" transform="matrix(1 0 0 1 1079.83 1006)">Operations</text><path d="M633.5 824.691C633.5 815.749 640.749 808.5 649.691 808.5L981.309 808.5C990.251 808.5 997.5 815.749 997.5 824.691L997.5 1153.31C997.5 1162.25 990.251 1169.5 981.309 1169.5L649.691 1169.5C640.749 1169.5 633.5 1162.25 633.5 1153.31Z" stroke="#11BBD8" stroke-width="4.58333" stroke-miterlimit="8" fill="#FFFFFF" fill-rule="evenodd"/><text font-family="Inter,Inter_MSFontService,sans-serif" font-weight="700" font-size="50" transform="matrix(1 0 0 1 713.245 976)">Inbound </text><text font-family="Inter,Inter_MSFontService,sans-serif" font-weight="700" font-size="50" transform="matrix(1 0 0 1 710.381 1037)">logistics </text><path d="M231.5 824.691C231.5 815.749 238.749 808.5 247.691 808.5L579.309 808.5C588.251 808.5 595.5 815.749 595.5 824.691L595.5 1153.31C595.5 1162.25 588.251 1169.5 579.309 1169.5L247.691 1169.5C238.749 1169.5 231.5 1162.25 231.5 1153.31Z" stroke="#07234B" stroke-width="4.58333" stroke-miterlimit="8" fill="#FFFFFF" fill-rule="evenodd"/><text font-family="Inter,Inter_MSFontService,sans-serif" font-weight="700" font-size="50" transform="matrix(1 0 0 1 334.553 1006)">Inputs</text><path d="M596 948 632 988.5 596 1029Z" fill="#07234B" fill-rule="evenodd"/><path d="M999 948 1034 988.5 999 1029Z" fill="#11BBD8" fill-rule="evenodd"/><path d="M1401 948 1437 988.5 1401 1029Z" fill="#07234B" fill-rule="evenodd"/><path d="M1803 948 1839 988.5 1803 1029Z" fill="#11BBD8" fill-rule="evenodd"/><path d="M2205 948 2241 988.5 2205 1029Z" fill="#07234B" fill-rule="evenodd"/><rect x="231.5" y="1209.5" width="364" height="434" stroke="#BFBFBF" stroke-width="4.58333" stroke-miterlimit="8" fill="none"/><text fill="#404040" font-family="Inter,Inter_MSFontService,sans-serif" font-weight="400" font-size="50" transform="matrix(1 0 0 1 245.751 1323)">Raw materials </text><text fill="#404040" font-family="Inter,Inter_MSFontService,sans-serif" font-weight="400" font-size="50" transform="matrix(1 0 0 1 252.626 1384)">(such as iron, </text><text fill="#404040" font-family="Inter,Inter_MSFontService,sans-serif" font-weight="400" font-size="50" transform="matrix(1 0 0 1 348.304 1444)">steel, </text><text fill="#404040" font-family="Inter,Inter_MSFontService,sans-serif" font-weight="400" font-size="50" transform="matrix(1 0 0 1 291.287 1505)">aluminum, </text><text fill="#404040" font-family="Inter,Inter_MSFontService,sans-serif" font-weight="400" font-size="50" transform="matrix(1 0 0 1 266.651 1565)">plastic, etc.)</text><rect x="633.5" y="1209.5" width="364" height="206" stroke="#BFBFBF" stroke-width="4.58333" stroke-miterlimit="8" fill="none"/><text fill="#404040" font-family="Inter,Inter_MSFontService,sans-serif" font-weight="400" font-size="50" transform="matrix(1 0 0 1 699.495 1300)">Receiving </text><text fill="#404040" font-family="Inter,Inter_MSFontService,sans-serif" font-weight="400" font-size="50" transform="matrix(1 0 0 1 741.891 1360)">inputs</text><rect x="633.5" y="1439.5" width="364" height="206" stroke="#BFBFBF" stroke-width="4.58333" stroke-miterlimit="8" fill="none"/><text fill="#404040" font-family="Inter,Inter_MSFontService,sans-serif" font-weight="400" font-size="50" transform="matrix(1 0 0 1 718.986 1530)">Material</text><text fill="#404040" font-family="Inter,Inter_MSFontService,sans-serif" font-weight="400" font-size="50" transform="matrix(1 0 0 1 712.959 1591)">handling</text><rect x="1034.5" y="1209.5" width="365" height="206" stroke="#BFBFBF" stroke-width="4.58333" stroke-miterlimit="8" fill="none"/><text fill="#404040" font-family="Inter,Inter_MSFontService,sans-serif" font-weight="400" font-size="50" transform="matrix(1 0 0 1 1122.44 1300)">Product </text><text fill="#404040" font-family="Inter,Inter_MSFontService,sans-serif" font-weight="400" font-size="50" transform="matrix(1 0 0 1 1060.29 1360)">development</text><rect x="1437.5" y="1209.5" width="365" height="206" stroke="#BFBFBF" stroke-width="4.58333" stroke-miterlimit="8" fill="none"/><text fill="#404040" font-family="Inter,Inter_MSFontService,sans-serif" font-weight="400" font-size="50" transform="matrix(1 0 0 1 1551.12 1300)">Order </text><text fill="#404040" font-family="Inter,Inter_MSFontService,sans-serif" font-weight="400" font-size="50" transform="matrix(1 0 0 1 1501.85 1360)">fulfillment</text><rect x="1840.5" y="1209.5" width="364" height="206" stroke="#BFBFBF" stroke-width="4.58333" stroke-miterlimit="8" fill="none"/><text fill="#404040" font-family="Inter,Inter_MSFontService,sans-serif" font-weight="400" font-size="50" transform="matrix(1 0 0 1 1942.71 1330)">Selling</text><rect x="2242.5" y="1209.5" width="364" height="434" stroke="#BFBFBF" stroke-width="4.58333" stroke-miterlimit="8" fill="none"/><text fill="#404040" font-family="Inter,Inter_MSFontService,sans-serif" font-weight="400" font-size="50" transform="matrix(1 0 0 1 2315.11 1293)">Electrical </text><text fill="#404040" font-family="Inter,Inter_MSFontService,sans-serif" font-weight="400" font-size="50" transform="matrix(1 0 0 1 2275.28 1354)">components </text><text fill="#404040" font-family="Inter,Inter_MSFontService,sans-serif" font-weight="400" font-size="50" transform="matrix(1 0 0 1 2378.98 1414)">and </text><text fill="#404040" font-family="Inter,Inter_MSFontService,sans-serif" font-weight="400" font-size="50" transform="matrix(1 0 0 1 2297.05 1475)">equipment  </text><text fill="#404040" font-family="Inter,Inter_MSFontService,sans-serif" font-weight="400" font-size="50" transform="matrix(1 0 0 1 2283.87 1535)">aftermarket </text><text fill="#404040" font-family="Inter,Inter_MSFontService,sans-serif" font-weight="400" font-size="50" transform="matrix(1 0 0 1 2285.89 1596)">and service</text><rect x="1437.5" y="1439.5" width="365" height="207" stroke="#BFBFBF" stroke-width="4.58333" stroke-miterlimit="8" fill="none"/><text fill="#404040" font-family="Inter,Inter_MSFontService,sans-serif" font-weight="400" font-size="50" transform="matrix(1 0 0 1 1462.89 1500)">Warehousing </text><text fill="#404040" font-family="Inter,Inter_MSFontService,sans-serif" font-weight="400" font-size="50" transform="matrix(1 0 0 1 1574.61 1561)">and </text><text fill="#404040" font-family="Inter,Inter_MSFontService,sans-serif" font-weight="400" font-size="50" transform="matrix(1 0 0 1 1484.39 1621)">distribution</text><rect x="1840.5" y="1437.5" width="364" height="206" stroke="#BFBFBF" stroke-width="4.58333" stroke-miterlimit="8" fill="none"/><text fill="#404040" font-family="Inter,Inter_MSFontService,sans-serif" font-weight="400" font-size="50" transform="matrix(1 0 0 1 1914.63 1558)">Branding</text><rect x="633.5" y="1669.5" width="364" height="206" stroke="#BFBFBF" stroke-width="4.58333" stroke-miterlimit="8" fill="none"/><text fill="#404040" font-family="Inter,Inter_MSFontService,sans-serif" font-weight="400" font-size="50" transform="matrix(1 0 0 1 658.532 1790)">Warehousing</text><rect x="229.5" y="1670.5" width="365" height="207" stroke="#BFBFBF" stroke-width="4.58333" stroke-miterlimit="8" fill="none"/><text fill="#404040" font-family="Inter,Inter_MSFontService,sans-serif" font-weight="400" font-size="50" transform="matrix(1 0 0 1 352.391 1791)">Land</text><rect x="229.5" y="1902.5" width="365" height="206" stroke="#BFBFBF" stroke-width="4.58333" stroke-miterlimit="8" fill="none"/><text fill="#404040" font-family="Inter,Inter_MSFontService,sans-serif" font-weight="400" font-size="50" transform="matrix(1 0 0 1 238.38 1992)">Manufacturing </text><text fill="#404040" font-family="Inter,Inter_MSFontService,sans-serif" font-weight="400" font-size="50" transform="matrix(1 0 0 1 287.376 2053)">machinery</text><rect x="1033.5" y="1440.5" width="365" height="207" stroke="#BFBFBF" stroke-width="4.58333" stroke-miterlimit="8" fill="none"/><text fill="#404040" font-family="Inter,Inter_MSFontService,sans-serif" font-weight="400" font-size="50" transform="matrix(1 0 0 1 1080.97 1531)">Design and </text><text fill="#404040" font-family="Inter,Inter_MSFontService,sans-serif" font-weight="400" font-size="50" transform="matrix(1 0 0 1 1058.93 1592)">development</text><rect x="1033.5" y="1672.5" width="365" height="206" stroke="#BFBFBF" stroke-width="4.58333" stroke-miterlimit="8" fill="none"/><text fill="#404040" font-family="Inter,Inter_MSFontService,sans-serif" font-weight="400" font-size="50" transform="matrix(1 0 0 1 1042.03 1793)">Manufacturing</text><rect x="1437.5" y="1670.5" width="365" height="206" stroke="#BFBFBF" stroke-width="4.58333" stroke-miterlimit="8" fill="none"/><text fill="#404040" font-family="Inter,Inter_MSFontService,sans-serif" font-weight="400" font-size="50" transform="matrix(1 0 0 1 1466.62 1761)">E</text><text fill="#404040" font-family="Inter,Inter_MSFontService,sans-serif" font-weight="400" font-size="50" transform="matrix(1 0 0 1 1496.98 1761)">-</text><text fill="#404040" font-family="Inter,Inter_MSFontService,sans-serif" font-weight="400" font-size="50" transform="matrix(1 0 0 1 1520.47 1761)">commerce </text><text fill="#404040" font-family="Inter,Inter_MSFontService,sans-serif" font-weight="400" font-size="50" transform="matrix(1 0 0 1 1501.84 1822)">fulfillment</text><rect x="633.5" y="1899.5" width="364" height="206" stroke="#BFBFBF" stroke-width="4.58333" stroke-miterlimit="8" fill="none"/><text fill="#404040" font-family="Inter,Inter_MSFontService,sans-serif" font-weight="400" font-size="50" transform="matrix(1 0 0 1 702.36 1990)">Inventory </text><text fill="#404040" font-family="Inter,Inter_MSFontService,sans-serif" font-weight="400" font-size="50" transform="matrix(1 0 0 1 731.281 2051)">control</text><rect x="633.5" y="2129.5" width="364" height="300" stroke="#BFBFBF" stroke-width="4.58333" stroke-miterlimit="8" fill="none"/><text fill="#404040" font-family="Inter,Inter_MSFontService,sans-serif" font-weight="400" font-size="50" transform="matrix(1 0 0 1 727.855 2206)">Vehicle </text><text fill="#404040" font-family="Inter,Inter_MSFontService,sans-serif" font-weight="400" font-size="50" transform="matrix(1 0 0 1 662.542 2267)">scheduling &amp; </text><text fill="#404040" font-family="Inter,Inter_MSFontService,sans-serif" font-weight="400" font-size="50" transform="matrix(1 0 0 1 698.361 2327)">returns to </text><text fill="#404040" font-family="Inter,Inter_MSFontService,sans-serif" font-weight="400" font-size="50" transform="matrix(1 0 0 1 707.23 2388)">suppliers</text><rect x="1033.5" y="1904.5" width="365" height="206" stroke="#BFBFBF" stroke-width="4.58333" stroke-miterlimit="8" fill="none"/><text fill="#404040" font-family="Inter,Inter_MSFontService,sans-serif" font-weight="400" font-size="50" transform="matrix(1 0 0 1 1092.17 1964)">Assembly, </text><text fill="#404040" font-family="Inter,Inter_MSFontService,sans-serif" font-weight="400" font-size="50" transform="matrix(1 0 0 1 1073.54 2025)">testing, and </text><text fill="#404040" font-family="Inter,Inter_MSFontService,sans-serif" font-weight="400" font-size="50" transform="matrix(1 0 0 1 1091.59 2085)">packaging</text><rect x="1437.5" y="1901.5" width="365" height="206" stroke="#BFBFBF" stroke-width="4.58333" stroke-miterlimit="8" fill="none"/><text fill="#404040" font-family="Inter,Inter_MSFontService,sans-serif" font-weight="400" font-size="50" transform="matrix(1 0 0 1 1484.67 1961)">Warehouse </text><text fill="#404040" font-family="Inter,Inter_MSFontService,sans-serif" font-weight="400" font-size="50" transform="matrix(1 0 0 1 1481.8 2022)">picking and </text><text fill="#404040" font-family="Inter,Inter_MSFontService,sans-serif" font-weight="400" font-size="50" transform="matrix(1 0 0 1 1525.64 2082)">packing</text><rect x="1437.5" y="2131.5" width="365" height="206" stroke="#BFBFBF" stroke-width="4.58333" stroke-miterlimit="8" fill="none"/><text fill="#404040" font-family="Inter,Inter_MSFontService,sans-serif" font-weight="400" font-size="50" transform="matrix(1 0 0 1 1450.58 2192)">Distribution of </text><text fill="#404040" font-family="Inter,Inter_MSFontService,sans-serif" font-weight="400" font-size="50" transform="matrix(1 0 0 1 1525.06 2252)">finished </text><text fill="#404040" font-family="Inter,Inter_MSFontService,sans-serif" font-weight="400" font-size="50" transform="matrix(1 0 0 1 1454.86 2313)">goods to POS </text><rect x="1840.5" y="1668.5" width="364" height="206" stroke="#BFBFBF" stroke-width="4.58333" stroke-miterlimit="8" fill="none"/><text fill="#404040" font-family="Inter,Inter_MSFontService,sans-serif" font-weight="400" font-size="50" transform="matrix(1 0 0 1 1885.99 1729)">Advertising </text><text fill="#404040" font-family="Inter,Inter_MSFontService,sans-serif" font-weight="400" font-size="50" transform="matrix(1 0 0 1 1976.78 1790)">and </text><text fill="#404040" font-family="Inter,Inter_MSFontService,sans-serif" font-weight="400" font-size="50" transform="matrix(1 0 0 1 1885.99 1850)">promotions</text><rect x="229.5" y="2133.5" width="364" height="206" stroke="#BFBFBF" stroke-width="4.58333" stroke-miterlimit="8" fill="none"/><text fill="#404040" font-family="Inter,Inter_MSFontService,sans-serif" font-weight="400" font-size="50" transform="matrix(1 0 0 1 342.138 2254)">Labor</text><rect x="1840.5" y="1899.5" width="364" height="206" stroke="#BFBFBF" stroke-width="4.58333" stroke-miterlimit="8" fill="none"/><text fill="#404040" font-family="Inter,Inter_MSFontService,sans-serif" font-weight="400" font-size="50" transform="matrix(1 0 0 1 1855.91 1990)">Training sales </text><text fill="#404040" font-family="Inter,Inter_MSFontService,sans-serif" font-weight="400" font-size="50" transform="matrix(1 0 0 1 1959.33 2051)">force</text><rect x="2242.5" y="1668.5" width="364" height="294" stroke="#BFBFBF" stroke-width="4.58333" stroke-miterlimit="8" fill="none"/><text fill="#404040" font-family="Inter,Inter_MSFontService,sans-serif" font-weight="400" font-size="50" transform="matrix(1 0 0 1 2307.35 1742)">Customer </text><text fill="#404040" font-family="Inter,Inter_MSFontService,sans-serif" font-weight="400" font-size="50" transform="matrix(1 0 0 1 2285.88 1803)">service and </text><text fill="#404040" font-family="Inter,Inter_MSFontService,sans-serif" font-weight="400" font-size="50" transform="matrix(1 0 0 1 2306.78 1863)">complaint </text><text fill="#404040" font-family="Inter,Inter_MSFontService,sans-serif" font-weight="400" font-size="50" transform="matrix(1 0 0 1 2309.94 1924)">follow</text><text fill="#404040" font-family="Inter,Inter_MSFontService,sans-serif" font-weight="400" font-size="50" transform="matrix(1 0 0 1 2454.32 1924)">-</text><text fill="#404040" font-family="Inter,Inter_MSFontService,sans-serif" font-weight="400" font-size="50" transform="matrix(1 0 0 1 2477.81 1924)">up</text><g><g><g><path d="M18.8907 34.8751C18.8907 35.6776 18.2401 36.3282 17.4375 36.3282 16.635 36.3282 15.9844 35.6776 15.9844 34.8751 15.9844 34.0725 16.635 33.4219 17.4375 33.4219 18.2401 33.4219 18.8907 34.0725 18.8907 34.8751Z" fill="#07234B" transform="matrix(1 0 0 1.06451 1975 663)"/><path d="M47.7425 68.9887 43.0765 71.6828C41.9758 72.3207 40.7261 72.6565 39.4539 72.6564 38.8159 72.6557 38.1809 72.5717 37.5648 72.4064 33.6887 71.3682 31.3883 67.3843 32.4265 63.5082 32.9253 61.6466 34.1431 60.0594 35.8123 59.0958L40.6077 56.3349 55.8713 36.9269 55.3366 24.6363C55.3114 23.8604 54.6728 23.2457 53.8965 23.25L47.9532 23.25 47.9532 30.7831C50.2231 31.5856 51.4127 34.0763 50.6101 36.3462 49.8075 38.6161 47.3169 39.8057 45.047 39.0033 42.777 38.2007 41.5875 35.7099 42.3901 33.44 42.8289 32.1985 43.8055 31.222 45.047 30.7831L45.047 23.25 18.8907 23.25 18.8907 30.7831C21.1606 31.5856 22.3501 34.0763 21.5476 36.3462 20.745 38.6161 18.2543 39.8057 15.9844 39.0033 13.7145 38.2007 12.5249 35.7099 13.3275 33.44 13.7664 32.1985 14.743 31.222 15.9844 30.7831L15.9844 23.25 10.0411 23.25C9.26776 23.2448 8.6301 23.8548 8.60106 24.6276L5.94184 85.6677C5.90491 86.4694 6.52489 87.1491 7.32658 87.1861 7.34985 87.1872 7.37313 87.1877 7.39642 87.1877L56.5412 87.1877C57.3438 87.1885 57.995 86.5385 57.9959 85.7361 57.9959 85.7133 57.9953 85.6905 57.9943 85.6677L57.724 79.2507Z" fill="#07234B" transform="matrix(1 0 0 1.06451 1975 663)"/><path d="M71.8005 82.1874 63.0657 75.5743C61.9821 74.8425 61.0533 73.9043 60.3324 72.8133L56.8609 67.6198 51.2533 68.4278 68.3726 86.0252C68.9449 86.5808 69.8569 86.5756 70.4229 86.0135L72.0214 84.4151C72.3326 84.1125 72.4888 83.6845 72.4457 83.2526 72.4014 82.8187 72.1645 82.4277 71.8005 82.1874Z" fill="#07234B" transform="matrix(1 0 0 1.06451 1975 663)"/><path d="M47.9532 34.8751C47.9532 35.6776 47.3026 36.3282 46.5001 36.3282 45.6975 36.3282 45.047 35.6776 45.047 34.8751 45.047 34.0725 45.6975 33.4219 46.5001 33.4219 47.3026 33.4219 47.9532 34.0725 47.9532 34.8751Z" fill="#07234B" transform="matrix(1 0 0 1.06451 1975 663)"/><path d="M67.6082 35.7063C66.683 34.1149 64.8563 33.2781 63.0468 33.6167L78.7595 60.8395C79.9723 59.4466 80.1611 57.4352 79.2289 55.8408Z" fill="#07234B" transform="matrix(1 0 0 1.06451 1975 663)"/><path d="M35.6685 67.5704C36.8705 69.6565 39.536 70.3732 41.6221 69.1713 41.6235 69.1705 41.6248 69.1697 41.6263 69.1689L45.4044 66.9892 41.045 59.4329 37.2669 61.6126C35.1808 62.8146 34.4641 65.4801 35.666 67.5662 35.6669 67.5677 35.6676 67.569 35.6685 67.5704Z" fill="#07234B" transform="matrix(1 0 0 1.06451 1975 663)"/><path d="M43.3206 57.5773 48.1494 65.9386 76.032 61.9221 60.7407 35.4374Z" fill="#07234B" transform="matrix(1 0 0 1.06451 1975 663)"/><path d="M18.8907 10.1719C18.8907 7.76428 20.8424 5.81251 23.25 5.81251L40.6876 5.81251C43.0953 5.81251 45.047 7.76428 45.047 10.1719L45.047 23.25 47.9532 23.25 47.9532 10.1719C47.9484 6.16119 44.6983 2.91107 40.6876 2.90626L23.25 2.90626C19.2393 2.91107 15.9892 6.16119 15.9844 10.1719L15.9844 23.25 18.8907 23.25Z" fill="#07234B" transform="matrix(1 0 0 1.06451 1975 663)"/><path d="M79.1543 39.8815 88.0169 39.8815 88.0169 42.8356 79.1543 42.8356Z" fill="#07234B" transform="matrix(0.851951 -0.523622 0.491888 0.906914 1965.67 712.57)"/><path d="M74.4691 33.0944 83.3187 33.0944 83.3187 36.0443 74.4691 36.0443Z" fill="#07234B" transform="matrix(0.49261 -0.908244 0.8532 0.52439 1984.37 752.792)"/><path d="M81.3606 46.4478 90.0794 46.4478 90.0794 49.354 81.3606 49.354Z" fill="#07234B" transform="matrix(1 0 0 1.06451 1975 663)"/></g></g></g><path d="M8.77224 36.3671C9.77335 37.3957 11.3982 37.3957 12.3983 36.3671L20.417 28.1264C21.1532 27.3726 21.3716 26.2379 20.9741 25.253 20.5787 24.2684 19.6415 23.6256 18.6037 23.6256L13.6942 23.6256 13.6942 3.20161C13.6942 1.43322 12.3004 0 10.5788 0 8.85716 0 7.46471 1.43322 7.46471 3.20161L7.46471 23.6256 2.56376 23.6256C1.52698 23.6256 0.593467 24.2684 0.194652 25.253-0.201446 26.2379 0.0180044 27.3726 0.750751 28.1264L8.77224 36.3671Z" fill="#07234B" fill-rule="evenodd" transform="matrix(-1 0 0 1 424 665)"/><path d="M24.4811 28.0233C25.8895 28.0233 27.0281 26.8404 27.0281 25.3825L27.0312 13.7062C27.0312 12.6377 26.4087 11.6746 25.457 11.2656 24.5057 10.8573 23.4126 11.084 22.6809 11.8397L19.2347 15.4135 5.28107 0.939731C4.07298-0.313127 2.11459-0.313127 0.906493 0.939731-0.302277 2.19294-0.302277 4.22354 0.906493 5.4764L14.8628 19.9502 11.4217 23.5185C10.6937 24.2731 10.4768 25.4088 10.8729 26.3957 11.2655 27.3844 12.1953 28.0264 13.226 28.0264L24.4811 28.0233Z" fill="#07234B" fill-rule="evenodd" transform="matrix(-1 0 0 1 459 681)"/><path d="M26.1216 0.940081C24.9132-0.313477 22.9548-0.313477 21.7464 0.940081L7.79071 15.4135 4.34725 11.8421C3.61889 11.0875 2.52583 10.8597 1.5738 11.2705 0.622434 11.6791 0 12.6423 0 13.7097L0.0026989 25.3906C0.0026989 26.8484 1.14197 28.031 2.54979 28.031L13.814 28.031C14.8443 28.031 15.7741 27.3872 16.1671 26.4003 16.5635 25.4137 16.3432 24.2777 15.6145 23.5216L12.1683 19.9481 26.122 5.4764C27.3294 4.22319 27.3294 2.19294 26.1216 0.940081Z" fill="#07234B" fill-rule="evenodd" transform="matrix(-1 0 0 1 394 681)"/><path d="M56.9959 17.7809C56.8584 17.7809 56.7306 17.7977 56.5924 17.8011 54.6364 7.66636 45.5469 0 34.6054 0 22.2376 0 12.2079 9.79315 12.2079 21.8762 12.2079 23.7195 12.468 25.4969 12.909 27.2068 12.6713 27.1928 12.4487 27.1381 12.2079 27.1381 5.46532 27.1381 0 32.4773 0 39.071 0 45.3892 4.89478 50.5882 11.2509 50.9999L56.9959 50.9999C66.3865 50.9999 73.9999 43.5629 73.9999 34.3894 74.0003 25.2168 66.3865 17.7809 56.9959 17.7809Z" fill="#07234B" fill-rule="evenodd" transform="matrix(-1 0 0 1 448 709)"/><path d="M767 708 784.758 708 784.758 721.398 787.06 720.25 789.034 721.398 791.336 720.25 793.966 721.398 795.94 720.25 797.913 721.398 797.913 708 816 708 816 757 767 757 767 708Z" fill="#11BBD8" fill-rule="evenodd"/><path d="M767 668 776.667 668 776.667 679.511 778.667 678.36 781.333 679.511 783.667 678.36 785.667 679.511 788.333 678.36 790.333 679.511 790.333 668 800 668 800 701 767 701 767 668Z" fill="#11BBD8" fill-rule="evenodd"/><path d="M821 715 835.326 715 835.326 727.716 837.605 726.56 839.884 727.716 842.163 726.56 844.442 727.716 846.721 726.56 848.674 727.33 848.674 715 863 715 863 757 821 757 821 715Z" fill="#11BBD8" fill-rule="evenodd"/><path d="M835.524 674 849.477 674 849.919 674 850.141 674.516 850.362 675.031 850.362 687.922 857.893 687.922 858.336 687.922 858.557 688.18 858.779 688.438 859 688.953 858.779 689.469 858.557 689.727 843.275 706.484 842.832 706.742 842.611 707 842.168 706.742 841.946 706.484 826.222 689.727 826 689.469 826 688.953 826 688.438 826.222 688.18 826.664 687.922 826.886 687.922 834.638 687.922 834.638 675.031 834.638 674.516 835.081 674 835.524 674Z" fill="#11BBD8" fill-rule="evenodd"/><path d="M1270.03 709.086C1270.03 707.934 1269.17 707 1268.11 707L1247 707 1247 732.033 1270.03 732.033Z" fill="#07234B" fill-rule="evenodd"/><path d="M1243.03 707 1221.92 707C1220.86 707 1220 707.934 1220 709.086L1220 732.033 1243.03 732.033Z" fill="#07234B" fill-rule="evenodd"/><path d="M1256.03 680.086C1256.03 678.935 1255.17 678.004 1254.11 678L1234.92 678C1233.86 678.004 1233 678.935 1233 680.086L1233 703.033 1256.03 703.033ZM1249.72 691.998C1248.96 692.804 1247.75 692.804 1246.99 691.998L1246.43 691.392 1246.43 696.775C1246.43 697.927 1245.58 698.861 1244.52 698.861 1243.46 698.861 1242.6 697.927 1242.6 696.775L1242.6 691.392 1242.04 691.998C1241.29 692.81 1240.07 692.807 1239.32 691.991 1238.57 691.176 1238.57 689.854 1239.31 689.035L1243.15 684.863C1243.91 684.05 1245.12 684.05 1245.88 684.863L1249.72 689.035C1250.46 689.855 1250.46 691.178 1249.72 691.998Z" fill="#07234B" fill-rule="evenodd"/><path d="M1267.68 736 1180.39 736C1174.1 736 1169 741.379 1169 748.015 1169 754.652 1174.1 760.031 1180.39 760.031L1267.68 760.031C1273.97 760.031 1279.07 754.652 1279.07 748.015 1279.07 741.379 1273.97 736 1267.68 736ZM1186.08 752.021C1183.98 752.021 1182.28 750.228 1182.28 748.015 1182.28 745.803 1183.98 744.01 1186.08 744.01 1188.18 744.01 1189.88 745.803 1189.88 748.015 1189.88 750.228 1188.18 752.021 1186.08 752.021ZM1201.26 752.021C1199.17 752.021 1197.47 750.228 1197.47 748.015 1197.47 745.803 1199.17 744.01 1201.26 744.01 1203.36 744.01 1205.06 745.803 1205.06 748.015 1205.06 750.228 1203.36 752.021 1201.26 752.021ZM1216.44 752.021C1214.35 752.021 1212.65 750.228 1212.65 748.015 1212.65 745.803 1214.35 744.01 1216.44 744.01 1218.54 744.01 1220.24 745.803 1220.24 748.015 1220.24 750.228 1218.54 752.021 1216.44 752.021ZM1231.63 752.021C1229.53 752.021 1227.83 750.228 1227.83 748.015 1227.83 745.803 1229.53 744.01 1231.63 744.01 1233.72 744.01 1235.42 745.803 1235.42 748.015 1235.42 750.228 1233.72 752.021 1231.63 752.021ZM1246.81 752.021C1244.71 752.021 1243.01 750.228 1243.01 748.015 1243.01 745.803 1244.71 744.01 1246.81 744.01 1248.9 744.01 1250.6 745.803 1250.6 748.015 1250.6 750.228 1248.9 752.021 1246.81 752.021ZM1261.99 752.021C1259.89 752.021 1258.2 750.228 1258.2 748.015 1258.2 745.803 1259.89 744.01 1261.99 744.01 1264.09 744.01 1265.79 745.803 1265.79 748.015 1265.79 750.228 1264.09 752.021 1261.99 752.021Z" fill="#07234B" fill-rule="evenodd"/><path d="M1185.56 683C1178.07 683 1172 689.519 1172 697.559 1172 705.6 1178.07 712.118 1185.56 712.118 1193.04 712.118 1199.11 705.6 1199.11 697.559 1199.1 689.523 1193.04 683.009 1185.56 683ZM1185.56 707.958C1180.21 707.958 1175.87 703.303 1175.87 697.559 1175.87 691.817 1180.21 687.16 1185.56 687.16 1190.9 687.16 1195.24 691.817 1195.24 697.559 1195.23 703.3 1190.9 707.952 1185.56 707.958Z" fill="#07234B" fill-rule="evenodd"/><path d="M1209.2 719.172 1214.94 708.591C1215.46 707.616 1215.15 706.373 1214.24 705.808L1208.13 702.052C1208.66 699.101 1208.66 696.071 1208.14 693.121L1214.23 689.368C1214.67 689.101 1215 688.658 1215.13 688.135 1215.26 687.613 1215.2 687.055 1214.94 686.586L1209.2 676C1208.95 675.535 1208.53 675.196 1208.05 675.058 1207.56 674.921 1207.04 674.996 1206.6 675.267L1200.51 679.02C1198.36 677.07 1195.89 675.552 1193.23 674.541L1193.23 667.042C1193.24 666.503 1193.04 665.987 1192.68 665.604 1192.33 665.222 1191.84 665.006 1191.34 665.005L1179.87 665C1179.36 665.001 1178.87 665.217 1178.51 665.603 1178.16 665.987 1177.96 666.508 1177.96 667.05L1177.96 674.549C1175.3 675.543 1172.84 677.059 1170.71 679.02L1164.6 675.264C1163.69 674.705 1162.52 675.037 1161.99 676.009L1156.26 686.59C1155.74 687.564 1156.05 688.807 1156.96 689.371L1163.07 693.129C1162.54 696.08 1162.54 699.108 1163.06 702.06L1156.97 705.812C1156.53 706.079 1156.2 706.523 1156.07 707.045 1155.93 707.568 1156 708.125 1156.25 708.594L1161.99 719.18C1162.25 719.645 1162.66 719.984 1163.15 720.122 1163.64 720.259 1164.16 720.184 1164.6 719.913L1170.69 716.159C1172.84 718.111 1175.31 719.629 1177.97 720.64L1177.96 728.138C1177.96 728.677 1178.16 729.194 1178.52 729.576 1178.87 729.957 1179.36 730.174 1179.86 730.176L1191.33 730.18C1191.84 730.179 1192.32 729.962 1192.68 729.578 1193.04 729.193 1193.24 728.672 1193.23 728.13L1193.24 720.631C1195.9 719.637 1198.36 718.121 1200.49 716.16L1206.6 719.916C1207.51 720.476 1208.68 720.143 1209.2 719.172ZM1185.6 715.917C1176.1 715.917 1168.4 707.713 1168.4 697.59 1168.4 687.469 1176.1 679.263 1185.6 679.263 1195.09 679.263 1202.79 687.469 1202.79 697.59 1202.78 707.708 1195.09 715.907 1185.6 715.917Z" fill="#07234B" fill-rule="evenodd"/><g><g><g><path d="M86.9501 69.375C80.8284 69.375 75.8501 74.3533 75.8501 80.475 75.8501 86.5967 80.8284 91.575 86.9501 91.575 93.0718 91.575 98.0501 86.5967 98.0501 80.475 98.0501 74.3533 93.0716 69.375 86.9501 69.375ZM86.9501 87.875C82.8689 87.875 79.5502 84.556 79.5502 80.475 79.5502 76.394 82.8691 73.0751 86.9501 73.0751 91.0313 73.0751 94.35 76.394 94.35 80.475 94.35 84.556 91.0311 87.875 86.9501 87.875Z" fill="#11BBD8" transform="matrix(1 0 0 1.07207 1564 653)"/><path d="M24.0499 69.375C17.9282 69.375 12.9499 74.3533 12.9499 80.475 12.9499 86.5967 17.9282 91.575 24.0499 91.575 30.1716 91.575 35.1499 86.5967 35.1499 80.475 35.1499 74.3533 30.1716 69.375 24.0499 69.375ZM24.0499 87.875C19.9687 87.875 16.65 84.556 16.65 80.475 16.65 76.394 19.9689 73.0751 24.0499 73.0751 28.1309 73.0751 31.4499 76.394 31.4499 80.475 31.4499 84.556 28.1311 87.875 24.0499 87.875Z" fill="#11BBD8" transform="matrix(1 0 0 1.07207 1564 653)"/><path d="M107.3 60.1249 110.075 60.1249C110.586 60.1249 111 59.7106 111 59.1999L111 57.3499C111 56.8394 110.586 56.4249 110.075 56.4249L85.0999 56.4249C84.0788 56.4249 83.25 55.5961 83.25 54.5749L83.25 36.9999C83.25 36.4893 82.8357 36.0748 82.325 36.0748L77.7 36.0748C76.6789 36.0748 75.8501 36.9036 75.8501 37.9247L75.8501 65.6747 72.15 65.6747C72.15 51.7054 72.15 26.8247 72.15 26.8247 72.15 22.7435 68.8311 19.4248 64.7501 19.4248L3.70007 19.4248C2.67896 19.4248 1.85015 20.2536 1.85015 21.2747L1.85015 36.9996C1.85015 37.5102 2.26444 37.9247 2.77522 37.9247L52.5013 37.9247C53.3245 37.9247 53.739 36.9277 53.1562 36.3449L50.4942 33.6829C49.7707 32.9594 49.7707 31.7902 50.4942 31.067 51.2176 30.3438 52.3868 30.3438 53.11 31.067L60.51 38.4669C61.2315 39.1884 61.2315 40.3613 60.51 41.0828L53.11 48.4827C52.7473 48.8435 52.2739 49.0247 51.8002 49.0247 51.3265 49.0247 50.853 48.8435 50.4922 48.4827 49.7688 47.7593 49.7688 46.5901 50.4922 45.8669L53.1543 43.2048C53.737 42.6221 53.3245 41.625 52.5013 41.625L2.775 41.625C2.26444 41.625 1.84993 42.0393 1.84993 42.5501L1.84993 55.5C1.84993 56.0106 2.26423 56.4251 2.775 56.4251L5.55 56.4251C6.57112 56.4251 7.39993 57.2539 7.39993 58.275 7.39993 59.2961 6.57112 60.1249 5.55 60.1249L2.775 60.1249C2.26444 60.1249 1.84993 60.5392 1.84993 61.05L1.84993 63.825C0.828815 63.825 3.85109e-16 64.6538 3.85109e-16 65.6749L3.85109e-16 74.9268C3.85109e-16 75.4189 0.19425 75.8887 0.541992 76.2366 0.889735 76.5826 1.35975 76.7769 1.84993 76.7769L1.85188 76.7769 7.39993 76.7752C7.39993 76.7752 9.24986 76.7752 10.1897 75.273 13.6326 66.0988 25.6557 61.7754 35.148 70.1613 36.6816 71.5154 37.4124 73.4636 37.9729 75.4302 38.2005 76.2312 38.9294 76.7752 39.7525 76.7752L70.2997 76.7752C71.3208 76.7752 72.1496 75.9464 72.1496 74.9252 72.1496 74.9235 72.1496 74.9196 72.1496 74.9159 72.1496 74.8012 72.1496 72.6625 72.1496 69.3752L76.4842 69.3752C76.9209 69.3752 77.3388 69.2124 77.6794 68.9386 82.2064 65.294 88.3484 64.5855 94.3869 67.4124 97.6891 68.959 99.6852 72.1132 100.91 75.5487 101.173 76.2832 101.87 76.7754 102.653 76.7754L109.15 76.7754C110.171 76.7754 111 75.9466 111 74.9255L111 64.7505C111 64.24 110.586 63.8255 110.075 63.8255L107.3 63.8255C106.279 63.8255 105.45 62.9966 105.45 61.9755 105.45 60.9538 106.279 60.1249 107.3 60.1249Z" fill="#11BBD8" transform="matrix(1 0 0 1.07207 1564 653)"/><path d="M110.874 51.3505 102.422 37.0259C102.076 36.4394 101.419 36.075 100.705 36.075L87.9324 36.075C87.3904 36.075 86.9501 36.4893 86.9501 37.0001L86.9501 51.8002C86.9501 52.3107 87.3904 52.7252 87.9324 52.7252L110.016 52.7252C110.765 52.725 111.239 51.9664 110.874 51.3505Z" fill="#11BBD8" transform="matrix(1 0 0 1.07207 1564 653)"/></g></g></g><path d="M2437.67 715C2436.39 721.838 2430.65 727 2424 727 2417.35 727 2411.79 721.838 2410.51 715L2405 715C2406.35 725.15 2414.31 733 2424 733 2433.68 733 2441.83 725.15 2443.18 715L2437.67 715Z" fill="#11BBD8" fill-rule="evenodd"/><path d="M2448.17 715C2446.8 728.128 2436.45 738.403 2424 738.403 2411.55 738.403 2401.38 728.128 2400.01 715L2378 715 2378 717.925C2378 719.185 2378.74 720.305 2379.85 720.702L2390.94 724.63C2391.4 726.064 2391.89 727.37 2392.42 728.575L2387.3 739.734C2386.79 740.859 2386.99 742.216 2387.81 743.105L2395.41 751.352C2396.23 752.246 2397.48 752.458 2398.52 751.903L2408.8 746.35C2409.91 746.921 2411.11 747.455 2412.43 747.961L2416.05 759.997C2416.42 761.192 2417.45 762 2418.61 762L2429.57 762C2430.73 762 2431.76 761.192 2432.13 759.997L2435.75 747.961C2437.07 747.455 2438.27 746.921 2439.38 746.35L2449.66 751.903C2450.7 752.46 2451.95 752.246 2452.77 751.352L2460.37 743.105C2461.19 742.216 2461.39 740.859 2460.88 739.734L2455.76 728.575C2456.29 727.37 2456.78 726.064 2457.24 724.63L2468.15 720.702C2469.25 720.305 2470 719.185 2470 717.925L2470 715 2448.17 715Z" fill="#11BBD8" fill-rule="evenodd"/><path d="M2416 715C2417.17 718.484 2420.27 721 2423.95 721 2427.63 721 2430.92 718.484 2432.09 715L2416 715Z" fill="#11BBD8" fill-rule="evenodd"/><path d="M2423.91 663C2417.89 663 2413 668.158 2413 674.5 2413 680.843 2417.89 686 2423.91 686 2429.93 686 2435 680.843 2435 674.5 2435 668.158 2429.93 663 2423.91 663Z" fill="#11BBD8" fill-rule="evenodd"/><path d="M2451 663C2444.93 663 2440 668.158 2440 674.5 2440 680.843 2444.93 686 2451 686 2457.07 686 2462 680.843 2462 674.5 2462 668.158 2457.07 663 2451 663Z" fill="#11BBD8" fill-rule="evenodd"/><path d="M2397 663C2390.93 663 2386 668.158 2386 674.5 2386 680.843 2390.93 686 2397 686 2403.07 686 2408 680.843 2408 674.5 2408 668.158 2403.07 663 2397 663Z" fill="#11BBD8" fill-rule="evenodd"/><path d="M2460.52 689C2457.93 690.984 2454.79 692.163 2451.4 692.163 2448.03 692.163 2444.9 690.996 2442.32 689.028 2441.15 689.769 2440.02 690.602 2439 691.607 2444.2 695.887 2447.81 702.571 2448.57 710.023L2470.11 710.023 2470.11 707.079C2470.11 699.381 2466.21 692.537 2460.52 689Z" fill="#11BBD8" fill-rule="evenodd"/><path d="M2423.99 692C2414.34 692 2406.33 699.949 2405 710L2443.16 710C2441.82 699.949 2433.64 692 2423.99 692Z" fill="#11BBD8" fill-rule="evenodd"/><path d="M2405.81 689.028C2403.24 690.996 2400.13 692.163 2396.78 692.163 2393.41 692.163 2390.29 690.984 2387.71 689 2382.05 692.537 2378 699.381 2378 707.079L2378 710.023 2399.6 710.023C2400.36 702.571 2403.94 695.887 2409.11 691.607 2408.1 690.602 2406.98 689.769 2405.81 689.028Z" fill="#11BBD8" fill-rule="evenodd"/></g></svg>