<svg width="2865" height="1281" xmlns="http://www.w3.org/2000/svg" xmlns:xlink="http://www.w3.org/1999/xlink" xml:space="preserve" overflow="hidden"><g transform="translate(-10 -712)"><path d="M1419 1214C1781.85 1214 2076 1508.15 2076 1871L2076 1871 1837.86 1871C1837.86 1639.67 1650.33 1452.14 1419 1452.14 1187.67 1452.14 1000.14 1639.67 1000.14 1871L762 1871 762 1871C762 1508.15 1056.15 1214 1419 1214Z" fill="#D9D9D9" fill-rule="evenodd" fill-opacity="0.501961"/><path d="M810 1871C810 1742.43 850.732 1617.02 926.251 1513L1148 1674.09C1106.38 1731.29 1083.99 1800.26 1083.99 1871L810 1871Z" fill="#07234B" fill-rule="evenodd"/><path d="M927 1512.66C1002.62 1408.36 1109.11 1330.8 1231.4 1291L1316 1552.08C1248.85 1574 1190.17 1616.71 1148.69 1674L927 1512.66Z" fill="#264175" fill-rule="evenodd"/><path d="M1231 1290.81C1353.54 1251 1485.46 1251 1608 1290.81L1523.22 1552C1455.81 1530.07 1383.19 1530.07 1315.78 1552L1231 1290.81Z" fill="#01549E" fill-rule="evenodd"/><path d="M1607.6 1291C1729.89 1330.8 1836.38 1408.36 1912 1512.66L1690.31 1674C1648.83 1616.71 1590.15 1574 1523 1552.08L1607.6 1291Z" fill="#11BBD8" fill-rule="evenodd"/><path d="M1911.75 1513C1987.27 1617.02 2028 1742.43 2028 1871L1754.01 1871C1754.01 1800.26 1731.62 1731.29 1690 1674.09L1911.75 1513Z" fill="#73CEEA" fill-rule="evenodd"/><path d="M1419.5 1452C1650.63 1452 1838 1639.59 1838 1871L1754.28 1871C1754.28 1781.99 1719.01 1696.66 1656.3 1633.65L1656.34 1633.59C1593.49 1570.7 1508.39 1535.33 1419.5 1535.33 1330.77 1535.33 1245.71 1570.7 1182.89 1633.59L1182.7 1633.65C1119.99 1696.66 1084.72 1781.99 1084.72 1871L1001 1871C1001 1639.59 1188.37 1452 1419.5 1452Z" fill="#000000" fill-rule="evenodd" fill-opacity="0.301961"/><text fill="#7F7F7F" font-family="Inter,Inter_MSFontService,sans-serif" font-weight="400" font-size="92" transform="matrix(1 0 0 1 65.695 1539)">01</text><text fill="#7F7F7F" font-family="Inter,Inter_MSFontService,sans-serif" font-weight="400" font-size="92" transform="matrix(1 0 0 1 417.271 1059)">02</text><text fill="#7F7F7F" font-family="Inter,Inter_MSFontService,sans-serif" font-weight="400" font-size="92" transform="matrix(1 0 0 1 1119.49 828)">03</text><text fill="#7F7F7F" font-family="Inter,Inter_MSFontService,sans-serif" font-weight="400" font-size="92" transform="matrix(1 0 0 1 1796.18 1087)">04</text><text fill="#7F7F7F" font-family="Inter,Inter_MSFontService,sans-serif" font-weight="400" font-size="92" transform="matrix(1 0 0 1 1977.5 1444)">05</text><g><g><g><path d="M82.1856 70.5074C87.8406 72.5366 93.1913 74.849 97.6215 78.4733 99.7433 80.1283 101.005 82.6522 101.056 85.3427L103.36 104.235C103.547 105.662 102.919 107.074 101.734 107.893 99.4765 109.352 97.0486 110.53 94.5048 111.4L94.5048 114.168C97.5682 113.184 100.491 111.807 103.2 110.07 105.202 108.704 106.271 106.331 105.967 103.926L103.679 85.2205C103.595 81.776 101.975 78.5495 99.2621 76.4252 94.5006 72.5297 88.8472 70.1034 82.901 67.9786L76.4408 65.3274C75.4538 64.9253 74.8095 63.9645 74.8124 62.8987L74.8124 59.03C79.7656 55.324 82.6844 49.5018 82.69 43.3156L82.69 39.5109C83.3696 39.7913 84.0954 39.9431 84.8304 39.9587 85.5553 39.9587 86.1429 39.3711 86.1429 38.6462 86.1429 38.5053 86.1202 38.3654 86.0757 38.2316L84.7466 34.2416C84.1667 32.4204 83.7025 30.5644 83.3567 28.6846 82.0624 22.3387 77.8882 16.9567 72.064 14.1241 71.1299 13.6372 70.0008 13.7205 69.148 14.3388L68.7519 13.7512C68.2145 12.9203 67.364 12.342 66.3936 12.1477 56.2341 10.2375 46.4372 16.687 43.0989 26.9036 42.5269 28.6853 42.2346 30.5448 42.2326 32.4161L42.2204 34.3772C42.2111 36.2126 41.8329 38.0275 41.1078 39.7137L38.6634 45.4203C38.3778 46.0865 38.6864 46.8581 39.3526 47.1437 39.516 47.2138 39.6919 47.2499 39.8696 47.2499 39.9719 47.2501 40.0738 47.238 40.1733 47.2141 40.3928 47.1616 41.6414 46.8597 43.5554 46.3162 44.3441 51.3836 47.0802 55.9427 51.181 59.0224L51.181 62.8987C51.1836 63.9643 50.5393 64.9249 49.5524 65.3268L43.0486 67.9965C37.1211 70.1169 31.4885 72.5377 26.7587 76.4073 24.0346 78.5327 22.4058 81.7665 22.3194 85.2205L20.0321 103.935C19.7324 106.338 20.8019 108.707 22.8027 110.071 25.5138 111.808 28.4388 113.186 31.5045 114.17L31.5045 111.402C28.9582 110.532 26.5277 109.353 24.2673 107.893 23.0846 107.077 22.4563 105.669 22.6389 104.244L24.9325 85.4753 24.9421 85.344C24.9951 82.6443 26.2653 80.1132 28.3983 78.4573 32.8093 74.848 38.1542 72.5394 43.807 70.5108L46.537 69.5537C50.0879 72.0025 56.2934 73.5043 63.0002 73.5043 69.7043 73.5043 75.9092 72.0029 79.4602 69.5537ZM43.5206 40.7483C44.3843 38.7405 44.8352 36.5793 44.8462 34.3935L44.8584 32.433C44.8584 30.8329 45.1069 29.2426 45.5947 27.7188 48.1894 19.7746 55.1236 14.4375 62.8479 14.4375 63.8753 14.4393 64.9005 14.5364 65.91 14.7278 66.1873 14.797 66.426 14.9727 66.5746 15.2168L67.7455 16.9548C68.1504 17.5561 68.966 17.7153 69.5672 17.3104 69.5873 17.2969 69.6071 17.2827 69.6264 17.2681L70.6831 16.4691C70.7253 16.4333 70.7834 16.4232 70.8351 16.4428 75.9753 18.8857 79.6615 23.6104 80.7807 29.1903L80.7814 29.1903C81.1478 31.1801 81.6404 33.1444 82.256 35.0717L82.793 36.6841C80.0162 35.1114 76.7471 31.0219 74.9968 28.2316 74.7695 27.8687 74.3793 27.6395 73.9515 27.6176 73.523 27.5928 73.1101 27.7819 72.849 28.1226 66.283 36.5641 48.7501 42.1249 42.137 43.9783ZM46.1062 45.5609C53.825 43.1874 67.0725 38.3004 73.7566 31.1 75.5104 33.6976 77.636 36.0236 80.0654 38.0038L80.0654 43.3153C80.0709 52.7335 72.4404 60.3729 63.0223 60.3785 54.4642 60.3836 47.228 54.0449 46.1062 45.5606ZM63.0011 70.878C58.3438 70.9928 53.7184 70.0799 49.454 68.2044L50.5484 67.7551C52.5217 66.9508 53.8101 65.0298 53.8053 62.8988L53.8053 60.6965C59.5467 63.7652 66.4394 63.7726 72.1874 60.7162L72.1874 62.899C72.1828 65.0297 73.4707 66.9505 75.4437 67.7552L76.5419 68.2061C72.2793 70.0803 67.6561 70.9926 63.0011 70.878Z" stroke="#FFFFFF" stroke-width="1.68" fill="#FFFFFF" transform="matrix(1 0 0 1 1061 1384)"/><path d="M91.8798 86.0211C91.8726 83.4478 89.7808 81.3677 87.2075 81.3749 87.2031 81.3749 87.1988 81.3749 87.1945 81.3749L38.7764 81.3749C36.2116 81.3776 34.133 83.4562 34.1302 86.0211L34.1302 115.749 24.9427 115.749 24.9427 118.734C24.9599 121.292 27.0308 123.36 29.5888 123.375L96.4262 123.375C98.9843 123.358 101.053 121.287 101.067 118.729L101.067 115.749 91.8798 115.749ZM98.4423 118.374 98.4423 118.724C98.4355 119.838 97.5354 120.74 96.4211 120.75L29.5939 120.75C28.4796 120.743 27.5772 119.843 27.5674 118.729L27.5674 118.374 36.7549 118.374 36.7549 86.0211C36.7562 84.9054 37.6604 84.0012 38.7762 83.9999L87.2336 83.9999C88.3494 84.0012 89.2535 84.9054 89.2549 86.0211L89.2549 118.374Z" stroke="#FFFFFF" stroke-width="1.68" fill="#FFFFFF" transform="matrix(1 0 0 1 1061 1384)"/><path d="M54.3584 94.5392 46.9953 101.902 54.3584 109.265 56.209 107.415 50.7097 101.902 56.209 96.3899 54.3584 94.5392Z" stroke="#FFFFFF" stroke-width="1.68" fill="#FFFFFF" transform="matrix(1 0 0 1 1061 1384)"/><path d="M69.754 96.3899 75.2534 101.902 69.754 107.415 71.6046 109.265 78.9678 101.902 71.6046 94.5392 69.754 96.3899Z" stroke="#FFFFFF" stroke-width="1.68" fill="#FFFFFF" transform="matrix(1 0 0 1 1061 1384)"/><path d="M58.6765 109.174 61.1047 110.184 67.2471 95.3267 64.8322 94.3161 58.6765 109.174Z" stroke="#FFFFFF" stroke-width="1.68" fill="#FFFFFF" transform="matrix(1 0 0 1 1061 1384)"/></g></g></g><g><g><g><path d="M18.5335 17.3438 16.221 17.3438 16.221 95.9688 94.8125 95.9688 94.8125 93.6563 18.5335 93.6563 18.5335 17.3438Z" stroke="#FFFFFF" stroke-width="1.48" fill="#FFFFFF" transform="matrix(1 0 0 1.00901 1662 1391)"/><path d="M33.5659 83.25C36.1126 83.2551 38.1812 81.1948 38.1863 78.6481 38.1892 77.1931 37.5052 75.822 36.341 74.9493L46.3772 43.9283C47.0435 43.9125 47.6984 43.7519 48.2966 43.4577L66.0219 56.9638C65.5462 59.4735 67.195 61.8935 69.7046 62.3693 72.2142 62.845 74.6343 61.1962 75.11 58.6865 75.1647 58.3985 75.1918 58.1057 75.191 57.8125 75.1875 56.4073 74.5413 55.0809 73.4369 54.212L81.807 30.0301C81.9157 30.0382 82.0186 30.0625 82.1285 30.0625 84.6918 30.0714 86.7768 28.0008 86.7858 25.4375 86.7947 22.8743 84.7241 20.7892 82.1608 20.7801 79.5977 20.7712 77.5125 22.842 77.5035 25.4051 77.498 26.9791 78.2906 28.4487 79.609 29.3086L71.3175 53.2627C71.0694 53.2176 70.8181 53.1925 70.566 53.1875 69.2084 53.1911 67.922 53.7951 67.0521 54.8375L50.1003 41.9222C51.5577 39.819 51.0341 36.9325 48.9309 35.4751 46.8276 34.0178 43.9412 34.5415 42.4839 36.6447 41.0265 38.7479 41.5501 41.6344 43.6533 43.0917 43.8057 43.1973 43.9643 43.2936 44.1283 43.3802L34.2007 74.0636C31.6764 73.7082 29.3419 75.4664 28.9865 77.9907 28.6311 80.515 30.3893 82.8495 32.9136 83.2049 33.1297 83.2353 33.3478 83.2505 33.5659 83.25Z" stroke="#FFFFFF" stroke-width="1.48" fill="#FFFFFF" transform="matrix(1 0 0 1.00901 1662 1391)"/></g></g></g><g><g><g><path d="M1957.2 1717.8C1956.8 1717.4 1956.8 1716.73 1957.2 1716.2L1960.4 1712.33C1961.73 1710.6 1961.47 1708.2 1959.87 1706.87 1959.73 1706.73 1959.6 1706.73 1959.47 1706.6L1955.2 1703.8C1954.67 1703.53 1954.53 1702.87 1954.67 1702.33L1956.53 1697.67C1957.33 1695.67 1956.27 1693.4 1954.27 1692.6 1954.13 1692.6 1954 1692.47 1953.87 1692.47L1948.93 1691.13C1948.4 1691 1948 1690.47 1948 1689.8L1948.27 1684.73C1948.4 1682.6 1946.8 1680.73 1944.53 1680.6 1944.4 1680.6 1944.27 1680.6 1944.13 1680.6L1939.07 1680.87C1938.4 1680.87 1937.87 1680.47 1937.73 1679.93L1936.4 1675C1935.87 1672.87 1933.73 1671.67 1931.6 1672.2 1931.47 1672.2 1931.33 1672.33 1931.2 1672.33L1926.53 1674.2C1926 1674.47 1925.33 1674.2 1925.07 1673.67L1922.27 1669.4C1921.07 1667.53 1918.67 1667 1916.8 1668.2 1916.67 1668.33 1916.53 1668.33 1916.4 1668.47L1912.53 1671.67C1912.13 1672.07 1911.33 1672.07 1910.93 1671.67L1907.07 1668.47C1905.33 1667.13 1902.93 1667.4 1901.6 1669 1901.47 1669.13 1901.47 1669.27 1901.33 1669.4L1898.53 1673.67C1898.27 1674.2 1897.6 1674.33 1897.07 1674.2L1892.4 1672.33C1890.4 1671.53 1888.13 1672.47 1887.33 1674.47 1887.33 1674.6 1887.2 1674.73 1887.2 1675L1885.87 1679.93C1885.73 1680.47 1885.2 1680.87 1884.53 1680.87L1879.47 1680.6C1877.33 1680.47 1875.47 1682.07 1875.33 1684.33 1875.33 1684.47 1875.33 1684.6 1875.33 1684.73L1875.6 1689.8C1875.6 1690.33 1875.2 1691 1874.67 1691.13L1869.73 1692.47C1867.6 1693 1866.4 1695.13 1866.93 1697.27 1866.93 1697.4 1867.07 1697.53 1867.07 1697.67L1868.93 1702.33C1869.2 1702.87 1868.93 1703.53 1868.4 1703.8L1864.13 1706.47C1862.27 1707.67 1861.73 1710.07 1862.93 1711.93 1863.07 1712.07 1863.07 1712.2 1863.2 1712.33L1866.4 1716.2C1866.8 1716.6 1866.8 1717.4 1866.4 1717.8L1863.2 1721.67C1861.87 1723.4 1862.13 1725.8 1863.73 1727.13 1863.87 1727.27 1864 1727.27 1864.13 1727.4L1868.4 1730.2C1868.93 1730.47 1869.07 1731.13 1868.93 1731.67L1867.07 1736.33C1866.27 1738.33 1867.33 1740.6 1869.33 1741.4 1869.47 1741.4 1869.6 1741.53 1869.73 1741.53L1874.67 1742.87C1875.2 1743 1875.6 1743.53 1875.6 1744.2L1875.33 1749.27C1875.2 1751.4 1876.8 1753.27 1879.07 1753.4 1879.2 1753.4 1879.33 1753.4 1879.47 1753.4L1884.53 1753.13C1885.07 1753.13 1885.73 1753.53 1885.87 1754.07L1887.2 1759C1887.73 1761.13 1889.87 1762.33 1892 1761.8 1892.13 1761.8 1892.27 1761.67 1892.4 1761.67L1897.07 1759.8C1897.6 1759.53 1898.27 1759.8 1898.53 1760.33L1901.33 1764.6C1902.53 1766.47 1904.93 1767 1906.8 1765.8 1906.93 1765.67 1907.07 1765.67 1907.07 1765.53L1910.93 1762.33C1911.33 1761.93 1912.13 1761.93 1912.53 1762.33L1916.4 1765.53C1917.07 1766.07 1918 1766.47 1918.93 1766.47 1919.2 1766.47 1919.33 1766.47 1919.6 1766.47 1920.67 1766.33 1921.73 1765.67 1922.27 1764.73L1925.07 1760.47C1925.33 1759.93 1926 1759.8 1926.53 1759.93L1931.2 1761.8C1933.2 1762.6 1935.47 1761.53 1936.27 1759.53 1936.27 1759.4 1936.4 1759.27 1936.4 1759.13L1937.73 1754.2C1937.87 1753.67 1938.4 1753.27 1939.07 1753.27L1944.13 1753.53C1946.27 1753.67 1948.13 1752.07 1948.27 1749.8 1948.27 1749.67 1948.27 1749.53 1948.27 1749.4L1948 1744.33C1948 1743.8 1948.4 1743.13 1948.93 1743L1953.87 1741.67C1956 1741.13 1957.2 1739 1956.67 1736.87 1956.67 1736.73 1956.53 1736.6 1956.53 1736.47L1954.67 1731.8C1954.4 1731.27 1954.67 1730.6 1955.2 1730.33L1959.47 1727.53C1961.33 1726.33 1961.87 1723.93 1960.67 1722.07 1960.67 1721.93 1957.2 1717.8 1957.2 1717.8ZM1953.87 1728.07C1952.27 1729.13 1951.6 1731 1952.4 1732.73L1954.27 1737.4C1954.53 1738.07 1954.13 1738.73 1953.6 1739L1953.47 1739 1948.53 1740.33C1946.67 1740.87 1945.47 1742.47 1945.6 1744.33L1945.87 1749.4C1945.87 1750.07 1945.33 1750.73 1944.67 1750.73L1944.53 1750.73 1939.47 1750.47C1937.6 1750.33 1935.87 1751.53 1935.47 1753.4L1934.13 1758.33C1934 1759 1933.2 1759.4 1932.53 1759.27L1932.4 1759.27 1927.73 1757.4C1926 1756.73 1924 1757.4 1922.93 1758.87L1920.13 1763.13C1919.73 1763.67 1918.93 1763.93 1918.4 1763.53 1918.4 1763.53 1918.27 1763.53 1918.27 1763.4L1914.4 1760.2C1912.93 1759 1910.93 1759 1909.47 1760.2L1905.6 1763.4C1905.07 1763.8 1904.27 1763.8 1903.87 1763.27 1903.87 1763.27 1903.87 1763.27 1903.73 1763.13L1900.93 1758.87C1899.87 1757.27 1898 1756.6 1896.27 1757.4L1891.6 1759.27C1890.93 1759.53 1890.27 1759.13 1890 1758.6L1890 1758.47 1888.67 1753.53C1888.13 1751.67 1886.53 1750.47 1884.67 1750.6L1879.6 1750.87C1878.93 1750.87 1878.27 1750.33 1878.27 1749.67L1878.27 1749.53 1878.53 1744.47C1878.67 1742.6 1877.47 1740.87 1875.6 1740.47L1870.67 1739.13C1870.27 1739 1870 1738.87 1869.87 1738.47 1869.73 1738.2 1869.73 1737.8 1869.87 1737.4L1871.73 1732.73C1872.4 1731 1871.73 1729 1870.27 1728.07L1866 1725.27C1865.47 1724.87 1865.2 1724.07 1865.6 1723.53 1865.6 1723.53 1865.6 1723.4 1865.73 1723.4L1868.93 1719.53C1870.13 1718.07 1870.13 1716.07 1868.93 1714.6L1865.73 1710.73C1865.33 1710.2 1865.33 1709.4 1865.87 1709 1865.87 1709 1866 1709 1866 1708.87L1870.27 1706.2C1871.87 1705.13 1872.53 1703.27 1871.73 1701.53L1869.87 1696.87C1869.73 1696.6 1869.73 1696.2 1869.87 1695.8 1870 1695.53 1870.27 1695.27 1870.67 1695.13L1875.6 1693.8C1877.47 1693.27 1878.67 1691.67 1878.53 1689.8L1878.27 1684.73C1878.27 1684.33 1878.4 1684.07 1878.67 1683.8 1878.93 1683.53 1879.33 1683.4 1879.6 1683.4L1884.67 1683.67C1886.53 1683.8 1888.13 1682.6 1888.67 1680.73L1890 1675.8C1890.13 1675.4 1890.27 1675.13 1890.67 1675 1890.93 1674.87 1891.33 1674.87 1891.73 1675L1896.4 1676.87C1898.13 1677.53 1900.13 1676.87 1901.07 1675.4L1903.73 1671.13C1904.13 1670.6 1904.93 1670.33 1905.47 1670.73 1905.47 1670.73 1905.6 1670.73 1905.6 1670.87L1909.47 1674.07C1910.93 1675.27 1912.93 1675.27 1914.4 1674.07L1918.27 1670.87C1918.8 1670.47 1919.6 1670.47 1920 1671 1920 1671 1920 1671 1920.13 1671.13L1922.93 1675.4C1924 1677 1925.87 1677.67 1927.6 1676.87L1932.27 1675C1932.93 1674.73 1933.6 1675.13 1933.87 1675.67L1933.87 1675.8 1935.2 1680.73C1935.73 1682.6 1937.33 1683.8 1939.2 1683.67L1944.27 1683.4C1944.67 1683.4 1944.93 1683.53 1945.2 1683.8 1945.47 1684.07 1945.6 1684.47 1945.6 1684.73L1945.33 1689.8C1945.2 1691.67 1946.4 1693.4 1948.27 1693.8L1953.2 1695.13C1953.87 1695.27 1954.27 1696.07 1954.13 1696.73L1954.13 1696.87 1952.27 1701.53C1951.6 1703.27 1952.27 1705.27 1953.73 1706.2L1958 1708.87C1958.53 1709.27 1958.8 1710.07 1958.4 1710.6 1958.4 1710.6 1958.4 1710.73 1958.27 1710.73L1955.07 1714.6C1953.87 1716.07 1953.87 1718.07 1955.07 1719.53L1958.27 1723.4C1958.93 1723.93 1958.8 1724.73 1958.13 1725.27 1958.13 1725.27 1953.87 1728.07 1953.87 1728.07Z" stroke="#FFFFFF" stroke-width="1.47132" fill="#FFFFFF"/><path d="M1912 1683.67C1893.6 1683.67 1878.67 1698.6 1878.67 1717 1878.67 1735.4 1893.6 1750.33 1912 1750.33 1930.4 1750.33 1945.33 1735.4 1945.33 1717 1945.33 1698.6 1930.4 1683.67 1912 1683.67ZM1912 1747.67C1895.07 1747.67 1881.33 1733.93 1881.33 1717 1881.33 1700.07 1895.07 1686.33 1912 1686.33 1928.93 1686.33 1942.67 1700.07 1942.67 1717L1942.67 1717C1942.67 1733.93 1928.93 1747.67 1912 1747.67Z" stroke="#FFFFFF" stroke-width="1.47132" fill="#FFFFFF"/><path d="M1908 1724.47 1896.93 1713.4 1895.07 1715.27 1908 1728.2 1930.27 1705.93 1928.4 1704.07Z" stroke="#FFFFFF" stroke-width="1.47132" fill="#FFFFFF"/></g></g></g><g><g><g><path d="M101.062 103.687 101.062 24.9375C101.062 17.2646 81.4523 13.125 62.9999 13.125 44.5475 13.125 24.9375 17.2646 24.9375 24.9375L24.9375 103.687C24.9375 111.36 44.5475 115.5 62.9999 115.5 81.4523 115.5 101.062 111.36 101.062 103.687ZM62.9999 15.75C83.2819 15.75 98.4373 20.6062 98.4373 24.9375 98.4373 29.2687 83.2819 34.1249 62.9999 34.1249 42.7179 34.1249 27.5625 29.2687 27.5625 24.9375 27.5625 20.6062 42.7179 15.75 62.9999 15.75ZM27.5625 29.4787C33.5068 34.2299 48.6057 36.7499 62.9999 36.7499 77.3941 36.7499 92.493 34.2299 98.4373 29.4787L98.4373 51.1874C98.4373 55.5187 83.2819 60.3749 62.9999 60.3749 42.7179 60.3749 27.5625 55.5187 27.5625 51.1874ZM27.5625 55.7287C33.5068 60.4799 48.6057 62.9999 62.9999 62.9999 77.3941 62.9999 92.493 60.4799 98.4373 55.7287L98.4373 77.4374C98.4373 81.7686 83.2819 86.6249 62.9999 86.6249 42.7179 86.6249 27.5625 81.7686 27.5625 77.4374ZM27.5625 103.687 27.5625 81.9786C33.5068 86.7299 48.6057 89.2499 62.9999 89.2499 77.3941 89.2499 92.493 86.7299 98.4373 81.9786L98.4373 103.687C98.4373 108.019 83.2819 112.875 62.9999 112.875 42.7179 112.875 27.5625 108.019 27.5625 103.687Z" stroke="#FFFFFF" stroke-width="1.44813" fill="#FFFFFF" transform="matrix(1 0 0 1 1355 1295)"/><path d="M91.8749 47.2499C91.8749 48.6997 90.6996 49.8749 89.2499 49.8749 87.8001 49.8749 86.6249 48.6997 86.6249 47.2499 86.6249 45.8002 87.8001 44.6249 89.2499 44.6249 90.6996 44.6249 91.8749 45.8002 91.8749 47.2499Z" stroke="#FFFFFF" stroke-width="1.44813" fill="#FFFFFF" transform="matrix(1 0 0 1 1355 1295)"/><path d="M91.8749 73.4999C91.8749 74.9496 90.6996 76.1249 89.2499 76.1249 87.8001 76.1249 86.6249 74.9496 86.6249 73.4999 86.6249 72.0501 87.8001 70.8749 89.2499 70.8749 90.6996 70.8749 91.8749 72.0501 91.8749 73.4999Z" stroke="#FFFFFF" stroke-width="1.44813" fill="#FFFFFF" transform="matrix(1 0 0 1 1355 1295)"/><path d="M91.8749 99.7498C91.8749 101.2 90.6996 102.375 89.2499 102.375 87.8001 102.375 86.6249 101.2 86.6249 99.7498 86.6249 98.3001 87.8001 97.1248 89.2499 97.1248 90.6996 97.1248 91.8749 98.3001 91.8749 99.7498Z" stroke="#FFFFFF" stroke-width="1.44813" fill="#FFFFFF" transform="matrix(1 0 0 1 1355 1295)"/></g></g></g><g><g><g><path d="M916 1688.25 944.75 1688.25 944.75 1690.75 916 1690.75Z" stroke="#FFFFFF" stroke-width="1.48142" fill="#FFFFFF"/><path d="M916 1707 944.75 1707 944.75 1709.5 916 1709.5Z" stroke="#FFFFFF" stroke-width="1.48142" fill="#FFFFFF"/><path d="M916 1725.75 944.75 1725.75 944.75 1728.25 916 1728.25Z" stroke="#FFFFFF" stroke-width="1.48142" fill="#FFFFFF"/><path d="M916 1744.5 944.75 1744.5 944.75 1747 916 1747Z" stroke="#FFFFFF" stroke-width="1.48142" fill="#FFFFFF"/><path d="M978.5 1667 903.5 1667 903.5 1767 978.5 1767ZM976 1764.5 906 1764.5 906 1669.5 976 1669.5Z" stroke="#FFFFFF" stroke-width="1.48142" fill="#FFFFFF"/><path d="M966 1683.87 954.75 1683.87 954.75 1695.12 966 1695.12ZM963.5 1692.62 957.25 1692.62 957.25 1686.37 963.5 1686.37Z" stroke="#FFFFFF" stroke-width="1.48142" fill="#FFFFFF"/><path d="M966 1702.62 954.75 1702.62 954.75 1713.87 966 1713.87ZM963.5 1711.37 957.25 1711.37 957.25 1705.12 963.5 1705.12Z" stroke="#FFFFFF" stroke-width="1.48142" fill="#FFFFFF"/><path d="M966 1721.37 954.75 1721.37 954.75 1732.62 966 1732.62ZM963.5 1730.12 957.25 1730.12 957.25 1723.87 963.5 1723.87Z" stroke="#FFFFFF" stroke-width="1.48142" fill="#FFFFFF"/><path d="M966 1740.12 954.75 1740.12 954.75 1751.37 966 1751.37ZM963.5 1748.87 957.25 1748.87 957.25 1742.62 963.5 1742.62Z" stroke="#FFFFFF" stroke-width="1.48142" fill="#FFFFFF"/></g></g></g><text font-family="Inter,Inter_MSFontService,sans-serif" font-weight="700" font-size="64" transform="matrix(1 0 0 1 204.759 1521)">Project Lead Off</text><text font-family="Arial,Arial_MSFontService,sans-serif" font-weight="400" font-size="55" transform="matrix(1 0 0 1 204.759 1594)">•</text><text font-family="Inter,Inter_MSFontService,sans-serif" font-weight="400" font-size="55" transform="matrix(1 0 0 1 248.988 1594)">Research scope</text><text font-family="Arial,Arial_MSFontService,sans-serif" font-weight="400" font-size="55" transform="matrix(1 0 0 1 204.759 1663)">•</text><text font-family="Inter,Inter_MSFontService,sans-serif" font-weight="400" font-size="55" transform="matrix(1 0 0 1 248.988 1663)">Research objective</text><text font-family="Arial,Arial_MSFontService,sans-serif" font-weight="400" font-size="55" transform="matrix(1 0 0 1 204.759 1733)">•</text><text font-family="Inter,Inter_MSFontService,sans-serif" font-weight="400" font-size="55" transform="matrix(1 0 0 1 248.988 1733)">Research timeline</text><text font-family="Inter,Inter_MSFontService,sans-serif" font-weight="700" font-size="64" transform="matrix(1 0 0 1 572.929 1041)">Data Procurement</text><text font-family="Arial,Arial_MSFontService,sans-serif" font-weight="400" font-size="55" transform="matrix(1 0 0 1 572.929 1114)">•</text><text font-family="Inter,Inter_MSFontService,sans-serif" font-weight="400" font-size="55" transform="matrix(1 0 0 1 617.158 1114)">Primary research</text><text font-family="Arial,Arial_MSFontService,sans-serif" font-weight="400" font-size="55" transform="matrix(1 0 0 1 572.929 1183)">•</text><text font-family="Inter,Inter_MSFontService,sans-serif" font-weight="400" font-size="55" transform="matrix(1 0 0 1 617.158 1183)">Secondary research</text><text font-family="Arial,Arial_MSFontService,sans-serif" font-weight="400" font-size="55" transform="matrix(1 0 0 1 572.929 1253)">•</text><text font-family="Inter,Inter_MSFontService,sans-serif" font-weight="400" font-size="55" transform="matrix(1 0 0 1 617.158 1253)">Paid and proprietary</text><text font-family="Inter,Inter_MSFontService,sans-serif" font-weight="400" font-size="55" transform="matrix(1 0 0 1 617.158 1312)">databases</text><text font-family="Inter,Inter_MSFontService,sans-serif" font-weight="700" font-size="64" transform="matrix(1 0 0 1 1266.06 810)">Data Validation</text><text font-family="Arial,Arial_MSFontService,sans-serif" font-weight="400" font-size="55" transform="matrix(1 0 0 1 1266.06 883)">•</text><text font-family="Inter,Inter_MSFontService,sans-serif" font-weight="400" font-size="55" transform="matrix(1 0 0 1 1310.29 883)">Data screening</text><text font-family="Arial,Arial_MSFontService,sans-serif" font-weight="400" font-size="55" transform="matrix(1 0 0 1 1266.06 952)">•</text><text font-family="Inter,Inter_MSFontService,sans-serif" font-weight="400" font-size="55" transform="matrix(1 0 0 1 1310.29 952)">KOLs</text><text font-family="Arial,Arial_MSFontService,sans-serif" font-weight="400" font-size="55" transform="matrix(1 0 0 1 1266.06 1022)">•</text><text font-family="Inter,Inter_MSFontService,sans-serif" font-weight="400" font-size="55" transform="matrix(1 0 0 1 1310.29 1022)">Industry experts</text><text font-family="Arial,Arial_MSFontService,sans-serif" font-weight="400" font-size="55" transform="matrix(1 0 0 1 1266.06 1091)">•</text><text font-family="Inter,Inter_MSFontService,sans-serif" font-weight="400" font-size="55" transform="matrix(1 0 0 1 1310.29 1091)">CXOs</text><text font-family="Arial,Arial_MSFontService,sans-serif" font-weight="400" font-size="55" transform="matrix(1 0 0 1 1266.06 1160)">•</text><text font-family="Inter,Inter_MSFontService,sans-serif" font-weight="400" font-size="55" transform="matrix(1 0 0 1 1310.29 1160)">End users</text><text font-family="Inter,Inter_MSFontService,sans-serif" font-weight="700" font-size="64" transform="matrix(1 0 0 1 1945.15 1058)">Data Synthesis</text><text font-family="Arial,Arial_MSFontService,sans-serif" font-weight="400" font-size="55" transform="matrix(1 0 0 1 1945.15 1131)">•</text><text font-family="Inter,Inter_MSFontService,sans-serif" font-weight="400" font-size="55" transform="matrix(1 0 0 1 1989.38 1131)">Data integration</text><text font-family="Arial,Arial_MSFontService,sans-serif" font-weight="400" font-size="55" transform="matrix(1 0 0 1 1945.15 1200)">•</text><text font-family="Inter,Inter_MSFontService,sans-serif" font-weight="400" font-size="55" transform="matrix(1 0 0 1 1989.38 1200)">Market engineering</text><text font-family="Inter,Inter_MSFontService,sans-serif" font-weight="700" font-size="64" transform="matrix(1 0 0 1 2127.62 1426)">360</text><text font-family="Inter,Inter_MSFontService,sans-serif" font-weight="700" font-size="64" transform="matrix(1 0 0 1 2256.52 1426)">-</text><text font-family="Inter,Inter_MSFontService,sans-serif" font-weight="700" font-size="64" transform="matrix(1 0 0 1 2286.89 1426)">degree Market </text><text font-family="Inter,Inter_MSFontService,sans-serif" font-weight="700" font-size="64" transform="matrix(1 0 0 1 2127.62 1495)">Analysis</text><text font-family="Arial,Arial_MSFontService,sans-serif" font-weight="400" font-size="55" transform="matrix(1 0 0 1 2127.62 1568)">•</text><text font-family="Inter,Inter_MSFontService,sans-serif" font-weight="400" font-size="55" transform="matrix(1 0 0 1 2171.84 1568)">Competitive intelligence</text><text font-family="Arial,Arial_MSFontService,sans-serif" font-weight="400" font-size="55" transform="matrix(1 0 0 1 2127.62 1638)">•</text><text font-family="Inter,Inter_MSFontService,sans-serif" font-weight="400" font-size="55" transform="matrix(1 0 0 1 2171.84 1638)">Opportunities and </text><text font-family="Inter,Inter_MSFontService,sans-serif" font-weight="400" font-size="55" transform="matrix(1 0 0 1 2171.84 1697)">restraints</text><text font-family="Arial,Arial_MSFontService,sans-serif" font-weight="400" font-size="55" transform="matrix(1 0 0 1 2127.62 1766)">•</text><text font-family="Inter,Inter_MSFontService,sans-serif" font-weight="400" font-size="55" transform="matrix(1 0 0 1 2171.84 1766)">Market dynamics</text><text font-family="Arial,Arial_MSFontService,sans-serif" font-weight="400" font-size="55" transform="matrix(1 0 0 1 2127.62 1836)">•</text><text font-family="Inter,Inter_MSFontService,sans-serif" font-weight="400" font-size="55" transform="matrix(1 0 0 1 2171.84 1836)">Report writing</text><path d="M474 1871C474 1863.82 897.315 1858 1419.5 1858 1941.69 1858 2365 1863.82 2365 1871 2365 1878.18 1941.69 1884 1419.5 1884 897.315 1884 474 1878.18 474 1871Z" fill="#BFBFBF" fill-rule="evenodd"/><path d="M1458.95 1954 1383.01 1954 1382.42 1954 1381.23 1953.78 1380.16 1953.37 1379.18 1952.78 1378.34 1952.01 1377.71 1951.12 1377.24 1950.12 1377.04 1949.05 1377 1948.5 1377.04 1947.95 1377.24 1946.88 1377.71 1945.88 1378.34 1944.99 1379.18 1944.22 1380.16 1943.63 1381.23 1943.22 1382.42 1943 1383.01 1943 1458.95 1943 1459.54 1943 1460.77 1943.22 1461.84 1943.63 1462.82 1944.22 1463.62 1944.99 1464.25 1945.88 1464.72 1946.88 1464.96 1947.95 1465 1948.5 1464.96 1949.05 1464.72 1950.12 1464.25 1951.12 1463.62 1952.01 1462.82 1952.78 1461.84 1953.37 1460.77 1953.78 1459.54 1954 1458.95 1954 1458.95 1954Z" stroke="#BFBFBF" stroke-width="2.29167" stroke-linejoin="round" stroke-miterlimit="10" fill="#BFBFBF" fill-rule="evenodd"/><path d="M1458.95 1973 1383.01 1973 1382.42 1972.96 1381.23 1972.68 1380.16 1972.28 1379.18 1971.6 1378.34 1970.79 1377.71 1969.83 1377.24 1968.75 1377.04 1967.58 1377 1966.98 1377.04 1966.38 1377.24 1965.21 1377.71 1964.13 1378.34 1963.17 1379.18 1962.32 1380.16 1961.68 1381.23 1961.24 1382.42 1961 1383.01 1961 1458.95 1961 1459.54 1961 1460.77 1961.24 1461.84 1961.68 1462.82 1962.32 1463.62 1963.17 1464.25 1964.13 1464.72 1965.21 1464.96 1966.38 1465 1966.98 1464.96 1967.58 1464.72 1968.75 1464.25 1969.83 1463.62 1970.79 1462.82 1971.6 1461.84 1972.28 1460.77 1972.68 1459.54 1972.96 1458.95 1973 1458.95 1973Z" stroke="#BFBFBF" stroke-width="2.29167" stroke-linejoin="round" stroke-miterlimit="10" fill="#BFBFBF" fill-rule="evenodd"/><path d="M1442.93 1992 1399.11 1992 1398.47 1991.96 1397.27 1991.72 1396.2 1991.24 1395.2 1990.6 1394.4 1989.83 1393.76 1988.87 1393.28 1987.79 1393 1986.62 1393 1985.98 1393 1985.38 1393.28 1984.17 1393.76 1983.17 1394.4 1982.17 1395.2 1981.36 1396.2 1980.72 1397.27 1980.24 1398.47 1980.04 1399.11 1980 1442.93 1980 1443.53 1980.04 1444.73 1980.24 1445.8 1980.72 1446.8 1981.36 1447.64 1982.17 1448.28 1983.17 1448.76 1984.17 1448.96 1985.38 1449 1985.98 1448.96 1986.62 1448.76 1987.79 1448.28 1988.87 1447.64 1989.83 1446.8 1990.6 1445.8 1991.24 1444.73 1991.72 1443.53 1991.96 1442.93 1992 1442.93 1992Z" stroke="#BFBFBF" stroke-width="2.29167" stroke-linejoin="round" stroke-miterlimit="10" fill="#BFBFBF" fill-rule="evenodd"/><path d="M1480.72 1861.88 1475.8 1868.98 1468.73 1880.09 1464.37 1887.83 1460.51 1896.12 1458.01 1902.75 1456.58 1907.39 1455.27 1912.23 1454.24 1917.27 1453.45 1922.59 1452.89 1928.14 1452.69 1931 1388.31 1931 1388.15 1928.14 1387.59 1922.59 1386.76 1917.27 1385.73 1912.23 1384.46 1907.39 1382.99 1902.75 1380.53 1896.12 1376.6 1887.83 1372.27 1880.09 1365.2 1868.98 1360.32 1861.88 1355.24 1854.5 1348.17 1843.31 1343.96 1835.49 1341.19 1829.3 1339.52 1825.02 1338.01 1820.57 1336.78 1815.93 1335.71 1811.09 1334.87 1806.05 1334.32 1800.73 1334.04 1795.1 1334 1792.2 1334.08 1787.99 1334.75 1779.58 1336.14 1771.33 1338.25 1763.23 1340.99 1755.38 1344.4 1747.84 1348.53 1740.62 1353.29 1733.91 1357.34 1729.19 1360.24 1726.17 1363.26 1723.32 1366.47 1720.62 1369.89 1718.08 1373.42 1715.74 1377.15 1713.55 1381 1711.53 1385.05 1709.75 1389.26 1708.12 1393.63 1706.69 1398.15 1705.5 1402.83 1704.51 1407.68 1703.79 1412.72 1703.28 1417.84 1703.04 1420.5 1703 1423.16 1703.04 1428.32 1703.28 1433.32 1703.79 1438.17 1704.51 1442.85 1705.5 1447.38 1706.69 1451.78 1708.12 1455.95 1709.75 1460 1711.53 1463.85 1713.55 1467.58 1715.74 1471.15 1718.08 1474.53 1720.62 1477.74 1723.32 1480.8 1726.17 1483.66 1729.19 1487.75 1733.91 1492.51 1740.62 1496.6 1747.84 1500.05 1755.38 1502.79 1763.23 1504.9 1771.33 1506.25 1779.58 1506.96 1787.99 1507 1792.2 1507 1795.1 1506.68 1800.73 1506.13 1806.05 1505.33 1811.09 1504.26 1815.93 1502.95 1820.57 1501.48 1825.02 1499.81 1829.3 1497.04 1835.49 1492.83 1843.31 1485.76 1854.5 1480.72 1861.88 1480.72 1861.88Z" stroke="#BFBFBF" stroke-width="13.75" stroke-linejoin="round" stroke-miterlimit="10" fill="#FFFFFF" fill-rule="evenodd"/></g></svg>