<svg width="2761" height="1281" xmlns="http://www.w3.org/2000/svg" xmlns:xlink="http://www.w3.org/1999/xlink" xml:space="preserve" overflow="hidden"><g transform="translate(-9 -712)"><path d="M1314 1214C1676.85 1214 1971 1508.15 1971 1871L1971 1871 1732.86 1871C1732.86 1639.67 1545.33 1452.14 1314 1452.14 1082.67 1452.14 895.137 1639.67 895.137 1871L657 1871 657 1871C657 1508.15 951.149 1214 1314 1214Z" fill="#D9D9D9" fill-rule="evenodd" fill-opacity="0.501961"/><path d="M705 1871C705 1742.43 745.732 1617.02 821.251 1513L1043 1674.09C1001.38 1731.29 978.992 1800.26 978.992 1871L705 1871Z" fill="#07234B" fill-rule="evenodd"/><path d="M821 1512.66C896.625 1408.36 1003.11 1330.8 1125.4 1291L1210 1552.08C1142.85 1574 1084.17 1616.71 1042.69 1674L821 1512.66Z" fill="#264175" fill-rule="evenodd"/><path d="M1126 1290.81C1248.22 1251 1379.78 1251 1502 1290.81L1417.45 1552C1350.21 1530.07 1277.79 1530.07 1210.55 1552L1126 1290.81Z" fill="#01549E" fill-rule="evenodd"/><path d="M1501.82 1291C1624.43 1330.8 1731.18 1408.36 1807 1512.66L1584.74 1674C1543.15 1616.71 1484.32 1574 1417 1552.08L1501.82 1291Z" fill="#11BBD8" fill-rule="evenodd"/><path d="M1806.75 1513C1882.27 1617.02 1923 1742.43 1923 1871L1649.01 1871C1649.01 1800.26 1626.62 1731.29 1585 1674.09L1806.75 1513Z" fill="#73CEEA" fill-rule="evenodd"/><path d="M1314 1452C1545.41 1452 1733 1639.59 1733 1871L1649.18 1871C1649.18 1781.99 1613.86 1696.66 1551.09 1633.65L1551.12 1633.59C1488.2 1570.7 1403 1535.33 1314 1535.33 1225.17 1535.33 1140 1570.7 1077.11 1633.59L1076.91 1633.65C1014.13 1696.66 978.822 1781.99 978.822 1871L895 1871C895 1639.59 1082.59 1452 1314 1452Z" fill="#000000" fill-rule="evenodd" fill-opacity="0.301961"/><text fill="#7F7F7F" font-family="Inter,Inter_MSFontService,sans-serif" font-weight="400" font-size="92" transform="matrix(1 0 0 1 64.7874 1539)">01</text><text fill="#7F7F7F" font-family="Inter,Inter_MSFontService,sans-serif" font-weight="400" font-size="92" transform="matrix(1 0 0 1 331.765 1059)">02</text><text fill="#7F7F7F" font-family="Inter,Inter_MSFontService,sans-serif" font-weight="400" font-size="92" transform="matrix(1 0 0 1 1030.83 828)">03</text><text fill="#7F7F7F" font-family="Inter,Inter_MSFontService,sans-serif" font-weight="400" font-size="92" transform="matrix(1 0 0 1 1713.7 1055)">04</text><text fill="#7F7F7F" font-family="Inter,Inter_MSFontService,sans-serif" font-weight="400" font-size="92" transform="matrix(1 0 0 1 1872.08 1444)">05</text><g><g><g><path d="M81.5335 69.948C87.1437 71.9611 92.4519 74.2552 96.847 77.8507 98.9519 79.4925 100.204 81.9964 100.254 84.6656L102.54 103.408C102.725 104.824 102.102 106.225 100.927 107.037 98.6872 108.484 96.2786 109.653 93.755 110.516L93.755 113.262C96.7941 112.286 99.6936 110.92 102.381 109.197 104.367 107.841 105.428 105.487 105.127 103.101L102.856 84.5444C102.773 81.1272 101.166 77.9263 98.4746 75.8188 93.7509 71.9542 88.1423 69.5472 82.2433 67.4393L75.8343 64.8091C74.8552 64.4102 74.216 63.457 74.2188 62.3997L74.2188 58.5616C79.1328 54.8851 82.0283 49.109 82.0339 42.9719L82.0339 39.1974C82.7082 39.4756 83.4282 39.6262 84.1574 39.6417 84.8765 39.6417 85.4595 39.0588 85.4595 38.3396 85.4595 38.1998 85.4369 38.061 85.3928 37.9283L84.0742 33.97C83.4989 32.1632 83.0384 30.3219 82.6954 28.4571 81.4113 22.1615 77.2703 16.8222 71.4923 14.012 70.5656 13.529 69.4454 13.6116 68.5994 14.225L68.2065 13.6421C67.6732 12.8178 66.8295 12.2441 65.8669 12.0513 55.7879 10.1563 46.0688 16.5546 42.7569 26.6901 42.1895 28.4577 41.8995 30.3025 41.8976 32.1589L41.8855 34.1045C41.8762 35.9253 41.501 37.7258 40.7817 39.3986L38.3567 45.0599C38.0733 45.7209 38.3795 46.4864 39.0404 46.7697 39.2025 46.8392 39.377 46.875 39.5533 46.875 39.6547 46.8752 39.7559 46.8632 39.8546 46.8395 40.0723 46.7874 41.311 46.4879 43.2098 45.9487 43.9922 50.976 46.7067 55.4989 50.7749 58.5541L50.7749 62.3997C50.7775 63.4568 50.1383 64.4098 49.1593 64.8085L42.7071 67.457C36.8266 69.5606 31.2387 71.9622 26.5464 75.8011 23.8439 77.9096 22.228 81.1178 22.1423 84.5444L19.8732 103.111C19.5758 105.495 20.6369 107.845 22.6218 109.198 25.3114 110.921 28.2132 112.288 31.2546 113.264L31.2546 110.518C28.7284 109.655 26.3172 108.485 24.0748 107.037 22.9015 106.227 22.2781 104.831 22.4593 103.417L24.7347 84.7971 24.7442 84.6669C24.7968 81.9886 26.0569 79.4776 28.1729 77.8348 32.549 74.2541 37.8515 71.9639 43.4594 69.9514L46.1678 69.0019C49.6905 71.4312 55.8468 72.9212 62.5003 72.9212 69.1512 72.9212 75.307 71.4316 78.8298 69.0019ZM43.1753 40.425C44.0322 38.4331 44.4795 36.2891 44.4904 34.1206L44.5025 32.1757C44.5025 30.5883 44.749 29.0106 45.233 27.4989 47.8071 19.6177 54.6863 14.3229 62.3493 14.3229 63.3686 14.3248 64.3856 14.4211 65.387 14.611 65.6622 14.6796 65.899 14.8539 66.0464 15.0961L67.208 16.8203C67.6097 17.4168 68.4188 17.5748 69.0153 17.1731 69.0352 17.1597 69.0549 17.1456 69.074 17.1311L70.1223 16.3384C70.1641 16.3029 70.2218 16.2929 70.2731 16.3124 75.3725 18.7358 79.0295 23.4231 80.1398 28.9588L80.1404 28.9588C80.504 30.9327 80.9927 32.8814 81.6033 34.7934L82.1362 36.393C79.3813 34.8328 76.1382 30.7758 74.4018 28.0076 74.1762 27.6476 73.7891 27.4202 73.3648 27.3985 72.9397 27.3739 72.53 27.5615 72.271 27.8995 65.7571 36.274 48.3633 41.7907 41.8026 43.6293ZM45.7404 45.1994C53.398 42.8447 66.5403 37.9965 73.1714 30.8533 74.9113 33.4302 77.02 35.7378 79.4302 37.7023L79.4302 42.9717C79.4356 52.3152 71.8657 59.8939 62.5223 59.8994 54.0321 59.9045 46.8533 53.6161 45.7404 45.1991ZM62.5012 70.3157C57.8809 70.4295 53.2922 69.5239 49.0616 67.6632L50.1473 67.2175C52.105 66.4196 53.3831 64.5139 53.3784 62.3998L53.3784 60.2149C59.0743 63.2593 65.9123 63.2666 71.6147 60.2344L71.6147 62.3999C71.6101 64.5137 72.8878 66.4193 74.8451 67.2177L75.9346 67.6649C71.7058 69.5243 67.1193 70.4294 62.5012 70.3157Z" stroke="#FFFFFF" stroke-width="1.66667" fill="#FFFFFF" transform="matrix(1 0 0 1.008 956 1384)"/><path d="M91.1509 85.3386C91.1437 82.7858 89.0685 80.7221 86.5156 80.7292 86.5113 80.7292 86.507 80.7292 86.5027 80.7292L38.4688 80.7292C35.9243 80.732 33.8621 82.7941 33.8594 85.3386L33.8594 114.831 24.7448 114.831 24.7448 117.792C24.7619 120.329 26.8163 122.382 29.3541 122.396L95.6612 122.396C98.1989 122.379 100.251 120.324 100.265 117.787L100.265 114.831 91.1509 114.831ZM97.6613 117.435 97.6613 117.782C97.6545 118.887 96.7616 119.782 95.6561 119.792L29.3591 119.792C28.2537 119.785 27.3584 118.892 27.3487 117.787L27.3487 117.435 36.4633 117.435 36.4633 85.3386C36.4646 84.2317 37.3616 83.3347 38.4685 83.3334L86.5415 83.3334C87.6484 83.3347 88.5454 84.2317 88.5467 85.3386L88.5467 117.435Z" stroke="#FFFFFF" stroke-width="1.66667" fill="#FFFFFF" transform="matrix(1 0 0 1.008 956 1384)"/><path d="M53.9271 93.7892 46.6224 101.094 53.9271 108.399 55.7631 106.563 50.3073 101.094 55.7631 95.6251 53.9271 93.7892Z" stroke="#FFFFFF" stroke-width="1.66667" fill="#FFFFFF" transform="matrix(1 0 0 1.008 956 1384)"/><path d="M69.2006 95.6251 74.6563 101.094 69.2006 106.563 71.0365 108.399 78.3412 101.094 71.0365 93.7892 69.2006 95.6251Z" stroke="#FFFFFF" stroke-width="1.66667" fill="#FFFFFF" transform="matrix(1 0 0 1.008 956 1384)"/><path d="M58.211 108.307 60.6199 109.31 66.7136 94.5704 64.3178 93.5678 58.211 108.307Z" stroke="#FFFFFF" stroke-width="1.66667" fill="#FFFFFF" transform="matrix(1 0 0 1.008 956 1384)"/></g></g></g><g><g><g><path d="M1574.7 1408.5 1572.37 1408.5 1572.37 1487.83 1651.67 1487.83 1651.67 1485.5 1574.7 1485.5 1574.7 1408.5Z" stroke="#FFFFFF" stroke-width="1.49333" fill="#FFFFFF"/><path d="M1589.87 1475C1592.44 1475.01 1594.53 1472.93 1594.53 1470.36 1594.53 1468.89 1593.84 1467.51 1592.67 1466.62L1602.8 1435.32C1603.47 1435.31 1604.13 1435.15 1604.73 1434.85L1622.62 1448.48C1622.14 1451.01 1623.8 1453.45 1626.33 1453.93 1628.86 1454.41 1631.31 1452.75 1631.79 1450.22 1631.84 1449.92 1631.87 1449.63 1631.87 1449.33 1631.86 1447.92 1631.21 1446.58 1630.1 1445.7L1638.54 1421.3C1638.65 1421.31 1638.76 1421.33 1638.87 1421.33 1641.45 1421.34 1643.56 1419.25 1643.57 1416.67 1643.58 1414.08 1641.49 1411.98 1638.9 1411.97 1636.31 1411.96 1634.21 1414.05 1634.2 1416.63 1634.2 1418.22 1635 1419.71 1636.33 1420.57L1627.96 1444.74C1627.71 1444.7 1627.46 1444.67 1627.2 1444.67 1625.83 1444.67 1624.53 1445.28 1623.66 1446.33L1606.55 1433.3C1608.02 1431.18 1607.49 1428.27 1605.37 1426.79 1603.25 1425.32 1600.34 1425.85 1598.87 1427.97 1597.4 1430.1 1597.92 1433.01 1600.05 1434.48 1600.2 1434.59 1600.36 1434.68 1600.53 1434.77L1590.51 1465.73C1587.96 1465.37 1585.61 1467.15 1585.25 1469.69 1584.89 1472.24 1586.66 1474.6 1589.21 1474.95 1589.43 1474.99 1589.65 1475 1589.87 1475Z" stroke="#FFFFFF" stroke-width="1.49333" fill="#FFFFFF"/></g></g></g><g><g><g><path d="M108.347 64.2937C107.95 63.8968 107.95 63.2353 108.347 62.7062L111.522 58.8697C112.845 57.1499 112.58 54.7687 110.993 53.4458 110.86 53.3135 110.728 53.3135 110.596 53.1812L106.362 50.4031C105.833 50.1385 105.701 49.477 105.833 48.9479L107.685 44.3176C108.479 42.3333 107.421 40.0843 105.436 39.2906 105.304 39.2906 105.172 39.1583 105.039 39.1583L100.145 37.8354C99.6155 37.7031 99.2186 37.1739 99.2186 36.5125L99.4832 31.4854C99.6155 29.3687 98.028 27.5166 95.779 27.3843 95.6468 27.3843 95.5145 27.3843 95.3822 27.3843L90.3551 27.6489C89.6936 27.6489 89.1645 27.252 89.0322 26.7229L87.7093 21.8281C87.1801 19.7114 85.0634 18.5208 82.9468 19.05 82.8145 19.05 82.6822 19.1823 82.5499 19.1823L77.9197 21.0343C77.3905 21.2989 76.7291 21.0343 76.4645 20.5052L73.6864 16.2719C72.4957 14.4198 70.1145 13.8906 68.2624 15.0812 68.1301 15.2135 67.9978 15.2135 67.8655 15.3458L64.0291 18.5208C63.6322 18.9177 62.8385 18.9177 62.4416 18.5208L58.6051 15.3458C56.8853 14.0229 54.5041 14.2875 53.1812 15.875 53.0489 16.0073 53.0489 16.1396 52.9166 16.2719L50.1385 20.5052C49.8739 21.0343 49.2124 21.1666 48.6833 21.0343L44.0531 19.1823C42.0687 18.3885 39.8197 19.3146 39.026 21.2989 39.026 21.4312 38.8937 21.5635 38.8937 21.8281L37.5708 26.7229C37.4385 27.252 36.9093 27.6489 36.2479 27.6489L31.2208 27.3843C29.1041 27.252 27.252 28.8395 27.1198 31.0885 27.1198 31.2208 27.1198 31.3531 27.1198 31.4854L27.3843 36.5125C27.3843 37.0416 26.9875 37.7031 26.4583 37.8354L21.5635 39.1583C19.4468 39.6875 18.2562 41.8041 18.7854 43.9208 18.7854 44.0531 18.9177 44.1854 18.9177 44.3176L20.7698 48.9479C21.0343 49.477 20.7698 50.1385 20.2406 50.4031L16.0073 53.0489C14.1552 54.2395 13.626 56.6208 14.8166 58.4728 14.9489 58.6051 14.9489 58.7374 15.0812 58.8697L18.2562 62.7062C18.6531 63.103 18.6531 63.8968 18.2562 64.2937L15.0812 68.1301C13.7583 69.8499 14.0229 72.2312 15.6104 73.5541 15.7427 73.6864 15.875 73.6864 16.0073 73.8187L20.2406 76.5968C20.7698 76.8614 20.9021 77.5228 20.7698 78.052L18.9177 82.6822C18.1239 84.6666 19.1823 86.9155 21.1666 87.7093 21.2989 87.7093 21.4312 87.8416 21.5635 87.8416L26.4583 89.1645C26.9875 89.2968 27.3843 89.8259 27.3843 90.4874L27.1198 95.5145C26.9875 97.6311 28.575 99.4832 30.8239 99.6155 30.9562 99.6155 31.0885 99.6155 31.2208 99.6155L36.2479 99.3509C36.777 99.3509 37.4385 99.7478 37.5708 100.277L38.8937 105.172C39.4229 107.288 41.5395 108.479 43.6562 107.95 43.7885 107.95 43.9208 107.818 44.0531 107.818L48.6833 105.965C49.2124 105.701 49.8739 105.965 50.1385 106.495L52.9166 110.728C54.1072 112.58 56.4885 113.109 58.3405 111.919 58.4728 111.786 58.6051 111.786 58.6051 111.654L62.4416 108.479C62.8385 108.082 63.6322 108.082 64.0291 108.479L67.8655 111.654C68.527 112.183 69.453 112.58 70.3791 112.58 70.6437 112.58 70.7759 112.58 71.0405 112.58 72.0989 112.448 73.1572 111.786 73.6864 110.86L76.4645 106.627C76.7291 106.098 77.3905 105.965 77.9197 106.098L82.5499 107.95C84.5343 108.744 86.7832 107.685 87.577 105.701 87.577 105.569 87.7093 105.436 87.7093 105.304L89.0322 100.409C89.1645 99.8801 89.6936 99.4832 90.3551 99.4832L95.3822 99.7478C97.4988 99.8801 99.3509 98.2926 99.4832 96.0436 99.4832 95.9113 99.4832 95.779 99.4832 95.6468L99.2186 90.6197C99.2186 90.0905 99.6155 89.429 100.145 89.2968L105.039 87.9738C107.156 87.4447 108.347 85.328 107.818 83.2113 107.818 83.0791 107.685 82.9468 107.685 82.8145L105.833 78.1843C105.569 77.6551 105.833 76.9937 106.362 76.7291L110.596 73.951C112.448 72.7603 112.977 70.3791 111.786 68.527 111.786 68.3947 108.347 64.2937 108.347 64.2937ZM105.039 74.4801C103.452 75.5384 102.79 77.3905 103.584 79.1103L105.436 83.7405C105.701 84.402 105.304 85.0634 104.775 85.328L104.643 85.328 99.7478 86.6509C97.8957 87.1801 96.7051 88.7676 96.8374 90.6197L97.102 95.6468C97.102 96.3082 96.5728 96.9697 95.9113 96.9697L95.779 96.9697 90.752 96.7051C88.8999 96.5728 87.1801 97.7634 86.7832 99.6155L85.4603 104.51C85.328 105.172 84.5343 105.569 83.8728 105.436L83.7405 105.436 79.1103 103.584C77.3905 102.923 75.4062 103.584 74.3478 105.039L71.5697 109.273C71.1728 109.802 70.3791 110.067 69.8499 109.67 69.8499 109.67 69.7176 109.67 69.7176 109.537L65.8812 106.362C64.426 105.172 62.4416 105.172 60.9864 106.362L57.1499 109.537C56.6208 109.934 55.827 109.934 55.4301 109.405 55.4301 109.405 55.4301 109.405 55.2978 109.273L52.5197 105.039C51.4614 103.452 49.6093 102.79 47.8895 103.584L43.2593 105.436C42.5979 105.701 41.9364 105.304 41.6718 104.775L41.6718 104.643 40.3489 99.7478C39.8197 97.8957 38.2322 96.7051 36.3802 96.8374L31.3531 97.102C30.6916 97.102 30.0302 96.5728 30.0302 95.9113L30.0302 95.779 30.2948 90.752C30.427 88.8999 29.2364 87.1801 27.3843 86.7832L22.4896 85.4603C22.0927 85.328 21.8281 85.1957 21.6958 84.7988 21.5635 84.5343 21.5635 84.1374 21.6958 83.7405L23.5479 79.1103C24.2093 77.3905 23.5479 75.4062 22.0927 74.4801L17.8594 71.702C17.3302 71.3051 17.0656 70.5114 17.4625 69.9822 17.4625 69.9822 17.4625 69.8499 17.5948 69.8499L20.7698 66.0135C21.9604 64.5583 21.9604 62.5739 20.7698 61.1187L17.5948 57.2822C17.1979 56.7531 17.1979 55.9593 17.7271 55.5624 17.7271 55.5624 17.8594 55.5624 17.8594 55.4301L22.0927 52.7843C23.6802 51.726 24.3416 49.8739 23.5479 48.1541L21.6958 43.5239C21.5635 43.2593 21.5635 42.8624 21.6958 42.4656 21.8281 42.201 22.0927 41.9364 22.4896 41.8041L27.3843 40.4812C29.2364 39.952 30.427 38.3645 30.2948 36.5125L30.0302 31.4854C30.0302 31.0885 30.1625 30.8239 30.427 30.5593 30.6916 30.2948 31.0885 30.1625 31.3531 30.1625L36.3802 30.427C38.2322 30.5593 39.8197 29.3687 40.3489 27.5166L41.6718 22.6218C41.8041 22.225 41.9364 21.9604 42.3333 21.8281 42.5979 21.6958 42.9947 21.6958 43.3916 21.8281L48.0218 23.6802C49.7416 24.3416 51.726 23.6802 52.652 22.225L55.2978 17.9916C55.6947 17.4625 56.4885 17.1979 57.0176 17.5948 57.0176 17.5948 57.1499 17.5948 57.1499 17.7271L60.9864 20.9021C62.4416 22.0927 64.426 22.0927 65.8812 20.9021L69.7176 17.7271C70.2468 17.3302 71.0405 17.3302 71.4374 17.8594 71.4374 17.8594 71.4374 17.8594 71.5697 17.9916L74.3478 22.225C75.4062 23.8125 77.2582 24.4739 78.978 23.6802L83.6082 21.8281C84.2697 21.5635 84.9311 21.9604 85.1957 22.4896L85.1957 22.6218 86.5186 27.5166C87.0478 29.3687 88.6353 30.5593 90.4874 30.427L95.5145 30.1625C95.9113 30.1625 96.1759 30.2948 96.4405 30.5593 96.7051 30.8239 96.8374 31.2208 96.8374 31.4854L96.5728 36.5125C96.4405 38.3645 97.6311 40.0843 99.4832 40.4812L104.378 41.8041C105.039 41.9364 105.436 42.7302 105.304 43.3916L105.304 43.5239 103.452 48.1541C102.79 49.8739 103.452 51.8583 104.907 52.7843L109.14 55.4301C109.67 55.827 109.934 56.6208 109.537 57.1499 109.537 57.1499 109.537 57.2822 109.405 57.2822L106.23 61.1187C105.039 62.5739 105.039 64.5583 106.23 66.0135L109.405 69.8499C110.067 70.3791 109.934 71.1728 109.273 71.702 109.273 71.702 105.039 74.4801 105.039 74.4801Z" stroke="#FFFFFF" stroke-width="1.45982" fill="#FFFFFF" transform="matrix(1 0 0 1.00787 1743 1653)"/><path d="M63.4999 30.427C45.2437 30.427 30.427 45.2437 30.427 63.4999 30.427 81.7561 45.2437 96.5728 63.4999 96.5728 81.7561 96.5728 96.5728 81.7561 96.5728 63.4999 96.5728 45.2437 81.7561 30.427 63.4999 30.427ZM63.4999 93.927C46.6989 93.927 33.0729 80.3009 33.0729 63.4999 33.0729 46.6989 46.6989 33.0729 63.4999 33.0729 80.3009 33.0729 93.927 46.6989 93.927 63.4999L93.927 63.4999C93.927 80.3009 80.3009 93.927 63.4999 93.927Z" stroke="#FFFFFF" stroke-width="1.45982" fill="#FFFFFF" transform="matrix(1 0 0 1.00787 1743 1653)"/><path d="M59.5312 70.9082 48.551 59.928 46.6989 61.7801 59.5312 74.6124 81.6239 52.5197 79.7718 50.6676Z" stroke="#FFFFFF" stroke-width="1.45982" fill="#FFFFFF" transform="matrix(1 0 0 1.00787 1743 1653)"/></g></g></g><g><g><g><path d="M1350.06 1398.69 1350.06 1319.94C1350.06 1312.26 1330.45 1308.12 1312 1308.12 1293.55 1308.12 1273.94 1312.26 1273.94 1319.94L1273.94 1398.69C1273.94 1406.36 1293.55 1410.5 1312 1410.5 1330.45 1410.5 1350.06 1406.36 1350.06 1398.69ZM1312 1310.75C1332.28 1310.75 1347.44 1315.61 1347.44 1319.94 1347.44 1324.27 1332.28 1329.12 1312 1329.12 1291.72 1329.12 1276.56 1324.27 1276.56 1319.94 1276.56 1315.61 1291.72 1310.75 1312 1310.75ZM1276.56 1324.48C1282.51 1329.23 1297.61 1331.75 1312 1331.75 1326.39 1331.75 1341.49 1329.23 1347.44 1324.48L1347.44 1346.19C1347.44 1350.52 1332.28 1355.38 1312 1355.38 1291.72 1355.38 1276.56 1350.52 1276.56 1346.19ZM1276.56 1350.73C1282.51 1355.48 1297.61 1358 1312 1358 1326.39 1358 1341.49 1355.48 1347.44 1350.73L1347.44 1372.44C1347.44 1376.77 1332.28 1381.62 1312 1381.62 1291.72 1381.62 1276.56 1376.77 1276.56 1372.44ZM1276.56 1398.69 1276.56 1376.98C1282.51 1381.73 1297.61 1384.25 1312 1384.25 1326.39 1384.25 1341.49 1381.73 1347.44 1376.98L1347.44 1398.69C1347.44 1403.02 1332.28 1407.88 1312 1407.88 1291.72 1407.88 1276.56 1403.02 1276.56 1398.69Z" stroke="#FFFFFF" stroke-width="1.44814" fill="#FFFFFF"/><path d="M1340.88 1342.25C1340.88 1343.7 1339.7 1344.88 1338.25 1344.88 1336.8 1344.88 1335.62 1343.7 1335.62 1342.25 1335.62 1340.8 1336.8 1339.62 1338.25 1339.62 1339.7 1339.62 1340.88 1340.8 1340.88 1342.25Z" stroke="#FFFFFF" stroke-width="1.44814" fill="#FFFFFF"/><path d="M1340.88 1368.5C1340.88 1369.95 1339.7 1371.12 1338.25 1371.12 1336.8 1371.12 1335.62 1369.95 1335.62 1368.5 1335.62 1367.05 1336.8 1365.88 1338.25 1365.88 1339.7 1365.88 1340.88 1367.05 1340.88 1368.5Z" stroke="#FFFFFF" stroke-width="1.44814" fill="#FFFFFF"/><path d="M1340.88 1394.75C1340.88 1396.2 1339.7 1397.38 1338.25 1397.38 1336.8 1397.38 1335.62 1396.2 1335.62 1394.75 1335.62 1393.3 1336.8 1392.12 1338.25 1392.12 1339.7 1392.12 1340.88 1393.3 1340.88 1394.75Z" stroke="#FFFFFF" stroke-width="1.44814" fill="#FFFFFF"/></g></g></g><g><g><g><path d="M810 1688.25 838.75 1688.25 838.75 1690.75 810 1690.75Z" stroke="#FFFFFF" stroke-width="1.48142" fill="#FFFFFF"/><path d="M810 1707 838.75 1707 838.75 1709.5 810 1709.5Z" stroke="#FFFFFF" stroke-width="1.48142" fill="#FFFFFF"/><path d="M810 1725.75 838.75 1725.75 838.75 1728.25 810 1728.25Z" stroke="#FFFFFF" stroke-width="1.48142" fill="#FFFFFF"/><path d="M810 1744.5 838.75 1744.5 838.75 1747 810 1747Z" stroke="#FFFFFF" stroke-width="1.48142" fill="#FFFFFF"/><path d="M872.5 1667 797.5 1667 797.5 1767 872.5 1767ZM870 1764.5 800 1764.5 800 1669.5 870 1669.5Z" stroke="#FFFFFF" stroke-width="1.48142" fill="#FFFFFF"/><path d="M860 1683.87 848.75 1683.87 848.75 1695.12 860 1695.12ZM857.5 1692.62 851.25 1692.62 851.25 1686.37 857.5 1686.37Z" stroke="#FFFFFF" stroke-width="1.48142" fill="#FFFFFF"/><path d="M860 1702.62 848.75 1702.62 848.75 1713.87 860 1713.87ZM857.5 1711.37 851.25 1711.37 851.25 1705.12 857.5 1705.12Z" stroke="#FFFFFF" stroke-width="1.48142" fill="#FFFFFF"/><path d="M860 1721.37 848.75 1721.37 848.75 1732.62 860 1732.62ZM857.5 1730.12 851.25 1730.12 851.25 1723.87 857.5 1723.87Z" stroke="#FFFFFF" stroke-width="1.48142" fill="#FFFFFF"/><path d="M860 1740.12 848.75 1740.12 848.75 1751.37 860 1751.37ZM857.5 1748.87 851.25 1748.87 851.25 1742.62 857.5 1742.62Z" stroke="#FFFFFF" stroke-width="1.48142" fill="#FFFFFF"/></g></g></g><text font-family="Inter,Inter_MSFontService,sans-serif" font-weight="700" font-size="64" transform="matrix(1 0 0 1 177.371 1521)">Project Lead Off</text><text font-family="Arial,Arial_MSFontService,sans-serif" font-weight="400" font-size="55" transform="matrix(1 0 0 1 177.371 1594)">•</text><text font-family="Inter,Inter_MSFontService,sans-serif" font-weight="400" font-size="55" transform="matrix(1 0 0 1 221.601 1594)">Research scope</text><text font-family="Arial,Arial_MSFontService,sans-serif" font-weight="400" font-size="55" transform="matrix(1 0 0 1 177.371 1663)">•</text><text font-family="Inter,Inter_MSFontService,sans-serif" font-weight="400" font-size="55" transform="matrix(1 0 0 1 221.601 1663)">Research objective</text><text font-family="Arial,Arial_MSFontService,sans-serif" font-weight="400" font-size="55" transform="matrix(1 0 0 1 177.371 1733)">•</text><text font-family="Inter,Inter_MSFontService,sans-serif" font-weight="400" font-size="55" transform="matrix(1 0 0 1 221.601 1733)">Research timeline</text><text font-family="Inter,Inter_MSFontService,sans-serif" font-weight="700" font-size="64" transform="matrix(1 0 0 1 467.512 1041)">Data Procurement</text><text font-family="Arial,Arial_MSFontService,sans-serif" font-weight="400" font-size="55" transform="matrix(1 0 0 1 467.512 1114)">•</text><text font-family="Inter,Inter_MSFontService,sans-serif" font-weight="400" font-size="55" transform="matrix(1 0 0 1 511.741 1114)">Primary research</text><text font-family="Arial,Arial_MSFontService,sans-serif" font-weight="400" font-size="55" transform="matrix(1 0 0 1 467.512 1183)">•</text><text font-family="Inter,Inter_MSFontService,sans-serif" font-weight="400" font-size="55" transform="matrix(1 0 0 1 511.741 1183)">Secondary research</text><text font-family="Arial,Arial_MSFontService,sans-serif" font-weight="400" font-size="55" transform="matrix(1 0 0 1 467.512 1253)">•</text><text font-family="Inter,Inter_MSFontService,sans-serif" font-weight="400" font-size="55" transform="matrix(1 0 0 1 511.741 1253)">Paid and proprietary</text><text font-family="Inter,Inter_MSFontService,sans-serif" font-weight="400" font-size="55" transform="matrix(1 0 0 1 511.741 1312)">databases</text><text font-family="Inter,Inter_MSFontService,sans-serif" font-weight="700" font-size="64" transform="matrix(1 0 0 1 1160.65 810)">Data Validation</text><text font-family="Arial,Arial_MSFontService,sans-serif" font-weight="400" font-size="55" transform="matrix(1 0 0 1 1160.65 883)">•</text><text font-family="Inter,Inter_MSFontService,sans-serif" font-weight="400" font-size="55" transform="matrix(1 0 0 1 1204.87 883)">Data screening</text><text font-family="Arial,Arial_MSFontService,sans-serif" font-weight="400" font-size="55" transform="matrix(1 0 0 1 1160.65 952)">•</text><text font-family="Inter,Inter_MSFontService,sans-serif" font-weight="400" font-size="55" transform="matrix(1 0 0 1 1204.87 952)">KOLs</text><text font-family="Arial,Arial_MSFontService,sans-serif" font-weight="400" font-size="55" transform="matrix(1 0 0 1 1160.65 1022)">•</text><text font-family="Inter,Inter_MSFontService,sans-serif" font-weight="400" font-size="55" transform="matrix(1 0 0 1 1204.87 1022)">Industry experts</text><text font-family="Arial,Arial_MSFontService,sans-serif" font-weight="400" font-size="55" transform="matrix(1 0 0 1 1160.65 1091)">•</text><text font-family="Inter,Inter_MSFontService,sans-serif" font-weight="400" font-size="55" transform="matrix(1 0 0 1 1204.87 1091)">CXOs</text><text font-family="Arial,Arial_MSFontService,sans-serif" font-weight="400" font-size="55" transform="matrix(1 0 0 1 1160.65 1160)">•</text><text font-family="Inter,Inter_MSFontService,sans-serif" font-weight="400" font-size="55" transform="matrix(1 0 0 1 1204.87 1160)">End users</text><text font-family="Inter,Inter_MSFontService,sans-serif" font-weight="700" font-size="64" transform="matrix(1 0 0 1 1839.74 1058)">Data Synthesis</text><text font-family="Arial,Arial_MSFontService,sans-serif" font-weight="400" font-size="55" transform="matrix(1 0 0 1 1839.74 1131)">•</text><text font-family="Inter,Inter_MSFontService,sans-serif" font-weight="400" font-size="55" transform="matrix(1 0 0 1 1883.96 1131)">Data integration</text><text font-family="Arial,Arial_MSFontService,sans-serif" font-weight="400" font-size="55" transform="matrix(1 0 0 1 1839.74 1200)">•</text><text font-family="Inter,Inter_MSFontService,sans-serif" font-weight="400" font-size="55" transform="matrix(1 0 0 1 1883.96 1200)">Market engineering</text><text font-family="Inter,Inter_MSFontService,sans-serif" font-weight="700" font-size="64" transform="matrix(1 0 0 1 2022.2 1426)">360</text><text font-family="Inter,Inter_MSFontService,sans-serif" font-weight="700" font-size="64" transform="matrix(1 0 0 1 2151.11 1426)">-</text><text font-family="Inter,Inter_MSFontService,sans-serif" font-weight="700" font-size="64" transform="matrix(1 0 0 1 2181.47 1426)">degree Market </text><text font-family="Inter,Inter_MSFontService,sans-serif" font-weight="700" font-size="64" transform="matrix(1 0 0 1 2022.2 1495)">Analysis</text><text font-family="Arial,Arial_MSFontService,sans-serif" font-weight="400" font-size="55" transform="matrix(1 0 0 1 2022.2 1568)">•</text><text font-family="Inter,Inter_MSFontService,sans-serif" font-weight="400" font-size="55" transform="matrix(1 0 0 1 2066.43 1568)">Competitive intelligence</text><text font-family="Arial,Arial_MSFontService,sans-serif" font-weight="400" font-size="55" transform="matrix(1 0 0 1 2022.2 1638)">•</text><text font-family="Inter,Inter_MSFontService,sans-serif" font-weight="400" font-size="55" transform="matrix(1 0 0 1 2066.43 1638)">Opportunities and </text><text font-family="Inter,Inter_MSFontService,sans-serif" font-weight="400" font-size="55" transform="matrix(1 0 0 1 2066.43 1697)">restraints</text><text font-family="Arial,Arial_MSFontService,sans-serif" font-weight="400" font-size="55" transform="matrix(1 0 0 1 2022.2 1766)">•</text><text font-family="Inter,Inter_MSFontService,sans-serif" font-weight="400" font-size="55" transform="matrix(1 0 0 1 2066.43 1766)">Market dynamics</text><text font-family="Arial,Arial_MSFontService,sans-serif" font-weight="400" font-size="55" transform="matrix(1 0 0 1 2022.2 1836)">•</text><text font-family="Inter,Inter_MSFontService,sans-serif" font-weight="400" font-size="55" transform="matrix(1 0 0 1 2066.43 1836)">Report writing</text><path d="M368 1871C368 1863.82 791.315 1858 1313.5 1858 1835.69 1858 2259 1863.82 2259 1871 2259 1878.18 1835.69 1884 1313.5 1884 791.315 1884 368 1878.18 368 1871Z" fill="#BFBFBF" fill-rule="evenodd"/><path d="M1353.88 1954 1277.08 1954 1276.48 1954 1275.28 1953.78 1274.2 1953.37 1273.2 1952.78 1272.36 1952.01 1271.72 1951.12 1271.24 1950.12 1271.04 1949.05 1271 1948.5 1271.04 1947.95 1271.24 1946.88 1271.72 1945.88 1272.36 1944.99 1273.2 1944.22 1274.2 1943.63 1275.28 1943.22 1276.48 1943 1277.08 1943 1353.88 1943 1354.48 1943 1355.72 1943.22 1356.8 1943.63 1357.8 1944.22 1358.6 1944.99 1359.24 1945.88 1359.72 1946.88 1359.96 1947.95 1360 1948.5 1359.96 1949.05 1359.72 1950.12 1359.24 1951.12 1358.6 1952.01 1357.8 1952.78 1356.8 1953.37 1355.72 1953.78 1354.48 1954 1353.88 1954 1353.88 1954Z" stroke="#BFBFBF" stroke-width="2.29167" stroke-linejoin="round" stroke-miterlimit="10" fill="#BFBFBF" fill-rule="evenodd"/><path d="M1353.88 1973 1277.08 1973 1276.48 1972.96 1275.28 1972.68 1274.2 1972.28 1273.2 1971.6 1272.36 1970.79 1271.72 1969.83 1271.24 1968.75 1271.04 1967.58 1271 1966.98 1271.04 1966.38 1271.24 1965.21 1271.72 1964.13 1272.36 1963.17 1273.2 1962.32 1274.2 1961.68 1275.28 1961.24 1276.48 1961 1277.08 1961 1353.88 1961 1354.48 1961 1355.72 1961.24 1356.8 1961.68 1357.8 1962.32 1358.6 1963.17 1359.24 1964.13 1359.72 1965.21 1359.96 1966.38 1360 1966.98 1359.96 1967.58 1359.72 1968.75 1359.24 1969.83 1358.6 1970.79 1357.8 1971.6 1356.8 1972.28 1355.72 1972.68 1354.48 1972.96 1353.88 1973 1353.88 1973Z" stroke="#BFBFBF" stroke-width="2.29167" stroke-linejoin="round" stroke-miterlimit="10" fill="#BFBFBF" fill-rule="evenodd"/><path d="M1337.04 1992 1294 1992 1293.37 1991.96 1292.2 1991.72 1291.14 1991.24 1290.16 1990.6 1289.37 1989.83 1288.75 1988.87 1288.27 1987.79 1288 1986.62 1288 1985.98 1288 1985.38 1288.27 1984.17 1288.75 1983.17 1289.37 1982.17 1290.16 1981.36 1291.14 1980.72 1292.2 1980.24 1293.37 1980.04 1294 1980 1337.04 1980 1337.63 1980.04 1338.8 1980.24 1339.86 1980.72 1340.84 1981.36 1341.67 1982.17 1342.29 1983.17 1342.76 1984.17 1342.96 1985.38 1343 1985.98 1342.96 1986.62 1342.76 1987.79 1342.29 1988.87 1341.67 1989.83 1340.84 1990.6 1339.86 1991.24 1338.8 1991.72 1337.63 1991.96 1337.04 1992 1337.04 1992Z" stroke="#BFBFBF" stroke-width="2.29167" stroke-linejoin="round" stroke-miterlimit="10" fill="#BFBFBF" fill-rule="evenodd"/><path d="M1375.72 1861.88 1370.8 1868.98 1363.73 1880.09 1359.37 1887.83 1355.51 1896.12 1353.01 1902.75 1351.58 1907.39 1350.27 1912.23 1349.24 1917.27 1348.45 1922.59 1347.89 1928.14 1347.69 1931 1283.31 1931 1283.15 1928.14 1282.59 1922.59 1281.76 1917.27 1280.73 1912.23 1279.45 1907.39 1277.99 1902.75 1275.52 1896.12 1271.59 1887.83 1267.27 1880.09 1260.2 1868.98 1255.32 1861.88 1250.24 1854.5 1243.17 1843.31 1238.96 1835.49 1236.19 1829.3 1234.52 1825.02 1233.01 1820.57 1231.78 1815.93 1230.71 1811.09 1229.87 1806.05 1229.32 1800.73 1229.04 1795.1 1229 1792.2 1229.08 1787.99 1229.75 1779.58 1231.14 1771.33 1233.25 1763.23 1235.99 1755.38 1239.4 1747.84 1243.53 1740.62 1248.29 1733.91 1252.34 1729.19 1255.24 1726.17 1258.26 1723.32 1261.47 1720.62 1264.89 1718.08 1268.42 1715.74 1272.15 1713.55 1276 1711.53 1280.05 1709.75 1284.26 1708.12 1288.62 1706.69 1293.15 1705.5 1297.83 1704.51 1302.68 1703.79 1307.72 1703.28 1312.84 1703.04 1315.5 1703 1318.16 1703.04 1323.32 1703.28 1328.32 1703.79 1333.17 1704.51 1337.85 1705.5 1342.38 1706.69 1346.78 1708.12 1350.95 1709.75 1355 1711.53 1358.85 1713.55 1362.58 1715.74 1366.15 1718.08 1369.53 1720.62 1372.74 1723.32 1375.8 1726.17 1378.66 1729.19 1382.75 1733.91 1387.51 1740.62 1391.6 1747.84 1395.05 1755.38 1397.79 1763.23 1399.9 1771.33 1401.25 1779.58 1401.96 1787.99 1402 1792.2 1402 1795.1 1401.68 1800.73 1401.13 1806.05 1400.33 1811.09 1399.26 1815.93 1397.95 1820.57 1396.48 1825.02 1394.81 1829.3 1392.04 1835.49 1387.83 1843.31 1380.76 1854.5 1375.72 1861.88 1375.72 1861.88Z" stroke="#BFBFBF" stroke-width="13.75" stroke-linejoin="round" stroke-miterlimit="10" fill="#FFFFFF" fill-rule="evenodd"/></g></svg>