<svg width="983" height="1199" viewBox="0 0 983 1199" fill="none" xmlns="http://www.w3.org/2000/svg">
<g clip-path="url(#clip0_123_1129)">
<rect width="983" height="1199" fill="white"/>
<rect y="184" width="983" height="1015" fill="url(#paint0_linear_123_1129)"/>
<g clip-path="url(#clip1_123_1129)">
<rect width="983" height="184" fill="url(#paint1_linear_123_1129)"/>
<g filter="url(#filter0_d_123_1129)">
<path d="M57.7159 39.9091L66.3523 64.3977H66.6932L75.3295 39.9091H79.0227L68.3409 69H64.7045L54.0227 39.9091H57.7159ZM87.4886 69.5114C86.1061 69.5114 84.8513 69.2509 83.7244 68.7301C82.5975 68.1998 81.7027 67.4375 81.0398 66.4432C80.3769 65.4394 80.0455 64.2273 80.0455 62.8068C80.0455 61.5568 80.2917 60.5436 80.7841 59.767C81.2765 58.9811 81.9347 58.3655 82.7585 57.9205C83.5824 57.4754 84.4915 57.1439 85.4858 56.9261C86.4896 56.6989 87.4981 56.5189 88.5114 56.3864C89.8371 56.2159 90.9119 56.0881 91.7358 56.0028C92.5691 55.9081 93.1752 55.7519 93.554 55.5341C93.9422 55.3163 94.1364 54.9375 94.1364 54.3977V54.2841C94.1364 52.8826 93.7528 51.7936 92.9858 51.017C92.2282 50.2405 91.0777 49.8523 89.5341 49.8523C87.9337 49.8523 86.679 50.2027 85.7699 50.9034C84.8608 51.6042 84.2216 52.3523 83.8523 53.1477L80.6705 52.0114C81.2386 50.6856 81.9962 49.6534 82.9432 48.9148C83.8996 48.1667 84.9413 47.6458 86.0682 47.3523C87.2045 47.0492 88.322 46.8977 89.4205 46.8977C90.1212 46.8977 90.9261 46.983 91.8352 47.1534C92.7538 47.3144 93.6392 47.6506 94.4915 48.1619C95.3532 48.6733 96.0682 49.4451 96.6364 50.4773C97.2045 51.5095 97.4886 52.892 97.4886 54.625V69H94.1364V66.0455H93.9659C93.7386 66.5189 93.3598 67.0256 92.8295 67.5653C92.2992 68.1051 91.5938 68.5644 90.7131 68.9432C89.8324 69.322 88.7576 69.5114 87.4886 69.5114ZM88 66.5C89.3258 66.5 90.4432 66.2396 91.3523 65.7188C92.2708 65.1979 92.9621 64.5256 93.4261 63.7017C93.8996 62.8778 94.1364 62.0114 94.1364 61.1023V58.0341C93.9943 58.2045 93.6818 58.3608 93.1989 58.5028C92.7254 58.6354 92.1761 58.7538 91.5511 58.858C90.9356 58.9527 90.3343 59.0379 89.7472 59.1136C89.1695 59.1799 88.7008 59.2367 88.3409 59.2841C87.4697 59.3977 86.6553 59.5824 85.8977 59.8381C85.1496 60.0843 84.5436 60.4583 84.0795 60.9602C83.625 61.4527 83.3977 62.125 83.3977 62.9773C83.3977 64.142 83.8286 65.0227 84.6903 65.6193C85.5616 66.2064 86.6648 66.5 88 66.5ZM106.96 39.9091V69H103.607V39.9091H106.96ZM113.099 69V47.1818H116.452V69H113.099ZM114.804 43.5455C114.151 43.5455 113.587 43.3229 113.114 42.8778C112.65 42.4328 112.418 41.8977 112.418 41.2727C112.418 40.6477 112.65 40.1127 113.114 39.6676C113.587 39.2225 114.151 39 114.804 39C115.457 39 116.016 39.2225 116.48 39.6676C116.954 40.1127 117.19 40.6477 117.19 41.2727C117.19 41.8977 116.954 42.4328 116.48 42.8778C116.016 43.3229 115.457 43.5455 114.804 43.5455ZM130.83 69.4545C129.012 69.4545 127.407 68.9953 126.015 68.0767C124.623 67.1487 123.534 65.8419 122.748 64.1562C121.962 62.4612 121.569 60.4583 121.569 58.1477C121.569 55.8561 121.962 53.8674 122.748 52.1818C123.534 50.4962 124.628 49.1941 126.029 48.2756C127.431 47.357 129.05 46.8977 130.887 46.8977C132.308 46.8977 133.43 47.1345 134.254 47.608C135.087 48.072 135.721 48.6023 136.157 49.1989C136.602 49.786 136.948 50.2689 137.194 50.6477H137.478V39.9091H140.83V69H137.592V65.6477H137.194C136.948 66.0455 136.597 66.5473 136.143 67.1534C135.688 67.75 135.04 68.285 134.197 68.7585C133.354 69.2225 132.232 69.4545 130.83 69.4545ZM131.285 66.4432C132.629 66.4432 133.766 66.0928 134.694 65.392C135.622 64.6818 136.327 63.7017 136.81 62.4517C137.293 61.1922 137.535 59.7386 137.535 58.0909C137.535 56.4621 137.298 55.0369 136.825 53.8153C136.351 52.5843 135.65 51.6278 134.722 50.946C133.794 50.2547 132.648 49.9091 131.285 49.9091C129.864 49.9091 128.681 50.2737 127.734 51.0028C126.796 51.7225 126.091 52.7027 125.617 53.9432C125.153 55.1742 124.921 56.5568 124.921 58.0909C124.921 59.6439 125.158 61.0549 125.631 62.3239C126.114 63.5833 126.825 64.5871 127.762 65.3352C128.709 66.0739 129.883 66.4432 131.285 66.4432ZM153.856 69.5114C152.473 69.5114 151.219 69.2509 150.092 68.7301C148.965 68.1998 148.07 67.4375 147.407 66.4432C146.744 65.4394 146.413 64.2273 146.413 62.8068C146.413 61.5568 146.659 60.5436 147.151 59.767C147.644 58.9811 148.302 58.3655 149.126 57.9205C149.95 57.4754 150.859 57.1439 151.853 56.9261C152.857 56.6989 153.865 56.5189 154.879 56.3864C156.204 56.2159 157.279 56.0881 158.103 56.0028C158.936 55.9081 159.542 55.7519 159.921 55.5341C160.309 55.3163 160.504 54.9375 160.504 54.3977V54.2841C160.504 52.8826 160.12 51.7936 159.353 51.017C158.595 50.2405 157.445 49.8523 155.901 49.8523C154.301 49.8523 153.046 50.2027 152.137 50.9034C151.228 51.6042 150.589 52.3523 150.219 53.1477L147.038 52.0114C147.606 50.6856 148.363 49.6534 149.31 48.9148C150.267 48.1667 151.308 47.6458 152.435 47.3523C153.572 47.0492 154.689 46.8977 155.788 46.8977C156.488 46.8977 157.293 46.983 158.202 47.1534C159.121 47.3144 160.006 47.6506 160.859 48.1619C161.72 48.6733 162.435 49.4451 163.004 50.4773C163.572 51.5095 163.856 52.892 163.856 54.625V69H160.504V66.0455H160.333C160.106 66.5189 159.727 67.0256 159.197 67.5653C158.666 68.1051 157.961 68.5644 157.08 68.9432C156.2 69.322 155.125 69.5114 153.856 69.5114ZM154.367 66.5C155.693 66.5 156.81 66.2396 157.719 65.7188C158.638 65.1979 159.329 64.5256 159.793 63.7017C160.267 62.8778 160.504 62.0114 160.504 61.1023V58.0341C160.362 58.2045 160.049 58.3608 159.566 58.5028C159.093 58.6354 158.543 58.7538 157.918 58.858C157.303 58.9527 156.701 59.0379 156.114 59.1136C155.537 59.1799 155.068 59.2367 154.708 59.2841C153.837 59.3977 153.022 59.5824 152.265 59.8381C151.517 60.0843 150.911 60.4583 150.447 60.9602C149.992 61.4527 149.765 62.125 149.765 62.9773C149.765 64.142 150.196 65.0227 151.058 65.6193C151.929 66.2064 153.032 66.5 154.367 66.5ZM179.463 47.1818V50.0227H168.156V47.1818H179.463ZM171.452 41.9545H174.804V62.75C174.804 63.697 174.941 64.4072 175.216 64.8807C175.5 65.3447 175.86 65.6572 176.295 65.8182C176.741 65.9697 177.209 66.0455 177.702 66.0455C178.071 66.0455 178.374 66.0265 178.611 65.9886C178.848 65.9413 179.037 65.9034 179.179 65.875L179.861 68.8864C179.634 68.9716 179.316 69.0568 178.909 69.142C178.502 69.2367 177.986 69.2841 177.361 69.2841C176.414 69.2841 175.486 69.0805 174.577 68.6733C173.677 68.2661 172.929 67.6458 172.332 66.8125C171.745 65.9792 171.452 64.928 171.452 63.6591V41.9545ZM184.506 69V47.1818H187.858V69H184.506ZM186.21 43.5455C185.557 43.5455 184.993 43.3229 184.52 42.8778C184.056 42.4328 183.824 41.8977 183.824 41.2727C183.824 40.6477 184.056 40.1127 184.52 39.6676C184.993 39.2225 185.557 39 186.21 39C186.864 39 187.422 39.2225 187.886 39.6676C188.36 40.1127 188.597 40.6477 188.597 41.2727C188.597 41.8977 188.36 42.4328 187.886 42.8778C187.422 43.3229 186.864 43.5455 186.21 43.5455ZM202.862 69.4545C200.892 69.4545 199.164 68.9858 197.677 68.0483C196.2 67.1108 195.044 65.7992 194.211 64.1136C193.387 62.428 192.975 60.4583 192.975 58.2045C192.975 55.9318 193.387 53.9479 194.211 52.2528C195.044 50.5578 196.2 49.2415 197.677 48.304C199.164 47.3665 200.892 46.8977 202.862 46.8977C204.831 46.8977 206.555 47.3665 208.032 48.304C209.519 49.2415 210.674 50.5578 211.498 52.2528C212.331 53.9479 212.748 55.9318 212.748 58.2045C212.748 60.4583 212.331 62.428 211.498 64.1136C210.674 65.7992 209.519 67.1108 208.032 68.0483C206.555 68.9858 204.831 69.4545 202.862 69.4545ZM202.862 66.4432C204.358 66.4432 205.589 66.0597 206.555 65.2926C207.521 64.5256 208.236 63.517 208.7 62.267C209.164 61.017 209.396 59.6629 209.396 58.2045C209.396 56.7462 209.164 55.3873 208.7 54.1278C208.236 52.8684 207.521 51.8504 206.555 51.0739C205.589 50.2973 204.358 49.9091 202.862 49.9091C201.365 49.9091 200.134 50.2973 199.168 51.0739C198.202 51.8504 197.487 52.8684 197.023 54.1278C196.559 55.3873 196.327 56.7462 196.327 58.2045C196.327 59.6629 196.559 61.017 197.023 62.267C197.487 63.517 198.202 64.5256 199.168 65.2926C200.134 66.0597 201.365 66.4432 202.862 66.4432ZM221.217 55.875V69H217.865V47.1818H221.104V50.5909H221.388C221.899 49.483 222.676 48.5928 223.717 47.9205C224.759 47.2386 226.104 46.8977 227.751 46.8977C229.229 46.8977 230.521 47.2008 231.629 47.8068C232.737 48.4034 233.599 49.3125 234.214 50.5341C234.83 51.7462 235.138 53.2803 235.138 55.1364V69H231.786V55.3636C231.786 53.6496 231.34 52.3144 230.45 51.358C229.56 50.392 228.339 49.9091 226.786 49.9091C225.715 49.9091 224.759 50.1411 223.916 50.6051C223.083 51.0691 222.425 51.7462 221.942 52.6364C221.459 53.5265 221.217 54.6061 221.217 55.875ZM262.002 47.1818V50.0227H250.695V47.1818H262.002ZM253.991 41.9545H257.343V62.75C257.343 63.697 257.48 64.4072 257.755 64.8807C258.039 65.3447 258.399 65.6572 258.835 65.8182C259.28 65.9697 259.748 66.0455 260.241 66.0455C260.61 66.0455 260.913 66.0265 261.15 65.9886C261.387 65.9413 261.576 65.9034 261.718 65.875L262.4 68.8864C262.173 68.9716 261.855 69.0568 261.448 69.142C261.041 69.2367 260.525 69.2841 259.9 69.2841C258.953 69.2841 258.025 69.0805 257.116 68.6733C256.216 68.2661 255.468 67.6458 254.871 66.8125C254.284 65.9792 253.991 64.928 253.991 63.6591V41.9545ZM275.958 69.4545C273.856 69.4545 272.042 68.9905 270.518 68.0625C269.003 67.125 267.833 65.8182 267.009 64.142C266.195 62.4564 265.788 60.4962 265.788 58.2614C265.788 56.0265 266.195 54.0568 267.009 52.3523C267.833 50.6383 268.979 49.303 270.447 48.3466C271.924 47.3807 273.647 46.8977 275.617 46.8977C276.754 46.8977 277.876 47.0871 278.984 47.4659C280.092 47.8447 281.1 48.4602 282.009 49.3125C282.918 50.1553 283.643 51.2727 284.183 52.6648C284.722 54.0568 284.992 55.7708 284.992 57.8068V59.2273H268.174V56.3295H281.583C281.583 55.0985 281.337 54 280.844 53.0341C280.362 52.0682 279.67 51.3059 278.771 50.7472C277.88 50.1884 276.829 49.9091 275.617 49.9091C274.282 49.9091 273.127 50.2405 272.151 50.9034C271.185 51.5568 270.442 52.4091 269.921 53.4602C269.4 54.5114 269.14 55.6383 269.14 56.8409V58.7727C269.14 60.4205 269.424 61.8172 269.992 62.9631C270.57 64.0994 271.37 64.9659 272.393 65.5625C273.415 66.1496 274.604 66.4432 275.958 66.4432C276.839 66.4432 277.634 66.3201 278.344 66.0739C279.064 65.8182 279.684 65.4394 280.205 64.9375C280.726 64.4261 281.129 63.7917 281.413 63.0341L284.651 63.9432C284.31 65.0417 283.737 66.0076 282.933 66.8409C282.128 67.6648 281.133 68.3087 279.95 68.7727C278.766 69.2273 277.435 69.4545 275.958 69.4545ZM298.955 69.4545C296.91 69.4545 295.148 68.9716 293.671 68.0057C292.194 67.0398 291.058 65.7093 290.262 64.0142C289.467 62.3191 289.069 60.3826 289.069 58.2045C289.069 55.9886 289.476 54.0331 290.29 52.3381C291.114 50.6335 292.26 49.303 293.728 48.3466C295.205 47.3807 296.929 46.8977 298.898 46.8977C300.433 46.8977 301.815 47.1818 303.046 47.75C304.277 48.3182 305.286 49.1136 306.072 50.1364C306.858 51.1591 307.345 52.3523 307.535 53.7159H304.183C303.927 52.7216 303.359 51.8409 302.478 51.0739C301.607 50.2973 300.433 49.9091 298.955 49.9091C297.648 49.9091 296.503 50.25 295.518 50.9318C294.542 51.6042 293.78 52.5559 293.231 53.7869C292.691 55.0085 292.421 56.4432 292.421 58.0909C292.421 59.7765 292.686 61.2443 293.217 62.4943C293.756 63.7443 294.514 64.715 295.489 65.4062C296.474 66.0975 297.629 66.4432 298.955 66.4432C299.826 66.4432 300.617 66.2917 301.327 65.9886C302.038 65.6856 302.639 65.25 303.131 64.6818C303.624 64.1136 303.974 63.4318 304.183 62.6364H307.535C307.345 63.9242 306.877 65.0843 306.129 66.1165C305.39 67.1392 304.41 67.9536 303.188 68.5597C301.976 69.1562 300.565 69.4545 298.955 69.4545ZM315.788 55.875V69H312.435V39.9091H315.788V50.5909H316.072C316.583 49.464 317.35 48.5691 318.373 47.9062C319.405 47.2339 320.778 46.8977 322.492 46.8977C323.979 46.8977 325.281 47.196 326.398 47.7926C327.516 48.3797 328.382 49.2841 328.998 50.5057C329.623 51.7178 329.935 53.2614 329.935 55.1364V69H326.583V55.3636C326.583 53.6307 326.133 52.2907 325.234 51.3438C324.344 50.3873 323.108 49.9091 321.526 49.9091C320.428 49.9091 319.443 50.1411 318.572 50.6051C317.71 51.0691 317.028 51.7462 316.526 52.6364C316.034 53.5265 315.788 54.6061 315.788 55.875ZM339.42 55.875V69H336.068V47.1818H339.307V50.5909H339.591C340.102 49.483 340.879 48.5928 341.92 47.9205C342.962 47.2386 344.307 46.8977 345.955 46.8977C347.432 46.8977 348.724 47.2008 349.832 47.8068C350.94 48.4034 351.802 49.3125 352.418 50.5341C353.033 51.7462 353.341 53.2803 353.341 55.1364V69H349.989V55.3636C349.989 53.6496 349.544 52.3144 348.653 51.358C347.763 50.392 346.542 49.9091 344.989 49.9091C343.919 49.9091 342.962 50.1411 342.119 50.6051C341.286 51.0691 340.628 51.7462 340.145 52.6364C339.662 53.5265 339.42 54.6061 339.42 55.875ZM359.467 69V47.1818H362.819V69H359.467ZM361.171 43.5455C360.518 43.5455 359.954 43.3229 359.481 42.8778C359.017 42.4328 358.785 41.8977 358.785 41.2727C358.785 40.6477 359.017 40.1127 359.481 39.6676C359.954 39.2225 360.518 39 361.171 39C361.825 39 362.383 39.2225 362.847 39.6676C363.321 40.1127 363.558 40.6477 363.558 41.2727C363.558 41.8977 363.321 42.4328 362.847 42.8778C362.383 43.3229 361.825 43.5455 361.171 43.5455ZM383.845 77.1818V65.6477H383.561C383.315 66.0455 382.964 66.5473 382.51 67.1534C382.055 67.75 381.407 68.285 380.564 68.7585C379.721 69.2225 378.599 69.4545 377.197 69.4545C375.379 69.4545 373.774 68.9953 372.382 68.0767C370.99 67.1487 369.901 65.8419 369.115 64.1562C368.329 62.4612 367.936 60.4583 367.936 58.1477C367.936 55.8561 368.329 53.8674 369.115 52.1818C369.901 50.4962 370.995 49.1941 372.396 48.2756C373.798 47.357 375.417 46.8977 377.254 46.8977C378.675 46.8977 379.797 47.1345 380.621 47.608C381.454 48.072 382.089 48.6023 382.524 49.1989C382.969 49.786 383.315 50.2689 383.561 50.6477H383.959V47.1818H387.197V77.1818H383.845ZM377.652 66.4432C378.997 66.4432 380.133 66.0928 381.061 65.392C381.989 64.6818 382.695 63.7017 383.178 62.4517C383.661 61.1922 383.902 59.7386 383.902 58.0909C383.902 56.4621 383.665 55.0369 383.192 53.8153C382.718 52.5843 382.018 51.6278 381.089 50.946C380.161 50.2547 379.016 49.9091 377.652 49.9091C376.232 49.9091 375.048 50.2737 374.101 51.0028C373.163 51.7225 372.458 52.7027 371.984 53.9432C371.52 55.1742 371.288 56.5568 371.288 58.0909C371.288 59.6439 371.525 61.0549 371.999 62.3239C372.482 63.5833 373.192 64.5871 374.129 65.3352C375.076 66.0739 376.25 66.4432 377.652 66.4432ZM407.084 60.0795V47.1818H410.436V69H407.084V65.3068H406.857C406.345 66.4148 405.55 67.357 404.47 68.1335C403.391 68.9006 402.027 69.2841 400.379 69.2841C399.016 69.2841 397.804 68.9858 396.743 68.3892C395.682 67.7831 394.849 66.8741 394.243 65.6619C393.637 64.4403 393.334 62.9015 393.334 61.0455V47.1818H396.686V60.8182C396.686 62.4091 397.131 63.678 398.021 64.625C398.921 65.572 400.067 66.0455 401.459 66.0455C402.292 66.0455 403.14 65.8324 404.001 65.4062C404.873 64.9801 405.602 64.3267 406.189 63.446C406.786 62.5653 407.084 61.4432 407.084 60.0795ZM425.724 69.4545C423.621 69.4545 421.808 68.9905 420.283 68.0625C418.768 67.125 417.599 65.8182 416.775 64.142C415.96 62.4564 415.553 60.4962 415.553 58.2614C415.553 56.0265 415.96 54.0568 416.775 52.3523C417.599 50.6383 418.745 49.303 420.212 48.3466C421.69 47.3807 423.413 46.8977 425.383 46.8977C426.519 46.8977 427.641 47.0871 428.749 47.4659C429.857 47.8447 430.866 48.4602 431.775 49.3125C432.684 50.1553 433.408 51.2727 433.948 52.6648C434.488 54.0568 434.758 55.7708 434.758 57.8068V59.2273H417.94V56.3295H431.349C431.349 55.0985 431.103 54 430.61 53.0341C430.127 52.0682 429.436 51.3059 428.536 50.7472C427.646 50.1884 426.595 49.9091 425.383 49.9091C424.048 49.9091 422.892 50.2405 421.917 50.9034C420.951 51.5568 420.208 52.4091 419.687 53.4602C419.166 54.5114 418.906 55.6383 418.906 56.8409V58.7727C418.906 60.4205 419.19 61.8172 419.758 62.9631C420.335 64.0994 421.136 64.9659 422.158 65.5625C423.181 66.1496 424.37 66.4432 425.724 66.4432C426.604 66.4432 427.4 66.3201 428.11 66.0739C428.83 65.8182 429.45 65.4394 429.971 64.9375C430.492 64.4261 430.894 63.7917 431.178 63.0341L434.417 63.9432C434.076 65.0417 433.503 66.0076 432.698 66.8409C431.893 67.6648 430.899 68.3087 429.715 68.7727C428.531 69.2273 427.201 69.4545 425.724 69.4545ZM455.312 52.0682L452.3 52.9205C452.111 52.4186 451.832 51.9309 451.462 51.4574C451.103 50.9744 450.61 50.5767 449.985 50.2642C449.36 49.9517 448.56 49.7955 447.585 49.7955C446.249 49.7955 445.137 50.1032 444.246 50.7188C443.366 51.3248 442.925 52.0966 442.925 53.0341C442.925 53.8674 443.228 54.5256 443.835 55.0085C444.441 55.4915 445.388 55.8939 446.675 56.2159L449.914 57.0114C451.865 57.4848 453.318 58.2093 454.275 59.1847C455.231 60.1506 455.71 61.3958 455.71 62.9205C455.71 64.1705 455.35 65.2879 454.63 66.2727C453.92 67.2576 452.925 68.0341 451.647 68.6023C450.369 69.1705 448.882 69.4545 447.187 69.4545C444.961 69.4545 443.12 68.9716 441.661 68.0057C440.203 67.0398 439.28 65.6288 438.891 63.7727L442.073 62.9773C442.376 64.1515 442.949 65.0322 443.792 65.6193C444.644 66.2064 445.757 66.5 447.13 66.5C448.692 66.5 449.933 66.1686 450.852 65.5057C451.78 64.8333 452.244 64.0284 452.244 63.0909C452.244 62.3333 451.978 61.6989 451.448 61.1875C450.918 60.6667 450.103 60.2784 449.005 60.0227L445.369 59.1705C443.371 58.697 441.903 57.9631 440.965 56.9688C440.037 55.965 439.573 54.7102 439.573 53.2045C439.573 51.9735 439.919 50.8845 440.61 49.9375C441.311 48.9905 442.263 48.2472 443.465 47.7074C444.677 47.1676 446.05 46.8977 447.585 46.8977C449.744 46.8977 451.439 47.3712 452.67 48.3182C453.91 49.2652 454.791 50.5152 455.312 52.0682ZM481.153 69.4545C479.051 69.4545 477.238 68.9905 475.713 68.0625C474.198 67.125 473.028 65.8182 472.205 64.142C471.39 62.4564 470.983 60.4962 470.983 58.2614C470.983 56.0265 471.39 54.0568 472.205 52.3523C473.028 50.6383 474.174 49.303 475.642 48.3466C477.119 47.3807 478.843 46.8977 480.812 46.8977C481.949 46.8977 483.071 47.0871 484.179 47.4659C485.287 47.8447 486.295 48.4602 487.205 49.3125C488.114 50.1553 488.838 51.2727 489.378 52.6648C489.918 54.0568 490.188 55.7708 490.188 57.8068V59.2273H473.369V56.3295H486.778C486.778 55.0985 486.532 54 486.04 53.0341C485.557 52.0682 484.866 51.3059 483.966 50.7472C483.076 50.1884 482.025 49.9091 480.812 49.9091C479.477 49.9091 478.322 50.2405 477.347 50.9034C476.381 51.5568 475.637 52.4091 475.116 53.4602C474.596 54.5114 474.335 55.6383 474.335 56.8409V58.7727C474.335 60.4205 474.619 61.8172 475.188 62.9631C475.765 64.0994 476.565 64.9659 477.588 65.5625C478.611 66.1496 479.799 66.4432 481.153 66.4432C482.034 66.4432 482.83 66.3201 483.54 66.0739C484.259 65.8182 484.88 65.4394 485.401 64.9375C485.921 64.4261 486.324 63.7917 486.608 63.0341L489.847 63.9432C489.506 65.0417 488.933 66.0076 488.128 66.8409C487.323 67.6648 486.329 68.3087 485.145 68.7727C483.961 69.2273 482.631 69.4545 481.153 69.4545ZM495.287 69V47.1818H498.526V50.5909H498.81C499.264 49.4261 499.998 48.5218 501.011 47.8778C502.025 47.2244 503.241 46.8977 504.662 46.8977C506.101 46.8977 507.299 47.2244 508.256 47.8778C509.222 48.5218 509.974 49.4261 510.514 50.5909H510.741C511.3 49.464 512.138 48.5691 513.256 47.9062C514.373 47.2339 515.713 46.8977 517.276 46.8977C519.226 46.8977 520.822 47.5085 522.062 48.7301C523.303 49.9422 523.923 51.8314 523.923 54.3977V69H520.571V54.3977C520.571 52.7879 520.131 51.6373 519.25 50.946C518.369 50.2547 517.332 49.9091 516.139 49.9091C514.605 49.9091 513.417 50.3731 512.574 51.3011C511.731 52.2197 511.31 53.3845 511.31 54.7955V69H507.901V54.0568C507.901 52.8163 507.498 51.8172 506.693 51.0597C505.888 50.2926 504.851 49.9091 503.582 49.9091C502.711 49.9091 501.897 50.1411 501.139 50.6051C500.391 51.0691 499.785 51.7131 499.321 52.5369C498.866 53.3513 498.639 54.2936 498.639 55.3636V69H495.287ZM530.053 77.1818V47.1818H533.291V50.6477H533.689C533.935 50.2689 534.276 49.786 534.712 49.1989C535.157 48.6023 535.791 48.072 536.615 47.608C537.448 47.1345 538.575 46.8977 539.996 46.8977C541.833 46.8977 543.452 47.357 544.854 48.2756C546.255 49.1941 547.349 50.4962 548.135 52.1818C548.921 53.8674 549.314 55.8561 549.314 58.1477C549.314 60.4583 548.921 62.4612 548.135 64.1562C547.349 65.8419 546.26 67.1487 544.868 68.0767C543.476 68.9953 541.871 69.4545 540.053 69.4545C538.651 69.4545 537.529 69.2225 536.686 68.7585C535.843 68.285 535.195 67.75 534.74 67.1534C534.286 66.5473 533.935 66.0455 533.689 65.6477H533.405V77.1818H530.053ZM533.348 58.0909C533.348 59.7386 533.589 61.1922 534.072 62.4517C534.555 63.7017 535.261 64.6818 536.189 65.392C537.117 66.0928 538.253 66.4432 539.598 66.4432C541 66.4432 542.169 66.0739 543.107 65.3352C544.054 64.5871 544.764 63.5833 545.237 62.3239C545.72 61.0549 545.962 59.6439 545.962 58.0909C545.962 56.5568 545.725 55.1742 545.251 53.9432C544.787 52.7027 544.082 51.7225 543.135 51.0028C542.197 50.2737 541.018 49.9091 539.598 49.9091C538.234 49.9091 537.089 50.2547 536.161 50.946C535.232 51.6278 534.532 52.5843 534.058 53.8153C533.585 55.0369 533.348 56.4621 533.348 58.0909ZM557.78 39.9091V69H554.428V39.9091H557.78ZM572.783 69.4545C570.814 69.4545 569.085 68.9858 567.599 68.0483C566.121 67.1108 564.966 65.7992 564.133 64.1136C563.309 62.428 562.897 60.4583 562.897 58.2045C562.897 55.9318 563.309 53.9479 564.133 52.2528C564.966 50.5578 566.121 49.2415 567.599 48.304C569.085 47.3665 570.814 46.8977 572.783 46.8977C574.753 46.8977 576.477 47.3665 577.954 48.304C579.441 49.2415 580.596 50.5578 581.42 52.2528C582.253 53.9479 582.67 55.9318 582.67 58.2045C582.67 60.4583 582.253 62.428 581.42 64.1136C580.596 65.7992 579.441 67.1108 577.954 68.0483C576.477 68.9858 574.753 69.4545 572.783 69.4545ZM572.783 66.4432C574.28 66.4432 575.511 66.0597 576.477 65.2926C577.442 64.5256 578.157 63.517 578.621 62.267C579.085 61.017 579.317 59.6629 579.317 58.2045C579.317 56.7462 579.085 55.3873 578.621 54.1278C578.157 52.8684 577.442 51.8504 576.477 51.0739C575.511 50.2973 574.28 49.9091 572.783 49.9091C571.287 49.9091 570.056 50.2973 569.09 51.0739C568.124 51.8504 567.409 52.8684 566.945 54.1278C566.481 55.3873 566.249 56.7462 566.249 58.2045C566.249 59.6629 566.481 61.017 566.945 62.267C567.409 63.517 568.124 64.5256 569.09 65.2926C570.056 66.0597 571.287 66.4432 572.783 66.4432ZM589.165 77.1818C588.597 77.1818 588.09 77.1345 587.645 77.0398C587.2 76.9545 586.892 76.8693 586.722 76.7841L587.574 73.8295C588.388 74.0379 589.108 74.1136 589.733 74.0568C590.358 74 590.912 73.7206 591.395 73.2188C591.887 72.7263 592.337 71.9261 592.744 70.8182L593.369 69.1136L585.301 47.1818H588.938L594.96 64.5682H595.188L601.21 47.1818H604.847L595.585 72.1818C595.169 73.3087 594.652 74.2415 594.037 74.9801C593.421 75.7282 592.706 76.2822 591.892 76.642C591.087 77.0019 590.178 77.1818 589.165 77.1818ZM617.638 69.4545C615.536 69.4545 613.722 68.9905 612.197 68.0625C610.682 67.125 609.513 65.8182 608.689 64.142C607.875 62.4564 607.467 60.4962 607.467 58.2614C607.467 56.0265 607.875 54.0568 608.689 52.3523C609.513 50.6383 610.659 49.303 612.126 48.3466C613.604 47.3807 615.327 46.8977 617.297 46.8977C618.433 46.8977 619.555 47.0871 620.663 47.4659C621.771 47.8447 622.78 48.4602 623.689 49.3125C624.598 50.1553 625.322 51.2727 625.862 52.6648C626.402 54.0568 626.672 55.7708 626.672 57.8068V59.2273H609.854V56.3295H623.263C623.263 55.0985 623.017 54 622.524 53.0341C622.041 52.0682 621.35 51.3059 620.45 50.7472C619.56 50.1884 618.509 49.9091 617.297 49.9091C615.962 49.9091 614.806 50.2405 613.831 50.9034C612.865 51.5568 612.122 52.4091 611.601 53.4602C611.08 54.5114 610.82 55.6383 610.82 56.8409V58.7727C610.82 60.4205 611.104 61.8172 611.672 62.9631C612.25 64.0994 613.05 64.9659 614.072 65.5625C615.095 66.1496 616.284 66.4432 617.638 66.4432C618.518 66.4432 619.314 66.3201 620.024 66.0739C620.744 65.8182 621.364 65.4394 621.885 64.9375C622.406 64.4261 622.808 63.7917 623.092 63.0341L626.331 63.9432C625.99 65.0417 625.417 66.0076 624.612 66.8409C623.807 67.6648 622.813 68.3087 621.629 68.7727C620.446 69.2273 619.115 69.4545 617.638 69.4545ZM640.01 69.4545C638.192 69.4545 636.587 68.9953 635.195 68.0767C633.803 67.1487 632.714 65.8419 631.928 64.1562C631.142 62.4612 630.749 60.4583 630.749 58.1477C630.749 55.8561 631.142 53.8674 631.928 52.1818C632.714 50.4962 633.807 49.1941 635.209 48.2756C636.61 47.357 638.23 46.8977 640.067 46.8977C641.487 46.8977 642.609 47.1345 643.433 47.608C644.267 48.072 644.901 48.6023 645.337 49.1989C645.782 49.786 646.127 50.2689 646.374 50.6477H646.658V39.9091H650.01V69H646.771V65.6477H646.374C646.127 66.0455 645.777 66.5473 645.322 67.1534C644.868 67.75 644.219 68.285 643.376 68.7585C642.534 69.2225 641.411 69.4545 640.01 69.4545ZM640.464 66.4432C641.809 66.4432 642.946 66.0928 643.874 65.392C644.802 64.6818 645.507 63.7017 645.99 62.4517C646.473 61.1922 646.714 59.7386 646.714 58.0909C646.714 56.4621 646.478 55.0369 646.004 53.8153C645.531 52.5843 644.83 51.6278 643.902 50.946C642.974 50.2547 641.828 49.9091 640.464 49.9091C639.044 49.9091 637.86 50.2737 636.913 51.0028C635.976 51.7225 635.27 52.7027 634.797 53.9432C634.333 55.1742 634.101 56.5568 634.101 58.0909C634.101 59.6439 634.338 61.0549 634.811 62.3239C635.294 63.5833 636.004 64.5871 636.942 65.3352C637.889 66.0739 639.063 66.4432 640.464 66.4432ZM677.581 47.1818V50.0227H665.82V47.1818H677.581ZM669.342 69V44.1705C669.342 42.9205 669.636 41.8788 670.223 41.0455C670.81 40.2121 671.572 39.5871 672.51 39.1705C673.447 38.7538 674.437 38.5455 675.479 38.5455C676.303 38.5455 676.975 38.6117 677.496 38.7443C678.017 38.8769 678.405 39 678.661 39.1136L677.695 42.0114C677.524 41.9545 677.287 41.8835 676.984 41.7983C676.691 41.7131 676.303 41.6705 675.82 41.6705C674.712 41.6705 673.911 41.9498 673.419 42.5085C672.936 43.0672 672.695 43.8864 672.695 44.9659V69H669.342ZM690.244 69.4545C688.275 69.4545 686.546 68.9858 685.06 68.0483C683.582 67.1108 682.427 65.7992 681.594 64.1136C680.77 62.428 680.358 60.4583 680.358 58.2045C680.358 55.9318 680.77 53.9479 681.594 52.2528C682.427 50.5578 683.582 49.2415 685.06 48.304C686.546 47.3665 688.275 46.8977 690.244 46.8977C692.214 46.8977 693.938 47.3665 695.415 48.304C696.902 49.2415 698.057 50.5578 698.881 52.2528C699.714 53.9479 700.131 55.9318 700.131 58.2045C700.131 60.4583 699.714 62.428 698.881 64.1136C698.057 65.7992 696.902 67.1108 695.415 68.0483C693.938 68.9858 692.214 69.4545 690.244 69.4545ZM690.244 66.4432C691.741 66.4432 692.972 66.0597 693.938 65.2926C694.903 64.5256 695.618 63.517 696.082 62.267C696.546 61.017 696.778 59.6629 696.778 58.2045C696.778 56.7462 696.546 55.3873 696.082 54.1278C695.618 52.8684 694.903 51.8504 693.938 51.0739C692.972 50.2973 691.741 49.9091 690.244 49.9091C688.748 49.9091 687.517 50.2973 686.551 51.0739C685.585 51.8504 684.87 52.8684 684.406 54.1278C683.942 55.3873 683.71 56.7462 683.71 58.2045C683.71 59.6629 683.942 61.017 684.406 62.267C684.87 63.517 685.585 64.5256 686.551 65.2926C687.517 66.0597 688.748 66.4432 690.244 66.4432ZM705.248 69V47.1818H708.487V50.4773H708.714C709.112 49.3977 709.831 48.5218 710.873 47.8494C711.915 47.1771 713.089 46.8409 714.396 46.8409C714.642 46.8409 714.95 46.8456 715.319 46.8551C715.688 46.8646 715.968 46.8788 716.157 46.8977V50.3068C716.043 50.2784 715.783 50.2358 715.376 50.179C714.978 50.1127 714.557 50.0795 714.112 50.0795C713.051 50.0795 712.104 50.3021 711.271 50.7472C710.447 51.1828 709.793 51.7888 709.31 52.5653C708.837 53.3324 708.6 54.2083 708.6 55.1932V69H705.248Z" fill="#91C8FF"/>
<path d="M56.5778 100.727H70.7273L82.7301 129.996H83.2841L95.2869 100.727H109.436V148H98.3107V118.962H97.9183L86.5618 147.7H79.4524L68.0959 118.801H67.7035V148H56.5778V100.727ZM126.789 148H114.509L130.459 100.727H145.67L161.62 148H149.34L138.237 112.638H137.868L126.789 148ZM125.15 129.396H150.817V138.075H125.15V129.396ZM166.71 148V100.727H186.237C189.777 100.727 192.831 101.366 195.401 102.643C197.986 103.905 199.979 105.721 201.379 108.091C202.78 110.445 203.48 113.238 203.48 116.469C203.48 119.747 202.764 122.532 201.333 124.825C199.902 127.103 197.871 128.842 195.239 130.042C192.608 131.227 189.492 131.819 185.891 131.819H173.542V122.817H183.767C185.491 122.817 186.93 122.594 188.084 122.148C189.253 121.686 190.138 120.994 190.738 120.07C191.339 119.132 191.639 117.931 191.639 116.469C191.639 115.008 191.339 113.8 190.738 112.846C190.138 111.876 189.253 111.153 188.084 110.676C186.914 110.183 185.476 109.937 183.767 109.937H178.135V148H166.71ZM193.324 126.395L205.096 148H192.631L181.09 126.395H193.324ZM209.747 148V100.727H221.172V120.717H221.796L237.422 100.727H250.88L234.122 121.825L251.18 148H237.515L225.743 129.419L221.172 135.189V148H209.747ZM255.386 148V100.727H288.348V110.006H266.812V119.701H286.663V129.003H266.812V138.721H288.348V148H255.386ZM293.957 110.006V100.727H333.913V110.006H319.578V148H308.314V110.006H293.957ZM379.01 114.9C378.856 113.207 378.171 111.891 376.956 110.953C375.755 109.999 374.039 109.522 371.808 109.522C370.331 109.522 369.1 109.714 368.115 110.099C367.13 110.483 366.391 111.014 365.899 111.691C365.407 112.353 365.153 113.115 365.137 113.977C365.107 114.684 365.245 115.308 365.553 115.846C365.876 116.385 366.338 116.862 366.938 117.277C367.553 117.677 368.292 118.031 369.154 118.339C370.015 118.647 370.985 118.916 372.062 119.147L376.125 120.07C378.464 120.578 380.526 121.255 382.311 122.102C384.111 122.948 385.619 123.956 386.835 125.125C388.066 126.295 388.997 127.641 389.628 129.165C390.259 130.688 390.582 132.396 390.597 134.289C390.582 137.274 389.828 139.837 388.335 141.975C386.842 144.114 384.696 145.753 381.895 146.892C379.11 148.031 375.748 148.6 371.808 148.6C367.853 148.6 364.406 148.008 361.467 146.823C358.528 145.638 356.243 143.837 354.612 141.422C352.981 139.006 352.142 135.951 352.096 132.258H363.037C363.129 133.781 363.537 135.051 364.26 136.066C364.983 137.082 365.976 137.851 367.238 138.375C368.515 138.898 369.992 139.159 371.67 139.159C373.208 139.159 374.516 138.952 375.594 138.536C376.686 138.121 377.525 137.544 378.11 136.805C378.694 136.066 378.994 135.22 379.01 134.266C378.994 133.373 378.717 132.612 378.179 131.981C377.64 131.335 376.809 130.781 375.686 130.319C374.578 129.842 373.162 129.403 371.439 129.003L366.499 127.849C362.406 126.91 359.182 125.395 356.828 123.302C354.473 121.194 353.304 118.347 353.319 114.761C353.304 111.838 354.089 109.275 355.674 107.075C357.259 104.874 359.451 103.159 362.252 101.928C365.053 100.696 368.246 100.081 371.831 100.081C375.494 100.081 378.671 100.704 381.364 101.951C384.073 103.182 386.173 104.913 387.666 107.144C389.158 109.375 389.92 111.961 389.951 114.9H379.01ZM407.794 100.727V148H396.368V100.727H407.794ZM414.805 148V141.491L437.772 110.006H414.828V100.727H452.221V107.237L429.254 138.721H452.198V148H414.805ZM470.635 100.727V148H459.21V100.727H470.635ZM518.041 100.727V148H508.346L489.534 120.717H489.234V148H477.808V100.727H487.641L506.246 127.964H506.638V100.727H518.041ZM556.248 116.169C555.986 115.2 555.602 114.346 555.094 113.607C554.586 112.853 553.963 112.215 553.224 111.691C552.486 111.168 551.639 110.776 550.685 110.514C549.731 110.237 548.685 110.099 547.546 110.099C545.253 110.099 543.268 110.653 541.591 111.761C539.929 112.869 538.644 114.484 537.736 116.608C536.828 118.716 536.374 121.278 536.374 124.294C536.374 127.326 536.813 129.911 537.69 132.05C538.567 134.189 539.836 135.82 541.498 136.944C543.16 138.067 545.176 138.629 547.546 138.629C549.639 138.629 551.408 138.29 552.855 137.613C554.317 136.92 555.425 135.943 556.179 134.681C556.933 133.42 557.31 131.935 557.31 130.227L559.433 130.48H547.938V122.148H568.32V128.403C568.32 132.635 567.42 136.259 565.619 139.275C563.834 142.291 561.372 144.607 558.233 146.223C555.109 147.838 551.516 148.646 547.454 148.646C542.945 148.646 538.982 147.669 535.566 145.715C532.15 143.761 529.488 140.975 527.58 137.359C525.671 133.727 524.717 129.419 524.717 124.433C524.717 120.555 525.294 117.116 526.449 114.115C527.603 111.099 529.211 108.545 531.273 106.452C533.35 104.359 535.751 102.774 538.475 101.697C541.214 100.62 544.16 100.081 547.315 100.081C550.054 100.081 552.601 100.473 554.955 101.258C557.325 102.043 559.418 103.151 561.234 104.582C563.065 106.013 564.55 107.714 565.689 109.683C566.827 111.653 567.535 113.815 567.812 116.169H556.248Z" fill="white"/>
</g>
</g>
<path d="M911.667 71.1673L870 50.334L828.333 71.1673V112.834L870 133.667L911.667 112.834V71.1673Z" stroke="#4DABFF" stroke-width="8.33333" stroke-linejoin="round"/>
<path d="M828.333 71.167L870 92.0003" stroke="#4DABFF" stroke-width="8.33333" stroke-linecap="round" stroke-linejoin="round"/>
<path d="M870 133.667V92" stroke="#4DABFF" stroke-width="8.33333" stroke-linecap="round" stroke-linejoin="round"/>
<path d="M911.667 71.167L870 92.0003" stroke="#4DABFF" stroke-width="8.33333" stroke-linecap="round" stroke-linejoin="round"/>
<path d="M890.833 60.75L849.167 81.5833" stroke="#4DABFF" stroke-width="8.33333" stroke-linecap="round" stroke-linejoin="round"/>
<path d="M50.8396 302.9C47.7796 302.9 45.0796 302.25 42.7396 300.95C40.3996 299.63 38.5696 297.8 37.2496 295.46C35.9496 293.12 35.2996 290.42 35.2996 287.36V273.44C35.2996 270.38 35.9496 267.68 37.2496 265.34C38.5696 263 40.3996 261.18 42.7396 259.88C45.0796 258.56 47.7796 257.9 50.8396 257.9C53.8996 257.9 56.5896 258.56 58.9096 259.88C61.2496 261.18 63.0796 263 64.3996 265.34C65.7196 267.68 66.3796 270.38 66.3796 273.44V287.36C66.3796 290.42 65.7196 293.12 64.3996 295.46C63.0796 297.8 61.2496 299.63 58.9096 300.95C56.5896 302.25 53.8996 302.9 50.8396 302.9ZM50.8396 296.03C52.3596 296.03 53.7396 295.67 54.9796 294.95C56.2196 294.21 57.1996 293.23 57.9196 292.01C58.6396 290.77 58.9996 289.39 58.9996 287.87V272.9C58.9996 271.36 58.6396 269.98 57.9196 268.76C57.1996 267.52 56.2196 266.54 54.9796 265.82C53.7396 265.08 52.3596 264.71 50.8396 264.71C49.3196 264.71 47.9396 265.08 46.6996 265.82C45.4596 266.54 44.4796 267.52 43.7596 268.76C43.0396 269.98 42.6796 271.36 42.6796 272.9V287.87C42.6796 289.39 43.0396 290.77 43.7596 292.01C44.4796 293.23 45.4596 294.21 46.6996 294.95C47.9396 295.67 49.3196 296.03 50.8396 296.03ZM82.2918 302V266.69L74.1918 271.64V263.66L82.2918 258.8H89.6718V302H82.2918Z" fill="#123D7B"/>
<path d="M539.861 302.9C536.801 302.9 534.101 302.25 531.761 300.95C529.421 299.63 527.591 297.8 526.271 295.46C524.971 293.12 524.321 290.42 524.321 287.36V273.44C524.321 270.38 524.971 267.68 526.271 265.34C527.591 263 529.421 261.18 531.761 259.88C534.101 258.56 536.801 257.9 539.861 257.9C542.921 257.9 545.611 258.56 547.931 259.88C550.271 261.18 552.101 263 553.421 265.34C554.741 267.68 555.401 270.38 555.401 273.44V287.36C555.401 290.42 554.741 293.12 553.421 295.46C552.101 297.8 550.271 299.63 547.931 300.95C545.611 302.25 542.921 302.9 539.861 302.9ZM539.861 296.03C541.381 296.03 542.761 295.67 544.001 294.95C545.241 294.21 546.221 293.23 546.941 292.01C547.661 290.77 548.021 289.39 548.021 287.87V272.9C548.021 271.36 547.661 269.98 546.941 268.76C546.221 267.52 545.241 266.54 544.001 265.82C542.761 265.08 541.381 264.71 539.861 264.71C538.341 264.71 536.961 265.08 535.721 265.82C534.481 266.54 533.501 267.52 532.781 268.76C532.061 269.98 531.701 271.36 531.701 272.9V287.87C531.701 289.39 532.061 290.77 532.781 292.01C533.501 293.23 534.481 294.21 535.721 294.95C536.961 295.67 538.341 296.03 539.861 296.03ZM578.753 302.9C575.933 302.9 573.393 302.24 571.133 300.92C568.893 299.58 567.113 297.73 565.793 295.37C564.473 293.01 563.813 290.3 563.813 287.24V274.1C563.813 270.82 564.463 267.97 565.763 265.55C567.083 263.13 568.923 261.26 571.283 259.94C573.663 258.62 576.423 257.96 579.563 257.96C581.743 257.96 583.813 258.33 585.773 259.07C587.733 259.79 589.473 260.95 590.993 262.55L585.773 267.62C585.013 266.72 584.083 266.01 582.983 265.49C581.903 264.97 580.763 264.71 579.563 264.71C577.883 264.71 576.413 265.11 575.153 265.91C573.893 266.69 572.913 267.72 572.213 269C571.533 270.28 571.193 271.65 571.193 273.11V280.28L569.873 278.84C571.113 277.4 572.603 276.28 574.343 275.48C576.083 274.66 577.903 274.25 579.803 274.25C582.523 274.25 584.923 274.87 587.003 276.11C589.083 277.33 590.723 279.01 591.923 281.15C593.123 283.27 593.723 285.69 593.723 288.41C593.723 291.11 593.033 293.56 591.653 295.76C590.293 297.94 588.483 299.68 586.223 300.98C583.963 302.26 581.473 302.9 578.753 302.9ZM578.753 295.97C580.153 295.97 581.433 295.64 582.593 294.98C583.753 294.3 584.673 293.39 585.353 292.25C586.053 291.09 586.403 289.81 586.403 288.41C586.403 287.01 586.063 285.73 585.383 284.57C584.703 283.41 583.783 282.49 582.623 281.81C581.483 281.11 580.213 280.76 578.813 280.76C577.413 280.76 576.133 281.11 574.973 281.81C573.813 282.49 572.893 283.41 572.213 284.57C571.533 285.73 571.193 287.01 571.193 288.41C571.193 289.77 571.523 291.03 572.183 292.19C572.863 293.33 573.773 294.25 574.913 294.95C576.073 295.63 577.353 295.97 578.753 295.97Z" fill="#123D7B"/>
<path d="M46.1228 492.9C43.0628 492.9 40.3628 492.25 38.0228 490.95C35.6828 489.63 33.8528 487.8 32.5328 485.46C31.2328 483.12 30.5828 480.42 30.5828 477.36V463.44C30.5828 460.38 31.2328 457.68 32.5328 455.34C33.8528 453 35.6828 451.18 38.0228 449.88C40.3628 448.56 43.0628 447.9 46.1228 447.9C49.1828 447.9 51.8728 448.56 54.1928 449.88C56.5328 451.18 58.3628 453 59.6828 455.34C61.0028 457.68 61.6628 460.38 61.6628 463.44V477.36C61.6628 480.42 61.0028 483.12 59.6828 485.46C58.3628 487.8 56.5328 489.63 54.1928 490.95C51.8728 492.25 49.1828 492.9 46.1228 492.9ZM46.1228 486.03C47.6428 486.03 49.0228 485.67 50.2628 484.95C51.5028 484.21 52.4828 483.23 53.2028 482.01C53.9228 480.77 54.2828 479.39 54.2828 477.87V462.9C54.2828 461.36 53.9228 459.98 53.2028 458.76C52.4828 457.52 51.5028 456.54 50.2628 455.82C49.0228 455.08 47.6428 454.71 46.1228 454.71C44.6028 454.71 43.2228 455.08 41.9828 455.82C40.7428 456.54 39.7628 457.52 39.0428 458.76C38.3228 459.98 37.9628 461.36 37.9628 462.9V477.87C37.9628 479.39 38.3228 480.77 39.0428 482.01C39.7628 483.23 40.7428 484.21 41.9828 484.95C43.2228 485.67 44.6028 486.03 46.1228 486.03ZM68.875 491.94V485.64L87.355 469.17C88.795 467.89 89.795 466.68 90.355 465.54C90.915 464.4 91.195 463.3 91.195 462.24C91.195 460.8 90.885 459.52 90.265 458.4C89.645 457.26 88.785 456.36 87.685 455.7C86.605 455.04 85.355 454.71 83.935 454.71C82.435 454.71 81.105 455.06 79.945 455.76C78.805 456.44 77.915 457.35 77.275 458.49C76.635 459.63 76.335 460.86 76.375 462.18H68.935C68.935 459.3 69.575 456.79 70.855 454.65C72.155 452.51 73.935 450.85 76.195 449.67C78.475 448.49 81.105 447.9 84.085 447.9C86.845 447.9 89.325 448.52 91.525 449.76C93.725 450.98 95.455 452.68 96.715 454.86C97.975 457.02 98.605 459.51 98.605 462.33C98.605 464.39 98.325 466.12 97.765 467.52C97.205 468.92 96.365 470.21 95.245 471.39C94.145 472.57 92.775 473.88 91.135 475.32L78.025 486.93L77.365 485.13H98.605V491.94H68.875Z" fill="#123D7B"/>
<path d="M47.0623 682.9C44.0023 682.9 41.3023 682.25 38.9623 680.95C36.6223 679.63 34.7923 677.8 33.4723 675.46C32.1723 673.12 31.5223 670.42 31.5223 667.36V653.44C31.5223 650.38 32.1723 647.68 33.4723 645.34C34.7923 643 36.6223 641.18 38.9623 639.88C41.3023 638.56 44.0023 637.9 47.0623 637.9C50.1223 637.9 52.8123 638.56 55.1323 639.88C57.4723 641.18 59.3023 643 60.6223 645.34C61.9423 647.68 62.6023 650.38 62.6023 653.44V667.36C62.6023 670.42 61.9423 673.12 60.6223 675.46C59.3023 677.8 57.4723 679.63 55.1323 680.95C52.8123 682.25 50.1223 682.9 47.0623 682.9ZM47.0623 676.03C48.5823 676.03 49.9623 675.67 51.2023 674.95C52.4423 674.21 53.4223 673.23 54.1423 672.01C54.8623 670.77 55.2223 669.39 55.2223 667.87V652.9C55.2223 651.36 54.8623 649.98 54.1423 648.76C53.4223 647.52 52.4423 646.54 51.2023 645.82C49.9623 645.08 48.5823 644.71 47.0623 644.71C45.5423 644.71 44.1623 645.08 42.9223 645.82C41.6823 646.54 40.7023 647.52 39.9823 648.76C39.2623 649.98 38.9023 651.36 38.9023 652.9V667.87C38.9023 669.39 39.2623 670.77 39.9823 672.01C40.7023 673.23 41.6823 674.21 42.9223 674.95C44.1623 675.67 45.5423 676.03 47.0623 676.03ZM83.3745 682.81C81.2145 682.81 79.1745 682.39 77.2545 681.55C75.3345 680.71 73.6645 679.52 72.2445 677.98C70.8445 676.44 69.8345 674.62 69.2145 672.52L76.2045 670.63C76.7045 672.35 77.6145 673.68 78.9345 674.62C80.2745 675.54 81.7445 675.99 83.3445 675.97C84.7645 675.97 86.0345 675.64 87.1545 674.98C88.2745 674.32 89.1545 673.43 89.7945 672.31C90.4345 671.17 90.7545 669.9 90.7545 668.5C90.7545 666.36 90.0645 664.57 88.6845 663.13C87.3045 661.69 85.5245 660.97 83.3445 660.97C82.6845 660.97 82.0345 661.06 81.3945 661.24C80.7745 661.42 80.1745 661.67 79.5945 661.99L76.2945 656.29L90.8145 643.87L91.4445 645.61H70.8945V638.8H97.3845V645.64L85.7145 656.86L85.6545 654.73C88.2745 654.91 90.5045 655.64 92.3445 656.92C94.2045 658.2 95.6245 659.85 96.6045 661.87C97.6045 663.89 98.1045 666.1 98.1045 668.5C98.1045 671.22 97.4345 673.66 96.0945 675.82C94.7745 677.98 92.9945 679.69 90.7545 680.95C88.5345 682.19 86.0745 682.81 83.3745 682.81Z" fill="#123D7B"/>
<path d="M45.742 872.9C42.682 872.9 39.982 872.25 37.642 870.95C35.302 869.63 33.472 867.8 32.152 865.46C30.852 863.12 30.202 860.42 30.202 857.36V843.44C30.202 840.38 30.852 837.68 32.152 835.34C33.472 833 35.302 831.18 37.642 829.88C39.982 828.56 42.682 827.9 45.742 827.9C48.802 827.9 51.492 828.56 53.812 829.88C56.152 831.18 57.982 833 59.302 835.34C60.622 837.68 61.282 840.38 61.282 843.44V857.36C61.282 860.42 60.622 863.12 59.302 865.46C57.982 867.8 56.152 869.63 53.812 870.95C51.492 872.25 48.802 872.9 45.742 872.9ZM45.742 866.03C47.262 866.03 48.642 865.67 49.882 864.95C51.122 864.21 52.102 863.23 52.822 862.01C53.542 860.77 53.902 859.39 53.902 857.87V842.9C53.902 841.36 53.542 839.98 52.822 838.76C52.102 837.52 51.122 836.54 49.882 835.82C48.642 835.08 47.262 834.71 45.742 834.71C44.222 834.71 42.842 835.08 41.602 835.82C40.362 836.54 39.382 837.52 38.662 838.76C37.942 839.98 37.582 841.36 37.582 842.9V857.87C37.582 859.39 37.942 860.77 38.662 862.01C39.382 863.23 40.362 864.21 41.602 864.95C42.842 865.67 44.222 866.03 45.742 866.03ZM87.6341 872V864.86H68.4941V858.11L82.3241 828.8H90.5741L76.7441 858.11H87.6341V846.86H94.9541V858.11H99.0041V864.86H94.9541V872H87.6341Z" fill="#123D7B"/>
<path d="M46.9158 1062.9C43.8558 1062.9 41.1558 1062.25 38.8158 1060.95C36.4758 1059.63 34.6458 1057.8 33.3258 1055.46C32.0258 1053.12 31.3758 1050.42 31.3758 1047.36V1033.44C31.3758 1030.38 32.0258 1027.68 33.3258 1025.34C34.6458 1023 36.4758 1021.18 38.8158 1019.88C41.1558 1018.56 43.8558 1017.9 46.9158 1017.9C49.9758 1017.9 52.6658 1018.56 54.9858 1019.88C57.3258 1021.18 59.1558 1023 60.4758 1025.34C61.7958 1027.68 62.4558 1030.38 62.4558 1033.44V1047.36C62.4558 1050.42 61.7958 1053.12 60.4758 1055.46C59.1558 1057.8 57.3258 1059.63 54.9858 1060.95C52.6658 1062.25 49.9758 1062.9 46.9158 1062.9ZM46.9158 1056.03C48.4358 1056.03 49.8158 1055.67 51.0558 1054.95C52.2958 1054.21 53.2758 1053.23 53.9958 1052.01C54.7158 1050.77 55.0758 1049.39 55.0758 1047.87V1032.9C55.0758 1031.36 54.7158 1029.98 53.9958 1028.76C53.2758 1027.52 52.2958 1026.54 51.0558 1025.82C49.8158 1025.08 48.4358 1024.71 46.9158 1024.71C45.3958 1024.71 44.0158 1025.08 42.7758 1025.82C41.5358 1026.54 40.5558 1027.52 39.8358 1028.76C39.1158 1029.98 38.7558 1031.36 38.7558 1032.9V1047.87C38.7558 1049.39 39.1158 1050.77 39.8358 1052.01C40.5558 1053.23 41.5358 1054.21 42.7758 1054.95C44.0158 1055.67 45.3958 1056.03 46.9158 1056.03ZM83.678 1062.9C81.478 1062.9 79.428 1062.45 77.528 1061.55C75.628 1060.63 73.988 1059.37 72.608 1057.77C71.248 1056.17 70.268 1054.31 69.668 1052.19L76.628 1050.33C76.908 1051.49 77.418 1052.49 78.158 1053.33C78.918 1054.17 79.798 1054.82 80.798 1055.28C81.818 1055.74 82.868 1055.97 83.948 1055.97C85.348 1055.97 86.628 1055.63 87.788 1054.95C88.948 1054.27 89.868 1053.36 90.548 1052.22C91.228 1051.06 91.568 1049.78 91.568 1048.38C91.568 1046.98 91.218 1045.71 90.518 1044.57C89.838 1043.41 88.918 1042.5 87.758 1041.84C86.598 1041.16 85.328 1040.82 83.948 1040.82C82.288 1040.82 80.908 1041.12 79.808 1041.72C78.728 1042.32 77.898 1042.96 77.318 1043.64L71.138 1041.66L72.458 1018.8H95.918V1025.58H76.328L79.028 1023.03L78.068 1038.93L76.748 1037.31C77.868 1036.29 79.168 1035.53 80.648 1035.03C82.128 1034.53 83.558 1034.28 84.938 1034.28C87.638 1034.28 90.028 1034.9 92.108 1036.14C94.208 1037.36 95.848 1039.03 97.028 1041.15C98.228 1043.27 98.828 1045.68 98.828 1048.38C98.828 1051.08 98.128 1053.53 96.728 1055.73C95.328 1057.91 93.478 1059.65 91.178 1060.95C88.898 1062.25 86.398 1062.9 83.678 1062.9Z" fill="#123D7B"/>
<path d="M541.998 492.9C538.938 492.9 536.238 492.25 533.898 490.95C531.558 489.63 529.728 487.8 528.408 485.46C527.108 483.12 526.458 480.42 526.458 477.36V463.44C526.458 460.38 527.108 457.68 528.408 455.34C529.728 453 531.558 451.18 533.898 449.88C536.238 448.56 538.938 447.9 541.998 447.9C545.058 447.9 547.748 448.56 550.068 449.88C552.408 451.18 554.238 453 555.558 455.34C556.878 457.68 557.538 460.38 557.538 463.44V477.36C557.538 480.42 556.878 483.12 555.558 485.46C554.238 487.8 552.408 489.63 550.068 490.95C547.748 492.25 545.058 492.9 541.998 492.9ZM541.998 486.03C543.518 486.03 544.898 485.67 546.138 484.95C547.378 484.21 548.358 483.23 549.078 482.01C549.798 480.77 550.158 479.39 550.158 477.87V462.9C550.158 461.36 549.798 459.98 549.078 458.76C548.358 457.52 547.378 456.54 546.138 455.82C544.898 455.08 543.518 454.71 541.998 454.71C540.478 454.71 539.098 455.08 537.858 455.82C536.618 456.54 535.638 457.52 534.918 458.76C534.198 459.98 533.838 461.36 533.838 462.9V477.87C533.838 479.39 534.198 480.77 534.918 482.01C535.638 483.23 536.618 484.21 537.858 484.95C539.098 485.67 540.478 486.03 541.998 486.03ZM568.14 492L583.02 455.64H564.15V448.8H590.76V455.64L575.94 492H568.14Z" fill="#123D7B"/>
<path d="M540.125 682.9C537.065 682.9 534.365 682.25 532.025 680.95C529.685 679.63 527.855 677.8 526.535 675.46C525.235 673.12 524.585 670.42 524.585 667.36V653.44C524.585 650.38 525.235 647.68 526.535 645.34C527.855 643 529.685 641.18 532.025 639.88C534.365 638.56 537.065 637.9 540.125 637.9C543.185 637.9 545.875 638.56 548.195 639.88C550.535 641.18 552.365 643 553.685 645.34C555.005 647.68 555.665 650.38 555.665 653.44V667.36C555.665 670.42 555.005 673.12 553.685 675.46C552.365 677.8 550.535 679.63 548.195 680.95C545.875 682.25 543.185 682.9 540.125 682.9ZM540.125 676.03C541.645 676.03 543.025 675.67 544.265 674.95C545.505 674.21 546.485 673.23 547.205 672.01C547.925 670.77 548.285 669.39 548.285 667.87V652.9C548.285 651.36 547.925 649.98 547.205 648.76C546.485 647.52 545.505 646.54 544.265 645.82C543.025 645.08 541.645 644.71 540.125 644.71C538.605 644.71 537.225 645.08 535.985 645.82C534.745 646.54 533.765 647.52 533.045 648.76C532.325 649.98 531.965 651.36 531.965 652.9V667.87C531.965 669.39 532.325 670.77 533.045 672.01C533.765 673.23 534.745 674.21 535.985 674.95C537.225 675.67 538.605 676.03 540.125 676.03ZM578.207 682.9C575.347 682.9 572.807 682.32 570.587 681.16C568.367 680 566.627 678.39 565.367 676.33C564.107 674.27 563.477 671.91 563.477 669.25C563.477 666.87 564.027 664.66 565.127 662.62C566.227 660.58 567.837 658.95 569.957 657.73L569.807 660.04C568.147 658.78 566.857 657.33 565.937 655.69C565.037 654.03 564.587 652.17 564.587 650.11C564.587 647.63 565.167 645.48 566.327 643.66C567.507 641.84 569.117 640.43 571.157 639.43C573.197 638.41 575.547 637.9 578.207 637.9C580.867 637.9 583.217 638.41 585.257 639.43C587.317 640.43 588.927 641.84 590.087 643.66C591.267 645.48 591.857 647.63 591.857 650.11C591.857 652.17 591.417 654.02 590.537 655.66C589.677 657.3 588.367 658.78 586.607 660.1L586.577 657.76C588.657 658.94 590.247 660.56 591.347 662.62C592.467 664.66 593.027 666.87 593.027 669.25C593.027 671.91 592.387 674.27 591.107 676.33C589.847 678.39 588.097 680 585.857 681.16C583.637 682.32 581.087 682.9 578.207 682.9ZM578.207 676.09C580.327 676.09 582.047 675.51 583.367 674.35C584.707 673.19 585.377 671.49 585.377 669.25C585.377 667.01 584.717 665.31 583.397 664.15C582.077 662.97 580.347 662.38 578.207 662.38C576.087 662.38 574.377 662.97 573.077 664.15C571.777 665.31 571.127 667.01 571.127 669.25C571.127 671.49 571.777 673.19 573.077 674.35C574.377 675.51 576.087 676.09 578.207 676.09ZM578.207 655.51C579.987 655.51 581.427 655.07 582.527 654.19C583.647 653.29 584.207 651.93 584.207 650.11C584.207 648.29 583.647 646.94 582.527 646.06C581.427 645.16 579.987 644.71 578.207 644.71C576.447 644.71 575.007 645.16 573.887 646.06C572.787 646.94 572.237 648.29 572.237 650.11C572.237 651.93 572.787 653.29 573.887 654.19C575.007 655.07 576.447 655.51 578.207 655.51Z" fill="#123D7B"/>
<path d="M539.861 872.9C536.801 872.9 534.101 872.25 531.761 870.95C529.421 869.63 527.591 867.8 526.271 865.46C524.971 863.12 524.321 860.42 524.321 857.36V843.44C524.321 840.38 524.971 837.68 526.271 835.34C527.591 833 529.421 831.18 531.761 829.88C534.101 828.56 536.801 827.9 539.861 827.9C542.921 827.9 545.611 828.56 547.931 829.88C550.271 831.18 552.101 833 553.421 835.34C554.741 837.68 555.401 840.38 555.401 843.44V857.36C555.401 860.42 554.741 863.12 553.421 865.46C552.101 867.8 550.271 869.63 547.931 870.95C545.611 872.25 542.921 872.9 539.861 872.9ZM539.861 866.03C541.381 866.03 542.761 865.67 544.001 864.95C545.241 864.21 546.221 863.23 546.941 862.01C547.661 860.77 548.021 859.39 548.021 857.87V842.9C548.021 841.36 547.661 839.98 546.941 838.76C546.221 837.52 545.241 836.54 544.001 835.82C542.761 835.08 541.381 834.71 539.861 834.71C538.341 834.71 536.961 835.08 535.721 835.82C534.481 836.54 533.501 837.52 532.781 838.76C532.061 839.98 531.701 841.36 531.701 842.9V857.87C531.701 859.39 532.061 860.77 532.781 862.01C533.501 863.23 534.481 864.21 535.721 864.95C536.961 865.67 538.341 866.03 539.861 866.03ZM577.763 827.96C580.583 827.96 583.123 828.63 585.383 829.97C587.643 831.29 589.423 833.13 590.723 835.49C592.043 837.83 592.703 840.53 592.703 843.59V856.76C592.703 860.02 592.043 862.87 590.723 865.31C589.423 867.73 587.593 869.6 585.233 870.92C582.873 872.24 580.113 872.9 576.953 872.9C574.773 872.9 572.713 872.53 570.773 871.79C568.833 871.03 567.093 869.87 565.553 868.31L570.743 863.24C571.523 864.14 572.453 864.85 573.533 865.37C574.633 865.87 575.773 866.12 576.953 866.12C578.633 866.12 580.103 865.73 581.363 864.95C582.623 864.15 583.603 863.12 584.303 861.86C585.003 860.58 585.353 859.21 585.353 857.75V850.58L586.643 852.02C585.423 853.46 583.943 854.59 582.203 855.41C580.463 856.21 578.633 856.61 576.713 856.61C574.013 856.61 571.613 855.99 569.513 854.75C567.433 853.51 565.793 851.83 564.593 849.71C563.413 847.57 562.823 845.15 562.823 842.45C562.823 839.75 563.503 837.31 564.863 835.13C566.223 832.93 568.033 831.19 570.293 829.91C572.573 828.61 575.063 827.96 577.763 827.96ZM577.763 834.86C576.363 834.86 575.083 835.2 573.923 835.88C572.763 836.56 571.843 837.48 571.163 838.64C570.483 839.78 570.143 841.05 570.143 842.45C570.143 843.85 570.473 845.13 571.133 846.29C571.813 847.45 572.723 848.37 573.863 849.05C575.023 849.73 576.303 850.07 577.703 850.07C579.103 850.07 580.383 849.73 581.543 849.05C582.703 848.37 583.623 847.45 584.303 846.29C585.003 845.13 585.353 843.85 585.353 842.45C585.353 841.09 585.013 839.84 584.333 838.7C583.653 837.54 582.733 836.61 581.573 835.91C580.433 835.21 579.163 834.86 577.763 834.86Z" fill="#123D7B"/>
<path d="M536.8 1062V1026.69L528.7 1031.64V1023.66L536.8 1018.8H544.18V1062H536.8ZM571.148 1062.9C568.088 1062.9 565.388 1062.25 563.048 1060.95C560.708 1059.63 558.878 1057.8 557.558 1055.46C556.258 1053.12 555.608 1050.42 555.608 1047.36V1033.44C555.608 1030.38 556.258 1027.68 557.558 1025.34C558.878 1023 560.708 1021.18 563.048 1019.88C565.388 1018.56 568.088 1017.9 571.148 1017.9C574.208 1017.9 576.898 1018.56 579.218 1019.88C581.558 1021.18 583.388 1023 584.708 1025.34C586.028 1027.68 586.688 1030.38 586.688 1033.44V1047.36C586.688 1050.42 586.028 1053.12 584.708 1055.46C583.388 1057.8 581.558 1059.63 579.218 1060.95C576.898 1062.25 574.208 1062.9 571.148 1062.9ZM571.148 1056.03C572.668 1056.03 574.048 1055.67 575.288 1054.95C576.528 1054.21 577.508 1053.23 578.228 1052.01C578.948 1050.77 579.308 1049.39 579.308 1047.87V1032.9C579.308 1031.36 578.948 1029.98 578.228 1028.76C577.508 1027.52 576.528 1026.54 575.288 1025.82C574.048 1025.08 572.668 1024.71 571.148 1024.71C569.628 1024.71 568.248 1025.08 567.008 1025.82C565.768 1026.54 564.788 1027.52 564.068 1028.76C563.348 1029.98 562.988 1031.36 562.988 1032.9V1047.87C562.988 1049.39 563.348 1050.77 564.068 1052.01C564.788 1053.23 565.768 1054.21 567.008 1054.95C568.248 1055.67 569.628 1056.03 571.148 1056.03Z" fill="#123D7B"/>
<line x1="481.5" y1="233" x2="481.5" y2="1151" stroke="#123D7B"/>
</g>
<defs>
<filter id="filter0_d_123_1129" x="54.0227" y="38.5459" width="669.926" height="117.893" filterUnits="userSpaceOnUse" color-interpolation-filters="sRGB">
<feFlood flood-opacity="0" result="BackgroundImageFix"/>
<feColorMatrix in="SourceAlpha" type="matrix" values="0 0 0 0 0 0 0 0 0 0 0 0 0 0 0 0 0 0 127 0" result="hardAlpha"/>
<feOffset dx="4.6752" dy="4.6752"/>
<feGaussianBlur stdDeviation="1.5584"/>
<feComposite in2="hardAlpha" operator="out"/>
<feColorMatrix type="matrix" values="0 0 0 0 0 0 0 0 0 0 0 0 0 0 0 0 0 0 0.4 0"/>
<feBlend mode="normal" in2="BackgroundImageFix" result="effect1_dropShadow_123_1129"/>
<feBlend mode="normal" in="SourceGraphic" in2="effect1_dropShadow_123_1129" result="shape"/>
</filter>
<linearGradient id="paint0_linear_123_1129" x1="-329.5" y1="-255.757" x2="1156.03" y2="993.193" gradientUnits="userSpaceOnUse">
<stop stop-color="#DFF5FC"/>
<stop offset="0.630986" stop-color="white"/>
<stop offset="1" stop-color="#CDEFFB"/>
</linearGradient>
<linearGradient id="paint1_linear_123_1129" x1="983" y1="92" x2="0" y2="92" gradientUnits="userSpaceOnUse">
<stop stop-color="#000E19"/>
<stop offset="1" stop-color="#00365F"/>
</linearGradient>
<clipPath id="clip0_123_1129">
<rect width="983" height="1199" fill="white"/>
</clipPath>
<clipPath id="clip1_123_1129">
<rect width="983" height="184" fill="white"/>
</clipPath>
</defs>
</svg>
