<svg width="983" height="1199" viewBox="0 0 983 1199" fill="none" xmlns="http://www.w3.org/2000/svg">
<g clip-path="url(#clip0_123_1129)">
<rect width="983" height="1199" fill="white"/>
<rect y="184" width="983" height="1015" fill="url(#paint0_linear_123_1129)"/>
<g clip-path="url(#clip1_123_1129)">
<rect width="983" height="184" fill="url(#paint1_linear_123_1129)"/>
<g filter="url(#filter0_d_123_1129)">
<path d="M57.7159 39.9091L66.3523 64.3977H66.6932L75.3295 39.9091H79.0227L68.3409 69H64.7045L54.0227 39.9091H57.7159ZM87.4886 69.5114C86.1061 69.5114 84.8513 69.2509 83.7244 68.7301C82.5975 68.1998 81.7027 67.4375 81.0398 66.4432C80.3769 65.4394 80.0455 64.2273 80.0455 62.8068C80.0455 61.5568 80.2917 60.5436 80.7841 59.767C81.2765 58.9811 81.9347 58.3655 82.7585 57.9205C83.5824 57.4754 84.4915 57.1439 85.4858 56.9261C86.4896 56.6989 87.4981 56.5189 88.5114 56.3864C89.8371 56.2159 90.9119 56.0881 91.7358 56.0028C92.5691 55.9081 93.1752 55.7519 93.554 55.5341C93.9422 55.3163 94.1364 54.9375 94.1364 54.3977V54.2841C94.1364 52.8826 93.7528 51.7936 92.9858 51.017C92.2282 50.2405 91.0777 49.8523 89.5341 49.8523C87.9337 49.8523 86.679 50.2027 85.7699 50.9034C84.8608 51.6042 84.2216 52.3523 83.8523 53.1477L80.6705 52.0114C81.2386 50.6856 81.9962 49.6534 82.9432 48.9148C83.8996 48.1667 84.9413 47.6458 86.0682 47.3523C87.2045 47.0492 88.322 46.8977 89.4205 46.8977C90.1212 46.8977 90.9261 46.983 91.8352 47.1534C92.7538 47.3144 93.6392 47.6506 94.4915 48.1619C95.3532 48.6733 96.0682 49.4451 96.6364 50.4773C97.2045 51.5095 97.4886 52.892 97.4886 54.625V69H94.1364V66.0455H93.9659C93.7386 66.5189 93.3598 67.0256 92.8295 67.5653C92.2992 68.1051 91.5938 68.5644 90.7131 68.9432C89.8324 69.322 88.7576 69.5114 87.4886 69.5114ZM88 66.5C89.3258 66.5 90.4432 66.2396 91.3523 65.7188C92.2708 65.1979 92.9621 64.5256 93.4261 63.7017C93.8996 62.8778 94.1364 62.0114 94.1364 61.1023V58.0341C93.9943 58.2045 93.6818 58.3608 93.1989 58.5028C92.7254 58.6354 92.1761 58.7538 91.5511 58.858C90.9356 58.9527 90.3343 59.0379 89.7472 59.1136C89.1695 59.1799 88.7008 59.2367 88.3409 59.2841C87.4697 59.3977 86.6553 59.5824 85.8977 59.8381C85.1496 60.0843 84.5436 60.4583 84.0795 60.9602C83.625 61.4527 83.3977 62.125 83.3977 62.9773C83.3977 64.142 83.8286 65.0227 84.6903 65.6193C85.5616 66.2064 86.6648 66.5 88 66.5ZM106.96 39.9091V69H103.607V39.9091H106.96ZM113.099 69V47.1818H116.452V69H113.099ZM114.804 43.5455C114.151 43.5455 113.587 43.3229 113.114 42.8778C112.65 42.4328 112.418 41.8977 112.418 41.2727C112.418 40.6477 112.65 40.1127 113.114 39.6676C113.587 39.2225 114.151 39 114.804 39C115.457 39 116.016 39.2225 116.48 39.6676C116.954 40.1127 117.19 40.6477 117.19 41.2727C117.19 41.8977 116.954 42.4328 116.48 42.8778C116.016 43.3229 115.457 43.5455 114.804 43.5455ZM130.83 69.4545C129.012 69.4545 127.407 68.9953 126.015 68.0767C124.623 67.1487 123.534 65.8419 122.748 64.1562C121.962 62.4612 121.569 60.4583 121.569 58.1477C121.569 55.8561 121.962 53.8674 122.748 52.1818C123.534 50.4962 124.628 49.1941 126.029 48.2756C127.431 47.357 129.05 46.8977 130.887 46.8977C132.308 46.8977 133.43 47.1345 134.254 47.608C135.087 48.072 135.721 48.6023 136.157 49.1989C136.602 49.786 136.948 50.2689 137.194 50.6477H137.478V39.9091H140.83V69H137.592V65.6477H137.194C136.948 66.0455 136.597 66.5473 136.143 67.1534C135.688 67.75 135.04 68.285 134.197 68.7585C133.354 69.2225 132.232 69.4545 130.83 69.4545ZM131.285 66.4432C132.629 66.4432 133.766 66.0928 134.694 65.392C135.622 64.6818 136.327 63.7017 136.81 62.4517C137.293 61.1922 137.535 59.7386 137.535 58.0909C137.535 56.4621 137.298 55.0369 136.825 53.8153C136.351 52.5843 135.65 51.6278 134.722 50.946C133.794 50.2547 132.648 49.9091 131.285 49.9091C129.864 49.9091 128.681 50.2737 127.734 51.0028C126.796 51.7225 126.091 52.7027 125.617 53.9432C125.153 55.1742 124.921 56.5568 124.921 58.0909C124.921 59.6439 125.158 61.0549 125.631 62.3239C126.114 63.5833 126.825 64.5871 127.762 65.3352C128.709 66.0739 129.883 66.4432 131.285 66.4432ZM153.856 69.5114C152.473 69.5114 151.219 69.2509 150.092 68.7301C148.965 68.1998 148.07 67.4375 147.407 66.4432C146.744 65.4394 146.413 64.2273 146.413 62.8068C146.413 61.5568 146.659 60.5436 147.151 59.767C147.644 58.9811 148.302 58.3655 149.126 57.9205C149.95 57.4754 150.859 57.1439 151.853 56.9261C152.857 56.6989 153.865 56.5189 154.879 56.3864C156.204 56.2159 157.279 56.0881 158.103 56.0028C158.936 55.9081 159.542 55.7519 159.921 55.5341C160.309 55.3163 160.504 54.9375 160.504 54.3977V54.2841C160.504 52.8826 160.12 51.7936 159.353 51.017C158.595 50.2405 157.445 49.8523 155.901 49.8523C154.301 49.8523 153.046 50.2027 152.137 50.9034C151.228 51.6042 150.589 52.3523 150.219 53.1477L147.038 52.0114C147.606 50.6856 148.363 49.6534 149.31 48.9148C150.267 48.1667 151.308 47.6458 152.435 47.3523C153.572 47.0492 154.689 46.8977 155.788 46.8977C156.488 46.8977 157.293 46.983 158.202 47.1534C159.121 47.3144 160.006 47.6506 160.859 48.1619C161.72 48.6733 162.435 49.4451 163.004 50.4773C163.572 51.5095 163.856 52.892 163.856 54.625V69H160.504V66.0455H160.333C160.106 66.5189 159.727 67.0256 159.197 67.5653C158.666 68.1051 157.961 68.5644 157.08 68.9432C156.2 69.322 155.125 69.5114 153.856 69.5114ZM154.367 66.5C155.693 66.5 156.81 66.2396 157.719 65.7188C158.638 65.1979 159.329 64.5256 159.793 63.7017C160.267 62.8778 160.504 62.0114 160.504 61.1023V58.0341C160.362 58.2045 160.049 58.3608 159.566 58.5028C159.093 58.6354 158.543 58.7538 157.918 58.858C157.303 58.9527 156.701 59.0379 156.114 59.1136C155.537 59.1799 155.068 59.2367 154.708 59.2841C153.837 59.3977 153.022 59.5824 152.265 59.8381C151.517 60.0843 150.911 60.4583 150.447 60.9602C149.992 61.4527 149.765 62.125 149.765 62.9773C149.765 64.142 150.196 65.0227 151.058 65.6193C151.929 66.2064 153.032 66.5 154.367 66.5ZM179.463 47.1818V50.0227H168.156V47.1818H179.463ZM171.452 41.9545H174.804V62.75C174.804 63.697 174.941 64.4072 175.216 64.8807C175.5 65.3447 175.86 65.6572 176.295 65.8182C176.741 65.9697 177.209 66.0455 177.702 66.0455C178.071 66.0455 178.374 66.0265 178.611 65.9886C178.848 65.9413 179.037 65.9034 179.179 65.875L179.861 68.8864C179.634 68.9716 179.316 69.0568 178.909 69.142C178.502 69.2367 177.986 69.2841 177.361 69.2841C176.414 69.2841 175.486 69.0805 174.577 68.6733C173.677 68.2661 172.929 67.6458 172.332 66.8125C171.745 65.9792 171.452 64.928 171.452 63.6591V41.9545ZM184.506 69V47.1818H187.858V69H184.506ZM186.21 43.5455C185.557 43.5455 184.993 43.3229 184.52 42.8778C184.056 42.4328 183.824 41.8977 183.824 41.2727C183.824 40.6477 184.056 40.1127 184.52 39.6676C184.993 39.2225 185.557 39 186.21 39C186.864 39 187.422 39.2225 187.886 39.6676C188.36 40.1127 188.597 40.6477 188.597 41.2727C188.597 41.8977 188.36 42.4328 187.886 42.8778C187.422 43.3229 186.864 43.5455 186.21 43.5455ZM202.862 69.4545C200.892 69.4545 199.164 68.9858 197.677 68.0483C196.2 67.1108 195.044 65.7992 194.211 64.1136C193.387 62.428 192.975 60.4583 192.975 58.2045C192.975 55.9318 193.387 53.9479 194.211 52.2528C195.044 50.5578 196.2 49.2415 197.677 48.304C199.164 47.3665 200.892 46.8977 202.862 46.8977C204.831 46.8977 206.555 47.3665 208.032 48.304C209.519 49.2415 210.674 50.5578 211.498 52.2528C212.331 53.9479 212.748 55.9318 212.748 58.2045C212.748 60.4583 212.331 62.428 211.498 64.1136C210.674 65.7992 209.519 67.1108 208.032 68.0483C206.555 68.9858 204.831 69.4545 202.862 69.4545ZM202.862 66.4432C204.358 66.4432 205.589 66.0597 206.555 65.2926C207.521 64.5256 208.236 63.517 208.7 62.267C209.164 61.017 209.396 59.6629 209.396 58.2045C209.396 56.7462 209.164 55.3873 208.7 54.1278C208.236 52.8684 207.521 51.8504 206.555 51.0739C205.589 50.2973 204.358 49.9091 202.862 49.9091C201.365 49.9091 200.134 50.2973 199.168 51.0739C198.202 51.8504 197.487 52.8684 197.023 54.1278C196.559 55.3873 196.327 56.7462 196.327 58.2045C196.327 59.6629 196.559 61.017 197.023 62.267C197.487 63.517 198.202 64.5256 199.168 65.2926C200.134 66.0597 201.365 66.4432 202.862 66.4432ZM221.217 55.875V69H217.865V47.1818H221.104V50.5909H221.388C221.899 49.483 222.676 48.5928 223.717 47.9205C224.759 47.2386 226.104 46.8977 227.751 46.8977C229.229 46.8977 230.521 47.2008 231.629 47.8068C232.737 48.4034 233.599 49.3125 234.214 50.5341C234.83 51.7462 235.138 53.2803 235.138 55.1364V69H231.786V55.3636C231.786 53.6496 231.34 52.3144 230.45 51.358C229.56 50.392 228.339 49.9091 226.786 49.9091C225.715 49.9091 224.759 50.1411 223.916 50.6051C223.083 51.0691 222.425 51.7462 221.942 52.6364C221.459 53.5265 221.217 54.6061 221.217 55.875ZM262.002 47.1818V50.0227H250.695V47.1818H262.002ZM253.991 41.9545H257.343V62.75C257.343 63.697 257.48 64.4072 257.755 64.8807C258.039 65.3447 258.399 65.6572 258.835 65.8182C259.28 65.9697 259.748 66.0455 260.241 66.0455C260.61 66.0455 260.913 66.0265 261.15 65.9886C261.387 65.9413 261.576 65.9034 261.718 65.875L262.4 68.8864C262.173 68.9716 261.855 69.0568 261.448 69.142C261.041 69.2367 260.525 69.2841 259.9 69.2841C258.953 69.2841 258.025 69.0805 257.116 68.6733C256.216 68.2661 255.468 67.6458 254.871 66.8125C254.284 65.9792 253.991 64.928 253.991 63.6591V41.9545ZM275.958 69.4545C273.856 69.4545 272.042 68.9905 270.518 68.0625C269.003 67.125 267.833 65.8182 267.009 64.142C266.195 62.4564 265.788 60.4962 265.788 58.2614C265.788 56.0265 266.195 54.0568 267.009 52.3523C267.833 50.6383 268.979 49.303 270.447 48.3466C271.924 47.3807 273.647 46.8977 275.617 46.8977C276.754 46.8977 277.876 47.0871 278.984 47.4659C280.092 47.8447 281.1 48.4602 282.009 49.3125C282.918 50.1553 283.643 51.2727 284.183 52.6648C284.722 54.0568 284.992 55.7708 284.992 57.8068V59.2273H268.174V56.3295H281.583C281.583 55.0985 281.337 54 280.844 53.0341C280.362 52.0682 279.67 51.3059 278.771 50.7472C277.88 50.1884 276.829 49.9091 275.617 49.9091C274.282 49.9091 273.127 50.2405 272.151 50.9034C271.185 51.5568 270.442 52.4091 269.921 53.4602C269.4 54.5114 269.14 55.6383 269.14 56.8409V58.7727C269.14 60.4205 269.424 61.8172 269.992 62.9631C270.57 64.0994 271.37 64.9659 272.393 65.5625C273.415 66.1496 274.604 66.4432 275.958 66.4432C276.839 66.4432 277.634 66.3201 278.344 66.0739C279.064 65.8182 279.684 65.4394 280.205 64.9375C280.726 64.4261 281.129 63.7917 281.413 63.0341L284.651 63.9432C284.31 65.0417 283.737 66.0076 282.933 66.8409C282.128 67.6648 281.133 68.3087 279.95 68.7727C278.766 69.2273 277.435 69.4545 275.958 69.4545ZM298.955 69.4545C296.91 69.4545 295.148 68.9716 293.671 68.0057C292.194 67.0398 291.058 65.7093 290.262 64.0142C289.467 62.3191 289.069 60.3826 289.069 58.2045C289.069 55.9886 289.476 54.0331 290.29 52.3381C291.114 50.6335 292.26 49.303 293.728 48.3466C295.205 47.3807 296.929 46.8977 298.898 46.8977C300.433 46.8977 301.815 47.1818 303.046 47.75C304.277 48.3182 305.286 49.1136 306.072 50.1364C306.858 51.1591 307.345 52.3523 307.535 53.7159H304.183C303.927 52.7216 303.359 51.8409 302.478 51.0739C301.607 50.2973 300.433 49.9091 298.955 49.9091C297.648 49.9091 296.503 50.25 295.518 50.9318C294.542 51.6042 293.78 52.5559 293.231 53.7869C292.691 55.0085 292.421 56.4432 292.421 58.0909C292.421 59.7765 292.686 61.2443 293.217 62.4943C293.756 63.7443 294.514 64.715 295.489 65.4062C296.474 66.0975 297.629 66.4432 298.955 66.4432C299.826 66.4432 300.617 66.2917 301.327 65.9886C302.038 65.6856 302.639 65.25 303.131 64.6818C303.624 64.1136 303.974 63.4318 304.183 62.6364H307.535C307.345 63.9242 306.877 65.0843 306.129 66.1165C305.39 67.1392 304.41 67.9536 303.188 68.5597C301.976 69.1562 300.565 69.4545 298.955 69.4545ZM315.788 55.875V69H312.435V39.9091H315.788V50.5909H316.072C316.583 49.464 317.35 48.5691 318.373 47.9062C319.405 47.2339 320.778 46.8977 322.492 46.8977C323.979 46.8977 325.281 47.196 326.398 47.7926C327.516 48.3797 328.382 49.2841 328.998 50.5057C329.623 51.7178 329.935 53.2614 329.935 55.1364V69H326.583V55.3636C326.583 53.6307 326.133 52.2907 325.234 51.3438C324.344 50.3873 323.108 49.9091 321.526 49.9091C320.428 49.9091 319.443 50.1411 318.572 50.6051C317.71 51.0691 317.028 51.7462 316.526 52.6364C316.034 53.5265 315.788 54.6061 315.788 55.875ZM339.42 55.875V69H336.068V47.1818H339.307V50.5909H339.591C340.102 49.483 340.879 48.5928 341.92 47.9205C342.962 47.2386 344.307 46.8977 345.955 46.8977C347.432 46.8977 348.724 47.2008 349.832 47.8068C350.94 48.4034 351.802 49.3125 352.418 50.5341C353.033 51.7462 353.341 53.2803 353.341 55.1364V69H349.989V55.3636C349.989 53.6496 349.544 52.3144 348.653 51.358C347.763 50.392 346.542 49.9091 344.989 49.9091C343.919 49.9091 342.962 50.1411 342.119 50.6051C341.286 51.0691 340.628 51.7462 340.145 52.6364C339.662 53.5265 339.42 54.6061 339.42 55.875ZM359.467 69V47.1818H362.819V69H359.467ZM361.171 43.5455C360.518 43.5455 359.954 43.3229 359.481 42.8778C359.017 42.4328 358.785 41.8977 358.785 41.2727C358.785 40.6477 359.017 40.1127 359.481 39.6676C359.954 39.2225 360.518 39 361.171 39C361.825 39 362.383 39.2225 362.847 39.6676C363.321 40.1127 363.558 40.6477 363.558 41.2727C363.558 41.8977 363.321 42.4328 362.847 42.8778C362.383 43.3229 361.825 43.5455 361.171 43.5455ZM383.845 77.1818V65.6477H383.561C383.315 66.0455 382.964 66.5473 382.51 67.1534C382.055 67.75 381.407 68.285 380.564 68.7585C379.721 69.2225 378.599 69.4545 377.197 69.4545C375.379 69.4545 373.774 68.9953 372.382 68.0767C370.99 67.1487 369.901 65.8419 369.115 64.1562C368.329 62.4612 367.936 60.4583 367.936 58.1477C367.936 55.8561 368.329 53.8674 369.115 52.1818C369.901 50.4962 370.995 49.1941 372.396 48.2756C373.798 47.357 375.417 46.8977 377.254 46.8977C378.675 46.8977 379.797 47.1345 380.621 47.608C381.454 48.072 382.089 48.6023 382.524 49.1989C382.969 49.786 383.315 50.2689 383.561 50.6477H383.959V47.1818H387.197V77.1818H383.845ZM377.652 66.4432C378.997 66.4432 380.133 66.0928 381.061 65.392C381.989 64.6818 382.695 63.7017 383.178 62.4517C383.661 61.1922 383.902 59.7386 383.902 58.0909C383.902 56.4621 383.665 55.0369 383.192 53.8153C382.718 52.5843 382.018 51.6278 381.089 50.946C380.161 50.2547 379.016 49.9091 377.652 49.9091C376.232 49.9091 375.048 50.2737 374.101 51.0028C373.163 51.7225 372.458 52.7027 371.984 53.9432C371.52 55.1742 371.288 56.5568 371.288 58.0909C371.288 59.6439 371.525 61.0549 371.999 62.3239C372.482 63.5833 373.192 64.5871 374.129 65.3352C375.076 66.0739 376.25 66.4432 377.652 66.4432ZM407.084 60.0795V47.1818H410.436V69H407.084V65.3068H406.857C406.345 66.4148 405.55 67.357 404.47 68.1335C403.391 68.9006 402.027 69.2841 400.379 69.2841C399.016 69.2841 397.804 68.9858 396.743 68.3892C395.682 67.7831 394.849 66.8741 394.243 65.6619C393.637 64.4403 393.334 62.9015 393.334 61.0455V47.1818H396.686V60.8182C396.686 62.4091 397.131 63.678 398.021 64.625C398.921 65.572 400.067 66.0455 401.459 66.0455C402.292 66.0455 403.14 65.8324 404.001 65.4062C404.873 64.9801 405.602 64.3267 406.189 63.446C406.786 62.5653 407.084 61.4432 407.084 60.0795ZM425.724 69.4545C423.621 69.4545 421.808 68.9905 420.283 68.0625C418.768 67.125 417.599 65.8182 416.775 64.142C415.96 62.4564 415.553 60.4962 415.553 58.2614C415.553 56.0265 415.96 54.0568 416.775 52.3523C417.599 50.6383 418.745 49.303 420.212 48.3466C421.69 47.3807 423.413 46.8977 425.383 46.8977C426.519 46.8977 427.641 47.0871 428.749 47.4659C429.857 47.8447 430.866 48.4602 431.775 49.3125C432.684 50.1553 433.408 51.2727 433.948 52.6648C434.488 54.0568 434.758 55.7708 434.758 57.8068V59.2273H417.94V56.3295H431.349C431.349 55.0985 431.103 54 430.61 53.0341C430.127 52.0682 429.436 51.3059 428.536 50.7472C427.646 50.1884 426.595 49.9091 425.383 49.9091C424.048 49.9091 422.892 50.2405 421.917 50.9034C420.951 51.5568 420.208 52.4091 419.687 53.4602C419.166 54.5114 418.906 55.6383 418.906 56.8409V58.7727C418.906 60.4205 419.19 61.8172 419.758 62.9631C420.335 64.0994 421.136 64.9659 422.158 65.5625C423.181 66.1496 424.37 66.4432 425.724 66.4432C426.604 66.4432 427.4 66.3201 428.11 66.0739C428.83 65.8182 429.45 65.4394 429.971 64.9375C430.492 64.4261 430.894 63.7917 431.178 63.0341L434.417 63.9432C434.076 65.0417 433.503 66.0076 432.698 66.8409C431.893 67.6648 430.899 68.3087 429.715 68.7727C428.531 69.2273 427.201 69.4545 425.724 69.4545ZM455.312 52.0682L452.3 52.9205C452.111 52.4186 451.832 51.9309 451.462 51.4574C451.103 50.9744 450.61 50.5767 449.985 50.2642C449.36 49.9517 448.56 49.7955 447.585 49.7955C446.249 49.7955 445.137 50.1032 444.246 50.7188C443.366 51.3248 442.925 52.0966 442.925 53.0341C442.925 53.8674 443.228 54.5256 443.835 55.0085C444.441 55.4915 445.388 55.8939 446.675 56.2159L449.914 57.0114C451.865 57.4848 453.318 58.2093 454.275 59.1847C455.231 60.1506 455.71 61.3958 455.71 62.9205C455.71 64.1705 455.35 65.2879 454.63 66.2727C453.92 67.2576 452.925 68.0341 451.647 68.6023C450.369 69.1705 448.882 69.4545 447.187 69.4545C444.961 69.4545 443.12 68.9716 441.661 68.0057C440.203 67.0398 439.28 65.6288 438.891 63.7727L442.073 62.9773C442.376 64.1515 442.949 65.0322 443.792 65.6193C444.644 66.2064 445.757 66.5 447.13 66.5C448.692 66.5 449.933 66.1686 450.852 65.5057C451.78 64.8333 452.244 64.0284 452.244 63.0909C452.244 62.3333 451.978 61.6989 451.448 61.1875C450.918 60.6667 450.103 60.2784 449.005 60.0227L445.369 59.1705C443.371 58.697 441.903 57.9631 440.965 56.9688C440.037 55.965 439.573 54.7102 439.573 53.2045C439.573 51.9735 439.919 50.8845 440.61 49.9375C441.311 48.9905 442.263 48.2472 443.465 47.7074C444.677 47.1676 446.05 46.8977 447.585 46.8977C449.744 46.8977 451.439 47.3712 452.67 48.3182C453.91 49.2652 454.791 50.5152 455.312 52.0682ZM481.153 69.4545C479.051 69.4545 477.238 68.9905 475.713 68.0625C474.198 67.125 473.028 65.8182 472.205 64.142C471.39 62.4564 470.983 60.4962 470.983 58.2614C470.983 56.0265 471.39 54.0568 472.205 52.3523C473.028 50.6383 474.174 49.303 475.642 48.3466C477.119 47.3807 478.843 46.8977 480.812 46.8977C481.949 46.8977 483.071 47.0871 484.179 47.4659C485.287 47.8447 486.295 48.4602 487.205 49.3125C488.114 50.1553 488.838 51.2727 489.378 52.6648C489.918 54.0568 490.188 55.7708 490.188 57.8068V59.2273H473.369V56.3295H486.778C486.778 55.0985 486.532 54 486.04 53.0341C485.557 52.0682 484.866 51.3059 483.966 50.7472C483.076 50.1884 482.025 49.9091 480.812 49.9091C479.477 49.9091 478.322 50.2405 477.347 50.9034C476.381 51.5568 475.637 52.4091 475.116 53.4602C474.596 54.5114 474.335 55.6383 474.335 56.8409V58.7727C474.335 60.4205 474.619 61.8172 475.188 62.9631C475.765 64.0994 476.565 64.9659 477.588 65.5625C478.611 66.1496 479.799 66.4432 481.153 66.4432C482.034 66.4432 482.83 66.3201 483.54 66.0739C484.259 65.8182 484.88 65.4394 485.401 64.9375C485.921 64.4261 486.324 63.7917 486.608 63.0341L489.847 63.9432C489.506 65.0417 488.933 66.0076 488.128 66.8409C487.323 67.6648 486.329 68.3087 485.145 68.7727C483.961 69.2273 482.631 69.4545 481.153 69.4545ZM495.287 69V47.1818H498.526V50.5909H498.81C499.264 49.4261 499.998 48.5218 501.011 47.8778C502.025 47.2244 503.241 46.8977 504.662 46.8977C506.101 46.8977 507.299 47.2244 508.256 47.8778C509.222 48.5218 509.974 49.4261 510.514 50.5909H510.741C511.3 49.464 512.138 48.5691 513.256 47.9062C514.373 47.2339 515.713 46.8977 517.276 46.8977C519.226 46.8977 520.822 47.5085 522.062 48.7301C523.303 49.9422 523.923 51.8314 523.923 54.3977V69H520.571V54.3977C520.571 52.7879 520.131 51.6373 519.25 50.946C518.369 50.2547 517.332 49.9091 516.139 49.9091C514.605 49.9091 513.417 50.3731 512.574 51.3011C511.731 52.2197 511.31 53.3845 511.31 54.7955V69H507.901V54.0568C507.901 52.8163 507.498 51.8172 506.693 51.0597C505.888 50.2926 504.851 49.9091 503.582 49.9091C502.711 49.9091 501.897 50.1411 501.139 50.6051C500.391 51.0691 499.785 51.7131 499.321 52.5369C498.866 53.3513 498.639 54.2936 498.639 55.3636V69H495.287ZM530.053 77.1818V47.1818H533.291V50.6477H533.689C533.935 50.2689 534.276 49.786 534.712 49.1989C535.157 48.6023 535.791 48.072 536.615 47.608C537.448 47.1345 538.575 46.8977 539.996 46.8977C541.833 46.8977 543.452 47.357 544.854 48.2756C546.255 49.1941 547.349 50.4962 548.135 52.1818C548.921 53.8674 549.314 55.8561 549.314 58.1477C549.314 60.4583 548.921 62.4612 548.135 64.1562C547.349 65.8419 546.26 67.1487 544.868 68.0767C543.476 68.9953 541.871 69.4545 540.053 69.4545C538.651 69.4545 537.529 69.2225 536.686 68.7585C535.843 68.285 535.195 67.75 534.74 67.1534C534.286 66.5473 533.935 66.0455 533.689 65.6477H533.405V77.1818H530.053ZM533.348 58.0909C533.348 59.7386 533.589 61.1922 534.072 62.4517C534.555 63.7017 535.261 64.6818 536.189 65.392C537.117 66.0928 538.253 66.4432 539.598 66.4432C541 66.4432 542.169 66.0739 543.107 65.3352C544.054 64.5871 544.764 63.5833 545.237 62.3239C545.72 61.0549 545.962 59.6439 545.962 58.0909C545.962 56.5568 545.725 55.1742 545.251 53.9432C544.787 52.7027 544.082 51.7225 543.135 51.0028C542.197 50.2737 541.018 49.9091 539.598 49.9091C538.234 49.9091 537.089 50.2547 536.161 50.946C535.232 51.6278 534.532 52.5843 534.058 53.8153C533.585 55.0369 533.348 56.4621 533.348 58.0909ZM557.78 39.9091V69H554.428V39.9091H557.78ZM572.783 69.4545C570.814 69.4545 569.085 68.9858 567.599 68.0483C566.121 67.1108 564.966 65.7992 564.133 64.1136C563.309 62.428 562.897 60.4583 562.897 58.2045C562.897 55.9318 563.309 53.9479 564.133 52.2528C564.966 50.5578 566.121 49.2415 567.599 48.304C569.085 47.3665 570.814 46.8977 572.783 46.8977C574.753 46.8977 576.477 47.3665 577.954 48.304C579.441 49.2415 580.596 50.5578 581.42 52.2528C582.253 53.9479 582.67 55.9318 582.67 58.2045C582.67 60.4583 582.253 62.428 581.42 64.1136C580.596 65.7992 579.441 67.1108 577.954 68.0483C576.477 68.9858 574.753 69.4545 572.783 69.4545ZM572.783 66.4432C574.28 66.4432 575.511 66.0597 576.477 65.2926C577.442 64.5256 578.157 63.517 578.621 62.267C579.085 61.017 579.317 59.6629 579.317 58.2045C579.317 56.7462 579.085 55.3873 578.621 54.1278C578.157 52.8684 577.442 51.8504 576.477 51.0739C575.511 50.2973 574.28 49.9091 572.783 49.9091C571.287 49.9091 570.056 50.2973 569.09 51.0739C568.124 51.8504 567.409 52.8684 566.945 54.1278C566.481 55.3873 566.249 56.7462 566.249 58.2045C566.249 59.6629 566.481 61.017 566.945 62.267C567.409 63.517 568.124 64.5256 569.09 65.2926C570.056 66.0597 571.287 66.4432 572.783 66.4432ZM589.165 77.1818C588.597 77.1818 588.09 77.1345 587.645 77.0398C587.2 76.9545 586.892 76.8693 586.722 76.7841L587.574 73.8295C588.388 74.0379 589.108 74.1136 589.733 74.0568C590.358 74 590.912 73.7206 591.395 73.2188C591.887 72.7263 592.337 71.9261 592.744 70.8182L593.369 69.1136L585.301 47.1818H588.938L594.96 64.5682H595.188L601.21 47.1818H604.847L595.585 72.1818C595.169 73.3087 594.652 74.2415 594.037 74.9801C593.421 75.7282 592.706 76.2822 591.892 76.642C591.087 77.0019 590.178 77.1818 589.165 77.1818ZM617.638 69.4545C615.536 69.4545 613.722 68.9905 612.197 68.0625C610.682 67.125 609.513 65.8182 608.689 64.142C607.875 62.4564 607.467 60.4962 607.467 58.2614C607.467 56.0265 607.875 54.0568 608.689 52.3523C609.513 50.6383 610.659 49.303 612.126 48.3466C613.604 47.3807 615.327 46.8977 617.297 46.8977C618.433 46.8977 619.555 47.0871 620.663 47.4659C621.771 47.8447 622.78 48.4602 623.689 49.3125C624.598 50.1553 625.322 51.2727 625.862 52.6648C626.402 54.0568 626.672 55.7708 626.672 57.8068V59.2273H609.854V56.3295H623.263C623.263 55.0985 623.017 54 622.524 53.0341C622.041 52.0682 621.35 51.3059 620.45 50.7472C619.56 50.1884 618.509 49.9091 617.297 49.9091C615.962 49.9091 614.806 50.2405 613.831 50.9034C612.865 51.5568 612.122 52.4091 611.601 53.4602C611.08 54.5114 610.82 55.6383 610.82 56.8409V58.7727C610.82 60.4205 611.104 61.8172 611.672 62.9631C612.25 64.0994 613.05 64.9659 614.072 65.5625C615.095 66.1496 616.284 66.4432 617.638 66.4432C618.518 66.4432 619.314 66.3201 620.024 66.0739C620.744 65.8182 621.364 65.4394 621.885 64.9375C622.406 64.4261 622.808 63.7917 623.092 63.0341L626.331 63.9432C625.99 65.0417 625.417 66.0076 624.612 66.8409C623.807 67.6648 622.813 68.3087 621.629 68.7727C620.446 69.2273 619.115 69.4545 617.638 69.4545ZM640.01 69.4545C638.192 69.4545 636.587 68.9953 635.195 68.0767C633.803 67.1487 632.714 65.8419 631.928 64.1562C631.142 62.4612 630.749 60.4583 630.749 58.1477C630.749 55.8561 631.142 53.8674 631.928 52.1818C632.714 50.4962 633.807 49.1941 635.209 48.2756C636.61 47.357 638.23 46.8977 640.067 46.8977C641.487 46.8977 642.609 47.1345 643.433 47.608C644.267 48.072 644.901 48.6023 645.337 49.1989C645.782 49.786 646.127 50.2689 646.374 50.6477H646.658V39.9091H650.01V69H646.771V65.6477H646.374C646.127 66.0455 645.777 66.5473 645.322 67.1534C644.868 67.75 644.219 68.285 643.376 68.7585C642.534 69.2225 641.411 69.4545 640.01 69.4545ZM640.464 66.4432C641.809 66.4432 642.946 66.0928 643.874 65.392C644.802 64.6818 645.507 63.7017 645.99 62.4517C646.473 61.1922 646.714 59.7386 646.714 58.0909C646.714 56.4621 646.478 55.0369 646.004 53.8153C645.531 52.5843 644.83 51.6278 643.902 50.946C642.974 50.2547 641.828 49.9091 640.464 49.9091C639.044 49.9091 637.86 50.2737 636.913 51.0028C635.976 51.7225 635.27 52.7027 634.797 53.9432C634.333 55.1742 634.101 56.5568 634.101 58.0909C634.101 59.6439 634.338 61.0549 634.811 62.3239C635.294 63.5833 636.004 64.5871 636.942 65.3352C637.889 66.0739 639.063 66.4432 640.464 66.4432ZM677.581 47.1818V50.0227H665.82V47.1818H677.581ZM669.342 69V44.1705C669.342 42.9205 669.636 41.8788 670.223 41.0455C670.81 40.2121 671.572 39.5871 672.51 39.1705C673.447 38.7538 674.437 38.5455 675.479 38.5455C676.303 38.5455 676.975 38.6117 677.496 38.7443C678.017 38.8769 678.405 39 678.661 39.1136L677.695 42.0114C677.524 41.9545 677.287 41.8835 676.984 41.7983C676.691 41.7131 676.303 41.6705 675.82 41.6705C674.712 41.6705 673.911 41.9498 673.419 42.5085C672.936 43.0672 672.695 43.8864 672.695 44.9659V69H669.342ZM690.244 69.4545C688.275 69.4545 686.546 68.9858 685.06 68.0483C683.582 67.1108 682.427 65.7992 681.594 64.1136C680.77 62.428 680.358 60.4583 680.358 58.2045C680.358 55.9318 680.77 53.9479 681.594 52.2528C682.427 50.5578 683.582 49.2415 685.06 48.304C686.546 47.3665 688.275 46.8977 690.244 46.8977C692.214 46.8977 693.938 47.3665 695.415 48.304C696.902 49.2415 698.057 50.5578 698.881 52.2528C699.714 53.9479 700.131 55.9318 700.131 58.2045C700.131 60.4583 699.714 62.428 698.881 64.1136C698.057 65.7992 696.902 67.1108 695.415 68.0483C693.938 68.9858 692.214 69.4545 690.244 69.4545ZM690.244 66.4432C691.741 66.4432 692.972 66.0597 693.938 65.2926C694.903 64.5256 695.618 63.517 696.082 62.267C696.546 61.017 696.778 59.6629 696.778 58.2045C696.778 56.7462 696.546 55.3873 696.082 54.1278C695.618 52.8684 694.903 51.8504 693.938 51.0739C692.972 50.2973 691.741 49.9091 690.244 49.9091C688.748 49.9091 687.517 50.2973 686.551 51.0739C685.585 51.8504 684.87 52.8684 684.406 54.1278C683.942 55.3873 683.71 56.7462 683.71 58.2045C683.71 59.6629 683.942 61.017 684.406 62.267C684.87 63.517 685.585 64.5256 686.551 65.2926C687.517 66.0597 688.748 66.4432 690.244 66.4432ZM705.248 69V47.1818H708.487V50.4773H708.714C709.112 49.3977 709.831 48.5218 710.873 47.8494C711.915 47.1771 713.089 46.8409 714.396 46.8409C714.642 46.8409 714.95 46.8456 715.319 46.8551C715.688 46.8646 715.968 46.8788 716.157 46.8977V50.3068C716.043 50.2784 715.783 50.2358 715.376 50.179C714.978 50.1127 714.557 50.0795 714.112 50.0795C713.051 50.0795 712.104 50.3021 711.271 50.7472C710.447 51.1828 709.793 51.7888 709.31 52.5653C708.837 53.3324 708.6 54.2083 708.6 55.1932V69H705.248Z" fill="#91C8FF"/>
<path d="M56.5778 100.727H70.7273L82.7301 129.996H83.2841L95.2869 100.727H109.436V148H98.3107V118.962H97.9183L86.5618 147.7H79.4524L68.0959 118.801H67.7035V148H56.5778V100.727ZM126.789 148H114.509L130.459 100.727H145.67L161.62 148H149.34L138.237 112.638H137.868L126.789 148ZM125.15 129.396H150.817V138.075H125.15V129.396ZM166.71 148V100.727H186.237C189.777 100.727 192.831 101.366 195.401 102.643C197.986 103.905 199.979 105.721 201.379 108.091C202.78 110.445 203.48 113.238 203.48 116.469C203.48 119.747 202.764 122.532 201.333 124.825C199.902 127.103 197.871 128.842 195.239 130.042C192.608 131.227 189.492 131.819 185.891 131.819H173.542V122.817H183.767C185.491 122.817 186.93 122.594 188.084 122.148C189.253 121.686 190.138 120.994 190.738 120.07C191.339 119.132 191.639 117.931 191.639 116.469C191.639 115.008 191.339 113.8 190.738 112.846C190.138 111.876 189.253 111.153 188.084 110.676C186.914 110.183 185.476 109.937 183.767 109.937H178.135V148H166.71ZM193.324 126.395L205.096 148H192.631L181.09 126.395H193.324ZM209.747 148V100.727H221.172V120.717H221.796L237.422 100.727H250.88L234.122 121.825L251.18 148H237.515L225.743 129.419L221.172 135.189V148H209.747ZM255.386 148V100.727H288.348V110.006H266.812V119.701H286.663V129.003H266.812V138.721H288.348V148H255.386ZM293.957 110.006V100.727H333.913V110.006H319.578V148H308.314V110.006H293.957ZM379.01 114.9C378.856 113.207 378.171 111.891 376.956 110.953C375.755 109.999 374.039 109.522 371.808 109.522C370.331 109.522 369.1 109.714 368.115 110.099C367.13 110.483 366.391 111.014 365.899 111.691C365.407 112.353 365.153 113.115 365.137 113.977C365.107 114.684 365.245 115.308 365.553 115.846C365.876 116.385 366.338 116.862 366.938 117.277C367.553 117.677 368.292 118.031 369.154 118.339C370.015 118.647 370.985 118.916 372.062 119.147L376.125 120.07C378.464 120.578 380.526 121.255 382.311 122.102C384.111 122.948 385.619 123.956 386.835 125.125C388.066 126.295 388.997 127.641 389.628 129.165C390.259 130.688 390.582 132.396 390.597 134.289C390.582 137.274 389.828 139.837 388.335 141.975C386.842 144.114 384.696 145.753 381.895 146.892C379.11 148.031 375.748 148.6 371.808 148.6C367.853 148.6 364.406 148.008 361.467 146.823C358.528 145.638 356.243 143.837 354.612 141.422C352.981 139.006 352.142 135.951 352.096 132.258H363.037C363.129 133.781 363.537 135.051 364.26 136.066C364.983 137.082 365.976 137.851 367.238 138.375C368.515 138.898 369.992 139.159 371.67 139.159C373.208 139.159 374.516 138.952 375.594 138.536C376.686 138.121 377.525 137.544 378.11 136.805C378.694 136.066 378.994 135.22 379.01 134.266C378.994 133.373 378.717 132.612 378.179 131.981C377.64 131.335 376.809 130.781 375.686 130.319C374.578 129.842 373.162 129.403 371.439 129.003L366.499 127.849C362.406 126.91 359.182 125.395 356.828 123.302C354.473 121.194 353.304 118.347 353.319 114.761C353.304 111.838 354.089 109.275 355.674 107.075C357.259 104.874 359.451 103.159 362.252 101.928C365.053 100.696 368.246 100.081 371.831 100.081C375.494 100.081 378.671 100.704 381.364 101.951C384.073 103.182 386.173 104.913 387.666 107.144C389.158 109.375 389.92 111.961 389.951 114.9H379.01ZM407.794 100.727V148H396.368V100.727H407.794ZM414.805 148V141.491L437.772 110.006H414.828V100.727H452.221V107.237L429.254 138.721H452.198V148H414.805ZM470.635 100.727V148H459.21V100.727H470.635ZM518.041 100.727V148H508.346L489.534 120.717H489.234V148H477.808V100.727H487.641L506.246 127.964H506.638V100.727H518.041ZM556.248 116.169C555.986 115.2 555.602 114.346 555.094 113.607C554.586 112.853 553.963 112.215 553.224 111.691C552.486 111.168 551.639 110.776 550.685 110.514C549.731 110.237 548.685 110.099 547.546 110.099C545.253 110.099 543.268 110.653 541.591 111.761C539.929 112.869 538.644 114.484 537.736 116.608C536.828 118.716 536.374 121.278 536.374 124.294C536.374 127.326 536.813 129.911 537.69 132.05C538.567 134.189 539.836 135.82 541.498 136.944C543.16 138.067 545.176 138.629 547.546 138.629C549.639 138.629 551.408 138.29 552.855 137.613C554.317 136.92 555.425 135.943 556.179 134.681C556.933 133.42 557.31 131.935 557.31 130.227L559.433 130.48H547.938V122.148H568.32V128.403C568.32 132.635 567.42 136.259 565.619 139.275C563.834 142.291 561.372 144.607 558.233 146.223C555.109 147.838 551.516 148.646 547.454 148.646C542.945 148.646 538.982 147.669 535.566 145.715C532.15 143.761 529.488 140.975 527.58 137.359C525.671 133.727 524.717 129.419 524.717 124.433C524.717 120.555 525.294 117.116 526.449 114.115C527.603 111.099 529.211 108.545 531.273 106.452C533.35 104.359 535.751 102.774 538.475 101.697C541.214 100.62 544.16 100.081 547.315 100.081C550.054 100.081 552.601 100.473 554.955 101.258C557.325 102.043 559.418 103.151 561.234 104.582C563.065 106.013 564.55 107.714 565.689 109.683C566.827 111.653 567.535 113.815 567.812 116.169H556.248Z" fill="white"/>
</g>
</g>
<path d="M911.667 71.1673L870 50.334L828.333 71.1673V112.834L870 133.667L911.667 112.834V71.1673Z" stroke="#4DABFF" stroke-width="8.33333" stroke-linejoin="round"/>
<path d="M828.333 71.167L870 92.0003" stroke="#4DABFF" stroke-width="8.33333" stroke-linecap="round" stroke-linejoin="round"/>
<path d="M870 133.667V92" stroke="#4DABFF" stroke-width="8.33333" stroke-linecap="round" stroke-linejoin="round"/>
<path d="M911.667 71.167L870 92.0003" stroke="#4DABFF" stroke-width="8.33333" stroke-linecap="round" stroke-linejoin="round"/>
<path d="M890.833 60.75L849.167 81.5833" stroke="#4DABFF" stroke-width="8.33333" stroke-linecap="round" stroke-linejoin="round"/>
<path d="M69.1297 277.675C66.8347 277.675 64.8097 277.188 63.0547 276.212C61.2997 275.222 59.9272 273.85 58.9372 272.095C57.9622 270.34 57.4747 268.315 57.4747 266.02V255.58C57.4747 253.285 57.9622 251.26 58.9372 249.505C59.9272 247.75 61.2997 246.385 63.0547 245.41C64.8097 244.42 66.8347 243.925 69.1297 243.925C71.4247 243.925 73.4422 244.42 75.1822 245.41C76.9372 246.385 78.3097 247.75 79.2997 249.505C80.2897 251.26 80.7847 253.285 80.7847 255.58V266.02C80.7847 268.315 80.2897 270.34 79.2997 272.095C78.3097 273.85 76.9372 275.222 75.1822 276.212C73.4422 277.188 71.4247 277.675 69.1297 277.675ZM69.1297 272.522C70.2697 272.522 71.3047 272.252 72.2347 271.712C73.1647 271.157 73.8997 270.422 74.4397 269.507C74.9797 268.577 75.2497 267.542 75.2497 266.402V255.175C75.2497 254.02 74.9797 252.985 74.4397 252.07C73.8997 251.14 73.1647 250.405 72.2347 249.865C71.3047 249.31 70.2697 249.032 69.1297 249.032C67.9897 249.032 66.9547 249.31 66.0247 249.865C65.0947 250.405 64.3597 251.14 63.8197 252.07C63.2797 252.985 63.0097 254.02 63.0097 255.175V266.402C63.0097 267.542 63.2797 268.577 63.8197 269.507C64.3597 270.422 65.0947 271.157 66.0247 271.712C66.9547 272.252 67.9897 272.522 69.1297 272.522ZM92.7188 277V250.517L86.6438 254.23V248.245L92.7188 244.6H98.2538V277H92.7188Z" fill="#123D7B"/>
<path d="M559.021 277.675C556.726 277.675 554.701 277.188 552.946 276.212C551.191 275.222 549.818 273.85 548.828 272.095C547.853 270.34 547.366 268.315 547.366 266.02V255.58C547.366 253.285 547.853 251.26 548.828 249.505C549.818 247.75 551.191 246.385 552.946 245.41C554.701 244.42 556.726 243.925 559.021 243.925C561.316 243.925 563.333 244.42 565.073 245.41C566.828 246.385 568.201 247.75 569.191 249.505C570.181 251.26 570.676 253.285 570.676 255.58V266.02C570.676 268.315 570.181 270.34 569.191 272.095C568.201 273.85 566.828 275.222 565.073 276.212C563.333 277.188 561.316 277.675 559.021 277.675ZM559.021 272.522C560.161 272.522 561.196 272.252 562.126 271.712C563.056 271.157 563.791 270.422 564.331 269.507C564.871 268.577 565.141 267.542 565.141 266.402V255.175C565.141 254.02 564.871 252.985 564.331 252.07C563.791 251.14 563.056 250.405 562.126 249.865C561.196 249.31 560.161 249.032 559.021 249.032C557.881 249.032 556.846 249.31 555.916 249.865C554.986 250.405 554.251 251.14 553.711 252.07C553.171 252.985 552.901 254.02 552.901 255.175V266.402C552.901 267.542 553.171 268.577 553.711 269.507C554.251 270.422 554.986 271.157 555.916 271.712C556.846 272.252 557.881 272.522 559.021 272.522ZM588.19 277.675C586.075 277.675 584.17 277.18 582.475 276.19C580.795 275.185 579.46 273.797 578.47 272.027C577.48 270.257 576.985 268.225 576.985 265.93V256.075C576.985 253.615 577.472 251.477 578.447 249.662C579.437 247.847 580.817 246.445 582.587 245.455C584.372 244.465 586.442 243.97 588.797 243.97C590.432 243.97 591.985 244.247 593.455 244.802C594.925 245.342 596.23 246.212 597.37 247.412L593.455 251.215C592.885 250.54 592.187 250.007 591.362 249.617C590.552 249.227 589.697 249.032 588.797 249.032C587.537 249.032 586.435 249.332 585.49 249.932C584.545 250.517 583.81 251.29 583.285 252.25C582.775 253.21 582.52 254.237 582.52 255.332V260.71L581.53 259.63C582.46 258.55 583.577 257.71 584.882 257.11C586.187 256.495 587.552 256.187 588.977 256.187C591.017 256.187 592.817 256.652 594.377 257.582C595.937 258.497 597.167 259.757 598.067 261.362C598.967 262.952 599.417 264.767 599.417 266.807C599.417 268.832 598.9 270.67 597.865 272.32C596.845 273.955 595.487 275.26 593.792 276.235C592.097 277.195 590.23 277.675 588.19 277.675ZM588.19 272.477C589.24 272.477 590.2 272.23 591.07 271.735C591.94 271.225 592.63 270.542 593.14 269.687C593.665 268.817 593.927 267.857 593.927 266.807C593.927 265.757 593.672 264.797 593.162 263.927C592.652 263.057 591.962 262.367 591.092 261.857C590.237 261.332 589.285 261.07 588.235 261.07C587.185 261.07 586.225 261.332 585.355 261.857C584.485 262.367 583.795 263.057 583.285 263.927C582.775 264.797 582.52 265.757 582.52 266.807C582.52 267.827 582.767 268.772 583.262 269.642C583.772 270.497 584.455 271.187 585.31 271.712C586.18 272.222 587.14 272.477 588.19 272.477Z" fill="#123D7B"/>
<path d="M66.0921 467.675C63.7971 467.675 61.7721 467.188 60.0171 466.212C58.2621 465.222 56.8896 463.85 55.8996 462.095C54.9246 460.34 54.4371 458.315 54.4371 456.02V445.58C54.4371 443.285 54.9246 441.26 55.8996 439.505C56.8896 437.75 58.2621 436.385 60.0171 435.41C61.7721 434.42 63.7971 433.925 66.0921 433.925C68.3871 433.925 70.4046 434.42 72.1446 435.41C73.8996 436.385 75.2721 437.75 76.2621 439.505C77.2521 441.26 77.7471 443.285 77.7471 445.58V456.02C77.7471 458.315 77.2521 460.34 76.2621 462.095C75.2721 463.85 73.8996 465.222 72.1446 466.212C70.4046 467.188 68.3871 467.675 66.0921 467.675ZM66.0921 462.522C67.2321 462.522 68.2671 462.252 69.1971 461.712C70.1271 461.157 70.8621 460.422 71.4021 459.507C71.9421 458.577 72.2121 457.542 72.2121 456.402V445.175C72.2121 444.02 71.9421 442.985 71.4021 442.07C70.8621 441.14 70.1271 440.405 69.1971 439.865C68.2671 439.31 67.2321 439.032 66.0921 439.032C64.9521 439.032 63.9171 439.31 62.9871 439.865C62.0571 440.405 61.3221 441.14 60.7821 442.07C60.2421 442.985 59.9721 444.02 59.9721 445.175V456.402C59.9721 457.542 60.2421 458.577 60.7821 459.507C61.3221 460.422 62.0571 461.157 62.9871 461.712C63.9171 462.252 64.9521 462.522 66.0921 462.522ZM83.1563 466.955V462.23L97.0163 449.877C98.0963 448.917 98.8463 448.01 99.2663 447.155C99.6863 446.3 99.8963 445.475 99.8963 444.68C99.8963 443.6 99.6638 442.64 99.1988 441.8C98.7338 440.945 98.0888 440.27 97.2638 439.775C96.4538 439.28 95.5163 439.032 94.4513 439.032C93.3263 439.032 92.3288 439.295 91.4588 439.82C90.6038 440.33 89.9363 441.012 89.4563 441.867C88.9763 442.722 88.7513 443.645 88.7813 444.635H83.2013C83.2013 442.475 83.6813 440.592 84.6413 438.987C85.6163 437.382 86.9513 436.137 88.6463 435.252C90.3563 434.367 92.3288 433.925 94.5638 433.925C96.6338 433.925 98.4938 434.39 100.144 435.32C101.794 436.235 103.091 437.51 104.036 439.145C104.981 440.765 105.454 442.632 105.454 444.747C105.454 446.292 105.244 447.59 104.824 448.64C104.404 449.69 103.774 450.657 102.934 451.542C102.109 452.427 101.081 453.41 99.8513 454.49L90.0188 463.197L89.5238 461.847H105.454V466.955H83.1563Z" fill="#123D7B"/>
<path d="M65.9217 657.675C63.6267 657.675 61.6017 657.188 59.8467 656.212C58.0917 655.222 56.7192 653.85 55.7292 652.095C54.7542 650.34 54.2667 648.315 54.2667 646.02V635.58C54.2667 633.285 54.7542 631.26 55.7292 629.505C56.7192 627.75 58.0917 626.385 59.8467 625.41C61.6017 624.42 63.6267 623.925 65.9217 623.925C68.2167 623.925 70.2342 624.42 71.9742 625.41C73.7292 626.385 75.1017 627.75 76.0917 629.505C77.0817 631.26 77.5767 633.285 77.5767 635.58V646.02C77.5767 648.315 77.0817 650.34 76.0917 652.095C75.1017 653.85 73.7292 655.222 71.9742 656.212C70.2342 657.188 68.2167 657.675 65.9217 657.675ZM65.9217 652.522C67.0617 652.522 68.0967 652.252 69.0267 651.712C69.9567 651.157 70.6917 650.422 71.2317 649.507C71.7717 648.577 72.0417 647.542 72.0417 646.402V635.175C72.0417 634.02 71.7717 632.985 71.2317 632.07C70.6917 631.14 69.9567 630.405 69.0267 629.865C68.0967 629.31 67.0617 629.032 65.9217 629.032C64.7817 629.032 63.7467 629.31 62.8167 629.865C61.8867 630.405 61.1517 631.14 60.6117 632.07C60.0717 632.985 59.8017 634.02 59.8017 635.175V646.402C59.8017 647.542 60.0717 648.577 60.6117 649.507C61.1517 650.422 61.8867 651.157 62.8167 651.712C63.7467 652.252 64.7817 652.522 65.9217 652.522ZM93.1558 657.608C91.5358 657.608 90.0058 657.293 88.5658 656.662C87.1258 656.032 85.8733 655.14 84.8083 653.985C83.7583 652.83 83.0008 651.465 82.5358 649.89L87.7783 648.472C88.1533 649.762 88.8358 650.76 89.8258 651.465C90.8308 652.155 91.9333 652.492 93.1333 652.477C94.1983 652.477 95.1508 652.23 95.9908 651.735C96.8308 651.24 97.4908 650.572 97.9708 649.732C98.4508 648.877 98.6908 647.925 98.6908 646.875C98.6908 645.27 98.1733 643.927 97.1383 642.847C96.1033 641.767 94.7683 641.227 93.1333 641.227C92.6383 641.227 92.1508 641.295 91.6708 641.43C91.2058 641.565 90.7558 641.752 90.3208 641.992L87.8458 637.717L98.7358 628.402L99.2083 629.707H83.7958V624.6H103.663V629.73L94.9108 638.145L94.8658 636.547C96.8308 636.682 98.5033 637.23 99.8833 638.19C101.278 639.15 102.343 640.387 103.078 641.902C103.828 643.417 104.203 645.075 104.203 646.875C104.203 648.915 103.701 650.745 102.696 652.365C101.706 653.985 100.371 655.267 98.6908 656.212C97.0258 657.143 95.1808 657.608 93.1558 657.608Z" fill="#123D7B"/>
<path d="M65.8065 847.675C63.5115 847.675 61.4865 847.188 59.7315 846.212C57.9765 845.222 56.604 843.85 55.614 842.095C54.639 840.34 54.1515 838.315 54.1515 836.02V825.58C54.1515 823.285 54.639 821.26 55.614 819.505C56.604 817.75 57.9765 816.385 59.7315 815.41C61.4865 814.42 63.5115 813.925 65.8065 813.925C68.1015 813.925 70.119 814.42 71.859 815.41C73.614 816.385 74.9865 817.75 75.9765 819.505C76.9665 821.26 77.4615 823.285 77.4615 825.58V836.02C77.4615 838.315 76.9665 840.34 75.9765 842.095C74.9865 843.85 73.614 845.222 71.859 846.212C70.119 847.188 68.1015 847.675 65.8065 847.675ZM65.8065 842.522C66.9465 842.522 67.9815 842.252 68.9115 841.712C69.8415 841.157 70.5765 840.422 71.1165 839.507C71.6565 838.577 71.9265 837.542 71.9265 836.402V825.175C71.9265 824.02 71.6565 822.985 71.1165 822.07C70.5765 821.14 69.8415 820.405 68.9115 819.865C67.9815 819.31 66.9465 819.032 65.8065 819.032C64.6665 819.032 63.6315 819.31 62.7015 819.865C61.7715 820.405 61.0365 821.14 60.4965 822.07C59.9565 822.985 59.6865 824.02 59.6865 825.175V836.402C59.6865 837.542 59.9565 838.577 60.4965 839.507C61.0365 840.422 61.7715 841.157 62.7015 841.712C63.6315 842.252 64.6665 842.522 65.8065 842.522ZM97.2256 847V841.645H82.8706V836.582L93.2431 814.6H99.4306L89.0581 836.582H97.2256V828.145H102.716V836.582H105.753V841.645H102.716V847H97.2256Z" fill="#123D7B"/>
<path d="M65.8118 1037.68C63.5168 1037.68 61.4918 1037.19 59.7368 1036.21C57.9818 1035.22 56.6093 1033.85 55.6193 1032.09C54.6443 1030.34 54.1568 1028.31 54.1568 1026.02V1015.58C54.1568 1013.28 54.6443 1011.26 55.6193 1009.5C56.6093 1007.75 57.9818 1006.38 59.7368 1005.41C61.4918 1004.42 63.5168 1003.92 65.8118 1003.92C68.1068 1003.92 70.1243 1004.42 71.8643 1005.41C73.6193 1006.38 74.9918 1007.75 75.9818 1009.5C76.9718 1011.26 77.4668 1013.28 77.4668 1015.58V1026.02C77.4668 1028.31 76.9718 1030.34 75.9818 1032.09C74.9918 1033.85 73.6193 1035.22 71.8643 1036.21C70.1243 1037.19 68.1068 1037.68 65.8118 1037.68ZM65.8118 1032.52C66.9518 1032.52 67.9868 1032.25 68.9168 1031.71C69.8468 1031.16 70.5818 1030.42 71.1218 1029.51C71.6618 1028.58 71.9318 1027.54 71.9318 1026.4V1015.17C71.9318 1014.02 71.6618 1012.98 71.1218 1012.07C70.5818 1011.14 69.8468 1010.4 68.9168 1009.86C67.9868 1009.31 66.9518 1009.03 65.8118 1009.03C64.6718 1009.03 63.6368 1009.31 62.7068 1009.86C61.7768 1010.4 61.0418 1011.14 60.5018 1012.07C59.9618 1012.98 59.6918 1014.02 59.6918 1015.17V1026.4C59.6918 1027.54 59.9618 1028.58 60.5018 1029.51C61.0418 1030.42 61.7768 1031.16 62.7068 1031.71C63.6368 1032.25 64.6718 1032.52 65.8118 1032.52ZM93.3835 1037.68C91.7335 1037.68 90.196 1037.34 88.771 1036.66C87.346 1035.97 86.116 1035.03 85.081 1033.83C84.061 1032.63 83.326 1031.23 82.876 1029.64L88.096 1028.25C88.306 1029.12 88.6885 1029.87 89.2435 1030.5C89.8135 1031.13 90.4735 1031.61 91.2235 1031.96C91.9885 1032.3 92.776 1032.48 93.586 1032.48C94.636 1032.48 95.596 1032.22 96.466 1031.71C97.336 1031.2 98.026 1030.52 98.536 1029.66C99.046 1028.79 99.301 1027.83 99.301 1026.78C99.301 1025.73 99.0385 1024.78 98.5135 1023.93C98.0035 1023.06 97.3135 1022.37 96.4435 1021.88C95.5735 1021.37 94.621 1021.11 93.586 1021.11C92.341 1021.11 91.306 1021.34 90.481 1021.79C89.671 1022.24 89.0485 1022.72 88.6135 1023.23L83.9785 1021.74L84.9685 1004.6H102.563V1009.68H87.871L89.896 1007.77L89.176 1019.7L88.186 1018.48C89.026 1017.72 90.001 1017.15 91.111 1016.77C92.221 1016.4 93.2935 1016.21 94.3285 1016.21C96.3535 1016.21 98.146 1016.67 99.706 1017.6C101.281 1018.52 102.511 1019.77 103.396 1021.36C104.296 1022.95 104.746 1024.76 104.746 1026.78C104.746 1028.81 104.221 1030.65 103.171 1032.3C102.121 1033.93 100.733 1035.24 99.0085 1036.21C97.2985 1037.19 95.4235 1037.68 93.3835 1037.68Z" fill="#123D7B"/>
<path d="M560.998 467.675C558.703 467.675 556.678 467.188 554.923 466.212C553.168 465.222 551.796 463.85 550.806 462.095C549.831 460.34 549.343 458.315 549.343 456.02V445.58C549.343 443.285 549.831 441.26 550.806 439.505C551.796 437.75 553.168 436.385 554.923 435.41C556.678 434.42 558.703 433.925 560.998 433.925C563.293 433.925 565.311 434.42 567.051 435.41C568.806 436.385 570.178 437.75 571.168 439.505C572.158 441.26 572.653 443.285 572.653 445.58V456.02C572.653 458.315 572.158 460.34 571.168 462.095C570.178 463.85 568.806 465.222 567.051 466.212C565.311 467.188 563.293 467.675 560.998 467.675ZM560.998 462.522C562.138 462.522 563.173 462.252 564.103 461.712C565.033 461.157 565.768 460.422 566.308 459.507C566.848 458.577 567.118 457.542 567.118 456.402V445.175C567.118 444.02 566.848 442.985 566.308 442.07C565.768 441.14 565.033 440.405 564.103 439.865C563.173 439.31 562.138 439.032 560.998 439.032C559.858 439.032 558.823 439.31 557.893 439.865C556.963 440.405 556.228 441.14 555.688 442.07C555.148 442.985 554.878 444.02 554.878 445.175V456.402C554.878 457.542 555.148 458.577 555.688 459.507C556.228 460.422 556.963 461.157 557.893 461.712C558.823 462.252 559.858 462.522 560.998 462.522ZM580.605 467L591.765 439.73H577.613V434.6H597.57V439.73L586.455 467H580.605Z" fill="#123D7B"/>
<path d="M559.219 657.675C556.924 657.675 554.899 657.188 553.144 656.212C551.389 655.222 550.016 653.85 549.026 652.095C548.051 650.34 547.564 648.315 547.564 646.02V635.58C547.564 633.285 548.051 631.26 549.026 629.505C550.016 627.75 551.389 626.385 553.144 625.41C554.899 624.42 556.924 623.925 559.219 623.925C561.514 623.925 563.531 624.42 565.271 625.41C567.026 626.385 568.399 627.75 569.389 629.505C570.379 631.26 570.874 633.285 570.874 635.58V646.02C570.874 648.315 570.379 650.34 569.389 652.095C568.399 653.85 567.026 655.222 565.271 656.212C563.531 657.188 561.514 657.675 559.219 657.675ZM559.219 652.522C560.359 652.522 561.394 652.252 562.324 651.712C563.254 651.157 563.989 650.422 564.529 649.507C565.069 648.577 565.339 647.542 565.339 646.402V635.175C565.339 634.02 565.069 632.985 564.529 632.07C563.989 631.14 563.254 630.405 562.324 629.865C561.394 629.31 560.359 629.032 559.219 629.032C558.079 629.032 557.044 629.31 556.114 629.865C555.184 630.405 554.449 631.14 553.909 632.07C553.369 632.985 553.099 634.02 553.099 635.175V646.402C553.099 647.542 553.369 648.577 553.909 649.507C554.449 650.422 555.184 651.157 556.114 651.712C557.044 652.252 558.079 652.522 559.219 652.522ZM587.78 657.675C585.635 657.675 583.73 657.24 582.065 656.37C580.4 655.5 579.095 654.292 578.15 652.747C577.205 651.202 576.733 649.432 576.733 647.437C576.733 645.652 577.145 643.995 577.97 642.465C578.795 640.935 580.003 639.712 581.593 638.797L581.48 640.53C580.235 639.585 579.268 638.497 578.578 637.267C577.903 636.022 577.565 634.627 577.565 633.082C577.565 631.222 578 629.61 578.87 628.245C579.755 626.88 580.963 625.822 582.493 625.072C584.023 624.307 585.785 623.925 587.78 623.925C589.775 623.925 591.538 624.307 593.068 625.072C594.613 625.822 595.82 626.88 596.69 628.245C597.575 629.61 598.018 631.222 598.018 633.082C598.018 634.627 597.688 636.015 597.028 637.245C596.383 638.475 595.4 639.585 594.08 640.575L594.058 638.82C595.618 639.705 596.81 640.92 597.635 642.465C598.475 643.995 598.895 645.652 598.895 647.437C598.895 649.432 598.415 651.202 597.455 652.747C596.51 654.292 595.198 655.5 593.518 656.37C591.853 657.24 589.94 657.675 587.78 657.675ZM587.78 652.567C589.37 652.567 590.66 652.132 591.65 651.262C592.655 650.392 593.158 649.117 593.158 647.437C593.158 645.757 592.663 644.482 591.673 643.612C590.683 642.727 589.385 642.285 587.78 642.285C586.19 642.285 584.908 642.727 583.933 643.612C582.958 644.482 582.47 645.757 582.47 647.437C582.47 649.117 582.958 650.392 583.933 651.262C584.908 652.132 586.19 652.567 587.78 652.567ZM587.78 637.132C589.115 637.132 590.195 636.802 591.02 636.142C591.86 635.467 592.28 634.447 592.28 633.082C592.28 631.717 591.86 630.705 591.02 630.045C590.195 629.37 589.115 629.032 587.78 629.032C586.46 629.032 585.38 629.37 584.54 630.045C583.715 630.705 583.303 631.717 583.303 633.082C583.303 634.447 583.715 635.467 584.54 636.142C585.38 636.802 586.46 637.132 587.78 637.132Z" fill="#123D7B"/>
<path d="M559.021 847.675C556.726 847.675 554.701 847.188 552.946 846.212C551.191 845.222 549.818 843.85 548.828 842.095C547.853 840.34 547.366 838.315 547.366 836.02V825.58C547.366 823.285 547.853 821.26 548.828 819.505C549.818 817.75 551.191 816.385 552.946 815.41C554.701 814.42 556.726 813.925 559.021 813.925C561.316 813.925 563.333 814.42 565.073 815.41C566.828 816.385 568.201 817.75 569.191 819.505C570.181 821.26 570.676 823.285 570.676 825.58V836.02C570.676 838.315 570.181 840.34 569.191 842.095C568.201 843.85 566.828 845.222 565.073 846.212C563.333 847.188 561.316 847.675 559.021 847.675ZM559.021 842.522C560.161 842.522 561.196 842.252 562.126 841.712C563.056 841.157 563.791 840.422 564.331 839.507C564.871 838.577 565.141 837.542 565.141 836.402V825.175C565.141 824.02 564.871 822.985 564.331 822.07C563.791 821.14 563.056 820.405 562.126 819.865C561.196 819.31 560.161 819.032 559.021 819.032C557.881 819.032 556.846 819.31 555.916 819.865C554.986 820.405 554.251 821.14 553.711 822.07C553.171 822.985 552.901 824.02 552.901 825.175V836.402C552.901 837.542 553.171 838.577 553.711 839.507C554.251 840.422 554.986 841.157 555.916 841.712C556.846 842.252 557.881 842.522 559.021 842.522ZM587.447 813.97C589.562 813.97 591.467 814.472 593.162 815.477C594.857 816.467 596.192 817.847 597.167 819.617C598.157 821.372 598.652 823.397 598.652 825.692V835.57C598.652 838.015 598.157 840.152 597.167 841.982C596.192 843.797 594.82 845.2 593.05 846.19C591.28 847.18 589.21 847.675 586.84 847.675C585.205 847.675 583.66 847.398 582.205 846.842C580.75 846.272 579.445 845.402 578.29 844.232L582.182 840.43C582.767 841.105 583.465 841.637 584.275 842.027C585.1 842.402 585.955 842.59 586.84 842.59C588.1 842.59 589.202 842.297 590.147 841.712C591.092 841.112 591.827 840.34 592.352 839.395C592.877 838.435 593.14 837.407 593.14 836.312V830.935L594.107 832.015C593.192 833.095 592.082 833.942 590.777 834.557C589.472 835.157 588.1 835.457 586.66 835.457C584.635 835.457 582.835 834.992 581.26 834.062C579.7 833.132 578.47 831.872 577.57 830.282C576.685 828.677 576.242 826.862 576.242 824.837C576.242 822.812 576.752 820.982 577.772 819.347C578.792 817.697 580.15 816.392 581.845 815.432C583.555 814.457 585.422 813.97 587.447 813.97ZM587.447 819.145C586.397 819.145 585.437 819.4 584.567 819.91C583.697 820.42 583.007 821.11 582.497 821.98C581.987 822.835 581.732 823.787 581.732 824.837C581.732 825.887 581.98 826.847 582.475 827.717C582.985 828.587 583.667 829.277 584.522 829.787C585.392 830.297 586.352 830.552 587.402 830.552C588.452 830.552 589.412 830.297 590.282 829.787C591.152 829.277 591.842 828.587 592.352 827.717C592.877 826.847 593.14 825.887 593.14 824.837C593.14 823.817 592.885 822.88 592.375 822.025C591.865 821.155 591.175 820.457 590.305 819.932C589.45 819.407 588.497 819.145 587.447 819.145Z" fill="#123D7B"/>
<path d="M557.1 1037V1010.52L551.025 1014.23V1008.24L557.1 1004.6H562.635V1037H557.1ZM582.861 1037.68C580.566 1037.68 578.541 1037.19 576.786 1036.21C575.031 1035.22 573.659 1033.85 572.669 1032.09C571.694 1030.34 571.206 1028.31 571.206 1026.02V1015.58C571.206 1013.28 571.694 1011.26 572.669 1009.5C573.659 1007.75 575.031 1006.38 576.786 1005.41C578.541 1004.42 580.566 1003.92 582.861 1003.92C585.156 1003.92 587.174 1004.42 588.914 1005.41C590.669 1006.38 592.041 1007.75 593.031 1009.5C594.021 1011.26 594.516 1013.28 594.516 1015.58V1026.02C594.516 1028.31 594.021 1030.34 593.031 1032.09C592.041 1033.85 590.669 1035.22 588.914 1036.21C587.174 1037.19 585.156 1037.68 582.861 1037.68ZM582.861 1032.52C584.001 1032.52 585.036 1032.25 585.966 1031.71C586.896 1031.16 587.631 1030.42 588.171 1029.51C588.711 1028.58 588.981 1027.54 588.981 1026.4V1015.17C588.981 1014.02 588.711 1012.98 588.171 1012.07C587.631 1011.14 586.896 1010.4 585.966 1009.86C585.036 1009.31 584.001 1009.03 582.861 1009.03C581.721 1009.03 580.686 1009.31 579.756 1009.86C578.826 1010.4 578.091 1011.14 577.551 1012.07C577.011 1012.98 576.741 1014.02 576.741 1015.17V1026.4C576.741 1027.54 577.011 1028.58 577.551 1029.51C578.091 1030.42 578.826 1031.16 579.756 1031.71C580.686 1032.25 581.721 1032.52 582.861 1032.52Z" fill="#123D7B"/>
<line x1="496.5" y1="220" x2="496.5" y2="1156" stroke="#123D7B"/>
</g>
<defs>
<filter id="filter0_d_123_1129" x="54.0227" y="38.5459" width="669.926" height="117.893" filterUnits="userSpaceOnUse" color-interpolation-filters="sRGB">
<feFlood flood-opacity="0" result="BackgroundImageFix"/>
<feColorMatrix in="SourceAlpha" type="matrix" values="0 0 0 0 0 0 0 0 0 0 0 0 0 0 0 0 0 0 127 0" result="hardAlpha"/>
<feOffset dx="4.6752" dy="4.6752"/>
<feGaussianBlur stdDeviation="1.5584"/>
<feComposite in2="hardAlpha" operator="out"/>
<feColorMatrix type="matrix" values="0 0 0 0 0 0 0 0 0 0 0 0 0 0 0 0 0 0 0.4 0"/>
<feBlend mode="normal" in2="BackgroundImageFix" result="effect1_dropShadow_123_1129"/>
<feBlend mode="normal" in="SourceGraphic" in2="effect1_dropShadow_123_1129" result="shape"/>
</filter>
<linearGradient id="paint0_linear_123_1129" x1="-329.5" y1="-255.757" x2="1156.03" y2="993.193" gradientUnits="userSpaceOnUse">
<stop stop-color="#DFF5FC"/>
<stop offset="0.630986" stop-color="white"/>
<stop offset="1" stop-color="#CDEFFB"/>
</linearGradient>
<linearGradient id="paint1_linear_123_1129" x1="983" y1="92" x2="0" y2="92" gradientUnits="userSpaceOnUse">
<stop stop-color="#000E19"/>
<stop offset="1" stop-color="#00365F"/>
</linearGradient>
<clipPath id="clip0_123_1129">
<rect width="983" height="1199" fill="white"/>
</clipPath>
<clipPath id="clip1_123_1129">
<rect width="983" height="184" fill="white"/>
</clipPath>
</defs>
</svg>
