<svg width="1349" height="880" xmlns="http://www.w3.org/2000/svg" xmlns:xlink="http://www.w3.org/1999/xlink" xml:space="preserve" overflow="hidden"><g transform="translate(-1271 -1504)"><path d="M1271.86 1508.73 1738.67 1508.73 1738.67 1673.73 1271.86 1673.73Z" fill="#264175" fill-rule="evenodd"/><path d="M1738.67 1508.73 2030.66 1508.73 2030.66 1673.73 1738.67 1673.73Z" fill="#264175" fill-rule="evenodd"/><path d="M2030.66 1508.73 2342.79 1508.73 2342.79 1673.73 2030.66 1673.73Z" fill="#264175" fill-rule="evenodd"/><path d="M2342.79 1508.73 2615.31 1508.73 2615.31 1673.73 2342.79 1673.73Z" fill="#264175" fill-rule="evenodd"/><path d="M1271.86 1673.73 1738.67 1673.73 1738.67 1838.73 1271.86 1838.73Z" fill="#E5EFFF" fill-rule="evenodd"/><path d="M1738.67 1673.73 2030.66 1673.73 2030.66 1838.73 1738.67 1838.73Z" fill="#E5EFFF" fill-rule="evenodd"/><path d="M2030.66 1673.73 2342.79 1673.73 2342.79 1838.73 2030.66 1838.73Z" fill="#E5EFFF" fill-rule="evenodd"/><path d="M2342.79 1673.73 2615.31 1673.73 2615.31 1838.73 2342.79 1838.73Z" fill="#E5EFFF" fill-rule="evenodd"/><path d="M1271.86 1838.73 1738.67 1838.73 1738.67 1937.73 1271.86 1937.73Z" fill="#FFFFFF" fill-rule="evenodd"/><path d="M1738.67 1838.73 2030.66 1838.73 2030.66 1937.73 1738.67 1937.73Z" fill="#FFFFFF" fill-rule="evenodd"/><path d="M2030.66 1838.73 2342.79 1838.73 2342.79 1937.73 2030.66 1937.73Z" fill="#FFFFFF" fill-rule="evenodd"/><path d="M2342.79 1838.73 2615.31 1838.73 2615.31 1937.73 2342.79 1937.73Z" fill="#FFFFFF" fill-rule="evenodd"/><path d="M1271.86 1937.73 1738.67 1937.73 1738.67 2036.73 1271.86 2036.73Z" fill="#E5EFFF" fill-rule="evenodd"/><path d="M1738.67 1937.73 2030.66 1937.73 2030.66 2036.73 1738.67 2036.73Z" fill="#E5EFFF" fill-rule="evenodd"/><path d="M2030.66 1937.73 2342.79 1937.73 2342.79 2036.73 2030.66 2036.73Z" fill="#E5EFFF" fill-rule="evenodd"/><path d="M2342.79 1937.73 2615.31 1937.73 2615.31 2036.73 2342.79 2036.73Z" fill="#E5EFFF" fill-rule="evenodd"/><path d="M1271.86 2036.73 1738.67 2036.73 1738.67 2201.73 1271.86 2201.73Z" fill="#FFFFFF" fill-rule="evenodd"/><path d="M1738.67 2036.73 2030.66 2036.73 2030.66 2201.73 1738.67 2201.73Z" fill="#FFFFFF" fill-rule="evenodd"/><path d="M2030.66 2036.73 2342.79 2036.73 2342.79 2201.73 2030.66 2201.73Z" fill="#FFFFFF" fill-rule="evenodd"/><path d="M2342.79 2036.73 2615.31 2036.73 2615.31 2201.73 2342.79 2201.73Z" fill="#FFFFFF" fill-rule="evenodd"/><path d="M1271.86 2201.73 1738.67 2201.73 1738.67 2366.73 1271.86 2366.73Z" fill="#E5EFFF" fill-rule="evenodd"/><path d="M1738.67 2201.73 2030.66 2201.73 2030.66 2366.73 1738.67 2366.73Z" fill="#E5EFFF" fill-rule="evenodd"/><path d="M2030.66 2201.73 2342.79 2201.73 2342.79 2366.73 2030.66 2366.73Z" fill="#E5EFFF" fill-rule="evenodd"/><path d="M2342.79 2201.73 2615.31 2201.73 2615.31 2366.73 2342.79 2366.73Z" fill="#E5EFFF" fill-rule="evenodd"/><path d="M1271.86 1673.73 2615.31 1673.73" stroke="#000000" stroke-width="9.16667" stroke-linejoin="round" stroke-miterlimit="10" fill="none" fill-rule="evenodd"/><path d="M1271.86 1508.73 2615.31 1508.73" stroke="#000000" stroke-width="9.16667" stroke-linejoin="round" stroke-miterlimit="10" fill="none" fill-rule="evenodd"/><path d="M1271.86 2366.73 2615.31 2366.73" stroke="#000000" stroke-width="9.16667" stroke-linejoin="round" stroke-miterlimit="10" fill="none" fill-rule="evenodd"/><text fill="#FFFFFF" font-family="Roboto,Roboto_MSFontService,sans-serif" font-weight="700" font-size="55" transform="matrix(1 0 0 1 2428.33 1577)">Low</text><text fill="#FFFFFF" font-family="Roboto,Roboto_MSFontService,sans-serif" font-weight="700" font-size="55" transform="matrix(1 0 0 1 2410.3 1643)">score</text><text fill="#FFFFFF" font-family="Roboto,Roboto_MSFontService,sans-serif" font-weight="700" font-size="55" transform="matrix(1 0 0 1 2068.13 1577)">Moderate</text><text fill="#FFFFFF" font-family="Roboto,Roboto_MSFontService,sans-serif" font-weight="700" font-size="55" transform="matrix(1 0 0 1 2117.98 1643)">score</text><text fill="#FFFFFF" font-family="Roboto,Roboto_MSFontService,sans-serif" font-weight="700" font-size="55" transform="matrix(1 0 0 1 1826.8 1577)">High</text><text fill="#FFFFFF" font-family="Roboto,Roboto_MSFontService,sans-serif" font-weight="700" font-size="55" transform="matrix(1 0 0 1 1815.91 1643)">score</text><text fill="#FFFFFF" font-family="Roboto,Roboto_MSFontService,sans-serif" font-weight="700" font-size="55" transform="matrix(1 0 0 1 1304.86 1610)">Parameter</text><text font-family="Roboto,Roboto_MSFontService,sans-serif" font-weight="400" font-size="55" transform="matrix(1 0 0 1 2440.95 1775)">1.0</text><text font-family="Roboto,Roboto_MSFontService,sans-serif" font-weight="400" font-size="55" transform="matrix(1 0 0 1 2148.63 1775)">0.5</text><text font-family="Roboto,Roboto_MSFontService,sans-serif" font-weight="400" font-size="55" transform="matrix(1 0 0 1 1846.56 1775)">0.1</text><text font-family="Roboto,Roboto_MSFontService,sans-serif" font-weight="400" font-size="55" transform="matrix(1 0 0 1 1304.86 1742)">Competition</text><text font-family="Roboto,Roboto_MSFontService,sans-serif" font-weight="400" font-size="55" transform="matrix(1 0 0 1 1304.86 1808)">intensity</text><text font-family="Roboto,Roboto_MSFontService,sans-serif" font-weight="400" font-size="55" transform="matrix(1 0 0 1 2440.95 1907)">1.0</text><text font-family="Roboto,Roboto_MSFontService,sans-serif" font-weight="400" font-size="55" transform="matrix(1 0 0 1 2148.63 1907)">0.5</text><text font-family="Roboto,Roboto_MSFontService,sans-serif" font-weight="400" font-size="55" transform="matrix(1 0 0 1 1846.56 1907)">0.1</text><text font-family="Roboto,Roboto_MSFontService,sans-serif" font-weight="400" font-size="55" transform="matrix(1 0 0 1 1304.86 1907)">Buyer power</text><text font-family="Roboto,Roboto_MSFontService,sans-serif" font-weight="400" font-size="55" transform="matrix(1 0 0 1 2440.95 2006)">1.0</text><text font-family="Roboto,Roboto_MSFontService,sans-serif" font-weight="400" font-size="55" transform="matrix(1 0 0 1 2148.63 2006)">0.5</text><text font-family="Roboto,Roboto_MSFontService,sans-serif" font-weight="400" font-size="55" transform="matrix(1 0 0 1 1846.56 2006)">0.1</text><text font-family="Roboto,Roboto_MSFontService,sans-serif" font-weight="400" font-size="55" transform="matrix(1 0 0 1 1304.86 2006)">Supplier power</text><text font-family="Roboto,Roboto_MSFontService,sans-serif" font-weight="400" font-size="55" transform="matrix(1 0 0 1 2440.95 2138)">1.0</text><text font-family="Roboto,Roboto_MSFontService,sans-serif" font-weight="400" font-size="55" transform="matrix(1 0 0 1 2148.63 2138)">0.5</text><text font-family="Roboto,Roboto_MSFontService,sans-serif" font-weight="400" font-size="55" transform="matrix(1 0 0 1 1846.56 2138)">0.1</text><text font-family="Roboto,Roboto_MSFontService,sans-serif" font-weight="400" font-size="55" transform="matrix(1 0 0 1 1304.86 2105)">Threat of new</text><text font-family="Roboto,Roboto_MSFontService,sans-serif" font-weight="400" font-size="55" transform="matrix(1 0 0 1 1304.86 2171)">entrants</text><text font-family="Roboto,Roboto_MSFontService,sans-serif" font-weight="400" font-size="55" transform="matrix(1 0 0 1 2440.95 2303)">1.0</text><text font-family="Roboto,Roboto_MSFontService,sans-serif" font-weight="400" font-size="55" transform="matrix(1 0 0 1 2148.63 2303)">0.5</text><text font-family="Roboto,Roboto_MSFontService,sans-serif" font-weight="400" font-size="55" transform="matrix(1 0 0 1 1846.56 2303)">0.1</text><text font-family="Roboto,Roboto_MSFontService,sans-serif" font-weight="400" font-size="55" transform="matrix(1 0 0 1 1304.86 2270)">Threat of </text><text font-family="Roboto,Roboto_MSFontService,sans-serif" font-weight="400" font-size="55" transform="matrix(1 0 0 1 1304.86 2336)">substitutes</text></g></svg>