<svg width="1280" height="1039" viewBox="0 0 1280 1039" fill="none" xmlns="http://www.w3.org/2000/svg">
<g clip-path="url(#clip0_2524_43580)">
<rect width="1280" height="1039" fill="#E0EAE4"/>
<rect y="14" width="1296" height="173" fill="#0D2A3C"/>
<circle cx="120.5" cy="100.5" r="64.3735" fill="#0D2A3C" stroke="white" stroke-width="8.25301"/>
<path fill-rule="evenodd" clip-rule="evenodd" d="M116.705 61.7109L150.874 80.6175L150.874 94.5708C148.075 93.8551 144.838 93.4361 141.383 93.4361C136.179 93.4361 131.47 94.3888 127.995 95.9268C123.238 98.0328 120.816 101.253 120.51 104.513L120.501 104.612L120.523 135.225L116.705 137.337L82.5371 118.43V80.6175L116.705 61.7109ZM105.316 97.0025L105.316 122.632L112.909 126.834V101.204L105.316 97.0025ZM90.1301 88.5998V114.229L97.723 118.431V92.8012L90.1301 88.5998ZM131.653 78.3845L109.304 90.8071L116.705 94.9023L139.105 82.508L131.653 78.3845ZM116.705 70.1137L94.3062 82.508L101.72 86.6106L124.068 74.188L116.705 70.1137Z" fill="#31729F"/>
<path d="M158.463 127.343C158.456 127.146 158.432 126.951 158.391 126.759C157.441 127.471 156.306 128.131 155.003 128.708C151.517 130.251 146.708 131.249 141.381 131.249C136.257 131.249 131.612 130.327 128.167 128.884C126.691 128.265 125.417 127.543 124.371 126.76C124.33 126.952 124.306 127.146 124.299 127.343L124.297 127.468V131.249L124.299 131.374C124.45 135.493 132.04 138.812 141.381 138.812C150.816 138.812 158.465 135.426 158.465 131.249V127.468L158.463 127.343Z" fill="#88B740"/>
<path d="M158.463 115.999C158.456 115.802 158.432 115.607 158.391 115.415C157.441 116.127 156.306 116.787 155.003 117.364C151.517 118.907 146.708 119.905 141.381 119.905C136.257 119.905 131.612 118.983 128.167 117.54C126.691 116.921 125.417 116.199 124.371 115.416C124.33 115.608 124.306 115.803 124.299 115.999L124.297 116.124V119.905L124.299 120.03C124.45 124.149 132.04 127.468 141.381 127.468C150.816 127.468 158.465 124.082 158.465 119.905V116.124L158.463 115.999Z" fill="#88B740"/>
<path d="M158.463 104.655C158.312 100.536 150.722 97.2173 141.381 97.2173C132.26 97.2173 124.809 100.381 124.322 104.365L124.297 104.78V108.561L124.299 108.686C124.45 112.805 132.04 116.124 141.381 116.124C150.816 116.124 158.465 112.738 158.465 108.561V104.78L158.463 104.655Z" fill="#88B740"/>
</g>
<rect x="7.5" y="7.5" width="1265" height="1024" stroke="white" stroke-width="15"/>
<defs>
<clipPath id="clip0_2524_43580">
<rect width="1280" height="1039" fill="white"/>
</clipPath>
</defs>
</svg>
