<svg width="2411" height="2341" xmlns="http://www.w3.org/2000/svg" xmlns:xlink="http://www.w3.org/1999/xlink" xml:space="preserve" overflow="hidden"><g transform="translate(-207 -639)"><path d="M2242.5 824.691C2242.5 815.749 2249.75 808.5 2258.69 808.5L2590.31 808.5C2599.25 808.5 2606.5 815.749 2606.5 824.691L2606.5 1153.31C2606.5 1162.25 2599.25 1169.5 2590.31 1169.5L2258.69 1169.5C2249.75 1169.5 2242.5 1162.25 2242.5 1153.31Z" stroke="#11BBD8" stroke-width="4.58333" stroke-miterlimit="8" fill="#FFFFFF" fill-rule="evenodd"/><text font-family="Inter,Inter_MSFontService,sans-serif" font-weight="700" font-size="50" transform="matrix(1 0 0 1 2272.7 976)">Aftermarket </text><text font-family="Inter,Inter_MSFontService,sans-serif" font-weight="700" font-size="50" transform="matrix(1 0 0 1 2280.42 1037)">and service</text><path d="M1840.5 824.691C1840.5 815.749 1847.75 808.5 1856.69 808.5L2188.31 808.5C2197.25 808.5 2204.5 815.749 2204.5 824.691L2204.5 1153.31C2204.5 1162.25 2197.25 1169.5 2188.31 1169.5L1856.69 1169.5C1847.75 1169.5 1840.5 1162.25 1840.5 1153.31Z" stroke="#07234B" stroke-width="4.58333" stroke-miterlimit="8" fill="#FFFFFF" fill-rule="evenodd"/><text font-family="Inter,Inter_MSFontService,sans-serif" font-weight="700" font-size="50" transform="matrix(1 0 0 1 1895.44 976)">Marketing </text><text font-family="Inter,Inter_MSFontService,sans-serif" font-weight="700" font-size="50" transform="matrix(1 0 0 1 1904.91 1037)">and sales</text><path d="M1437.5 824.691C1437.5 815.749 1444.75 808.5 1453.69 808.5L1786.31 808.5C1795.25 808.5 1802.5 815.749 1802.5 824.691L1802.5 1153.31C1802.5 1162.25 1795.25 1169.5 1786.31 1169.5L1453.69 1169.5C1444.75 1169.5 1437.5 1162.25 1437.5 1153.31Z" stroke="#11BBD8" stroke-width="4.58333" stroke-miterlimit="8" fill="#FFFFFF" fill-rule="evenodd"/><text font-family="Inter,Inter_MSFontService,sans-serif" font-weight="700" font-size="50" transform="matrix(1 0 0 1 1495.26 976)">Outbound</text><text font-family="Inter,Inter_MSFontService,sans-serif" font-weight="700" font-size="50" transform="matrix(1 0 0 1 1520.47 1037)">logistics </text><path d="M1035.5 824.691C1035.5 815.749 1042.75 808.5 1051.69 808.5L1384.31 808.5C1393.25 808.5 1400.5 815.749 1400.5 824.691L1400.5 1153.31C1400.5 1162.25 1393.25 1169.5 1384.31 1169.5L1051.69 1169.5C1042.75 1169.5 1035.5 1162.25 1035.5 1153.31Z" stroke="#07234B" stroke-width="4.58333" stroke-miterlimit="8" fill="#FFFFFF" fill-rule="evenodd"/><text font-family="Inter,Inter_MSFontService,sans-serif" font-weight="700" font-size="50" transform="matrix(1 0 0 1 1079.83 1006)">Operations</text><path d="M633.5 824.691C633.5 815.749 640.749 808.5 649.691 808.5L981.309 808.5C990.251 808.5 997.5 815.749 997.5 824.691L997.5 1153.31C997.5 1162.25 990.251 1169.5 981.309 1169.5L649.691 1169.5C640.749 1169.5 633.5 1162.25 633.5 1153.31Z" stroke="#11BBD8" stroke-width="4.58333" stroke-miterlimit="8" fill="#FFFFFF" fill-rule="evenodd"/><text font-family="Inter,Inter_MSFontService,sans-serif" font-weight="700" font-size="50" transform="matrix(1 0 0 1 713.245 976)">Inbound </text><text font-family="Inter,Inter_MSFontService,sans-serif" font-weight="700" font-size="50" transform="matrix(1 0 0 1 710.381 1037)">logistics </text><path d="M231.5 824.691C231.5 815.749 238.749 808.5 247.691 808.5L579.309 808.5C588.251 808.5 595.5 815.749 595.5 824.691L595.5 1153.31C595.5 1162.25 588.251 1169.5 579.309 1169.5L247.691 1169.5C238.749 1169.5 231.5 1162.25 231.5 1153.31Z" stroke="#07234B" stroke-width="4.58333" stroke-miterlimit="8" fill="#FFFFFF" fill-rule="evenodd"/><text font-family="Inter,Inter_MSFontService,sans-serif" font-weight="700" font-size="50" transform="matrix(1 0 0 1 334.553 1006)">Inputs</text><path d="M596 948 632 988.5 596 1029Z" fill="#07234B" fill-rule="evenodd"/><path d="M999 948 1034 988.5 999 1029Z" fill="#11BBD8" fill-rule="evenodd"/><path d="M1401 948 1437 988.5 1401 1029Z" fill="#07234B" fill-rule="evenodd"/><path d="M1803 948 1839 988.5 1803 1029Z" fill="#11BBD8" fill-rule="evenodd"/><path d="M2205 948 2241 988.5 2205 1029Z" fill="#07234B" fill-rule="evenodd"/><rect x="231.5" y="1209.5" width="364" height="630" stroke="#404040" stroke-width="4.58333" stroke-miterlimit="8" fill="none"/><text font-family="Inter,Inter_MSFontService,sans-serif" font-weight="400" font-size="50" transform="matrix(1 0 0 1 245.751 1421)">Raw materials </text><text font-family="Inter,Inter_MSFontService,sans-serif" font-weight="400" font-size="50" transform="matrix(1 0 0 1 252.626 1481)">(such as iron, </text><text font-family="Inter,Inter_MSFontService,sans-serif" font-weight="400" font-size="50" transform="matrix(1 0 0 1 348.304 1542)">steel, </text><text font-family="Inter,Inter_MSFontService,sans-serif" font-weight="400" font-size="50" transform="matrix(1 0 0 1 291.287 1602)">aluminum, </text><text font-family="Inter,Inter_MSFontService,sans-serif" font-weight="400" font-size="50" transform="matrix(1 0 0 1 266.651 1663)">plastic, etc.)</text><rect x="633.5" y="1209.5" width="364" height="299" stroke="#404040" stroke-width="4.58333" stroke-miterlimit="8" fill="none"/><text font-family="Inter,Inter_MSFontService,sans-serif" font-weight="400" font-size="50" transform="matrix(1 0 0 1 699.495 1346)">Receiving </text><text font-family="Inter,Inter_MSFontService,sans-serif" font-weight="400" font-size="50" transform="matrix(1 0 0 1 741.891 1407)">inputs</text><rect x="633.5" y="1542.5" width="364" height="299" stroke="#404040" stroke-width="4.58333" stroke-miterlimit="8" fill="none"/><text font-family="Inter,Inter_MSFontService,sans-serif" font-weight="400" font-size="50" transform="matrix(1 0 0 1 718.986 1679)">Material</text><text font-family="Inter,Inter_MSFontService,sans-serif" font-weight="400" font-size="50" transform="matrix(1 0 0 1 712.959 1740)">handling</text><rect x="1034.5" y="1209.5" width="365" height="299" stroke="#404040" stroke-width="4.58333" stroke-miterlimit="8" fill="none"/><text font-family="Inter,Inter_MSFontService,sans-serif" font-weight="400" font-size="50" transform="matrix(1 0 0 1 1122.44 1346)">Product </text><text font-family="Inter,Inter_MSFontService,sans-serif" font-weight="400" font-size="50" transform="matrix(1 0 0 1 1060.29 1407)">development</text><rect x="1437.5" y="1209.5" width="365" height="299" stroke="#404040" stroke-width="4.58333" stroke-miterlimit="8" fill="none"/><text font-family="Inter,Inter_MSFontService,sans-serif" font-weight="400" font-size="50" transform="matrix(1 0 0 1 1551.12 1346)">Order </text><text font-family="Inter,Inter_MSFontService,sans-serif" font-weight="400" font-size="50" transform="matrix(1 0 0 1 1501.85 1407)">fulfillment</text><rect x="1840.5" y="1209.5" width="364" height="299" stroke="#404040" stroke-width="4.58333" stroke-miterlimit="8" fill="none"/><text font-family="Inter,Inter_MSFontService,sans-serif" font-weight="400" font-size="50" transform="matrix(1 0 0 1 1942.71 1376)">Selling</text><rect x="2242.5" y="1209.5" width="364" height="630" stroke="#404040" stroke-width="4.58333" stroke-miterlimit="8" fill="none"/><text font-family="Inter,Inter_MSFontService,sans-serif" font-weight="400" font-size="50" transform="matrix(1 0 0 1 2315.11 1390)">Electrical </text><text font-family="Inter,Inter_MSFontService,sans-serif" font-weight="400" font-size="50" transform="matrix(1 0 0 1 2275.28 1451)">components </text><text font-family="Inter,Inter_MSFontService,sans-serif" font-weight="400" font-size="50" transform="matrix(1 0 0 1 2378.98 1511)">and </text><text font-family="Inter,Inter_MSFontService,sans-serif" font-weight="400" font-size="50" transform="matrix(1 0 0 1 2297.05 1572)">equipment  </text><text font-family="Inter,Inter_MSFontService,sans-serif" font-weight="400" font-size="50" transform="matrix(1 0 0 1 2283.87 1632)">aftermarket </text><text font-family="Inter,Inter_MSFontService,sans-serif" font-weight="400" font-size="50" transform="matrix(1 0 0 1 2285.89 1693)">and service</text><rect x="1437.5" y="1543.5" width="365" height="299" stroke="#404040" stroke-width="4.58333" stroke-miterlimit="8" fill="none"/><text font-family="Inter,Inter_MSFontService,sans-serif" font-weight="400" font-size="50" transform="matrix(1 0 0 1 1462.89 1650)">Warehousing </text><text font-family="Inter,Inter_MSFontService,sans-serif" font-weight="400" font-size="50" transform="matrix(1 0 0 1 1574.61 1711)">and </text><text font-family="Inter,Inter_MSFontService,sans-serif" font-weight="400" font-size="50" transform="matrix(1 0 0 1 1484.39 1771)">distribution</text><rect x="1840.5" y="1540.5" width="364" height="299" stroke="#404040" stroke-width="4.58333" stroke-miterlimit="8" fill="none"/><text font-family="Inter,Inter_MSFontService,sans-serif" font-weight="400" font-size="50" transform="matrix(1 0 0 1 1914.63 1707)">Branding</text><rect x="633.5" y="1876.5" width="364" height="299" stroke="#404040" stroke-width="4.58333" stroke-miterlimit="8" fill="none"/><text font-family="Inter,Inter_MSFontService,sans-serif" font-weight="400" font-size="50" transform="matrix(1 0 0 1 658.532 2043)">Warehousing</text><rect x="229.5" y="1878.5" width="365" height="299" stroke="#404040" stroke-width="4.58333" stroke-miterlimit="8" fill="none"/><text font-family="Inter,Inter_MSFontService,sans-serif" font-weight="400" font-size="50" transform="matrix(1 0 0 1 352.391 2045)">Land</text><rect x="229.5" y="2213.5" width="365" height="299" stroke="#404040" stroke-width="4.58333" stroke-miterlimit="8" fill="none"/><text font-family="Inter,Inter_MSFontService,sans-serif" font-weight="400" font-size="50" transform="matrix(1 0 0 1 238.38 2350)">Manufacturing </text><text font-family="Inter,Inter_MSFontService,sans-serif" font-weight="400" font-size="50" transform="matrix(1 0 0 1 287.376 2411)">machinery</text><rect x="1033.5" y="1544.5" width="365" height="299" stroke="#404040" stroke-width="4.58333" stroke-miterlimit="8" fill="none"/><text font-family="Inter,Inter_MSFontService,sans-serif" font-weight="400" font-size="50" transform="matrix(1 0 0 1 1080.97 1681)">Design and </text><text font-family="Inter,Inter_MSFontService,sans-serif" font-weight="400" font-size="50" transform="matrix(1 0 0 1 1058.93 1742)">development</text><rect x="1033.5" y="1880.5" width="365" height="299" stroke="#404040" stroke-width="4.58333" stroke-miterlimit="8" fill="none"/><text font-family="Inter,Inter_MSFontService,sans-serif" font-weight="400" font-size="50" transform="matrix(1 0 0 1 1042.03 2047)">Manufacturing</text><rect x="1437.5" y="1877.5" width="365" height="299" stroke="#404040" stroke-width="4.58333" stroke-miterlimit="8" fill="none"/><text font-family="Inter,Inter_MSFontService,sans-serif" font-weight="400" font-size="50" transform="matrix(1 0 0 1 1466.62 2014)">E</text><text font-family="Inter,Inter_MSFontService,sans-serif" font-weight="400" font-size="50" transform="matrix(1 0 0 1 1496.98 2014)">-</text><text font-family="Inter,Inter_MSFontService,sans-serif" font-weight="400" font-size="50" transform="matrix(1 0 0 1 1520.47 2014)">commerce </text><text font-family="Inter,Inter_MSFontService,sans-serif" font-weight="400" font-size="50" transform="matrix(1 0 0 1 1501.84 2075)">fulfillment</text><rect x="633.5" y="2209.5" width="364" height="299" stroke="#404040" stroke-width="4.58333" stroke-miterlimit="8" fill="none"/><text font-family="Inter,Inter_MSFontService,sans-serif" font-weight="400" font-size="50" transform="matrix(1 0 0 1 702.36 2346)">Inventory </text><text font-family="Inter,Inter_MSFontService,sans-serif" font-weight="400" font-size="50" transform="matrix(1 0 0 1 731.281 2407)">control</text><rect x="633.5" y="2543.5" width="364" height="434" stroke="#404040" stroke-width="4.58333" stroke-miterlimit="8" fill="none"/><text font-family="Inter,Inter_MSFontService,sans-serif" font-weight="400" font-size="50" transform="matrix(1 0 0 1 727.855 2687)">Vehicle </text><text font-family="Inter,Inter_MSFontService,sans-serif" font-weight="400" font-size="50" transform="matrix(1 0 0 1 662.542 2748)">scheduling &amp; </text><text font-family="Inter,Inter_MSFontService,sans-serif" font-weight="400" font-size="50" transform="matrix(1 0 0 1 698.361 2808)">returns to </text><text font-family="Inter,Inter_MSFontService,sans-serif" font-weight="400" font-size="50" transform="matrix(1 0 0 1 707.23 2869)">suppliers</text><rect x="1033.5" y="2216.5" width="365" height="299" stroke="#404040" stroke-width="4.58333" stroke-miterlimit="8" fill="none"/><text font-family="Inter,Inter_MSFontService,sans-serif" font-weight="400" font-size="50" transform="matrix(1 0 0 1 1092.17 2322)">Assembly, </text><text font-family="Inter,Inter_MSFontService,sans-serif" font-weight="400" font-size="50" transform="matrix(1 0 0 1 1073.54 2383)">testing, and </text><text font-family="Inter,Inter_MSFontService,sans-serif" font-weight="400" font-size="50" transform="matrix(1 0 0 1 1091.59 2443)">packaging</text><rect x="1437.5" y="2211.5" width="365" height="299" stroke="#404040" stroke-width="4.58333" stroke-miterlimit="8" fill="none"/><text font-family="Inter,Inter_MSFontService,sans-serif" font-weight="400" font-size="50" transform="matrix(1 0 0 1 1484.67 2318)">Warehouse </text><text font-family="Inter,Inter_MSFontService,sans-serif" font-weight="400" font-size="50" transform="matrix(1 0 0 1 1481.8 2379)">picking and </text><text font-family="Inter,Inter_MSFontService,sans-serif" font-weight="400" font-size="50" transform="matrix(1 0 0 1 1525.64 2439)">packing</text><rect x="1437.5" y="2546.5" width="365" height="298" stroke="#404040" stroke-width="4.58333" stroke-miterlimit="8" fill="none"/><text font-family="Inter,Inter_MSFontService,sans-serif" font-weight="400" font-size="50" transform="matrix(1 0 0 1 1450.58 2652)">Distribution of </text><text font-family="Inter,Inter_MSFontService,sans-serif" font-weight="400" font-size="50" transform="matrix(1 0 0 1 1525.06 2713)">finished </text><text font-family="Inter,Inter_MSFontService,sans-serif" font-weight="400" font-size="50" transform="matrix(1 0 0 1 1454.86 2773)">goods to POS </text><rect x="1840.5" y="1875.5" width="364" height="299" stroke="#404040" stroke-width="4.58333" stroke-miterlimit="8" fill="none"/><text font-family="Inter,Inter_MSFontService,sans-serif" font-weight="400" font-size="50" transform="matrix(1 0 0 1 1885.99 1981)">Advertising </text><text font-family="Inter,Inter_MSFontService,sans-serif" font-weight="400" font-size="50" transform="matrix(1 0 0 1 1976.78 2042)">and </text><text font-family="Inter,Inter_MSFontService,sans-serif" font-weight="400" font-size="50" transform="matrix(1 0 0 1 1885.99 2102)">promotions</text><rect x="229.5" y="2548.5" width="364" height="299" stroke="#404040" stroke-width="4.58333" stroke-miterlimit="8" fill="none"/><text font-family="Inter,Inter_MSFontService,sans-serif" font-weight="400" font-size="50" transform="matrix(1 0 0 1 342.138 2715)">Labor</text><rect x="1840.5" y="2209.5" width="364" height="299" stroke="#404040" stroke-width="4.58333" stroke-miterlimit="8" fill="none"/><text font-family="Inter,Inter_MSFontService,sans-serif" font-weight="400" font-size="50" transform="matrix(1 0 0 1 1855.91 2346)">Training sales </text><text font-family="Inter,Inter_MSFontService,sans-serif" font-weight="400" font-size="50" transform="matrix(1 0 0 1 1959.33 2407)">force</text><rect x="2242.5" y="1875.5" width="364" height="426" stroke="#404040" stroke-width="4.58333" stroke-miterlimit="8" fill="none"/><text font-family="Inter,Inter_MSFontService,sans-serif" font-weight="400" font-size="50" transform="matrix(1 0 0 1 2307.35 2015)">Customer </text><text font-family="Inter,Inter_MSFontService,sans-serif" font-weight="400" font-size="50" transform="matrix(1 0 0 1 2285.88 2076)">service and </text><text font-family="Inter,Inter_MSFontService,sans-serif" font-weight="400" font-size="50" transform="matrix(1 0 0 1 2306.78 2136)">complaint </text><text font-family="Inter,Inter_MSFontService,sans-serif" font-weight="400" font-size="50" transform="matrix(1 0 0 1 2309.94 2197)">follow</text><text font-family="Inter,Inter_MSFontService,sans-serif" font-weight="400" font-size="50" transform="matrix(1 0 0 1 2454.32 2197)">-</text><text font-family="Inter,Inter_MSFontService,sans-serif" font-weight="400" font-size="50" transform="matrix(1 0 0 1 2477.81 2197)">up</text><g><g><g><path d="M20.3125 37.5C20.3125 38.363 19.613 39.0625 18.75 39.0625 17.8871 39.0625 17.1875 38.363 17.1875 37.5 17.1875 36.6371 17.8871 35.9375 18.75 35.9375 19.613 35.9375 20.3125 36.6371 20.3125 37.5Z" fill="#07234B" transform="matrix(1.09 0 0 1 1975 649)"/><path d="M51.336 74.1813 46.3188 77.0781C45.1352 77.7641 43.7914 78.1252 42.4235 78.125 41.7375 78.1242 41.0547 78.0339 40.3922 77.8563 36.2244 76.7399 33.7508 72.4561 34.8672 68.2883 35.4034 66.2866 36.713 64.5799 38.5078 63.5438L43.6641 60.575 60.0766 39.7063 59.5016 26.4906C59.4746 25.6563 58.7878 24.9953 57.9531 25L51.5625 25 51.5625 33.1C54.0033 33.963 55.2824 36.6411 54.4194 39.0819 53.5564 41.5227 50.8783 42.8017 48.4375 41.9389 45.9967 41.076 44.7177 38.3977 45.5806 35.9569 46.0525 34.622 47.1027 33.572 48.4375 33.1L48.4375 25 20.3125 25 20.3125 33.1C22.7533 33.963 24.0324 36.6411 23.1694 39.0819 22.3064 41.5227 19.6283 42.8017 17.1875 41.9389 14.7467 41.076 13.4676 38.3977 14.3306 35.9569 14.8026 34.622 15.8527 33.572 17.1875 33.1L17.1875 25 10.7969 25C9.96532 24.9944 9.27966 25.6503 9.24844 26.4813L6.38906 92.1157C6.34936 92.9777 7.016 93.7086 7.87803 93.7483 7.90305 93.7496 7.92808 93.75 7.95313 93.75L60.7969 93.75C61.6599 93.751 62.3602 93.0521 62.3611 92.1892 62.3611 92.1647 62.3605 92.1402 62.3594 92.1157L62.0688 85.2156Z" fill="#07234B" transform="matrix(1.09 0 0 1 1975 649)"/><path d="M77.2047 88.3735 67.8125 81.2625C66.6474 80.4756 65.6486 79.4669 64.8735 78.2938L61.1406 72.7094 55.111 73.5781 73.5188 92.5C74.1342 93.0975 75.1149 93.0919 75.7235 92.4875L77.4422 90.7688C77.7769 90.4435 77.9449 89.9832 77.8985 89.5188 77.8508 89.0522 77.5961 88.6317 77.2047 88.3735Z" fill="#07234B" transform="matrix(1.09 0 0 1 1975 649)"/><path d="M51.5625 37.5C51.5625 38.363 50.863 39.0625 50 39.0625 49.1371 39.0625 48.4375 38.363 48.4375 37.5 48.4375 36.6371 49.1371 35.9375 50 35.9375 50.863 35.9375 51.5625 36.6371 51.5625 37.5Z" fill="#07234B" transform="matrix(1.09 0 0 1 1975 649)"/><path d="M72.6969 38.3938C71.7021 36.6827 69.7378 35.7828 67.7922 36.1469L84.6875 65.4188C85.9916 63.921 86.1946 61.7581 85.1922 60.0438Z" fill="#07234B" transform="matrix(1.09 0 0 1 1975 649)"/><path d="M38.3531 72.6563C39.6456 74.8994 42.5117 75.67 44.7549 74.3777 44.7564 74.3767 44.7578 74.376 44.7594 74.375L48.8219 72.0313 44.1344 63.9063 40.0719 66.25C37.8288 67.5425 37.0581 70.4086 38.3505 72.6517 38.3514 72.6533 38.3522 72.6547 38.3531 72.6563Z" fill="#07234B" transform="matrix(1.09 0 0 1 1975 649)"/><path d="M46.5813 61.911 51.7734 70.9016 81.7547 66.5828 65.3125 38.1047Z" fill="#07234B" transform="matrix(1.09 0 0 1 1975 649)"/><path d="M20.3125 10.9375C20.3125 8.34867 22.4111 6.25 25 6.25L43.75 6.25C46.3389 6.25 48.4375 8.34867 48.4375 10.9375L48.4375 25 51.5625 25 51.5625 10.9375C51.5574 6.62492 48.0627 3.13017 43.75 3.125L25 3.125C20.6873 3.13017 17.1927 6.62492 17.1875 10.9375L17.1875 25 20.3125 25Z" fill="#07234B" transform="matrix(1.09 0 0 1 1975 649)"/><path d="M85.4374 43.0472 95.0035 43.0472 95.0035 46.2358 85.4374 46.2358Z" fill="#07234B" transform="matrix(0.925092 -0.490015 0.534118 0.848706 1964.07 699.07)"/><path d="M80.7226 35.8735 90.3153 35.8735 90.3153 39.0711 80.7226 39.0711Z" fill="#07234B" transform="matrix(0.532633 -0.846346 0.92252 0.488653 1985.98 739.698)"/><path d="M87.4844 49.9438 96.8594 49.9438 96.8594 53.0688 87.4844 53.0688Z" fill="#07234B" transform="matrix(1.09 0 0 1 1975 649)"/></g></g></g><path d="M8.77224 36.3671C9.77335 37.3957 11.3982 37.3957 12.3983 36.3671L20.417 28.1264C21.1532 27.3726 21.3716 26.2379 20.9741 25.253 20.5787 24.2684 19.6415 23.6256 18.6037 23.6256L13.6942 23.6256 13.6942 3.20161C13.6942 1.43322 12.3004 0 10.5788 0 8.85716 0 7.46471 1.43322 7.46471 3.20161L7.46471 23.6256 2.56376 23.6256C1.52698 23.6256 0.593467 24.2684 0.194652 25.253-0.201446 26.2379 0.0180044 27.3726 0.750751 28.1264L8.77224 36.3671Z" fill="#07234B" fill-rule="evenodd" transform="matrix(-1 0 0 1 424 651)"/><path d="M24.4811 28.0233C25.8895 28.0233 27.0281 26.8404 27.0281 25.3825L27.0312 13.7062C27.0312 12.6377 26.4087 11.6746 25.457 11.2656 24.5057 10.8573 23.4126 11.084 22.6809 11.8397L19.2347 15.4135 5.28107 0.939731C4.07298-0.313127 2.11459-0.313127 0.906493 0.939731-0.302277 2.19294-0.302277 4.22354 0.906493 5.4764L14.8628 19.9502 11.4217 23.5185C10.6937 24.2731 10.4768 25.4088 10.8729 26.3957 11.2655 27.3844 12.1953 28.0264 13.226 28.0264L24.4811 28.0233Z" fill="#07234B" fill-rule="evenodd" transform="matrix(-1 0 0 1 459 667)"/><path d="M26.1216 0.940081C24.9132-0.313477 22.9548-0.313477 21.7464 0.940081L7.79071 15.4135 4.34725 11.8421C3.61889 11.0875 2.52583 10.8597 1.5738 11.2705 0.622434 11.6791 0 12.6423 0 13.7097L0.0026989 25.3906C0.0026989 26.8484 1.14197 28.031 2.54979 28.031L13.814 28.031C14.8443 28.031 15.7741 27.3872 16.1671 26.4003 16.5635 25.4137 16.3432 24.2777 15.6145 23.5216L12.1683 19.9481 26.122 5.4764C27.3294 4.22319 27.3294 2.19294 26.1216 0.940081Z" fill="#07234B" fill-rule="evenodd" transform="matrix(-1 0 0 1 394 667)"/><path d="M56.9959 18.1296C56.8584 18.1296 56.7306 18.1467 56.5924 18.1501 54.6364 7.81668 45.5469 0 34.6054 0 22.2376 0 12.2079 9.98518 12.2079 22.3051 12.2079 24.1846 12.468 25.9968 12.909 27.7403 12.6713 27.726 12.4487 27.6702 12.2079 27.6702 5.46532 27.6702 0 33.1141 0 39.8372 0 46.2792 4.89478 51.5802 11.2509 51.9999L56.9959 51.9999C66.3865 51.9999 73.9999 44.4171 73.9999 35.0637 74.0003 25.7113 66.3865 18.1296 56.9959 18.1296Z" fill="#07234B" fill-rule="evenodd" transform="matrix(-1 0 0 1 448 695)"/><path d="M767 694 784.758 694 784.758 707.398 787.06 706.25 789.034 707.398 791.336 706.25 793.966 707.398 795.94 706.25 797.913 707.398 797.913 694 816 694 816 743 767 743 767 694Z" fill="#11BBD8" fill-rule="evenodd"/><path d="M767 655 776.667 655 776.667 666.511 778.667 665.36 781.333 666.511 783.667 665.36 785.667 666.511 788.333 665.36 790.333 666.511 790.333 655 800 655 800 688 767 688 767 655Z" fill="#11BBD8" fill-rule="evenodd"/><path d="M821 701 835.326 701 835.326 713.715 837.605 712.56 839.884 713.715 842.163 712.56 844.442 713.715 846.721 712.56 848.674 713.33 848.674 701 863 701 863 743 821 743 821 701Z" fill="#11BBD8" fill-rule="evenodd"/><path d="M835.524 660 849.477 660 849.919 660 850.141 660.531 850.362 661.062 850.362 674.344 857.893 674.344 858.336 674.344 858.557 674.609 858.779 674.875 859 675.406 858.779 675.938 858.557 676.203 843.275 693.469 842.832 693.734 842.611 694 842.168 693.734 841.946 693.469 826.222 676.203 826 675.938 826 675.406 826 674.875 826.222 674.609 826.664 674.344 826.886 674.344 834.638 674.344 834.638 661.062 834.638 660.531 835.081 660 835.524 660Z" fill="#11BBD8" fill-rule="evenodd"/><path d="M1270.03 695.085C1270.03 693.934 1269.17 693 1268.11 693L1247 693 1247 718.033 1270.03 718.033Z" fill="#07234B" fill-rule="evenodd"/><path d="M1243.03 693 1221.92 693C1220.86 693 1220 693.934 1220 695.085L1220 718.033 1243.03 718.033Z" fill="#07234B" fill-rule="evenodd"/><path d="M1256.03 666.086C1256.03 664.935 1255.17 664.004 1254.11 664L1234.92 664C1233.86 664.004 1233 664.935 1233 666.086L1233 689.033 1256.03 689.033ZM1249.72 677.998C1248.96 678.804 1247.75 678.804 1246.99 677.998L1246.43 677.392 1246.43 682.775C1246.43 683.927 1245.58 684.861 1244.52 684.861 1243.46 684.861 1242.6 683.927 1242.6 682.775L1242.6 677.392 1242.04 677.998C1241.29 678.81 1240.07 678.807 1239.32 677.992 1238.57 677.176 1238.57 675.854 1239.31 675.036L1243.15 670.863C1243.91 670.05 1245.12 670.05 1245.88 670.863L1249.72 675.036C1250.46 675.855 1250.46 677.178 1249.72 677.998Z" fill="#07234B" fill-rule="evenodd"/><path d="M1267.68 722 1180.39 722C1174.1 722 1169 727.603 1169 734.516 1169 741.429 1174.1 747.032 1180.39 747.032L1267.68 747.032C1273.97 747.032 1279.07 741.429 1279.07 734.516 1279.07 727.603 1273.97 722 1267.68 722ZM1186.08 738.688C1183.98 738.688 1182.28 736.82 1182.28 734.516 1182.28 732.212 1183.98 730.344 1186.08 730.344 1188.18 730.344 1189.88 732.212 1189.88 734.516 1189.88 736.82 1188.18 738.688 1186.08 738.688ZM1201.26 738.688C1199.17 738.688 1197.47 736.82 1197.47 734.516 1197.47 732.212 1199.17 730.344 1201.26 730.344 1203.36 730.344 1205.06 732.212 1205.06 734.516 1205.06 736.82 1203.36 738.688 1201.26 738.688ZM1216.44 738.688C1214.35 738.688 1212.65 736.82 1212.65 734.516 1212.65 732.212 1214.35 730.344 1216.44 730.344 1218.54 730.344 1220.24 732.212 1220.24 734.516 1220.24 736.82 1218.54 738.688 1216.44 738.688ZM1231.63 738.688C1229.53 738.688 1227.83 736.82 1227.83 734.516 1227.83 732.212 1229.53 730.344 1231.63 730.344 1233.72 730.344 1235.42 732.212 1235.42 734.516 1235.42 736.82 1233.72 738.688 1231.63 738.688ZM1246.81 738.688C1244.71 738.688 1243.01 736.82 1243.01 734.516 1243.01 732.212 1244.71 730.344 1246.81 730.344 1248.9 730.344 1250.6 732.212 1250.6 734.516 1250.6 736.82 1248.9 738.688 1246.81 738.688ZM1261.99 738.688C1259.89 738.688 1258.2 736.82 1258.2 734.516 1258.2 732.212 1259.89 730.344 1261.99 730.344 1264.09 730.344 1265.79 732.212 1265.79 734.516 1265.79 736.82 1264.09 738.688 1261.99 738.688Z" fill="#07234B" fill-rule="evenodd"/><path d="M1185.56 669C1178.07 669 1172 675.519 1172 683.559 1172 691.601 1178.07 698.119 1185.56 698.119 1193.04 698.119 1199.11 691.601 1199.11 683.559 1199.1 675.523 1193.04 669.009 1185.56 669ZM1185.56 693.959C1180.21 693.959 1175.87 689.303 1175.87 683.559 1175.87 677.817 1180.21 673.16 1185.56 673.16 1190.9 673.16 1195.24 677.817 1195.24 683.559 1195.23 689.3 1190.9 693.952 1185.56 693.959Z" fill="#07234B" fill-rule="evenodd"/><path d="M1209.2 706.005 1214.94 695.261C1215.46 694.271 1215.15 693.01 1214.24 692.436L1208.13 688.622C1208.66 685.625 1208.66 682.549 1208.14 679.553L1214.23 675.743C1214.67 675.472 1215 675.021 1215.13 674.491 1215.26 673.96 1215.2 673.395 1214.94 672.918L1209.2 662.17C1208.95 661.697 1208.53 661.353 1208.05 661.213 1207.56 661.074 1207.04 661.15 1206.6 661.425L1200.51 665.235C1198.36 663.255 1195.89 661.714 1193.23 660.687L1193.23 653.073C1193.24 652.526 1193.04 652.002 1192.68 651.614 1192.33 651.225 1191.84 651.006 1191.34 651.005L1179.87 651C1179.36 651.001 1178.87 651.22 1178.51 651.612 1178.16 652.002 1177.96 652.531 1177.96 653.081L1177.96 660.696C1175.3 661.705 1172.84 663.245 1170.71 665.235L1164.6 661.422C1163.69 660.854 1162.52 661.192 1161.99 662.178L1156.26 672.922C1155.74 673.911 1156.05 675.173 1156.96 675.746L1163.07 679.562C1162.54 682.558 1162.54 685.633 1163.06 688.63L1156.97 692.44C1156.53 692.711 1156.2 693.161 1156.07 693.692 1155.93 694.222 1156 694.788 1156.25 695.265L1161.99 706.013C1162.25 706.486 1162.66 706.83 1163.15 706.97 1163.64 707.109 1164.16 707.033 1164.6 706.757L1170.69 702.946C1172.84 704.928 1175.31 706.469 1177.97 707.495L1177.96 715.11C1177.96 715.656 1178.16 716.181 1178.52 716.569 1178.87 716.956 1179.36 717.176 1179.86 717.178L1191.33 717.183C1191.84 717.182 1192.32 716.961 1192.68 716.571 1193.04 716.18 1193.24 715.652 1193.23 715.102L1193.24 707.487C1195.9 706.478 1198.36 704.938 1200.49 702.947L1206.6 706.761C1207.51 707.329 1208.68 706.991 1209.2 706.005ZM1185.6 702.701C1176.1 702.701 1168.4 694.37 1168.4 684.092 1168.4 673.814 1176.1 665.482 1185.6 665.482 1195.09 665.482 1202.79 673.814 1202.79 684.092 1202.78 694.365 1195.09 702.69 1185.6 702.701Z" fill="#07234B" fill-rule="evenodd"/><g><g><g><path d="M86.9501 69.375C80.8284 69.375 75.8501 74.3533 75.8501 80.475 75.8501 86.5967 80.8284 91.575 86.9501 91.575 93.0718 91.575 98.0501 86.5967 98.0501 80.475 98.0501 74.3533 93.0716 69.375 86.9501 69.375ZM86.9501 87.875C82.8689 87.875 79.5502 84.556 79.5502 80.475 79.5502 76.394 82.8691 73.0751 86.9501 73.0751 91.0313 73.0751 94.35 76.394 94.35 80.475 94.35 84.556 91.0311 87.875 86.9501 87.875Z" fill="#11BBD8" transform="matrix(1 0 0 1.07207 1564 639)"/><path d="M24.0499 69.375C17.9282 69.375 12.9499 74.3533 12.9499 80.475 12.9499 86.5967 17.9282 91.575 24.0499 91.575 30.1716 91.575 35.1499 86.5967 35.1499 80.475 35.1499 74.3533 30.1716 69.375 24.0499 69.375ZM24.0499 87.875C19.9687 87.875 16.65 84.556 16.65 80.475 16.65 76.394 19.9689 73.0751 24.0499 73.0751 28.1309 73.0751 31.4499 76.394 31.4499 80.475 31.4499 84.556 28.1311 87.875 24.0499 87.875Z" fill="#11BBD8" transform="matrix(1 0 0 1.07207 1564 639)"/><path d="M107.3 60.1249 110.075 60.1249C110.586 60.1249 111 59.7106 111 59.1999L111 57.3499C111 56.8394 110.586 56.4249 110.075 56.4249L85.0999 56.4249C84.0788 56.4249 83.25 55.5961 83.25 54.5749L83.25 36.9999C83.25 36.4893 82.8357 36.0748 82.325 36.0748L77.7 36.0748C76.6789 36.0748 75.8501 36.9036 75.8501 37.9247L75.8501 65.6747 72.15 65.6747C72.15 51.7054 72.15 26.8247 72.15 26.8247 72.15 22.7435 68.8311 19.4248 64.7501 19.4248L3.70007 19.4248C2.67896 19.4248 1.85015 20.2536 1.85015 21.2747L1.85015 36.9996C1.85015 37.5102 2.26444 37.9247 2.77522 37.9247L52.5013 37.9247C53.3245 37.9247 53.739 36.9277 53.1562 36.3449L50.4942 33.6829C49.7707 32.9594 49.7707 31.7902 50.4942 31.067 51.2176 30.3438 52.3868 30.3438 53.11 31.067L60.51 38.4669C61.2315 39.1884 61.2315 40.3613 60.51 41.0828L53.11 48.4827C52.7473 48.8435 52.2739 49.0247 51.8002 49.0247 51.3265 49.0247 50.853 48.8435 50.4922 48.4827 49.7688 47.7593 49.7688 46.5901 50.4922 45.8669L53.1543 43.2048C53.737 42.6221 53.3245 41.625 52.5013 41.625L2.775 41.625C2.26444 41.625 1.84993 42.0393 1.84993 42.5501L1.84993 55.5C1.84993 56.0106 2.26423 56.4251 2.775 56.4251L5.55 56.4251C6.57112 56.4251 7.39993 57.2539 7.39993 58.275 7.39993 59.2961 6.57112 60.1249 5.55 60.1249L2.775 60.1249C2.26444 60.1249 1.84993 60.5392 1.84993 61.05L1.84993 63.825C0.828815 63.825 3.85109e-16 64.6538 3.85109e-16 65.6749L3.85109e-16 74.9268C3.85109e-16 75.4189 0.19425 75.8887 0.541992 76.2366 0.889735 76.5826 1.35975 76.7769 1.84993 76.7769L1.85188 76.7769 7.39993 76.7752C7.39993 76.7752 9.24986 76.7752 10.1897 75.273 13.6326 66.0988 25.6557 61.7754 35.148 70.1613 36.6816 71.5154 37.4124 73.4636 37.9729 75.4302 38.2005 76.2312 38.9294 76.7752 39.7525 76.7752L70.2997 76.7752C71.3208 76.7752 72.1496 75.9464 72.1496 74.9252 72.1496 74.9235 72.1496 74.9196 72.1496 74.9159 72.1496 74.8012 72.1496 72.6625 72.1496 69.3752L76.4842 69.3752C76.9209 69.3752 77.3388 69.2124 77.6794 68.9386 82.2064 65.294 88.3484 64.5855 94.3869 67.4124 97.6891 68.959 99.6852 72.1132 100.91 75.5487 101.173 76.2832 101.87 76.7754 102.653 76.7754L109.15 76.7754C110.171 76.7754 111 75.9466 111 74.9255L111 64.7505C111 64.24 110.586 63.8255 110.075 63.8255L107.3 63.8255C106.279 63.8255 105.45 62.9966 105.45 61.9755 105.45 60.9538 106.279 60.1249 107.3 60.1249Z" fill="#11BBD8" transform="matrix(1 0 0 1.07207 1564 639)"/><path d="M110.874 51.3505 102.422 37.0259C102.076 36.4394 101.419 36.075 100.705 36.075L87.9324 36.075C87.3904 36.075 86.9501 36.4893 86.9501 37.0001L86.9501 51.8002C86.9501 52.3107 87.3904 52.7252 87.9324 52.7252L110.016 52.7252C110.765 52.725 111.239 51.9664 110.874 51.3505Z" fill="#11BBD8" transform="matrix(1 0 0 1.07207 1564 639)"/></g></g></g><path d="M2437.67 702C2436.39 708.458 2430.65 713.333 2424 713.333 2417.35 713.333 2411.79 708.458 2410.51 702L2405 702C2406.35 711.586 2414.31 719 2424 719 2433.68 719 2441.83 711.586 2443.18 702L2437.67 702Z" fill="#11BBD8" fill-rule="evenodd"/><path d="M2448.17 702C2446.8 715.128 2436.45 725.402 2424 725.402 2411.55 725.402 2401.38 715.128 2400.01 702L2378 702 2378 704.925C2378 706.185 2378.74 707.305 2379.85 707.702L2390.94 711.63C2391.4 713.064 2391.89 714.37 2392.42 715.575L2387.3 726.734C2386.79 727.859 2386.99 729.216 2387.81 730.105L2395.41 738.352C2396.23 739.246 2397.48 739.458 2398.52 738.903L2408.8 733.35C2409.91 733.921 2411.11 734.455 2412.43 734.961L2416.05 746.997C2416.42 748.191 2417.45 749 2418.61 749L2429.57 749C2430.73 749 2431.76 748.191 2432.13 746.997L2435.75 734.961C2437.07 734.455 2438.27 733.921 2439.38 733.35L2449.66 738.903C2450.7 739.46 2451.95 739.246 2452.77 738.352L2460.37 730.105C2461.19 729.216 2461.39 727.859 2460.88 726.734L2455.76 715.575C2456.29 714.37 2456.78 713.064 2457.24 711.63L2468.15 707.702C2469.25 707.305 2470 706.185 2470 704.925L2470 702 2448.17 702Z" fill="#11BBD8" fill-rule="evenodd"/><path d="M2416 702C2417.17 705.484 2420.27 708 2423.95 708 2427.63 708 2430.92 705.484 2432.09 702L2416 702Z" fill="#11BBD8" fill-rule="evenodd"/><path d="M2423.91 649C2417.89 649 2413 654.158 2413 660.5 2413 666.842 2417.89 672 2423.91 672 2429.93 672 2435 666.842 2435 660.5 2435 654.158 2429.93 649 2423.91 649Z" fill="#11BBD8" fill-rule="evenodd"/><path d="M2451 649C2444.93 649 2440 654.158 2440 660.5 2440 666.842 2444.93 672 2451 672 2457.07 672 2462 666.842 2462 660.5 2462 654.158 2457.07 649 2451 649Z" fill="#11BBD8" fill-rule="evenodd"/><path d="M2397 649C2390.93 649 2386 654.158 2386 660.5 2386 666.842 2390.93 672 2397 672 2403.07 672 2408 666.842 2408 660.5 2408 654.158 2403.07 649 2397 649Z" fill="#11BBD8" fill-rule="evenodd"/><path d="M2460.52 675C2457.93 676.984 2454.79 678.163 2451.4 678.163 2448.03 678.163 2444.9 676.997 2442.32 675.028 2441.15 675.769 2440.02 676.603 2439 677.608 2444.2 681.887 2447.81 688.571 2448.57 696.023L2470.11 696.023 2470.11 693.079C2470.11 685.381 2466.21 678.538 2460.52 675Z" fill="#11BBD8" fill-rule="evenodd"/><path d="M2423.99 678C2414.34 678 2406.33 685.949 2405 696L2443.16 696C2441.82 685.949 2433.64 678 2423.99 678Z" fill="#11BBD8" fill-rule="evenodd"/><path d="M2405.81 675.028C2403.24 676.997 2400.13 678.163 2396.78 678.163 2393.41 678.163 2390.29 676.984 2387.71 675 2382.05 678.538 2378 685.381 2378 693.079L2378 696.023 2399.6 696.023C2400.36 688.571 2403.94 681.887 2409.11 677.608 2408.1 676.603 2406.98 675.769 2405.81 675.028Z" fill="#11BBD8" fill-rule="evenodd"/></g></svg>